<svg width="1764" height="1323" viewBox="0 0 1764 1323" fill="none" xmlns="http://www.w3.org/2000/svg">
<g clip-path="url(#clip0_183_702)">
<path d="M765.817 672.203L792.216 686.878L797.284 689.696L889.927 783.038L990.863 795.821L960.67 869.651L845.408 835.27L750.862 756.63L737.198 762.983L765.817 672.203Z" fill="#211F27"/>
<path d="M765.817 672.203L770.849 651.908C771.912 668.629 775.993 677.304 792.216 686.878L765.817 672.203Z" fill="#211F27"/>
<path d="M765.817 672.203L737.198 762.983L750.862 756.63L845.408 835.27L960.67 869.651L990.863 795.821L889.927 783.038L797.284 689.696M765.817 672.203L770.849 651.908C771.912 668.629 775.993 677.304 792.216 686.878M765.817 672.203L792.216 686.878M797.284 689.696C795.475 688.743 793.789 687.806 792.216 686.878M797.284 689.696L792.216 686.878" stroke="black" stroke-width="0.350418"/>
<path d="M630.602 767.611L587.627 754.829C592.663 764.631 596.754 772.635 600.183 780.366L642.283 798.465L659.032 796.041L665.424 815.215L687.462 792.515L696.376 822.267L713.468 787.446C707.208 788.181 703.682 788.036 697.38 785.242C706.221 770.436 713.588 761.359 728.895 744.47C707.051 753.517 696.169 759.98 681.512 776.426L642.283 752.184L630.602 767.611Z" fill="#C5B5A5"/>
<path d="M688.016 535.102C693.413 528.27 698.482 523.422 699.143 518.133C698.616 509.759 696.417 505.313 689.887 507.995C683.357 510.677 681.512 521.302 688.016 535.102Z" fill="black"/>
<path d="M792.587 1107.08L789.722 1175.99L954.94 1179.96C927.094 1151.83 911.264 1137.54 867.078 1130.81V1102.08L792.587 1107.08Z" fill="black"/>
<path d="M336.826 1100.34L331.978 1129.27C302.985 1142.96 288.884 1155.03 265.2 1179.51H402.942V1155.27L420.133 1105.81L336.826 1100.34Z" fill="black"/>
<path d="M469.494 597.472C470.854 597.733 474.418 597.216 478.28 596.656C480.052 596.399 481.886 596.133 483.598 595.929L499.687 593.725L501.235 595.268H511.153C517.484 623.158 521.138 636.865 528.122 652.348L530.767 622.596C540.47 636.939 545.822 644.996 557.654 658.96C562.164 657.046 564 655.359 566.029 651.246C567.944 665.602 570.178 673.87 577.048 689.153C577.475 678.984 576.594 672.19 572.42 657.417C587.525 675.78 596.5 685.469 615.396 699.291C614.921 686.775 614.358 679.744 611.429 667.114C627.552 684.113 635.352 694.061 649.115 711.853L652.421 692.459L681.512 730.586C691.308 719.594 696.668 713.52 701.347 705.903C704.788 705.874 706.718 705.443 710.162 703.919C716.326 697.161 719.129 691.149 723.606 678.575C724.885 663.68 725.891 655.629 732.642 646.398C733.437 652.915 733.762 657.413 733.964 668.216C741.989 656.848 747.874 654.211 748.289 622.376L764.371 627.885C764.378 619.456 763.634 613.645 761.953 602.761L756.437 597.472C675.543 597.603 629.051 596.613 557.208 605.186L556.439 603.967L556.438 603.966C542.984 582.644 535.208 570.319 522.166 541.714C520.133 542.267 518.162 542.798 516.252 543.312C516.245 543.314 516.238 543.316 516.231 543.318C498.628 548.058 486.102 551.431 476.106 558.243C482.254 561.289 489.609 562.321 498.464 563.563C502.005 564.059 505.785 564.589 509.825 565.295C492.653 572.395 467.51 597.091 469.494 597.472Z" fill="#D2CFC9"/>
<path d="M774.068 635.379C775.688 622.451 773.726 616.232 770.101 605.186L761.953 602.761C763.634 613.645 764.378 619.456 764.371 627.885L748.289 622.376C747.874 654.211 741.989 656.848 733.964 668.216C733.762 657.413 733.437 652.915 732.642 646.398C725.891 655.629 724.885 663.68 723.606 678.575C719.129 691.149 716.326 697.161 710.162 703.919C706.718 705.443 704.788 705.874 701.347 705.903C696.668 713.52 691.308 719.594 681.512 730.586L652.421 692.459L649.115 711.853C635.352 694.061 627.552 684.113 611.429 667.114C614.358 679.744 614.921 686.775 615.396 699.291C596.5 685.469 587.525 675.78 572.42 657.417C576.594 672.19 577.475 678.984 577.048 689.153C570.178 673.87 567.944 665.602 566.029 651.246C564 655.359 562.164 657.046 557.654 658.96C545.822 644.996 540.47 636.939 530.767 622.596L528.122 652.348C521.138 636.865 517.484 623.158 511.153 595.268H501.235L499.687 593.725L483.598 595.929C482.139 599.24 481.651 605.431 480.837 615.775C480.828 615.886 480.819 615.997 480.811 616.108C480.785 616.43 480.759 616.756 480.733 617.086C488.617 614.833 492.786 613.23 499.687 609.593L506.96 654.552L509.882 656.955C509.883 656.956 509.884 656.956 509.884 656.957C544.479 685.399 564.758 702.071 598.42 731.027C598.424 730.952 598.428 730.878 598.432 730.804C598.438 730.702 598.443 730.601 598.449 730.501C598.459 730.31 598.47 730.121 598.48 729.934C598.493 729.678 598.507 729.426 598.52 729.177C598.523 729.121 598.526 729.064 598.529 729.008C598.53 729.001 598.53 728.993 598.531 728.986C598.837 723.251 599.039 719.476 600.183 714.057C629.923 730.399 646.659 739.181 676.878 752.184C705.545 718.696 721.948 700.583 752.47 670.861C752.534 669.01 752.57 667.266 752.605 665.606C752.605 665.603 752.605 665.6 752.605 665.598C752.811 655.753 752.955 648.861 758.201 640.227C760.118 640.951 761.429 642.497 764.371 648.161C766.936 639.748 768.169 637.092 770.101 635.379H774.068Z" fill="#C5B5A5"/>
<path d="M621.787 498.358C595.113 509.272 584.047 509.209 575.946 500.281C572.574 497.144 568.986 494.249 566.029 491.318C566.041 491.359 566.053 491.399 566.065 491.44C571.508 509.752 566.779 511.914 558.095 515.488C560.895 516.344 563.543 517.048 566.065 517.601C588.752 522.577 601.212 515.418 621.656 498.467C621.7 498.43 621.743 498.394 621.787 498.358Z" fill="#A4395B"/>
<path d="M552.585 441.217C547.492 450.562 545.292 455.824 542.227 465.24L552.585 464.64L568.894 463.697C578.133 466.287 590.759 467.854 603.299 469.411L603.3 469.411C612.501 470.554 619.998 471.69 627.737 473.221C631.55 473.975 635.355 474.605 638.316 475.598C634.743 474.707 631.005 474.069 627.737 473.221C600.039 466.037 583.629 459.653 552.585 441.217Z" fill="#FEBD87"/>
<path d="M789.502 532.725C785.155 535.321 779.881 536.881 771.43 538.629C767.59 548.872 771.444 553.686 776.98 560.6C776.981 560.601 776.982 560.602 776.983 560.603C776.988 560.609 776.992 560.615 776.997 560.621C777.522 561.277 778.062 561.951 778.612 562.651C783.221 562.098 785.753 559.99 789.502 532.725Z" fill="black"/>
<path d="M720.741 502.265C732.594 502.059 735.727 500.502 740.355 482.871C736.609 479.565 732.386 474.796 725.149 474.716C716.706 476.99 713.879 479.061 711.264 483.752C708.78 497.432 714.847 498.781 720.741 502.265Z" fill="#AC3131"/>
<path fill-rule="evenodd" clip-rule="evenodd" d="M627.737 473.221C631.55 473.975 635.355 474.605 638.316 475.598C634.743 474.707 631.005 474.069 627.737 473.221ZM632.49 493.238C635.019 483.625 635.274 477.6 618.53 474.432C614.535 473.377 611.016 473.023 608.123 473.221C604.249 473.487 600.128 480.537 598.867 482.43C597.026 485.191 607.282 498.944 621.656 498.467C623.614 498.402 625.647 498.073 627.737 497.416L630.537 494.955L632.49 493.238Z" fill="#AC3131"/>
<path d="M568.894 463.697L552.585 464.64C554.371 474.511 555.54 480.921 566.065 491.44C566.053 491.399 566.041 491.359 566.029 491.318C568.986 494.249 572.574 497.144 575.946 500.281C584.047 509.209 595.113 509.272 621.787 498.358L627.737 497.416C625.647 498.073 623.614 498.402 621.656 498.467C607.282 498.944 597.026 485.191 598.867 482.43C600.128 480.537 604.249 473.487 608.123 473.221C611.016 473.023 614.535 473.377 618.53 474.432C635.274 477.6 635.019 483.625 632.49 493.238L658.592 480.667L638.316 475.598C634.743 474.707 631.005 474.069 627.737 473.221C619.998 471.69 612.501 470.554 603.3 469.411L603.299 469.411C590.759 467.854 578.133 466.287 568.894 463.697Z" fill="black"/>
<path d="M655.721 510.419C651.73 519.612 660.049 525.237 671.099 535.102C672.864 523.468 674.324 516.833 664.322 507.995C660.892 505.691 659.024 506.956 655.721 510.419Z" fill="black"/>
<path d="M669.17 541.714H678.427H686.36H694.294C686.044 535.826 683.214 527.709 680.63 506.672H674.68C674.258 519.069 673.397 526.42 671.099 535.102C670.545 537.199 669.906 539.373 669.17 541.714Z" fill="#B74A5F"/>
<path d="M557.208 605.186C611.94 585.936 656.395 583.984 756.217 593.725C740.68 584.982 730.996 580.243 686.36 576.315C684.491 562.171 683.121 554.136 686.36 541.714H678.427C680.236 556.844 679.435 564.481 678.427 578.298H615.837L587.847 545.901L561.181 553.395L499.687 465.24L535.395 420.727L519.968 411.758C504.381 428.18 491.873 443.225 473.24 467.223C510.924 526.701 514.889 531.995 521.725 541.125L522.166 541.714C535.208 570.319 542.984 582.644 556.438 603.966L556.439 603.967L557.208 605.186Z" fill="#B74A5F"/>
<path d="M756.217 593.725C656.395 583.984 611.94 585.936 557.208 605.186C629.051 596.613 675.543 597.603 756.437 597.472L756.217 593.725Z" fill="black"/>
<path d="M655.721 430.639C624.982 419.667 610.03 415.676 595.891 411.902C581.263 407.997 567.505 404.325 538.034 393.393C531.358 399.99 525.471 405.959 519.968 411.758L535.395 420.727L575.946 444.303C607.313 457.412 625.873 454.572 667.187 467.223C689.212 455.185 703.224 448.302 734.846 435.487C745.244 459.373 751.525 469.524 762.471 489.482C765.477 479.143 768.324 466.967 770.983 451.355L724.481 410.363C693.837 418.052 677.957 422.444 655.721 430.639Z" fill="#FEBD87"/>
<path d="M811.689 464.578L793.617 481.328L779.805 499.4C779.455 510.675 778.366 515.344 776.581 523.004C776.482 523.428 776.381 523.86 776.279 524.303C790.995 524.594 794.196 525.577 795.452 528.05C793.516 529.949 791.619 531.46 789.502 532.725C785.753 559.99 783.221 562.098 778.612 562.651C779.005 563.151 779.403 563.665 779.805 564.194C774.116 564.274 771.242 563.339 766.581 560.227C763.72 571.963 761.882 577.341 758.427 586.012V594.387L818.146 545.901C818.497 529.237 816.986 485.398 811.689 464.578Z" fill="#B74A5F"/>
<path fill-rule="evenodd" clip-rule="evenodd" d="M756.217 586.012L740.129 549.648C724.642 522.394 717.563 511.441 706.857 496.958C698.063 493.524 686.662 488.709 667.848 481.328L658.592 480.667L632.49 493.238L630.537 494.955C629.454 496.037 628.278 497.246 627.737 497.416C625.647 498.073 623.614 498.402 621.656 498.467C601.212 515.418 588.752 522.577 566.065 517.601L587.847 545.901L615.837 578.298H678.427C679.435 564.481 680.236 556.844 678.427 541.714H669.17C669.906 539.373 670.545 537.199 671.099 535.102C660.049 525.237 651.73 519.612 655.721 510.419C659.024 506.956 660.892 505.691 664.322 507.995C674.324 516.833 672.864 523.468 671.099 535.102C673.397 526.42 674.258 519.069 674.68 506.672H680.63C683.214 527.709 686.044 535.826 694.294 541.714H686.36C683.121 554.136 684.491 562.171 686.36 576.315C730.996 580.243 740.68 584.982 756.217 593.725V586.012ZM699.143 518.133C698.482 523.422 693.413 528.27 688.016 535.102C681.512 521.302 683.357 510.677 689.887 507.995C696.417 505.313 698.616 509.759 699.143 518.133Z" fill="#FEBD87"/>
<path d="M737.27 453.78C712.064 464.966 695.612 470.717 667.848 481.328C691.163 475.097 704.233 471.674 727.573 469.527H743.22C741.445 461.986 740.041 458.805 737.27 453.78Z" fill="#FEBD87"/>
<path d="M720.741 502.265C714.847 498.781 708.78 497.432 711.264 483.752C713.879 479.061 716.706 476.99 725.149 474.716C732.386 474.796 736.609 479.565 740.355 482.871C738.884 477.3 736.451 471.561 727.573 469.527C704.233 471.674 691.163 475.097 667.848 481.328C686.662 488.709 698.063 493.524 706.857 496.958C711.454 498.754 716.882 501.054 720.741 502.265Z" fill="black"/>
<path d="M387.29 508.876L371.207 506.011L380.463 514.166C387.627 529.779 392.206 538.021 401.835 551.631L387.29 556.26L389.278 563.092C398.118 559.803 403.027 558.117 410.774 558.243L409.671 537.086L387.29 508.876Z" fill="black"/>
<path d="M387.29 460.391L347.62 436.369C319.514 468.917 311.303 485.377 321.394 508.876L343.879 554.496C352.142 561.513 356.75 565.459 364.815 572.568L412.199 585.571L410.774 558.243C403.027 558.117 398.118 559.803 389.278 563.092L387.29 556.26L367.46 537.086L354.678 506.011L347.84 495.873L387.29 460.391Z" fill="#D15F6F"/>
<path d="M406.028 467.223C398.276 467.729 394.069 466.952 387.29 460.391L347.84 495.873L354.678 506.011L367.46 537.086L387.29 556.26L401.835 551.631C392.206 538.021 387.627 529.779 380.463 514.166L371.207 506.011L387.29 508.876L409.671 537.086L406.028 467.223Z" fill="#B74A5F"/>
<path d="M415.059 965.739C334.843 958.907 218.61 985.879 248.446 846.95C278.282 708.022 88.8905 690.035 77.8664 697.528C66.8424 705.021 63.5457 719.346 77.8664 727.941C92.1871 736.536 243.602 721.109 220.016 846.95C196.781 970.918 271.293 1005.29 391.727 987.939L397.217 987.117L415.059 965.739Z" fill="#211F27"/>
<path d="M515.12 993.288L528.117 965.739L481.51 961.38L455.395 958.907L448.342 984.913L515.12 993.288Z" fill="#6B304C"/>
<path d="M672.035 954.459L528.117 965.739L515.12 993.288L672.035 982.929V954.459Z" fill="#6B304C"/>
<path d="M676.878 884.416L527.169 887.314L536.277 952.075L702.449 941.056L692.698 919.458L676.878 884.416Z" fill="#6B304C"/>
<path d="M702.449 941.056L536.277 952.075L528.117 965.739L672.035 954.459L702.449 952.075V941.056Z" fill="black"/>
<path d="M667.187 467.223C625.873 454.572 607.313 457.412 575.946 444.303L535.395 420.727L499.687 465.24L561.181 553.395L587.847 545.901L566.065 517.601C563.543 517.048 560.895 516.344 558.095 515.488C566.779 511.914 571.508 509.752 566.065 491.44C555.54 480.921 554.371 474.511 552.585 464.64L542.227 465.24C545.292 455.824 547.492 450.562 552.585 441.217C583.629 459.653 600.039 466.037 627.737 473.221C631.55 473.975 635.355 474.605 638.316 475.598L658.592 480.667L667.848 481.328C695.612 470.717 712.064 464.966 737.27 453.78C740.041 458.805 741.445 461.986 743.22 469.527H727.573C736.451 471.561 738.884 477.3 740.355 482.871C735.727 500.502 732.594 502.059 720.741 502.265C716.882 501.054 711.454 498.754 706.857 496.958C717.563 511.441 724.642 522.394 740.129 549.648C743.417 540.244 746.63 532.346 749.742 524.694L749.743 524.692L749.743 524.691C754.216 513.694 758.483 503.205 762.471 489.482C751.525 469.524 745.244 459.373 734.846 435.487C703.224 448.302 689.212 455.185 667.187 467.223Z" fill="#6C5C5C"/>
<path d="M536.277 952.075L527.169 887.314L447.609 885.249L453.974 945.464L536.277 952.075Z" fill="#6B304C"/>
<path d="M528.117 965.739L536.277 952.075L453.974 945.464L455.395 958.907L481.51 961.38L528.117 965.739Z" fill="black"/>
<path d="M425.417 952.075L415.059 965.739L397.217 987.117C500.233 1032.64 562.444 1042.22 692.698 990.19L711.259 974.114L713.468 916.372L692.698 919.458L702.449 941.056V952.075L672.035 954.459V982.929L515.12 993.288L448.342 984.913L455.395 958.907L453.974 945.464L447.609 885.249L415.499 884.416L410.102 911.945L408.888 918.135C410.564 923.135 412.053 927.304 413.753 931.291C414.292 932.526 414.857 933.78 415.437 935.03C417.889 940.186 420.917 945.381 425.417 952.075Z" fill="#3F2F3D"/>
<path fill-rule="evenodd" clip-rule="evenodd" d="M587.627 754.829L630.602 767.611L642.283 752.184L681.512 776.426C696.169 759.98 707.051 753.517 728.895 744.47C713.588 761.359 706.221 770.436 697.38 785.242C703.682 788.036 707.208 788.181 713.468 787.446L696.376 822.267L687.462 792.515L665.424 815.215L659.032 796.041L642.283 798.465L600.183 780.366C596.754 772.635 592.663 764.631 587.627 754.829Z" fill="#D2CFC9"/>
<path d="M646.911 868.769C673.221 855.876 681.637 846.89 692.698 829.76L696.376 822.267L687.462 792.515L665.424 815.215L659.032 796.041L642.283 798.465L600.183 780.366C604.961 791.137 608.455 801.378 611.429 815.215C618.15 810.161 620.388 806.477 621.787 798.465C628.464 819.972 628.365 832.493 628.198 853.506L628.197 853.547L628.197 853.606L628.196 853.688L628.195 853.809C628.189 854.524 628.184 855.25 628.178 855.986C628.966 855.608 629.73 855.244 630.472 854.891L630.55 854.854L630.552 854.852C639.642 850.524 645.412 847.776 652.421 839.016C649.518 849.502 648.472 856.266 646.911 868.769Z" fill="#C5B5A5"/>
<path fill-rule="evenodd" clip-rule="evenodd" d="M774.068 635.379H770.101C768.169 637.092 766.936 639.748 764.371 648.161C761.429 642.497 760.118 640.951 758.201 640.227C752.955 648.861 752.811 655.753 752.605 665.598L752.605 665.606C752.57 667.266 752.534 669.01 752.47 670.861C721.948 700.583 705.545 718.696 676.878 752.184C646.659 739.181 629.923 730.399 600.183 714.057C599.039 719.476 598.837 723.251 598.531 728.986L598.529 729.008L598.52 729.177L598.48 729.934L598.449 730.501L598.432 730.804L598.42 731.027C564.758 702.071 544.479 685.399 509.884 656.957L509.882 656.955L506.96 654.552L499.687 609.593C492.786 613.23 488.617 614.833 480.733 617.086L480.811 616.108L480.837 615.775C481.651 605.431 482.139 599.24 483.598 595.929C481.886 596.133 480.052 596.399 478.28 596.656C474.418 597.216 470.854 597.733 469.494 597.472C467.51 597.091 492.653 572.395 509.825 565.295C505.785 564.589 502.005 564.059 498.464 563.563C489.609 562.321 482.254 561.289 476.106 558.243C486.102 551.431 498.628 548.058 516.231 543.318L516.252 543.312C518.162 542.798 520.133 542.267 522.166 541.714L521.725 541.125C514.889 531.995 510.924 526.701 473.24 467.223C491.873 443.225 504.381 428.18 519.968 411.758C525.471 405.959 531.358 399.99 538.034 393.393C567.505 404.325 581.263 407.997 595.891 411.902C610.03 415.676 624.982 419.667 655.721 430.639C677.957 422.444 693.837 418.052 724.481 410.363L770.983 451.355C768.324 466.967 765.477 479.143 762.471 489.482C758.483 503.205 754.216 513.694 749.743 524.691L749.743 524.692L749.742 524.694C746.63 532.346 743.417 540.244 740.129 549.648L756.217 586.012V593.725L756.437 597.472L761.953 602.761L770.101 605.186C771.638 603.581 773.133 602.022 774.589 600.504L774.589 600.504L774.59 600.503L774.591 600.502C794.986 579.241 807.713 565.973 818.146 545.901L758.427 594.387V586.012C761.882 577.341 763.72 571.963 766.581 560.227C771.242 563.339 774.116 564.274 779.805 564.194C779.403 563.665 779.005 563.151 778.612 562.651C778.062 561.951 777.522 561.277 776.997 560.621L776.983 560.603L776.98 560.6C771.444 553.686 767.59 548.872 771.43 538.629C779.881 536.881 785.155 535.321 789.502 532.725C791.619 531.46 793.516 529.949 795.452 528.05C794.196 525.577 790.995 524.594 776.279 524.303C776.381 523.86 776.482 523.428 776.581 523.004C778.366 515.344 779.455 510.675 779.805 499.4L793.617 481.328C792.369 477.937 791.363 475.328 790.551 473.221C789.029 469.273 788.187 467.086 787.702 464.824C787.101 462.016 787.052 459.091 786.94 452.536C786.916 451.084 786.888 449.455 786.851 447.609L784.465 445.236C704.979 366.183 654.599 316.076 535.609 278.131C463.982 330.74 433.457 373.278 387.29 460.391C394.069 466.952 398.276 467.729 406.028 467.223L409.671 537.086L410.774 558.243L412.199 585.571L364.815 572.568C356.75 565.459 352.142 561.513 343.879 554.496L321.394 508.876C319.495 511.47 319.163 513.72 321.394 520.777C330.005 537.373 336.065 550.322 347.84 576.315L414.177 602.1L415.499 623.918C407.551 626.792 403.785 629.571 401.835 642.651C398.642 667.268 402.38 709.83 406.401 755.606C411.357 812.032 416.741 873.342 410.102 911.945L415.499 884.416L447.609 885.249L527.169 887.314L676.878 884.416L692.698 919.458L713.468 916.372L711.259 974.114L692.698 990.19C562.444 1042.22 500.233 1032.64 397.217 987.117C395.377 987.402 393.546 987.676 391.727 987.939L356 993.288L320.958 1099.29L336.826 1100.34L420.133 1105.81L448.342 1107.67C448.342 1107.67 445.257 1090.04 461.934 1080.12C476.991 1071.17 505.689 1083.2 515.781 1087.44C516.867 1087.89 517.738 1088.26 518.353 1088.49C548.568 1100.23 548.718 1100.23 569.786 1099.66H569.789C575.727 1099.5 583.325 1099.29 593.726 1099.29C601.213 1097.41 608.745 1095.68 616.222 1093.96C647.262 1086.82 677.369 1079.89 699.511 1063.37L758.868 1077.26L760.851 1109.21L792.587 1107.08L867.078 1102.08L885.591 1100.84L874.351 1004.53L780.686 982.929L719.419 969.486V918.135L713.468 849.595L743.441 764.085L770.983 668.216L770.101 654.773L774.068 635.379ZM461.565 709.429L453.118 741.385L447.609 718.465L437.471 773.782L431.961 721.109L422.705 789.429L453.118 854.223L464.871 838.135L487.499 849.235L491.245 843.064L464.871 803.093L461.565 709.429ZM587.627 754.829L630.602 767.611L642.283 752.184L681.512 776.426C696.169 759.98 707.051 753.517 728.895 744.47C713.588 761.359 706.221 770.436 697.38 785.242C703.682 788.036 707.208 788.181 713.468 787.446L696.376 822.267L692.698 829.76C681.637 846.89 673.221 855.876 646.911 868.769C648.472 856.266 649.518 849.502 652.421 839.016C645.412 847.776 639.642 850.524 630.552 854.852L630.55 854.854L630.472 854.891C629.73 855.244 628.966 855.608 628.178 855.986C628.184 855.25 628.189 854.524 628.195 853.809L628.196 853.688L628.197 853.606L628.197 853.547L628.198 853.506C628.365 832.493 628.464 819.972 621.787 798.465C620.388 806.477 618.15 810.161 611.429 815.215C608.455 801.378 604.961 791.137 600.183 780.366C596.754 772.635 592.663 764.631 587.627 754.829Z" fill="#211F27"/>
<path d="M461.565 803.093V709.429L453.118 741.385L447.609 718.465L437.471 773.782L431.961 721.109L422.705 789.429L453.118 854.223L464.871 838.135L487.499 849.235L461.565 803.093Z" fill="#D2CFC9"/>
<path d="M461.565 709.429V803.093L487.499 849.235L491.245 843.064L464.871 803.093L461.565 709.429Z" fill="#D2CFC9"/>
<path d="M786.851 447.609L784.465 445.236M786.851 447.609C786.053 446.815 785.258 446.024 784.465 445.236M786.851 447.609C786.888 449.455 786.916 451.084 786.94 452.536C787.052 459.091 787.101 462.016 787.702 464.824C788.187 467.086 789.029 469.273 790.551 473.221C791.363 475.328 792.369 477.937 793.617 481.328M793.617 481.328L811.689 464.578C816.986 485.398 818.497 529.237 818.146 545.901M793.617 481.328L779.805 499.4C779.455 510.675 778.366 515.344 776.581 523.004C776.482 523.428 776.381 523.86 776.278 524.303C790.995 524.594 794.196 525.577 795.452 528.05C793.516 529.949 791.619 531.46 789.502 532.725M818.146 545.901L758.427 594.387V586.012C761.882 577.341 763.72 571.963 766.581 560.227C771.242 563.339 774.116 564.274 779.805 564.194C779.403 563.665 779.005 563.151 778.612 562.651M818.146 545.901C807.713 565.973 794.986 579.241 774.591 600.502L774.59 600.503L774.589 600.504L774.589 600.504C773.133 602.022 771.638 603.581 770.101 605.186M770.101 605.186C773.726 616.232 775.688 622.451 774.068 635.379M770.101 605.186L761.953 602.761M774.068 635.379H770.101C768.169 637.092 766.936 639.748 764.371 648.161C761.429 642.497 760.118 640.951 758.2 640.227C752.955 648.861 752.811 655.753 752.605 665.598M774.068 635.379L770.101 654.773L770.983 668.216L743.441 764.085L713.468 849.595L719.419 918.135V969.486L780.686 982.929L874.351 1004.53L885.591 1100.84L867.078 1102.08M598.42 731.027C564.758 702.071 544.479 685.399 509.884 656.957M598.42 731.027L598.432 730.804M598.42 731.027C598.424 730.952 598.428 730.878 598.432 730.804M506.96 654.552L499.687 609.593C492.786 613.23 488.617 614.833 480.733 617.086M506.96 654.552L509.882 656.955M506.96 654.552C507.945 655.363 508.919 656.164 509.882 656.955M480.733 617.086L480.811 616.108M480.733 617.086C480.759 616.756 480.785 616.43 480.811 616.108M483.598 595.929L499.687 593.725L501.235 595.268H511.153C517.484 623.158 521.138 636.865 528.122 652.348L530.767 622.596C540.47 636.939 545.822 644.996 557.654 658.96C562.164 657.046 564 655.359 566.029 651.246C567.944 665.602 570.178 673.87 577.048 689.153C577.475 678.984 576.594 672.19 572.42 657.417C587.525 675.78 596.5 685.469 615.396 699.291C614.921 686.775 614.358 679.744 611.429 667.114C627.552 684.113 635.352 694.061 649.115 711.853L652.421 692.459L681.512 730.586C691.308 719.594 696.668 713.52 701.347 705.903C704.788 705.874 706.718 705.443 710.162 703.919C716.326 697.161 719.129 691.149 723.606 678.575C724.885 663.68 725.891 655.629 732.642 646.398C733.437 652.915 733.762 657.413 733.964 668.216C741.989 656.848 747.874 654.211 748.289 622.376L764.371 627.885C764.378 619.456 763.634 613.645 761.953 602.761M483.598 595.929C481.886 596.133 480.052 596.399 478.28 596.656C474.418 597.216 470.854 597.733 469.494 597.472C467.51 597.091 492.653 572.394 509.825 565.295C505.785 564.589 502.005 564.059 498.464 563.563C489.609 562.321 482.254 561.289 476.106 558.243C486.102 551.431 498.628 548.058 516.231 543.318M483.598 595.929C482.139 599.24 481.651 605.431 480.837 615.775M522.166 541.714L521.725 541.125M522.166 541.714C522.017 541.516 521.871 541.319 521.725 541.125M522.166 541.714C535.208 570.319 542.985 582.644 556.438 603.966L556.439 603.967M522.166 541.714C520.133 542.267 518.162 542.798 516.252 543.312M740.129 549.648L756.217 586.012V593.725M740.129 549.648C724.642 522.394 717.563 511.441 706.856 496.958M740.129 549.648C743.417 540.244 746.63 532.346 749.742 524.694L749.743 524.692L749.743 524.691C754.216 513.694 758.483 503.205 762.471 489.482M756.217 593.725C656.395 583.984 611.94 585.936 557.208 605.186M756.217 593.725L756.437 597.472M756.217 593.725C740.68 584.982 730.996 580.243 686.36 576.315C684.491 562.171 683.121 554.136 686.36 541.714M557.208 605.186C629.051 596.613 675.543 597.603 756.437 597.472M557.208 605.186L556.439 603.967M557.208 605.186C556.949 604.776 556.693 604.37 556.439 603.967M756.437 597.472L761.953 602.761M387.29 460.391C433.457 373.278 463.982 330.74 535.61 278.131C654.599 316.076 704.979 366.183 784.465 445.236M387.29 460.391L347.62 436.369C319.514 468.917 311.303 485.377 321.394 508.876M387.29 460.391C394.069 466.952 398.276 467.729 406.028 467.223L409.671 537.086M387.29 460.391L347.84 495.873L354.678 506.011L367.46 537.086L387.29 556.26M321.394 508.876C319.495 511.47 319.163 513.72 321.394 520.777C330.005 537.373 336.065 550.322 347.84 576.315L414.177 602.1L415.499 623.918C407.551 626.792 403.785 629.571 401.835 642.651C398.642 667.268 402.38 709.83 406.401 755.606C411.357 812.032 416.741 873.342 410.102 911.945M321.394 508.876L343.879 554.496C352.142 561.513 356.75 565.459 364.815 572.568L412.199 585.571L410.774 558.243M408.888 918.135C410.564 923.135 412.053 927.304 413.753 931.291M408.888 918.135C409.571 920.986 411.428 925.964 413.753 931.291M408.888 918.135L410.102 911.945M408.888 918.135C409.33 916.144 409.734 914.079 410.102 911.945M425.417 952.075L415.059 965.739M425.417 952.075C420.917 945.381 417.889 940.186 415.437 935.03M425.417 952.075C422.668 949.324 418.781 942.232 415.437 935.03M415.059 965.739C334.843 958.907 218.61 985.879 248.446 846.95C278.282 708.022 88.8905 690.035 77.8664 697.528C66.8424 705.021 63.5457 719.346 77.8664 727.941C92.1871 736.536 243.602 721.109 220.016 846.95C196.781 970.918 271.293 1005.29 391.727 987.939M415.059 965.739L397.217 987.117M397.217 987.117C500.233 1032.64 562.444 1042.22 692.698 990.19L711.259 974.114L713.468 916.372L692.698 919.458M397.217 987.117C395.377 987.402 393.546 987.676 391.727 987.939M397.217 987.117L391.727 987.939M461.565 709.429V803.093L487.499 849.235M461.565 709.429L464.871 803.093L491.245 843.064L487.499 849.235M461.565 709.429L453.118 741.385L447.609 718.465L437.471 773.782L431.961 721.109L422.705 789.429L453.118 854.223L464.871 838.135L487.499 849.235M527.169 887.314L676.878 884.416L692.698 919.458M527.169 887.314L536.277 952.075M527.169 887.314L447.609 885.249M702.449 941.056L536.277 952.075M702.449 941.056V952.075L672.035 954.459M702.449 941.056L692.698 919.458M536.277 952.075L528.117 965.739M536.277 952.075L453.974 945.463M528.117 965.739L672.035 954.459M528.117 965.739L515.12 993.288M528.117 965.739L481.51 961.38L455.395 958.907M672.035 954.459V982.929L515.12 993.288M515.12 993.288L448.342 984.913L455.395 958.907M455.395 958.907L453.974 945.463M792.587 1107.08L760.851 1109.21L758.868 1077.26L699.511 1063.37C677.369 1079.89 647.262 1086.82 616.222 1093.96C608.745 1095.68 601.213 1097.41 593.726 1099.29C583.325 1099.29 575.727 1099.5 569.789 1099.66M792.587 1107.08L789.722 1175.99L954.94 1179.96C927.094 1151.83 911.264 1137.54 867.078 1130.81V1102.08M792.587 1107.08L867.078 1102.08M336.826 1100.34L320.958 1099.29L356 993.288L391.727 987.939M336.826 1100.34L331.978 1129.27C302.985 1142.96 288.884 1155.03 265.2 1179.51H402.942V1155.27L420.133 1105.81M336.826 1100.34L420.133 1105.81M420.133 1105.81L448.342 1107.67C448.342 1107.67 445.257 1090.04 461.934 1080.12C476.991 1071.17 505.689 1083.2 515.781 1087.44C516.867 1087.89 517.738 1088.26 518.353 1088.49C548.568 1100.23 548.718 1100.23 569.786 1099.66M600.183 780.366C604.961 791.137 608.455 801.378 611.429 815.215C618.15 810.161 620.388 806.477 621.787 798.465C628.464 819.972 628.365 832.493 628.198 853.506M600.183 780.366C596.754 772.635 592.663 764.631 587.627 754.829L630.602 767.611L642.283 752.184L681.512 776.426C696.169 759.98 707.051 753.517 728.895 744.47C713.588 761.359 706.221 770.436 697.38 785.242C703.682 788.036 707.208 788.181 713.468 787.446L696.376 822.267M600.183 780.366L642.283 798.465L659.032 796.041L665.424 815.215L687.462 792.515L696.376 822.267M696.376 822.267L692.698 829.76C681.637 846.89 673.221 855.876 646.911 868.769C648.472 856.266 649.518 849.502 652.421 839.016C645.412 847.776 639.642 850.524 630.553 854.852M519.968 411.758C504.381 428.18 491.873 443.225 473.24 467.223C510.924 526.701 514.889 531.995 521.725 541.125M519.968 411.758C525.471 405.959 531.358 399.99 538.034 393.393C567.505 404.325 581.263 407.997 595.891 411.902C610.03 415.676 624.982 419.667 655.721 430.639C677.957 422.444 693.837 418.052 724.481 410.363L770.983 451.355C768.324 466.967 765.476 479.143 762.471 489.482M519.968 411.758L535.395 420.727M762.471 489.482C751.525 469.524 745.244 459.373 734.846 435.487C703.224 448.302 689.212 455.185 667.187 467.223C625.873 454.572 607.313 457.412 575.946 444.303L535.395 420.727M535.395 420.727L499.687 465.24L561.181 553.395L587.847 545.901M587.847 545.901L615.837 578.298H678.427C679.435 564.481 680.236 556.844 678.427 541.714M587.847 545.901L566.065 517.601M678.427 541.714H669.17C669.906 539.373 670.545 537.199 671.099 535.102M678.427 541.714H686.36M686.36 541.714H694.294C686.044 535.826 683.213 527.709 680.63 506.672H674.68C674.258 519.069 673.397 526.42 671.099 535.102M671.099 535.102C660.049 525.237 651.73 519.612 655.721 510.419C659.024 506.956 660.892 505.691 664.322 507.995C674.324 516.833 672.864 523.468 671.099 535.102ZM638.316 475.598L658.592 480.667M638.316 475.598C635.355 474.605 631.55 473.975 627.737 473.221M638.316 475.598C634.743 474.707 631.005 474.069 627.737 473.221M552.585 464.64L568.894 463.697C578.133 466.287 590.759 467.854 603.299 469.411L603.3 469.411C612.501 470.554 619.998 471.69 627.737 473.221M552.585 464.64L542.227 465.24C545.292 455.824 547.492 450.562 552.585 441.217C583.629 459.653 600.039 466.037 627.737 473.221M552.585 464.64C554.371 474.511 555.54 480.921 566.065 491.44M575.946 500.281C584.047 509.209 595.113 509.272 621.787 498.358M575.946 500.281C572.574 497.144 568.986 494.249 566.029 491.318C566.041 491.359 566.053 491.399 566.065 491.44M575.946 500.281C571.954 496.993 568.714 494.087 566.065 491.44M658.592 480.667L667.848 481.328M658.592 480.667L632.49 493.238M621.787 498.358L627.737 497.416M621.787 498.358C621.743 498.394 621.7 498.43 621.656 498.467M667.848 481.328C686.662 488.709 698.063 493.524 706.856 496.958M667.848 481.328C695.612 470.717 712.064 464.966 737.27 453.78C740.041 458.805 741.445 461.986 743.22 469.527H727.573M667.848 481.328C691.163 475.097 704.233 471.674 727.573 469.527M740.355 482.871C735.727 500.502 732.594 502.059 720.741 502.265M740.355 482.871C736.609 479.565 732.386 474.796 725.149 474.716C716.706 476.99 713.879 479.061 711.264 483.752C708.78 497.432 714.847 498.781 720.741 502.265M740.355 482.871C738.884 477.3 736.451 471.561 727.573 469.527M720.741 502.265C716.882 501.054 711.454 498.754 706.856 496.958M509.882 656.955L509.884 656.957M509.882 656.955C509.883 656.956 509.884 656.956 509.884 656.957M789.502 532.725C785.155 535.321 779.881 536.881 771.43 538.629C767.59 548.872 771.444 553.686 776.98 560.6M789.502 532.725C785.753 559.99 783.221 562.098 778.612 562.651M778.612 562.651C778.062 561.951 777.522 561.277 776.997 560.621M632.49 493.238C635.019 483.625 635.274 477.6 618.53 474.432C614.535 473.377 611.016 473.023 608.123 473.221C604.249 473.487 600.128 480.537 598.867 482.43C597.026 485.191 607.282 498.944 621.656 498.467M632.49 493.238L630.537 494.955M632.49 493.238C632.083 493.429 631.335 494.157 630.537 494.955M627.737 497.416C628.278 497.246 629.454 496.037 630.537 494.955M627.737 497.416C625.647 498.073 623.614 498.402 621.656 498.467M627.737 497.416L630.537 494.955M566.065 491.44C571.508 509.752 566.779 511.914 558.095 515.488C560.895 516.344 563.543 517.048 566.065 517.601M566.065 517.601C588.752 522.577 601.212 515.418 621.656 498.467M409.671 537.086L387.29 508.876L371.207 506.011L380.463 514.166C387.627 529.779 392.206 538.021 401.835 551.631L387.29 556.26M409.671 537.086L410.774 558.243M410.774 558.243C403.027 558.117 398.118 559.803 389.278 563.092L387.29 556.26M776.98 560.6L776.983 560.603M776.98 560.6C776.981 560.601 776.982 560.602 776.983 560.603M516.231 543.318L516.252 543.312M516.231 543.318C516.238 543.316 516.245 543.314 516.252 543.312M480.837 615.775L480.811 616.108M480.837 615.775C480.828 615.886 480.819 615.997 480.811 616.108M598.53 728.986C598.837 723.251 599.039 719.476 600.183 714.057C629.923 730.399 646.659 739.181 676.878 752.184C705.545 718.696 721.948 700.583 752.47 670.861C752.534 669.01 752.57 667.266 752.605 665.606M598.53 728.986L598.529 729.008M598.53 728.986C598.53 728.993 598.53 729.001 598.529 729.008M752.605 665.598L752.605 665.606M752.605 665.598C752.605 665.6 752.605 665.603 752.605 665.606M628.198 853.506L628.197 853.547M628.198 853.506C628.197 853.519 628.197 853.533 628.197 853.547M630.553 854.852L630.55 854.854M630.553 854.852C630.552 854.853 630.551 854.853 630.55 854.854M598.529 729.008L598.52 729.177M598.529 729.008C598.526 729.064 598.523 729.121 598.52 729.177M776.983 560.603L776.997 560.621M776.983 560.603C776.988 560.609 776.992 560.615 776.997 560.621M630.55 854.854L630.472 854.891M630.55 854.854C630.524 854.866 630.498 854.878 630.472 854.891M628.197 853.547L628.197 853.606M628.197 853.547C628.197 853.566 628.197 853.586 628.197 853.606M598.48 729.934L598.52 729.177M598.48 729.934L598.449 730.501M598.48 729.934C598.47 730.121 598.459 730.31 598.449 730.501M598.48 729.934C598.493 729.678 598.507 729.426 598.52 729.177M628.197 853.606L628.196 853.688M628.197 853.606C628.197 853.633 628.196 853.661 628.196 853.688M630.472 854.891C629.73 855.244 628.966 855.608 628.178 855.986C628.184 855.25 628.189 854.524 628.195 853.809M413.753 931.291C414.292 932.526 414.857 933.78 415.437 935.03M413.753 931.291C414.289 932.548 414.847 933.788 415.437 935.03M447.609 885.249L415.499 884.416L410.102 911.945M447.609 885.249L453.974 945.463M598.449 730.501L598.432 730.804M598.449 730.501C598.443 730.601 598.438 730.702 598.432 730.804M628.196 853.688L628.195 853.809M628.196 853.688C628.196 853.728 628.195 853.768 628.195 853.809M569.786 1099.66H569.789M569.786 1099.66C569.787 1099.66 569.788 1099.66 569.789 1099.66M688.015 535.102C693.413 528.27 698.482 523.422 699.143 518.133C698.616 509.759 696.417 505.313 689.887 507.995C683.357 510.677 681.512 521.302 688.015 535.102Z" stroke="black" stroke-width="0.440775"/>
<path d="M500.091 898.624C481.708 864.369 470.877 844.755 460.642 803.754C458.486 763.701 461.456 747.344 464.389 714.276L414.581 623.697C404.765 628.278 402 633.519 400.476 646.177C378.475 714.763 349.347 815.434 350.448 828.878C351.55 842.321 388.987 893.85 410.394 926.115L500.091 898.624Z" fill="#211F27"/>
<path d="M525.877 934.664L512.653 894.774L500.091 898.624L410.394 926.115L400.476 929.154L414.581 967.722L424.498 964.776L514.196 938.133L525.877 934.664Z" fill="#401945"/>
<path d="M424.498 964.776C433.272 991.82 438.799 1007.02 453.81 1034.5L479.816 1027.89L464.389 983.81L467.254 982.708L482.901 1026.57L508.466 1018.41L491.496 974.995L494.141 973.672L511.331 1017.31L539.1 1008.71C533.89 991.639 530.904 982.128 522.791 967.722C527.389 972.791 535.543 980.504 547.224 985.573L554.056 972.35C548.326 960.89 534.526 942.928 514.196 938.133L424.498 964.776Z" fill="#401945"/>
<path d="M464.389 983.81L479.816 1027.89L482.901 1026.57L467.254 982.708L464.389 983.81Z" fill="black"/>
<path d="M491.496 974.995L508.466 1018.41L511.331 1017.31L494.141 973.672L491.496 974.995Z" fill="black"/>
<path d="M500.091 898.624L512.653 894.774L525.877 934.664L514.196 938.133M500.091 898.624C481.708 864.369 470.877 844.755 460.642 803.754C458.486 763.701 461.456 747.344 464.389 714.276L414.581 623.697C404.765 628.278 402 633.519 400.476 646.177C378.475 714.763 349.347 815.434 350.448 828.878C351.55 842.321 388.987 893.85 410.394 926.115M500.091 898.624L410.394 926.115M410.394 926.115L400.476 929.154L414.581 967.722L424.498 964.776M424.498 964.776C433.272 991.82 438.799 1007.02 453.81 1034.5L479.816 1027.89M424.498 964.776L514.196 938.133M479.816 1027.89L464.389 983.81L467.254 982.708L482.901 1026.57M479.816 1027.89L482.901 1026.57M482.901 1026.57L508.466 1018.41M508.466 1018.41L491.496 974.995L494.141 973.672L511.331 1017.31M508.466 1018.41L511.331 1017.31M511.331 1017.31L539.1 1008.71C533.89 991.639 530.904 982.128 522.791 967.722C527.389 972.791 535.543 980.504 547.224 985.573L554.056 972.35C548.326 960.89 534.526 942.928 514.196 938.133" stroke="black" stroke-width="0.440775"/>
<path d="M698.853 841.098L713.822 838.866L712.062 829.184L699.055 827.133L691.506 837.079L695.345 842.013L676.518 883.637L677.558 936.477C680.226 953.361 681.462 962.714 690.382 982.315C712.67 1007.19 724.535 1020.27 729.376 1021.26L695.175 979.037C685.769 959.747 684.263 951.154 680.294 935.072L679.7 884.43L698.853 841.098Z" fill="#3E3030"/>
<path d="M737.573 1037.82C739.368 1032.1 748.758 1024.68 752.278 1025.88C752.512 1023.77 753.196 1022.78 755.316 1021.27C752.833 1019.52 750.62 1018.01 748.717 1016.64C740.74 1011.88 738.793 1009.48 737.202 1005.42L734.138 1006.94L738.517 1014.1C734.747 1015.79 732.777 1017.53 729.376 1021.26C728.296 1024.02 727.559 1025.03 726.221 1026.74C730.698 1030.63 733.166 1033.05 737.573 1037.82Z" fill="#3E3030"/>
<path d="M713.822 838.866L698.853 841.098L679.7 884.43L680.294 935.072C684.263 951.154 685.769 959.747 695.175 979.037L729.376 1021.26C732.777 1017.53 734.747 1015.79 738.517 1014.1L734.138 1006.94L737.202 1005.42C713.56 955.82 697.9 929.599 715.398 852.877L713.195 845.37L704.123 851.059C698.209 873.02 695.552 886.704 691.812 913.194C691.503 871.893 691.648 849.191 714.677 841.019L713.822 838.866Z" fill="#E7A220"/>
<path d="M716.209 913.81C715.263 886.462 715.841 873.176 721.272 857.621L714.677 841.019C691.648 849.191 691.503 871.893 691.812 913.194C695.552 886.704 698.209 873.02 704.123 851.059L713.195 845.37L715.398 852.877C697.9 929.599 713.56 955.82 737.202 1005.42C738.793 1009.48 740.74 1011.88 748.717 1016.64C745.234 1014.14 742.785 1012.13 741.602 1010.09L731.471 969.401L724.44 946.973L716.209 913.81Z" fill="#F4C63F"/>
<path d="M713.822 838.866L698.853 841.098L679.7 884.43L680.294 935.072C684.263 951.154 685.769 959.747 695.175 979.037L729.376 1021.26M713.822 838.866L712.062 829.184L699.055 827.133L691.506 837.079L695.345 842.013L676.518 883.637L677.558 936.477C680.226 953.361 681.462 962.714 690.382 982.315C712.67 1007.19 724.535 1020.27 729.376 1021.26M713.822 838.866L714.677 841.019M729.376 1021.26C728.296 1024.02 727.559 1025.03 726.221 1026.74C730.698 1030.63 733.166 1033.05 737.573 1037.82C739.368 1032.1 748.758 1024.68 752.278 1025.88C752.512 1023.77 753.196 1022.78 755.316 1021.27C752.833 1019.52 750.62 1018.01 748.717 1016.64M729.376 1021.26C732.777 1017.53 734.747 1015.79 738.517 1014.1L734.138 1006.94L737.202 1005.42M714.677 841.019L721.272 857.621C715.841 873.176 715.263 886.462 716.209 913.81L724.44 946.973L731.471 969.401L741.602 1010.09C742.785 1012.13 745.234 1014.14 748.717 1016.64M714.677 841.019C691.648 849.191 691.503 871.893 691.812 913.194C695.552 886.704 698.209 873.02 704.123 851.059L713.195 845.37L715.398 852.877C697.9 929.599 713.56 955.82 737.202 1005.42M737.202 1005.42C738.793 1009.48 740.74 1011.88 748.717 1016.64" stroke="black" stroke-width="0.192887"/>
<path d="M660.58 847.051L675.549 844.82L673.788 835.137L660.782 833.087L653.233 843.033L657.072 847.966L638.245 889.59L639.284 942.43C641.952 959.314 643.188 968.667 652.108 988.268C674.397 1013.14 686.262 1026.23 691.102 1027.21L656.901 984.99C647.496 965.7 645.989 957.107 642.02 941.025L641.427 890.383L660.58 847.051Z" fill="#3E3030"/>
<path d="M699.3 1043.77C701.094 1038.05 710.484 1030.64 714.005 1031.83C714.239 1029.73 714.923 1028.73 717.043 1027.22C714.559 1025.47 712.347 1023.96 710.444 1022.59C702.466 1017.83 700.519 1015.44 698.928 1011.37L695.865 1012.89L700.244 1020.05C696.473 1021.75 694.504 1023.48 691.102 1027.21C690.023 1029.98 689.286 1030.99 687.948 1032.69C692.425 1036.58 694.892 1039.01 699.3 1043.77Z" fill="#3E3030"/>
<path d="M675.549 844.82L660.58 847.051L641.427 890.383L642.02 941.025C645.989 957.107 647.496 965.7 656.901 984.99L691.102 1027.21C694.504 1023.48 696.473 1021.75 700.244 1020.05L695.865 1012.89L698.928 1011.37C675.287 961.774 659.627 935.552 677.125 858.83L674.921 851.323L665.849 857.012C659.936 878.973 657.279 892.658 653.538 919.147C653.229 877.846 653.375 855.144 676.404 846.972L675.549 844.82Z" fill="#E7A220"/>
<path d="M677.935 919.763C676.99 892.415 677.567 879.129 682.999 863.574L676.404 846.972C653.375 855.144 653.229 877.846 653.538 919.147C657.279 892.658 659.936 878.973 665.849 857.012L674.921 851.323L677.125 858.83C659.627 935.552 675.287 961.774 698.928 1011.37C700.519 1015.44 702.466 1017.83 710.444 1022.59C706.96 1020.09 704.512 1018.08 703.329 1016.05L693.198 975.354L686.167 952.926L677.935 919.763Z" fill="#F4C63F"/>
<path d="M675.549 844.82L660.58 847.051L641.427 890.383L642.02 941.025C645.989 957.107 647.496 965.7 656.901 984.99L691.102 1027.21M675.549 844.82L673.788 835.137L660.782 833.087L653.233 843.033L657.072 847.966L638.245 889.59L639.284 942.43C641.952 959.314 643.188 968.667 652.108 988.268C674.397 1013.14 686.262 1026.23 691.102 1027.21M675.549 844.82L676.404 846.972M691.102 1027.21C690.023 1029.98 689.286 1030.99 687.948 1032.69C692.425 1036.58 694.892 1039.01 699.3 1043.77C701.094 1038.05 710.484 1030.64 714.005 1031.83C714.239 1029.73 714.923 1028.73 717.043 1027.22C714.559 1025.47 712.347 1023.96 710.444 1022.59M691.102 1027.21C694.504 1023.48 696.473 1021.75 700.244 1020.05L695.865 1012.89L698.928 1011.37M676.404 846.972L682.999 863.574C677.567 879.129 676.99 892.415 677.935 919.763L686.167 952.926L693.198 975.354L703.329 1016.05C704.512 1018.08 706.96 1020.09 710.444 1022.59M676.404 846.972C653.375 855.144 653.229 877.846 653.538 919.147C657.279 892.658 659.936 878.973 665.849 857.012L674.921 851.323L677.125 858.83C659.627 935.552 675.287 961.774 698.928 1011.37M698.928 1011.37C700.519 1015.44 702.466 1017.83 710.444 1022.59" stroke="black" stroke-width="0.192887"/>
<path d="M621.791 852.34L636.76 850.109L634.999 840.426L621.993 838.376L614.444 848.322L618.283 853.255L599.456 894.879L600.495 947.719C603.163 964.603 604.399 973.956 613.319 993.557C635.608 1018.43 647.473 1031.52 652.313 1032.5L618.112 990.279C608.707 970.989 607.2 962.397 603.231 946.314L602.638 895.673L621.791 852.34Z" fill="#3E3030"/>
<path d="M660.511 1049.06C662.305 1043.34 671.695 1035.93 675.216 1037.12C675.449 1035.02 676.134 1034.02 678.254 1032.51C675.77 1030.76 673.558 1029.25 671.655 1027.88C663.677 1023.12 661.73 1020.73 660.139 1016.66L657.076 1018.18L661.455 1025.34C657.684 1027.04 655.715 1028.77 652.313 1032.5C651.233 1035.26 650.497 1036.27 649.159 1037.98C653.636 1041.87 656.103 1044.29 660.511 1049.06Z" fill="#3E3030"/>
<path d="M636.76 850.109L621.791 852.34L602.638 895.673L603.231 946.314C607.2 962.397 608.707 970.989 618.112 990.279L652.313 1032.5C655.715 1028.77 657.684 1027.04 661.455 1025.34L657.076 1018.18L660.139 1016.66C636.498 967.063 620.838 940.842 638.336 864.119L636.132 856.612L627.06 862.301C621.147 884.262 618.49 897.947 614.749 924.436C614.44 883.135 614.586 860.433 637.615 852.261L636.76 850.109Z" fill="#E7A220"/>
<path d="M639.146 925.052C638.201 897.704 638.778 884.418 644.21 868.864L637.615 852.261C614.586 860.433 614.44 883.135 614.749 924.436C618.49 897.947 621.147 884.262 627.06 862.301L636.132 856.612L638.336 864.119C620.838 940.842 636.498 967.063 660.139 1016.66C661.73 1020.73 663.677 1023.12 671.655 1027.88C668.171 1025.38 665.723 1023.37 664.54 1021.34L654.409 980.643L647.377 958.215L639.146 925.052Z" fill="#F4C63F"/>
<path d="M636.76 850.109L621.791 852.34L602.638 895.673L603.231 946.314C607.2 962.397 608.707 970.989 618.112 990.279L652.313 1032.5M636.76 850.109L634.999 840.426L621.993 838.376L614.444 848.322L618.283 853.255L599.456 894.879L600.495 947.719C603.163 964.603 604.399 973.956 613.319 993.557C635.608 1018.43 647.473 1031.52 652.313 1032.5M636.76 850.109L637.615 852.261M652.313 1032.5C651.233 1035.26 650.497 1036.27 649.159 1037.98C653.636 1041.87 656.103 1044.29 660.511 1049.06C662.305 1043.34 671.695 1035.93 675.216 1037.12C675.449 1035.02 676.134 1034.02 678.254 1032.51C675.77 1030.76 673.558 1029.25 671.655 1027.88M652.313 1032.5C655.715 1028.77 657.684 1027.04 661.455 1025.34L657.076 1018.18L660.139 1016.66M637.615 852.261L644.21 868.864C638.778 884.418 638.201 897.704 639.146 925.052L647.377 958.215L654.409 980.643L664.54 1021.34C665.723 1023.37 668.171 1025.38 671.655 1027.88M637.615 852.261C614.586 860.433 614.44 883.135 614.749 924.436C618.49 897.947 621.147 884.262 627.06 862.301L636.132 856.612L638.336 864.119C620.838 940.842 636.498 967.063 660.139 1016.66M660.139 1016.66C661.73 1020.73 663.677 1023.12 671.655 1027.88" stroke="black" stroke-width="0.192887"/>
<path d="M1112.77 744.111L1130.99 753.806L1136.91 741.765L1124.32 728.969L1107.98 733.747L1108.18 742.268L1053.79 772.622L1012.07 831.381C1001.3 852.051 995.073 863.305 988.952 892.023C993.206 937.366 995.601 961.328 1000.11 966.335L996.864 892.318C1002.2 863.547 1007.52 852.906 1016.21 832.059L1056.63 776.072L1112.77 744.111Z" fill="#3E3030"/>
<path d="M995.663 991.13C1002.27 986.317 1018.57 985.809 1021.46 989.971C1023.43 987.855 1024.99 987.317 1028.53 987.382C1027.23 983.454 1026.03 980 1025.05 976.958C1020.17 965.27 1019.98 961.067 1021.53 955.32L1016.94 954.504L1015.94 965.898C1010.43 964.702 1006.86 965.008 1000.11 966.335C996.682 968.487 995.055 968.997 992.208 969.779C993.957 977.677 994.696 982.334 995.663 991.13Z" fill="#3E3030"/>
<path d="M1130.99 753.806L1112.77 744.111L1056.63 776.072L1016.21 832.059C1007.52 852.906 1002.2 863.547 996.864 892.318L1000.11 966.335C1006.86 965.008 1010.43 964.702 1015.94 965.898L1016.94 954.504L1021.53 955.32C1035.85 881.782 1039.95 840.341 1121.35 770.44L1125.03 760.424L1110.47 759.303C1086.18 778.577 1072.16 791.421 1046.58 817.421C1079.74 771.902 1098.31 747.137 1130.18 756.858L1130.99 753.806Z" fill="#E7A220"/>
<path d="M1072.82 837.884C1093.97 807.142 1105.37 793.048 1123.94 780.405L1130.18 756.858C1098.31 747.137 1079.74 771.902 1046.58 817.421C1072.16 791.421 1086.18 778.577 1110.47 759.303L1125.03 760.424L1121.35 770.44C1039.95 840.341 1035.85 881.782 1021.53 955.32C1019.98 961.067 1020.17 965.27 1025.05 976.958C1023.26 971.39 1022.21 967.202 1022.56 964.014L1044.46 911.194L1054.95 880.909L1072.82 837.884Z" fill="#F4C63F"/>
<path d="M1130.99 753.806L1112.77 744.111L1056.63 776.072L1016.21 832.059C1007.52 852.906 1002.2 863.547 996.864 892.318L1000.11 966.335M1130.99 753.806L1136.91 741.765L1124.32 728.969L1107.98 733.747L1108.18 742.268L1053.79 772.622L1012.07 831.381C1001.3 852.051 995.073 863.305 988.952 892.023C993.206 937.366 995.601 961.328 1000.11 966.335M1130.99 753.806L1130.18 756.858M1000.11 966.335C996.682 968.487 995.055 968.997 992.208 969.779C993.957 977.677 994.696 982.334 995.663 991.13C1002.27 986.317 1018.57 985.809 1021.46 989.971C1023.43 987.855 1024.99 987.317 1028.53 987.382C1027.23 983.454 1026.03 980 1025.05 976.958M1000.11 966.335C1006.86 965.008 1010.43 964.702 1015.94 965.898L1016.94 954.504L1021.53 955.32M1130.18 756.858L1123.94 780.405C1105.37 793.048 1093.97 807.142 1072.82 837.884L1054.95 880.909L1044.46 911.194L1022.56 964.014C1022.21 967.202 1023.26 971.39 1025.05 976.958M1130.18 756.858C1098.31 747.137 1079.74 771.902 1046.58 817.421C1072.16 791.421 1086.18 778.577 1110.47 759.303L1125.03 760.424L1121.35 770.44C1039.95 840.341 1035.85 881.782 1021.53 955.32M1021.53 955.32C1019.98 961.067 1020.17 965.27 1025.05 976.958" stroke="black" stroke-width="0.263004"/>
<path d="M957.647 877.728L986.084 879.387L987.417 873.246L1001.85 802.897L1003.76 792.007L973.317 787.681L957.647 877.728Z" fill="#461B46"/>
<path d="M1082.37 876.653L1086.07 855.845L1028.28 854.973L1029.63 873.635L1082.37 876.653Z" fill="#461B49"/>
<path d="M1073.44 901.01L1079.21 880.773L1035.56 876.321L1023.01 876.26L1027.68 891.55L1049.49 896.058L1073.44 901.01Z" fill="#461B49"/>
<path d="M1012.47 841.784L1032.04 826.516L1033.69 825.232L1060.92 820.962L1059.16 819.649L1033.13 823.401L1012.47 841.784Z" fill="black"/>
<path fill-rule="evenodd" clip-rule="evenodd" d="M1036.19 852.556L1028.28 854.973L1086.07 855.845L1036.19 852.556ZM1029.63 873.635L1035.56 876.321L1079.21 880.773L1082.37 876.653L1029.63 873.635Z" fill="black"/>
<path d="M1029.32 841.728L1035.17 841.451L1034.12 829.933L1029.32 841.728Z" fill="#461B49"/>
<path d="M1027.68 891.55L1023.01 876.26L1035.56 876.321L1029.63 873.635L1028.28 854.973L1036.19 852.556L1035.17 841.451L1029.32 841.728L1034.12 829.933L1033.69 825.232L1032.04 826.516L1032.94 829.434L1027.31 843.929L1033.55 843.214L1033.81 852.446L1025.36 853.981L1027.16 872.654L1022.02 875.277L1026.35 891.415L1027.68 891.55Z" fill="black"/>
<path d="M1027.68 891.55L1026.35 891.415L1026.85 893.027L1049.13 897.629L1049.49 896.058L1027.68 891.55Z" fill="black"/>
<path fill-rule="evenodd" clip-rule="evenodd" d="M1001.85 802.897L1009.2 804.129L1018.38 804.71L1032.33 799.664L1033.79 800.751L1059.16 819.649L1033.13 823.401L1012.47 841.784L993.6 874.532L987.417 873.246L1001.85 802.897ZM1035.17 841.451L1036.19 852.556L1086.49 852.714L1087.3 846.608L1089.25 818.309L1086.65 818.553L1060.92 820.962L1033.69 825.232L1034.12 829.933L1035.17 841.451Z" fill="#461B49"/>
<path d="M1036.19 852.556L1086.07 855.845L1086.49 852.714L1036.19 852.556Z" fill="black"/>
<path d="M1059.16 819.649L1060.92 820.962L1086.65 818.553L1087.54 817.192L1060.47 818.773L1060.16 818.503L1035.03 798.994L1033.79 800.751L1059.16 819.649Z" fill="black"/>
<path fill-rule="evenodd" clip-rule="evenodd" d="M1676.31 412.612C1649.01 538.41 1603.35 592.389 1512.29 601.293L1542.85 638.022C1602.99 609.352 1625.96 579.266 1660.04 516.619C1677.26 461.28 1676.32 413.218 1676.31 412.612Z" fill="#F4C63F"/>
<path d="M1556.2 654.059C1614.57 621.7 1644.6 566.234 1660.04 516.619C1625.96 579.266 1602.99 609.352 1542.85 638.022L1556.2 654.059Z" fill="#3E3030"/>
<path d="M1676.31 412.607C1676.31 412.608 1676.31 412.61 1676.31 412.611M1676.31 412.606C1676.31 412.606 1676.31 412.608 1676.31 412.611M1676.31 412.611C1649.01 538.41 1603.35 592.389 1512.29 601.293L1542.85 638.022M1676.31 412.611C1676.32 413.218 1677.26 461.28 1660.04 516.619M1660.04 516.619C1644.6 566.234 1614.57 621.7 1556.2 654.059L1542.85 638.022M1660.04 516.619C1625.96 579.266 1602.99 609.352 1542.85 638.022" stroke="black" stroke-width="0.272444"/>
<path d="M1557.62 634.726L1535.61 657.495L1550.87 671.324L1575.07 658.161L1574.93 632.038L1562.28 628.74L1540.51 535.673L1471.49 449.293C1445.56 424.667 1431.59 410.717 1391.82 389.543C1323.15 376.642 1286.79 370.039 1277.5 374.566L1388.04 401.088C1428.22 421.127 1441.67 433.471 1468.74 455.11L1534.22 538.409L1557.62 634.726Z" fill="#3E3030"/>
<path d="M1242.81 357.527C1247.11 369.306 1240.97 393.567 1233.61 396.072C1235.9 399.861 1236.03 402.388 1234.43 407.593C1240.78 407.327 1246.38 407.023 1251.28 406.868C1270.59 404.611 1276.87 406.104 1284.68 410.826L1287.83 404.397L1271.45 398.098C1275.54 390.477 1276.6 385.086 1277.5 374.566C1275.77 368.606 1275.71 365.991 1275.76 361.46C1263.37 360.7 1256.19 359.82 1242.81 357.527Z" fill="#3E3030"/>
<path d="M1535.61 657.495L1557.62 634.726L1534.22 538.409L1468.74 455.11C1441.67 433.471 1428.22 421.127 1388.04 401.088L1277.5 374.566C1276.6 385.086 1275.54 390.477 1271.45 398.098L1287.83 404.397L1284.68 410.826C1387.09 463.04 1446.48 486.617 1515.15 636.248L1528.37 645.902L1536.18 624.903C1518.03 580.922 1505.01 554.824 1477.48 506.093C1530.6 574.251 1559.27 612.117 1531.45 655.011L1535.61 657.495Z" fill="#E7A220"/>
<path d="M1436.2 536.143C1472.6 580.331 1488.57 603.118 1499.36 635.854L1531.45 655.011C1559.27 612.117 1530.6 574.251 1477.48 506.093C1505.01 554.824 1518.03 580.922 1536.18 624.903L1528.37 645.902L1515.15 636.248C1446.48 486.617 1387.09 463.04 1284.68 410.826C1276.87 406.104 1270.59 404.611 1251.28 406.868C1260.25 406.585 1266.87 406.802 1271.43 408.67L1340.07 463.311L1380.3 491.581L1436.2 536.143Z" fill="#F4C63F"/>
<path d="M1535.61 657.495L1557.62 634.726L1534.22 538.409L1468.74 455.11C1441.67 433.471 1428.22 421.127 1388.04 401.088L1277.5 374.566M1535.61 657.495L1550.87 671.324L1575.07 658.161L1574.93 632.038L1562.28 628.74L1540.51 535.673L1471.49 449.293C1445.56 424.667 1431.59 410.717 1391.82 389.543C1323.15 376.642 1286.79 370.039 1277.5 374.566M1535.61 657.495L1531.45 655.011M1277.5 374.566C1275.77 368.606 1275.71 365.991 1275.76 361.46C1263.37 360.7 1256.19 359.82 1242.81 357.527C1247.11 369.306 1240.97 393.567 1233.61 396.072C1235.9 399.861 1236.03 402.388 1234.43 407.593C1240.78 407.327 1246.38 407.023 1251.28 406.868M1277.5 374.566C1276.6 385.086 1275.54 390.477 1271.45 398.098L1287.83 404.397L1284.68 410.826M1531.45 655.011L1499.36 635.854C1488.57 603.118 1472.6 580.331 1436.2 536.143L1380.3 491.581L1340.07 463.311L1271.43 408.67C1266.87 406.802 1260.25 406.585 1251.28 406.868M1531.45 655.011C1559.27 612.117 1530.6 574.251 1477.48 506.093C1505.01 554.824 1518.03 580.922 1536.18 624.903L1528.37 645.902L1515.15 636.248C1446.48 486.617 1387.09 463.04 1284.68 410.826M1284.68 410.826C1276.87 406.104 1270.59 404.611 1251.28 406.868" stroke="black" stroke-width="0.403548"/>
</g>
<defs>
<clipPath id="clip0_183_702">
<rect width="1763.1" height="1322.32" fill="white" transform="translate(0.443359)"/>
</clipPath>
</defs>
</svg>
