<svg width="1338" height="891" viewBox="0 0 1338 891" fill="none" xmlns="http://www.w3.org/2000/svg">
<path d="M360.96 709.368L357.713 713.17L365.5 744L385.5 758L353.5 758L290.87 697.507L310.181 665.998L360.96 709.368Z" fill="#456746"/>
<path d="M530.955 707.5L568.5 698L594.31 692.56L559 724L520 758.24L495.077 758.24L478.003 721.573L530.955 686.525L530.955 707.5Z" fill="#456746"/>
<path d="M249.489 522H276.832C276.836 532.609 277.325 542.732 278.456 552.796L261.592 585.432L269.039 611.632L224.354 628.639L133.123 623.582L72.6126 605.196L64.2342 583.133C85.891 579.959 94.8824 579.013 106.126 578.537C106.381 585.356 105.986 589.63 100.541 601.06C102.68 599.969 104.997 599.36 122.883 598.302C127.597 601.288 129.691 603.425 133.123 607.495C136.646 605.341 138.261 603.423 139.64 597.382C153.098 593.245 160.841 591.829 175.015 590.947C181.332 598.529 183.293 603.272 187.117 611.632L198.288 609.793C198.288 592.786 217.058 591.965 237.387 607.495L224.354 585.432L237.387 581.754L232.733 539.926L261.592 537.168L249.489 522Z" fill="#2D2727"/>
<path d="M48.4084 565.667C52.519 571.417 56.5025 575.516 64.2342 583.133L72.6126 605.196L133.123 623.582L224.354 628.639L269.039 611.632L261.592 585.432L278.456 552.796C280.76 573.29 290.067 588.023 299 611.632L310 617.147C301.184 631.585 291.621 646.434 258.799 653L113.574 652.081C105.522 647.771 98.2947 644.099 91.5398 640.589C94.504 637.337 95.5244 634.964 94.955 628.639C90.784 628.125 87.6922 627.203 78.1982 622.204C73.1931 625.716 71.7505 627.446 72.2424 630.018C60.0932 622.799 48.3964 614.358 34.4445 601.06H28.8589L34.4445 583.133H15.8258L15.7604 583.042C8.41394 572.837 4.2717 567.083 0 552.796C7.94968 554.504 14.9744 558.037 28.8589 565.667H48.4084Z" fill="#343F31"/>
<path fill-rule="evenodd" clip-rule="evenodd" d="M605 577L460.279 614L421.279 577L346 649.5L292.5 670L370.5 714C381.5 688 586.035 665.276 593.5 638L605 577Z" fill="black"/>
<path d="M1186.12 335.469C1187.02 331.518 1188 327.355 1189.09 322.957C1203.04 309.188 1212.94 296.785 1226.24 279.914C1061.37 303.152 1012.27 334.443 971.745 410.135C997.048 403.156 1007.93 400.382 1023.19 396.865C1060.75 335.867 1150.3 374.09 1134.16 434.364C1132.94 436.304 1132.08 437.834 1131.47 439.107C1132.76 442.892 1133.92 446.403 1134.96 449.72C1139.72 464.911 1142.09 476.015 1144.12 490.613C1144.49 493.29 1144.85 496.083 1145.21 499.041C1202.21 584.639 1098.74 615.633 1068.93 591.211L1014.34 598.674C1054.28 626.726 1077.85 641.345 1145.36 643.331C1223.5 626.313 1266.39 614.885 1318.75 592.419C1283.26 576.023 1273.48 574.073 1242.92 559.904C1206.98 515.655 1203.75 505.168 1194.81 483.764L1194.81 481.886L1194.76 455.971C1193.51 448.953 1191.31 443.176 1187.24 435.24C1185.62 432.072 1183.7 428.56 1181.43 424.488C1177.22 397.873 1175.96 380.247 1186.12 335.469Z" fill="black"/>
<path d="M1240.97 261.327C1091.14 283.14 1007.18 297.803 957.724 419.627L971.745 410.135C1012.27 334.443 1061.37 303.152 1226.24 279.914C1230.68 274.288 1235.5 268.164 1240.97 261.327Z" fill="#E6EAEB"/>
<path d="M1191.61 327.602C1222.03 297.496 1228.94 284.462 1240.97 261.327C1235.5 268.164 1230.68 274.288 1226.24 279.914C1212.94 296.785 1203.04 309.188 1189.09 322.957C1188 327.355 1187.02 331.518 1186.12 335.469C1188.9 332.699 1190.03 330.948 1191.61 327.602Z" fill="#544E2E"/>
<path d="M971.745 410.135L957.724 419.627C963.119 419.887 966.937 419.633 974.259 418.92C992.465 411.412 1003.96 407.92 1023.83 401.884L1024.97 401.535L1023.19 396.865C1007.93 400.382 997.048 403.156 971.745 410.135Z" fill="#544E2E"/>
<path d="M1023.19 396.865L1024.97 401.535C1060.15 344.462 1135.41 370.897 1128.83 434.248L1130.25 450.019C1130.35 444.944 1129.27 443.687 1131.47 439.107C1132.08 437.834 1132.94 436.304 1134.16 434.364C1150.3 374.09 1060.75 335.867 1023.19 396.865Z" fill="#544E2E"/>
<path fill-rule="evenodd" clip-rule="evenodd" d="M1014.34 598.674L1000.72 602.682C1005.61 606.22 1010.05 609.604 1014.29 612.835C1041.91 633.882 1060.94 648.383 1138.69 655.976C1195.76 648.029 1233.42 639.8 1333.39 603.271C1335.88 599.191 1333.34 596.825 1318.75 592.419C1266.39 614.885 1223.5 626.313 1145.36 643.331C1077.85 641.345 1054.28 626.726 1014.34 598.674Z" fill="#E6EAEB"/>
<path d="M1068.93 591.211C1098.74 615.633 1202.21 584.639 1145.21 499.041C1144.85 496.083 1144.49 493.29 1144.12 490.613L1138.16 491.592L1139.4 502.195C1194.76 552.217 1118.61 621.763 1068.29 585.172C1020.49 591.91 1006.09 595.775 1000.72 602.682L1014.34 598.674L1068.93 591.211Z" fill="#544E2E"/>
<path d="M1187.24 435.24C1191.31 443.176 1193.51 448.953 1194.76 455.971L1194.81 481.886C1206.72 477.489 1213.1 476.061 1223.68 475.988C1230.24 451.921 1225.45 441.894 1211.35 426.286L1187.24 435.24Z" fill="#DBBF9F"/>
<path d="M1138.16 491.592L1144.12 490.613C1142.09 476.015 1139.72 464.911 1134.96 449.72L1130.25 450.019L922.413 503.464L909.057 510.716C906.029 521.758 906.487 532.269 914.85 542.159L932.413 541.269L1138.16 491.592Z" fill="#DBBF9F"/>
<path d="M914.85 542.159C906.487 532.269 906.029 521.758 909.057 510.716L907.165 507.231C893.678 510.408 886.656 511.618 874.693 513.207C874.712 515.509 873.476 516.073 868.488 517.704C868.652 518.123 868.814 518.537 868.972 518.945C873.883 531.576 876.32 539.33 878.85 552.306C878.958 552.864 879.067 553.431 879.177 554.008C892.77 549.87 899.963 548.149 911.465 547.004C915.247 546.474 916.261 545.565 914.85 542.159Z" fill="#1C120D"/>
<path d="M825.971 565.421C820.363 563.615 817.129 562.328 803.139 535.139C792.652 537.546 781.625 540.03 769.987 542.632C784.655 569.461 788.993 574.074 793.446 573.487L825.971 565.421Z" fill="#4F3128"/>
<path d="M793.446 573.487C788.993 574.074 784.655 569.461 769.987 542.632C757.524 545.418 752.381 546.492 738.429 549.597C751.1 577.781 754.151 581.444 759.703 581.856L793.446 573.487Z" fill="#160903"/>
<path d="M759.703 581.856C754.151 581.444 751.1 577.781 738.429 549.597C736.213 550.09 725.956 552.435 723.7 552.938C716.46 561.121 717.171 568.632 730.049 589.211L759.703 581.856Z" fill="#75594D"/>
<path d="M693.53 559.689C686.821 571.047 686.96 578.672 700.394 596.566L730.049 589.211C717.171 568.632 716.46 561.121 723.7 552.938C714.025 555.094 703.977 557.339 693.53 559.689Z" fill="#140900"/>
<path d="M857.78 557.532C851.834 555.372 847.936 552.11 835.803 527.442C825.503 529.95 814.646 532.498 803.139 535.139C817.129 562.328 820.363 563.615 825.971 565.421L857.78 557.532Z" fill="#170A04"/>
<path d="M878.85 552.306C876.32 539.33 873.883 531.576 868.972 518.945C858.546 521.779 847.536 524.584 835.803 527.442C847.936 552.11 851.834 555.372 857.78 557.532L878.85 552.306Z" fill="#75594D"/>
<path d="M700.394 596.566C686.96 578.672 686.821 571.047 693.53 559.689C685.126 563.419 680.11 563.737 674.099 557.832C665.161 556.426 661.033 557.504 655.815 563.624C647.064 562.275 645.462 565.819 641.878 571.192C642.294 590.07 645.322 597.974 652.085 610.764C654.34 616.625 657.885 616.376 666.902 611.742C673.659 612.286 677.388 612.146 683.262 605.867C687.373 598.634 690.945 596.382 700.394 596.566Z" fill="#BCB3AA"/>
<path d="M400.813 598.5L443.999 574L468.259 639L549 683L531 696.5L518.5 702L485.5 721.5L476.5 728C471.702 702.319 343.732 653.516 324 645.5C308 639 275.501 585.54 275.499 574C275.496 554.57 274.419 557.142 275.499 532.5L400.813 598.5Z" fill="#2C1D1D"/>
<path d="M657.252 372.333L688.5 294.5L756.25 338.042C757.633 350.109 760.376 351.883 766.316 352.426C766.301 358.362 766.864 363.23 769.501 375.902L724.101 389.995L720.756 391.034L662.962 380.12L657.252 372.333Z" fill="#AEBA78"/>
<path d="M724.101 389.995L769.501 375.902C771.377 383.798 770.248 388.838 768.624 392.825C774.629 396.736 779.088 404.254 786.591 415.446C791.042 433.028 793.969 440.979 799.488 453.918C799.712 462.542 799.172 466.656 798.704 472.246L788.553 467.201L770.778 470.411L753.313 463.185L720.436 469.924C726.979 447.421 731.62 435.645 742.468 416.915C735.844 405.365 734.655 397.813 724.101 389.995Z" fill="#456746"/>
<path d="M677.682 538.32C685.952 532.48 689.737 519.561 697.585 510.211L716.67 498.368L777.854 516.138C769.021 528.766 763.099 535.681 742.048 550.579L714.216 547.166L693.199 559.526L675.865 539.267L677.682 538.32Z" fill="#456746"/>
<path d="M657.252 372.333L662.962 380.12L720.756 391.034L724.101 389.995C734.655 397.813 735.844 405.365 742.468 416.915C731.62 435.645 726.979 447.421 720.436 469.924C707.208 473.323 700.12 476.596 692.001 482.719C690.431 483.904 688.821 485.195 687.121 486.615L687.117 486.569C686.008 473.505 685.385 466.166 687.343 456.533C692.765 446.387 695.46 438.904 698.828 418.256L693.032 419.809L687.343 456.533L653.979 434.5C651.349 419.08 655.151 410.624 653.979 405.427C652.807 400.229 656.639 391.273 657.252 372.333Z" fill="#7A3A2E"/>
<path d="M693.032 419.809L698.828 418.256C695.46 438.904 692.765 446.387 687.343 456.533L693.032 419.809Z" fill="black"/>
<path fill-rule="evenodd" clip-rule="evenodd" d="M798.704 472.246L788.553 467.201L770.778 470.411L753.313 463.185L720.436 469.924C707.208 473.323 700.12 476.596 692.001 482.719L697.585 510.211L716.67 498.368L777.854 516.138C769.021 528.766 763.099 535.681 742.048 550.579L714.216 547.166L693.199 559.526L675.865 539.267L670.415 542.108L669.506 542.581L644.445 566.896L677.53 572.525L679.471 579.769C684.552 580.078 686.881 579.902 690.131 578.984C694.668 591.512 698.148 598.471 704.372 610.885L781.164 590.308C785.034 586.558 788.878 581.055 794.165 573L756.773 582.35C719.5 587.5 727.433 555.311 750.873 547.166L799.66 535.5C799.676 527.935 799.467 522.032 798.018 517.982C799.591 504.794 799.279 493.331 798.744 473.699L798.704 472.246Z" fill="#2B2D28"/>
<path d="M562.893 259.871C566.849 258.115 552.969 265.766 616.5 233.092L619.365 233.092C619.182 234.125 618.896 235.253 618.511 236.49C615.773 245.28 608.057 259.57 597.23 284.205C585.222 289.824 573.177 300.632 549.444 323.466C546.449 318.713 545.166 315.527 540.501 299.706L537.071 299.009L537.57 296.559C526.188 285.292 524.474 281.372 521.46 275.423C535.573 272.17 544.5 268.962 562.893 259.871Z" fill="#A8B877"/>
<path d="M461.065 247.318L480.503 266.069C473.479 272.295 464.934 275.506 457.667 280.503C456.635 281.212 455.63 281.957 454.658 282.752C444.989 291.481 441.755 294.727 436.291 300.209L436.29 300.21L435.673 300.83C432.077 299.619 430.115 298.543 426.962 295.996C421.72 284.908 419.149 279.028 415.578 269.188C405.329 248.767 400.422 240.528 392.859 230.379L384.058 193.382L385.121 188.156L398.201 186.565L398.633 186.951C419.62 205.731 431.504 216.7 452.352 238.912L461.065 247.318Z" fill="#A9B779"/>
<path d="M537.57 296.559L537.071 299.009L495.571 334.957L501.665 360.178L476.468 388.727L469.608 387.332L460.019 351.705L478.24 327.349L462.566 281.5L457.667 280.503C464.934 275.506 473.479 272.295 480.503 266.069C501.093 269.019 510.285 271.023 521.46 275.423C524.474 281.372 526.188 285.292 537.57 296.559Z" fill="black"/>
<path d="M549.444 323.466C573.177 300.632 585.222 289.824 597.23 284.205C531.677 368.813 501.062 393.115 465.562 424.777C458.238 408.844 454.468 400.829 441.233 368.803C431.699 344.398 425.815 327.842 415.379 298.475L415.285 298.212C406.13 273.887 401.331 258.407 392.859 230.379C400.422 240.528 405.329 248.767 415.578 269.188C419.149 279.028 421.72 284.908 426.962 295.996C430.115 298.543 432.077 299.619 435.673 300.83L436.29 300.21L436.291 300.209C441.755 294.727 444.989 291.481 454.658 282.752C455.63 281.957 456.635 281.212 457.667 280.503L462.566 281.5L478.24 327.349L460.019 351.705L469.608 387.332L476.468 388.727L501.665 360.178L495.571 334.957L537.071 299.009L540.501 299.706C545.166 315.527 546.449 318.713 549.444 323.466Z" fill="#74543F"/>
<path d="M456.191 470.833C476.37 474.941 469.709 504.708 450.111 500.721C430.512 496.734 436.012 466.726 456.191 470.833Z" fill="black"/>
<path d="M443.631 532.568C462.74 536.456 457.838 565.563 437.75 561.476C417.661 557.389 424.523 528.681 443.631 532.568Z" fill="black"/>
<path fill-rule="evenodd" clip-rule="evenodd" d="M465.562 424.777C501.062 393.115 531.677 368.813 597.23 284.205C608.057 259.57 615.773 245.28 618.511 236.49C647.252 259.016 662.649 271.737 688.488 294.608L671.566 400.357C662.567 417.034 657.346 423.666 656.076 428.841C654.806 434.015 641.458 450.282 636.932 465.255C622.203 510.224 617.913 527.226 609.798 558.495L608.774 558.513L605.584 574.192L602.593 588.891L601.098 596.241L465.002 623.147L434.161 579.115L385.628 606.999L270.066 532.973L271.02 528.287L272.632 527.883L273.43 523.963L275.822 512.204L277.799 494.237L277.96 492.878C282.145 457.444 284.55 437.076 289.574 386.931C288.358 360.609 288.333 345.791 290.093 319.174C293.22 291.857 294.55 276.859 295.81 250.944C297.438 234.958 299.117 224.158 298.5 216C322.273 206.514 337.294 196.886 368.379 190.192L385.121 188.156L384.058 193.382L392.859 230.379C401.331 258.407 406.13 273.887 415.285 298.212L415.379 298.475C425.815 327.842 431.699 344.398 441.233 368.803C454.468 400.829 458.238 408.844 465.562 424.777ZM456.191 470.833C476.37 474.941 469.709 504.708 450.111 500.721C430.512 496.734 436.012 466.726 456.191 470.833ZM443.631 532.568C462.74 536.456 457.838 565.563 437.75 561.476C417.661 557.389 424.523 528.681 443.631 532.568Z" fill="#252222"/>
<path d="M769.446 96.5825C772.844 114.671 772.954 124.315 770.287 140.722C765.109 141.944 763.081 141.369 760.506 138.643C753.966 127.455 753.218 126.069 750.42 121.164C753.061 118.812 754.368 114.638 756.754 108.197L769.446 96.5825Z" fill="#2A2722"/>
<path d="M691.06 82.988C680.598 98.1305 676.575 106.896 672.338 122.969C676.571 126.191 678.658 126.492 682.119 125.048C692.644 117.487 693.892 116.526 698.443 113.183C696.986 109.96 697.49 105.615 697.93 98.7612L691.06 82.988Z" fill="#2A2722"/>
<path d="M689.718 137.398C697.299 135.173 699.66 132.822 701.12 127.042C705.421 132.319 707.414 135.451 709.438 141.59L710.436 143.335C693.283 141.156 690.265 139.835 689.718 137.398Z" fill="#A4A971"/>
<path d="M756.874 138.893C756.618 146.52 758.617 149.569 765.035 153.407C762.071 155.657 761.289 157.408 744.848 152.183C745.397 151.2 745.921 150.295 746.437 149.454C749.209 144.943 751.776 142.255 756.874 138.893Z" fill="#A4A971"/>
<path fill-rule="evenodd" clip-rule="evenodd" d="M619.527 53.9817C624.803 55.6143 621.561 80.4838 614.225 78.9245C606.535 78.002 589.553 73.8026 583.029 71.7822C576.505 69.7619 580.425 46.1895 588.33 46.8395C596.235 47.4894 614.251 52.3491 619.527 53.9817ZM606.884 53.3391C609.927 63.76 602.726 72.9021 602.726 72.9021C602.726 72.9021 600.253 63.7404 606.884 53.3391Z" fill="#A4A971"/>
<path fill-rule="evenodd" clip-rule="evenodd" d="M536.874 36.4132C542.149 38.0458 538.908 62.9153 531.572 61.3559C523.882 60.4335 508.752 57.1389 502.227 55.1186C495.703 53.0982 499.624 29.5258 507.529 30.1758C515.434 30.8258 531.598 34.7806 536.874 36.4132ZM526.187 36.1864C529.23 46.6073 522.029 55.7493 522.029 55.7493C522.029 55.7493 519.556 46.5876 526.187 36.1864Z" fill="#A4A971"/>
<path d="M606.884 53.3391C609.927 63.76 602.726 72.9021 602.726 72.9021C602.726 72.9021 600.253 63.7404 606.884 53.3391Z" fill="#D22B2B"/>
<path d="M526.187 36.1864C529.23 46.6073 522.029 55.7493 522.029 55.7493C522.029 55.7493 519.556 46.5876 526.187 36.1864Z" fill="#D22B2B"/>
<path d="M765.035 153.407L780.685 156.734L778.814 165.537L774.902 164.705C774.852 164.679 774.801 164.668 774.749 164.673L582.207 123.747L570.157 122.719L571.716 115.383C579.176 117.987 583.102 119.223 586.878 118.606C597.825 122.573 599.869 122.728 600.572 121.516C610.954 124.893 618.255 128.532 624.047 126.506C638.013 131.459 643.721 132.971 646.545 131.288C657.422 134.756 661.37 134.978 663.797 131.888L689.718 137.398C690.265 139.835 693.283 141.156 710.436 143.335L709.438 141.59L746.437 149.454C745.921 150.295 745.397 151.2 744.848 152.183C761.289 157.408 762.071 155.657 765.035 153.407Z" fill="#2A2722"/>
<path fill-rule="evenodd" clip-rule="evenodd" d="M772.314 78.2789L782.096 80.358C783.003 96.0316 783.689 103.834 784.985 117.265C786.654 133.429 783.965 141.679 780.685 156.734L765.035 153.407C758.617 149.569 756.618 146.52 756.874 138.893C751.776 142.255 749.209 144.943 746.437 149.454L709.438 141.59C707.414 135.451 705.421 132.319 701.12 127.042C699.66 132.822 697.299 135.173 689.718 137.398L663.797 131.888C661.37 134.978 657.422 134.756 646.545 131.288L637.113 108.326L624.047 126.506L612.598 108.226L600.572 121.516L595.981 111.851L586.878 118.606L582.348 103.841L571.716 115.383L570.157 122.719L582.207 123.747L774.749 164.673C772.955 164.849 769.889 183.924 765.338 209.7C760.948 211.254 758.525 212.621 754.278 216.039L629.564 189.531L531.26 168.636C504.546 178.927 492.931 183.008 490.807 180.995C483.235 179.929 479.242 179.092 472.222 177.044L468.725 174.257C460.292 160.605 457.468 155.062 453.663 146.519L453.625 165.935C454.181 166.597 454.723 167.252 455.252 167.901L451.965 238.68C431.311 216.287 419.524 205.215 398.701 186.252L398.273 185.862C414.382 151.745 425.798 121.058 445.781 68.1678L480.463 70.9391C480.463 70.9391 484.082 63.5298 487.317 55.5274C490.551 47.525 493.285 32.2597 497.363 27.5037C501.441 22.7476 507.236 21.9348 507.236 21.9348L546.362 30.2513L548.623 46.067L569.164 50.4332L577.663 36.9045L629.994 48.0277C634.325 50.3356 635.132 53.2558 636.437 58.5983C635.565 76.3304 635.434 85.55 636.331 99.9806L665.675 106.218C672.06 88.1757 678.044 78.3782 690.15 60.8143L700.909 63.1013L711.204 79.6022L757.177 89.3741L772.314 78.2789ZM672.338 122.969C676.575 106.896 680.598 98.1305 691.06 82.988L697.93 98.7612C697.49 105.615 696.986 109.96 698.443 113.183C693.892 116.526 692.644 117.487 682.119 125.048C678.658 126.492 676.571 126.191 672.338 122.969ZM770.287 140.722C772.954 124.315 772.844 114.671 769.446 96.5825L756.754 108.197C754.368 114.638 753.061 118.812 750.42 121.164C753.218 126.069 753.966 127.455 760.506 138.643C763.081 141.369 765.109 141.944 770.287 140.722ZM614.225 78.9245C621.561 80.4838 624.803 55.6143 619.527 53.9817C614.251 52.3491 596.235 47.4894 588.33 46.8395C580.425 46.1895 576.505 69.7619 583.029 71.7822C589.553 73.8026 606.535 78.002 614.225 78.9245ZM531.572 61.3559C538.908 62.9153 542.149 38.0458 536.874 36.4132C531.598 34.7806 515.434 30.8258 507.529 30.1758C499.624 29.5258 495.703 53.0982 502.227 55.1186C508.752 57.1389 523.882 60.4335 531.572 61.3559Z" fill="#426640"/>
<path d="M637.113 108.326L646.545 131.288C643.721 132.971 638.013 131.459 624.047 126.506L637.113 108.326Z" fill="#A4A971"/>
<path d="M612.598 108.226L624.047 126.506C618.255 128.532 610.954 124.893 600.572 121.516L612.598 108.226Z" fill="#A4A971"/>
<path d="M595.981 111.851L600.572 121.516C599.869 122.728 597.825 122.573 586.878 118.606L595.981 111.851Z" fill="#A4A971"/>
<path d="M582.348 103.841L586.878 118.606C583.102 119.223 579.176 117.987 571.716 115.383L582.348 103.841Z" fill="#A4A971"/>
<path d="M424.389 77.4225C431.431 73.2847 436.289 71.3301 445.781 68.1678C425.798 121.058 414.382 151.745 398.273 185.862L385.179 187.339L368.42 189.229C369.862 182.135 370.052 177.791 368.177 168.731C376.547 165.016 382.523 162.949 395.749 159.256C390.996 150.237 388.542 145.056 386.14 134.722C394.278 129.723 399.56 126.683 413.878 119.66L406.768 107.414C413.061 103.51 417.326 101.286 426.308 97.2548C425.316 89.557 425.112 85.2596 424.389 77.4225Z" fill="#2D2727"/>
<path d="M629.564 189.531L600.988 225.373C595.069 227.64 589.497 227.958 582.134 227.499C583.27 238.986 558.346 262.324 562.318 260.602C543.847 269.533 534.893 272.663 520.752 275.792C509.615 271.296 500.441 269.211 479.877 266.082L460.604 247.161C468.657 237.028 473.613 227.307 481.323 211.183C471.626 192.136 465.978 181.065 455.252 167.901C454.723 167.252 454.181 166.597 453.625 165.935L453.663 146.519C457.468 155.062 460.292 160.605 468.725 174.257L472.222 177.044C479.242 179.092 483.235 179.929 490.807 180.995C492.931 183.008 504.546 178.927 531.26 168.636L629.564 189.531Z" fill="#2D2727"/>
<path d="M481.323 211.183C473.613 227.307 468.657 237.028 460.604 247.161L451.965 238.68L455.252 167.901C465.978 181.065 471.626 192.136 481.323 211.183Z" fill="#714133"/>
<path d="M562.318 260.602C558.346 262.324 583.27 238.986 582.134 227.499C589.497 227.958 595.069 227.64 600.988 225.373C607.821 228.557 611.103 230.465 616.577 233.798C552.763 265.916 566.29 258.881 562.318 260.602Z" fill="#714133"/>
<path d="M185.362 480.301C187.49 480.182 188.915 480.686 192.159 483.471C193.555 494.423 195.985 500.814 200.183 511.855L200.523 512.749C189.396 510.927 183.263 509.707 174.585 503.412C176.544 494.04 177.679 488.79 185.362 480.301Z" fill="black"/>
<path d="M335.164 207.556L339.242 209.458C337.938 217.535 333.632 228.37 328.318 243.534C321.043 268.438 316.248 282.711 306.83 308.544C276.608 316.786 259.619 318.969 229.203 316.48L228.416 312.252L189.898 294.291C189.415 292.864 188.954 292.518 196.869 271.06L201.731 268.914C207.059 260.661 208.815 252.771 212.238 252.298C239.806 241.553 255.254 235.179 282.699 219.503C296.462 215.726 305.87 214.974 335.164 207.556Z" fill="#AFBE7B"/>
<path d="M249.56 414.795C249.358 413.214 248.702 412.548 246.116 411.534C237.717 406.71 230.635 402.699 224.292 399.181C227.113 372.437 226.979 357.79 207.581 335.638L224.613 320.409L229.203 316.48C259.619 318.969 276.608 316.786 306.83 308.544C298.905 334.015 295.47 348.429 290.508 374.307C273.026 378.983 269.526 376.92 258.008 380.116L259.661 350.544C257.16 349.76 255.857 350.129 253.65 351.603C256.467 365.992 256.585 375.562 256.308 393.116C254.97 400.761 253.061 406.853 249.56 414.795Z" fill="#7A3A2E"/>
<path d="M253.65 351.603C255.857 350.129 257.16 349.76 259.661 350.544L258.008 380.116C257.499 385.115 256.975 389.308 256.308 393.116C256.585 375.562 256.467 365.992 253.65 351.603Z" fill="black"/>
<path d="M186.94 300.635C189.857 298.576 190.417 297.168 189.898 294.291L228.416 312.252L229.203 316.48L224.613 320.409L207.581 335.638C226.979 357.79 227.113 372.437 224.292 399.181C208.773 390.574 197.681 384.912 182.552 377.48C170.286 382.333 162.357 381.65 147.937 379.545C150.493 364.994 151.434 353.938 151.606 325.535C162.468 316.664 169.698 311.356 186.94 300.635Z" fill="#456746"/>
<path fill-rule="evenodd" clip-rule="evenodd" d="M133.012 471.889C132.471 465.77 134.338 449.853 147.937 379.545C162.357 381.65 170.286 382.333 182.552 377.48C197.681 384.912 208.773 390.574 224.292 399.181C230.635 402.699 237.717 406.71 246.116 411.534L236.276 436.185C235.336 432.758 230.35 429.36 214.161 420.907C207.652 423.377 201.456 425.26 164.626 433.669C163.252 435.881 165.182 440.182 194.906 477.58C206.684 476.098 213.191 474.318 224.415 468.721C232.138 482.125 234.022 484.495 237.258 488.502C242.274 482.981 245.813 480.036 253.445 475.086L254.008 475.9L274.87 506.041L242.82 503.785L241.13 507.41L239.467 507.426L228.383 507.534L213.077 536.809L143.745 504.478C137.253 493.252 134.679 487.653 130.265 477.78L133.012 471.889ZM192.159 483.471C188.915 480.686 187.49 480.182 185.362 480.301C177.679 488.79 176.544 494.04 174.585 503.412C183.263 509.707 189.396 510.927 200.523 512.749L200.183 511.855C195.985 500.814 193.555 494.423 192.159 483.471Z" fill="#343F31"/>
<path d="M236.276 436.185C245.634 453.488 243.192 457.529 253.445 475.086C245.813 480.036 242.274 482.981 237.258 488.502C234.022 484.495 232.138 482.125 224.415 468.721C213.191 474.318 206.684 476.098 194.906 477.58C165.182 440.182 163.252 435.881 164.626 433.669C201.456 425.26 207.652 423.377 214.161 420.907C230.35 429.36 235.336 432.758 236.276 436.185Z" fill="#456746"/>
</svg>
