<svg width="1765" height="1323" viewBox="0 0 1765 1323" fill="none" xmlns="http://www.w3.org/2000/svg">
<path fill-rule="evenodd" clip-rule="evenodd" d="M1437.37 227.795C1556.93 275.479 1602.64 329.418 1596.39 420.707L1637.66 396.624C1619.31 332.579 1593.42 304.96 1537.26 261.003C1485.52 234.889 1437.97 227.883 1437.37 227.795Z" fill="#F4C63F"/>
<path d="M1655.68 386.108C1633.4 323.189 1583.65 284.416 1537.26 261.003C1593.42 304.96 1619.31 332.579 1637.66 396.624L1655.68 386.108Z" fill="#3E3030"/>
<path d="M1437.36 227.793C1437.36 227.794 1437.36 227.795 1437.37 227.795M1437.36 227.794C1437.36 227.794 1437.36 227.795 1437.37 227.795M1437.37 227.795C1556.93 275.479 1602.64 329.418 1596.39 420.707L1637.66 396.624M1437.37 227.795C1437.97 227.883 1485.52 234.889 1537.26 261.003M1537.26 261.003C1583.65 284.416 1633.4 323.189 1655.68 386.108L1637.66 396.624M1537.26 261.003C1593.42 304.96 1619.31 332.579 1637.66 396.624" stroke="black" stroke-width="0.272444"/>
<path d="M1636.84 381.516L1655.67 406.975L1671.83 394.213L1662.84 368.172L1637.05 363.996L1631.71 375.934L1536.33 382.04L1439.74 435.858C1411.17 457.371 1395.11 468.84 1367.66 504.57C1343.6 570.176 1331.09 604.943 1334.02 614.853L1378.42 510.204C1404.82 473.884 1419.21 462.661 1445.02 439.532L1537.99 388.696L1636.84 381.516Z" fill="#3E3030"/>
<path d="M1311.49 646.257C1323.82 643.954 1346.73 654.02 1347.99 661.695C1352.1 660.06 1354.62 660.345 1359.49 662.779C1360.27 656.476 1360.9 650.902 1361.55 646.044C1362.51 626.631 1365.02 620.683 1370.97 613.751L1365.15 609.588L1356.23 624.704C1349.39 619.407 1344.25 617.475 1334.02 614.853C1327.86 615.572 1325.27 615.203 1320.81 614.404C1318.01 626.499 1315.96 633.436 1311.49 646.257Z" fill="#3E3030"/>
<path d="M1655.67 406.975L1636.84 381.516L1537.99 388.696L1445.02 439.532C1419.21 462.661 1404.82 473.884 1378.42 510.204L1334.02 614.853C1344.25 617.475 1349.39 619.407 1356.23 624.704L1365.15 609.588L1370.97 613.751C1439.37 521.364 1472.42 466.681 1631.34 423.647L1643.04 412.203L1623.62 401.033C1577.24 411.68 1549.36 420.213 1496.75 439.32C1572.74 398.184 1614.82 376.155 1652.53 410.668L1655.67 406.975Z" fill="#E7A220"/>
<path d="M1519.57 484.993C1569.16 456.386 1594.27 444.403 1628.34 439.159L1652.53 410.668C1614.82 376.155 1572.74 398.184 1496.75 439.32C1549.36 420.213 1577.24 411.68 1623.62 401.033L1643.04 412.203L1631.34 423.647C1472.42 466.681 1439.37 521.364 1370.97 613.751C1365.02 620.683 1362.51 626.631 1361.55 646.044C1362.75 637.151 1364.06 630.655 1366.65 626.472L1431.88 567.788L1466.4 532.771L1519.57 484.993Z" fill="#F4C63F"/>
<path d="M1655.67 406.975L1636.84 381.516L1537.99 388.696L1445.02 439.532C1419.21 462.661 1404.82 473.884 1378.42 510.204L1334.02 614.853M1655.67 406.975L1671.83 394.213L1662.84 368.172L1637.05 363.996L1631.71 375.934L1536.33 382.04L1439.74 435.858C1411.17 457.371 1395.11 468.84 1367.66 504.57C1343.6 570.176 1331.09 604.943 1334.02 614.853M1655.67 406.975L1652.53 410.668M1334.02 614.853C1327.86 615.572 1325.27 615.203 1320.81 614.404C1318.01 626.499 1315.96 633.436 1311.49 646.257C1323.82 643.954 1346.73 654.02 1347.99 661.695C1352.1 660.06 1354.62 660.345 1359.49 662.779C1360.27 656.476 1360.9 650.902 1361.55 646.044M1334.02 614.853C1344.25 617.475 1349.39 619.407 1356.23 624.704L1365.15 609.588L1370.97 613.751M1652.53 410.668L1628.34 439.159C1594.27 444.403 1569.16 456.386 1519.57 484.993L1466.4 532.771L1431.88 567.788L1366.65 626.472C1364.06 630.655 1362.75 637.151 1361.55 646.044M1652.53 410.668C1614.82 376.155 1572.74 398.184 1496.75 439.32C1549.36 420.213 1577.24 411.68 1623.62 401.033L1643.04 412.203L1631.34 423.647C1472.42 466.681 1439.37 521.364 1370.97 613.751M1370.97 613.751C1365.02 620.683 1362.51 626.631 1361.55 646.044" stroke="black" stroke-width="0.403548"/>
<path d="M766.36 672.201L792.759 686.877L797.827 689.694L902.667 747.976L902.667 858.189L823.78 833.42L828.983 791.629L759.458 748.777L736.805 756.628L766.36 672.201Z" fill="#211F27"/>
<path d="M766.36 672.201L771.392 651.907C772.455 668.628 776.536 677.303 792.759 686.877L766.36 672.201Z" fill="#211F27"/>
<path d="M766.36 672.201L736.805 756.628L759.458 748.777L828.983 791.629L823.78 833.42L902.667 858.189L902.667 747.976L797.827 689.694M766.36 672.201L771.392 651.907C772.455 668.628 776.536 677.303 792.759 686.877M766.36 672.201L792.759 686.877M797.827 689.694C796.019 688.741 794.332 687.805 792.759 686.877M797.827 689.694L792.759 686.877" stroke="black" stroke-width="0.350418"/>
<path d="M827.498 821.761L819.045 820.906L813.338 882.976L819.212 884.319L880.75 898.395L894.795 901.607L914.97 837.987L907.102 836.528L827.498 821.761Z" fill="#461B46"/>
<path d="M784.391 978.567L804.846 987.926L821.146 928.607L801.555 925.025L784.391 978.567Z" fill="#461B49"/>
<path d="M761.671 962.88L780.987 974.212L797.208 930.417L800.615 917.502L783.613 918.244L773.158 939.512L761.671 962.88Z" fill="#461B49"/>
<path d="M838.95 915.828L849.466 940.072L850.35 942.11L847.493 971.308L849.316 969.842L852.386 942.021L838.95 915.828Z" fill="black"/>
<path fill-rule="evenodd" clip-rule="evenodd" d="M821.529 937.4L821.146 928.607L804.846 987.926L821.529 937.4ZM801.555 925.025L797.208 930.417L780.987 974.212L784.391 978.567L801.555 925.025Z" fill="black"/>
<path d="M834.515 933.214L833.243 939.314L845.392 941.299L834.515 933.214Z" fill="#461B49"/>
<path d="M783.613 918.244L800.615 917.502L797.208 930.417L801.555 925.025L821.146 928.607L821.529 937.4L833.243 939.314L834.515 933.214L845.392 941.299L850.35 942.11L849.466 940.072L846.221 940.213L832.784 930.555L831.857 937.176L822.274 934.985L822.947 925.861L803.224 922.744L801.891 916.747L784.107 916.911L783.613 918.244Z" fill="black"/>
<path d="M783.613 918.244L784.107 916.911L782.315 916.99L771.634 938.726L773.158 939.512L783.613 918.244Z" fill="black"/>
<path fill-rule="evenodd" clip-rule="evenodd" d="M880.75 898.395L870.993 927.742L877.059 947.523L875.515 948.766L849.316 969.842L852.386 942.021L838.95 915.828L812.301 888.821L819.212 884.319L880.75 898.395ZM833.243 939.314L821.529 937.4L807.961 989.191L814.037 991.657L842.678 1001.21L843.164 998.189L847.493 971.308L850.35 942.11L845.392 941.299L833.243 939.314Z" fill="#461B49"/>
<path d="M821.529 937.4L804.846 987.926L807.961 989.191L821.529 937.4Z" fill="black"/>
<path d="M849.316 969.842L847.493 971.308L843.164 998.189L844.226 999.673L848.843 972.233L876.324 949.763L875.515 948.766L849.316 969.842Z" fill="black"/>
<path d="M838.95 915.828L832.637 925.438L820.282 908.839L788.859 904.09L784.107 916.911L801.891 916.747L803.224 922.744L822.947 925.861L822.274 934.985L831.857 937.176L832.784 930.555L846.221 940.213L849.466 940.072L838.95 915.828Z" fill="black"/>
<path d="M832.637 925.438L838.95 915.828L812.301 888.821L788.859 904.09L820.282 908.839L832.637 925.438Z" fill="black"/>
<path d="M631.145 767.611L588.17 754.829C593.206 764.631 597.297 772.635 600.726 780.366L642.826 798.465L659.575 796.041L665.967 815.215L688.005 792.515L696.919 822.267L714.011 787.446C707.751 788.181 704.225 788.036 697.923 785.242C706.764 770.436 714.131 761.359 729.438 744.47C707.594 753.517 696.711 759.98 682.055 776.426L642.826 752.184L631.145 767.611Z" fill="#C5B5A5"/>
<path d="M688.558 535.102C693.956 528.27 699.025 523.422 699.686 518.133C699.159 509.759 696.96 505.313 690.43 507.995C683.9 510.677 682.055 521.302 688.558 535.102Z" fill="black"/>
<path d="M793.13 1107.08L790.265 1175.99L955.483 1179.96C927.637 1151.83 911.807 1137.54 867.621 1130.81V1102.08L793.13 1107.08Z" fill="black"/>
<path d="M337.369 1100.34L332.521 1129.27C303.528 1142.96 289.427 1155.03 265.743 1179.51H403.485V1155.27L420.676 1105.81L337.369 1100.34Z" fill="black"/>
<path d="M470.037 597.472C471.397 597.733 474.961 597.216 478.823 596.656C480.595 596.399 482.429 596.133 484.141 595.929L500.23 593.725L501.778 595.268H511.696C518.027 623.158 521.681 636.865 528.665 652.348L531.31 622.596C541.013 636.939 546.365 644.996 558.197 658.96C562.707 657.046 564.543 655.359 566.572 651.246C568.487 665.602 570.721 673.87 577.591 689.153C578.018 678.984 577.137 672.19 572.963 657.417C588.068 675.78 597.042 685.469 615.939 699.291C615.464 686.775 614.901 679.744 611.972 667.114C628.095 684.113 635.895 694.061 649.658 711.853L652.964 692.459L682.055 730.586C691.851 719.594 697.211 713.52 701.89 705.903C705.331 705.874 707.261 705.443 710.705 703.919C716.869 697.161 719.672 691.149 724.149 678.575C725.427 663.68 726.434 655.629 733.185 646.398C733.979 652.915 734.305 657.413 734.507 668.216C742.531 656.848 748.417 654.211 748.832 622.376L764.914 627.885C764.921 619.456 764.177 613.645 762.496 602.761L756.98 597.472C676.086 597.603 629.594 596.613 557.751 605.186L556.982 603.967L556.981 603.966C543.527 582.644 535.751 570.319 522.709 541.714C520.676 542.267 518.705 542.798 516.795 543.312C516.788 543.314 516.781 543.316 516.774 543.318C499.171 548.058 486.645 551.431 476.649 558.243C482.797 561.289 490.152 562.321 499.007 563.563C502.548 564.059 506.328 564.589 510.367 565.295C493.196 572.395 468.053 597.091 470.037 597.472Z" fill="#D2CFC9"/>
<path d="M774.611 635.379C776.231 622.451 774.269 616.232 770.644 605.186L762.496 602.761C764.177 613.645 764.921 619.456 764.914 627.885L748.832 622.376C748.417 654.211 742.531 656.848 734.507 668.216C734.305 657.413 733.979 652.915 733.185 646.398C726.434 655.629 725.427 663.68 724.149 678.575C719.672 691.149 716.869 697.161 710.705 703.919C707.261 705.443 705.331 705.874 701.89 705.903C697.211 713.52 691.851 719.594 682.055 730.586L652.964 692.459L649.658 711.853C635.895 694.061 628.095 684.113 611.972 667.114C614.901 679.744 615.464 686.775 615.939 699.291C597.042 685.469 588.068 675.78 572.963 657.417C577.137 672.19 578.018 678.984 577.591 689.153C570.721 673.87 568.487 665.602 566.572 651.246C564.543 655.359 562.707 657.046 558.197 658.96C546.365 644.996 541.013 636.939 531.31 622.596L528.665 652.348C521.681 636.865 518.027 623.158 511.696 595.268H501.778L500.23 593.725L484.141 595.929C482.682 599.24 482.194 605.431 481.38 615.775C481.371 615.886 481.362 615.997 481.353 616.108C481.328 616.43 481.302 616.756 481.276 617.086C489.16 614.833 493.329 613.23 500.23 609.593L507.503 654.552L510.425 656.955C510.426 656.956 510.427 656.956 510.427 656.957C545.022 685.399 565.301 702.071 598.963 731.027C598.967 730.952 598.971 730.878 598.975 730.804C598.981 730.702 598.986 730.601 598.992 730.501C599.002 730.31 599.013 730.121 599.023 729.934C599.036 729.678 599.05 729.426 599.063 729.177C599.066 729.121 599.069 729.064 599.072 729.008C599.073 729.001 599.073 728.993 599.073 728.986C599.38 723.251 599.582 719.476 600.726 714.057C630.466 730.399 647.202 739.181 677.421 752.184C706.088 718.696 722.491 700.583 753.013 670.861C753.077 669.01 753.113 667.266 753.148 665.606C753.148 665.603 753.148 665.6 753.148 665.598C753.354 655.753 753.498 648.861 758.743 640.227C760.661 640.951 761.972 642.497 764.914 648.161C767.479 639.748 768.712 637.092 770.644 635.379H774.611Z" fill="#C5B5A5"/>
<path d="M622.33 498.358C595.656 509.272 584.59 509.209 576.489 500.281C573.116 497.144 569.529 494.249 566.572 491.318C566.584 491.359 566.596 491.399 566.608 491.44C572.051 509.752 567.322 511.914 558.638 515.488C561.438 516.344 564.086 517.048 566.608 517.601C589.295 522.577 601.755 515.418 622.199 498.467C622.243 498.43 622.286 498.394 622.33 498.358Z" fill="#A4395B"/>
<path d="M553.128 441.217C548.035 450.562 545.835 455.824 542.77 465.24L553.128 464.64L569.437 463.697C578.676 466.287 591.302 467.854 603.842 469.411L603.843 469.411C613.044 470.554 620.541 471.69 628.28 473.221C632.093 473.975 635.898 474.605 638.859 475.598C635.286 474.707 631.548 474.069 628.28 473.221C600.582 466.037 584.172 459.653 553.128 441.217Z" fill="#FEBD87"/>
<path d="M790.045 532.725C785.698 535.321 780.424 536.881 771.973 538.629C768.133 548.872 771.987 553.686 777.523 560.6C777.524 560.601 777.525 560.602 777.526 560.603C777.531 560.609 777.535 560.615 777.54 560.621C778.065 561.277 778.605 561.951 779.155 562.651C783.764 562.098 786.296 559.99 790.045 532.725Z" fill="black"/>
<path d="M721.284 502.265C733.137 502.059 736.27 500.502 740.898 482.871C737.152 479.565 732.929 474.796 725.692 474.716C717.249 476.99 714.422 479.061 711.807 483.752C709.323 497.432 715.39 498.781 721.284 502.265Z" fill="#AC3131"/>
<path fill-rule="evenodd" clip-rule="evenodd" d="M628.28 473.221C632.093 473.975 635.898 474.605 638.859 475.598C635.286 474.707 631.548 474.069 628.28 473.221ZM633.033 493.238C635.562 483.625 635.817 477.6 619.073 474.432C615.078 473.377 611.559 473.023 608.666 473.221C604.792 473.487 600.671 480.537 599.41 482.43C597.569 485.191 607.825 498.944 622.199 498.467C624.157 498.402 626.19 498.073 628.28 497.416L631.08 494.955L633.033 493.238Z" fill="#AC3131"/>
<path d="M569.437 463.697L553.128 464.64C554.914 474.511 556.083 480.921 566.608 491.44C566.596 491.399 566.584 491.359 566.572 491.318C569.529 494.249 573.116 497.144 576.489 500.281C584.59 509.209 595.656 509.272 622.33 498.358L628.28 497.416C626.19 498.073 624.157 498.402 622.199 498.467C607.825 498.944 597.569 485.191 599.41 482.43C600.671 480.537 604.792 473.487 608.666 473.221C611.559 473.023 615.078 473.377 619.073 474.432C635.817 477.6 635.562 483.625 633.033 493.238L659.135 480.667L638.859 475.598C635.286 474.707 631.548 474.069 628.28 473.221C620.541 471.69 613.044 470.554 603.843 469.411L603.842 469.411C591.302 467.854 578.676 466.287 569.437 463.697Z" fill="black"/>
<path d="M656.264 510.419C652.273 519.612 660.592 525.237 671.642 535.102C673.407 523.468 674.867 516.833 664.865 507.995C661.435 505.691 659.567 506.956 656.264 510.419Z" fill="black"/>
<path d="M669.713 541.714H678.969H686.903H694.837C686.587 535.826 683.756 527.709 681.173 506.672H675.223C674.801 519.069 673.94 526.42 671.642 535.102C671.088 537.199 670.449 539.373 669.713 541.714Z" fill="#B74A5F"/>
<path d="M557.751 605.186C612.483 585.936 656.938 583.984 756.76 593.725C741.223 584.982 731.539 580.243 686.903 576.315C685.034 562.171 683.664 554.136 686.903 541.714H678.969C680.779 556.844 679.978 564.481 678.969 578.298H616.38L588.39 545.901L561.723 553.395L500.23 465.24L535.938 420.727L520.511 411.758C504.924 428.18 492.416 443.225 473.783 467.223C511.467 526.701 515.431 531.995 522.268 541.125L522.709 541.714C535.751 570.319 543.527 582.644 556.981 603.966L556.982 603.967L557.751 605.186Z" fill="#B74A5F"/>
<path d="M756.76 593.725C656.938 583.984 612.483 585.936 557.751 605.186C629.594 596.613 676.086 597.603 756.98 597.472L756.76 593.725Z" fill="black"/>
<path d="M656.264 430.639C625.525 419.667 610.573 415.676 596.434 411.902C581.806 407.997 568.048 404.325 538.577 393.393C531.901 399.99 526.014 405.959 520.511 411.758L535.938 420.727L576.489 444.303C607.856 457.412 626.416 454.572 667.73 467.223C689.755 455.185 703.767 448.302 735.389 435.487C745.787 459.373 752.068 469.524 763.014 489.482C766.019 479.143 768.867 466.967 771.526 451.355L725.024 410.363C694.38 418.052 678.5 422.444 656.264 430.639Z" fill="#FEBD87"/>
<path d="M812.232 464.578L794.16 481.328L780.348 499.4C779.998 510.675 778.909 515.344 777.124 523.004C777.025 523.428 776.924 523.86 776.821 524.303C791.538 524.594 794.739 525.577 795.995 528.05C794.058 529.949 792.162 531.46 790.045 532.725C786.296 559.99 783.764 562.098 779.155 562.651C779.548 563.151 779.946 563.665 780.348 564.194C774.659 564.274 771.785 563.339 767.124 560.227C764.263 571.963 762.425 577.341 758.97 586.012V594.387L818.689 545.901C819.04 529.237 817.529 485.398 812.232 464.578Z" fill="#B74A5F"/>
<path fill-rule="evenodd" clip-rule="evenodd" d="M756.76 586.012L740.672 549.648C725.185 522.394 718.106 511.441 707.399 496.958C698.606 493.524 687.205 488.709 668.391 481.328L659.135 480.667L633.033 493.238L631.08 494.955C629.997 496.037 628.821 497.246 628.28 497.416C626.19 498.073 624.157 498.402 622.199 498.467C601.755 515.418 589.295 522.577 566.608 517.601L588.39 545.901L616.38 578.298H678.969C679.978 564.481 680.779 556.844 678.969 541.714H669.713C670.449 539.373 671.088 537.199 671.642 535.102C660.592 525.237 652.273 519.612 656.264 510.419C659.567 506.956 661.435 505.691 664.865 507.995C674.867 516.833 673.407 523.468 671.642 535.102C673.94 526.42 674.801 519.069 675.223 506.672H681.173C683.756 527.709 686.587 535.826 694.837 541.714H686.903C683.664 554.136 685.034 562.171 686.903 576.315C731.539 580.243 741.223 584.982 756.76 593.725V586.012ZM699.686 518.133C699.025 523.422 693.956 528.27 688.558 535.102C682.055 521.302 683.9 510.677 690.43 507.995C696.96 505.313 699.159 509.759 699.686 518.133Z" fill="#FEBD87"/>
<path d="M737.813 453.78C712.607 464.966 696.155 470.717 668.391 481.328C691.706 475.097 704.776 471.674 728.116 469.527H743.763C741.988 461.986 740.584 458.805 737.813 453.78Z" fill="#FEBD87"/>
<path d="M721.284 502.265C715.39 498.781 709.323 497.432 711.807 483.752C714.422 479.061 717.249 476.99 725.692 474.716C732.929 474.796 737.152 479.565 740.898 482.871C739.427 477.3 736.994 471.561 728.116 469.527C704.776 471.674 691.706 475.097 668.391 481.328C687.205 488.709 698.606 493.524 707.399 496.958C711.997 498.754 717.425 501.054 721.284 502.265Z" fill="black"/>
<path d="M387.833 508.876L371.75 506.011L381.006 514.166C388.17 529.779 392.749 538.021 402.378 551.631L387.833 556.26L389.821 563.092C398.661 559.803 403.57 558.117 411.317 558.243L410.214 537.086L387.833 508.876Z" fill="black"/>
<path d="M387.833 460.391L348.163 436.369C320.057 468.917 311.846 485.377 321.937 508.876L344.422 554.496C352.685 561.513 357.293 565.459 365.358 572.568L412.742 585.571L411.317 558.243C403.57 558.117 398.661 559.803 389.821 563.092L387.833 556.26L368.003 537.086L355.221 506.011L348.383 495.873L387.833 460.391Z" fill="#D15F6F"/>
<path d="M406.571 467.223C398.819 467.729 394.612 466.952 387.833 460.391L348.383 495.873L355.221 506.011L368.003 537.086L387.833 556.26L402.378 551.631C392.749 538.021 388.17 529.779 381.006 514.166L371.75 506.011L387.833 508.876L410.214 537.086L406.571 467.223Z" fill="#B74A5F"/>
<path d="M415.602 965.739C335.386 958.907 219.153 985.879 248.989 846.95C278.825 708.022 89.4335 690.035 78.4094 697.528C67.3853 705.021 64.0887 719.346 78.4094 727.941C92.7301 736.536 244.145 721.109 220.559 846.95C197.323 970.918 271.836 1005.29 392.27 987.939L397.76 987.117L415.602 965.739Z" fill="#211F27"/>
<path d="M515.663 993.288L528.66 965.739L482.053 961.38L455.938 958.907L448.885 984.913L515.663 993.288Z" fill="#6B304C"/>
<path d="M672.578 954.459L528.66 965.739L515.663 993.288L672.578 982.929V954.459Z" fill="#6B304C"/>
<path d="M677.421 884.416L527.712 887.314L536.82 952.075L702.992 941.056L693.241 919.458L677.421 884.416Z" fill="#6B304C"/>
<path d="M702.992 941.056L536.82 952.075L528.66 965.739L672.578 954.459L702.992 952.075V941.056Z" fill="black"/>
<path d="M667.73 467.223C626.416 454.572 607.856 457.412 576.489 444.303L535.938 420.727L500.23 465.24L561.723 553.395L588.39 545.901L566.608 517.601C564.086 517.048 561.438 516.344 558.638 515.488C567.322 511.914 572.051 509.752 566.608 491.44C556.083 480.921 554.914 474.511 553.128 464.64L542.77 465.24C545.835 455.824 548.035 450.562 553.128 441.217C584.172 459.653 600.582 466.037 628.28 473.221C632.093 473.975 635.898 474.605 638.859 475.598L659.135 480.667L668.391 481.328C696.155 470.717 712.607 464.966 737.813 453.78C740.584 458.805 741.988 461.986 743.763 469.527H728.116C736.994 471.561 739.427 477.3 740.898 482.871C736.27 500.502 733.137 502.059 721.284 502.265C717.425 501.054 711.997 498.754 707.399 496.958C718.106 511.441 725.185 522.394 740.672 549.648C743.96 540.244 747.173 532.346 750.285 524.694L750.286 524.692L750.286 524.691C754.759 513.694 759.026 503.205 763.014 489.482C752.068 469.524 745.787 459.373 735.389 435.487C703.767 448.302 689.755 455.185 667.73 467.223Z" fill="#6C5C5C"/>
<path d="M536.82 952.075L527.712 887.314L448.152 885.249L454.517 945.464L536.82 952.075Z" fill="#6B304C"/>
<path d="M528.66 965.739L536.82 952.075L454.517 945.464L455.938 958.907L482.053 961.38L528.66 965.739Z" fill="black"/>
<path d="M425.96 952.075L415.602 965.739L397.76 987.117C500.776 1032.64 562.987 1042.22 693.241 990.19L711.802 974.114L714.011 916.372L693.241 919.458L702.992 941.056V952.075L672.578 954.459V982.929L515.663 993.288L448.885 984.913L455.938 958.907L454.517 945.464L448.152 885.249L416.042 884.416L410.644 911.945L409.431 918.135C411.107 923.135 412.596 927.304 414.296 931.291C414.835 932.526 415.4 933.78 415.98 935.03C418.432 940.186 421.46 945.381 425.96 952.075Z" fill="#3F2F3D"/>
<path fill-rule="evenodd" clip-rule="evenodd" d="M588.17 754.829L631.145 767.611L642.826 752.184L682.055 776.426C696.711 759.98 707.594 753.517 729.438 744.47C714.131 761.359 706.764 770.436 697.923 785.242C704.225 788.036 707.751 788.181 714.011 787.446L696.919 822.267L688.005 792.515L665.967 815.215L659.575 796.041L642.826 798.465L600.726 780.366C597.297 772.635 593.206 764.631 588.17 754.829Z" fill="#D2CFC9"/>
<path d="M647.454 868.769C673.764 855.876 682.18 846.89 693.241 829.76L696.919 822.267L688.005 792.515L665.967 815.215L659.575 796.041L642.826 798.465L600.726 780.366C605.504 791.137 608.998 801.378 611.972 815.215C618.693 810.161 620.931 806.477 622.33 798.465C629.007 819.972 628.908 832.493 628.741 853.506L628.74 853.547L628.74 853.606L628.739 853.688L628.738 853.809C628.732 854.524 628.727 855.25 628.721 855.986C629.509 855.608 630.273 855.244 631.015 854.891L631.093 854.854L631.095 854.852C640.185 850.524 645.955 847.776 652.964 839.016C650.061 849.502 649.015 856.266 647.454 868.769Z" fill="#C5B5A5"/>
<path fill-rule="evenodd" clip-rule="evenodd" d="M774.611 635.379H770.644C768.712 637.092 767.479 639.748 764.914 648.161C761.972 642.497 760.661 640.951 758.743 640.227C753.498 648.861 753.354 655.753 753.148 665.598L753.148 665.606C753.113 667.266 753.077 669.01 753.013 670.861C722.491 700.583 706.088 718.696 677.421 752.184C647.202 739.181 630.466 730.399 600.726 714.057C599.582 719.476 599.38 723.251 599.073 728.986L599.072 729.008L599.063 729.177L599.023 729.934L598.992 730.501L598.975 730.804L598.963 731.027C565.301 702.071 545.022 685.399 510.427 656.957L510.425 656.955L507.503 654.552L500.23 609.593C493.329 613.23 489.16 614.833 481.276 617.086L481.353 616.108L481.38 615.775C482.194 605.431 482.682 599.24 484.141 595.929C482.429 596.133 480.595 596.399 478.823 596.656C474.961 597.216 471.397 597.733 470.037 597.472C468.053 597.091 493.196 572.395 510.367 565.295C506.328 564.589 502.548 564.059 499.007 563.563C490.152 562.321 482.797 561.289 476.649 558.243C486.645 551.431 499.171 548.058 516.774 543.318L516.795 543.312C518.705 542.798 520.676 542.267 522.709 541.714L522.268 541.125C515.431 531.995 511.467 526.701 473.783 467.223C492.416 443.225 504.924 428.18 520.511 411.758C526.014 405.959 531.901 399.99 538.577 393.393C568.048 404.325 581.806 407.997 596.434 411.902C610.573 415.676 625.525 419.667 656.264 430.639C678.5 422.444 694.38 418.052 725.024 410.363L771.526 451.355C768.867 466.967 766.019 479.143 763.014 489.482C759.026 503.205 754.759 513.694 750.286 524.691L750.286 524.692L750.285 524.694C747.173 532.346 743.96 540.244 740.672 549.648L756.76 586.012V593.725L756.98 597.472L762.496 602.761L770.644 605.186C772.181 603.581 773.676 602.022 775.132 600.504L775.132 600.504L775.133 600.503L775.134 600.502C795.529 579.241 808.256 565.973 818.689 545.901L758.97 594.387V586.012C762.425 577.341 764.263 571.963 767.124 560.227C771.785 563.339 774.659 564.274 780.348 564.194C779.946 563.665 779.548 563.151 779.155 562.651C778.605 561.951 778.065 561.277 777.54 560.621L777.526 560.603L777.523 560.6C771.987 553.686 768.133 548.872 771.973 538.629C780.424 536.881 785.698 535.321 790.045 532.725C792.162 531.46 794.058 529.949 795.995 528.05C794.739 525.577 791.538 524.594 776.821 524.303C776.924 523.86 777.025 523.428 777.124 523.004C778.909 515.344 779.998 510.675 780.348 499.4L794.16 481.328C792.912 477.937 791.906 475.328 791.094 473.221C789.572 469.273 788.729 467.086 788.245 464.824C787.644 462.016 787.595 459.091 787.483 452.536C787.459 451.084 787.431 449.455 787.394 447.609L785.008 445.236C705.522 366.183 655.142 316.076 536.152 278.131C464.525 330.74 434 373.278 387.833 460.391C394.612 466.952 398.819 467.729 406.571 467.223L410.214 537.086L411.317 558.243L412.742 585.571L365.358 572.568C357.293 565.459 352.685 561.513 344.422 554.496L321.937 508.876C320.038 511.47 319.706 513.72 321.937 520.777C330.548 537.373 336.608 550.322 348.383 576.315L414.72 602.1L416.042 623.918C408.094 626.792 404.328 629.571 402.378 642.651C399.185 667.268 402.923 709.83 406.944 755.606C411.9 812.032 417.284 873.342 410.644 911.945L416.042 884.416L448.152 885.249L527.712 887.314L677.421 884.416L693.241 919.458L714.011 916.372L711.802 974.114L693.241 990.19C562.987 1042.22 500.776 1032.64 397.76 987.117C395.92 987.402 394.089 987.676 392.27 987.939L356.543 993.288L321.501 1099.29L337.369 1100.34L420.676 1105.81L448.885 1107.67C448.885 1107.67 445.8 1090.04 462.477 1080.12C477.534 1071.17 506.232 1083.2 516.324 1087.44C517.41 1087.89 518.281 1088.26 518.896 1088.49C549.111 1100.23 549.261 1100.23 570.329 1099.66H570.332C576.27 1099.5 583.868 1099.29 594.268 1099.29C601.756 1097.41 609.288 1095.68 616.765 1093.96C647.805 1086.82 677.912 1079.89 700.054 1063.37L759.411 1077.26L761.394 1109.21L793.13 1107.08L867.621 1102.08L886.134 1100.84L874.894 1004.53L781.229 982.929L719.962 969.486V918.135L714.011 849.595L743.984 764.085L771.526 668.216L770.644 654.773L774.611 635.379ZM462.108 709.429L453.661 741.385L448.152 718.465L438.014 773.782L432.504 721.109L423.248 789.429L453.661 854.223L465.414 838.135L488.042 849.235L491.788 843.064L465.414 803.093L462.108 709.429ZM588.17 754.829L631.145 767.611L642.826 752.184L682.055 776.426C696.711 759.98 707.594 753.517 729.438 744.47C714.131 761.359 706.764 770.436 697.923 785.242C704.225 788.036 707.751 788.181 714.011 787.446L696.919 822.267L693.241 829.76C682.18 846.89 673.764 855.876 647.454 868.769C649.015 856.266 650.061 849.502 652.964 839.016C645.955 847.776 640.185 850.524 631.095 854.852L631.093 854.854L631.015 854.891C630.273 855.244 629.509 855.608 628.721 855.986C628.727 855.25 628.732 854.524 628.738 853.809L628.739 853.688L628.74 853.606L628.74 853.547L628.741 853.506C628.908 832.493 629.007 819.972 622.33 798.465C620.931 806.477 618.693 810.161 611.972 815.215C608.998 801.378 605.504 791.137 600.726 780.366C597.297 772.635 593.206 764.631 588.17 754.829Z" fill="#211F27"/>
<path d="M462.108 803.093V709.429L453.661 741.385L448.152 718.465L438.014 773.782L432.504 721.109L423.248 789.429L453.661 854.223L465.414 838.135L488.042 849.235L462.108 803.093Z" fill="#D2CFC9"/>
<path d="M462.108 709.429V803.093L488.042 849.235L491.788 843.064L465.414 803.093L462.108 709.429Z" fill="#D2CFC9"/>
<path d="M787.394 447.609L785.008 445.236M787.394 447.609C786.596 446.815 785.801 446.024 785.008 445.236M787.394 447.609C787.431 449.455 787.459 451.084 787.483 452.536C787.595 459.091 787.644 462.016 788.245 464.824C788.73 467.086 789.572 469.273 791.094 473.221C791.906 475.328 792.912 477.937 794.16 481.328M794.16 481.328L812.231 464.578C817.529 485.398 819.04 529.237 818.689 545.901M794.16 481.328L780.348 499.4C779.998 510.675 778.909 515.344 777.124 523.004C777.025 523.428 776.924 523.86 776.821 524.303C791.538 524.594 794.739 525.577 795.995 528.05C794.058 529.949 792.162 531.46 790.045 532.725M818.689 545.901L758.97 594.387V586.012C762.425 577.341 764.263 571.963 767.124 560.227C771.785 563.339 774.659 564.274 780.348 564.194C779.946 563.665 779.548 563.151 779.155 562.651M818.689 545.901C808.256 565.973 795.529 579.241 775.134 600.502L775.133 600.503L775.132 600.504L775.132 600.504C773.676 602.022 772.181 603.581 770.644 605.186M770.644 605.186C774.269 616.232 776.231 622.451 774.611 635.379M770.644 605.186L762.496 602.761M774.611 635.379H770.644C768.712 637.092 767.479 639.748 764.914 648.161C761.972 642.497 760.661 640.951 758.743 640.227C753.498 648.861 753.354 655.753 753.148 665.598M774.611 635.379L770.644 654.773L771.526 668.216L743.984 764.085L714.011 849.595L719.962 918.135V969.486L781.229 982.929L874.894 1004.53L886.134 1100.84L867.621 1102.08M598.963 731.027C565.301 702.071 545.022 685.399 510.427 656.957M598.963 731.027L598.975 730.804M598.963 731.027C598.967 730.952 598.971 730.878 598.975 730.804M507.503 654.552L500.23 609.593C493.329 613.23 489.16 614.833 481.276 617.086M507.503 654.552L510.425 656.955M507.503 654.552C508.488 655.363 509.462 656.164 510.425 656.955M481.276 617.086L481.353 616.108M481.276 617.086C481.302 616.756 481.328 616.43 481.353 616.108M484.141 595.929L500.23 593.725L501.778 595.268H511.696C518.027 623.158 521.681 636.865 528.665 652.348L531.31 622.596C541.013 636.939 546.365 644.996 558.197 658.96C562.707 657.046 564.543 655.359 566.572 651.246C568.487 665.602 570.721 673.87 577.591 689.153C578.018 678.984 577.137 672.19 572.963 657.417C588.068 675.78 597.043 685.469 615.939 699.291C615.464 686.775 614.901 679.744 611.972 667.114C628.095 684.113 635.895 694.061 649.658 711.853L652.964 692.459L682.055 730.586C691.851 719.594 697.211 713.52 701.89 705.903C705.331 705.874 707.261 705.443 710.705 703.919C716.869 697.161 719.672 691.149 724.149 678.575C725.428 663.68 726.434 655.629 733.185 646.398C733.98 652.915 734.305 657.413 734.507 668.216C742.532 656.848 748.417 654.211 748.832 622.376L764.914 627.885C764.921 619.456 764.177 613.645 762.496 602.761M484.141 595.929C482.429 596.133 480.595 596.399 478.823 596.656C474.961 597.216 471.397 597.733 470.037 597.472C468.053 597.091 493.196 572.394 510.367 565.295C506.328 564.589 502.548 564.059 499.007 563.563C490.152 562.321 482.797 561.289 476.649 558.243C486.645 551.431 499.171 548.058 516.774 543.318M484.141 595.929C482.682 599.24 482.194 605.431 481.38 615.775M522.709 541.714L522.268 541.125M522.709 541.714C522.56 541.516 522.414 541.319 522.268 541.125M522.709 541.714C535.751 570.319 543.527 582.644 556.981 603.966L556.982 603.967M522.709 541.714C520.676 542.267 518.705 542.798 516.795 543.312M740.672 549.648L756.76 586.012V593.725M740.672 549.648C725.185 522.394 718.106 511.441 707.399 496.958M740.672 549.648C743.96 540.244 747.173 532.346 750.285 524.694L750.286 524.692L750.286 524.691C754.759 513.694 759.026 503.205 763.014 489.482M756.76 593.725C656.938 583.984 612.483 585.936 557.751 605.186M756.76 593.725L756.98 597.472M756.76 593.725C741.223 584.982 731.539 580.243 686.903 576.315C685.034 562.171 683.664 554.136 686.903 541.714M557.751 605.186C629.594 596.613 676.086 597.603 756.98 597.472M557.751 605.186L556.982 603.967M557.751 605.186C557.492 604.776 557.236 604.37 556.982 603.967M756.98 597.472L762.496 602.761M387.833 460.391C434 373.278 464.525 330.74 536.152 278.131C655.142 316.076 705.522 366.183 785.008 445.236M387.833 460.391L348.163 436.369C320.057 468.917 311.846 485.377 321.937 508.876M387.833 460.391C394.612 466.952 398.819 467.729 406.571 467.223L410.214 537.086M387.833 460.391L348.383 495.873L355.221 506.011L368.003 537.086L387.833 556.26M321.937 508.876C320.038 511.47 319.706 513.72 321.937 520.777C330.548 537.373 336.608 550.322 348.383 576.315L414.72 602.1L416.042 623.918C408.094 626.792 404.328 629.571 402.378 642.651C399.185 667.268 402.923 709.83 406.944 755.606C411.9 812.032 417.284 873.342 410.644 911.945M321.937 508.876L344.422 554.496C352.685 561.513 357.293 565.459 365.358 572.568L412.742 585.571L411.317 558.243M409.431 918.135C411.107 923.135 412.596 927.304 414.296 931.291M409.431 918.135C410.114 920.986 411.971 925.964 414.296 931.291M409.431 918.135L410.644 911.945M409.431 918.135C409.873 916.144 410.277 914.079 410.644 911.945M425.96 952.075L415.602 965.739M425.96 952.075C421.46 945.381 418.432 940.186 415.98 935.03M425.96 952.075C423.211 949.324 419.324 942.232 415.98 935.03M415.602 965.739C335.386 958.907 219.153 985.879 248.989 846.95C278.825 708.022 89.4335 690.035 78.4094 697.528C67.3853 705.021 64.0887 719.346 78.4094 727.941C92.7301 736.536 244.145 721.109 220.559 846.95C197.323 970.918 271.836 1005.29 392.27 987.939M415.602 965.739L397.76 987.117M397.76 987.117C500.776 1032.64 562.987 1042.22 693.241 990.19L711.802 974.114L714.011 916.372L693.241 919.458M397.76 987.117C395.92 987.402 394.089 987.676 392.27 987.939M397.76 987.117L392.27 987.939M462.108 709.429V803.093L488.042 849.235M462.108 709.429L465.414 803.093L491.788 843.064L488.042 849.235M462.108 709.429L453.661 741.385L448.152 718.465L438.014 773.782L432.504 721.109L423.248 789.429L453.661 854.223L465.414 838.135L488.042 849.235M527.712 887.314L677.421 884.416L693.241 919.458M527.712 887.314L536.82 952.075M527.712 887.314L448.152 885.249M702.992 941.056L536.82 952.075M702.992 941.056V952.075L672.578 954.459M702.992 941.056L693.241 919.458M536.82 952.075L528.66 965.739M536.82 952.075L454.517 945.463M528.66 965.739L672.578 954.459M528.66 965.739L515.663 993.288M528.66 965.739L482.053 961.38L455.938 958.907M672.578 954.459V982.929L515.663 993.288M515.663 993.288L448.885 984.913L455.938 958.907M455.938 958.907L454.517 945.463M793.13 1107.08L761.394 1109.21L759.411 1077.26L700.054 1063.37C677.912 1079.89 647.805 1086.82 616.765 1093.96C609.288 1095.68 601.756 1097.41 594.268 1099.29C583.868 1099.29 576.27 1099.5 570.332 1099.66M793.13 1107.08L790.265 1175.99L955.483 1179.96C927.637 1151.83 911.807 1137.54 867.621 1130.81V1102.08M793.13 1107.08L867.621 1102.08M337.369 1100.34L321.501 1099.29L356.543 993.288L392.27 987.939M337.369 1100.34L332.521 1129.27C303.528 1142.96 289.427 1155.03 265.743 1179.51H403.485V1155.27L420.676 1105.81M337.369 1100.34L420.676 1105.81M420.676 1105.81L448.885 1107.67C448.885 1107.67 445.8 1090.04 462.477 1080.12C477.534 1071.17 506.232 1083.2 516.324 1087.44C517.41 1087.89 518.281 1088.26 518.896 1088.49C549.111 1100.23 549.261 1100.23 570.329 1099.66M600.726 780.366C605.504 791.137 608.998 801.378 611.972 815.215C618.693 810.161 620.931 806.477 622.33 798.465C629.007 819.972 628.908 832.493 628.741 853.506M600.726 780.366C597.297 772.635 593.206 764.631 588.17 754.829L631.145 767.611L642.826 752.184L682.055 776.426C696.711 759.98 707.594 753.517 729.438 744.47C714.131 761.359 706.764 770.436 697.923 785.242C704.225 788.036 707.751 788.181 714.011 787.446L696.919 822.267M600.726 780.366L642.826 798.465L659.575 796.041L665.967 815.215L688.005 792.515L696.919 822.267M696.919 822.267L693.241 829.76C682.18 846.89 673.764 855.876 647.454 868.769C649.015 856.266 650.061 849.502 652.964 839.016C645.955 847.776 640.185 850.524 631.095 854.852M520.511 411.758C504.924 428.18 492.416 443.225 473.783 467.223C511.467 526.701 515.431 531.995 522.268 541.125M520.511 411.758C526.014 405.959 531.901 399.99 538.577 393.393C568.048 404.325 581.806 407.997 596.434 411.902C610.573 415.676 625.525 419.667 656.264 430.639C678.5 422.444 694.38 418.052 725.024 410.363L771.526 451.355C768.867 466.967 766.019 479.143 763.014 489.482M520.511 411.758L535.938 420.727M763.014 489.482C752.068 469.524 745.787 459.373 735.389 435.487C703.767 448.302 689.755 455.185 667.73 467.223C626.416 454.572 607.856 457.412 576.489 444.303L535.938 420.727M535.938 420.727L500.23 465.24L561.723 553.395L588.39 545.901M588.39 545.901L616.38 578.298H678.969C679.978 564.481 680.779 556.844 678.969 541.714M588.39 545.901L566.608 517.601M678.969 541.714H669.713C670.449 539.373 671.088 537.199 671.642 535.102M678.969 541.714H686.903M686.903 541.714H694.837C686.587 535.826 683.756 527.709 681.173 506.672H675.223C674.801 519.069 673.94 526.42 671.642 535.102M671.642 535.102C660.592 525.237 652.273 519.612 656.264 510.419C659.567 506.956 661.435 505.691 664.865 507.995C674.867 516.833 673.407 523.468 671.642 535.102ZM638.859 475.598L659.135 480.667M638.859 475.598C635.898 474.605 632.093 473.975 628.28 473.221M638.859 475.598C635.286 474.707 631.548 474.069 628.28 473.221M553.128 464.64L569.437 463.697C578.676 466.287 591.302 467.854 603.842 469.411L603.843 469.411C613.044 470.554 620.541 471.69 628.28 473.221M553.128 464.64L542.77 465.24C545.835 455.824 548.035 450.562 553.128 441.217C584.172 459.653 600.582 466.037 628.28 473.221M553.128 464.64C554.914 474.511 556.083 480.921 566.608 491.44M576.489 500.281C584.59 509.209 595.656 509.272 622.33 498.358M576.489 500.281C573.116 497.144 569.529 494.249 566.572 491.318C566.584 491.359 566.596 491.399 566.608 491.44M576.489 500.281C572.497 496.993 569.257 494.087 566.608 491.44M659.135 480.667L668.391 481.328M659.135 480.667L633.033 493.238M622.33 498.358L628.28 497.416M622.33 498.358C622.286 498.394 622.243 498.43 622.199 498.467M668.391 481.328C687.205 488.709 698.606 493.524 707.399 496.958M668.391 481.328C696.155 470.717 712.606 464.966 737.813 453.78C740.584 458.805 741.988 461.986 743.763 469.527H728.116M668.391 481.328C691.706 475.097 704.776 471.674 728.116 469.527M740.898 482.871C736.27 500.502 733.137 502.059 721.284 502.265M740.898 482.871C737.152 479.565 732.929 474.796 725.692 474.716C717.249 476.99 714.422 479.061 711.807 483.752C709.323 497.432 715.39 498.781 721.284 502.265M740.898 482.871C739.427 477.3 736.994 471.561 728.116 469.527M721.284 502.265C717.425 501.054 711.997 498.754 707.399 496.958M510.425 656.955L510.427 656.957M510.425 656.955C510.426 656.956 510.427 656.956 510.427 656.957M790.045 532.725C785.698 535.321 780.424 536.881 771.973 538.629C768.133 548.872 771.987 553.686 777.523 560.6M790.045 532.725C786.296 559.99 783.764 562.098 779.155 562.651M779.155 562.651C778.605 561.951 778.065 561.277 777.54 560.621M633.033 493.238C635.562 483.625 635.817 477.6 619.073 474.432C615.078 473.377 611.559 473.023 608.666 473.221C604.792 473.487 600.671 480.537 599.41 482.43C597.569 485.191 607.825 498.944 622.199 498.467M633.033 493.238L631.08 494.955M633.033 493.238C632.626 493.429 631.878 494.157 631.08 494.955M628.28 497.416C628.821 497.246 629.997 496.037 631.08 494.955M628.28 497.416C626.19 498.073 624.157 498.402 622.199 498.467M628.28 497.416L631.08 494.955M566.608 491.44C572.051 509.752 567.322 511.914 558.638 515.488C561.438 516.344 564.086 517.048 566.608 517.601M566.608 517.601C589.295 522.577 601.755 515.418 622.199 498.467M410.214 537.086L387.833 508.876L371.75 506.011L381.006 514.166C388.17 529.779 392.749 538.021 402.378 551.631L387.833 556.26M410.214 537.086L411.317 558.243M411.317 558.243C403.57 558.117 398.661 559.803 389.821 563.092L387.833 556.26M777.523 560.6L777.526 560.603M777.523 560.6C777.524 560.601 777.525 560.602 777.526 560.603M516.774 543.318L516.795 543.312M516.774 543.318C516.781 543.316 516.788 543.314 516.795 543.312M481.38 615.775L481.353 616.108M481.38 615.775C481.371 615.886 481.362 615.997 481.353 616.108M599.073 728.986C599.38 723.251 599.582 719.476 600.726 714.057C630.466 730.399 647.202 739.181 677.421 752.184C706.088 718.696 722.491 700.583 753.013 670.861C753.077 669.01 753.113 667.266 753.148 665.606M599.073 728.986L599.072 729.008M599.073 728.986C599.073 728.993 599.073 729.001 599.072 729.008M753.148 665.598L753.148 665.606M753.148 665.598C753.148 665.6 753.148 665.603 753.148 665.606M628.741 853.506L628.74 853.547M628.741 853.506C628.74 853.519 628.74 853.533 628.74 853.547M631.095 854.852L631.093 854.854M631.095 854.852C631.095 854.853 631.094 854.853 631.093 854.854M599.072 729.008L599.063 729.177M599.072 729.008C599.069 729.064 599.066 729.121 599.063 729.177M777.526 560.603L777.54 560.621M777.526 560.603C777.531 560.609 777.535 560.615 777.54 560.621M631.093 854.854L631.015 854.891M631.093 854.854C631.067 854.866 631.041 854.878 631.015 854.891M628.74 853.547L628.74 853.606M628.74 853.547C628.74 853.566 628.74 853.586 628.74 853.606M599.023 729.934L599.063 729.177M599.023 729.934L598.992 730.501M599.023 729.934C599.013 730.121 599.002 730.31 598.992 730.501M599.023 729.934C599.036 729.678 599.05 729.426 599.063 729.177M628.74 853.606L628.739 853.688M628.74 853.606C628.739 853.633 628.739 853.661 628.739 853.688M631.015 854.891C630.273 855.244 629.509 855.608 628.721 855.986C628.727 855.25 628.732 854.524 628.738 853.809M414.296 931.291C414.835 932.526 415.4 933.78 415.98 935.03M414.296 931.291C414.832 932.548 415.389 933.788 415.98 935.03M448.152 885.249L416.042 884.416L410.644 911.945M448.152 885.249L454.517 945.463M598.992 730.501L598.975 730.804M598.992 730.501C598.986 730.601 598.981 730.702 598.975 730.804M628.739 853.688L628.738 853.809M628.739 853.688C628.739 853.728 628.738 853.768 628.738 853.809M570.329 1099.66H570.332M570.329 1099.66C570.33 1099.66 570.331 1099.66 570.332 1099.66M688.558 535.102C693.956 528.27 699.025 523.422 699.686 518.133C699.159 509.759 696.96 505.313 690.43 507.995C683.9 510.677 682.055 521.302 688.558 535.102Z" stroke="black" stroke-width="0.440775"/>
<path d="M500.634 898.624C482.251 864.369 471.42 844.755 461.185 803.754C459.029 763.701 461.999 747.344 464.932 714.276L415.124 623.697C405.308 628.278 402.543 633.519 401.019 646.177C379.018 714.763 349.89 815.434 350.991 828.878C352.093 842.321 389.53 893.85 410.937 926.115L500.634 898.624Z" fill="#211F27"/>
<path d="M526.42 934.664L513.196 894.774L500.634 898.624L410.937 926.115L401.019 929.154L415.124 967.722L425.041 964.776L514.739 938.133L526.42 934.664Z" fill="#401945"/>
<path d="M425.041 964.776C433.815 991.82 439.342 1007.02 454.353 1034.5L480.359 1027.89L464.932 983.81L467.797 982.708L483.444 1026.57L509.009 1018.41L492.039 974.995L494.684 973.672L511.874 1017.31L539.643 1008.71C534.433 991.639 531.447 982.128 523.334 967.722C527.932 972.791 536.086 980.504 547.767 985.573L554.599 972.35C548.869 960.89 535.069 942.928 514.739 938.133L425.041 964.776Z" fill="#401945"/>
<path d="M464.932 983.81L480.359 1027.89L483.444 1026.57L467.797 982.708L464.932 983.81Z" fill="black"/>
<path d="M492.039 974.995L509.009 1018.41L511.874 1017.31L494.684 973.672L492.039 974.995Z" fill="black"/>
<path d="M500.634 898.624L513.196 894.774L526.42 934.664L514.739 938.133M500.634 898.624C482.251 864.369 471.42 844.755 461.185 803.754C459.029 763.701 461.999 747.344 464.932 714.276L415.124 623.697C405.308 628.278 402.543 633.519 401.019 646.177C379.018 714.763 349.89 815.434 350.991 828.878C352.093 842.321 389.53 893.85 410.937 926.115M500.634 898.624L410.937 926.115M410.937 926.115L401.019 929.154L415.124 967.722L425.041 964.776M425.041 964.776C433.815 991.82 439.342 1007.02 454.353 1034.5L480.359 1027.89M425.041 964.776L514.739 938.133M480.359 1027.89L464.932 983.81L467.797 982.708L483.444 1026.57M480.359 1027.89L483.444 1026.57M483.444 1026.57L509.009 1018.41M509.009 1018.41L492.039 974.995L494.684 973.672L511.874 1017.31M509.009 1018.41L511.874 1017.31M511.874 1017.31L539.643 1008.71C534.433 991.639 531.447 982.128 523.334 967.722C527.932 972.791 536.086 980.504 547.767 985.573L554.599 972.35C548.869 960.89 535.069 942.928 514.739 938.133" stroke="black" stroke-width="0.440775"/>
<path d="M699.396 841.098L714.365 838.866L712.605 829.184L699.598 827.133L692.049 837.079L695.888 842.013L677.061 883.637L678.101 936.477C680.769 953.361 682.005 962.714 690.925 982.315C713.213 1007.19 725.078 1020.27 729.919 1021.26L695.718 979.037C686.312 959.747 684.806 951.154 680.837 935.072L680.243 884.43L699.396 841.098Z" fill="#3E3030"/>
<path d="M738.116 1037.82C739.911 1032.1 749.301 1024.68 752.821 1025.88C753.055 1023.77 753.739 1022.78 755.859 1021.27C753.376 1019.52 751.163 1018.01 749.26 1016.64C741.283 1011.88 739.336 1009.48 737.745 1005.42L734.681 1006.94L739.06 1014.1C735.29 1015.79 733.32 1017.53 729.919 1021.26C728.839 1024.02 728.102 1025.03 726.764 1026.74C731.241 1030.63 733.709 1033.05 738.116 1037.82Z" fill="#3E3030"/>
<path d="M714.365 838.866L699.396 841.098L680.243 884.43L680.837 935.072C684.806 951.154 686.312 959.747 695.718 979.037L729.919 1021.26C733.32 1017.53 735.29 1015.79 739.06 1014.1L734.681 1006.94L737.745 1005.42C714.103 955.82 698.443 929.599 715.941 852.877L713.738 845.37L704.666 851.059C698.752 873.02 696.095 886.704 692.354 913.194C692.046 871.893 692.191 849.191 715.22 841.019L714.365 838.866Z" fill="#E7A220"/>
<path d="M716.752 913.81C715.806 886.462 716.384 873.176 721.815 857.621L715.22 841.019C692.191 849.191 692.046 871.893 692.354 913.194C696.095 886.704 698.752 873.02 704.666 851.059L713.738 845.37L715.941 852.877C698.443 929.599 714.103 955.82 737.745 1005.42C739.336 1009.48 741.283 1011.88 749.26 1016.64C745.777 1014.14 743.328 1012.13 742.145 1010.09L732.014 969.401L724.983 946.973L716.752 913.81Z" fill="#F4C63F"/>
<path d="M714.365 838.866L699.396 841.098L680.243 884.43L680.837 935.072C684.806 951.154 686.312 959.747 695.718 979.037L729.919 1021.26M714.365 838.866L712.605 829.184L699.598 827.133L692.049 837.079L695.888 842.013L677.061 883.637L678.101 936.477C680.769 953.361 682.005 962.714 690.925 982.315C713.213 1007.19 725.078 1020.27 729.919 1021.26M714.365 838.866L715.22 841.019M729.919 1021.26C728.839 1024.02 728.102 1025.03 726.764 1026.74C731.241 1030.63 733.709 1033.05 738.116 1037.82C739.911 1032.1 749.301 1024.68 752.821 1025.88C753.055 1023.77 753.739 1022.78 755.859 1021.27C753.376 1019.52 751.163 1018.01 749.26 1016.64M729.919 1021.26C733.32 1017.53 735.29 1015.79 739.06 1014.1L734.681 1006.94L737.745 1005.42M715.22 841.019L721.815 857.621C716.384 873.176 715.806 886.462 716.752 913.81L724.983 946.973L732.014 969.401L742.145 1010.09C743.328 1012.13 745.777 1014.14 749.26 1016.64M715.22 841.019C692.191 849.191 692.046 871.893 692.354 913.194C696.095 886.704 698.752 873.02 704.666 851.059L713.738 845.37L715.941 852.877C698.443 929.599 714.103 955.82 737.745 1005.42M737.745 1005.42C739.336 1009.48 741.283 1011.88 749.26 1016.64" stroke="black" stroke-width="0.192887"/>
<path d="M661.121 847.051L676.09 844.82L674.329 835.137L661.323 833.087L653.774 843.033L657.613 847.966L638.786 889.59L639.825 942.43C642.493 959.314 643.729 968.667 652.649 988.268C674.938 1013.14 686.803 1026.23 691.643 1027.21L657.442 984.99C648.037 965.7 646.53 957.107 642.561 941.025L641.968 890.383L661.121 847.051Z" fill="#3E3030"/>
<path d="M699.841 1043.77C701.635 1038.05 711.025 1030.64 714.546 1031.83C714.78 1029.73 715.464 1028.73 717.584 1027.22C715.1 1025.47 712.888 1023.96 710.985 1022.59C703.007 1017.83 701.06 1015.44 699.469 1011.37L696.406 1012.89L700.785 1020.05C697.014 1021.75 695.045 1023.48 691.643 1027.21C690.564 1029.98 689.827 1030.99 688.489 1032.69C692.966 1036.58 695.433 1039.01 699.841 1043.77Z" fill="#3E3030"/>
<path d="M676.09 844.82L661.121 847.051L641.968 890.383L642.561 941.025C646.53 957.107 648.037 965.7 657.442 984.99L691.643 1027.21C695.045 1023.48 697.014 1021.75 700.785 1020.05L696.406 1012.89L699.469 1011.37C675.828 961.774 660.168 935.552 677.666 858.83L675.462 851.323L666.39 857.012C660.477 878.973 657.82 892.658 654.079 919.147C653.77 877.846 653.916 855.144 676.945 846.972L676.09 844.82Z" fill="#E7A220"/>
<path d="M678.476 919.763C677.531 892.415 678.108 879.129 683.54 863.574L676.945 846.972C653.916 855.144 653.77 877.846 654.079 919.147C657.82 892.658 660.477 878.973 666.39 857.012L675.462 851.323L677.666 858.83C660.168 935.552 675.828 961.774 699.469 1011.37C701.06 1015.44 703.007 1017.83 710.985 1022.59C707.501 1020.09 705.053 1018.08 703.87 1016.05L693.739 975.354L686.708 952.926L678.476 919.763Z" fill="#F4C63F"/>
<path d="M676.09 844.82L661.121 847.051L641.968 890.383L642.561 941.025C646.53 957.107 648.037 965.7 657.442 984.99L691.643 1027.21M676.09 844.82L674.329 835.137L661.323 833.087L653.774 843.033L657.613 847.966L638.786 889.59L639.825 942.43C642.493 959.314 643.729 968.667 652.649 988.268C674.938 1013.14 686.803 1026.23 691.643 1027.21M676.09 844.82L676.945 846.972M691.643 1027.21C690.564 1029.98 689.827 1030.99 688.489 1032.69C692.966 1036.58 695.433 1039.01 699.841 1043.77C701.635 1038.05 711.025 1030.64 714.546 1031.83C714.78 1029.73 715.464 1028.73 717.584 1027.22C715.1 1025.47 712.888 1023.96 710.985 1022.59M691.643 1027.21C695.045 1023.48 697.014 1021.75 700.785 1020.05L696.406 1012.89L699.469 1011.37M676.945 846.972L683.54 863.574C678.108 879.129 677.531 892.415 678.476 919.763L686.708 952.926L693.739 975.354L703.87 1016.05C705.053 1018.08 707.501 1020.09 710.985 1022.59M676.945 846.972C653.916 855.144 653.77 877.846 654.079 919.147C657.82 892.658 660.477 878.973 666.39 857.012L675.462 851.323L677.666 858.83C660.168 935.552 675.828 961.774 699.469 1011.37M699.469 1011.37C701.06 1015.44 703.007 1017.83 710.985 1022.59" stroke="black" stroke-width="0.192887"/>
<path d="M622.332 852.34L637.301 850.109L635.54 840.426L622.534 838.376L614.985 848.322L618.824 853.255L599.997 894.879L601.036 947.719C603.704 964.603 604.94 973.956 613.86 993.557C636.149 1018.43 648.014 1031.52 652.854 1032.5L618.653 990.279C609.248 970.989 607.741 962.397 603.772 946.314L603.179 895.673L622.332 852.34Z" fill="#3E3030"/>
<path d="M661.052 1049.06C662.846 1043.34 672.236 1035.93 675.757 1037.12C675.99 1035.02 676.675 1034.02 678.795 1032.51C676.311 1030.76 674.099 1029.25 672.196 1027.88C664.218 1023.12 662.271 1020.73 660.68 1016.66L657.617 1018.18L661.996 1025.34C658.225 1027.04 656.256 1028.77 652.854 1032.5C651.774 1035.26 651.038 1036.27 649.7 1037.98C654.177 1041.87 656.644 1044.29 661.052 1049.06Z" fill="#3E3030"/>
<path d="M637.301 850.109L622.332 852.34L603.179 895.673L603.772 946.314C607.741 962.397 609.248 970.989 618.653 990.279L652.854 1032.5C656.256 1028.77 658.225 1027.04 661.996 1025.34L657.617 1018.18L660.68 1016.66C637.039 967.063 621.379 940.842 638.877 864.119L636.673 856.612L627.601 862.301C621.688 884.262 619.031 897.947 615.29 924.436C614.981 883.135 615.127 860.433 638.156 852.261L637.301 850.109Z" fill="#E7A220"/>
<path d="M639.687 925.052C638.742 897.704 639.319 884.418 644.751 868.864L638.156 852.261C615.127 860.433 614.981 883.135 615.29 924.436C619.031 897.947 621.688 884.262 627.601 862.301L636.673 856.612L638.877 864.119C621.379 940.842 637.039 967.063 660.68 1016.66C662.271 1020.73 664.218 1023.12 672.196 1027.88C668.712 1025.38 666.264 1023.37 665.081 1021.34L654.95 980.643L647.918 958.215L639.687 925.052Z" fill="#F4C63F"/>
<path d="M637.301 850.109L622.332 852.34L603.179 895.673L603.772 946.314C607.741 962.397 609.248 970.989 618.653 990.279L652.854 1032.5M637.301 850.109L635.54 840.426L622.534 838.376L614.985 848.322L618.824 853.255L599.997 894.879L601.036 947.719C603.704 964.603 604.94 973.956 613.86 993.557C636.149 1018.43 648.014 1031.52 652.854 1032.5M637.301 850.109L638.156 852.261M652.854 1032.5C651.774 1035.26 651.038 1036.27 649.7 1037.98C654.177 1041.87 656.644 1044.29 661.052 1049.06C662.846 1043.34 672.236 1035.93 675.757 1037.12C675.99 1035.02 676.675 1034.02 678.795 1032.51C676.311 1030.76 674.099 1029.25 672.196 1027.88M652.854 1032.5C656.256 1028.77 658.225 1027.04 661.996 1025.34L657.617 1018.18L660.68 1016.66M638.156 852.261L644.751 868.864C639.319 884.418 638.742 897.704 639.687 925.052L647.918 958.215L654.95 980.643L665.081 1021.34C666.264 1023.37 668.712 1025.38 672.196 1027.88M638.156 852.261C615.127 860.433 614.981 883.135 615.29 924.436C619.031 897.947 621.688 884.262 627.601 862.301L636.673 856.612L638.877 864.119C621.379 940.842 637.039 967.063 660.68 1016.66M660.68 1016.66C662.271 1020.73 664.218 1023.12 672.196 1027.88" stroke="black" stroke-width="0.192887"/>
</svg>
