<svg width="1764" height="1323" viewBox="0 0 1764 1323" fill="none" xmlns="http://www.w3.org/2000/svg">
<path d="M981.736 742.598L1160.91 598.906L1055.14 549.563L973.581 637.033L859.2 669.747L837.172 684.414L801.59 733.342L785.061 783.59L774.792 808.32C790.609 794.393 801.955 790.307 824.9 796.221C827.124 796.795 829.457 797.462 831.914 798.223L981.736 742.598Z" fill="#211F27"/>
<path d="M831.914 798.223L981.736 742.598L1160.91 598.906L1055.14 549.563L973.581 637.033L859.2 669.747L837.172 684.414L801.59 733.342L785.061 783.59L774.792 808.32C790.609 794.393 801.955 790.307 824.9 796.221M831.914 798.223C829.457 797.462 827.124 796.795 824.9 796.221M831.914 798.223L824.9 796.221" stroke="black" stroke-width="0.440775"/>
<path d="M1120.72 258.639L1147.28 241.403L1135.53 224.497L1108.99 231.878L1103.25 257.363L1114.83 263.423L1115.11 359.001L1162.93 458.694C1182.66 488.523 1193.12 505.256 1227.11 534.833C1291.13 562.853 1325.06 577.465 1335.14 575.144L1233.39 524.435C1198.75 495.871 1188.43 480.819 1166.92 453.645L1121.85 357.751L1120.72 258.639Z" fill="#3E3030"/>
<path d="M1365.1 599.55C1363.56 587.105 1375.01 564.848 1382.74 564.063C1381.36 559.856 1381.8 557.363 1384.53 552.651C1378.28 551.482 1372.76 550.519 1367.95 549.567C1348.63 547.424 1342.85 544.556 1336.29 538.197L1331.78 543.753L1346.32 553.575C1340.62 560.08 1338.38 565.095 1335.14 575.144C1335.48 581.339 1334.95 583.901 1333.88 588.305C1345.78 591.833 1352.58 594.305 1365.1 599.55Z" fill="#3E3030"/>
<path d="M1147.28 241.403L1120.72 258.639L1121.85 357.751L1166.92 453.645C1188.43 480.819 1198.75 495.871 1233.39 524.435L1335.14 575.144C1338.38 565.095 1340.62 560.08 1346.32 553.575L1331.78 543.753L1336.29 538.197C1248.25 464.284 1195.69 427.952 1162.44 266.708L1151.73 254.328L1139.39 273.031C1147.19 319.969 1154 348.326 1169.86 402.001C1133.44 323.642 1114.02 280.296 1150.78 244.759L1147.28 241.403Z" fill="#E7A220"/>
<path d="M1216.85 382.007C1191.32 330.764 1180.89 304.97 1177.74 270.644L1150.78 244.759C1114.02 280.296 1133.44 323.642 1169.86 402.001C1154 348.326 1147.19 319.969 1139.39 273.031L1151.73 254.328L1162.44 266.708C1195.69 427.952 1248.25 464.284 1336.29 538.197C1342.85 544.556 1348.63 547.424 1367.95 549.567C1359.15 547.826 1352.74 546.125 1348.72 543.28L1294.13 474.598L1261.29 438.001L1216.85 382.007Z" fill="#F4C63F"/>
<path d="M1147.28 241.403L1120.72 258.639L1121.85 357.751L1166.92 453.645C1188.43 480.819 1198.75 495.871 1233.39 524.435L1335.14 575.144M1147.28 241.403L1135.53 224.497L1108.99 231.878L1103.25 257.363L1114.83 263.423L1115.11 359.001L1162.93 458.694C1182.66 488.523 1193.12 505.256 1227.11 534.833C1291.13 562.853 1325.06 577.465 1335.14 575.144M1147.28 241.403L1150.78 244.759M1335.14 575.144C1335.48 581.339 1334.95 583.901 1333.88 588.305C1345.78 591.833 1352.58 594.305 1365.1 599.55C1363.56 587.105 1375.01 564.848 1382.74 564.063C1381.36 559.856 1381.8 557.363 1384.53 552.651C1378.28 551.482 1372.76 550.519 1367.95 549.567M1335.14 575.144C1338.38 565.095 1340.62 560.08 1346.32 553.575L1331.78 543.753L1336.29 538.197M1150.78 244.759L1177.74 270.644C1180.89 304.97 1191.32 330.764 1216.85 382.007L1261.29 438.001L1294.13 474.598L1348.72 543.28C1352.74 546.125 1359.15 547.826 1367.95 549.567M1150.78 244.759C1114.02 280.296 1133.44 323.642 1169.86 402.001C1154 348.326 1147.19 319.969 1139.39 273.031L1151.73 254.328L1162.44 266.708C1195.69 427.952 1248.25 464.284 1336.29 538.197M1336.29 538.197C1342.85 544.556 1348.63 547.424 1367.95 549.567" stroke="black" stroke-width="0.403548"/>
<path d="M1159.22 601.327L1170.71 605.572L1201.07 521.001L1193.36 517.006L1112.55 475.148L1094.11 465.596L1042.99 547.107L1053.44 551.984L1159.22 601.327Z" fill="#461B46"/>
<path d="M1275.98 398.034L1250.81 377.589L1206.65 454.496L1232.7 466.567L1275.98 398.034Z" fill="#461B49"/>
<path d="M1302.03 428.13L1279.16 405.341L1240.71 460.61L1231.29 477.406L1255.29 482.506L1277.56 456.597L1302.03 428.13Z" fill="#461B49"/>
<path d="M1177.19 465.905L1171.26 428.273L1170.76 425.11L1185.29 385.388L1182.21 386.777L1167.89 424.499L1177.19 465.905Z" fill="black"/>
<path fill-rule="evenodd" clip-rule="evenodd" d="M1209.29 442.086L1206.65 454.496L1250.81 377.589L1209.29 442.086ZM1232.7 466.567L1240.71 460.61L1279.16 405.341L1275.98 398.034L1232.7 466.567Z" fill="black"/>
<path d="M1189.65 443.241L1193.63 435.186L1177.39 428.03L1189.65 443.241Z" fill="#461B49"/>
<path d="M1255.29 482.506L1231.29 477.406L1240.71 460.61L1232.7 466.567L1206.65 454.496L1209.29 442.086L1193.63 435.186L1189.65 443.241L1177.39 428.03L1170.76 425.11L1171.26 428.273L1175.84 429.247L1191.11 447.577L1194.79 438.671L1207.37 445.187L1203.14 457.678L1229.54 469.148L1229.24 477.999L1254.12 484.189L1255.29 482.506Z" fill="black"/>
<path d="M1255.29 482.506L1254.12 484.189L1256.65 484.726L1279.4 458.244L1277.56 456.597L1255.29 482.506Z" fill="black"/>
<path fill-rule="evenodd" clip-rule="evenodd" d="M1112.55 475.148L1136.76 437.711L1135.44 407.913L1138.04 406.737L1182.21 386.777L1167.89 424.499L1177.19 465.905L1204.63 513.218L1193.36 517.006L1112.55 475.148ZM1193.63 435.186L1209.29 442.086L1246.92 374.699L1239.33 369.065L1202.8 345.4L1201.03 349.434L1185.29 385.388L1170.76 425.11L1177.39 428.03L1193.63 435.186Z" fill="#461B49"/>
<path d="M1209.29 442.086L1250.81 377.589L1246.92 374.699L1209.29 442.086Z" fill="black"/>
<path d="M1182.21 386.777L1185.29 385.388L1201.03 349.434L1200.09 346.98L1183.74 383.61L1137.27 405.052L1138.04 406.737L1182.21 386.777Z" fill="black"/>
<path d="M679.434 773.672L636.459 760.889C641.495 770.692 645.586 778.696 649.015 786.427L691.115 804.526L707.864 802.102L714.255 821.275L736.294 798.575L745.208 828.328L762.3 793.506C756.04 794.242 752.514 794.096 746.212 791.302C755.053 776.497 762.42 767.42 777.727 750.531C755.882 759.578 745 766.041 730.344 782.487L691.115 758.244L679.434 773.672Z" fill="#C5B5A5"/>
<path d="M736.847 541.163C742.245 534.331 747.314 529.482 747.975 524.193C747.448 515.819 745.248 511.373 738.718 514.055C732.189 516.737 730.344 527.362 736.847 541.163Z" fill="black"/>
<path d="M841.418 1113.14L838.553 1182.05L1003.77 1186.02C975.923 1157.89 960.095 1143.6 915.909 1136.87V1108.14L841.418 1113.14Z" fill="black"/>
<path d="M385.659 1106.4L380.81 1135.33C351.818 1149.02 337.716 1161.09 314.033 1185.58H451.774V1161.33L468.965 1111.87L385.659 1106.4Z" fill="black"/>
<path d="M518.326 603.533C519.686 603.794 523.25 603.277 527.112 602.717C528.884 602.46 530.718 602.194 532.431 601.99L548.519 599.786L550.067 601.329H559.985C566.317 629.219 569.97 642.926 576.955 658.409L579.599 628.657C589.302 642.999 594.654 651.056 606.486 665.021C610.996 663.107 612.832 661.42 614.861 657.307C616.776 671.662 619.01 679.931 625.88 695.214C626.307 685.045 625.426 678.25 621.252 663.478C636.357 681.84 645.331 691.529 664.228 705.351C663.753 692.836 663.19 685.805 660.261 673.175C676.384 690.174 684.184 700.121 697.947 717.914L701.253 698.519L730.344 736.646C740.139 725.655 745.5 719.58 750.179 711.963C753.62 711.934 755.55 711.504 758.994 709.98C765.158 703.222 767.96 697.209 772.438 684.635C773.716 669.741 774.723 661.689 781.473 652.459C782.268 658.975 782.594 663.474 782.796 674.277C790.82 662.909 796.706 660.272 797.121 628.436L813.203 633.946C813.209 625.516 812.465 619.705 810.785 608.822L805.269 603.533C724.375 603.664 677.883 602.673 606.04 611.246L605.271 610.028L605.27 610.027C591.817 588.705 584.04 576.38 570.998 547.775C568.965 548.327 566.994 548.858 565.084 549.373C565.077 549.374 565.07 549.376 565.064 549.378C547.46 554.119 534.934 557.492 524.938 564.304C531.087 567.35 538.442 568.381 547.296 569.623C550.837 570.12 554.618 570.65 558.657 571.356C541.486 578.455 516.342 603.151 518.326 603.533Z" fill="#D2CFC9"/>
<path d="M822.9 641.439C824.519 628.511 822.557 622.293 818.933 611.246L810.785 608.822C812.465 619.705 813.209 625.516 813.203 633.946L797.121 628.436C796.706 660.272 790.82 662.909 782.796 674.277C782.594 663.474 782.268 658.975 781.473 652.459C774.723 661.689 773.716 669.741 772.438 684.635C767.96 697.209 765.158 703.222 758.994 709.98C755.55 711.504 753.62 711.934 750.179 711.963C745.5 719.58 740.139 725.655 730.344 736.646L701.253 698.519L697.947 717.914C684.184 700.121 676.384 690.174 660.261 673.175C663.19 685.805 663.753 692.836 664.228 705.351C645.331 691.529 636.357 681.84 621.252 663.478C625.426 678.25 626.307 685.045 625.88 695.214C619.01 679.931 616.776 671.662 614.861 657.307C612.832 661.42 610.996 663.107 606.486 665.021C594.654 651.056 589.302 642.999 579.599 628.657L576.955 658.409C569.97 642.926 566.317 629.219 559.985 601.329H550.067L548.519 599.786L532.431 601.99C530.971 605.301 530.484 611.492 529.669 621.836C529.66 621.946 529.652 622.057 529.643 622.169C529.617 622.491 529.592 622.817 529.566 623.147C537.449 620.893 541.619 619.291 548.519 615.654L555.792 660.613L558.714 663.016C558.715 663.016 558.716 663.017 558.717 663.018C593.311 691.459 613.59 708.132 647.252 737.087C647.256 737.013 647.26 736.938 647.264 736.865C647.27 736.763 647.275 736.662 647.281 736.562C647.291 736.371 647.302 736.182 647.312 735.995C647.325 735.739 647.339 735.486 647.352 735.238C647.355 735.181 647.358 735.125 647.361 735.069C647.362 735.061 647.362 735.054 647.362 735.047C647.669 729.311 647.871 725.536 649.015 720.117C678.755 736.459 695.491 745.242 725.71 758.244C754.377 724.756 770.779 706.644 801.302 676.922C801.365 675.071 801.401 673.327 801.436 671.667C801.436 671.664 801.436 671.661 801.436 671.658C801.642 661.814 801.787 654.922 807.032 646.288C808.949 647.012 810.26 648.558 813.203 654.222C815.767 645.808 817 643.153 818.933 641.439H822.9Z" fill="#C5B5A5"/>
<path d="M670.619 504.419C643.945 515.333 632.879 515.27 624.778 506.342C621.406 503.204 617.818 500.31 614.861 497.379C614.873 497.419 614.885 497.46 614.897 497.5C620.34 515.812 615.611 517.975 606.927 521.548C609.727 522.405 612.375 523.108 614.897 523.661C637.584 528.638 650.044 521.479 670.488 504.527C670.532 504.491 670.575 504.455 670.619 504.419Z" fill="#A4395B"/>
<path d="M601.417 447.278C596.324 456.623 594.124 461.885 591.059 471.3L601.417 470.701L617.726 469.757C626.965 472.348 639.591 473.915 652.131 475.472L652.132 475.472C661.333 476.614 668.83 477.751 676.569 479.282C680.382 480.036 684.187 480.665 687.148 481.658C683.575 480.767 679.837 480.129 676.569 479.282C648.871 472.097 632.461 465.713 601.417 447.278Z" fill="#FEBD87"/>
<path d="M838.333 538.785C833.987 541.382 828.713 542.941 820.261 544.689C816.421 554.933 820.276 559.747 825.811 566.66C825.812 566.661 825.813 566.663 825.814 566.664C825.819 566.67 825.824 566.676 825.828 566.682C826.353 567.337 826.893 568.012 827.443 568.711C832.052 568.158 834.584 566.05 838.333 538.785Z" fill="black"/>
<path d="M769.573 508.325C781.426 508.12 784.559 506.562 789.187 488.931C785.44 485.625 781.217 480.857 773.98 480.777C765.538 483.051 762.711 485.121 760.096 489.813C757.612 503.493 763.679 504.841 769.573 508.325Z" fill="#AC3131"/>
<path fill-rule="evenodd" clip-rule="evenodd" d="M676.569 479.282C680.382 480.036 684.187 480.665 687.148 481.658C683.575 480.767 679.837 480.129 676.569 479.282ZM681.322 499.298C683.851 489.686 684.106 483.661 667.362 480.492C663.367 479.437 659.848 479.083 656.955 479.282C653.081 479.547 648.96 486.598 647.699 488.49C645.858 491.251 656.114 505.004 670.488 504.527C672.445 504.462 674.479 504.133 676.569 503.477L679.368 501.016L681.322 499.298Z" fill="#AC3131"/>
<path d="M617.726 469.757L601.417 470.701C603.203 480.572 604.372 486.982 614.897 497.5C614.885 497.46 614.873 497.419 614.861 497.379C617.818 500.31 621.406 503.204 624.778 506.342C632.879 515.27 643.945 515.333 670.619 504.419L676.569 503.477C674.479 504.133 672.445 504.462 670.488 504.527C656.114 505.004 645.858 491.251 647.699 488.49C648.96 486.598 653.081 479.547 656.955 479.282C659.848 479.083 663.367 479.437 667.362 480.492C684.106 483.661 683.851 489.686 681.322 499.298L707.423 486.727L687.148 481.658C683.575 480.767 679.837 480.129 676.569 479.282C668.83 477.751 661.333 476.614 652.132 475.472L652.131 475.472C639.591 473.915 626.965 472.348 617.726 469.757Z" fill="black"/>
<path d="M704.552 516.48C700.561 525.672 708.881 531.298 719.931 541.163C721.696 529.528 723.155 522.893 713.154 514.055C709.724 511.752 707.856 513.016 704.552 516.48Z" fill="black"/>
<path d="M718.002 547.775H727.258H735.192H743.126C734.876 541.886 732.045 533.769 729.462 512.733H723.512C723.09 525.129 722.228 532.481 719.931 541.163C719.376 543.259 718.738 545.433 718.002 547.775Z" fill="#B74A5F"/>
<path d="M606.04 611.246C660.772 591.996 705.227 590.044 805.048 599.786C789.511 591.043 779.828 586.303 735.192 582.375C733.323 568.232 731.953 560.197 735.192 547.775H727.258C729.067 562.904 728.267 570.542 727.258 584.359H664.668L636.679 551.962L610.013 559.455L548.519 471.3L584.227 426.787L568.8 417.818C553.213 434.24 540.705 449.286 522.072 473.284C559.756 532.761 563.721 538.056 570.557 547.186L570.998 547.775C584.04 576.38 591.817 588.705 605.27 610.027L605.271 610.028L606.04 611.246Z" fill="#B74A5F"/>
<path d="M805.048 599.786C705.227 590.044 660.772 591.996 606.04 611.246C677.883 602.673 724.375 603.664 805.269 603.533L805.048 599.786Z" fill="black"/>
<path d="M704.552 436.699C673.814 425.727 658.862 421.736 644.723 417.962C630.095 414.058 616.337 410.385 586.866 399.454C580.19 406.05 574.303 412.02 568.8 417.818L584.227 426.787L624.778 450.363C656.145 463.472 674.705 460.633 716.018 473.284C738.044 461.246 752.056 454.363 783.677 441.548C794.076 465.434 800.356 475.584 811.303 495.543C814.308 485.203 817.155 473.028 819.814 457.416L773.313 416.424C742.669 424.112 726.789 428.505 704.552 436.699Z" fill="#FEBD87"/>
<path d="M860.52 470.639L842.448 487.388L828.636 505.46C828.286 516.736 827.198 521.405 825.412 529.065C825.313 529.488 825.213 529.921 825.11 530.364C839.826 530.655 843.027 531.638 844.283 534.111C842.347 536.009 840.45 537.52 838.333 538.785C834.584 566.05 832.052 568.158 827.443 568.711C827.836 569.212 828.234 569.725 828.636 570.254C822.947 570.335 820.073 569.4 815.413 566.287C812.551 578.023 810.714 583.402 807.258 592.072V600.447L866.977 551.962C867.328 535.298 865.817 491.459 860.52 470.639Z" fill="#B74A5F"/>
<path fill-rule="evenodd" clip-rule="evenodd" d="M805.048 592.072L788.96 555.709C773.474 528.454 766.394 517.501 755.688 503.019C746.895 499.584 735.493 494.769 716.68 487.388L707.423 486.727L681.322 499.298L679.368 501.016C678.286 502.097 677.11 503.307 676.569 503.477C674.479 504.133 672.445 504.462 670.488 504.527C650.044 521.479 637.584 528.638 614.897 523.661L636.679 551.962L664.668 584.359H727.258C728.267 570.542 729.067 562.904 727.258 547.775H718.002C718.738 545.433 719.376 543.259 719.931 541.163C708.881 531.298 700.561 525.672 704.552 516.48C707.856 513.016 709.724 511.752 713.154 514.055C723.155 522.893 721.696 529.528 719.931 541.163C722.228 532.481 723.09 525.129 723.512 512.733H729.462C732.045 533.769 734.876 541.886 743.126 547.775H735.192C731.953 560.197 733.323 568.232 735.192 582.375C779.828 586.303 789.511 591.043 805.048 599.786V592.072ZM747.975 524.193C747.314 529.482 742.245 534.331 736.847 541.163C730.344 527.362 732.189 516.737 738.718 514.055C745.248 511.373 747.448 515.819 747.975 524.193Z" fill="#FEBD87"/>
<path d="M786.101 459.84C760.895 471.027 744.444 476.777 716.68 487.388C739.994 481.158 753.064 477.734 776.405 475.588H792.052C790.276 468.046 788.872 464.865 786.101 459.84Z" fill="#FEBD87"/>
<path d="M769.573 508.325C763.679 504.841 757.612 503.493 760.096 489.813C762.711 485.121 765.538 483.051 773.98 480.777C781.217 480.857 785.44 485.625 789.187 488.931C787.715 483.361 785.283 477.621 776.405 475.588C753.064 477.734 739.994 481.158 716.68 487.388C735.493 494.769 746.895 499.584 755.688 503.019C760.286 504.815 765.714 507.115 769.573 508.325Z" fill="black"/>
<path d="M436.122 514.937L420.039 512.072L429.295 520.226C436.459 535.839 441.038 544.082 450.667 557.692L436.122 562.32L438.111 569.152C446.95 565.863 451.859 564.178 459.606 564.304L458.503 543.146L436.122 514.937Z" fill="black"/>
<path d="M436.122 466.452L396.452 442.429C368.347 474.977 360.136 491.438 370.227 514.937L392.711 560.557C400.974 567.574 405.582 571.519 413.648 578.629L461.031 591.632L459.606 564.304C451.859 564.178 446.95 565.863 438.111 569.152L436.122 562.32L416.292 543.146L403.51 512.072L396.673 501.934L436.122 466.452Z" fill="#D15F6F"/>
<path d="M454.86 473.284C447.108 473.789 442.901 473.013 436.122 466.452L396.673 501.934L403.51 512.072L416.292 543.146L436.122 562.32L450.667 557.692C441.038 544.082 436.459 535.839 429.295 520.226L420.039 512.072L436.122 514.937L458.503 543.146L454.86 473.284Z" fill="#B74A5F"/>
<path d="M563.952 999.348L576.949 971.8L530.342 967.44L504.226 964.968L497.174 990.973L563.952 999.348Z" fill="#6B304C"/>
<path d="M720.867 960.519L576.949 971.8L563.952 999.348L720.867 988.99V960.519Z" fill="#6B304C"/>
<path d="M725.71 890.477L576.001 893.375L585.109 958.136L751.28 947.116L741.53 925.518L725.71 890.477Z" fill="#6B304C"/>
<path d="M751.28 947.116L585.109 958.136L576.949 971.8L720.867 960.519L751.28 958.136V947.116Z" fill="black"/>
<path d="M716.018 473.284C674.705 460.633 656.145 463.472 624.778 450.363L584.227 426.787L548.519 471.3L610.013 559.455L636.679 551.962L614.897 523.661C612.375 523.108 609.727 522.405 606.927 521.548C615.611 517.975 620.34 515.812 614.897 497.5C604.372 486.982 603.203 480.572 601.417 470.701L591.059 471.3C594.124 461.885 596.324 456.623 601.417 447.278C632.461 465.713 648.871 472.097 676.569 479.282C680.382 480.036 684.187 480.665 687.148 481.658L707.423 486.727L716.68 487.388C744.444 476.777 760.895 471.027 786.101 459.84C788.872 464.865 790.276 468.046 792.052 475.588H776.405C785.283 477.621 787.715 483.361 789.187 488.931C784.559 506.562 781.426 508.12 769.573 508.325C765.714 507.115 760.286 504.815 755.688 503.019C766.394 517.501 773.474 528.454 788.96 555.709C792.249 546.304 795.461 538.406 798.573 530.755L798.574 530.753L798.574 530.752C803.048 519.755 807.314 509.266 811.303 495.543C800.356 475.584 794.076 465.434 783.677 441.548C752.056 454.363 738.044 461.246 716.018 473.284Z" fill="#6C5C5C"/>
<path d="M585.109 958.136L576.001 893.375L496.441 891.31L502.805 951.524L585.109 958.136Z" fill="#6B304C"/>
<path d="M576.949 971.8L585.109 958.136L502.805 951.524L504.226 964.968L530.342 967.44L576.949 971.8Z" fill="black"/>
<path d="M474.249 958.136L464.331 971.218L463.89 971.8L446.049 993.177C549.064 1038.71 611.276 1048.28 741.53 996.251L760.09 980.174L762.3 922.433L741.53 925.518L751.28 947.116V958.136L720.867 960.519V988.99L563.952 999.348L497.174 990.973L504.226 964.968L502.805 951.524L496.441 891.31L464.331 890.477L458.934 918.005L457.72 924.196C459.396 929.196 460.885 933.364 462.585 937.351C463.124 938.586 463.688 939.84 464.269 941.091C466.721 946.246 469.749 951.442 474.249 958.136Z" fill="#3F2F3D"/>
<path fill-rule="evenodd" clip-rule="evenodd" d="M636.459 760.889L679.434 773.672L691.115 758.244L730.344 782.487C745 766.041 755.882 759.578 777.727 750.531C762.42 767.42 755.053 776.497 746.212 791.302C752.514 794.096 756.04 794.242 762.3 793.506L745.208 828.328L736.294 798.575L714.255 821.275L707.864 802.102L691.115 804.526L649.015 786.427C645.586 778.696 641.495 770.692 636.459 760.889Z" fill="#D2CFC9"/>
<path d="M695.743 874.829C722.052 861.937 730.469 852.951 741.53 835.821L745.208 828.328L736.294 798.575L714.255 821.275L707.864 802.102L691.115 804.526L649.015 786.427C653.793 797.198 657.287 807.439 660.261 821.275C666.982 816.221 669.22 812.537 670.619 804.526C677.296 826.033 677.197 838.553 677.029 859.566L677.029 859.607L677.029 859.666L677.028 859.749L677.027 859.869C677.021 860.585 677.016 861.311 677.01 862.047C677.798 861.668 678.562 861.304 679.304 860.951L679.382 860.914L679.384 860.913C688.474 856.584 694.244 853.836 701.253 845.077C698.35 855.563 697.304 862.326 695.743 874.829Z" fill="#C5B5A5"/>
<path fill-rule="evenodd" clip-rule="evenodd" d="M822.9 641.439H818.933C817 643.153 815.767 645.808 813.203 654.222C810.26 648.558 808.949 647.012 807.032 646.288C801.787 654.922 801.642 661.814 801.436 671.658L801.436 671.667C801.401 673.327 801.365 675.071 801.302 676.922C770.779 706.644 754.377 724.756 725.71 758.244C695.491 745.242 678.755 736.459 649.015 720.117C647.871 725.536 647.669 729.311 647.362 735.047L647.361 735.069L647.352 735.238L647.312 735.995L647.281 736.562L647.264 736.865L647.252 737.087C613.59 708.132 593.311 691.459 558.717 663.018L558.714 663.016L555.792 660.613L548.519 615.654C541.619 619.291 537.449 620.893 529.566 623.147L529.643 622.169L529.669 621.836C530.484 611.492 530.971 605.301 532.431 601.99C530.718 602.194 528.884 602.46 527.112 602.717C523.25 603.277 519.686 603.794 518.326 603.533C516.342 603.151 541.486 578.455 558.657 571.356C554.618 570.65 550.837 570.12 547.296 569.623C538.442 568.381 531.087 567.35 524.938 564.304C534.934 557.492 547.46 554.119 565.064 549.378L565.084 549.373C566.994 548.858 568.965 548.327 570.998 547.775L570.557 547.186C563.721 538.056 559.756 532.761 522.072 473.284C540.705 449.286 553.213 434.24 568.8 417.818C574.303 412.02 580.19 406.05 586.866 399.454C616.337 410.385 630.095 414.058 644.723 417.962C658.862 421.736 673.814 425.727 704.552 436.699C726.789 428.505 742.669 424.112 773.313 416.424L819.814 457.416C817.155 473.028 814.308 485.203 811.303 495.543C807.314 509.266 803.048 519.755 798.574 530.752L798.574 530.753L798.573 530.755C795.461 538.406 792.249 546.304 788.96 555.709L805.048 592.072V599.786L805.269 603.533L810.785 608.822L818.933 611.246C820.469 609.641 821.964 608.082 823.42 606.564L823.421 606.564L823.421 606.564L823.422 606.563C843.817 585.302 856.544 572.034 866.977 551.962L807.258 600.447V592.072C810.714 583.402 812.551 578.023 815.413 566.287C820.073 569.4 822.947 570.335 828.636 570.254C828.234 569.725 827.836 569.212 827.443 568.711C826.893 568.012 826.353 567.337 825.828 566.682L825.814 566.664L825.811 566.66C820.276 559.747 816.421 554.933 820.261 544.689C828.713 542.941 833.987 541.382 838.333 538.785C840.45 537.52 842.347 536.009 844.283 534.111C843.027 531.638 839.826 530.655 825.11 530.364C825.213 529.921 825.313 529.488 825.412 529.065C827.198 521.405 828.286 516.736 828.636 505.46L842.448 487.388C841.2 483.998 840.194 481.389 839.382 479.282C837.86 475.333 837.018 473.147 836.533 470.884C835.932 468.077 835.883 465.151 835.771 458.597C835.747 457.145 835.719 455.515 835.682 453.669L833.297 451.297C753.811 372.243 703.431 322.137 584.442 284.191C512.815 336.801 482.289 379.339 436.122 466.452C442.901 473.013 447.108 473.789 454.86 473.284L458.503 543.146L459.606 564.304L461.031 591.632L413.648 578.629C405.582 571.519 400.974 567.574 392.711 560.557L370.227 514.937C368.328 517.531 367.996 519.78 370.227 526.838C378.837 543.434 384.897 556.383 396.673 582.375L463.009 608.161L464.331 629.979C456.383 632.853 452.617 635.632 450.667 648.712C447.474 673.329 451.212 715.891 455.233 761.667C460.189 818.093 465.574 879.402 458.934 918.005L464.331 890.477L496.441 891.31L576.001 893.375L725.71 890.477L741.53 925.518L762.3 922.433L760.09 980.174L741.53 996.251C611.276 1048.28 549.064 1038.71 446.049 993.177C444.209 993.463 442.379 993.737 440.559 993.999L422.696 996.674L404.832 999.348L369.791 1105.35L385.659 1106.4L468.965 1111.87L497.174 1113.73C497.174 1113.73 494.089 1096.1 510.766 1086.18C525.823 1077.23 554.521 1089.26 564.614 1093.5C565.7 1093.95 566.57 1094.32 567.185 1094.56C597.4 1106.29 597.55 1106.29 618.618 1105.72H618.621C624.559 1105.56 632.157 1105.35 642.557 1105.35C650.045 1103.47 657.577 1101.74 665.054 1100.02C696.094 1092.88 726.201 1085.95 748.343 1069.43L807.699 1083.32L809.683 1115.27L841.418 1113.14L915.909 1108.14L934.422 1106.9L923.182 1010.59L829.517 988.99L768.25 975.546V924.196L762.3 855.656L792.272 770.145L837.451 684.635L818.933 660.833L822.9 641.439ZM510.397 715.489L501.95 747.445L496.441 724.525L486.303 779.842L480.793 727.17L471.537 795.49L501.95 860.284L513.703 844.195L536.331 855.295L540.078 849.125L513.703 809.154L510.397 715.489ZM636.459 760.889L679.434 773.672L691.115 758.244L730.344 782.487C745 766.041 755.882 759.578 777.727 750.531C762.42 767.42 755.053 776.497 746.212 791.302C752.514 794.096 756.04 794.242 762.3 793.506L745.208 828.328L741.53 835.821C730.469 852.951 722.052 861.937 695.743 874.829C697.304 862.326 698.35 855.563 701.253 845.077C694.244 853.836 688.474 856.584 679.384 860.913L679.382 860.914L679.304 860.951C678.562 861.304 677.798 861.668 677.01 862.047C677.016 861.311 677.021 860.585 677.027 859.869L677.028 859.749L677.029 859.666L677.029 859.607L677.029 859.566C677.197 838.553 677.296 826.033 670.619 804.526C669.22 812.537 666.982 816.221 660.261 821.275C657.287 807.439 653.793 797.198 649.015 786.427C645.586 778.696 641.495 770.692 636.459 760.889Z" fill="#211F27"/>
<path d="M510.397 809.154V715.489L501.95 747.445L496.441 724.525L486.303 779.842L480.793 727.17L471.537 795.49L501.95 860.284L513.703 844.195L536.331 855.295L510.397 809.154Z" fill="#D2CFC9"/>
<path d="M510.397 715.489V809.154L536.331 855.295L540.078 849.125L513.703 809.154L510.397 715.489Z" fill="#D2CFC9"/>
<path d="M265.148 907.842C263.894 892.926 264.833 875.961 268.164 856.8C145.87 786.884 37.0713 727.241 28.3401 727.17C14.8971 727.06 -0.0893202 736.095 11.3703 752.404C19.4799 763.945 136.894 834.307 265.148 907.842Z" fill="#211F27"/>
<path d="M371.666 968.238C401.404 971.265 434.986 969.338 463.89 971.8L464.331 971.218C411.896 939.916 352.132 905.012 294.009 871.614C290.863 895.286 292.751 913.228 298.398 926.839C322.959 940.824 347.606 954.75 371.666 968.238Z" fill="#211F27"/>
<path d="M268.164 856.8C264.833 875.961 263.894 892.926 265.148 907.842C276.172 914.163 287.276 920.507 298.398 926.839C292.751 913.228 290.863 895.286 294.009 871.614C285.347 866.637 276.723 861.693 268.164 856.8Z" fill="#211F27"/>
<path d="M446.049 993.177L463.89 971.8C434.986 969.338 401.404 971.265 371.666 968.238C389.068 977.994 406.163 987.521 422.696 996.674L440.559 993.999L446.049 993.177Z" fill="#211F27"/>
<path d="M835.682 453.669L833.297 451.297M835.682 453.669C834.884 452.876 834.089 452.085 833.297 451.297M835.682 453.669C835.719 455.515 835.747 457.145 835.772 458.597C835.883 465.151 835.932 468.077 836.533 470.884C837.018 473.147 837.86 475.333 839.382 479.282C840.194 481.389 841.2 483.998 842.448 487.388M842.448 487.388L860.52 470.639C865.817 491.459 867.328 535.298 866.977 551.962M842.448 487.388L828.636 505.46C828.286 516.736 827.198 521.405 825.412 529.065C825.313 529.488 825.213 529.921 825.11 530.364C839.826 530.655 843.027 531.638 844.283 534.111C842.347 536.009 840.45 537.52 838.333 538.785M866.977 551.962L807.258 600.447V592.072C810.714 583.402 812.551 578.023 815.413 566.287C820.073 569.4 822.947 570.335 828.636 570.254C828.234 569.725 827.836 569.212 827.443 568.711M866.977 551.962C856.544 572.034 843.817 585.302 823.422 606.563L823.421 606.564L823.421 606.564L823.42 606.564C821.964 608.082 820.469 609.641 818.933 611.246M818.933 611.246C822.557 622.293 824.519 628.511 822.9 641.439M818.933 611.246L810.785 608.822M822.9 641.439H818.933C817 643.153 815.767 645.808 813.203 654.222C810.26 648.558 808.949 647.012 807.032 646.288C801.787 654.922 801.642 661.814 801.436 671.658M822.9 641.439L818.933 660.833L837.451 684.635L792.272 770.145L762.3 855.656L768.25 924.196V975.546L829.517 988.99L923.182 1010.59L934.422 1106.9L915.909 1108.14M647.252 737.087C613.59 708.132 593.311 691.459 558.717 663.018M647.252 737.087L647.264 736.865M647.252 737.087C647.256 737.013 647.26 736.938 647.264 736.865M555.792 660.613L548.519 615.654C541.619 619.291 537.449 620.893 529.566 623.147M555.792 660.613L558.714 663.016M555.792 660.613C556.777 661.423 557.751 662.224 558.714 663.016M529.566 623.147L529.643 622.169M529.566 623.147C529.592 622.817 529.617 622.491 529.643 622.169M532.431 601.99L548.519 599.786L550.067 601.329H559.985C566.317 629.219 569.97 642.926 576.955 658.409L579.599 628.657C589.302 642.999 594.654 651.056 606.486 665.021C610.996 663.107 612.832 661.42 614.861 657.307C616.776 671.662 619.01 679.931 625.88 695.214C626.307 685.045 625.426 678.25 621.252 663.478C636.357 681.84 645.331 691.529 664.228 705.351C663.753 692.836 663.19 685.805 660.261 673.175C676.384 690.174 684.184 700.121 697.947 717.914L701.253 698.519L730.344 736.646C740.139 725.655 745.5 719.58 750.179 711.963C753.62 711.934 755.55 711.504 758.994 709.98C765.158 703.222 767.96 697.209 772.438 684.635C773.716 669.741 774.723 661.689 781.473 652.459C782.268 658.975 782.594 663.474 782.796 674.277C790.82 662.909 796.706 660.272 797.121 628.436L813.203 633.946C813.209 625.516 812.465 619.705 810.785 608.822M532.431 601.99C530.718 602.194 528.884 602.46 527.112 602.717C523.25 603.277 519.686 603.794 518.325 603.533C516.342 603.151 541.486 578.455 558.657 571.356C554.618 570.65 550.837 570.12 547.296 569.623C538.442 568.381 531.087 567.35 524.938 564.304C534.934 557.492 547.46 554.119 565.064 549.378M532.431 601.99C530.971 605.301 530.484 611.492 529.669 621.836M570.998 547.775L570.557 547.186M570.998 547.775C570.85 547.576 570.703 547.38 570.557 547.186M570.998 547.775C584.04 576.38 591.817 588.705 605.27 610.027L605.271 610.028M570.998 547.775C568.965 548.327 566.994 548.858 565.084 549.373M788.96 555.709L805.048 592.072V599.786M788.96 555.709C773.474 528.454 766.394 517.501 755.688 503.019M788.96 555.709C792.249 546.304 795.461 538.406 798.573 530.755L798.574 530.753L798.574 530.752C803.048 519.755 807.314 509.266 811.303 495.543M805.048 599.786C705.227 590.044 660.772 591.996 606.04 611.246M805.048 599.786L805.269 603.533M805.048 599.786C789.511 591.043 779.828 586.303 735.192 582.375C733.322 568.232 731.952 560.197 735.192 547.775M606.04 611.246C677.883 602.673 724.375 603.664 805.269 603.533M606.04 611.246L605.271 610.028M606.04 611.246C605.781 610.837 605.525 610.43 605.271 610.028M805.269 603.533L810.785 608.822M436.122 466.452C482.289 379.339 512.815 336.801 584.442 284.191C703.431 322.137 753.811 372.243 833.297 451.297M436.122 466.452L396.452 442.429C368.347 474.977 360.136 491.438 370.227 514.937M436.122 466.452C442.901 473.013 447.108 473.789 454.86 473.284L458.503 543.146M436.122 466.452L396.673 501.934L403.51 512.072L416.292 543.146L436.122 562.32M370.227 514.937C368.328 517.531 367.996 519.78 370.227 526.838C378.837 543.434 384.897 556.383 396.673 582.375L463.009 608.161L464.331 629.979C456.383 632.853 452.617 635.632 450.667 648.712C447.474 673.329 451.212 715.891 455.233 761.667C460.189 818.093 465.574 879.402 458.934 918.005M370.227 514.937L392.711 560.557C400.974 567.574 405.582 571.519 413.648 578.629L461.031 591.632L459.606 564.304M457.72 924.196C459.396 929.196 460.885 933.364 462.585 937.351M457.72 924.196C458.403 927.047 460.26 932.024 462.585 937.351M457.72 924.196L458.934 918.005M457.72 924.196C458.162 922.205 458.566 920.14 458.934 918.005M474.249 958.136C469.749 951.442 466.721 946.246 464.269 941.091M474.249 958.136C471.5 955.384 467.613 948.293 464.269 941.091M474.249 958.136L464.331 971.218M463.89 971.8L446.049 993.177M463.89 971.8L464.331 971.218M463.89 971.8C434.986 969.338 401.404 971.265 371.666 968.238M446.049 993.177C549.064 1038.71 611.276 1048.28 741.53 996.251L760.09 980.174L762.3 922.433L741.53 925.518M446.049 993.177C444.209 993.463 442.379 993.737 440.559 993.999M446.049 993.177L440.559 993.999M510.397 715.489V809.154L536.331 855.295M510.397 715.489L513.703 809.154L540.078 849.125L536.331 855.295M510.397 715.489L501.95 747.445L496.441 724.525L486.303 779.842L480.793 727.17L471.537 795.49L501.95 860.284L513.703 844.195L536.331 855.295M576.001 893.375L725.71 890.477L741.53 925.518M576.001 893.375L585.109 958.136M576.001 893.375L496.441 891.31M751.28 947.116L585.109 958.136M751.28 947.116V958.136L720.867 960.519M751.28 947.116L741.53 925.518M585.109 958.136L576.949 971.8M585.109 958.136L502.805 951.524M576.949 971.8L720.867 960.519M576.949 971.8L563.952 999.348M576.949 971.8L530.342 967.44L504.226 964.968M720.867 960.519V988.99L563.952 999.348M563.952 999.348L497.174 990.973L504.226 964.968M504.226 964.968L502.805 951.524M841.418 1113.14L809.683 1115.27L807.699 1083.32L748.343 1069.43C726.201 1085.95 696.094 1092.88 665.054 1100.02C657.577 1101.74 650.045 1103.47 642.557 1105.35C632.157 1105.35 624.559 1105.56 618.621 1105.72M841.418 1113.14L838.553 1182.05L1003.77 1186.02C975.923 1157.89 960.095 1143.6 915.909 1136.87V1108.14M841.418 1113.14L915.909 1108.14M385.659 1106.4L369.791 1105.35L404.832 999.348L422.696 996.674M385.659 1106.4L380.81 1135.33C351.818 1149.02 337.716 1161.09 314.033 1185.58H451.774V1161.33L468.965 1111.87M385.659 1106.4L468.965 1111.87M468.965 1111.87L497.174 1113.73C497.174 1113.73 494.089 1096.1 510.766 1086.18C525.823 1077.23 554.521 1089.26 564.614 1093.5C565.7 1093.95 566.57 1094.32 567.185 1094.56C597.4 1106.29 597.55 1106.29 618.618 1105.72M649.015 786.427C653.793 797.198 657.287 807.439 660.261 821.275C666.982 816.221 669.22 812.537 670.619 804.526C677.296 826.033 677.197 838.553 677.029 859.566M649.015 786.427C645.586 778.696 641.495 770.692 636.459 760.889L679.434 773.672L691.115 758.244L730.344 782.487C745 766.041 755.882 759.578 777.727 750.531C762.42 767.42 755.053 776.497 746.212 791.303C752.514 794.096 756.04 794.242 762.3 793.506L745.208 828.328M649.015 786.427L691.115 804.526L707.864 802.101L714.255 821.275L736.294 798.575L745.208 828.328M745.208 828.328L741.53 835.821C730.469 852.951 722.052 861.937 695.743 874.829C697.304 862.326 698.35 855.563 701.253 845.077C694.244 853.836 688.474 856.584 679.384 860.913M568.8 417.818C553.213 434.24 540.705 449.286 522.072 473.284C559.756 532.761 563.721 538.056 570.557 547.186M568.8 417.818C574.303 412.02 580.19 406.05 586.866 399.454C616.337 410.385 630.095 414.058 644.723 417.962C658.862 421.736 673.814 425.727 704.553 436.699C726.789 428.505 742.669 424.112 773.313 416.424L819.814 457.416C817.155 473.028 814.308 485.203 811.303 495.543M568.8 417.818L584.227 426.787M811.303 495.543C800.356 475.584 794.076 465.434 783.677 441.548C752.056 454.363 738.044 461.246 716.019 473.284C674.705 460.633 656.145 463.472 624.778 450.363L584.227 426.787M584.227 426.787L548.519 471.3L610.013 559.455L636.679 551.962M636.679 551.962L664.668 584.359H727.258C728.267 570.542 729.067 562.904 727.258 547.775M636.679 551.962L614.897 523.661M727.258 547.775H718.002C718.738 545.433 719.376 543.259 719.931 541.163M727.258 547.775H735.192M735.192 547.775H743.126C734.876 541.886 732.045 533.769 729.462 512.733H723.512C723.09 525.129 722.228 532.481 719.931 541.163M719.931 541.163C708.881 531.298 700.561 525.672 704.553 516.48C707.856 513.016 709.724 511.752 713.154 514.055C723.155 522.893 721.696 529.528 719.931 541.163ZM687.148 481.658L707.423 486.727M687.148 481.658C684.187 480.665 680.382 480.036 676.569 479.282M687.148 481.658C683.575 480.767 679.837 480.129 676.569 479.282M601.417 470.701L617.726 469.757C626.965 472.348 639.591 473.915 652.131 475.472L652.132 475.472C661.333 476.614 668.83 477.751 676.569 479.282M601.417 470.701L591.059 471.3C594.124 461.885 596.324 456.623 601.417 447.278C632.461 465.713 648.871 472.097 676.569 479.282M601.417 470.701C603.203 480.572 604.372 486.982 614.897 497.5M624.778 506.342C632.879 515.27 643.945 515.333 670.619 504.419M624.778 506.342C621.405 503.204 617.818 500.31 614.861 497.379C614.873 497.419 614.885 497.46 614.897 497.5M624.778 506.342C620.786 503.054 617.546 500.147 614.897 497.5M707.423 486.727L716.68 487.388M707.423 486.727L681.322 499.298M670.619 504.419L676.569 503.477M670.619 504.419C670.575 504.455 670.532 504.491 670.488 504.527M716.68 487.388C735.493 494.769 746.895 499.584 755.688 503.019M716.68 487.388C744.444 476.777 760.895 471.027 786.101 459.84C788.872 464.865 790.276 468.046 792.052 475.588H776.405M716.68 487.388C739.994 481.158 753.064 477.734 776.405 475.588M789.187 488.931C784.559 506.562 781.426 508.12 769.573 508.325M789.187 488.931C785.44 485.625 781.217 480.857 773.98 480.777C765.538 483.051 762.711 485.121 760.096 489.813C757.611 503.493 763.679 504.841 769.573 508.325M789.187 488.931C787.715 483.361 785.283 477.621 776.405 475.588M769.573 508.325C765.714 507.115 760.286 504.815 755.688 503.019M558.714 663.016L558.717 663.018M558.714 663.016C558.715 663.016 558.716 663.017 558.717 663.018M440.559 993.999L422.696 996.674M838.333 538.785C833.987 541.382 828.713 542.941 820.261 544.689C816.421 554.933 820.276 559.747 825.811 566.66M838.333 538.785C834.584 566.05 832.052 568.158 827.443 568.711M827.443 568.711C826.893 568.012 826.353 567.337 825.829 566.682M681.322 499.298C683.851 489.686 684.106 483.661 667.362 480.492C663.367 479.437 659.848 479.083 656.955 479.282C653.081 479.547 648.96 486.598 647.699 488.49C645.858 491.251 656.114 505.004 670.488 504.527M681.322 499.298L679.368 501.016M681.322 499.298C680.915 499.489 680.167 500.218 679.368 501.016M676.569 503.477C677.11 503.307 678.286 502.097 679.368 501.016M676.569 503.477C674.479 504.133 672.445 504.462 670.488 504.527M676.569 503.477L679.368 501.016M614.897 497.5C620.34 515.812 615.611 517.975 606.927 521.548C609.727 522.405 612.375 523.108 614.897 523.661M614.897 523.661C637.584 528.638 650.044 521.479 670.488 504.527M458.503 543.146L436.122 514.937L420.039 512.072L429.295 520.226C436.459 535.839 441.038 544.082 450.667 557.692L436.122 562.32M458.503 543.146L459.606 564.304M459.606 564.304C451.859 564.178 446.95 565.863 438.111 569.152L436.122 562.32M825.811 566.66L825.814 566.664M825.811 566.66C825.812 566.661 825.813 566.663 825.814 566.664M565.064 549.378L565.084 549.373M565.064 549.378C565.07 549.376 565.077 549.374 565.084 549.373M529.669 621.836L529.643 622.169M529.669 621.836C529.66 621.946 529.652 622.057 529.643 622.169M647.362 735.047C647.669 729.311 647.871 725.536 649.015 720.117C678.755 736.459 695.491 745.242 725.71 758.244C754.377 724.756 770.779 706.644 801.302 676.922C801.365 675.071 801.401 673.327 801.436 671.666M647.362 735.047L647.361 735.069M647.362 735.047C647.362 735.054 647.362 735.061 647.361 735.069M801.436 671.658L801.436 671.666M801.436 671.658C801.436 671.661 801.436 671.664 801.436 671.666M677.029 859.566L677.029 859.607M677.029 859.566C677.029 859.58 677.029 859.594 677.029 859.607M679.384 860.913L679.382 860.914M679.384 860.913C679.383 860.913 679.383 860.914 679.382 860.914M647.361 735.069L647.352 735.238M647.361 735.069C647.358 735.125 647.355 735.181 647.352 735.238M825.814 566.664L825.829 566.682M825.814 566.664C825.819 566.67 825.824 566.676 825.829 566.682M679.382 860.914L679.304 860.951M679.382 860.914C679.356 860.926 679.33 860.939 679.304 860.951M677.029 859.607L677.029 859.666M677.029 859.607C677.029 859.627 677.029 859.647 677.029 859.666M647.312 735.995L647.352 735.238M647.312 735.995L647.281 736.562M647.312 735.995C647.302 736.182 647.291 736.371 647.281 736.562M647.312 735.995C647.325 735.739 647.339 735.486 647.352 735.238M677.029 859.666L677.028 859.749M677.029 859.666C677.028 859.694 677.028 859.721 677.028 859.749M679.304 860.951C678.562 861.304 677.798 861.668 677.01 862.047C677.016 861.311 677.021 860.585 677.027 859.869M462.585 937.351C463.124 938.586 463.688 939.84 464.269 941.091M462.585 937.351C463.121 938.609 463.678 939.849 464.269 941.091M496.441 891.31L464.331 890.477L458.934 918.005M496.441 891.31L502.805 951.524M647.281 736.562L647.264 736.865M647.281 736.562C647.275 736.662 647.27 736.763 647.264 736.865M677.028 859.749L677.027 859.869M677.028 859.749C677.028 859.789 677.027 859.829 677.027 859.869M618.618 1105.72H618.621M618.618 1105.72C618.619 1105.72 618.62 1105.72 618.621 1105.72M464.331 971.218C411.896 939.916 352.132 905.012 294.009 871.614M422.696 996.674C406.163 987.521 389.068 977.994 371.666 968.238M265.148 907.842C263.894 892.926 264.833 875.961 268.164 856.8M265.148 907.842C136.894 834.307 19.4799 763.945 11.3703 752.404C-0.08932 736.095 14.8971 727.06 28.3401 727.17C37.0713 727.241 145.87 786.884 268.164 856.8M265.148 907.842C276.172 914.163 287.276 920.507 298.398 926.839M268.164 856.8C276.723 861.693 285.347 866.637 294.009 871.614M371.666 968.238C347.606 954.75 322.959 940.824 298.398 926.839M294.009 871.614C290.863 895.286 292.751 913.228 298.398 926.839M736.847 541.163C742.245 534.331 747.314 529.482 747.975 524.193C747.448 515.819 745.248 511.373 738.718 514.055C732.189 516.737 730.344 527.362 736.847 541.163Z" stroke="black" stroke-width="0.440775"/>
<path d="M747.689 847.159L762.658 844.927L760.898 835.244L747.891 833.194L740.342 843.14L744.181 848.073L725.354 889.698L726.394 942.537C729.062 959.422 730.298 968.774 739.218 988.376C761.506 1013.25 773.371 1026.33 778.212 1027.32L744.011 985.098C734.605 965.808 733.099 957.215 729.13 941.132L728.536 890.491L747.689 847.159Z" fill="#3E3030"/>
<path d="M786.409 1043.88C788.204 1038.16 797.594 1030.75 801.114 1031.94C801.348 1029.83 802.032 1028.84 804.152 1027.33C801.668 1025.58 799.456 1024.07 797.553 1022.7C789.576 1017.94 787.629 1015.55 786.038 1011.48L782.974 1013L787.353 1020.16C783.583 1021.86 781.613 1023.59 778.212 1027.32C777.132 1030.08 776.395 1031.09 775.057 1032.8C779.534 1036.69 782.002 1039.11 786.409 1043.88Z" fill="#3E3030"/>
<path d="M762.658 844.927L747.689 847.159L728.536 890.491L729.13 941.132C733.099 957.215 734.605 965.808 744.011 985.098L778.212 1027.32C781.613 1023.59 783.583 1021.86 787.353 1020.16L782.974 1013L786.038 1011.48C762.396 961.881 746.736 935.66 764.234 858.937L762.031 851.43L752.959 857.12C747.045 879.08 744.388 892.765 740.647 919.254C740.339 877.953 740.484 855.251 763.513 847.079L762.658 844.927Z" fill="#E7A220"/>
<path d="M765.045 919.87C764.099 892.523 764.677 879.237 770.108 863.682L763.513 847.079C740.484 855.251 740.339 877.953 740.647 919.254C744.388 892.765 747.045 879.08 752.959 857.12L762.031 851.43L764.234 858.937C746.736 935.66 762.396 961.881 786.038 1011.48C787.629 1015.55 789.576 1017.94 797.553 1022.7C794.07 1020.2 791.621 1018.19 790.438 1016.16L780.307 975.461L773.276 953.034L765.045 919.87Z" fill="#F4C63F"/>
<path d="M762.658 844.927L747.689 847.159L728.536 890.491L729.13 941.132C733.099 957.215 734.605 965.808 744.011 985.098L778.212 1027.32M762.658 844.927L760.898 835.244L747.891 833.194L740.342 843.14L744.181 848.073L725.354 889.698L726.394 942.537C729.062 959.422 730.298 968.774 739.218 988.376C761.506 1013.25 773.371 1026.33 778.212 1027.32M762.658 844.927L763.513 847.079M778.212 1027.32C777.132 1030.08 776.395 1031.09 775.057 1032.8C779.534 1036.69 782.002 1039.11 786.409 1043.88C788.204 1038.16 797.594 1030.75 801.114 1031.94C801.348 1029.83 802.032 1028.84 804.152 1027.33C801.668 1025.58 799.456 1024.07 797.553 1022.7M778.212 1027.32C781.613 1023.59 783.583 1021.86 787.353 1020.16L782.974 1013L786.038 1011.48M763.513 847.079L770.108 863.682C764.677 879.237 764.099 892.523 765.045 919.87L773.276 953.034L780.307 975.461L790.438 1016.16C791.621 1018.19 794.07 1020.2 797.553 1022.7M763.513 847.079C740.484 855.251 740.339 877.953 740.647 919.254C744.388 892.765 747.045 879.08 752.959 857.12L762.031 851.43L764.234 858.937C746.736 935.66 762.396 961.881 786.038 1011.48M786.038 1011.48C787.629 1015.55 789.576 1017.94 797.553 1022.7" stroke="black" stroke-width="0.192887"/>
<path d="M709.412 853.112L724.381 850.88L722.62 841.197L709.614 839.147L702.065 849.093L705.904 854.026L687.077 895.651L688.116 948.49C690.785 965.375 692.02 974.727 700.94 994.329C723.229 1019.2 735.094 1032.29 739.934 1033.27L705.733 991.051C696.328 971.761 694.821 963.168 690.852 947.085L690.259 896.444L709.412 853.112Z" fill="#3E3030"/>
<path d="M748.132 1049.83C749.926 1044.11 759.316 1036.7 762.837 1037.89C763.071 1035.79 763.755 1034.79 765.875 1033.28C763.391 1031.53 761.179 1030.02 759.276 1028.65C751.298 1023.89 749.351 1021.5 747.76 1017.43L744.697 1018.96L749.076 1026.11C745.305 1027.81 743.336 1029.55 739.934 1033.27C738.855 1036.04 738.118 1037.05 736.78 1038.75C741.257 1042.64 743.724 1045.07 748.132 1049.83Z" fill="#3E3030"/>
<path d="M724.381 850.88L709.412 853.112L690.259 896.444L690.852 947.085C694.821 963.168 696.328 971.761 705.733 991.051L739.934 1033.27C743.336 1029.55 745.305 1027.81 749.076 1026.11L744.697 1018.96L747.76 1017.43C724.119 967.834 708.459 941.613 725.957 864.89L723.753 857.383L714.681 863.073C708.768 885.033 706.111 898.718 702.37 925.207C702.061 883.906 702.207 861.204 725.236 853.032L724.381 850.88Z" fill="#E7A220"/>
<path d="M726.767 925.823C725.822 898.476 726.399 885.19 731.831 869.635L725.236 853.032C702.207 861.204 702.061 883.906 702.37 925.207C706.111 898.718 708.768 885.033 714.681 863.073L723.753 857.383L725.957 864.89C708.459 941.613 724.119 967.834 747.76 1017.43C749.351 1021.5 751.298 1023.89 759.276 1028.65C755.792 1026.15 753.344 1024.14 752.161 1022.11L742.03 981.414L734.999 958.987L726.767 925.823Z" fill="#F4C63F"/>
<path d="M724.381 850.88L709.412 853.112L690.259 896.444L690.852 947.085C694.821 963.168 696.328 971.761 705.733 991.051L739.934 1033.27M724.381 850.88L722.62 841.197L709.614 839.147L702.065 849.093L705.904 854.026L687.077 895.651L688.116 948.49C690.785 965.375 692.02 974.727 700.94 994.329C723.229 1019.2 735.094 1032.29 739.934 1033.27M724.381 850.88L725.236 853.032M739.934 1033.27C738.855 1036.04 738.118 1037.05 736.78 1038.75C741.257 1042.64 743.724 1045.07 748.132 1049.83C749.926 1044.11 759.316 1036.7 762.837 1037.89C763.071 1035.79 763.755 1034.79 765.875 1033.28C763.391 1031.53 761.179 1030.02 759.276 1028.65M739.934 1033.27C743.336 1029.55 745.305 1027.81 749.076 1026.11L744.697 1018.96L747.76 1017.43M725.236 853.032L731.831 869.635C726.399 885.19 725.822 898.476 726.767 925.823L734.999 958.987L742.03 981.414L752.161 1022.11C753.344 1024.14 755.792 1026.15 759.276 1028.65M725.236 853.032C702.207 861.204 702.061 883.906 702.37 925.207C706.111 898.718 708.768 885.033 714.681 863.073L723.753 857.383L725.957 864.89C708.459 941.613 724.119 967.834 747.76 1017.43M747.76 1017.43C749.351 1021.5 751.298 1023.89 759.276 1028.65" stroke="black" stroke-width="0.192887"/>
<path d="M670.625 858.401L685.594 856.169L683.833 846.486L670.827 844.436L663.278 854.382L667.117 859.315L648.29 900.94L649.329 953.779C651.997 970.664 653.233 980.016 662.153 999.618C684.442 1024.49 696.307 1037.58 701.147 1038.56L666.946 996.34C657.541 977.05 656.034 968.457 652.065 952.374L651.472 901.733L670.625 858.401Z" fill="#3E3030"/>
<path d="M709.345 1055.12C711.139 1049.4 720.529 1041.99 724.05 1043.18C724.283 1041.08 724.968 1040.08 727.088 1038.57C724.604 1036.82 722.392 1035.31 720.489 1033.94C712.511 1029.18 710.564 1026.79 708.973 1022.72L705.91 1024.24L710.289 1031.4C706.518 1033.1 704.549 1034.83 701.147 1038.56C700.067 1041.32 699.331 1042.33 697.993 1044.04C702.47 1047.93 704.937 1050.35 709.345 1055.12Z" fill="#3E3030"/>
<path d="M685.594 856.169L670.625 858.401L651.472 901.733L652.065 952.374C656.034 968.457 657.541 977.05 666.946 996.34L701.147 1038.56C704.549 1034.83 706.518 1033.1 710.289 1031.4L705.91 1024.24L708.973 1022.72C685.332 973.123 669.672 946.902 687.17 870.179L684.966 862.672L675.894 868.362C669.981 890.322 667.324 904.007 663.583 930.496C663.274 889.195 663.42 866.493 686.449 858.321L685.594 856.169Z" fill="#E7A220"/>
<path d="M687.98 931.113C687.035 903.765 687.612 890.479 693.044 874.924L686.449 858.321C663.42 866.493 663.274 889.195 663.583 930.496C667.324 904.007 669.981 890.322 675.894 868.362L684.966 862.672L687.17 870.179C669.672 946.902 685.332 973.123 708.973 1022.72C710.564 1026.79 712.511 1029.18 720.489 1033.94C717.005 1031.44 714.557 1029.43 713.374 1027.4L703.243 986.703L696.211 964.276L687.98 931.113Z" fill="#F4C63F"/>
<path d="M685.594 856.169L670.625 858.401L651.472 901.733L652.065 952.374C656.034 968.457 657.541 977.05 666.946 996.34L701.147 1038.56M685.594 856.169L683.833 846.486L670.827 844.436L663.278 854.382L667.117 859.315L648.29 900.94L649.329 953.779C651.997 970.664 653.233 980.016 662.153 999.618C684.442 1024.49 696.307 1037.58 701.147 1038.56M685.594 856.169L686.449 858.321M701.147 1038.56C700.067 1041.32 699.331 1042.33 697.993 1044.04C702.47 1047.93 704.937 1050.35 709.345 1055.12C711.139 1049.4 720.529 1041.99 724.05 1043.18C724.283 1041.08 724.968 1040.08 727.088 1038.57C724.604 1036.82 722.392 1035.31 720.489 1033.94M701.147 1038.56C704.549 1034.83 706.518 1033.1 710.289 1031.4L705.91 1024.24L708.973 1022.72M686.449 858.321L693.044 874.924C687.612 890.479 687.035 903.765 687.98 931.113L696.211 964.276L703.243 986.703L713.374 1027.4C714.557 1029.43 717.005 1031.44 720.489 1033.94M686.449 858.321C663.42 866.493 663.274 889.195 663.583 930.496C667.324 904.007 669.981 890.322 675.894 868.362L684.966 862.672L687.17 870.179C669.672 946.902 685.332 973.123 708.973 1022.72M708.973 1022.72C710.564 1026.79 712.511 1029.18 720.489 1033.94" stroke="black" stroke-width="0.192887"/>
<path d="M433.895 918.873C431.034 880.103 429.117 857.779 436.443 816.16C450.765 778.693 460.131 764.958 476.26 735.942L467.6 632.935C456.77 633.127 452.112 636.791 445.572 647.734C397.576 701.443 330.019 781.563 325.558 794.292C321.096 807.021 334.338 869.322 340.771 907.504L433.895 918.873Z" fill="#211F27"/>
<path d="M442.792 962.285L446.937 920.466L433.895 918.873L340.771 907.504L330.474 906.247L327.673 947.217L337.931 948.56L430.711 960.704L442.792 962.285Z" fill="#401945"/>
<path d="M337.931 948.56C334.946 976.835 333.811 992.972 336.349 1024.18L362.796 1028.71L366.631 982.173L369.696 982.332L366.153 1028.76L392.824 1031.71L394.98 985.146L397.934 985.013L395.889 1031.87L424.753 1035.31C426.939 1017.59 428.08 1007.69 426.528 991.23C428.666 997.731 432.978 1008.09 441.587 1017.48L453.207 1008.17C452.634 995.375 447.332 973.353 430.711 960.704L337.931 948.56Z" fill="#401945"/>
<path d="M366.631 982.173L362.796 1028.71L366.153 1028.76L369.696 982.332L366.631 982.173Z" fill="black"/>
<path d="M394.98 985.146L392.824 1031.71L395.889 1031.87L397.934 985.013L394.98 985.146Z" fill="black"/>
<path d="M433.895 918.873L446.937 920.466L442.792 962.285L430.711 960.704M433.895 918.873C431.034 880.103 429.117 857.779 436.443 816.16C450.765 778.693 460.131 764.958 476.26 735.942L467.6 632.935C456.77 633.127 452.112 636.791 445.572 647.734C397.576 701.443 330.019 781.563 325.558 794.292C321.096 807.021 334.338 869.322 340.771 907.504M433.895 918.873L340.771 907.504M340.771 907.504L330.474 906.247L327.673 947.217L337.931 948.56M337.931 948.56C334.946 976.835 333.811 992.972 336.349 1024.18L362.796 1028.71M337.931 948.56L430.711 960.704M362.796 1028.71L366.631 982.173L369.696 982.332L366.153 1028.76M362.796 1028.71L366.153 1028.76M366.153 1028.76L392.824 1031.71M392.824 1031.71L394.98 985.146L397.934 985.013L395.889 1031.87M392.824 1031.71L395.889 1031.87M395.889 1031.87L424.753 1035.31C426.939 1017.59 428.08 1007.69 426.528 991.23C428.666 997.731 432.978 1008.09 441.587 1017.48L453.207 1008.17C452.634 995.375 447.332 973.353 430.711 960.704" stroke="black" stroke-width="0.440775"/>
<path fill-rule="evenodd" clip-rule="evenodd" d="M841.492 390.109C926.354 293.316 1052.15 270.663 1136.12 307.027L1127.2 260.084C1060.7 256.004 966.324 268.759 906.141 307.027C864.255 347.081 841.776 389.572 841.492 390.109Z" fill="#F4C63F"/>
<path d="M1123.3 239.588C1056.55 239.587 943.696 271.116 906.141 307.027C966.324 268.759 1060.7 256.004 1127.2 260.084L1123.3 239.588Z" fill="#3E3030"/>
<path d="M906.141 307.027C864.255 347.081 841.776 389.572 841.492 390.109C926.354 293.316 1052.15 270.663 1136.12 307.027L1127.2 260.084M906.141 307.027C943.696 271.116 1056.55 239.587 1123.3 239.588L1127.2 260.084M906.141 307.027C966.324 268.759 1060.7 256.004 1127.2 260.084" stroke="black" stroke-width="0.272444"/>
</svg>
