<svg width="811" height="843" viewBox="0 0 811 843" fill="none" xmlns="http://www.w3.org/2000/svg">
<path fill-rule="evenodd" clip-rule="evenodd" d="M592.332 184.839C352.828 -108.978 184.375 165.019 179.178 430.491C416.157 370.334 419.78 365.292 423.118 407.469C425.162 433.3 495.178 517.491 513.178 670.491C525.755 610.576 536.317 394.13 574.365 360.133C604.225 333.45 628.985 311.326 632.006 287.491C624.396 251.265 611.457 216.563 592.332 184.839Z" fill="#37CFB5"/>
<path d="M266.037 708.511C349.829 817.445 552.176 760.616 532.677 715.553C513.178 670.491 513.178 670.491 513.178 670.491C495.178 517.491 425.162 433.3 423.118 407.469C419.78 365.292 416.157 370.334 179.178 430.491C177 541.731 205.041 629.213 266.037 708.511Z" fill="#3BCBB2"/>
<path d="M342.663 309.027C306.592 303.65 294.196 296.509 279.429 279.91C277.705 271.185 277.792 264.707 280.474 259.283C281.167 257.882 282.034 256.551 283.087 255.269C286.958 250.56 293.353 246.522 302.945 242.135C306.871 240.753 310.697 239.465 314.443 238.269C315.494 237.934 316.539 237.605 317.578 237.284C334.562 232.032 349.968 228.699 365.657 227.073C366.527 226.982 367.398 226.898 368.27 226.818C378.878 225.848 389.663 225.651 401.193 226.16C413.666 226.711 427.013 228.09 441.955 230.215C448.588 231.158 455.535 232.248 462.859 233.478C467.917 234.783 472.611 236.052 476.969 237.301C500.541 244.056 514.31 250.226 522.957 258.288C524.69 259.903 526.218 261.595 527.577 263.382C530.249 266.896 532.272 270.78 533.932 275.187C516.843 301.87 488.161 310.96 393.354 313.749C389.067 325.293 386.664 326.279 382.38 313.749H374.018L354.16 310.601C351.024 329.489 345.038 322.845 342.663 309.027Z" fill="#6DB754"/>
<path d="M342.55 309.308C296.027 300.459 282.251 290.867 272 268.384C272.494 298.78 276.783 307.17 288.2 314.029C325.865 340.177 358.366 338.128 412.578 340C455.817 337.821 479.835 335.68 518.141 313.242C534.326 302.419 535.488 297.137 538 263.663C528.848 300.334 494.799 310.471 393.764 314.029C389.147 325.471 386.615 326.162 382.267 314.029C370.456 313.173 363.498 312.819 354.57 310.882C349.715 327.33 347.084 325.634 342.55 309.308Z" fill="#145A1A"/>
<path d="M273.047 269.967L278.801 279.411C277.302 270.566 278.02 263.353 281.414 257.3C286.422 248.369 297.254 241.964 315.383 236.569C328.468 232.675 345.355 229.308 366.597 225.897C379.308 225.494 391.132 225.325 402.133 225.421C416.995 225.55 430.355 226.161 442.373 227.33C455.148 228.573 466.408 230.447 476.341 233.041C498.358 238.79 513.864 248.081 524.943 261.899C528.066 265.796 530.838 270.052 533.304 274.69C535.517 271.188 536.481 268.837 537.485 263.672C529.411 246.403 523.151 239.246 508.742 231.406C507.697 247.145 495.069 240.347 498.29 225.897C477.57 217.283 465.185 214.354 442.373 210.944C440.663 230.038 428.9 227.908 430.353 209.37C400.265 206.399 382.737 205.682 351.958 210.398C348.938 224.809 346.697 226.012 341.507 213.305C285.627 225.349 276.731 239.863 273.047 269.967Z" fill="#145A1A"/>
</svg>
