<svg width="1261" height="872" viewBox="0 0 1261 872" fill="none" xmlns="http://www.w3.org/2000/svg">
<path d="M404.927 733.49L415 761L439.499 774L404.927 774L356.5 733.49L339 718.631L381.595 682.915L396.113 703.721L415 711L404.927 733.49Z" fill="#456746"/>
<path d="M505.841 707.488L500.793 715.807L509.458 735.105L527.705 768.42L506.016 754.628L441.254 711.263L455.1 677L505.841 707.488Z" fill="#456746"/>
<path fill-rule="evenodd" clip-rule="evenodd" d="M585 563L448 567.5C448 567.5 356 547.5 348.5 578C341 608.5 450.002 628.004 448 680.5L513 711.5C513 711.5 600.001 672 597 633L585 563Z" fill="black"/>
<path d="M248.721 516.748L275.979 514.602C276.815 525.178 278.098 535.232 280.015 545.176L265.763 579.034L275.243 604.569L232.03 625.03L140.683 627.147L78.9168 613.565L68.8332 592.227C90.1742 587.364 99.0637 585.715 110.235 584.358C111.025 591.136 110.966 595.428 106.434 607.25C108.481 605.995 110.744 605.206 128.491 602.748C133.425 605.354 135.681 607.321 139.421 611.109C142.764 608.685 144.224 606.647 145.124 600.516C158.216 595.336 165.825 593.316 179.886 591.326C186.778 598.388 189.105 602.963 193.573 610.997L204.566 608.287C203.231 591.333 221.879 589.041 243.364 602.928L228.64 581.956L241.344 577.267L233.422 535.933L261.976 530.92L248.721 516.748Z" fill="#2D2727"/>
<path d="M51.6858 576.056C56.2349 581.467 60.5277 585.24 68.8332 592.227L78.9168 613.565L140.683 627.147L232.03 625.03L275.243 604.569L265.763 579.034L280.015 545.176C283.919 565.426 290.455 585.223 301.213 608.058L316.51 606.854C308.854 621.939 300.485 637.492 268.28 646.613L123.43 657.091C115.065 653.427 107.572 650.333 100.563 647.364C103.262 643.889 104.093 641.443 103.03 635.182C98.8312 634.998 95.6765 634.321 85.8196 630.082C81.1055 633.976 79.8031 635.814 80.4952 638.339C67.8171 632.095 55.494 624.598 40.5418 612.436L34.9734 612.874L39.1353 594.565L20.5741 596.026L20.5017 595.94C12.3772 586.343 7.79626 580.931 2.4168 567.024C10.4759 568.102 17.7563 571.074 32.1965 577.59L51.6858 576.056Z" fill="#343F31"/>
<path d="M423 563.5L435.998 587C449.191 612.103 441.5 652.5 441.5 652.5C442.952 687.512 435 693 423 723L359 691C345.5 669 341.232 666.516 321.5 658.5C305.5 652 267.501 606.43 267.498 587C267.495 567.57 266.419 570.142 267.498 545.5L423 563.5Z" fill="#2C1D1D"/>
<path d="M1079.81 383.123C1081.32 379.361 1082.94 375.404 1084.7 371.228C1100.63 359.812 1112.35 349.111 1128.13 334.529C961.652 331.688 908.258 354.913 856.393 423.333C882.476 420.399 893.656 419.362 909.28 418.275C955.921 363.904 1038.39 415.665 1013.01 472.671C1011.51 474.398 1010.42 475.774 1009.62 476.936C1010.3 480.876 1010.89 484.525 1011.4 487.963C1013.74 503.713 1014.33 515.051 1014.05 529.786C1014 532.488 1013.92 535.304 1013.82 538.282C1056.73 631.742 949.673 646.168 924.059 617.384L868.966 616.214C904.03 650.17 925.022 668.296 991.386 680.818C1071.23 676.233 1115.38 671.656 1170.61 657.658C1138.12 635.911 1128.76 632.455 1100.8 613.681C1072.23 564.354 1070.68 553.491 1065.2 530.952L1065.49 529.097L1069.49 503.493C1069.35 496.365 1068.08 490.315 1065.31 481.842C1064.2 478.459 1062.86 474.689 1061.25 470.311C1061.26 443.366 1062.77 425.759 1079.81 383.123Z" fill="black"/>
<path d="M1145.58 318.474C994.189 316.58 908.964 317.928 841.061 430.515L856.393 423.333C908.258 354.913 961.652 331.688 1128.13 334.529C1133.39 329.666 1139.11 324.371 1145.58 318.474Z" fill="#E6EAEB"/>
<path d="M1086.46 376.211C1121.22 351.235 1130.08 339.442 1145.58 318.474C1139.11 324.371 1133.39 329.666 1128.13 334.529C1112.35 349.111 1100.63 359.812 1084.7 371.228C1082.94 375.404 1081.32 379.361 1079.81 383.123C1082.99 380.822 1084.38 379.269 1086.46 376.211Z" fill="#544E2E"/>
<path d="M856.393 423.333L841.061 430.515C846.348 431.617 850.158 431.962 857.502 432.404C876.659 427.836 888.557 426.185 909.125 423.331L910.311 423.167L909.28 418.275C893.656 419.362 882.476 420.399 856.393 423.333Z" fill="#544E2E"/>
<path d="M909.28 418.275L910.311 423.167C953.987 372.3 1024.18 410.182 1007.77 471.724L1006.71 487.523C1007.6 482.526 1006.73 481.115 1009.62 476.936C1010.42 475.774 1011.51 474.398 1013.01 472.671C1038.39 415.665 955.921 363.904 909.28 418.275Z" fill="#544E2E"/>
<path fill-rule="evenodd" clip-rule="evenodd" d="M868.966 616.214L854.892 618.043C859.166 622.302 863.024 626.34 866.706 630.194C890.697 655.303 907.225 672.602 982.821 692.263C1040.43 693.342 1078.92 691.106 1183.37 670.665C1186.47 667.026 1184.33 664.291 1170.61 657.658C1115.38 671.656 1071.23 676.233 991.386 680.818C925.022 668.296 904.03 650.17 868.966 616.214Z" fill="#E6EAEB"/>
<path d="M924.059 617.384C949.673 646.168 1056.73 631.742 1013.82 538.282C1013.92 535.304 1014 532.488 1014.05 529.786L1008.02 529.821L1007.59 540.488C1054.44 598.554 968.34 655.33 924.364 611.318C876.105 610.497 861.277 612.061 854.892 618.043L868.966 616.214L924.059 617.384Z" fill="#544E2E"/>
<path d="M1065.31 481.842C1068.08 490.315 1069.35 496.365 1069.49 503.493L1065.49 529.097C1077.94 526.617 1084.47 526.205 1094.92 527.787C1105.16 505.042 1102.01 494.39 1090.52 476.769L1065.31 481.842Z" fill="#DBBF9F"/>
<path d="M1008.02 529.821L1014.05 529.786C1014.33 515.051 1013.74 503.713 1011.4 487.963L1006.71 487.523L793.069 507.796L778.742 512.87C774.025 523.303 772.833 533.755 779.546 544.832L797.032 546.701L1008.02 529.821Z" fill="#DBBF9F"/>
<path d="M779.546 544.832C772.833 533.755 774.025 523.303 778.742 512.87L777.419 509.132C763.601 510.16 756.476 510.256 744.413 509.955C744.071 512.231 742.762 512.595 737.58 513.426C737.677 513.865 737.771 514.299 737.864 514.727C740.738 527.97 741.933 536.01 742.401 549.222C742.421 549.79 742.44 550.367 742.458 550.955C756.531 548.994 763.905 548.419 775.445 549.088C779.262 549.156 780.406 548.417 779.546 544.832Z" fill="#1C120D"/>
<path d="M688.122 553.904C682.865 551.242 679.872 549.466 670.308 520.423C659.574 521.16 648.294 521.888 636.392 522.637C646.683 551.431 650.246 556.665 654.735 556.783L688.122 553.904Z" fill="#4F3128"/>
<path d="M654.735 556.783C650.246 556.665 646.683 551.431 636.392 522.637C623.647 523.439 618.399 523.696 604.133 524.58C612.239 554.399 614.679 558.494 620.099 559.77L654.735 556.783Z" fill="#160903"/>
<path d="M620.099 559.77C614.679 558.494 612.239 554.399 604.133 524.58C601.867 524.721 591.37 525.432 589.063 525.576C580.632 532.526 580.159 540.055 589.659 562.395L620.099 559.77Z" fill="#75594D"/>
<path d="M558.208 527.524C549.805 537.693 548.749 545.246 559.218 565.02L589.659 562.395C580.159 540.055 580.632 532.526 589.063 525.576C579.169 526.191 568.894 526.837 558.208 527.524Z" fill="#140900"/>
<path d="M720.774 551.088C715.238 548.025 711.899 544.193 703.774 517.93C693.209 518.797 682.087 519.615 670.308 520.423C679.872 549.466 682.865 551.242 688.122 553.904L720.774 551.088Z" fill="#170A04"/>
<path d="M742.401 549.222C741.933 536.01 740.738 527.97 737.864 514.727C727.123 515.895 715.81 516.944 703.774 517.93C711.899 544.193 715.238 548.025 720.774 551.088L742.401 549.222Z" fill="#75594D"/>
<path d="M559.218 565.02C548.749 545.246 549.805 537.693 558.208 527.524C549.324 529.894 544.32 529.423 539.307 522.65C530.699 519.863 526.453 520.283 520.342 525.511C511.909 522.81 509.773 526.059 505.392 530.805C502.85 549.516 504.605 557.796 509.284 571.487C510.594 577.629 514.134 577.938 523.765 574.771C530.354 576.366 534.059 576.81 540.843 571.528C546.035 565.026 549.915 563.361 559.218 565.02Z" fill="#BCB3AA"/>
<path d="M591.498 329.305L646.384 265.886L696.266 329.113C693.645 340.973 695.661 343.543 701.101 345.991C699.154 351.599 698.102 356.384 696.469 369.225L648.955 367.769L645.454 367.662L594.362 338.527L591.498 329.305Z" fill="#AEBA78"/>
<path d="M648.955 367.769L696.469 369.225C695.673 377.302 692.964 381.699 690.13 384.94C694.535 390.593 696.304 399.153 699.754 412.178C698.239 430.252 698.417 438.722 699.423 452.753C696.828 460.98 694.977 464.694 692.715 469.827L684.759 461.752L666.908 459L652.746 446.482L619.467 442.15C632.98 423.003 641.201 413.38 657.556 399.202C655.054 386.125 656.389 378.597 648.955 367.769Z" fill="#456746"/>
<path d="M556.775 492.9C566.496 490.072 574.281 479.088 584.745 472.803L606.646 467.818L658.711 504.54C646.248 513.605 638.397 518.214 613.643 525.447L588.439 513.159L564.542 518.004L554.748 493.204L556.775 492.9Z" fill="#456746"/>
<path d="M591.498 329.305L594.362 338.527L645.454 367.662L648.955 367.769C656.389 378.597 655.054 386.125 657.556 399.202C641.201 413.38 632.98 423.003 619.467 442.15C605.853 441.057 598.085 441.844 588.416 444.991C586.545 445.6 584.603 446.297 582.533 447.086L582.545 447.041C585.749 434.327 587.549 427.185 592.537 418.714C600.967 410.887 605.95 404.689 615.857 386.262L609.872 385.844L592.537 418.714L568.163 387.02C570.697 371.584 577.045 364.826 577.629 359.53C578.213 354.235 584.753 347.014 591.498 329.305Z" fill="#7A3A2E"/>
<path d="M609.872 385.844L615.857 386.262C605.95 404.689 600.967 410.887 592.537 418.714L609.872 385.844Z" fill="black"/>
<path fill-rule="evenodd" clip-rule="evenodd" d="M684.759 461.752L692.715 469.827L692.28 471.214C686.394 489.951 682.957 500.891 677.176 512.848C677.199 514.787 676.862 516.999 676.257 519.5L621.309 530.494C598.742 534.213 591 540.5 593.988 555.649C593.988 559.5 606.51 560.923 617.222 560.281L664.359 556C664.26 556.345 664.161 556.692 664.062 557.041C663.069 557.814 662.108 558.564 661.177 559.291C650.494 567.626 643.683 572.941 637.693 575.747L558.386 570.201C556.542 556.438 555.518 548.724 555.306 535.402C551.935 535.212 549.676 534.621 544.971 532.674L545.495 525.192L516.045 509.099L547.657 494.268L548.67 494.116L554.748 493.204L564.542 518.004L588.439 513.159L613.643 525.447C638.397 518.214 646.248 513.605 658.711 504.54L606.646 467.818L584.745 472.803L588.416 444.991C598.085 441.844 605.853 441.057 619.467 442.15L652.746 446.482L666.908 459L684.759 461.752Z" fill="#2B2D28"/>
<path d="M518.127 242.991C521.897 240.864 508.814 249.81 568.921 211.197L571.773 210.923C571.69 211.968 571.513 213.119 571.248 214.387C569.366 223.399 563.055 238.363 554.639 263.922C543.225 270.666 532.271 282.579 510.835 307.583C507.399 303.139 505.816 300.09 499.657 284.789L496.176 284.423L496.437 281.937C484.028 271.813 481.946 268.076 478.376 262.442C492.112 257.852 500.69 253.804 518.127 242.991Z" fill="#A8B877"/>
<path d="M415.565 240.255L436.711 257.058C430.316 263.928 422.118 267.943 415.363 273.613C414.405 274.418 413.475 275.256 412.584 276.14C403.796 285.756 400.888 289.297 395.975 295.277L395.974 295.278L395.419 295.955C391.723 295.095 389.668 294.211 386.284 291.978C380.004 281.444 376.882 275.837 372.383 266.385C360.224 247.04 354.55 239.309 346.049 229.932L333.743 193.949L334.301 188.645L347.168 185.808L347.635 186.151C370.325 202.833 383.206 212.612 406.086 232.723L415.565 240.255Z" fill="#A9B779"/>
<path d="M496.437 281.937L496.176 284.423L458.312 324.183L466.796 348.704L444.45 379.538L437.489 378.806L424.529 344.262L440.332 318.272L420.336 274.136L415.363 273.613C422.118 267.943 430.316 263.928 436.711 257.058C457.488 258.021 466.831 259.134 478.376 262.442C481.946 268.076 484.028 271.813 496.437 281.937Z" fill="black"/>
<path d="M510.835 307.583C532.271 282.579 543.225 270.666 554.639 263.922C497.497 354.424 469.352 381.548 437.05 416.466C428.233 401.309 423.712 393.693 407.468 363.082C395.639 339.703 388.195 323.787 374.992 295.556L374.874 295.304C363.43 271.968 357.169 257.019 346.049 229.932C354.55 239.309 360.224 247.04 372.383 266.385C376.882 275.837 380.004 281.444 386.284 291.978C389.668 294.211 391.723 295.095 395.419 295.955L395.974 295.278L395.975 295.277C400.888 289.297 403.796 285.756 412.584 276.14C413.475 275.256 414.405 274.418 415.363 273.613L420.336 274.136L440.332 318.272L424.529 344.262L437.489 378.806L444.45 379.538L466.796 348.704L458.312 324.183L496.176 284.423L499.657 284.789C505.816 300.09 507.399 303.139 510.835 307.583Z" fill="#74543F"/>
<path d="M432.137 463.209C452.617 465.363 448.839 495.632 428.949 493.542C409.058 491.451 411.657 461.055 432.137 463.209Z" fill="black"/>
<path d="M425.552 525.864C444.945 527.902 442.856 557.345 422.468 555.202C402.08 553.059 406.158 523.826 425.552 525.864Z" fill="black"/>
<path fill-rule="evenodd" clip-rule="evenodd" d="M437.05 416.466C469.352 381.548 497.497 354.424 554.639 263.922C563.055 238.363 569.366 223.399 571.248 214.387C602.016 234.054 618.562 245.241 646.474 265.53L639.765 372.415C632.406 389.877 627.845 396.98 627.077 402.252C626.308 407.524 614.581 424.995 611.511 440.333C601.159 486.507 598.52 503.842 593.438 535.745L592.421 535.861L590.748 551.774L589.18 566.691L588.396 574.15L455.505 613.978L420.586 573.104L374.949 605.511L252.824 542.902L253.324 538.146L254.891 537.589L255.309 533.611L256.563 521.677L256.809 503.603L256.839 502.235C257.608 466.563 258.05 446.058 258.245 395.662C254.511 369.578 253.067 354.831 252.267 328.168C252.762 300.676 252.648 285.62 251.419 259.704C251.507 243.636 252.143 232.724 250.746 224.663C273.501 212.943 287.53 201.919 317.831 192.276L334.301 188.645L333.743 193.949L346.049 229.932C357.169 257.019 363.43 271.968 374.874 295.304L374.992 295.556C388.195 323.787 395.639 339.703 407.468 363.082C423.712 393.693 428.233 401.309 437.05 416.466ZM432.137 463.209C452.617 465.363 448.839 495.632 428.949 493.542C409.058 491.451 411.657 461.055 432.137 463.209ZM425.552 525.864C444.945 527.902 442.856 557.345 422.468 555.202C402.08 553.059 406.158 523.826 425.552 525.864Z" fill="#252222"/>
<path d="M709.771 61.1151C714.887 78.7945 715.921 88.3835 714.839 104.971C709.802 106.683 707.728 106.306 704.904 103.839C697.322 93.3288 696.444 92.0217 693.188 87.4069C695.593 84.8127 696.494 80.5328 698.251 73.8931L709.771 61.1151Z" fill="#2A2722"/>
<path d="M630.443 55.0962C621.481 71.1717 618.316 80.2822 615.639 96.6877C620.162 99.4891 622.268 99.5882 625.575 97.8197C635.327 89.2848 636.476 88.2087 640.686 84.4444C638.927 81.3759 639.012 77.003 638.794 70.1382L630.443 55.0962Z" fill="#2A2722"/>
<path d="M634.322 109.384C641.655 106.443 643.78 103.877 644.679 97.9835C649.466 102.824 651.75 105.75 654.353 111.667L655.514 113.309C638.231 112.783 635.1 111.758 634.322 109.384Z" fill="#A4A971"/>
<path d="M701.313 104.436C701.789 112.052 704.071 114.896 710.827 118.101C708.092 120.625 707.482 122.442 690.616 118.818C691.068 117.786 691.503 116.835 691.936 115.949C694.263 111.192 696.561 108.271 701.313 104.436Z" fill="#A4A971"/>
<path fill-rule="evenodd" clip-rule="evenodd" d="M556.46 33.0795C561.868 34.1989 561.025 59.2646 553.573 58.4156C545.83 58.2344 528.523 55.682 521.835 54.2963C515.148 52.9106 516.791 29.0709 524.722 28.9602C532.653 28.8495 551.052 31.9601 556.46 33.0795ZM543.814 33.6516C547.841 43.7329 541.549 53.523 541.549 53.523C541.549 53.523 538.21 44.6405 543.814 33.6516Z" fill="#A4A971"/>
<path fill-rule="evenodd" clip-rule="evenodd" d="M472.503 23.5138C477.911 24.6332 477.068 49.6989 469.616 48.8499C461.873 48.6687 446.497 46.8395 439.809 45.4538C433.121 44.0681 434.765 20.2284 442.696 20.1177C450.626 20.007 467.095 22.3944 472.503 23.5138ZM461.844 24.3123C465.871 34.3936 459.58 44.1838 459.58 44.1838C459.58 44.1838 456.24 35.3012 461.844 24.3123Z" fill="#A4A971"/>
<path d="M543.814 33.6516C547.841 43.7329 541.549 53.523 541.549 53.523C541.549 53.523 538.21 44.6405 543.814 33.6516Z" fill="#D22B2B"/>
<path d="M461.844 24.3123C465.871 34.3936 459.58 44.1838 459.58 44.1838C459.58 44.1838 456.24 35.3012 461.844 24.3123Z" fill="#D22B2B"/>
<path d="M710.827 118.101L726.724 119.912L725.706 128.854L721.731 128.402C721.679 128.38 721.628 128.374 721.577 128.384L525.998 106.1L513.905 106.232L514.754 98.7806C522.429 100.658 526.455 101.512 530.154 100.535C541.432 103.435 543.481 103.394 544.064 102.12C554.723 104.486 562.339 107.408 567.91 104.837C582.286 108.428 588.113 109.386 590.762 107.441C601.922 109.85 605.873 109.693 607.992 106.384L634.322 109.384C635.1 111.758 638.231 112.783 655.514 113.309L654.353 111.667L691.936 115.949C691.503 116.835 691.068 117.786 690.616 118.818C707.482 122.442 708.092 120.625 710.827 118.101Z" fill="#2A2722"/>
<path fill-rule="evenodd" clip-rule="evenodd" d="M710.872 42.6208L720.808 43.7528C723.213 59.2673 724.644 66.9685 727.222 80.2133C730.432 96.143 728.545 104.613 726.724 119.912L710.827 118.101C704.071 114.896 701.789 112.052 701.313 104.436C696.561 108.271 694.263 111.192 691.936 115.949L654.353 111.667C651.75 105.75 649.466 102.824 644.679 97.9835C643.78 103.877 641.655 106.443 634.322 109.384L607.992 106.384C605.873 109.693 601.922 109.85 590.762 107.441L579.173 85.4876L567.91 104.837L554.761 87.7386L544.064 102.12L538.568 92.9389L530.154 100.535L524.231 86.273L514.754 98.7806L513.905 106.232L525.998 106.1L721.577 128.384C719.807 128.731 718.584 148.012 716.524 174.106C712.303 176.073 710.022 177.666 706.123 181.476L579.442 167.042L479.588 155.665C453.983 168.47 442.813 173.645 440.505 171.845C432.867 171.51 428.811 171.06 421.628 169.694L417.88 167.254C408.177 154.474 404.835 149.228 400.228 141.088L402.052 160.419C402.668 161.024 403.27 161.624 403.86 162.22L407.371 232.987C384.666 212.677 371.872 202.786 349.328 185.907L348.864 185.559C361.629 150.055 370.052 118.416 384.873 63.8531L419.661 63.2876C419.661 63.2876 422.553 55.5654 425.006 47.2899C427.458 39.0143 428.716 23.5573 432.32 18.4323C435.923 13.3073 441.614 11.9427 441.614 11.9427L481.357 16.4709L485.124 31.9971L505.989 34.3743L513.151 20.0934L566.307 26.1497C570.84 28.0318 571.923 30.8613 573.734 36.0541C574.565 53.7882 575.319 62.9779 577.595 77.256L607.402 80.6521C612.028 62.081 617.046 51.755 627.412 33.1117L638.341 34.357L650.17 49.7952L696.868 55.1158L710.872 42.6208ZM615.639 96.6877C618.316 80.2822 621.481 71.1717 630.443 55.0962L638.794 70.1382C639.012 77.003 638.927 81.3759 640.686 84.4444C636.476 88.2087 635.327 89.2848 625.575 97.8197C622.268 99.5882 620.162 99.4891 615.639 96.6877ZM714.839 104.971C715.921 88.3835 714.887 78.7945 709.771 61.1151L698.251 73.8931C696.494 80.5328 695.593 84.8127 693.188 87.4069C696.444 92.0217 697.322 93.3288 704.904 103.839C707.728 106.306 709.802 106.683 714.839 104.971ZM553.573 58.4156C561.025 59.2646 561.868 34.1989 556.46 33.0795C551.052 31.9601 532.653 28.8495 524.722 28.9602C516.791 29.0709 515.148 52.9106 521.835 54.2963C528.523 55.682 545.83 58.2344 553.573 58.4156ZM469.616 48.8499C477.068 49.6989 477.911 24.6332 472.503 23.5138C467.095 22.3944 450.626 20.007 442.696 20.1177C434.765 20.2284 433.121 44.0681 439.809 45.4538C446.497 46.8395 461.873 48.6687 469.616 48.8499Z" fill="#426640"/>
<path d="M579.173 85.4876L590.762 107.441C588.113 109.386 582.286 108.428 567.91 104.837L579.173 85.4876Z" fill="#A4A971"/>
<path d="M554.761 87.7386L567.91 104.837C562.339 107.408 554.723 104.486 544.064 102.12L554.761 87.7386Z" fill="#A4A971"/>
<path d="M538.568 92.9389L544.064 102.12C543.481 103.394 541.432 103.435 530.154 100.535L538.568 92.9389Z" fill="#A4A971"/>
<path d="M524.231 86.273L530.154 100.535C526.455 101.512 522.429 100.658 514.754 98.7806L524.231 86.273Z" fill="#A4A971"/>
<path d="M364.467 75.1155C371.079 70.3218 375.728 67.9106 384.873 63.8531C370.052 118.416 361.629 150.055 348.864 185.559L335.973 188.284L319.472 191.772C320.227 184.572 320 180.23 317.265 171.391C325.24 166.891 330.991 164.261 343.802 159.317C338.207 150.795 335.267 145.873 331.886 135.817C339.507 130.061 344.473 126.529 358.052 118.166L349.802 106.658C355.691 102.169 359.724 99.5463 368.277 94.6726C366.552 87.1053 365.938 82.8472 364.467 75.1155Z" fill="#2D2727"/>
<path d="M579.442 167.042L554.433 205.458C548.758 208.282 543.243 209.133 535.869 209.382C538.101 220.707 515.529 246.326 519.318 244.232C501.787 254.892 493.174 258.865 479.398 263.336C467.882 259.927 458.55 258.732 437.782 257.588L416.784 240.602C423.828 229.743 427.83 219.592 433.959 202.803C422.481 184.774 415.797 174.295 403.86 162.22C403.27 161.624 402.668 161.024 402.052 160.419L400.228 141.088C404.835 149.228 408.177 154.474 417.88 167.254L421.628 169.694C428.811 171.06 432.867 171.51 440.505 171.845C442.813 173.645 453.983 168.47 479.588 155.665L579.442 167.042Z" fill="#2D2727"/>
<path d="M433.959 202.803C427.83 219.592 423.828 229.743 416.784 240.602L407.371 232.987L403.86 162.22C415.797 174.295 422.481 184.774 433.959 202.803Z" fill="#714133"/>
<path d="M519.318 244.232C515.529 246.326 538.101 220.707 535.869 209.382C543.243 209.133 548.758 208.282 554.433 205.458C561.54 207.973 564.989 209.557 570.757 212.35C510.316 250.437 523.106 242.138 519.318 244.232Z" fill="#714133"/>
<path d="M285.46 533.758C287.135 532.44 288.591 532.036 292.846 532.456C300.271 540.627 305.928 544.468 315.7 551.104L316.49 551.642C306.331 556.531 300.608 559.05 289.888 558.871C286.118 550.07 284.036 545.119 285.46 533.758Z" fill="black"/>
<path d="M251.731 224.416L256.162 223.634C259.727 230.998 262.414 242.344 266.759 257.814C275.084 282.387 279.343 296.829 286.445 323.391C266.416 347.478 253.752 359.01 227.409 374.418L224.339 371.405L182.485 378.785C181.271 377.894 180.695 377.876 174.87 355.758L177.623 351.211C177.253 341.394 174.166 333.925 176.699 331.573C193.118 306.959 202.116 292.877 215.607 264.295C224.715 253.307 231.989 247.294 251.731 224.416Z" fill="#AFBE7B"/>
<path d="M300.476 443.276C299.404 442.097 298.484 441.928 295.784 442.58C286.136 443.446 278.035 444.223 270.821 444.979C257.793 421.454 249.281 409.533 220.685 402.513L225.902 380.269L227.409 374.418C253.752 359.01 266.416 347.478 286.445 323.391C294.563 348.802 300.017 362.579 310.795 386.624C299.157 400.482 295.106 400.799 287.505 410.024L271.897 384.851C269.399 385.643 268.543 386.693 267.58 389.167C278.141 399.338 283.727 407.109 293.569 421.647C296.858 428.677 298.788 434.763 300.476 443.276Z" fill="#7A3A2E"/>
<path d="M267.58 389.167C268.543 386.693 269.399 385.643 271.897 384.851L287.505 410.024C289.955 414.41 291.931 418.146 293.569 421.647C283.727 407.109 278.141 399.338 267.58 389.167Z" fill="black"/>
<path d="M183.7 385.679C184.909 382.319 184.56 380.845 182.485 378.785L224.339 371.405L227.409 374.418L225.902 380.269L220.685 402.513C249.281 409.533 257.793 421.454 270.821 444.979C253.172 446.83 240.839 448.554 224.183 451.144C216.918 462.155 210.032 466.143 197.012 472.69C190.76 459.305 185.189 449.708 169.039 426.343C172.848 412.846 175.726 404.351 183.7 385.679Z" fill="#456746"/>
<path fill-rule="evenodd" clip-rule="evenodd" d="M237.753 556.894C233.8 552.192 226.199 538.082 197.012 472.69C210.032 466.143 216.918 462.155 224.183 451.144C240.839 448.554 253.172 446.83 270.821 444.979C278.035 444.223 286.136 443.446 295.784 442.58L301.863 468.417C299.127 466.149 293.094 466.226 274.984 468.587C271.069 474.343 267.074 479.439 241.728 507.453C241.871 510.053 245.919 512.469 291.717 526.055C300.515 518.085 304.825 512.895 310.808 501.872C324.823 508.422 327.725 509.283 332.675 510.709C333.617 503.31 334.826 498.868 338.239 490.435L339.168 490.779L373.544 503.503L345.997 520.038L346.692 523.977L345.339 524.944L336.321 531.39L340.575 564.15L265.237 577.434C253.48 571.961 248.16 568.851 238.881 563.295L237.753 556.894ZM292.846 532.456C288.591 532.036 287.135 532.44 285.46 533.758C284.036 545.119 286.118 550.07 289.888 558.871C300.608 559.05 306.331 556.531 316.49 551.642L315.7 551.104C305.928 544.468 300.271 540.627 292.846 532.456Z" fill="#343F31"/>
<path d="M301.863 468.417C319.453 477.224 319.771 481.934 338.239 490.435C334.826 498.868 333.617 503.31 332.675 510.709C327.725 509.283 324.823 508.422 310.808 501.872C304.825 512.895 300.515 518.085 291.717 526.055C245.919 512.469 241.871 510.053 241.728 507.453C267.074 479.439 271.069 474.343 274.984 468.587C293.094 466.226 299.127 466.149 301.863 468.417Z" fill="#456746"/>
</svg>
