<svg width="1764" height="1323" viewBox="0 0 1764 1323" fill="none" xmlns="http://www.w3.org/2000/svg">
<g clip-path="url(#clip0_183_619)">
<path d="M776.505 517.982L689.619 305.374L612.267 392.776L672.971 495.818L671.853 614.78L679.658 640.067L716.466 688.08L755.188 727.077C759.876 717.338 771.189 703.909 783.376 683.589C784.558 681.619 785.86 679.572 787.288 677.432L776.505 517.982Z" fill="#211F27"/>
<path d="M787.288 677.432L776.505 517.982L689.619 305.374L612.267 392.776L672.971 495.818L671.853 614.78L679.658 640.067L716.466 688.08L755.188 727.077C759.876 717.338 771.189 703.909 783.376 683.589M787.288 677.432C785.86 679.572 784.558 681.619 783.376 683.589M787.288 677.432L783.376 683.589" stroke="black" stroke-width="0.440775"/>
<path d="M351.947 247.267L342.965 216.904L323.417 223.371L322.957 250.915L345.761 263.659L354.863 254.269L446.582 281.154L555.751 263.615C589.955 253.171 608.972 247.887 646.984 223.7C692.032 170.28 715.681 141.889 716.316 131.574L638.798 214.725C601.572 239.827 584.208 245.45 552.044 258.356L447.299 274.331L351.947 247.267Z" fill="#3E3030"/>
<path d="M748.229 109.77C735.857 107.717 717.767 90.4211 719.212 82.7798C714.786 82.9085 712.52 81.781 708.777 77.8281C705.883 83.4823 703.39 88.5062 701.112 92.847C693.571 110.761 689.178 115.492 681.219 119.972L685.264 125.875L698.813 114.72C703.43 122.037 707.601 125.612 716.316 131.574C722.353 133.006 724.66 134.238 728.578 136.514C735.341 126.105 739.643 120.288 748.229 109.77Z" fill="#3E3030"/>
<path d="M342.965 216.904L351.947 247.267L447.299 274.331L552.044 258.356C584.208 245.45 601.572 239.827 638.798 214.725L716.316 131.574C707.601 125.612 703.43 122.037 698.813 114.72L685.264 125.875L681.219 119.972C585.345 183.394 535.58 223.473 371.532 209.56L356.621 216.311L371.05 233.45C418.269 239.306 447.394 240.826 503.364 240.864C417.887 253.53 370.811 259.838 347.175 214.506L342.965 216.904Z" fill="#E7A220"/>
<path d="M497.536 190.139C441.153 200.06 413.459 202.733 379.652 196.008L347.175 214.506C370.811 259.838 417.887 253.53 503.364 240.864C447.394 240.826 418.269 239.306 371.05 233.45L356.621 216.311L371.532 209.56C535.58 223.473 585.345 183.394 681.219 119.972C689.178 115.492 693.571 110.761 701.112 92.847C696.942 100.793 693.492 106.45 689.624 109.494L608.264 142.331L563.847 163.429L497.536 190.139Z" fill="#F4C63F"/>
<path d="M342.965 216.904L351.947 247.267L447.299 274.331L552.044 258.356C584.208 245.45 601.572 239.827 638.798 214.725L716.316 131.574M342.965 216.904L323.417 223.371L322.957 250.915L345.761 263.659L354.863 254.269L446.582 281.154L555.751 263.615C589.955 253.171 608.972 247.887 646.984 223.7C692.032 170.28 715.681 141.889 716.316 131.574M342.965 216.904L347.175 214.506M716.316 131.574C722.353 133.006 724.66 134.238 728.578 136.514C735.341 126.105 739.643 120.288 748.229 109.77C735.857 107.717 717.767 90.4211 719.212 82.7798C714.786 82.9085 712.52 81.781 708.777 77.8281C705.883 83.4823 703.39 88.5062 701.112 92.847M716.316 131.574C707.601 125.612 703.43 122.037 698.813 114.72L685.264 125.875L681.219 119.972M347.175 214.506L379.652 196.008C413.459 202.733 441.153 200.06 497.536 190.139L563.847 163.429L608.264 142.331L689.624 109.494C693.492 106.45 696.942 100.793 701.112 92.847M347.175 214.506C370.811 259.838 417.887 253.53 503.364 240.864C447.394 240.826 418.269 239.306 371.05 233.45L356.621 216.311L371.532 209.56C535.58 223.473 585.345 183.394 681.219 119.972M681.219 119.972C689.178 115.492 693.571 110.761 701.112 92.847" stroke="black" stroke-width="0.403548"/>
<path d="M691.458 307.687L698.791 297.876L626.328 244.739L620.307 250.999L557.223 316.591L542.826 331.56L606.461 403.728L614.106 395.089L691.458 307.687Z" fill="#461B46"/>
<path d="M529.7 137.994L502.947 156.32L564.145 220.505L583.117 198.958L529.7 137.994Z" fill="#461B49"/>
<path d="M565.954 121.566L537.608 137.022L579.682 189.581L593.111 203.381L604.817 181.821L586.3 153.111L565.954 121.566Z" fill="#461B49"/>
<path d="M566.716 251.995L528.951 246.989L525.776 246.568L491.817 221.359L492.275 224.699L524.375 249.15L566.716 251.995Z" fill="black"/>
<path fill-rule="evenodd" clip-rule="evenodd" d="M552.995 214.451L564.145 220.505L502.947 156.32L552.995 214.451ZM583.117 198.958L579.682 189.581L537.608 137.022L529.7 137.994L583.117 198.958Z" fill="black"/>
<path d="M548.526 233.606L541.933 227.504L530.459 241.043L548.526 233.606Z" fill="#461B49"/>
<path d="M604.817 181.821L593.111 203.381L579.682 189.581L583.117 198.958L564.145 220.505L552.995 214.451L541.933 227.504L548.526 233.606L530.459 241.043L525.776 246.568L528.951 246.989L531.186 242.873L553.097 233.441L545.604 227.38L555.426 217.165L566.201 224.77L584.697 202.713L593.097 205.519L606.098 183.422L604.817 181.821Z" fill="black"/>
<path d="M604.817 181.821L606.098 183.422L607.332 181.148L588.403 151.811L586.3 153.111L604.817 181.821Z" fill="black"/>
<path fill-rule="evenodd" clip-rule="evenodd" d="M557.223 316.591L528.203 282.744L499.256 275.553L498.867 272.723L492.275 224.699L524.375 249.15L566.716 251.995L619.876 239.118L620.307 250.999L557.223 316.591ZM541.933 227.504L552.995 214.451L499.071 159.232L491.513 164.908L458.449 193.21L461.815 196.05L491.817 221.359L525.776 246.568L530.459 241.043L541.933 227.504Z" fill="#461B49"/>
<path d="M552.995 214.451L502.947 156.32L499.071 159.232L552.995 214.451Z" fill="black"/>
<path d="M492.275 224.699L491.817 221.359L461.815 196.05L459.193 196.261L489.672 222.339L497.033 272.981L498.867 272.723L492.275 224.699Z" fill="black"/>
<path d="M630.335 767.611L587.359 754.829C592.395 764.631 596.486 772.635 599.916 780.366L642.015 798.465L658.765 796.041L665.156 815.215L687.195 792.515L696.108 822.267L713.201 787.446C706.94 788.181 703.415 788.036 697.112 785.242C705.954 770.436 713.321 761.359 728.628 744.47C706.783 753.517 695.901 759.98 681.244 776.426L642.015 752.184L630.335 767.611Z" fill="#C5B5A5"/>
<path d="M687.748 535.102C693.145 528.27 698.214 523.422 698.875 518.133C698.348 509.759 696.149 505.313 689.619 507.995C683.089 510.677 681.244 521.302 687.748 535.102Z" fill="black"/>
<path d="M792.32 1107.08L789.455 1175.99L954.673 1179.96C926.826 1151.83 910.996 1137.54 866.81 1130.81V1102.08L792.32 1107.08Z" fill="black"/>
<path d="M336.559 1100.34L331.71 1129.27C302.718 1142.96 288.616 1155.03 264.933 1179.51H402.675V1155.27L419.865 1105.81L336.559 1100.34Z" fill="black"/>
<path d="M469.226 597.472C470.586 597.733 474.151 597.216 478.012 596.656C479.784 596.399 481.618 596.133 483.331 595.929L499.419 593.725L500.968 595.268H510.885C517.217 623.158 520.871 636.865 527.855 652.348L530.499 622.596C540.202 636.939 545.555 644.996 557.387 658.96C561.897 657.046 563.733 655.359 565.761 651.246C567.676 665.602 569.91 673.87 576.781 689.153C577.207 678.984 576.327 672.19 572.153 657.417C587.257 675.78 596.232 685.469 615.128 699.291C614.654 686.775 614.09 679.744 611.161 667.114C627.285 684.113 635.084 694.061 648.847 711.853L652.153 692.459L681.244 730.586C691.04 719.594 696.4 713.52 701.079 705.903C704.52 705.874 706.45 705.443 709.895 703.919C716.059 697.161 718.861 691.149 723.338 678.575C724.617 663.68 725.624 655.629 732.374 646.398C733.169 652.915 733.495 657.413 733.697 668.216C741.721 656.848 747.607 654.211 748.022 622.376L764.104 627.885C764.111 619.456 763.366 613.645 761.686 602.761L756.17 597.472C675.276 597.603 628.783 596.613 556.94 605.186L556.171 603.967L556.171 603.966C542.717 582.644 534.94 570.319 521.898 541.714C519.865 542.267 517.895 542.798 515.984 543.312C515.977 543.314 515.971 543.316 515.964 543.318C498.361 548.058 485.834 551.431 475.838 558.243C481.987 561.289 489.342 562.321 498.196 563.563C501.737 564.059 505.518 564.589 509.557 565.295C492.386 572.395 467.242 597.091 469.226 597.472Z" fill="#D2CFC9"/>
<path d="M773.801 635.379C775.42 622.451 773.458 616.232 769.834 605.186L761.686 602.761C763.366 613.645 764.111 619.456 764.104 627.885L748.022 622.376C747.607 654.211 741.721 656.848 733.697 668.216C733.495 657.413 733.169 652.915 732.374 646.398C725.624 655.629 724.617 663.68 723.338 678.575C718.861 691.149 716.059 697.161 709.895 703.919C706.45 705.443 704.52 705.874 701.079 705.903C696.4 713.52 691.04 719.594 681.244 730.586L652.153 692.459L648.847 711.853C635.084 694.061 627.285 684.113 611.161 667.114C614.09 679.744 614.654 686.775 615.128 699.291C596.232 685.469 587.257 675.78 572.153 657.417C576.327 672.19 577.207 678.984 576.781 689.153C569.91 673.87 567.676 665.602 565.761 651.246C563.733 655.359 561.897 657.046 557.387 658.96C545.555 644.996 540.202 636.939 530.499 622.596L527.855 652.348C520.871 636.865 517.217 623.158 510.885 595.268H500.968L499.419 593.725L483.331 595.929C481.871 599.24 481.384 605.431 480.569 615.775C480.56 615.886 480.552 615.997 480.543 616.108C480.518 616.43 480.492 616.756 480.466 617.086C488.35 614.833 492.519 613.23 499.419 609.593L506.692 654.552L509.615 656.955C509.615 656.956 509.616 656.956 509.617 656.957C544.211 685.399 564.49 702.071 598.153 731.027C598.157 730.952 598.161 730.878 598.165 730.804C598.17 730.702 598.176 730.601 598.181 730.501C598.192 730.31 598.202 730.121 598.212 729.934C598.226 729.678 598.239 729.426 598.253 729.177C598.256 729.121 598.259 729.064 598.262 729.008C598.262 729.001 598.263 728.993 598.263 728.986C598.57 723.251 598.771 719.476 599.916 714.057C629.655 730.399 646.391 739.181 676.61 752.184C705.278 718.696 721.68 700.583 752.203 670.861C752.266 669.01 752.303 667.266 752.337 665.606C752.337 665.603 752.337 665.6 752.337 665.598C752.543 655.753 752.688 648.861 757.933 640.227C759.85 640.951 761.162 642.497 764.104 648.161C766.668 639.748 767.901 637.092 769.834 635.379H773.801Z" fill="#C5B5A5"/>
<path d="M621.519 498.358C594.845 509.272 583.779 509.209 575.679 500.281C572.306 497.144 568.718 494.249 565.761 491.318C565.774 491.359 565.786 491.399 565.798 491.44C571.24 509.752 566.512 511.914 557.828 515.488C560.627 516.344 563.276 517.048 565.798 517.601C588.484 522.577 600.944 515.418 621.389 498.467C621.432 498.43 621.476 498.394 621.519 498.358Z" fill="#A4395B"/>
<path d="M552.318 441.217C547.224 450.562 545.025 455.824 541.96 465.24L552.318 464.64L568.626 463.697C577.866 466.287 590.491 467.854 603.031 469.411L603.032 469.411C612.234 470.554 619.731 471.69 627.47 473.221C631.282 473.975 635.087 474.605 638.048 475.598C634.476 474.707 630.738 474.069 627.47 473.221C599.771 466.037 583.361 459.653 552.318 441.217Z" fill="#FEBD87"/>
<path d="M789.234 532.725C784.888 535.321 779.614 536.881 771.162 538.629C767.322 548.872 771.177 553.686 776.712 560.6C776.713 560.601 776.714 560.602 776.715 560.603C776.72 560.609 776.725 560.615 776.73 560.621C777.254 561.277 777.794 561.951 778.344 562.651C782.953 562.098 785.485 559.99 789.234 532.725Z" fill="black"/>
<path d="M720.473 502.265C732.327 502.059 735.46 500.502 740.088 482.871C736.341 479.565 732.118 474.796 724.881 474.716C716.439 476.99 713.612 479.061 710.997 483.752C708.512 497.432 714.58 498.781 720.473 502.265Z" fill="#AC3131"/>
<path fill-rule="evenodd" clip-rule="evenodd" d="M627.47 473.221C631.282 473.975 635.087 474.605 638.048 475.598C634.476 474.707 630.738 474.069 627.47 473.221ZM632.222 493.238C634.752 483.625 635.006 477.6 618.263 474.432C614.268 473.377 610.748 473.023 607.855 473.221C603.982 473.487 599.861 480.537 598.599 482.43C596.759 485.191 607.014 498.944 621.389 498.467C623.346 498.402 625.38 498.073 627.47 497.416L630.269 494.955L632.222 493.238Z" fill="#AC3131"/>
<path d="M568.626 463.697L552.318 464.64C554.104 474.511 555.273 480.921 565.798 491.44C565.786 491.399 565.774 491.359 565.761 491.318C568.718 494.249 572.306 497.144 575.679 500.281C583.779 509.209 594.845 509.272 621.519 498.358L627.47 497.416C625.38 498.073 623.346 498.402 621.389 498.467C607.014 498.944 596.759 485.191 598.599 482.43C599.861 480.537 603.982 473.487 607.855 473.221C610.748 473.023 614.268 473.377 618.263 474.432C635.006 477.6 634.752 483.625 632.222 493.238L658.324 480.667L638.048 475.598C634.476 474.707 630.738 474.069 627.47 473.221C619.731 471.69 612.234 470.554 603.032 469.411L603.031 469.411C590.491 467.854 577.866 466.287 568.626 463.697Z" fill="black"/>
<path d="M655.453 510.419C651.462 519.612 659.782 525.237 670.832 535.102C672.597 523.468 674.056 516.833 664.054 507.995C660.624 505.691 658.756 506.956 655.453 510.419Z" fill="black"/>
<path d="M668.903 541.714H678.159H686.093H694.027C685.776 535.826 682.946 527.709 680.363 506.672H674.412C673.99 519.069 673.129 526.42 670.832 535.102C670.277 537.199 669.639 539.373 668.903 541.714Z" fill="#B74A5F"/>
<path d="M556.94 605.186C611.672 585.936 656.128 583.984 755.949 593.725C740.412 584.982 730.729 580.243 686.093 576.315C684.223 562.171 682.853 554.136 686.093 541.714H678.159C679.968 556.844 679.168 564.481 678.159 578.298H615.569L587.58 545.901L560.913 553.395L499.419 465.24L535.128 420.727L519.701 411.758C504.114 428.18 491.605 443.225 472.973 467.223C510.656 526.701 514.621 531.995 521.457 541.125L521.898 541.714C534.94 570.319 542.717 582.644 556.171 603.966L556.171 603.967L556.94 605.186Z" fill="#B74A5F"/>
<path d="M755.949 593.725C656.128 583.984 611.672 585.936 556.94 605.186C628.783 596.613 675.276 597.603 756.17 597.472L755.949 593.725Z" fill="black"/>
<path d="M655.453 430.639C624.714 419.667 609.763 415.676 595.624 411.902C580.996 407.997 567.238 404.325 537.766 393.393C531.091 399.99 525.204 405.959 519.701 411.758L535.128 420.727L575.679 444.303C607.045 457.412 625.606 454.572 666.919 467.223C688.945 455.185 702.957 448.302 734.578 435.487C744.977 459.373 751.257 469.524 762.204 489.482C765.209 479.143 768.056 466.967 770.715 451.355L724.214 410.363C693.569 418.052 677.69 422.444 655.453 430.639Z" fill="#FEBD87"/>
<path d="M811.421 464.578L793.349 481.328L779.537 499.4C779.187 510.675 778.099 515.344 776.313 523.004C776.215 523.428 776.114 523.86 776.011 524.303C790.728 524.594 793.929 525.577 795.185 528.05C793.248 529.949 791.351 531.46 789.234 532.725C785.485 559.99 782.953 562.098 778.344 562.651C778.737 563.151 779.136 563.665 779.537 564.194C773.848 564.274 770.974 563.339 766.314 560.227C763.452 571.963 761.615 577.341 758.16 586.012V594.387L817.878 545.901C818.229 529.237 816.719 485.398 811.421 464.578Z" fill="#B74A5F"/>
<path fill-rule="evenodd" clip-rule="evenodd" d="M755.949 586.012L739.861 549.648C724.374 522.394 717.295 511.441 706.589 496.958C697.795 493.524 686.394 488.709 667.58 481.328L658.324 480.667L632.222 493.238L630.269 494.955C629.186 496.037 628.011 497.246 627.47 497.416C625.38 498.073 623.346 498.402 621.389 498.467C600.944 515.418 588.484 522.577 565.798 517.601L587.58 545.901L615.569 578.298H678.159C679.168 564.481 679.968 556.844 678.159 541.714H668.903C669.639 539.373 670.277 537.199 670.832 535.102C659.782 525.237 651.462 519.612 655.453 510.419C658.756 506.956 660.624 505.691 664.054 507.995C674.056 516.833 672.597 523.468 670.832 535.102C673.129 526.42 673.99 519.069 674.412 506.672H680.363C682.946 527.709 685.776 535.826 694.027 541.714H686.093C682.853 554.136 684.223 562.171 686.093 576.315C730.729 580.243 740.412 584.982 755.949 593.725V586.012ZM698.875 518.133C698.214 523.422 693.145 528.27 687.748 535.102C681.244 521.302 683.089 510.677 689.619 507.995C696.149 505.313 698.348 509.759 698.875 518.133Z" fill="#FEBD87"/>
<path d="M737.002 453.78C711.796 464.966 695.345 470.717 667.58 481.328C690.895 475.097 703.965 471.674 727.305 469.527H742.953C741.177 461.986 739.773 458.805 737.002 453.78Z" fill="#FEBD87"/>
<path d="M720.473 502.265C714.58 498.781 708.512 497.432 710.997 483.752C713.612 479.061 716.439 476.99 724.881 474.716C732.118 474.796 736.341 479.565 740.088 482.871C738.616 477.3 736.184 471.561 727.305 469.527C703.965 471.674 690.895 475.097 667.58 481.328C686.394 488.709 697.795 493.524 706.589 496.958C711.187 498.754 716.614 501.054 720.473 502.265Z" fill="black"/>
<path d="M387.022 508.876L370.939 506.011L380.195 514.166C387.359 529.779 391.938 538.021 401.568 551.631L387.022 556.26L389.011 563.092C397.85 559.803 402.76 558.117 410.506 558.243L409.403 537.086L387.022 508.876Z" fill="black"/>
<path d="M387.022 460.391L347.352 436.369C319.247 468.917 311.035 485.377 321.127 508.876L343.611 554.496C351.874 561.513 356.482 565.459 364.548 572.568L411.931 585.571L410.506 558.243C402.76 558.117 397.85 559.803 389.011 563.092L387.022 556.26L367.193 537.086L354.41 506.011L347.573 495.873L387.022 460.391Z" fill="#D15F6F"/>
<path d="M405.76 467.223C398.008 467.729 393.802 466.952 387.022 460.391L347.573 495.873L354.41 506.011L367.193 537.086L387.022 556.26L401.568 551.631C391.938 538.021 387.359 529.779 380.195 514.166L370.939 506.011L387.022 508.876L409.403 537.086L405.76 467.223Z" fill="#B74A5F"/>
<path d="M414.791 965.739C334.575 958.907 218.342 985.879 248.178 846.95C278.014 708.022 88.6229 690.035 77.5988 697.528C66.5748 705.021 63.2781 719.346 77.5988 727.941C91.9196 736.536 243.335 721.109 219.748 846.95C196.513 970.918 271.025 1005.29 391.459 987.939L396.95 987.117L414.791 965.739Z" fill="#211F27"/>
<path d="M514.852 993.288L527.849 965.739L481.242 961.38L455.127 958.907L448.075 984.913L514.852 993.288Z" fill="#6B304C"/>
<path d="M671.768 954.459L527.849 965.739L514.852 993.288L671.768 982.929V954.459Z" fill="#6B304C"/>
<path d="M676.61 884.416L526.901 887.314L536.009 952.075L702.181 941.056L692.43 919.458L676.61 884.416Z" fill="#6B304C"/>
<path d="M702.181 941.056L536.009 952.075L527.849 965.739L671.768 954.459L702.181 952.075V941.056Z" fill="black"/>
<path d="M666.919 467.223C625.606 454.572 607.045 457.412 575.679 444.303L535.128 420.727L499.419 465.24L560.913 553.395L587.58 545.901L565.798 517.601C563.276 517.048 560.627 516.344 557.828 515.488C566.512 511.914 571.24 509.752 565.798 491.44C555.273 480.921 554.104 474.511 552.318 464.64L541.96 465.24C545.025 455.824 547.224 450.562 552.318 441.217C583.361 459.653 599.771 466.037 627.47 473.221C631.282 473.975 635.087 474.605 638.048 475.598L658.324 480.667L667.58 481.328C695.345 470.717 711.796 464.966 737.002 453.78C739.773 458.805 741.177 461.986 742.953 469.527H727.305C736.184 471.561 738.616 477.3 740.088 482.871C735.46 500.502 732.327 502.059 720.473 502.265C716.614 501.054 711.187 498.754 706.589 496.958C717.295 511.441 724.374 522.394 739.861 549.648C743.15 540.244 746.362 532.346 749.474 524.694L749.475 524.692L749.475 524.691C753.949 513.694 758.215 503.205 762.204 489.482C751.257 469.524 744.977 459.373 734.578 435.487C702.957 448.302 688.945 455.185 666.919 467.223Z" fill="#6C5C5C"/>
<path d="M536.009 952.075L526.901 887.314L447.341 885.249L453.706 945.464L536.009 952.075Z" fill="#6B304C"/>
<path d="M527.849 965.739L536.009 952.075L453.706 945.464L455.127 958.907L481.242 961.38L527.849 965.739Z" fill="black"/>
<path d="M425.149 952.075L414.791 965.739L396.95 987.117C499.965 1032.64 562.177 1042.22 692.43 990.19L710.991 974.114L713.201 916.372L692.43 919.458L702.181 941.056V952.075L671.768 954.459V982.929L514.852 993.288L448.075 984.913L455.127 958.907L453.706 945.464L447.341 885.249L415.232 884.416L409.834 911.945L408.62 918.135C410.297 923.135 411.786 927.304 413.486 931.291C414.025 932.526 414.589 933.78 415.17 935.03C417.621 940.186 420.65 945.381 425.149 952.075Z" fill="#3F2F3D"/>
<path fill-rule="evenodd" clip-rule="evenodd" d="M587.359 754.829L630.335 767.611L642.015 752.184L681.244 776.426C695.901 759.98 706.783 753.517 728.628 744.47C713.321 761.359 705.954 770.436 697.112 785.242C703.415 788.036 706.94 788.181 713.201 787.446L696.108 822.267L687.195 792.515L665.156 815.215L658.765 796.041L642.015 798.465L599.916 780.366C596.486 772.635 592.395 764.631 587.359 754.829Z" fill="#D2CFC9"/>
<path d="M646.644 868.769C672.953 855.876 681.369 846.89 692.43 829.76L696.108 822.267L687.195 792.515L665.156 815.215L658.765 796.041L642.015 798.465L599.916 780.366C604.694 791.137 608.187 801.378 611.161 815.215C617.883 810.161 620.12 806.477 621.519 798.465C628.197 819.972 628.097 832.493 627.93 853.506L627.93 853.547L627.929 853.606L627.929 853.688L627.928 853.809C627.922 854.524 627.916 855.25 627.911 855.986C628.699 855.608 629.463 855.244 630.204 854.891L630.282 854.854L630.285 854.852C639.374 850.524 645.144 847.776 652.153 839.016C649.251 849.502 648.204 856.266 646.644 868.769Z" fill="#C5B5A5"/>
<path fill-rule="evenodd" clip-rule="evenodd" d="M773.801 635.379H769.834C767.901 637.092 766.668 639.748 764.104 648.161C761.162 642.497 759.85 640.951 757.933 640.227C752.688 648.861 752.543 655.753 752.337 665.598L752.337 665.606C752.303 667.266 752.266 669.01 752.203 670.861C721.68 700.583 705.278 718.696 676.61 752.184C646.391 739.181 629.655 730.399 599.916 714.057C598.771 719.476 598.57 723.251 598.263 728.986L598.262 729.008L598.253 729.177L598.212 729.934L598.181 730.501L598.165 730.804L598.153 731.027C564.49 702.071 544.211 685.399 509.617 656.957L509.615 656.955L506.692 654.552L499.419 609.593C492.519 613.23 488.35 614.833 480.466 617.086L480.543 616.108L480.569 615.775C481.384 605.431 481.871 599.24 483.331 595.929C481.618 596.133 479.784 596.399 478.012 596.656C474.151 597.216 470.586 597.733 469.226 597.472C467.242 597.091 492.386 572.395 509.557 565.295C505.518 564.589 501.737 564.059 498.196 563.563C489.342 562.321 481.987 561.289 475.838 558.243C485.834 551.431 498.361 548.058 515.964 543.318L515.984 543.312C517.895 542.798 519.865 542.267 521.898 541.714L521.457 541.125C514.621 531.995 510.656 526.701 472.973 467.223C491.605 443.225 504.114 428.18 519.701 411.758C525.204 405.959 531.091 399.99 537.766 393.393C567.238 404.325 580.996 407.997 595.624 411.902C609.763 415.676 624.714 419.667 655.453 430.639C677.69 422.444 693.569 418.052 724.214 410.363L770.715 451.355C768.056 466.967 765.209 479.143 762.204 489.482C758.215 503.205 753.949 513.694 749.475 524.691L749.475 524.692L749.474 524.694C746.362 532.346 743.15 540.244 739.861 549.648L755.949 586.012V593.725L756.17 597.472L761.686 602.761L769.834 605.186C771.37 603.581 772.865 602.022 774.321 600.504L774.322 600.504L774.322 600.503L774.323 600.502C794.718 579.241 807.446 565.973 817.878 545.901L758.16 594.387V586.012C761.615 577.341 763.452 571.963 766.314 560.227C770.974 563.339 773.848 564.274 779.537 564.194C779.136 563.665 778.737 563.151 778.344 562.651C777.794 561.951 777.254 561.277 776.73 560.621L776.715 560.603L776.712 560.6C771.177 553.686 767.322 548.872 771.162 538.629C779.614 536.881 784.888 535.321 789.234 532.725C791.351 531.46 793.248 529.949 795.185 528.05C793.929 525.577 790.728 524.594 776.011 524.303C776.114 523.86 776.215 523.428 776.313 523.004C778.099 515.344 779.187 510.675 779.537 499.4L793.349 481.328C792.101 477.937 791.096 475.328 790.284 473.221C788.762 469.273 787.919 467.086 787.435 464.824C786.834 462.016 786.784 459.091 786.673 452.536C786.648 451.084 786.621 449.455 786.583 447.609L784.198 445.236C704.712 366.183 654.331 316.076 535.342 278.131C463.715 330.74 433.189 373.278 387.022 460.391C393.802 466.952 398.008 467.729 405.76 467.223L409.403 537.086L410.506 558.243L411.931 585.571L364.548 572.568C356.482 565.459 351.874 561.513 343.611 554.496L321.127 508.876C319.227 511.47 318.896 513.72 321.127 520.777C329.737 537.373 335.797 550.322 347.573 576.315L413.909 602.1L415.232 623.918C407.283 626.792 403.517 629.571 401.568 642.651C398.374 667.268 402.113 709.83 406.133 755.606C411.089 812.032 416.474 873.342 409.834 911.945L415.232 884.416L447.341 885.249L526.901 887.314L676.61 884.416L692.43 919.458L713.201 916.372L710.991 974.114L692.43 990.19C562.177 1042.22 499.965 1032.64 396.95 987.117C395.109 987.402 393.279 987.676 391.459 987.939L355.732 993.288L320.691 1099.29L336.559 1100.34L419.865 1105.81L448.075 1107.67C448.075 1107.67 444.989 1090.04 461.666 1080.12C476.723 1071.17 505.421 1083.2 515.514 1087.44C516.6 1087.89 517.47 1088.26 518.085 1088.49C548.3 1100.23 548.45 1100.23 569.519 1099.66H569.522C575.459 1099.5 583.058 1099.29 593.458 1099.29C600.945 1097.41 608.477 1095.68 615.955 1093.96C646.994 1086.82 677.102 1079.89 699.244 1063.37L758.6 1077.26L760.584 1109.21L792.32 1107.08L866.81 1102.08L885.323 1100.84L874.083 1004.53L780.419 982.929L719.151 969.486V918.135L713.201 849.595L743.173 764.085L788.353 678.575L769.834 654.773L773.801 635.379ZM461.298 709.429L452.851 741.385L447.341 718.465L437.203 773.782L431.694 721.109L422.437 789.429L452.851 854.223L464.604 838.135L487.231 849.235L490.978 843.064L464.604 803.093L461.298 709.429ZM587.359 754.829L630.335 767.611L642.015 752.184L681.244 776.426C695.901 759.98 706.783 753.517 728.628 744.47C713.321 761.359 705.954 770.436 697.112 785.242C703.415 788.036 706.94 788.181 713.201 787.446L696.108 822.267L692.43 829.76C681.369 846.89 672.953 855.876 646.644 868.769C648.204 856.266 649.251 849.502 652.153 839.016C645.144 847.776 639.374 850.524 630.285 854.852L630.282 854.854L630.204 854.891C629.463 855.244 628.699 855.608 627.911 855.986C627.916 855.25 627.922 854.524 627.928 853.809L627.929 853.688L627.929 853.606L627.93 853.547L627.93 853.506C628.097 832.493 628.197 819.972 621.519 798.465C620.12 806.477 617.883 810.161 611.161 815.215C608.187 801.378 604.694 791.137 599.916 780.366C596.486 772.635 592.395 764.631 587.359 754.829Z" fill="#211F27"/>
<path d="M461.298 803.093V709.429L452.851 741.385L447.341 718.465L437.203 773.782L431.694 721.109L422.437 789.429L452.851 854.223L464.604 838.135L487.231 849.235L461.298 803.093Z" fill="#D2CFC9"/>
<path d="M461.298 709.429V803.093L487.231 849.235L490.978 843.064L464.604 803.093L461.298 709.429Z" fill="#D2CFC9"/>
<path d="M786.583 447.609L784.198 445.236M786.583 447.609C785.785 446.815 784.99 446.024 784.198 445.236M786.583 447.609C786.621 449.455 786.648 451.084 786.673 452.536C786.784 459.091 786.834 462.016 787.435 464.824C787.919 467.086 788.762 469.273 790.284 473.221C791.096 475.328 792.101 477.937 793.349 481.328M793.349 481.328L811.421 464.578C816.719 485.398 818.229 529.237 817.878 545.901M793.349 481.328L779.537 499.4C779.187 510.675 778.099 515.344 776.313 523.004C776.215 523.428 776.114 523.86 776.011 524.303C790.728 524.594 793.929 525.577 795.185 528.05C793.248 529.949 791.351 531.46 789.234 532.725M817.878 545.901L758.16 594.387V586.012C761.615 577.341 763.452 571.963 766.314 560.227C770.974 563.339 773.848 564.274 779.537 564.194C779.136 563.665 778.737 563.151 778.344 562.651M817.878 545.901C807.446 565.973 794.718 579.241 774.323 600.502L774.322 600.503L774.322 600.504L774.321 600.504C772.865 602.022 771.37 603.581 769.834 605.186M769.834 605.186C773.458 616.232 775.42 622.451 773.801 635.379M769.834 605.186L761.686 602.761M773.801 635.379H769.834C767.901 637.092 766.668 639.748 764.104 648.161C761.162 642.497 759.85 640.951 757.933 640.227C752.688 648.861 752.543 655.753 752.337 665.598M773.801 635.379L769.834 654.773L788.353 678.575L743.173 764.085L713.201 849.595L719.151 918.135V969.486L780.419 982.929L874.083 1004.53L885.323 1100.84L866.81 1102.08M598.153 731.027C564.49 702.071 544.211 685.399 509.617 656.957M598.153 731.027L598.165 730.804M598.153 731.027C598.157 730.952 598.161 730.878 598.165 730.804M506.692 654.552L499.419 609.593C492.519 613.23 488.35 614.833 480.466 617.086M506.692 654.552L509.615 656.955M506.692 654.552C507.678 655.363 508.652 656.164 509.615 656.955M480.466 617.086L480.543 616.108M480.466 617.086C480.492 616.756 480.518 616.43 480.543 616.108M483.331 595.929L499.419 593.725L500.968 595.268H510.885C517.217 623.158 520.871 636.865 527.855 652.348L530.499 622.596C540.202 636.939 545.555 644.996 557.387 658.96C561.897 657.046 563.733 655.359 565.761 651.246C567.676 665.602 569.91 673.87 576.781 689.153C577.207 678.984 576.327 672.19 572.153 657.417C587.257 675.78 596.232 685.469 615.128 699.291C614.654 686.775 614.09 679.744 611.161 667.114C627.285 684.113 635.084 694.061 648.847 711.853L652.153 692.459L681.244 730.586C691.04 719.594 696.4 713.52 701.079 705.903C704.52 705.874 706.45 705.443 709.895 703.919C716.059 697.161 718.861 691.149 723.338 678.575C724.617 663.68 725.624 655.629 732.374 646.398C733.169 652.915 733.495 657.413 733.697 668.216C741.721 656.848 747.607 654.211 748.022 622.376L764.104 627.885C764.111 619.456 763.366 613.645 761.686 602.761M483.331 595.929C481.618 596.133 479.784 596.399 478.012 596.656C474.151 597.216 470.586 597.733 469.226 597.472C467.242 597.091 492.386 572.394 509.557 565.295C505.518 564.589 501.737 564.059 498.196 563.563C489.342 562.321 481.987 561.289 475.838 558.243C485.834 551.431 498.361 548.058 515.964 543.318M483.331 595.929C481.871 599.24 481.384 605.431 480.569 615.775M521.898 541.714L521.457 541.125M521.898 541.714C521.75 541.516 521.603 541.319 521.457 541.125M521.898 541.714C534.94 570.319 542.717 582.644 556.171 603.966L556.171 603.967M521.898 541.714C519.865 542.267 517.895 542.798 515.984 543.312M739.861 549.648L755.949 586.012V593.725M739.861 549.648C724.374 522.394 717.295 511.441 706.589 496.958M739.861 549.648C743.15 540.244 746.362 532.346 749.474 524.694L749.475 524.692L749.475 524.691C753.949 513.694 758.215 503.205 762.204 489.482M755.949 593.725C656.128 583.984 611.672 585.936 556.94 605.186M755.949 593.725L756.17 597.472M755.949 593.725C740.412 584.982 730.729 580.243 686.093 576.315C684.223 562.171 682.853 554.136 686.093 541.714M556.94 605.186C628.783 596.613 675.276 597.603 756.17 597.472M556.94 605.186L556.171 603.967M556.94 605.186C556.682 604.776 556.425 604.37 556.171 603.967M756.17 597.472L761.686 602.761M387.022 460.391C433.189 373.278 463.715 330.74 535.342 278.131C654.331 316.076 704.712 366.183 784.198 445.236M387.022 460.391L347.352 436.369C319.247 468.917 311.035 485.377 321.127 508.876M387.022 460.391C393.802 466.952 398.008 467.729 405.76 467.223L409.403 537.086M387.022 460.391L347.573 495.873L354.41 506.011L367.193 537.086L387.022 556.26M321.127 508.876C319.227 511.47 318.896 513.72 321.127 520.777C329.737 537.373 335.797 550.322 347.573 576.315L413.909 602.1L415.232 623.918C407.283 626.792 403.517 629.571 401.568 642.651C398.374 667.268 402.113 709.83 406.133 755.606C411.089 812.032 416.474 873.342 409.834 911.945M321.127 508.876L343.611 554.496C351.874 561.513 356.482 565.459 364.548 572.568L411.931 585.571L410.506 558.243M408.62 918.135C410.297 923.135 411.786 927.304 413.486 931.291M408.62 918.135C409.303 920.986 411.16 925.964 413.486 931.291M408.62 918.135L409.834 911.945M408.62 918.135C409.063 916.144 409.467 914.079 409.834 911.945M425.149 952.075L414.791 965.739M425.149 952.075C420.65 945.381 417.621 940.186 415.17 935.03M425.149 952.075C422.401 949.324 418.514 942.232 415.17 935.03M414.791 965.739C334.575 958.907 218.342 985.879 248.178 846.95C278.014 708.022 88.6229 690.035 77.5988 697.528C66.5748 705.021 63.2781 719.346 77.5988 727.941C91.9196 736.536 243.335 721.109 219.748 846.95C196.513 970.918 271.025 1005.29 391.459 987.939M414.791 965.739L396.95 987.117M396.95 987.117C499.965 1032.64 562.177 1042.22 692.43 990.19L710.991 974.114L713.201 916.372L692.43 919.458M396.95 987.117C395.109 987.402 393.279 987.676 391.459 987.939M396.95 987.117L391.459 987.939M461.298 709.429V803.093L487.231 849.235M461.298 709.429L464.604 803.093L490.978 843.064L487.231 849.235M461.298 709.429L452.851 741.385L447.341 718.465L437.203 773.782L431.694 721.109L422.437 789.429L452.851 854.223L464.604 838.135L487.231 849.235M526.901 887.314L676.61 884.416L692.43 919.458M526.901 887.314L536.009 952.075M526.901 887.314L447.341 885.249M702.181 941.056L536.009 952.075M702.181 941.056V952.075L671.768 954.459M702.181 941.056L692.43 919.458M536.009 952.075L527.849 965.739M536.009 952.075L453.706 945.463M527.849 965.739L671.768 954.459M527.849 965.739L514.852 993.288M527.849 965.739L481.242 961.38L455.127 958.907M671.768 954.459V982.929L514.852 993.288M514.852 993.288L448.075 984.913L455.127 958.907M455.127 958.907L453.706 945.463M792.32 1107.08L760.584 1109.21L758.6 1077.26L699.244 1063.37C677.102 1079.89 646.994 1086.82 615.955 1093.96C608.477 1095.68 600.945 1097.41 593.458 1099.29C583.058 1099.29 575.459 1099.5 569.522 1099.66M792.32 1107.08L789.455 1175.99L954.673 1179.96C926.826 1151.83 910.996 1137.54 866.81 1130.81V1102.08M792.32 1107.08L866.81 1102.08M336.559 1100.34L320.691 1099.29L355.732 993.288L391.459 987.939M336.559 1100.34L331.71 1129.27C302.718 1142.96 288.616 1155.03 264.933 1179.51H402.675V1155.27L419.865 1105.81M336.559 1100.34L419.865 1105.81M419.865 1105.81L448.075 1107.67C448.075 1107.67 444.989 1090.04 461.666 1080.12C476.723 1071.17 505.421 1083.2 515.514 1087.44C516.6 1087.89 517.47 1088.26 518.085 1088.49C548.3 1100.23 548.45 1100.23 569.519 1099.66M599.916 780.366C604.694 791.137 608.187 801.378 611.161 815.215C617.883 810.161 620.12 806.477 621.519 798.465C628.197 819.972 628.097 832.493 627.93 853.506M599.916 780.366C596.486 772.635 592.395 764.631 587.359 754.829L630.335 767.611L642.015 752.184L681.244 776.426C695.901 759.98 706.783 753.517 728.628 744.47C713.321 761.359 705.954 770.436 697.112 785.242C703.415 788.036 706.94 788.181 713.201 787.446L696.108 822.267M599.916 780.366L642.015 798.465L658.765 796.041L665.156 815.215L687.195 792.515L696.108 822.267M696.108 822.267L692.43 829.76C681.369 846.89 672.953 855.876 646.644 868.769C648.204 856.266 649.251 849.502 652.153 839.016C645.144 847.776 639.374 850.524 630.285 854.852M519.701 411.758C504.114 428.18 491.605 443.225 472.973 467.223C510.656 526.701 514.621 531.995 521.457 541.125M519.701 411.758C525.204 405.959 531.091 399.99 537.766 393.393C567.238 404.325 580.996 407.997 595.624 411.902C609.763 415.676 624.714 419.667 655.453 430.639C677.69 422.444 693.569 418.052 724.214 410.363L770.715 451.355C768.056 466.967 765.209 479.143 762.204 489.482M519.701 411.758L535.128 420.727M762.204 489.482C751.257 469.524 744.977 459.373 734.578 435.487C702.957 448.302 688.944 455.185 666.919 467.223C625.606 454.572 607.046 457.412 575.679 444.303L535.128 420.727M535.128 420.727L499.419 465.24L560.913 553.395L587.58 545.901M587.58 545.901L615.569 578.298H678.159C679.168 564.481 679.968 556.844 678.159 541.714M587.58 545.901L565.798 517.601M678.159 541.714H668.903C669.639 539.373 670.277 537.199 670.832 535.102M678.159 541.714H686.093M686.093 541.714H694.027C685.776 535.826 682.946 527.709 680.363 506.672H674.412C673.99 519.069 673.129 526.42 670.832 535.102M670.832 535.102C659.782 525.237 651.462 519.612 655.453 510.419C658.756 506.956 660.624 505.691 664.054 507.995C674.056 516.833 672.597 523.468 670.832 535.102ZM638.048 475.598L658.324 480.667M638.048 475.598C635.087 474.605 631.282 473.975 627.47 473.221M638.048 475.598C634.476 474.707 630.738 474.069 627.47 473.221M552.318 464.64L568.626 463.697C577.866 466.287 590.491 467.854 603.031 469.411L603.032 469.411C612.234 470.554 619.731 471.69 627.47 473.221M552.318 464.64L541.96 465.24C545.025 455.824 547.224 450.562 552.318 441.217C583.361 459.653 599.772 466.037 627.47 473.221M552.318 464.64C554.104 474.511 555.273 480.921 565.798 491.44M575.679 500.281C583.779 509.209 594.845 509.272 621.519 498.358M575.679 500.281C572.306 497.144 568.718 494.249 565.761 491.318C565.774 491.359 565.786 491.399 565.798 491.44M575.679 500.281C571.687 496.993 568.446 494.087 565.798 491.44M658.324 480.667L667.58 481.328M658.324 480.667L632.222 493.238M621.519 498.358L627.47 497.416M621.519 498.358C621.476 498.394 621.432 498.43 621.389 498.467M667.58 481.328C686.394 488.709 697.795 493.524 706.589 496.958M667.58 481.328C695.345 470.717 711.796 464.966 737.002 453.78C739.773 458.805 741.177 461.986 742.953 469.527H727.305M667.58 481.328C690.895 475.097 703.965 471.674 727.305 469.527M740.088 482.871C735.46 500.502 732.327 502.059 720.473 502.265M740.088 482.871C736.341 479.565 732.118 474.796 724.881 474.716C716.439 476.99 713.612 479.061 710.997 483.752C708.512 497.432 714.58 498.781 720.473 502.265M740.088 482.871C738.616 477.3 736.184 471.561 727.305 469.527M720.473 502.265C716.614 501.054 711.187 498.754 706.589 496.958M509.615 656.955L509.617 656.957M509.615 656.955C509.615 656.956 509.616 656.956 509.617 656.957M789.234 532.725C784.888 535.321 779.614 536.881 771.162 538.629C767.322 548.872 771.177 553.686 776.712 560.6M789.234 532.725C785.485 559.99 782.953 562.098 778.344 562.651M778.344 562.651C777.794 561.951 777.254 561.277 776.73 560.621M632.222 493.238C634.752 483.625 635.006 477.6 618.263 474.432C614.268 473.377 610.748 473.023 607.855 473.221C603.982 473.487 599.861 480.537 598.599 482.43C596.759 485.191 607.014 498.944 621.389 498.467M632.222 493.238L630.269 494.955M632.222 493.238C631.816 493.429 631.068 494.157 630.269 494.955M627.47 497.416C628.011 497.246 629.186 496.037 630.269 494.955M627.47 497.416C625.38 498.073 623.346 498.402 621.389 498.467M627.47 497.416L630.269 494.955M565.798 491.44C571.24 509.752 566.512 511.914 557.828 515.488C560.627 516.344 563.276 517.048 565.798 517.601M565.798 517.601C588.484 522.577 600.944 515.418 621.389 498.467M409.403 537.086L387.022 508.876L370.939 506.011L380.195 514.166C387.359 529.779 391.938 538.021 401.568 551.631L387.022 556.26M409.403 537.086L410.506 558.243M410.506 558.243C402.76 558.117 397.85 559.803 389.011 563.092L387.022 556.26M776.712 560.6L776.715 560.603M776.712 560.6C776.713 560.601 776.714 560.602 776.715 560.603M515.964 543.318L515.984 543.312M515.964 543.318C515.971 543.316 515.977 543.314 515.984 543.312M480.569 615.775L480.543 616.108M480.569 615.775C480.56 615.886 480.552 615.997 480.543 616.108M598.263 728.986C598.57 723.251 598.771 719.476 599.916 714.057C629.655 730.399 646.391 739.181 676.61 752.184C705.278 718.696 721.68 700.583 752.203 670.861C752.266 669.01 752.303 667.266 752.337 665.606M598.263 728.986L598.262 729.008M598.263 728.986C598.263 728.993 598.262 729.001 598.262 729.008M752.337 665.598L752.337 665.606M752.337 665.598C752.337 665.6 752.337 665.603 752.337 665.606M627.93 853.506L627.93 853.547M627.93 853.506C627.93 853.519 627.93 853.533 627.93 853.547M630.285 854.852L630.282 854.854M630.285 854.852C630.284 854.853 630.283 854.853 630.282 854.854M598.262 729.008L598.253 729.177M598.262 729.008C598.259 729.064 598.256 729.121 598.253 729.177M776.715 560.603L776.73 560.621M776.715 560.603C776.72 560.609 776.725 560.615 776.73 560.621M630.282 854.854L630.204 854.891M630.282 854.854C630.256 854.866 630.23 854.878 630.204 854.891M627.93 853.547L627.929 853.606M627.93 853.547C627.929 853.566 627.929 853.586 627.929 853.606M598.212 729.934L598.253 729.177M598.212 729.934L598.181 730.501M598.212 729.934C598.202 730.121 598.192 730.31 598.181 730.501M598.212 729.934C598.226 729.678 598.239 729.426 598.253 729.177M627.929 853.606L627.929 853.688M627.929 853.606C627.929 853.633 627.929 853.661 627.929 853.688M630.204 854.891C629.463 855.244 628.699 855.608 627.911 855.986C627.916 855.25 627.922 854.524 627.928 853.809M413.486 931.291C414.025 932.526 414.589 933.78 415.17 935.03M413.486 931.291C414.022 932.548 414.579 933.788 415.17 935.03M447.341 885.249L415.232 884.416L409.834 911.945M447.341 885.249L453.706 945.463M598.181 730.501L598.165 730.804M598.181 730.501C598.176 730.601 598.17 730.702 598.165 730.804M627.929 853.688L627.928 853.809M627.929 853.688C627.928 853.728 627.928 853.768 627.928 853.809M569.519 1099.66H569.522M569.519 1099.66C569.52 1099.66 569.521 1099.66 569.522 1099.66M687.748 535.102C693.145 528.27 698.214 523.422 698.875 518.133C698.348 509.759 696.149 505.313 689.619 507.995C683.089 510.677 681.244 521.302 687.748 535.102Z" stroke="black" stroke-width="0.440775"/>
<path d="M698.588 841.098L713.557 838.866L711.796 829.184L698.789 827.133L691.24 837.079L695.08 842.013L676.253 883.637L677.292 936.477C679.96 953.361 681.196 962.714 690.116 982.315C712.405 1007.19 724.27 1020.27 729.11 1021.26L694.909 979.037C685.504 959.747 683.997 951.154 680.028 935.072L679.435 884.43L698.588 841.098Z" fill="#3E3030"/>
<path d="M737.307 1037.82C739.102 1032.1 748.492 1024.68 752.013 1025.88C752.246 1023.77 752.931 1022.78 755.051 1021.27C752.567 1019.52 750.355 1018.01 748.452 1016.64C740.474 1011.88 738.527 1009.48 736.936 1005.42L733.873 1006.94L738.251 1014.1C734.481 1015.79 732.512 1017.53 729.11 1021.26C728.03 1024.02 727.294 1025.03 725.956 1026.74C730.433 1030.63 732.9 1033.05 737.307 1037.82Z" fill="#3E3030"/>
<path d="M713.557 838.866L698.588 841.098L679.435 884.43L680.028 935.072C683.997 951.154 685.504 959.747 694.909 979.037L729.11 1021.26C732.512 1017.53 734.481 1015.79 738.251 1014.1L733.873 1006.94L736.936 1005.42C713.295 955.82 697.635 929.599 715.133 852.877L712.929 845.37L703.857 851.059C697.944 873.02 695.287 886.704 691.546 913.194C691.237 871.893 691.383 849.191 714.412 841.019L713.557 838.866Z" fill="#E7A220"/>
<path d="M715.943 913.81C714.998 886.462 715.575 873.176 721.007 857.621L714.412 841.019C691.383 849.191 691.237 871.893 691.546 913.194C695.287 886.704 697.944 873.02 703.857 851.059L712.929 845.37L715.133 852.877C697.635 929.599 713.295 955.82 736.936 1005.42C738.527 1009.48 740.474 1011.88 748.452 1016.64C744.968 1014.14 742.52 1012.13 741.337 1010.09L731.206 969.401L724.174 946.973L715.943 913.81Z" fill="#F4C63F"/>
<path d="M713.557 838.866L698.588 841.098L679.435 884.43L680.028 935.072C683.997 951.154 685.504 959.747 694.909 979.037L729.11 1021.26M713.557 838.866L711.796 829.184L698.789 827.133L691.24 837.079L695.08 842.013L676.253 883.637L677.292 936.477C679.96 953.361 681.196 962.714 690.116 982.315C712.405 1007.19 724.27 1020.27 729.11 1021.26M713.557 838.866L714.412 841.019M729.11 1021.26C728.03 1024.02 727.294 1025.03 725.956 1026.74C730.433 1030.63 732.9 1033.05 737.307 1037.82C739.102 1032.1 748.492 1024.68 752.013 1025.88C752.246 1023.77 752.931 1022.78 755.051 1021.27C752.567 1019.52 750.355 1018.01 748.452 1016.64M729.11 1021.26C732.512 1017.53 734.481 1015.79 738.251 1014.1L733.873 1006.94L736.936 1005.42M714.412 841.019L721.007 857.621C715.575 873.176 714.998 886.462 715.943 913.81L724.174 946.973L731.206 969.401L741.337 1010.09C742.52 1012.13 744.968 1014.14 748.452 1016.64M714.412 841.019C691.383 849.191 691.237 871.893 691.546 913.194C695.287 886.704 697.944 873.02 703.857 851.059L712.929 845.37L715.133 852.877C697.635 929.599 713.295 955.82 736.936 1005.42M736.936 1005.42C738.527 1009.48 740.474 1011.88 748.452 1016.64" stroke="black" stroke-width="0.192887"/>
<path d="M660.31 847.051L675.279 844.82L673.519 835.137L660.512 833.087L652.963 843.033L656.802 847.966L637.976 889.59L639.015 942.43C641.683 959.314 642.919 968.667 651.839 988.268C674.127 1013.14 685.992 1026.23 690.833 1027.21L656.632 984.99C647.226 965.7 645.72 957.107 641.751 941.025L641.157 890.383L660.31 847.051Z" fill="#3E3030"/>
<path d="M699.03 1043.77C700.825 1038.05 710.215 1030.64 713.735 1031.83C713.969 1029.73 714.653 1028.73 716.773 1027.22C714.29 1025.47 712.077 1023.96 710.174 1022.59C702.197 1017.83 700.25 1015.44 698.659 1011.37L695.595 1012.89L699.974 1020.05C696.204 1021.75 694.234 1023.48 690.833 1027.21C689.753 1029.98 689.016 1030.99 687.678 1032.69C692.155 1036.58 694.623 1039.01 699.03 1043.77Z" fill="#3E3030"/>
<path d="M675.279 844.82L660.31 847.051L641.157 890.383L641.751 941.025C645.72 957.107 647.226 965.7 656.632 984.99L690.833 1027.21C694.234 1023.48 696.204 1021.75 699.974 1020.05L695.595 1012.89L698.659 1011.37C675.017 961.774 659.357 935.552 676.855 858.83L674.652 851.323L665.58 857.012C659.666 878.973 657.009 892.658 653.269 919.147C652.96 877.846 653.105 855.144 676.134 846.972L675.279 844.82Z" fill="#E7A220"/>
<path d="M677.666 919.763C676.721 892.415 677.298 879.129 682.729 863.574L676.134 846.972C653.105 855.144 652.96 877.846 653.269 919.147C657.009 892.658 659.666 878.973 665.58 857.012L674.652 851.323L676.855 858.83C659.357 935.552 675.017 961.774 698.659 1011.37C700.25 1015.44 702.197 1017.83 710.174 1022.59C706.691 1020.09 704.243 1018.08 703.059 1016.05L692.928 975.354L685.897 952.926L677.666 919.763Z" fill="#F4C63F"/>
<path d="M675.279 844.82L660.31 847.051L641.157 890.383L641.751 941.025C645.72 957.107 647.226 965.7 656.632 984.99L690.833 1027.21M675.279 844.82L673.519 835.137L660.512 833.087L652.963 843.033L656.802 847.966L637.976 889.59L639.015 942.43C641.683 959.314 642.919 968.667 651.839 988.268C674.127 1013.14 685.992 1026.23 690.833 1027.21M675.279 844.82L676.134 846.972M690.833 1027.21C689.753 1029.98 689.016 1030.99 687.678 1032.69C692.155 1036.58 694.623 1039.01 699.03 1043.77C700.825 1038.05 710.215 1030.64 713.735 1031.83C713.969 1029.73 714.653 1028.73 716.773 1027.22C714.29 1025.47 712.078 1023.96 710.174 1022.59M690.833 1027.21C694.234 1023.48 696.204 1021.75 699.974 1020.05L695.595 1012.89L698.659 1011.37M676.134 846.972L682.729 863.574C677.298 879.129 676.721 892.415 677.666 919.763L685.897 952.926L692.928 975.354L703.059 1016.05C704.243 1018.08 706.691 1020.09 710.174 1022.59M676.134 846.972C653.105 855.144 652.96 877.846 653.269 919.147C657.009 892.658 659.666 878.973 665.58 857.012L674.652 851.323L676.855 858.83C659.357 935.552 675.017 961.774 698.659 1011.37M698.659 1011.37C700.25 1015.44 702.197 1017.83 710.174 1022.59" stroke="black" stroke-width="0.192887"/>
<path d="M621.523 852.34L636.492 850.109L634.732 840.426L621.725 838.376L614.176 848.322L618.015 853.255L599.188 894.879L600.228 947.719C602.896 964.603 604.132 973.956 613.052 993.557C635.34 1018.43 647.205 1031.52 652.046 1032.5L617.845 990.279C608.439 970.989 606.933 962.397 602.964 946.314L602.37 895.673L621.523 852.34Z" fill="#3E3030"/>
<path d="M660.243 1049.06C662.038 1043.34 671.428 1035.93 674.948 1037.12C675.182 1035.02 675.866 1034.02 677.986 1032.51C675.502 1030.76 673.29 1029.25 671.387 1027.88C663.41 1023.12 661.463 1020.73 659.872 1016.66L656.808 1018.18L661.187 1025.34C657.417 1027.04 655.447 1028.77 652.046 1032.5C650.966 1035.26 650.229 1036.27 648.891 1037.98C653.368 1041.87 655.836 1044.29 660.243 1049.06Z" fill="#3E3030"/>
<path d="M636.492 850.109L621.523 852.34L602.37 895.673L602.964 946.314C606.933 962.397 608.439 970.989 617.845 990.279L652.046 1032.5C655.447 1028.77 657.417 1027.04 661.187 1025.34L656.808 1018.18L659.872 1016.66C636.23 967.063 620.57 940.842 638.068 864.119L635.865 856.612L626.793 862.301C620.879 884.262 618.222 897.947 614.481 924.436C614.173 883.135 614.318 860.433 637.347 852.261L636.492 850.109Z" fill="#E7A220"/>
<path d="M638.879 925.052C637.933 897.704 638.511 884.418 643.942 868.864L637.347 852.261C614.318 860.433 614.173 883.135 614.481 924.436C618.222 897.947 620.879 884.262 626.793 862.301L635.865 856.612L638.068 864.119C620.57 940.842 636.23 967.063 659.872 1016.66C661.463 1020.73 663.41 1023.12 671.387 1027.88C667.904 1025.38 665.455 1023.37 664.272 1021.34L654.141 980.643L647.11 958.215L638.879 925.052Z" fill="#F4C63F"/>
<path d="M636.492 850.109L621.523 852.34L602.37 895.673L602.964 946.314C606.933 962.397 608.439 970.989 617.845 990.279L652.046 1032.5M636.492 850.109L634.732 840.426L621.725 838.376L614.176 848.322L618.015 853.255L599.188 894.879L600.228 947.719C602.896 964.603 604.132 973.956 613.052 993.557C635.34 1018.43 647.205 1031.52 652.046 1032.5M636.492 850.109L637.347 852.261M652.046 1032.5C650.966 1035.26 650.229 1036.27 648.891 1037.98C653.368 1041.87 655.836 1044.29 660.243 1049.06C662.038 1043.34 671.428 1035.93 674.948 1037.12C675.182 1035.02 675.866 1034.02 677.986 1032.51C675.502 1030.76 673.29 1029.25 671.387 1027.88M652.046 1032.5C655.447 1028.77 657.417 1027.04 661.187 1025.34L656.808 1018.18L659.872 1016.66M637.347 852.261L643.942 868.864C638.511 884.418 637.933 897.704 638.879 925.052L647.11 958.215L654.141 980.643L664.272 1021.34C665.455 1023.37 667.904 1025.38 671.387 1027.88M637.347 852.261C614.318 860.433 614.173 883.135 614.481 924.436C618.222 897.947 620.879 884.262 626.793 862.301L635.865 856.612L638.068 864.119C620.57 940.842 636.23 967.063 659.872 1016.66M659.872 1016.66C661.463 1020.73 663.41 1023.12 671.387 1027.88" stroke="black" stroke-width="0.192887"/>
<path d="M578.883 875.975C550.581 849.324 534.085 834.16 511.37 798.525C496.617 761.226 494.243 744.773 486.531 712.483L410.556 642.389C402.701 649.847 401.742 655.695 404.313 668.182C405.212 740.206 409.532 844.917 414.843 857.316C420.153 869.715 472.006 906.702 502.544 930.507L578.883 875.975Z" fill="#211F27"/>
<path d="M614.772 901.971L589.574 868.338L578.883 875.975L502.544 930.507L494.103 936.536L519.717 968.635L528.187 962.695L604.796 908.967L614.772 901.971Z" fill="#401945"/>
<path d="M528.187 962.695C545.089 985.558 555.154 998.222 578.107 1019.51L600.671 1004.99L572.055 968.088L574.423 966.134L603.178 1002.76L624.834 986.915L594.965 951.127L597.053 949.034L627.201 984.961L650.808 967.999C640.45 953.459 634.599 945.387 622.335 934.3C628.304 937.648 638.484 942.375 651.169 943.476L653.453 928.768C644.382 919.719 625.596 907.064 604.796 908.967L528.187 962.695Z" fill="#401945"/>
<path d="M572.055 968.088L600.671 1004.99L603.178 1002.76L574.423 966.134L572.055 968.088Z" fill="black"/>
<path d="M594.965 951.127L624.834 986.915L627.201 984.961L597.053 949.034L594.965 951.127Z" fill="black"/>
<path d="M578.883 875.975L589.574 868.338L614.772 901.971L604.796 908.967M578.883 875.975C550.581 849.324 534.085 834.16 511.37 798.525C496.617 761.226 494.243 744.773 486.531 712.483L410.556 642.389C402.701 649.847 401.742 655.695 404.313 668.182C405.212 740.206 409.532 844.917 414.843 857.316C420.153 869.715 472.006 906.702 502.544 930.507M578.883 875.975L502.544 930.507M502.544 930.507L494.103 936.536L519.717 968.635L528.187 962.695M528.187 962.695C545.089 985.558 555.154 998.222 578.107 1019.51L600.671 1004.99M528.187 962.695L604.796 908.967M600.671 1004.99L572.055 968.088L574.423 966.134L603.178 1002.76M600.671 1004.99L603.178 1002.76M603.178 1002.76L624.834 986.915M624.834 986.915L594.965 951.127L597.053 949.034L627.201 984.961M624.834 986.915L627.201 984.961M627.201 984.961L650.808 967.999C640.45 953.459 634.599 945.387 622.335 934.3C628.304 937.648 638.484 942.375 651.169 943.476L653.453 928.768C644.382 919.719 625.596 907.064 604.796 908.967" stroke="black" stroke-width="0.440775"/>
</g>
<defs>
<clipPath id="clip0_183_619">
<rect width="1763.1" height="1322.32" fill="white" transform="translate(0.175781)"/>
</clipPath>
</defs>
</svg>
