<svg width="2732" height="2048" viewBox="0 0 2732 2048" fill="none" xmlns="http://www.w3.org/2000/svg">
<g clip-path="url(#clip0_204_2)">
<rect width="2732" height="2048" fill="white"/>
<path d="M870.812 200H361.5L309.39 455L521 280L870.812 331L1128 280H1595L1901 316L2221.5 271L2421.5 455L2505.59 728L2409.26 200H1385.5H870.812Z" fill="#503838"/>
<path d="M309.39 455L361.5 200H870.812H1385.5H2409.26L2505.59 728M309.39 455L205.885 961.5L169.613 1139L158.986 1191L84.8064 1554L0 1969H1792.43H2732L2642.15 1476.5L2590.06 1191L2533.23 879.5L2505.59 728M309.39 455L521 280L870.812 331L1128 280H1595L1901 316L2221.5 271L2421.5 455L2505.59 728" stroke="black"/>
<path d="M1562.85 250.319C1561.33 253.879 1559.67 257.868 1556.55 260.77L1562.85 279.06L1580.01 284.784C1576.94 282.66 1574.36 279.913 1573.49 276.447C1570.89 265.996 1570.89 258.158 1562.85 250.319Z" fill="#554250"/>
<path d="M1633.45 265.996L1630.84 247.706C1630.84 247.706 1573.39 240.036 1568.28 242.481C1565.74 243.697 1564.36 246.798 1562.85 250.319C1570.89 258.158 1570.89 265.996 1573.49 276.447C1574.36 279.913 1576.94 282.66 1580.01 284.784C1586.2 289.066 1595.65 286.898 1595.65 286.898L1630.84 293.43L1646.48 279.06L1633.45 265.996Z" fill="#655363"/>
<path d="M1537 271.221C1537 271.221 1539.12 279.908 1539.61 285.592C1540.04 290.675 1539.61 298.656 1539.61 298.656L1551.34 293.43L1552.64 269.915L1544.82 268.011C1540.53 270.003 1537 271.221 1537 271.221Z" fill="#554250"/>
<path d="M1539.61 298.656C1539.61 298.656 1539.36 300.278 1539.61 301.268C1540.13 303.368 1539.61 302.575 1543.52 305.187C1547.43 307.8 1565.56 318.201 1581.31 320.864L1574.8 305.187L1551.34 293.43L1539.61 298.656Z" fill="#554250"/>
<path d="M1581.31 320.864C1598.95 323.845 1609.39 320.401 1626.93 316.945L1603.47 299.962L1589.13 302.575L1574.8 305.187L1581.31 320.864Z" fill="#554250"/>
<path d="M1647.79 311.719L1653 285.592L1646.48 279.06L1630.84 293.43L1637.36 314.525C1642.98 313.093 1647.79 311.719 1647.79 311.719Z" fill="#554250"/>
<path d="M1630.84 293.43L1595.65 286.898C1595.65 286.898 1586.2 289.066 1580.01 284.784L1562.85 279.06L1556.55 260.77C1553.49 263.617 1548.82 266.151 1544.82 268.011L1552.64 269.915L1551.34 293.43L1574.8 305.187L1589.13 302.575L1603.47 299.962L1626.93 316.945C1630.08 316.324 1633.88 315.413 1637.36 314.525L1630.84 293.43Z" fill="#645262"/>
<path d="M1603.85 306.988C1602.33 310.548 1600.67 314.537 1597.55 317.439L1603.85 335.729L1621.01 341.453C1617.94 339.329 1615.36 336.582 1614.49 333.116C1611.89 322.665 1611.89 314.827 1603.85 306.988Z" fill="#554250"/>
<path d="M1674.45 322.665L1671.84 304.376C1671.84 304.376 1654.83 302.105 1638.5 300.428C1624.82 299.023 1611.61 298.036 1609.28 299.15C1606.74 300.366 1605.36 303.467 1603.85 306.988C1611.89 314.827 1611.89 322.665 1614.49 333.116C1615.36 336.582 1617.94 339.329 1621.01 341.453C1627.2 345.735 1636.65 343.567 1636.65 343.567L1671.84 350.099L1687.48 335.729L1674.45 322.665Z" fill="#655363"/>
<path d="M1578 327.89C1578 327.89 1580.12 336.577 1580.61 342.261C1581.04 347.344 1580.61 355.325 1580.61 355.325L1592.34 350.099L1593.64 326.584L1585.82 324.68C1581.53 326.672 1578 327.89 1578 327.89Z" fill="#554250"/>
<path d="M1580.61 355.325C1580.61 355.325 1580.36 356.947 1580.61 357.937C1581.13 360.037 1580.61 359.244 1584.52 361.856C1588.43 364.469 1606.56 374.87 1622.31 377.533L1615.8 361.856L1592.34 350.099L1580.61 355.325Z" fill="#554250"/>
<path d="M1622.31 377.533C1639.95 380.514 1650.39 377.07 1667.93 373.614L1644.47 356.631L1630.13 359.244L1615.8 361.856L1622.31 377.533Z" fill="#554250"/>
<path d="M1688.79 368.388L1694 342.261L1687.48 335.729L1671.84 350.099L1678.36 371.194C1683.98 369.762 1688.79 368.388 1688.79 368.388Z" fill="#554250"/>
<path d="M1671.84 350.099L1636.65 343.567C1636.65 343.567 1627.2 345.735 1621.01 341.453L1603.85 335.729L1597.55 317.439C1596.13 318.755 1593.88 320.523 1592 321.669C1589.82 323.003 1587.97 323.68 1585.82 324.68L1593.64 326.584L1592.34 350.099L1615.8 361.856L1630.13 359.244L1644.47 356.631L1667.93 373.614C1671.08 372.993 1674.88 372.082 1678.36 371.194L1671.84 350.099Z" fill="#645262"/>
<path d="M1603.85 306.988C1605.36 303.467 1606.74 300.366 1609.28 299.15C1611.61 298.036 1624.82 299.023 1638.5 300.428L1636.65 298.669L1615.5 297.169C1608.46 296.465 1605.25 297.683 1602.5 306.169C1598.51 315.576 1595 317.669 1590 321.169L1592 321.669C1593.88 320.523 1596.13 318.755 1597.55 317.439C1600.67 314.537 1602.33 310.548 1603.85 306.988Z" fill="black"/>
<path d="M1544.85 313.319C1543.33 316.879 1541.67 320.868 1538.55 323.77L1544.85 342.06L1562.01 347.784C1558.94 345.66 1556.36 342.913 1555.49 339.447C1554.96 337.314 1554.54 335.29 1554.13 333.352C1552.55 325.796 1551.25 319.558 1544.85 313.319Z" fill="#554250"/>
<path d="M1519 334.221C1519 334.221 1521.12 342.908 1521.61 348.592C1522.04 353.675 1521.61 361.656 1521.61 361.656L1533.34 356.43L1534.64 332.915L1526.82 331.011C1522.53 333.003 1519 334.221 1519 334.221Z" fill="#554250"/>
<path d="M1521.61 361.656C1521.61 361.656 1521.36 363.278 1521.61 364.268C1522.13 366.368 1521.61 365.575 1525.52 368.187C1529.43 370.8 1547.56 381.201 1563.31 383.864L1556.8 368.187L1533.34 356.43L1521.61 361.656Z" fill="#554250"/>
<path d="M1563.31 383.864C1580.95 386.845 1591.39 383.401 1608.93 379.945L1585.47 362.962L1571.13 365.575L1556.8 368.187L1563.31 383.864Z" fill="#554250"/>
<path d="M1612.84 356.43L1577.65 349.898C1577.65 349.898 1568.2 352.066 1562.01 347.784L1544.85 342.06L1538.55 323.77C1535.49 326.617 1530.82 329.151 1526.82 331.011L1534.64 332.915L1533.34 356.43L1556.8 368.187L1571.13 365.575L1585.47 362.962L1608.93 379.945C1612.08 379.324 1615.88 378.413 1619.36 377.525L1612.84 356.43Z" fill="#645262"/>
<path fill-rule="evenodd" clip-rule="evenodd" d="M1634.52 351L1631.83 364.5L1629.79 374.719C1629.79 374.719 1624.98 376.093 1619.36 377.525L1612.84 356.43L1627.06 343.367L1634.52 351Z" fill="#554250"/>
<path d="M1635 348.592L1628.48 342.06L1627.06 343.367L1634.52 351L1635 348.592Z" fill="black"/>
<path fill-rule="evenodd" clip-rule="evenodd" d="M1627.06 343.367L1614 330L1610.5 313.319L1550.28 305.481C1547.74 306.697 1546.36 309.798 1544.85 313.319C1551.25 319.558 1552.55 325.796 1554.13 333.352C1554.54 335.29 1554.96 337.314 1555.49 339.447C1556.36 342.913 1558.94 345.66 1562.01 347.784C1568.2 352.066 1577.65 349.898 1577.65 349.898L1612.84 356.43L1627.06 343.367Z" fill="#655363"/>
<path d="M1615.45 328.996L1612.84 310.706C1612.84 310.706 1555.39 303.036 1550.28 305.481L1610.5 313.319L1614 330L1627.06 343.367L1628.48 342.06L1615.45 328.996Z" fill="black"/>
<path d="M1635 348.592L1634.52 351L1631.83 364.5L1633.5 365L1636 349.5L1635 348.592Z" fill="black"/>
<path d="M-49 1962.64L58.0869 2121.4L94.8283 2113.09L-19.8935 1943.01L-49 1962.64Z" fill="#B47458"/>
<path d="M-1.37116 1930.51L-19.8935 1943.01L94.8283 2113.09L118.209 2107.8L100.361 2081.34L95.007 2073.4L66.4505 2031.06L55.7418 2015.19L28.9701 1975.5L23.6158 1967.56L-1.37116 1930.51Z" fill="#542326"/>
<path d="M176.785 1972.04L23.6158 1967.56L28.9701 1975.5L180.355 1977.33L176.785 1972.04Z" fill="#1B1716"/>
<path d="M194.633 1998.5L55.7418 2015.19L66.4505 2031.06L203.557 2011.73L194.633 1998.5Z" fill="black"/>
<path d="M100.361 2081.34L232.114 2054.07L228.544 2048.78L95.007 2073.4L100.361 2081.34Z" fill="black"/>
<path d="M55.7418 2015.19L194.633 1998.5L180.355 1977.33L28.9701 1975.5L55.7418 2015.19Z" fill="#B47458"/>
<path d="M203.557 2011.73L66.4505 2031.06L95.007 2073.4L228.544 2048.78L203.557 2011.73Z" fill="#B47458"/>
<path d="M232.114 2054.07L253.531 2085.82L280.853 2063.54L273.714 2052.96L244.265 2009.3L233.766 1993.73L230.018 1993.88L233.159 1992.83L207.677 1955.05L195.183 1936.53L172.168 1936.66L169.646 1961.46L176.785 1972.04L180.355 1977.33L194.633 1998.5L203.557 2011.73L228.544 2048.78L232.114 2054.07Z" fill="#542326"/>
<path d="M343.123 1956.09L207.677 1955.05L233.159 1992.83L343.123 1956.09Z" fill="#B47458"/>
<path d="M357.464 1988.77L343.123 1956.09L233.159 1992.83L233.766 1993.73L357.464 1988.77Z" fill="#B47458"/>
<path d="M369.957 2007.29L244.265 2009.3L273.714 2052.96L400.298 2052.27L398.514 2049.63L369.957 2007.29Z" fill="#B47458"/>
<path d="M589.375 1955.54L399.603 1960.34L424.005 2001.63L611.427 1986.86L589.375 1955.54Z" fill="#B47458"/>
<path d="M620.615 1999.91L433.766 2018.15L451.661 2048.43L651.856 2044.29L620.615 1999.91Z" fill="#B47458"/>
<path d="M768.196 1946.57L636.458 1962.28L654.881 1988.35L798.446 1987.76L768.196 1946.57Z" fill="#B47458"/>
<path d="M806.009 1998.06L667.777 2006.6L689.885 2037.89L832.478 2034.11L806.009 1998.06Z" fill="#B47458"/>
<path d="M583.861 1947.71L393.445 1949.93L399.603 1960.34L589.375 1955.54L583.861 1947.71Z" fill="black"/>
<path d="M611.427 1986.86L424.005 2001.63L433.766 2018.15L620.615 1999.91L611.427 1986.86Z" fill="black"/>
<path d="M651.856 2044.29L451.661 2048.43L459.795 2062.19L659.207 2054.73L651.856 2044.29Z" fill="black"/>
<path d="M798.446 1987.76L654.881 1988.35L667.777 2006.6L806.009 1998.06L798.446 1987.76Z" fill="black"/>
<path d="M764.415 1941.42L630.931 1954.46L636.458 1962.28L768.196 1946.57L764.415 1941.42Z" fill="black"/>
<path d="M832.478 2034.11L689.885 2037.89L700.938 2053.53L840.04 2044.41L832.478 2034.11Z" fill="black"/>
<path d="M675.747 2078.22L593.584 1945L583.861 1947.71L589.375 1955.54L611.427 1986.86L620.615 1999.91L651.856 2044.29L659.207 2054.73L675.747 2078.22Z" fill="#B47458"/>
<path d="M675.747 2078.22L711.992 2069.18L700.938 2053.53L689.885 2037.89L667.777 2006.6L654.881 1988.35L636.458 1962.28L630.931 1954.46L627.246 1949.24L593.584 1945L675.747 2078.22Z" fill="#542326"/>
<path d="M357.464 1988.77L369.957 2007.29L398.514 2049.63L400.298 2052.27L421.716 2084.03L460.794 2107.72L347.798 1920.21L325.275 1929.63L343.123 1956.09L357.464 1988.77Z" fill="#B47458"/>
<path d="M460.794 2107.72L479.317 2095.22L459.795 2062.19L451.661 2048.43L433.766 2018.15L424.005 2001.63L399.603 1960.34L393.445 1949.93L370.32 1910.8L347.798 1920.21L460.794 2107.72Z" fill="#542326"/>
<path d="M593.584 1945L627.246 1949.24L577.459 1909.68L583.861 1947.71L593.584 1945Z" fill="#542326"/>
<path d="M756.29 1912.25L764.415 1941.42L768.196 1946.57L798.446 1987.76L806.009 1998.06L832.478 2034.11L840.04 2044.41L858.946 2070.15L889.163 2092.12L895.429 2089.99L765.782 1907.77L756.29 1912.25Z" fill="#542326"/>
<path d="M906.393 2086.27L775.274 1903.3L765.782 1907.77L895.429 2089.99L906.393 2086.27Z" fill="black"/>
<path d="M827.183 1926.03L794.258 1894.34L775.274 1903.3L906.393 2086.27L923.624 2080.42L827.183 1926.03Z" fill="#B47458"/>
<path d="M369.957 2007.29L357.464 1988.77L233.766 1993.73L244.265 2009.3L369.957 2007.29Z" fill="black"/>
<path d="M-19.8935 1943.01L-1.37116 1930.51L23.6158 1967.56M-19.8935 1943.01L-49 1962.64L58.0869 2121.4L94.8283 2113.09M-19.8935 1943.01L94.8283 2113.09M94.8283 2113.09L118.209 2107.8L100.361 2081.34M100.361 2081.34L232.114 2054.07M100.361 2081.34L95.007 2073.4M232.114 2054.07L253.531 2085.82L280.853 2063.54L273.714 2052.96M232.114 2054.07L228.544 2048.78M176.785 1972.04L169.646 1961.46L172.168 1936.66L195.183 1936.53L207.677 1955.05M176.785 1972.04L23.6158 1967.56M176.785 1972.04L180.355 1977.33M23.6158 1967.56L28.9701 1975.5M55.7418 2015.19L194.633 1998.5M55.7418 2015.19L66.4505 2031.06M55.7418 2015.19L28.9701 1975.5M194.633 1998.5L203.557 2011.73M194.633 1998.5L180.355 1977.33M66.4505 2031.06L203.557 2011.73M66.4505 2031.06L95.007 2073.4M203.557 2011.73L228.544 2048.78M207.677 1955.05L343.123 1956.09M207.677 1955.05L233.159 1992.83M343.123 1956.09L325.275 1929.63L347.798 1920.21M343.123 1956.09L357.464 1988.77M343.123 1956.09L233.159 1992.83M357.464 1988.77L369.957 2007.29M357.464 1988.77L233.766 1993.73M369.957 2007.29L244.265 2009.3M369.957 2007.29L398.514 2049.63L400.298 2052.27M244.265 2009.3L273.714 2052.96M244.265 2009.3L233.766 1993.73M273.714 2052.96L400.298 2052.27M400.298 2052.27L421.716 2084.03L460.794 2107.72M460.794 2107.72L479.317 2095.22L459.795 2062.19M460.794 2107.72L347.798 1920.21M675.747 2078.22L711.992 2069.18L700.938 2053.53M675.747 2078.22L593.584 1945M675.747 2078.22L659.207 2054.73M593.584 1945L627.246 1949.24M593.584 1945L583.861 1947.71M627.246 1949.24L577.459 1909.68L583.861 1947.71M627.246 1949.24L630.931 1954.46M393.445 1949.93L370.32 1910.8L347.798 1920.21M393.445 1949.93L583.861 1947.71M393.445 1949.93L399.603 1960.34M583.861 1947.71L589.375 1955.54M399.603 1960.34L589.375 1955.54M399.603 1960.34L424.005 2001.63M589.375 1955.54L611.427 1986.86M424.005 2001.63L611.427 1986.86M424.005 2001.63L433.766 2018.15M611.427 1986.86L620.615 1999.91M433.766 2018.15L620.615 1999.91M433.766 2018.15L451.661 2048.43M620.615 1999.91L651.856 2044.29M451.661 2048.43L651.856 2044.29M451.661 2048.43L459.795 2062.19M651.856 2044.29L659.207 2054.73M459.795 2062.19L659.207 2054.73M630.931 1954.46L764.415 1941.42M630.931 1954.46L636.458 1962.28M764.415 1941.42L756.29 1912.25L765.782 1907.77M764.415 1941.42L768.196 1946.57M775.274 1903.3L794.258 1894.34L827.183 1926.03L923.624 2080.42L906.393 2086.27M775.274 1903.3L906.393 2086.27M775.274 1903.3L765.782 1907.77M906.393 2086.27L895.429 2089.99M895.429 2089.99L889.163 2092.12L858.946 2070.15L840.04 2044.41M895.429 2089.99L765.782 1907.77M636.458 1962.28L768.196 1946.57M636.458 1962.28L654.881 1988.35M768.196 1946.57L798.446 1987.76M654.881 1988.35L798.446 1987.76M654.881 1988.35L667.777 2006.6M798.446 1987.76L806.009 1998.06M667.777 2006.6L806.009 1998.06M667.777 2006.6L689.885 2037.89M806.009 1998.06L832.478 2034.11M689.885 2037.89L832.478 2034.11M689.885 2037.89L700.938 2053.53M832.478 2034.11L840.04 2044.41M840.04 2044.41L700.938 2053.53M28.9701 1975.5L180.355 1977.33M95.007 2073.4L228.544 2048.78M233.766 1993.73L230.018 1993.88L233.159 1992.83M233.766 1993.73L233.159 1992.83" stroke="black" stroke-width="3.94561"/>
<path d="M783 1962.64L890.087 2121.4L926.828 2113.09L812.107 1943.01L783 1962.64Z" fill="#B47458"/>
<path d="M830.629 1930.51L812.107 1943.01L926.828 2113.09L950.209 2107.8L932.361 2081.34L927.007 2073.4L898.451 2031.06L887.742 2015.19L860.97 1975.5L855.616 1967.56L830.629 1930.51Z" fill="#542326"/>
<path d="M1008.79 1972.04L855.616 1967.56L860.97 1975.5L1012.36 1977.33L1008.79 1972.04Z" fill="#1B1716"/>
<path d="M1026.63 1998.5L887.742 2015.19L898.451 2031.06L1035.56 2011.73L1026.63 1998.5Z" fill="black"/>
<path d="M932.361 2081.34L1064.11 2054.07L1060.54 2048.78L927.007 2073.4L932.361 2081.34Z" fill="black"/>
<path d="M887.742 2015.19L1026.63 1998.5L1012.36 1977.33L860.97 1975.5L887.742 2015.19Z" fill="#B47458"/>
<path d="M1035.56 2011.73L898.451 2031.06L927.007 2073.4L1060.54 2048.78L1035.56 2011.73Z" fill="#B47458"/>
<path d="M1064.11 2054.07L1085.53 2085.82L1112.85 2063.54L1105.71 2052.96L1076.26 2009.3L1065.77 1993.73L1062.02 1993.88L1065.16 1992.83L1039.68 1955.05L1027.18 1936.53L1004.17 1936.66L1001.65 1961.46L1008.79 1972.04L1012.36 1977.33L1026.63 1998.5L1035.56 2011.73L1060.54 2048.78L1064.11 2054.07Z" fill="#542326"/>
<path d="M1175.12 1956.09L1039.68 1955.05L1065.16 1992.83L1175.12 1956.09Z" fill="#B47458"/>
<path d="M1189.46 1988.77L1175.12 1956.09L1065.16 1992.83L1065.77 1993.73L1189.46 1988.77Z" fill="#B47458"/>
<path d="M1201.96 2007.29L1076.26 2009.3L1105.71 2052.96L1232.3 2052.27L1230.51 2049.63L1201.96 2007.29Z" fill="#B47458"/>
<path d="M1421.37 1955.54L1231.6 1960.34L1256.01 2001.63L1443.43 1986.86L1421.37 1955.54Z" fill="#B47458"/>
<path d="M1452.62 1999.91L1265.77 2018.15L1283.66 2048.43L1483.86 2044.29L1452.62 1999.91Z" fill="#B47458"/>
<path d="M1600.2 1946.57L1468.46 1962.28L1486.88 1988.35L1630.45 1987.76L1600.2 1946.57Z" fill="#B47458"/>
<path d="M1638.01 1998.06L1499.78 2006.6L1521.88 2037.89L1664.48 2034.11L1638.01 1998.06Z" fill="#B47458"/>
<path d="M1415.86 1947.71L1225.45 1949.93L1231.6 1960.34L1421.37 1955.54L1415.86 1947.71Z" fill="black"/>
<path d="M1443.43 1986.86L1256.01 2001.63L1265.77 2018.15L1452.62 1999.91L1443.43 1986.86Z" fill="black"/>
<path d="M1483.86 2044.29L1283.66 2048.43L1291.79 2062.19L1491.21 2054.73L1483.86 2044.29Z" fill="black"/>
<path d="M1630.45 1987.76L1486.88 1988.35L1499.78 2006.6L1638.01 1998.06L1630.45 1987.76Z" fill="black"/>
<path d="M1596.42 1941.42L1462.93 1954.46L1468.46 1962.28L1600.2 1946.57L1596.42 1941.42Z" fill="black"/>
<path d="M1664.48 2034.11L1521.88 2037.89L1532.94 2053.53L1672.04 2044.41L1664.48 2034.11Z" fill="black"/>
<path d="M1507.75 2078.22L1425.58 1945L1415.86 1947.71L1421.37 1955.54L1443.43 1986.86L1452.62 1999.91L1483.86 2044.29L1491.21 2054.73L1507.75 2078.22Z" fill="#B47458"/>
<path d="M1507.75 2078.22L1543.99 2069.18L1532.94 2053.53L1521.88 2037.89L1499.78 2006.6L1486.88 1988.35L1468.46 1962.28L1462.93 1954.46L1459.25 1949.24L1425.58 1945L1507.75 2078.22Z" fill="#542326"/>
<path d="M1189.46 1988.77L1201.96 2007.29L1230.51 2049.63L1232.3 2052.27L1253.72 2084.03L1292.79 2107.72L1179.8 1920.21L1157.28 1929.63L1175.12 1956.09L1189.46 1988.77Z" fill="#B47458"/>
<path d="M1292.79 2107.72L1311.32 2095.22L1291.79 2062.19L1283.66 2048.43L1265.77 2018.15L1256.01 2001.63L1231.6 1960.34L1225.45 1949.93L1202.32 1910.8L1179.8 1920.21L1292.79 2107.72Z" fill="#542326"/>
<path d="M1425.58 1945L1459.25 1949.24L1409.46 1909.68L1415.86 1947.71L1425.58 1945Z" fill="#542326"/>
<path d="M1588.29 1912.25L1596.42 1941.42L1600.2 1946.57L1630.45 1987.76L1638.01 1998.06L1664.48 2034.11L1672.04 2044.41L1690.95 2070.15L1721.16 2092.12L1727.43 2089.99L1597.78 1907.77L1588.29 1912.25Z" fill="#542326"/>
<path d="M1738.39 2086.27L1607.27 1903.3L1597.78 1907.77L1727.43 2089.99L1738.39 2086.27Z" fill="black"/>
<path d="M1659.18 1926.03L1626.26 1894.34L1607.27 1903.3L1738.39 2086.27L1755.62 2080.42L1659.18 1926.03Z" fill="#B47458"/>
<path d="M1201.96 2007.29L1189.46 1988.77L1065.77 1993.73L1076.26 2009.3L1201.96 2007.29Z" fill="black"/>
<path d="M812.107 1943.01L830.629 1930.51L855.616 1967.56M812.107 1943.01L783 1962.64L890.087 2121.4L926.828 2113.09M812.107 1943.01L926.828 2113.09M926.828 2113.09L950.209 2107.8L932.361 2081.34M932.361 2081.34L1064.11 2054.07M932.361 2081.34L927.007 2073.4M1064.11 2054.07L1085.53 2085.82L1112.85 2063.54L1105.71 2052.96M1064.11 2054.07L1060.54 2048.78M1008.79 1972.04L1001.65 1961.46L1004.17 1936.66L1027.18 1936.53L1039.68 1955.05M1008.79 1972.04L855.616 1967.56M1008.79 1972.04L1012.36 1977.33M855.616 1967.56L860.97 1975.5M887.742 2015.19L1026.63 1998.5M887.742 2015.19L898.451 2031.06M887.742 2015.19L860.97 1975.5M1026.63 1998.5L1035.56 2011.73M1026.63 1998.5L1012.36 1977.33M898.451 2031.06L1035.56 2011.73M898.451 2031.06L927.007 2073.4M1035.56 2011.73L1060.54 2048.78M1039.68 1955.05L1175.12 1956.09M1039.68 1955.05L1065.16 1992.83M1175.12 1956.09L1157.28 1929.63L1179.8 1920.21M1175.12 1956.09L1189.46 1988.77M1175.12 1956.09L1065.16 1992.83M1189.46 1988.77L1201.96 2007.29M1189.46 1988.77L1065.77 1993.73M1201.96 2007.29L1076.26 2009.3M1201.96 2007.29L1230.51 2049.63L1232.3 2052.27M1076.26 2009.3L1105.71 2052.96M1076.26 2009.3L1065.77 1993.73M1105.71 2052.96L1232.3 2052.27M1232.3 2052.27L1253.72 2084.03L1292.79 2107.72M1292.79 2107.72L1311.32 2095.22L1291.79 2062.19M1292.79 2107.72L1179.8 1920.21M1507.75 2078.22L1543.99 2069.18L1532.94 2053.53M1507.75 2078.22L1425.58 1945M1507.75 2078.22L1491.21 2054.73M1425.58 1945L1459.25 1949.24M1425.58 1945L1415.86 1947.71M1459.25 1949.24L1409.46 1909.68L1415.86 1947.71M1459.25 1949.24L1462.93 1954.46M1225.45 1949.93L1202.32 1910.8L1179.8 1920.21M1225.45 1949.93L1415.86 1947.71M1225.45 1949.93L1231.6 1960.34M1415.86 1947.71L1421.37 1955.54M1231.6 1960.34L1421.37 1955.54M1231.6 1960.34L1256.01 2001.63M1421.37 1955.54L1443.43 1986.86M1256.01 2001.63L1443.43 1986.86M1256.01 2001.63L1265.77 2018.15M1443.43 1986.86L1452.62 1999.91M1265.77 2018.15L1452.62 1999.91M1265.77 2018.15L1283.66 2048.43M1452.62 1999.91L1483.86 2044.29M1283.66 2048.43L1483.86 2044.29M1283.66 2048.43L1291.79 2062.19M1483.86 2044.29L1491.21 2054.73M1291.79 2062.19L1491.21 2054.73M1462.93 1954.46L1596.42 1941.42M1462.93 1954.46L1468.46 1962.28M1596.42 1941.42L1588.29 1912.25L1597.78 1907.77M1596.42 1941.42L1600.2 1946.57M1607.27 1903.3L1626.26 1894.34L1659.18 1926.03L1755.62 2080.42L1738.39 2086.27M1607.27 1903.3L1738.39 2086.27M1607.27 1903.3L1597.78 1907.77M1738.39 2086.27L1727.43 2089.99M1727.43 2089.99L1721.16 2092.12L1690.95 2070.15L1672.04 2044.41M1727.43 2089.99L1597.78 1907.77M1468.46 1962.28L1600.2 1946.57M1468.46 1962.28L1486.88 1988.35M1600.2 1946.57L1630.45 1987.76M1486.88 1988.35L1630.45 1987.76M1486.88 1988.35L1499.78 2006.6M1630.45 1987.76L1638.01 1998.06M1499.78 2006.6L1638.01 1998.06M1499.78 2006.6L1521.88 2037.89M1638.01 1998.06L1664.48 2034.11M1521.88 2037.89L1664.48 2034.11M1521.88 2037.89L1532.94 2053.53M1664.48 2034.11L1672.04 2044.41M1672.04 2044.41L1532.94 2053.53M860.97 1975.5L1012.36 1977.33M927.007 2073.4L1060.54 2048.78M1065.77 1993.73L1062.02 1993.88L1065.16 1992.83M1065.77 1993.73L1065.16 1992.83" stroke="black" stroke-width="3.94561"/>
</g>
<defs>
<clipPath id="clip0_204_2">
<rect width="2732" height="2048" fill="white"/>
</clipPath>
</defs>
</svg>
