<svg width="1764" height="1323" viewBox="0 0 1764 1323" fill="none" xmlns="http://www.w3.org/2000/svg">
<path d="M726.111 762.191L763.283 770.044L770.419 771.552L918.04 802.74L1022.62 698.372L913.663 656.527L884.115 700.494L782.752 683.8L767.726 657.653L726.111 762.191Z" fill="#211F27"/>
<path d="M726.111 762.191L714.141 785.608C728.948 770.612 739.981 765.745 763.283 770.044L726.111 762.191Z" fill="#211F27"/>
<path d="M726.111 762.191L767.726 657.653L782.752 683.8L884.115 700.494L913.663 656.527L1022.62 698.372L918.04 802.74L770.419 771.552M726.111 762.191L714.141 785.608C728.948 770.612 739.981 765.745 763.283 770.044M726.111 762.191L763.283 770.044M770.419 771.552C767.915 770.964 765.541 770.461 763.283 770.044M770.419 771.552L763.283 770.044" stroke="black" stroke-width="0.440775"/>
<path d="M1021.72 704.079L1033.48 707.512L1057.87 621.029L1049.9 617.581L966.368 581.462L947.305 573.219L901.993 658.098L912.762 662.234L1021.72 704.079Z" fill="#461B46"/>
<path d="M1124.02 493.136L1097.48 474.496L1058.79 554.297L1085.62 564.521L1124.02 493.136Z" fill="#461B49"/>
<path d="M1152.1 521.342L1127.7 500.203L1093.2 558.019L1084.98 575.431L1109.27 578.846L1129.68 551.446L1152.1 521.342Z" fill="#461B49"/>
<path d="M1030.2 567.733L1021.66 530.606L1020.94 527.485L1032.66 486.847L1029.7 488.447L1018.03 527.076L1030.2 567.733Z" fill="black"/>
<path fill-rule="evenodd" clip-rule="evenodd" d="M1060.56 541.732L1058.79 554.297L1097.48 474.496L1060.56 541.732ZM1085.62 564.521L1093.2 558.019L1127.7 500.203L1124.02 493.136L1085.62 564.521Z" fill="black"/>
<path d="M1041.05 544.254L1044.46 535.942L1027.76 529.936L1041.05 544.254Z" fill="#461B49"/>
<path d="M1109.27 578.846L1084.98 575.431L1093.2 558.019L1085.62 564.521L1058.79 554.297L1060.56 541.732L1044.46 535.942L1041.05 544.254L1027.76 529.936L1020.94 527.485L1021.66 530.606L1026.3 531.258L1042.81 548.478L1045.86 539.337L1058.87 544.96L1055.52 557.715L1082.66 567.316L1082.97 576.166L1108.22 580.605L1109.27 578.846Z" fill="black"/>
<path d="M1109.27 578.846L1108.22 580.605L1110.78 580.965L1131.63 552.961L1129.68 551.446L1109.27 578.846Z" fill="black"/>
<path fill-rule="evenodd" clip-rule="evenodd" d="M966.368 581.462L987.909 542.427L984.507 512.795L987.022 511.439L1029.7 488.447L1018.03 527.076L1030.2 567.733L1060.88 613.016L1049.9 617.581L966.368 581.462ZM1044.46 535.942L1060.56 541.732L1093.4 471.885L1085.43 466.794L1047.34 445.735L1045.86 449.882L1032.66 486.847L1020.94 527.485L1027.76 529.936L1044.46 535.942Z" fill="#461B49"/>
<path d="M1060.56 541.732L1097.48 474.496L1093.4 471.885L1060.56 541.732Z" fill="black"/>
<path d="M1029.7 488.447L1032.66 486.847L1045.86 449.882L1044.75 447.5L1030.99 485.182L986.138 509.812L987.022 511.439L1029.7 488.447Z" fill="black"/>
<path d="M1030.2 567.733L1041.67 555.769L1054.82 582.544L1098.12 597.531L1108.22 580.605L1082.97 576.166L1082.66 567.316L1055.52 557.715L1058.87 544.96L1045.86 539.337L1042.81 548.478L1026.3 531.258L1021.66 530.606L1030.2 567.733Z" fill="black"/>
<path d="M1041.67 555.769L1030.2 567.733L1060.88 613.016L1098.12 597.531L1054.82 582.544L1041.67 555.769Z" fill="black"/>
<path d="M630.686 767.611L587.711 754.829C592.747 764.631 596.838 772.635 600.267 780.366L642.367 798.465L659.116 796.041L665.508 815.215L687.546 792.515L696.46 822.267L713.552 787.446C707.292 788.181 703.766 788.036 697.464 785.242C706.305 770.436 713.672 761.359 728.979 744.47C707.135 753.517 696.253 759.98 681.596 776.426L642.367 752.184L630.686 767.611Z" fill="#C5B5A5"/>
<path d="M688.099 535.102C693.497 528.27 698.566 523.422 699.227 518.133C698.7 509.759 696.501 505.313 689.971 507.995C683.441 510.677 681.596 521.302 688.099 535.102Z" fill="black"/>
<path d="M792.671 1107.08L789.806 1175.99L955.024 1179.96C927.178 1151.83 911.348 1137.54 867.162 1130.81V1102.08L792.671 1107.08Z" fill="black"/>
<path d="M336.91 1100.34L332.062 1129.27C303.069 1142.96 288.968 1155.03 265.284 1179.51H403.026V1155.27L420.217 1105.81L336.91 1100.34Z" fill="black"/>
<path d="M469.578 597.472C470.938 597.733 474.502 597.216 478.364 596.656C480.136 596.399 481.97 596.133 483.682 595.929L499.771 593.725L501.319 595.268H511.237C517.568 623.158 521.222 636.865 528.206 652.348L530.851 622.596C540.554 636.939 545.906 644.996 557.738 658.96C562.248 657.046 564.084 655.359 566.113 651.246C568.028 665.602 570.262 673.87 577.132 689.153C577.559 678.984 576.678 672.19 572.504 657.417C587.609 675.78 596.583 685.469 615.48 699.291C615.005 686.775 614.442 679.744 611.513 667.114C627.636 684.113 635.436 694.061 649.199 711.853L652.505 692.459L681.596 730.586C691.392 719.594 696.752 713.52 701.431 705.903C704.872 705.874 706.802 705.443 710.246 703.919C716.41 697.161 719.213 691.149 723.69 678.575C724.969 663.68 725.975 655.629 732.726 646.398C733.521 652.915 733.846 657.413 734.048 668.216C742.073 656.848 747.958 654.211 748.373 622.376L764.455 627.885C764.462 619.456 763.718 613.645 762.037 602.761L756.521 597.472C675.627 597.603 629.135 596.613 557.292 605.186L556.523 603.967L556.522 603.966C543.068 582.644 535.292 570.319 522.25 541.714C520.217 542.267 518.246 542.798 516.336 543.312C516.329 543.314 516.322 543.316 516.315 543.318C498.712 548.058 486.186 551.431 476.19 558.243C482.338 561.289 489.693 562.321 498.548 563.563C502.089 564.059 505.869 564.589 509.909 565.295C492.737 572.395 467.594 597.091 469.578 597.472Z" fill="#D2CFC9"/>
<path d="M774.152 635.379C775.772 622.451 773.81 616.232 770.185 605.186L762.037 602.761C763.718 613.645 764.462 619.456 764.455 627.885L748.373 622.376C747.958 654.211 742.073 656.848 734.048 668.216C733.846 657.413 733.521 652.915 732.726 646.398C725.975 655.629 724.969 663.68 723.69 678.575C719.213 691.149 716.41 697.161 710.246 703.919C706.802 705.443 704.872 705.874 701.431 705.903C696.752 713.52 691.392 719.594 681.596 730.586L652.505 692.459L649.199 711.853C635.436 694.061 627.636 684.113 611.513 667.114C614.442 679.744 615.005 686.775 615.48 699.291C596.583 685.469 587.609 675.78 572.504 657.417C576.678 672.19 577.559 678.984 577.132 689.153C570.262 673.87 568.028 665.602 566.113 651.246C564.084 655.359 562.248 657.046 557.738 658.96C545.906 644.996 540.554 636.939 530.851 622.596L528.206 652.348C521.222 636.865 517.568 623.158 511.237 595.268H501.319L499.771 593.725L483.682 595.929C482.223 599.24 481.735 605.431 480.921 615.775C480.912 615.886 480.903 615.997 480.895 616.108C480.869 616.43 480.843 616.756 480.817 617.086C488.701 614.833 492.87 613.23 499.771 609.593L507.044 654.552L509.966 656.955C509.967 656.956 509.968 656.956 509.968 656.957C544.563 685.399 564.842 702.071 598.504 731.027C598.508 730.952 598.512 730.878 598.516 730.804C598.522 730.702 598.527 730.601 598.533 730.501C598.543 730.31 598.554 730.121 598.564 729.934C598.577 729.678 598.591 729.426 598.604 729.177C598.607 729.121 598.61 729.064 598.613 729.008C598.614 729.001 598.614 728.993 598.615 728.986C598.921 723.251 599.123 719.476 600.267 714.057C630.007 730.399 646.743 739.181 676.962 752.184C705.629 718.696 722.032 700.583 752.554 670.861C752.618 669.01 752.654 667.266 752.689 665.606C752.689 665.603 752.689 665.6 752.689 665.598C752.895 655.753 753.039 648.861 758.284 640.227C760.202 640.951 761.513 642.497 764.455 648.161C767.02 639.748 768.253 637.092 770.185 635.379H774.152Z" fill="#C5B5A5"/>
<path d="M621.871 498.358C595.197 509.272 584.131 509.209 576.03 500.281C572.658 497.144 569.07 494.249 566.113 491.318C566.125 491.359 566.137 491.399 566.149 491.44C571.592 509.752 566.863 511.914 558.179 515.488C560.979 516.344 563.627 517.048 566.149 517.601C588.836 522.577 601.296 515.418 621.74 498.467C621.784 498.43 621.827 498.394 621.871 498.358Z" fill="#A4395B"/>
<path d="M552.669 441.217C547.576 450.562 545.376 455.824 542.311 465.24L552.669 464.64L568.978 463.697C578.217 466.287 590.843 467.854 603.383 469.411L603.384 469.411C612.585 470.554 620.082 471.69 627.821 473.221C631.634 473.975 635.439 474.605 638.4 475.598C634.827 474.707 631.089 474.069 627.821 473.221C600.123 466.037 583.713 459.653 552.669 441.217Z" fill="#FEBD87"/>
<path d="M789.586 532.725C785.239 535.321 779.965 536.881 771.514 538.629C767.674 548.872 771.528 553.686 777.064 560.6C777.065 560.601 777.066 560.602 777.067 560.603C777.072 560.609 777.076 560.615 777.081 560.621C777.606 561.277 778.146 561.951 778.696 562.651C783.305 562.098 785.837 559.99 789.586 532.725Z" fill="black"/>
<path d="M720.825 502.265C732.678 502.059 735.811 500.502 740.439 482.871C736.693 479.565 732.47 474.796 725.233 474.716C716.79 476.99 713.963 479.061 711.348 483.752C708.864 497.432 714.931 498.781 720.825 502.265Z" fill="#AC3131"/>
<path fill-rule="evenodd" clip-rule="evenodd" d="M627.821 473.221C631.634 473.975 635.439 474.605 638.4 475.598C634.827 474.707 631.089 474.069 627.821 473.221ZM632.574 493.238C635.103 483.625 635.358 477.6 618.614 474.432C614.619 473.377 611.1 473.023 608.207 473.221C604.333 473.487 600.212 480.537 598.951 482.43C597.11 485.191 607.366 498.944 621.74 498.467C623.698 498.402 625.731 498.073 627.821 497.416L630.621 494.955L632.574 493.238Z" fill="#AC3131"/>
<path d="M568.978 463.697L552.669 464.64C554.455 474.511 555.624 480.921 566.149 491.44C566.137 491.399 566.125 491.359 566.113 491.318C569.07 494.249 572.658 497.144 576.03 500.281C584.131 509.209 595.197 509.272 621.871 498.358L627.821 497.416C625.731 498.073 623.698 498.402 621.74 498.467C607.366 498.944 597.11 485.191 598.951 482.43C600.212 480.537 604.333 473.487 608.207 473.221C611.1 473.023 614.619 473.377 618.614 474.432C635.358 477.6 635.103 483.625 632.574 493.238L658.676 480.667L638.4 475.598C634.827 474.707 631.089 474.069 627.821 473.221C620.082 471.69 612.585 470.554 603.384 469.411L603.383 469.411C590.843 467.854 578.217 466.287 568.978 463.697Z" fill="black"/>
<path d="M655.805 510.419C651.814 519.612 660.133 525.237 671.183 535.102C672.948 523.468 674.408 516.833 664.406 507.995C660.976 505.691 659.108 506.956 655.805 510.419Z" fill="black"/>
<path d="M669.254 541.714H678.51H686.444H694.378C686.128 535.826 683.297 527.709 680.714 506.672H674.764C674.342 519.069 673.481 526.42 671.183 535.102C670.629 537.199 669.99 539.373 669.254 541.714Z" fill="#B74A5F"/>
<path d="M557.292 605.186C612.024 585.936 656.479 583.984 756.301 593.725C740.764 584.982 731.08 580.243 686.444 576.315C684.575 562.171 683.205 554.136 686.444 541.714H678.51C680.32 556.844 679.519 564.481 678.51 578.298H615.921L587.931 545.901L561.264 553.395L499.771 465.24L535.479 420.727L520.052 411.758C504.465 428.18 491.957 443.225 473.324 467.223C511.008 526.701 514.973 531.995 521.809 541.125L522.25 541.714C535.292 570.319 543.068 582.644 556.522 603.966L556.523 603.967L557.292 605.186Z" fill="#B74A5F"/>
<path d="M756.301 593.725C656.479 583.984 612.024 585.936 557.292 605.186C629.135 596.613 675.627 597.603 756.521 597.472L756.301 593.725Z" fill="black"/>
<path d="M655.805 430.639C625.066 419.667 610.114 415.676 595.975 411.902C581.347 407.997 567.589 404.325 538.118 393.393C531.442 399.99 525.555 405.959 520.052 411.758L535.479 420.727L576.03 444.303C607.397 457.412 625.957 454.572 667.271 467.223C689.296 455.185 703.308 448.302 734.93 435.487C745.328 459.373 751.609 469.524 762.555 489.482C765.56 479.143 768.408 466.967 771.067 451.355L724.565 410.363C693.921 418.052 678.041 422.444 655.805 430.639Z" fill="#FEBD87"/>
<path d="M811.773 464.578L793.701 481.328L779.889 499.4C779.539 510.675 778.45 515.344 776.665 523.004C776.566 523.428 776.465 523.86 776.362 524.303C791.079 524.594 794.28 525.577 795.536 528.05C793.599 529.949 791.703 531.46 789.586 532.725C785.837 559.99 783.305 562.098 778.696 562.651C779.089 563.151 779.487 563.665 779.889 564.194C774.2 564.274 771.326 563.339 766.665 560.227C763.804 571.963 761.966 577.341 758.511 586.012V594.387L818.23 545.901C818.581 529.237 817.07 485.398 811.773 464.578Z" fill="#B74A5F"/>
<path fill-rule="evenodd" clip-rule="evenodd" d="M756.301 586.012L740.213 549.648C724.726 522.394 717.647 511.441 706.94 496.958C698.147 493.524 686.746 488.709 667.932 481.328L658.676 480.667L632.574 493.238L630.621 494.955C629.538 496.037 628.362 497.246 627.821 497.416C625.731 498.073 623.698 498.402 621.74 498.467C601.296 515.418 588.836 522.577 566.149 517.601L587.931 545.901L615.921 578.298H678.51C679.519 564.481 680.32 556.844 678.51 541.714H669.254C669.99 539.373 670.629 537.199 671.183 535.102C660.133 525.237 651.814 519.612 655.805 510.419C659.108 506.956 660.976 505.691 664.406 507.995C674.408 516.833 672.948 523.468 671.183 535.102C673.481 526.42 674.342 519.069 674.764 506.672H680.714C683.297 527.709 686.128 535.826 694.378 541.714H686.444C683.205 554.136 684.575 562.171 686.444 576.315C731.08 580.243 740.764 584.982 756.301 593.725V586.012ZM699.227 518.133C698.566 523.422 693.497 528.27 688.099 535.102C681.596 521.302 683.441 510.677 689.971 507.995C696.501 505.313 698.7 509.759 699.227 518.133Z" fill="#FEBD87"/>
<path d="M737.354 453.78C712.148 464.966 695.696 470.717 667.932 481.328C691.247 475.097 704.317 471.674 727.657 469.527H743.304C741.529 461.986 740.125 458.805 737.354 453.78Z" fill="#FEBD87"/>
<path d="M720.825 502.265C714.931 498.781 708.864 497.432 711.348 483.752C713.963 479.061 716.79 476.99 725.233 474.716C732.47 474.796 736.693 479.565 740.439 482.871C738.968 477.3 736.535 471.561 727.657 469.527C704.317 471.674 691.247 475.097 667.932 481.328C686.746 488.709 698.147 493.524 706.94 496.958C711.538 498.754 716.966 501.054 720.825 502.265Z" fill="black"/>
<path d="M387.374 508.876L371.291 506.011L380.547 514.166C387.711 529.779 392.29 538.021 401.919 551.631L387.374 556.26L389.362 563.092C398.202 559.803 403.111 558.117 410.858 558.243L409.755 537.086L387.374 508.876Z" fill="black"/>
<path d="M387.374 460.391L347.704 436.369C319.598 468.917 311.387 485.377 321.478 508.876L343.963 554.496C352.226 561.513 356.834 565.459 364.899 572.568L412.283 585.571L410.858 558.243C403.111 558.117 398.202 559.803 389.362 563.092L387.374 556.26L367.544 537.086L354.762 506.011L347.924 495.873L387.374 460.391Z" fill="#D15F6F"/>
<path d="M406.112 467.223C398.36 467.729 394.153 466.952 387.374 460.391L347.924 495.873L354.762 506.011L367.544 537.086L387.374 556.26L401.919 551.631C392.29 538.021 387.711 529.779 380.547 514.166L371.291 506.011L387.374 508.876L409.755 537.086L406.112 467.223Z" fill="#B74A5F"/>
<path d="M415.143 965.739C334.927 958.907 218.694 985.879 248.53 846.95C278.366 708.022 88.9745 690.035 77.9504 697.528C66.9263 705.021 63.6297 719.346 77.9504 727.941C92.2711 736.536 243.686 721.109 220.1 846.95C196.865 970.918 271.377 1005.29 391.811 987.939L397.301 987.117L415.143 965.739Z" fill="#211F27"/>
<path d="M515.204 993.288L528.201 965.739L481.594 961.38L455.479 958.907L448.426 984.913L515.204 993.288Z" fill="#6B304C"/>
<path d="M672.119 954.459L528.201 965.739L515.204 993.288L672.119 982.929V954.459Z" fill="#6B304C"/>
<path d="M676.962 884.416L527.253 887.314L536.361 952.075L702.533 941.056L692.782 919.458L676.962 884.416Z" fill="#6B304C"/>
<path d="M702.533 941.056L536.361 952.075L528.201 965.739L672.119 954.459L702.533 952.075V941.056Z" fill="black"/>
<path d="M667.271 467.223C625.957 454.572 607.397 457.412 576.03 444.303L535.479 420.727L499.771 465.24L561.264 553.395L587.931 545.901L566.149 517.601C563.627 517.048 560.979 516.344 558.179 515.488C566.863 511.914 571.592 509.752 566.149 491.44C555.624 480.921 554.455 474.511 552.669 464.64L542.311 465.24C545.376 455.824 547.576 450.562 552.669 441.217C583.713 459.653 600.123 466.037 627.821 473.221C631.634 473.975 635.439 474.605 638.4 475.598L658.676 480.667L667.932 481.328C695.696 470.717 712.148 464.966 737.354 453.78C740.125 458.805 741.529 461.986 743.304 469.527H727.657C736.535 471.561 738.968 477.3 740.439 482.871C735.811 500.502 732.678 502.059 720.825 502.265C716.966 501.054 711.538 498.754 706.94 496.958C717.647 511.441 724.726 522.394 740.213 549.648C743.501 540.244 746.714 532.346 749.826 524.694L749.827 524.692L749.827 524.691C754.3 513.694 758.567 503.205 762.555 489.482C751.609 469.524 745.328 459.373 734.93 435.487C703.308 448.302 689.296 455.185 667.271 467.223Z" fill="#6C5C5C"/>
<path d="M536.361 952.075L527.253 887.314L447.693 885.249L454.058 945.464L536.361 952.075Z" fill="#6B304C"/>
<path d="M528.201 965.739L536.361 952.075L454.058 945.464L455.479 958.907L481.594 961.38L528.201 965.739Z" fill="black"/>
<path d="M425.501 952.075L415.143 965.739L397.301 987.117C500.317 1032.64 562.528 1042.22 692.782 990.19L711.343 974.114L713.552 916.372L692.782 919.458L702.533 941.056V952.075L672.119 954.459V982.929L515.204 993.288L448.426 984.913L455.479 958.907L454.058 945.464L447.693 885.249L415.583 884.416L410.185 911.945L408.972 918.135C410.648 923.135 412.137 927.304 413.837 931.291C414.376 932.526 414.941 933.78 415.521 935.03C417.973 940.186 421.001 945.381 425.501 952.075Z" fill="#3F2F3D"/>
<path fill-rule="evenodd" clip-rule="evenodd" d="M587.711 754.829L630.686 767.611L642.367 752.184L681.596 776.426C696.253 759.98 707.135 753.517 728.979 744.47C713.672 761.359 706.305 770.436 697.464 785.242C703.766 788.036 707.292 788.181 713.552 787.446L696.46 822.267L687.546 792.515L665.508 815.215L659.116 796.041L642.367 798.465L600.267 780.366C596.838 772.635 592.747 764.631 587.711 754.829Z" fill="#D2CFC9"/>
<path d="M646.995 868.769C673.305 855.876 681.721 846.89 692.782 829.76L696.46 822.267L687.546 792.515L665.508 815.215L659.116 796.041L642.367 798.465L600.267 780.366C605.045 791.137 608.539 801.378 611.513 815.215C618.234 810.161 620.472 806.477 621.871 798.465C628.548 819.972 628.449 832.493 628.282 853.506L628.281 853.547L628.281 853.606L628.28 853.688L628.279 853.809C628.273 854.524 628.268 855.25 628.262 855.986C629.05 855.608 629.814 855.244 630.556 854.891L630.634 854.854L630.636 854.852C639.726 850.524 645.496 847.776 652.505 839.016C649.602 849.502 648.556 856.266 646.995 868.769Z" fill="#C5B5A5"/>
<path fill-rule="evenodd" clip-rule="evenodd" d="M774.152 635.379H770.185C768.253 637.092 767.02 639.748 764.455 648.161C761.513 642.497 760.202 640.951 758.284 640.227C753.039 648.861 752.895 655.753 752.689 665.598L752.689 665.606C752.654 667.266 752.618 669.01 752.554 670.861C722.032 700.583 705.629 718.696 676.962 752.184C646.743 739.181 630.007 730.399 600.267 714.057C599.123 719.476 598.921 723.251 598.615 728.986L598.613 729.008L598.604 729.177L598.564 729.934L598.533 730.501L598.516 730.804L598.504 731.027C564.842 702.071 544.563 685.399 509.968 656.957L509.966 656.955L507.044 654.552L499.771 609.593C492.87 613.23 488.701 614.833 480.817 617.086L480.895 616.108L480.921 615.775C481.735 605.431 482.223 599.24 483.682 595.929C481.97 596.133 480.136 596.399 478.364 596.656C474.502 597.216 470.938 597.733 469.578 597.472C467.594 597.091 492.737 572.395 509.909 565.295C505.869 564.589 502.089 564.059 498.548 563.563C489.693 562.321 482.338 561.289 476.19 558.243C486.186 551.431 498.712 548.058 516.315 543.318L516.336 543.312C518.246 542.798 520.217 542.267 522.25 541.714L521.809 541.125C514.973 531.995 511.008 526.701 473.324 467.223C491.957 443.225 504.465 428.18 520.052 411.758C525.555 405.959 531.442 399.99 538.118 393.393C567.589 404.325 581.347 407.997 595.975 411.902C610.114 415.676 625.066 419.667 655.805 430.639C678.041 422.444 693.921 418.052 724.565 410.363L771.067 451.355C768.408 466.967 765.56 479.143 762.555 489.482C758.567 503.205 754.3 513.694 749.827 524.691L749.827 524.692L749.826 524.694C746.714 532.346 743.501 540.244 740.213 549.648L756.301 586.012V593.725L756.521 597.472L762.037 602.761L770.185 605.186C771.722 603.581 773.217 602.022 774.673 600.504L774.673 600.504L774.674 600.503L774.675 600.502C795.07 579.241 807.797 565.973 818.23 545.901L758.511 594.387V586.012C761.966 577.341 763.804 571.963 766.665 560.227C771.326 563.339 774.2 564.274 779.889 564.194C779.487 563.665 779.089 563.151 778.696 562.651C778.146 561.951 777.606 561.277 777.081 560.621L777.067 560.603L777.064 560.6C771.528 553.686 767.674 548.872 771.514 538.629C779.965 536.881 785.239 535.321 789.586 532.725C791.703 531.46 793.599 529.949 795.536 528.05C794.28 525.577 791.079 524.594 776.362 524.303C776.465 523.86 776.566 523.428 776.665 523.004C778.45 515.344 779.539 510.675 779.889 499.4L793.701 481.328C792.453 477.937 791.447 475.328 790.635 473.221C789.113 469.273 788.271 467.086 787.786 464.824C787.185 462.016 787.136 459.091 787.024 452.536C787 451.084 786.972 449.455 786.935 447.609L784.549 445.236C705.063 366.183 654.683 316.076 535.693 278.131C464.066 330.74 433.541 373.278 387.374 460.391C394.153 466.952 398.36 467.729 406.112 467.223L409.755 537.086L410.858 558.243L412.283 585.571L364.899 572.568C356.834 565.459 352.226 561.513 343.963 554.496L321.478 508.876C319.579 511.47 319.247 513.72 321.478 520.777C330.089 537.373 336.149 550.322 347.924 576.315L414.261 602.1L415.583 623.918C407.635 626.792 403.869 629.571 401.919 642.651C398.726 667.268 402.464 709.83 406.485 755.606C411.441 812.032 416.825 873.342 410.185 911.945L415.583 884.416L447.693 885.249L527.253 887.314L676.962 884.416L692.782 919.458L713.552 916.372L711.343 974.114L692.782 990.19C562.528 1042.22 500.317 1032.64 397.301 987.117C395.461 987.402 393.63 987.676 391.811 987.939L356.084 993.288L321.042 1099.29L336.91 1100.34L420.217 1105.81L448.426 1107.67C448.426 1107.67 445.341 1090.04 462.018 1080.12C477.075 1071.17 505.773 1083.2 515.865 1087.44C516.951 1087.89 517.822 1088.26 518.437 1088.49C548.652 1100.23 548.802 1100.23 569.87 1099.66H569.873C575.811 1099.5 583.409 1099.29 593.81 1099.29C601.297 1097.41 608.829 1095.68 616.306 1093.96C647.346 1086.82 677.453 1079.89 699.595 1063.37L758.952 1077.26L760.935 1109.21L792.671 1107.08L867.162 1102.08L885.675 1100.84L874.435 1004.53L780.77 982.929L719.503 969.486V918.135L713.552 849.595L743.525 764.085L771.067 668.216L770.185 654.773L774.152 635.379ZM461.649 709.429L453.202 741.385L447.693 718.465L437.555 773.782L432.045 721.109L422.789 789.429L453.202 854.223L464.955 838.135L487.583 849.235L491.329 843.064L464.955 803.093L461.649 709.429ZM587.711 754.829L630.686 767.611L642.367 752.184L681.596 776.426C696.253 759.98 707.135 753.517 728.979 744.47C713.672 761.359 706.305 770.436 697.464 785.242C703.766 788.036 707.292 788.181 713.552 787.446L696.46 822.267L692.782 829.76C681.721 846.89 673.305 855.876 646.995 868.769C648.556 856.266 649.602 849.502 652.505 839.016C645.496 847.776 639.726 850.524 630.636 854.852L630.634 854.854L630.556 854.891C629.814 855.244 629.05 855.608 628.262 855.986C628.268 855.25 628.273 854.524 628.279 853.809L628.28 853.688L628.281 853.606L628.281 853.547L628.282 853.506C628.449 832.493 628.548 819.972 621.871 798.465C620.472 806.477 618.234 810.161 611.513 815.215C608.539 801.378 605.045 791.137 600.267 780.366C596.838 772.635 592.747 764.631 587.711 754.829Z" fill="#211F27"/>
<path d="M461.649 803.093V709.429L453.202 741.385L447.693 718.465L437.555 773.782L432.045 721.109L422.789 789.429L453.202 854.223L464.955 838.135L487.583 849.235L461.649 803.093Z" fill="#D2CFC9"/>
<path d="M461.649 709.429V803.093L487.583 849.235L491.329 843.064L464.955 803.093L461.649 709.429Z" fill="#D2CFC9"/>
<path d="M786.935 447.609L784.549 445.236M786.935 447.609C786.137 446.815 785.342 446.024 784.549 445.236M786.935 447.609C786.972 449.455 787 451.084 787.024 452.536C787.136 459.091 787.185 462.016 787.786 464.824C788.271 467.086 789.113 469.273 790.635 473.221C791.447 475.328 792.453 477.937 793.701 481.328M793.701 481.328L811.772 464.578C817.07 485.398 818.581 529.237 818.23 545.901M793.701 481.328L779.889 499.4C779.539 510.675 778.45 515.344 776.665 523.004C776.566 523.428 776.465 523.86 776.362 524.303C791.079 524.594 794.28 525.577 795.536 528.05C793.6 529.949 791.703 531.46 789.586 532.725M818.23 545.901L758.511 594.387V586.012C761.966 577.341 763.804 571.963 766.665 560.227C771.326 563.339 774.2 564.274 779.889 564.194C779.487 563.665 779.089 563.151 778.696 562.651M818.23 545.901C807.797 565.973 795.07 579.241 774.675 600.502L774.674 600.503L774.673 600.504L774.673 600.504C773.217 602.022 771.722 603.581 770.185 605.186M770.185 605.186C773.81 616.232 775.772 622.451 774.152 635.379M770.185 605.186L762.037 602.761M774.152 635.379H770.185C768.253 637.092 767.02 639.748 764.455 648.161C761.513 642.497 760.202 640.951 758.284 640.227C753.039 648.861 752.895 655.753 752.689 665.598M774.152 635.379L770.185 654.773L771.067 668.216L743.525 764.085L713.552 849.595L719.503 918.135V969.486L780.77 982.929L874.435 1004.53L885.675 1100.84L867.162 1102.08M598.504 731.027C564.842 702.071 544.563 685.399 509.968 656.957M598.504 731.027L598.516 730.804M598.504 731.027C598.508 730.952 598.512 730.878 598.516 730.804M507.044 654.552L499.771 609.593C492.87 613.23 488.701 614.833 480.817 617.086M507.044 654.552L509.966 656.955M507.044 654.552C508.029 655.363 509.003 656.164 509.966 656.955M480.817 617.086L480.895 616.108M480.817 617.086C480.843 616.756 480.869 616.43 480.895 616.108M483.682 595.929L499.771 593.725L501.319 595.268H511.237C517.568 623.158 521.222 636.865 528.206 652.348L530.851 622.596C540.554 636.939 545.906 644.996 557.738 658.96C562.248 657.046 564.084 655.359 566.113 651.246C568.028 665.602 570.262 673.87 577.132 689.153C577.559 678.984 576.678 672.19 572.504 657.417C587.609 675.78 596.584 685.469 615.48 699.291C615.005 686.775 614.442 679.744 611.513 667.114C627.636 684.113 635.436 694.061 649.199 711.853L652.505 692.459L681.596 730.586C691.392 719.594 696.752 713.52 701.431 705.903C704.872 705.874 706.802 705.443 710.246 703.919C716.41 697.161 719.213 691.149 723.69 678.575C724.969 663.68 725.975 655.629 732.726 646.398C733.521 652.915 733.846 657.413 734.048 668.216C742.073 656.848 747.958 654.211 748.373 622.376L764.455 627.885C764.462 619.456 763.718 613.645 762.037 602.761M483.682 595.929C481.97 596.133 480.136 596.399 478.364 596.656C474.502 597.216 470.938 597.733 469.578 597.472C467.594 597.091 492.737 572.394 509.908 565.295C505.869 564.589 502.089 564.059 498.548 563.563C489.693 562.321 482.338 561.289 476.19 558.243C486.186 551.431 498.712 548.058 516.315 543.318M483.682 595.929C482.223 599.24 481.735 605.431 480.921 615.775M522.25 541.714L521.809 541.125M522.25 541.714C522.101 541.516 521.955 541.319 521.809 541.125M522.25 541.714C535.292 570.319 543.068 582.644 556.522 603.966L556.523 603.967M522.25 541.714C520.217 542.267 518.246 542.798 516.336 543.312M740.213 549.648L756.301 586.012V593.725M740.213 549.648C724.726 522.394 717.647 511.441 706.94 496.958M740.213 549.648C743.501 540.244 746.714 532.346 749.826 524.694L749.827 524.692L749.827 524.691C754.3 513.694 758.567 503.205 762.555 489.482M756.301 593.725C656.479 583.984 612.024 585.936 557.292 605.186M756.301 593.725L756.521 597.472M756.301 593.725C740.764 584.982 731.08 580.243 686.444 576.315C684.575 562.171 683.205 554.136 686.444 541.714M557.292 605.186C629.135 596.613 675.627 597.603 756.521 597.472M557.292 605.186L556.523 603.967M557.292 605.186C557.033 604.776 556.777 604.37 556.523 603.967M756.521 597.472L762.037 602.761M387.374 460.391C433.541 373.278 464.066 330.74 535.693 278.131C654.683 316.076 705.063 366.183 784.549 445.236M387.374 460.391L347.704 436.369C319.598 468.917 311.387 485.377 321.478 508.876M387.374 460.391C394.153 466.952 398.36 467.729 406.112 467.223L409.755 537.086M387.374 460.391L347.924 495.873L354.762 506.011L367.544 537.086L387.374 556.26M321.478 508.876C319.579 511.47 319.247 513.72 321.478 520.777C330.089 537.373 336.149 550.322 347.924 576.315L414.261 602.1L415.583 623.918C407.635 626.792 403.869 629.571 401.919 642.651C398.726 667.268 402.464 709.83 406.485 755.606C411.441 812.032 416.825 873.342 410.185 911.945M321.478 508.876L343.963 554.496C352.226 561.513 356.834 565.459 364.899 572.568L412.283 585.571L410.858 558.243M408.972 918.135C410.648 923.135 412.137 927.304 413.837 931.291M408.972 918.135C409.655 920.986 411.512 925.964 413.837 931.291M408.972 918.135L410.185 911.945M408.972 918.135C409.414 916.144 409.818 914.079 410.185 911.945M425.501 952.075L415.143 965.739M425.501 952.075C421.001 945.381 417.973 940.186 415.521 935.03M425.501 952.075C422.752 949.324 418.865 942.232 415.521 935.03M415.143 965.739C334.927 958.907 218.694 985.879 248.53 846.95C278.366 708.022 88.9745 690.035 77.9504 697.528C66.9263 705.021 63.6297 719.346 77.9504 727.941C92.2711 736.536 243.686 721.109 220.1 846.95C196.865 970.918 271.377 1005.29 391.811 987.939M415.143 965.739L397.301 987.117M397.301 987.117C500.317 1032.64 562.528 1042.22 692.782 990.19L711.343 974.114L713.552 916.372L692.782 919.458M397.301 987.117C395.461 987.402 393.63 987.676 391.811 987.939M397.301 987.117L391.811 987.939M461.649 709.429V803.093L487.583 849.235M461.649 709.429L464.955 803.093L491.329 843.064L487.583 849.235M461.649 709.429L453.202 741.385L447.693 718.465L437.555 773.782L432.045 721.109L422.789 789.429L453.202 854.223L464.955 838.135L487.583 849.235M527.253 887.314L676.962 884.416L692.782 919.458M527.253 887.314L536.361 952.075M527.253 887.314L447.693 885.249M702.533 941.056L536.361 952.075M702.533 941.056V952.075L672.119 954.459M702.533 941.056L692.782 919.458M536.361 952.075L528.201 965.739M536.361 952.075L454.058 945.463M528.201 965.739L672.119 954.459M528.201 965.739L515.204 993.288M528.201 965.739L481.594 961.38L455.479 958.907M672.119 954.459V982.929L515.204 993.288M515.204 993.288L448.426 984.913L455.479 958.907M455.479 958.907L454.058 945.463M792.671 1107.08L760.935 1109.21L758.952 1077.26L699.595 1063.37C677.453 1079.89 647.346 1086.82 616.306 1093.96C608.829 1095.68 601.297 1097.41 593.809 1099.29C583.409 1099.29 575.811 1099.5 569.873 1099.66M792.671 1107.08L789.806 1175.99L955.024 1179.96C927.178 1151.83 911.348 1137.54 867.162 1130.81V1102.08M792.671 1107.08L867.162 1102.08M336.91 1100.34L321.042 1099.29L356.084 993.288L391.811 987.939M336.91 1100.34L332.062 1129.27C303.069 1142.96 288.968 1155.03 265.284 1179.51H403.026V1155.27L420.217 1105.81M336.91 1100.34L420.217 1105.81M420.217 1105.81L448.426 1107.67C448.426 1107.67 445.341 1090.04 462.018 1080.12C477.075 1071.17 505.773 1083.2 515.865 1087.44C516.951 1087.89 517.822 1088.26 518.437 1088.49C548.652 1100.23 548.802 1100.23 569.87 1099.66M600.267 780.366C605.045 791.137 608.539 801.378 611.513 815.215C618.234 810.161 620.472 806.477 621.871 798.465C628.548 819.972 628.449 832.493 628.282 853.506M600.267 780.366C596.838 772.635 592.747 764.631 587.711 754.829L630.686 767.611L642.367 752.184L681.596 776.426C696.252 759.98 707.135 753.517 728.979 744.47C713.672 761.359 706.305 770.436 697.464 785.242C703.766 788.036 707.292 788.181 713.552 787.446L696.46 822.267M600.267 780.366L642.367 798.465L659.116 796.041L665.508 815.215L687.546 792.515L696.46 822.267M696.46 822.267L692.782 829.76C681.721 846.89 673.305 855.876 646.995 868.769C648.556 856.266 649.602 849.502 652.505 839.016C645.496 847.776 639.726 850.524 630.636 854.852M520.052 411.758C504.465 428.18 491.957 443.225 473.324 467.223C511.008 526.701 514.973 531.995 521.809 541.125M520.052 411.758C525.555 405.959 531.442 399.99 538.118 393.393C567.589 404.325 581.347 407.997 595.975 411.902C610.114 415.676 625.066 419.667 655.805 430.639C678.041 422.444 693.921 418.052 724.565 410.363L771.067 451.355C768.408 466.967 765.56 479.143 762.555 489.482M520.052 411.758L535.479 420.727M762.555 489.482C751.609 469.524 745.328 459.373 734.93 435.487C703.308 448.302 689.296 455.185 667.271 467.223C625.957 454.572 607.397 457.412 576.03 444.303L535.479 420.727M535.479 420.727L499.771 465.24L561.264 553.395L587.931 545.901M587.931 545.901L615.921 578.298H678.511C679.519 564.481 680.32 556.844 678.511 541.714M587.931 545.901L566.149 517.601M678.511 541.714H669.254C669.99 539.373 670.629 537.199 671.183 535.102M678.511 541.714H686.444M686.444 541.714H694.378C686.128 535.826 683.297 527.709 680.714 506.672H674.764C674.342 519.069 673.481 526.42 671.183 535.102M671.183 535.102C660.133 525.237 651.814 519.612 655.805 510.419C659.108 506.956 660.976 505.691 664.406 507.995C674.408 516.833 672.948 523.468 671.183 535.102ZM638.4 475.598L658.676 480.667M638.4 475.598C635.439 474.605 631.634 473.975 627.821 473.221M638.4 475.598C634.827 474.707 631.089 474.069 627.821 473.221M552.669 464.64L568.978 463.697C578.217 466.287 590.843 467.854 603.383 469.411L603.384 469.411C612.585 470.554 620.082 471.69 627.821 473.221M552.669 464.64L542.311 465.24C545.376 455.824 547.576 450.562 552.669 441.217C583.713 459.653 600.123 466.037 627.821 473.221M552.669 464.64C554.455 474.511 555.624 480.921 566.149 491.44M576.03 500.281C584.131 509.209 595.197 509.272 621.871 498.358M576.03 500.281C572.658 497.144 569.07 494.249 566.113 491.318C566.125 491.359 566.137 491.399 566.149 491.44M576.03 500.281C572.038 496.993 568.798 494.087 566.149 491.44M658.676 480.667L667.932 481.328M658.676 480.667L632.574 493.238M621.871 498.358L627.821 497.416M621.871 498.358C621.827 498.394 621.784 498.43 621.74 498.467M667.932 481.328C686.746 488.709 698.147 493.524 706.94 496.958M667.932 481.328C695.696 470.717 712.147 464.966 737.354 453.78C740.125 458.805 741.529 461.986 743.304 469.527H727.657M667.932 481.328C691.247 475.097 704.317 471.674 727.657 469.527M740.439 482.871C735.811 500.502 732.678 502.059 720.825 502.265M740.439 482.871C736.693 479.565 732.47 474.796 725.233 474.716C716.79 476.99 713.963 479.061 711.348 483.752C708.864 497.432 714.931 498.781 720.825 502.265M740.439 482.871C738.968 477.3 736.535 471.561 727.657 469.527M720.825 502.265C716.966 501.054 711.538 498.754 706.94 496.958M509.966 656.955L509.968 656.957M509.966 656.955C509.967 656.956 509.968 656.956 509.968 656.957M789.586 532.725C785.239 535.321 779.965 536.881 771.514 538.629C767.674 548.872 771.528 553.686 777.064 560.6M789.586 532.725C785.837 559.99 783.305 562.098 778.696 562.651M778.696 562.651C778.146 561.951 777.606 561.277 777.081 560.621M632.574 493.238C635.103 483.625 635.358 477.6 618.614 474.432C614.619 473.377 611.1 473.023 608.207 473.221C604.333 473.487 600.212 480.537 598.951 482.43C597.11 485.191 607.366 498.944 621.74 498.467M632.574 493.238L630.621 494.955M632.574 493.238C632.167 493.429 631.419 494.157 630.621 494.955M627.821 497.416C628.362 497.246 629.538 496.037 630.621 494.955M627.821 497.416C625.731 498.073 623.698 498.402 621.74 498.467M627.821 497.416L630.621 494.955M566.149 491.44C571.592 509.752 566.863 511.914 558.179 515.488C560.979 516.344 563.627 517.048 566.149 517.601M566.149 517.601C588.836 522.577 601.296 515.418 621.74 498.467M409.755 537.086L387.374 508.876L371.291 506.011L380.547 514.166C387.711 529.779 392.29 538.021 401.919 551.631L387.374 556.26M409.755 537.086L410.858 558.243M410.858 558.243C403.111 558.117 398.202 559.803 389.362 563.092L387.374 556.26M777.064 560.6L777.067 560.603M777.064 560.6C777.065 560.601 777.066 560.602 777.067 560.603M516.315 543.318L516.336 543.312M516.315 543.318C516.322 543.316 516.329 543.314 516.336 543.312M480.921 615.775L480.895 616.108M480.921 615.775C480.912 615.886 480.903 615.997 480.895 616.108M598.614 728.986C598.921 723.251 599.123 719.476 600.267 714.057C630.007 730.399 646.743 739.181 676.962 752.184C705.629 718.696 722.032 700.583 752.554 670.861C752.618 669.01 752.654 667.266 752.689 665.606M598.614 728.986L598.613 729.008M598.614 728.986C598.614 728.993 598.614 729.001 598.613 729.008M752.689 665.598L752.689 665.606M752.689 665.598C752.689 665.6 752.689 665.603 752.689 665.606M628.282 853.506L628.281 853.547M628.282 853.506C628.281 853.519 628.281 853.533 628.281 853.547M630.636 854.852L630.634 854.854M630.636 854.852C630.636 854.853 630.635 854.853 630.634 854.854M598.613 729.008L598.604 729.177M598.613 729.008C598.61 729.064 598.607 729.121 598.604 729.177M777.067 560.603L777.081 560.621M777.067 560.603C777.072 560.609 777.076 560.615 777.081 560.621M630.634 854.854L630.556 854.891M630.634 854.854C630.608 854.866 630.582 854.878 630.556 854.891M628.281 853.547L628.281 853.606M628.281 853.547C628.281 853.566 628.281 853.586 628.281 853.606M598.564 729.934L598.604 729.177M598.564 729.934L598.533 730.501M598.564 729.934C598.554 730.121 598.543 730.31 598.533 730.501M598.564 729.934C598.577 729.678 598.591 729.426 598.604 729.177M628.281 853.606L628.28 853.688M628.281 853.606C628.281 853.633 628.28 853.661 628.28 853.688M630.556 854.891C629.814 855.244 629.05 855.608 628.262 855.986C628.268 855.25 628.273 854.524 628.279 853.809M413.837 931.291C414.376 932.526 414.941 933.78 415.521 935.03M413.837 931.291C414.373 932.548 414.931 933.788 415.521 935.03M447.693 885.249L415.583 884.416L410.185 911.945M447.693 885.249L454.058 945.463M598.533 730.501L598.516 730.804M598.533 730.501C598.527 730.601 598.522 730.702 598.516 730.804M628.28 853.688L628.279 853.809M628.28 853.688C628.28 853.728 628.279 853.768 628.279 853.809M569.87 1099.66H569.873M569.87 1099.66C569.871 1099.66 569.872 1099.66 569.873 1099.66M688.099 535.102C693.497 528.27 698.566 523.422 699.227 518.133C698.7 509.759 696.501 505.313 689.971 507.995C683.441 510.677 681.596 521.302 688.099 535.102Z" stroke="black" stroke-width="0.440775"/>
<path d="M500.175 898.624C481.792 864.369 470.961 844.755 460.726 803.754C458.57 763.701 461.54 747.344 464.473 714.276L414.665 623.697C404.849 628.278 402.084 633.519 400.56 646.177C378.559 714.763 349.431 815.434 350.532 828.878C351.634 842.321 389.071 893.85 410.478 926.115L500.175 898.624Z" fill="#211F27"/>
<path d="M525.961 934.664L512.737 894.774L500.175 898.624L410.478 926.115L400.56 929.154L414.665 967.722L424.582 964.776L514.28 938.133L525.961 934.664Z" fill="#401945"/>
<path d="M424.582 964.776C433.356 991.82 438.883 1007.02 453.894 1034.5L479.9 1027.89L464.473 983.81L467.338 982.708L482.985 1026.57L508.55 1018.41L491.58 974.995L494.225 973.672L511.415 1017.31L539.184 1008.71C533.974 991.639 530.988 982.128 522.875 967.722C527.473 972.791 535.627 980.504 547.308 985.573L554.14 972.35C548.41 960.89 534.61 942.928 514.28 938.133L424.582 964.776Z" fill="#401945"/>
<path d="M464.473 983.81L479.9 1027.89L482.985 1026.57L467.338 982.708L464.473 983.81Z" fill="black"/>
<path d="M491.58 974.995L508.55 1018.41L511.415 1017.31L494.225 973.672L491.58 974.995Z" fill="black"/>
<path d="M500.175 898.624L512.737 894.774L525.961 934.664L514.28 938.133M500.175 898.624C481.792 864.369 470.961 844.755 460.726 803.754C458.57 763.701 461.54 747.344 464.473 714.276L414.665 623.697C404.849 628.278 402.084 633.519 400.56 646.177C378.559 714.763 349.431 815.434 350.532 828.878C351.634 842.321 389.071 893.85 410.478 926.115M500.175 898.624L410.478 926.115M410.478 926.115L400.56 929.154L414.665 967.722L424.582 964.776M424.582 964.776C433.356 991.82 438.883 1007.02 453.894 1034.5L479.9 1027.89M424.582 964.776L514.28 938.133M479.9 1027.89L464.473 983.81L467.338 982.708L482.985 1026.57M479.9 1027.89L482.985 1026.57M482.985 1026.57L508.55 1018.41M508.55 1018.41L491.58 974.995L494.225 973.672L511.415 1017.31M508.55 1018.41L511.415 1017.31M511.415 1017.31L539.184 1008.71C533.974 991.639 530.988 982.128 522.875 967.722C527.473 972.791 535.627 980.504 547.308 985.573L554.14 972.35C548.41 960.89 534.61 942.928 514.28 938.133" stroke="black" stroke-width="0.440775"/>
<path d="M698.939 841.098L713.908 838.866L712.148 829.184L699.141 827.133L691.592 837.079L695.431 842.013L676.604 883.637L677.644 936.477C680.312 953.361 681.548 962.714 690.468 982.315C712.756 1007.19 724.621 1020.27 729.462 1021.26L695.261 979.037C685.855 959.747 684.349 951.154 680.38 935.072L679.786 884.43L698.939 841.098Z" fill="#3E3030"/>
<path d="M737.659 1037.82C739.454 1032.1 748.844 1024.68 752.364 1025.88C752.598 1023.77 753.282 1022.78 755.402 1021.27C752.918 1019.52 750.706 1018.01 748.803 1016.64C740.826 1011.88 738.879 1009.48 737.288 1005.42L734.224 1006.94L738.603 1014.1C734.833 1015.79 732.863 1017.53 729.462 1021.26C728.382 1024.02 727.645 1025.03 726.307 1026.74C730.784 1030.63 733.252 1033.05 737.659 1037.82Z" fill="#3E3030"/>
<path d="M713.908 838.866L698.939 841.098L679.786 884.43L680.38 935.072C684.349 951.154 685.855 959.747 695.261 979.037L729.462 1021.26C732.863 1017.53 734.833 1015.79 738.603 1014.1L734.224 1006.94L737.288 1005.42C713.646 955.82 697.986 929.599 715.484 852.877L713.281 845.37L704.209 851.059C698.295 873.02 695.638 886.704 691.897 913.194C691.589 871.893 691.734 849.191 714.763 841.019L713.908 838.866Z" fill="#E7A220"/>
<path d="M716.295 913.81C715.349 886.462 715.927 873.176 721.358 857.621L714.763 841.019C691.734 849.191 691.589 871.893 691.897 913.194C695.638 886.704 698.295 873.02 704.209 851.059L713.281 845.37L715.484 852.877C697.986 929.599 713.646 955.82 737.288 1005.42C738.879 1009.48 740.826 1011.88 748.803 1016.64C745.32 1014.14 742.871 1012.13 741.688 1010.09L731.557 969.401L724.526 946.973L716.295 913.81Z" fill="#F4C63F"/>
<path d="M713.908 838.866L698.939 841.098L679.786 884.43L680.38 935.072C684.349 951.154 685.855 959.747 695.261 979.037L729.462 1021.26M713.908 838.866L712.148 829.184L699.141 827.133L691.592 837.079L695.431 842.013L676.604 883.637L677.644 936.477C680.312 953.361 681.548 962.714 690.468 982.315C712.756 1007.19 724.621 1020.27 729.462 1021.26M713.908 838.866L714.763 841.019M729.462 1021.26C728.382 1024.02 727.645 1025.03 726.307 1026.74C730.784 1030.63 733.252 1033.05 737.659 1037.82C739.454 1032.1 748.844 1024.68 752.364 1025.88C752.598 1023.77 753.282 1022.78 755.402 1021.27C752.918 1019.52 750.706 1018.01 748.803 1016.64M729.462 1021.26C732.863 1017.53 734.833 1015.79 738.603 1014.1L734.224 1006.94L737.288 1005.42M714.763 841.019L721.358 857.621C715.927 873.176 715.349 886.462 716.295 913.81L724.526 946.973L731.557 969.401L741.688 1010.09C742.871 1012.13 745.32 1014.14 748.803 1016.64M714.763 841.019C691.734 849.191 691.589 871.893 691.897 913.194C695.638 886.704 698.295 873.02 704.209 851.059L713.281 845.37L715.484 852.877C697.986 929.599 713.646 955.82 737.288 1005.42M737.288 1005.42C738.879 1009.48 740.826 1011.88 748.803 1016.64" stroke="black" stroke-width="0.192887"/>
<path d="M660.662 847.051L675.631 844.82L673.87 835.137L660.864 833.087L653.315 843.033L657.154 847.966L638.327 889.59L639.366 942.43C642.035 959.314 643.27 968.667 652.19 988.268C674.479 1013.14 686.344 1026.23 691.184 1027.21L656.983 984.99C647.578 965.7 646.071 957.107 642.102 941.025L641.509 890.383L660.662 847.051Z" fill="#3E3030"/>
<path d="M699.382 1043.77C701.176 1038.05 710.566 1030.64 714.087 1031.83C714.321 1029.73 715.005 1028.73 717.125 1027.22C714.641 1025.47 712.429 1023.96 710.526 1022.59C702.548 1017.83 700.601 1015.44 699.01 1011.37L695.947 1012.89L700.326 1020.05C696.555 1021.75 694.586 1023.48 691.184 1027.21C690.105 1029.98 689.368 1030.99 688.03 1032.69C692.507 1036.58 694.974 1039.01 699.382 1043.77Z" fill="#3E3030"/>
<path d="M675.631 844.82L660.662 847.051L641.509 890.383L642.102 941.025C646.071 957.107 647.578 965.7 656.983 984.99L691.184 1027.21C694.586 1023.48 696.555 1021.75 700.326 1020.05L695.947 1012.89L699.01 1011.37C675.369 961.774 659.709 935.552 677.207 858.83L675.003 851.323L665.931 857.012C660.018 878.973 657.361 892.658 653.62 919.147C653.311 877.846 653.457 855.144 676.486 846.972L675.631 844.82Z" fill="#E7A220"/>
<path d="M678.017 919.763C677.072 892.415 677.649 879.129 683.081 863.574L676.486 846.972C653.457 855.144 653.311 877.846 653.62 919.147C657.361 892.658 660.018 878.973 665.931 857.012L675.003 851.323L677.207 858.83C659.709 935.552 675.369 961.774 699.01 1011.37C700.601 1015.44 702.548 1017.83 710.526 1022.59C707.042 1020.09 704.594 1018.08 703.411 1016.05L693.28 975.354L686.249 952.926L678.017 919.763Z" fill="#F4C63F"/>
<path d="M675.631 844.82L660.662 847.051L641.509 890.383L642.102 941.025C646.071 957.107 647.578 965.7 656.983 984.99L691.184 1027.21M675.631 844.82L673.87 835.137L660.864 833.087L653.315 843.033L657.154 847.966L638.327 889.59L639.366 942.43C642.035 959.314 643.27 968.667 652.19 988.268C674.479 1013.14 686.344 1026.23 691.184 1027.21M675.631 844.82L676.486 846.972M691.184 1027.21C690.105 1029.98 689.368 1030.99 688.03 1032.69C692.507 1036.58 694.974 1039.01 699.382 1043.77C701.176 1038.05 710.566 1030.64 714.087 1031.83C714.321 1029.73 715.005 1028.73 717.125 1027.22C714.641 1025.47 712.429 1023.96 710.526 1022.59M691.184 1027.21C694.586 1023.48 696.555 1021.75 700.326 1020.05L695.947 1012.89L699.01 1011.37M676.486 846.972L683.081 863.574C677.649 879.129 677.072 892.415 678.017 919.763L686.249 952.926L693.28 975.354L703.411 1016.05C704.594 1018.08 707.042 1020.09 710.526 1022.59M676.486 846.972C653.457 855.144 653.311 877.846 653.62 919.147C657.361 892.658 660.018 878.973 665.931 857.012L675.003 851.323L677.207 858.83C659.709 935.552 675.369 961.774 699.01 1011.37M699.01 1011.37C700.601 1015.44 702.548 1017.83 710.526 1022.59" stroke="black" stroke-width="0.192887"/>
<path d="M621.875 852.34L636.844 850.109L635.083 840.426L622.077 838.376L614.528 848.322L618.367 853.255L599.54 894.879L600.579 947.719C603.247 964.603 604.483 973.956 613.403 993.557C635.692 1018.43 647.557 1031.52 652.397 1032.5L618.196 990.279C608.791 970.989 607.284 962.397 603.315 946.314L602.722 895.673L621.875 852.34Z" fill="#3E3030"/>
<path d="M660.595 1049.06C662.389 1043.34 671.779 1035.93 675.3 1037.12C675.533 1035.02 676.218 1034.02 678.338 1032.51C675.854 1030.76 673.642 1029.25 671.739 1027.88C663.761 1023.12 661.814 1020.73 660.223 1016.66L657.16 1018.18L661.539 1025.34C657.768 1027.04 655.799 1028.77 652.397 1032.5C651.317 1035.26 650.581 1036.27 649.243 1037.98C653.72 1041.87 656.187 1044.29 660.595 1049.06Z" fill="#3E3030"/>
<path d="M636.844 850.109L621.875 852.34L602.722 895.673L603.315 946.314C607.284 962.397 608.791 970.989 618.196 990.279L652.397 1032.5C655.799 1028.77 657.768 1027.04 661.539 1025.34L657.16 1018.18L660.223 1016.66C636.582 967.063 620.922 940.842 638.42 864.119L636.216 856.612L627.144 862.301C621.231 884.262 618.574 897.947 614.833 924.436C614.524 883.135 614.67 860.433 637.699 852.261L636.844 850.109Z" fill="#E7A220"/>
<path d="M639.23 925.052C638.285 897.704 638.862 884.418 644.294 868.864L637.699 852.261C614.67 860.433 614.524 883.135 614.833 924.436C618.574 897.947 621.231 884.262 627.144 862.301L636.216 856.612L638.42 864.119C620.922 940.842 636.582 967.063 660.223 1016.66C661.814 1020.73 663.761 1023.12 671.739 1027.88C668.255 1025.38 665.807 1023.37 664.624 1021.34L654.493 980.643L647.461 958.215L639.23 925.052Z" fill="#F4C63F"/>
<path d="M636.844 850.109L621.875 852.34L602.722 895.673L603.315 946.314C607.284 962.397 608.791 970.989 618.196 990.279L652.397 1032.5M636.844 850.109L635.083 840.426L622.077 838.376L614.528 848.322L618.367 853.255L599.54 894.879L600.579 947.719C603.247 964.603 604.483 973.956 613.403 993.557C635.692 1018.43 647.557 1031.52 652.397 1032.5M636.844 850.109L637.699 852.261M652.397 1032.5C651.317 1035.26 650.581 1036.27 649.243 1037.98C653.72 1041.87 656.187 1044.29 660.595 1049.06C662.389 1043.34 671.779 1035.93 675.3 1037.12C675.533 1035.02 676.218 1034.02 678.338 1032.51C675.854 1030.76 673.642 1029.25 671.739 1027.88M652.397 1032.5C655.799 1028.77 657.768 1027.04 661.539 1025.34L657.16 1018.18L660.223 1016.66M637.699 852.261L644.294 868.864C638.862 884.418 638.285 897.704 639.23 925.052L647.461 958.215L654.493 980.643L664.624 1021.34C665.807 1023.37 668.255 1025.38 671.739 1027.88M637.699 852.261C614.67 860.433 614.524 883.135 614.833 924.436C618.574 897.947 621.231 884.262 627.144 862.301L636.216 856.612L638.42 864.119C620.922 940.842 636.582 967.063 660.223 1016.66M660.223 1016.66C661.814 1020.73 663.761 1023.12 671.739 1027.88" stroke="black" stroke-width="0.192887"/>
<path fill-rule="evenodd" clip-rule="evenodd" d="M1010.12 381.927C1094.99 285.135 1161.09 260.058 1245.05 296.422L1236.13 249.479C1169.63 245.399 1134.96 260.578 1074.77 298.846C1032.89 338.9 1010.41 381.39 1010.12 381.927Z" fill="#F4C63F"/>
<path d="M1232.23 228.982C1165.48 228.982 1112.33 262.934 1074.77 298.846C1134.96 260.578 1169.63 245.399 1236.13 249.479L1232.23 228.982Z" fill="#3E3030"/>
<path d="M1221.61 245.203L1251.9 235.956L1245.26 216.465L1217.71 216.245L1205.17 239.16L1214.64 248.18L1188.55 340.13L1207.04 449.142C1217.79 483.253 1223.24 502.223 1247.75 540.023C1301.57 584.603 1330.16 608.003 1340.48 608.548L1256.66 531.759C1231.23 494.753 1225.46 477.439 1212.27 445.388L1195.38 340.787L1221.61 245.203Z" fill="#3E3030"/>
<path d="M1362.56 640.269C1364.51 627.88 1381.65 609.64 1389.3 611.019C1389.13 606.593 1390.24 604.318 1394.16 600.54C1388.48 597.696 1383.44 595.247 1379.07 593.007C1361.1 585.622 1356.33 581.271 1351.78 573.351L1345.91 577.448L1357.18 590.899C1349.91 595.579 1346.37 599.782 1340.48 608.548C1339.1 614.597 1337.89 616.915 1335.65 620.853C1346.12 627.525 1351.97 631.776 1362.56 640.269Z" fill="#3E3030"/>
<path d="M1251.9 235.956L1221.61 245.203L1195.38 340.787L1212.27 445.388C1225.46 477.439 1231.23 494.753 1256.66 531.759L1340.48 608.548C1346.37 599.782 1349.91 595.579 1357.18 590.899L1345.91 577.448L1351.78 573.351C1287.52 478.034 1247.01 428.621 1259.49 264.458L1252.61 249.606L1235.6 264.185C1230.15 311.453 1228.89 340.59 1229.34 396.558C1215.93 311.195 1209.21 264.176 1254.33 240.145L1251.9 235.956Z" fill="#E7A220"/>
<path d="M1280.01 390.288C1269.6 333.993 1266.68 306.324 1273.11 272.459L1254.33 240.145C1209.21 264.176 1215.93 311.195 1229.34 396.558C1228.89 340.59 1230.15 311.453 1235.6 264.185L1252.61 249.606L1259.49 264.458C1247.01 428.621 1287.52 478.034 1351.78 573.351C1356.33 581.271 1361.1 585.622 1379.07 593.007C1371.09 588.906 1365.41 585.506 1362.33 581.664L1328.78 500.595L1307.3 456.363L1280.01 390.288Z" fill="#F4C63F"/>
<path d="M1251.9 235.956L1221.61 245.203L1195.38 340.787L1212.27 445.388C1225.46 477.439 1231.23 494.753 1256.66 531.759L1340.48 608.548M1251.9 235.956L1245.26 216.465L1217.71 216.245L1205.17 239.16L1214.64 248.18L1188.55 340.13L1207.04 449.142C1217.79 483.253 1223.24 502.223 1247.75 540.023C1301.57 584.603 1330.16 608.003 1340.48 608.548M1251.9 235.956L1254.33 240.145M1340.48 608.548C1339.1 614.597 1337.89 616.915 1335.65 620.853C1346.12 627.525 1351.97 631.776 1362.56 640.269C1364.51 627.88 1381.65 609.64 1389.3 611.019C1389.13 606.593 1390.24 604.318 1394.16 600.54C1388.48 597.696 1383.44 595.247 1379.07 593.007M1340.48 608.548C1346.37 599.782 1349.91 595.579 1357.18 590.899L1345.91 577.448L1351.78 573.351M1254.33 240.145L1273.11 272.459C1266.68 306.324 1269.6 333.993 1280.01 390.288L1307.3 456.363L1328.78 500.595L1362.33 581.664C1365.41 585.506 1371.09 588.906 1379.07 593.007M1254.33 240.145C1209.21 264.176 1215.93 311.195 1229.34 396.558C1228.89 340.59 1230.15 311.453 1235.6 264.185L1252.61 249.606L1259.49 264.458C1247.01 428.621 1287.52 478.034 1351.78 573.351M1351.78 573.351C1356.33 581.271 1361.1 585.622 1379.07 593.007" stroke="black" stroke-width="0.403548"/>
</svg>
