<svg width="1099" height="885" viewBox="0 0 1099 885" fill="none" xmlns="http://www.w3.org/2000/svg">
<path d="M87.8327 737.257L127.785 709.401L102.077 669.881L69.6537 715.302C55.9665 740.492 56.1526 764.839 63.3827 770.105C70.6128 775.37 79.7071 762.554 87.8327 737.257Z" fill="black"/>
<path d="M325.676 743.6L321.556 701.479L280.059 695.148L300.775 767L314.373 767L355.835 767C359.835 750.5 325.676 743.6 325.676 743.6Z" fill="black"/>
<path d="M115.33 160.853L154.449 147L153.929 153.019L119.827 164.565L115.33 160.853Z" fill="#FCFAEC"/>
<path d="M119.827 164.565L153.929 153.019L172.514 208.497L141.436 221.094C133.729 196.507 128.591 183.738 119.827 164.565Z" fill="#397B05"/>
<path d="M141.436 221.094L172.514 208.497L177.148 211.1L158.158 218.885L138.863 227.309L141.436 221.094Z" fill="#FCFAEC"/>
<path d="M138.863 227.309L158.158 218.885L177.148 211.1C183.479 251.048 188.812 259.357 195.154 269.435L156.977 282.954C152.594 260.453 149.381 248.055 138.863 227.309Z" fill="#64AA06"/>
<path d="M156.977 282.954L195.154 269.435L195.743 275.592L158.98 288.61L156.977 282.954Z" fill="#FCFAEC"/>
<path d="M158.98 288.61L195.743 275.592C200.578 300.559 204.569 314.133 213.503 337.727L184.752 347.909L166.123 305.046L161.777 295.046L158.98 288.61Z" fill="#397B05"/>
<path d="M184.752 347.909L213.503 337.727L215.839 344.326L188.503 354.006L184.752 347.909Z" fill="#FCFAEC"/>
<path d="M188.503 354.006L215.839 344.326C224.017 367.421 226.659 373.381 235.917 395.032L205.89 404.605C205.89 404.605 196.121 372.525 188.503 354.006Z" fill="#64AA06"/>
<path d="M205.89 404.605L235.917 395.032L236.535 402.77L207.785 412.951L205.89 404.605Z" fill="#FCFAEC"/>
<path d="M207.785 412.951L236.535 402.77C243.771 426.198 245.049 431.291 253.895 456.271L231.407 458.689L220.692 463.785C213.034 434.671 217.975 450.715 207.785 412.951Z" fill="#397B05"/>
<path d="M220.692 463.785L231.407 458.689L253.895 456.271L253.461 462.549L224.681 471.149L220.692 463.785Z" fill="#FCFAEC"/>
<path d="M252.76 535.465L271.81 530.841L271.289 536.86L254.429 540.178L252.76 535.465Z" fill="#FCFAEC"/>
<path d="M224.681 471.149L253.461 462.549C257.446 481.293 265.575 510.24 271.81 530.841L252.76 535.465C243.865 516.337 235.294 489.138 224.681 471.149Z" fill="#64AA06"/>
<path d="M70.1849 261.163C89.4823 260.433 103.642 258.385 90.1468 274.64C92.4392 271.649 92.1989 269.609 88.7633 268.149C86.4248 265.033 80.4466 263.16 70.1849 261.163Z" fill="#64AA06"/>
<path d="M88.9276 276.072C88.1954 269.925 80.0897 268.303 67.079 265.068C78.2231 265.748 85.206 266.637 88.7633 268.149C90.2682 270.154 90.2658 272.673 88.9276 276.072Z" fill="#64AA06"/>
<path d="M88.9276 276.072C75.0838 285.461 69.7523 280.067 63.9024 299.518C77.4255 287.272 83.1547 289.78 88.9276 276.072Z" fill="#64AA06"/>
<path d="M98.0948 282.799C108.286 287.879 112.101 297.248 117.237 312.616C109.743 307.561 103.485 303.737 98.7034 299.25C97.7583 293.535 94.2784 287.599 88.626 279.657L98.0948 282.799Z" fill="#64AA06"/>
<path d="M107.368 238.462C123.907 251.784 128.563 258.041 123.881 265.792C122.097 265.158 120.303 264.696 118.489 264.422C112.115 261.241 110.072 252.712 107.368 238.462Z" fill="#64AA06"/>
<path d="M95.424 314.391C84.5877 296.012 85.0052 289.528 88.626 279.657C94.2784 287.599 97.7583 293.535 98.7034 299.25C99.5043 304.093 98.4847 308.778 95.424 314.391Z" fill="#64AA06"/>
<path d="M88.626 279.657L88.9276 276.072C100.053 266.298 109.51 263.062 118.489 264.422C120.015 265.183 121.79 265.638 123.881 265.792C137.096 271.543 145.602 278.695 161.777 295.046L166.123 305.046C132.69 268.949 113.665 254.654 88.626 279.657Z" fill="#64AA06"/>
<path fill-rule="evenodd" clip-rule="evenodd" d="M325.748 591.338C372.403 668.237 327.394 703.852 325.051 706.5C322.708 709.148 292.254 719.026 286.021 715.399C279.788 711.773 293.852 670.217 221.741 666.641L196.25 665.973C253.893 651.384 282.302 635.199 325.748 591.338Z" fill="#773A03"/>
<path fill-rule="evenodd" clip-rule="evenodd" d="M325.748 591.338C372.403 668.237 327.394 703.852 325.051 706.5C322.708 709.148 292.254 719.026 286.021 715.399C279.788 711.773 293.852 670.217 221.741 666.641L196.25 665.973C253.893 651.384 282.302 635.199 325.748 591.338Z" stroke="black"/>
<path d="M446.351 497.547C447.73 481.317 449.982 466.857 455.508 435.595C440.036 456.557 428.468 471.94 419.623 483.336C415.546 491.257 415.374 494.959 423.734 498.547C418.869 504.403 437.74 521.283 458.867 533.649C459.595 532.592 462.041 531.939 462.041 531.939L464.54 530.436C458.534 523.756 453.832 518.199 450.076 508.589C446.104 504.928 442.72 502.936 435.118 499.503C438.645 498.482 440.413 497.79 446.555 498.228C446.487 498.003 446.419 497.776 446.351 497.547Z" fill="#C29171"/>
<path d="M446.555 498.228C440.413 497.79 438.645 498.482 435.118 499.503C442.72 502.936 446.104 504.928 450.076 508.589C448.917 505.625 447.764 502.231 446.555 498.228Z" fill="black"/>
<path d="M387.23 518.21L389.063 525.414L445.13 555.225C449.312 545.425 453.532 541.405 458.867 533.649C437.74 521.283 418.869 504.403 423.734 498.547C415.374 494.959 415.546 491.257 419.623 483.336C399.068 509.82 393.216 514.776 387.23 518.21Z" fill="#773A03"/>
<path d="M526.552 507.927L541.79 543.827L429.028 591.691C426.659 576.329 424.772 567.876 420.233 553.056L526.552 507.927Z" fill="#DBBF9F"/>
<path d="M411.078 599.311C409.967 582.692 407.954 574.237 401.823 560.871C405.75 557.55 407.968 556.655 411.949 556.573C417.076 570.488 419.036 578.953 421.204 595.013C416.411 598.259 414.364 598.873 411.078 599.311Z" fill="#210000"/>
<path d="M402.794 602.827L400.061 596.163C400.206 582.885 398.761 575.907 392.618 564.778C396.145 562.361 398.149 561.379 401.823 560.871C407.954 574.237 409.967 582.692 411.078 599.311C408.354 601.893 406.517 602.597 402.794 602.827Z" fill="#9F2525"/>
<path d="M387.997 566.74L392.618 564.778C398.761 575.907 400.206 582.885 400.061 596.163L387.997 566.74Z" fill="#210000"/>
<path d="M421.204 595.013C419.036 578.953 417.076 570.488 411.949 556.573C414.631 553.894 416.365 552.942 420.233 553.056C424.772 567.876 426.659 576.329 429.028 591.691C425.926 593.55 424.298 594.055 421.598 594.891L421.204 595.013Z" fill="#9F2525"/>
<path d="M530.899 484.898L538.518 502.847L542.328 511.822L546.138 520.797L549.947 529.772L553.757 538.747L561.376 556.697C559.278 558.7 557.928 559.08 555.393 559.237L524.916 487.437C527.097 486.079 528.247 485.148 530.899 484.898Z" fill="#9F2525"/>
<path d="M526.552 507.927L518.932 489.977C520.803 488.579 521.887 487.826 524.916 487.437L555.393 559.237C553.616 561.189 552.481 562.046 549.409 561.777L541.79 543.827L526.552 507.927Z" fill="#3D3D33"/>
<path d="M986.047 360.683C783.529 461.085 739.791 474.053 553.757 538.747L549.947 529.772L833.317 407.804C916.058 370.267 975.077 332.845 1059.98 281.498C1052.19 296.964 1003.08 353.454 986.047 360.683Z" fill="#E6EAEB"/>
<path d="M538.518 502.847L1059.98 281.498C975.077 332.845 916.058 370.267 833.317 407.804L549.947 529.772L546.138 520.797L542.328 511.822L538.518 502.847Z" fill="black"/>
<path d="M478.435 528.255C470.827 525.783 469.258 527.376 464.384 531.05C458.202 529.041 448.678 536.172 448.145 537.339C442.668 539.765 439.876 535.582 437.459 545.959C441.229 563.482 453.863 582.014 455.591 580.766C466.528 584.319 494.38 566.557 493.571 564.191L485.45 546.306L478.435 528.255Z" fill="#3E1400"/>
<path d="M346.494 161.5C347.669 163.836 348.831 166.332 350 169C349.172 166.848 370.168 167.412 396.5 167.5C387.71 135.764 380.959 122.177 358.5 122C352.259 124.812 350.151 137.7 346.494 161.5Z" fill="#773A03"/>
<path d="M579 226C568 214.5 563.711 210.378 533 199C519.638 202.241 513.303 205.902 503 214C520.016 221.771 526.778 225.434 538 231.757C550.815 231.736 567.234 232.45 568.5 231.5C570.5 230 572.759 225.668 579 226Z" fill="#AAA494"/>
<path d="M550 265.5C514.689 264.012 519.316 235.651 523 233C524.352 232.027 530.57 231.768 538 231.757C526.778 225.434 520.016 221.771 503 214C499.249 218.329 496.052 222.416 493.349 226.312C492.935 226.909 492.532 227.501 492.14 228.09C486.875 236.006 483.672 243.139 482.003 249.923C481.854 250.528 481.717 251.13 481.592 251.729C480.219 258.328 480.275 264.628 481.263 271.039C481.359 271.663 481.464 272.289 481.577 272.915C482.48 277.912 483.915 283 485.646 288.371C485.808 288.872 485.972 289.375 486.138 289.881C487.836 295.043 489.784 300.477 491.78 306.35C491.853 306.566 491.926 306.783 492 307C496.315 312.803 498.401 315.978 499.5 321C507.156 320.245 510.262 321.898 516 324.5C533.129 316.798 541.12 311.402 549 297.5L550 265.5Z" fill="#AAA494"/>
<path d="M585.379 250.261C581.17 258.634 578.915 261.028 575 263C574.493 280.152 574.849 290.867 572 304C576.333 303.14 578.899 301.425 583.795 295.5C583.96 294.207 584.117 292.872 584.266 291.5C584.331 290.899 584.395 290.292 584.457 289.678C584.745 286.82 584.996 283.827 585.201 280.76C584.746 280.667 584.278 280.58 583.795 280.5V278.5C584.32 278.626 584.828 278.754 585.32 278.883C585.602 274.184 585.772 269.342 585.798 264.572C585.215 264.542 584.617 264.519 584 264.5V262.5C584.617 262.525 585.216 262.555 585.8 262.59C585.787 258.434 585.66 254.355 585.395 250.5L585.379 250.261Z" fill="#AAA494"/>
<path fill-rule="evenodd" clip-rule="evenodd" d="M585.379 250.261C581 248.5 581 240 583.416 236C583.254 235.309 583.082 234.642 582.902 234C581.906 230.465 580.621 227.695 579 226C572.759 225.668 570.5 230 568.5 231.5C567.234 232.45 550.815 231.736 538 231.757C530.57 231.768 524.352 232.027 523 233C519.316 235.651 514.689 264.012 550 265.5L549 297.5C541.12 311.402 533.129 316.798 516 324.5L519 324.459C530.116 326.249 536.796 326.841 553 324C565.816 328.277 571.913 325.965 580.5 312C581.695 308.773 582.862 302.831 583.795 295.5C578.899 301.425 576.333 303.14 572 304C574.849 290.867 574.493 280.152 575 263C578.915 261.028 581.17 258.634 585.379 250.261ZM526.5 240C537.449 236.222 555.5 247 546 256C536.5 265 515.551 243.778 526.5 240Z" fill="#3E1400"/>
<path d="M583.416 236C581 240 581 248.5 585.379 250.261C585.325 249.498 585.565 249.244 585.5 248.5C585.123 244.158 584.259 239.657 583.468 236.222C583.451 236.148 583.433 236.074 583.416 236Z" fill="black"/>
<path d="M526.5 240C537.449 236.222 555.5 247 546 256C536.5 265 515.551 243.778 526.5 240Z" fill="black"/>
<path d="M519 324.459L516 324.5C510.262 321.898 507.156 320.245 499.5 321C498.401 315.978 496.315 312.803 492 307L490.912 307.923L475.5 321C469.288 318.829 466.321 317.252 462 313.5C454.82 318.056 450.192 319.424 441.5 321L445 316.5C425.318 319.551 414.675 323.138 396 331L393.5 316.5C385.126 324.291 373.777 328.957 354.143 337.03L353 337.5C376.548 341.468 393.076 348.59 406.859 359.5C414.362 365.439 421.052 372.5 427.619 380.786L452.956 378.198L451.3 369C444.792 358.721 440.811 355.556 433 355.5C434.021 351.332 434.972 349.35 439 348V344C431.429 342.216 427.5 344.5 425.5 340H462L462.105 339.998C490.222 339.503 506.011 339.225 508 341.5C510.449 335.153 512.663 331.457 519 324.459Z" fill="#773A03"/>
<path d="M451 357L462 340H425.5C427.5 344.5 431.429 342.216 439 344V348C434.972 349.35 434.021 351.332 433 355.5C440.811 355.556 444.792 358.721 451.3 369L451 357Z" fill="black"/>
<path d="M508 341.5C534.649 341.81 549.191 341.665 553 324C536.796 326.841 530.116 326.249 519 324.459C512.663 331.457 510.449 335.153 508 341.5Z" fill="black"/>
<path d="M306.5 130.524C303.558 129.934 300.4 129.431 297 129C290.493 138.01 287.264 147.598 286.678 157C292 140 312.64 145.735 318 161.5C313.303 165.983 310.403 167.957 304 169C312.771 182.892 316.543 196.095 339 190.5L338.786 189.551C332.846 163.156 329.45 148.067 306.5 130.524Z" fill="black"/>
<path d="M339 190.5C316.543 196.095 312.771 182.892 304 169C310.403 167.957 313.303 165.983 318 161.5C312.64 145.735 292 140 286.678 157C285.624 173.915 293.126 190.23 305.5 201.5L294 226.378C303.691 217.509 311.174 213 329.5 206C313.78 202.774 307.052 199.505 299.5 190.5C301.142 186.452 303.031 184.849 308.5 183.5C317.282 196.033 323.454 199.151 339 190.5Z" fill="#773A03"/>
<path d="M215.138 348C207.548 358.914 201.037 364.252 188.5 373.461L380.518 405.129H420C429.956 397.356 440.353 388.839 451.898 379.092C452.249 378.795 452.602 378.497 452.956 378.198L427.619 380.786L424.5 380.305L394.369 375.656L215.138 348Z" fill="#37191B"/>
<path d="M597 299.5C594.815 299.458 586.483 292.671 584.457 289.678C584.395 290.292 584.331 290.899 584.266 291.5C590.084 297.715 592.748 299.739 596.5 300.5L597 299.5Z" fill="black"/>
<path d="M582.902 234C583.082 234.642 583.254 235.309 583.416 236C583.433 236.074 583.451 236.148 583.468 236.222C590.388 233.344 593.816 231.368 599.5 227.5L598.5 226C592.898 229.386 589.502 231.126 582.902 234Z" fill="black"/>
<path d="M585.5 248.5C585.565 249.244 585.325 249.498 585.379 250.261L585.395 250.5C590.913 249.816 603.482 245.079 607 243L604.298 242C601.909 243.809 590.085 248.45 585.5 248.5Z" fill="black"/>
<path d="M602 287.5L603 286.5C596.336 282.934 592.456 280.753 585.32 278.883C584.828 278.754 584.32 278.626 583.795 278.5V280.5C584.278 280.58 584.746 280.667 585.201 280.76C591.628 282.071 595.44 284.596 602 287.5Z" fill="#040404"/>
<path d="M608 270.5L608.5 268.5C599.638 264.763 594.388 263.109 585.8 262.59C585.216 262.555 584.617 262.525 584 262.5V264.5C584.617 264.519 585.215 264.542 585.798 264.572C594.353 265.004 599.469 266.634 608 270.5Z" fill="#040404"/>
<path fill-rule="evenodd" clip-rule="evenodd" d="M407.5 206C396.769 201.104 390.847 200.7 384.5 205.436C383.199 206.406 381.881 207.592 380.5 209C378.261 218.127 379.05 222.818 392.5 235.5C396.197 235.5 398.825 235.52 401.014 235.536C404.45 235.561 406.802 235.579 410.5 235.5C413.678 231.83 416.157 229.36 423 223.5C420.892 216.48 418.144 212.623 407.5 206Z" fill="#895424"/>
<path fill-rule="evenodd" clip-rule="evenodd" d="M384.5 205.436C383.199 206.406 381.881 207.592 380.5 209C378.261 218.127 379.05 222.818 392.5 235.5C396.197 235.5 398.825 235.52 401.014 235.536C404.45 235.561 406.802 235.579 410.5 235.5C413.678 231.83 416.157 229.36 423 223.5C411.648 213.321 405.251 207.641 384.5 205.436Z" fill="black"/>
<path d="M423 223.5C420.892 216.48 418.144 212.623 407.5 206C396.769 201.104 390.847 200.7 384.5 205.436C405.251 207.641 411.648 213.321 423 223.5Z" fill="#773A03"/>
<path d="M482.5 310C484.587 309.534 487.953 308.165 491.78 306.35C501.701 301.644 514.718 293.936 516.579 291.178C516.641 291.792 516.704 292.399 516.77 293C512.707 297.34 499.68 304.025 490.912 307.923C487.125 309.607 484.132 310.77 483 311L482.5 310Z" fill="black"/>
<path d="M516 237.05C515.819 237.692 515.648 238.359 515.486 239.05C515.468 239.123 515.451 239.197 515.434 239.271C510.99 237.423 500.549 232.442 492.14 228.09C487.455 225.664 483.4 223.434 481.366 222.05L482.366 220.55C484.413 221.787 488.572 223.938 493.349 226.312C501.648 230.434 511.811 235.225 516 237.05Z" fill="black"/>
<path d="M515.536 250C515.471 250.744 515.71 250.998 515.657 251.761L515.64 252C512.195 252.642 495.517 252.607 481.592 251.729C471.653 251.103 463.117 250.047 461.798 248.5L462 247C462.977 248.333 471.782 249.325 482.003 249.923C496.079 250.746 512.839 250.819 515.536 250Z" fill="black"/>
<path d="M472.5 294L471.5 293C473.869 291.732 479.304 290.07 485.646 288.371C497.142 285.291 511.617 282.088 516.216 280.883C516.708 280.754 517.215 280.626 517.74 280.5V282.5C517.258 282.58 516.79 282.667 516.335 282.76C512.147 283.614 497.588 286.895 486.138 289.881C480.018 291.477 474.785 292.988 472.5 294Z" fill="#040404"/>
<path d="M457.5 280L457 278C460.837 276.382 470.66 273.654 481.263 271.039C495.146 267.615 510.366 264.384 515.235 264.09C515.819 264.055 516.419 264.025 517.036 264V266C516.419 266.019 515.82 266.042 515.238 266.072C510.404 266.316 495.321 269.497 481.577 272.915C470.997 275.546 461.211 278.318 457.5 280Z" fill="#040404"/>
<path fill-rule="evenodd" clip-rule="evenodd" d="M350 169C348.831 166.332 347.669 163.836 346.494 161.5C337.257 143.142 327.199 134.674 306.5 130.524C329.45 148.067 332.846 163.156 338.786 189.551L339 190.5C323.454 199.151 317.282 196.033 308.5 183.5C303.031 184.849 301.142 186.452 299.5 190.5C307.052 199.505 313.78 202.774 329.5 206C311.174 213 303.691 217.509 294 226.378L256.5 307.5L215.138 348L394.369 375.656L424.5 380.305L427.619 380.786C421.052 372.5 414.362 365.439 406.859 359.5C393.076 348.59 376.548 341.468 353 337.5L354.143 337.03C373.777 328.957 385.126 324.291 393.5 316.5L396 331C414.675 323.138 425.318 319.551 445 316.5L441.5 321C450.192 319.424 454.82 318.056 462 313.5C466.321 317.252 469.288 318.829 475.5 321L490.912 307.923C487.125 309.607 484.132 310.77 483 311L482.5 310C484.587 309.534 487.953 308.165 491.78 306.35C489.784 300.477 487.836 295.043 486.138 289.881C480.018 291.477 474.785 292.988 472.5 294L471.5 293C473.869 291.732 479.304 290.07 485.646 288.371C483.915 283 482.48 277.912 481.577 272.915C470.997 275.546 461.211 278.318 457.5 280L457 278C460.837 276.382 470.66 273.654 481.263 271.039C480.275 264.628 480.219 258.328 481.592 251.729C471.653 251.103 463.117 250.047 461.798 248.5L462 247C462.977 248.333 471.782 249.325 482.003 249.923C483.672 243.139 486.875 236.006 492.14 228.09C487.455 225.664 483.4 223.434 481.366 222.05L482.366 220.55C484.413 221.787 488.572 223.938 493.349 226.312C496.052 222.416 499.249 218.329 503 214C513.303 205.902 519.638 202.241 533 199C487.94 183.778 461.53 175.652 396.5 167.5C370.168 167.412 349.172 166.848 350 169ZM407.5 206C418.144 212.623 420.892 216.48 423 223.5C416.157 229.36 413.678 231.83 410.5 235.5C406.802 235.579 404.45 235.561 401.014 235.536C398.825 235.52 396.197 235.5 392.5 235.5C379.05 222.818 378.261 218.127 380.5 209C381.881 207.592 383.199 206.406 384.5 205.436C390.847 200.7 396.769 201.104 407.5 206Z" fill="#895424"/>
<path d="M299.269 516.698C363.627 477.258 400.442 459.151 453.769 410.698L451.898 379.092C440.353 388.839 429.956 397.356 420 405.129C394.689 424.888 372.221 439.834 340.946 457.923C329.269 468.698 229.5 508 217.36 506.463C169.835 514.198 140.934 512.024 91.7938 503.404C89.6039 509.063 88.5364 513.573 89.5 515.5C87.3869 525.533 85.6403 533.051 83.5007 540.277C141.252 548.236 173.506 549.785 230.5 540.277C240 540.277 299.269 516.698 299.269 516.698Z" fill="#37191B"/>
<path d="M162.5 392.5H170C146.795 414.577 135.512 429.935 117 460.117C113.923 460.934 98.1422 486.999 91.7938 503.404C140.934 512.024 169.835 514.198 217.36 506.463C229.5 508 329.269 468.698 340.946 457.923C372.221 439.834 394.689 424.888 420 405.129H380.518L188.5 373.461C180.466 379.794 172.659 385.524 162.5 392.5Z" fill="#895424"/>
<path d="M455.5 435.5L453.769 410.698C400.442 459.151 363.627 477.258 299.269 516.698C299.269 516.698 240 540.277 230.5 540.277C173.506 549.785 141.252 548.236 83.5007 540.277C81.6342 546.581 79.4687 552.663 76.5 560V618C81.7492 631.574 81.6731 639.162 83.5 650.5L117.5 678.5L141 681.5H149.5L193.5 690.5C226.145 690.604 243.975 688.988 273.5 678C330.741 661.907 358.716 644.984 401 600C416.526 580.988 424.224 568.72 434 540.5C437.673 534.658 440.514 527.533 446.229 494.5C448.689 480.285 451.68 461.273 455.5 435.5Z" fill="#895424"/>
<path d="M394.5 174C373.415 179.191 375.056 177.699 373.5 180.5L422 189.5C416.568 186.316 413.677 184.575 419 184.5C430.119 184.737 436.357 185.523 447.5 189.5C439.841 189.028 437.374 189.79 434.5 192C470.015 207.549 476.956 209.902 483 211C489.044 212.098 517.203 204.5 513.5 199C509.797 193.5 446.163 175.91 394.5 171.5V174Z" fill="#773A03"/>
<path d="M116.02 507C110.878 520.509 111.143 527.677 114.02 538.832C115.436 538.057 116.729 537.37 117.961 536.755C115.524 525.853 115.57 519.318 120.02 507.555C118.698 507.377 117.365 507.192 116.02 507Z" fill="black"/>
<path d="M97.0196 546.029C91.5954 549.781 109.261 589.085 115.988 588.409C120.916 587.913 123.073 586.467 125.988 584.909C127.054 584.34 127.978 584.139 129.52 583.42L129.529 583.415C131 582.729 132.614 582.163 134.02 581.529C131.828 579.68 124.898 568.619 123.286 566.029C122.799 565.247 122.331 564.416 121.877 563.529C120.786 561.398 119.775 558.938 118.779 556.029C118.506 555.23 118.234 554.398 117.961 553.529C117.078 550.714 116.194 547.517 115.26 543.853C111.382 543.45 107.41 543.002 103.32 542.51L102.918 542.462C101.684 542.924 101.355 542.99 101.067 543.136C100.631 543.359 100.289 543.767 97.0196 546.029Z" fill="#E4C9B1"/>
<path d="M102.918 542.462L103.32 542.51C107.41 543.002 111.382 543.45 115.26 543.853C114.857 542.269 114.445 540.598 114.02 538.832C112.868 539.204 111.695 539.572 110.532 539.937L110.53 539.937C107.821 540.788 105.159 541.623 102.918 542.462Z" fill="#E4C9B1"/>
<path d="M132.52 509.06C131.195 508.922 129.862 508.775 128.52 508.62C125.771 520.886 125.736 526.212 128.52 532.847C129.606 532.584 130.762 532.337 132.02 532.098L131.988 531.904C130.472 525.403 129.874 521.811 132.52 509.06Z" fill="black"/>
<path d="M132.367 551.446L123.538 554.424L129.018 555.303L132.367 551.446Z" fill="#E4C9B1"/>
<path d="M123.538 554.424L118.779 556.029L122.495 556.529L127.383 557.186L129.018 555.303L123.538 554.424Z" fill="black"/>
<path d="M136.569 550.029C136.295 549.239 136.028 548.408 135.768 547.529L132.367 551.446L129.018 555.303L127.383 557.186L124.047 561.029L121.877 563.529L126.866 561.716L130.301 557.579L131.818 555.753L134.52 552.498L136.569 550.029Z" fill="black"/>
<path d="M121.877 563.529C122.331 564.416 122.799 565.247 123.286 566.029L126.866 564.62L137.52 560.428L141.077 559.029L136.106 558.36L126.866 561.716L121.877 563.529Z" fill="black"/>
<path d="M126.866 561.716L136.106 558.36L133.204 557.97L130.301 557.579L126.866 561.716Z" fill="#E4C9B1"/>
<path d="M141.077 559.029C140.624 558.39 140.189 557.726 139.771 557.029L136.334 556.477L131.818 555.753L130.301 557.579L133.204 557.97L136.106 558.36L141.077 559.029Z" fill="black"/>
<path d="M117.961 553.529C118.234 554.398 118.506 555.23 118.779 556.029L123.538 554.424L132.367 551.446L135.768 547.529L132.52 548.623L121.52 552.33L117.961 553.529Z" fill="black"/>
<path d="M168.52 518.718L132.52 532.004C133.369 537.496 134.25 541.91 135.217 545.562C150.449 546.548 164.79 546.661 180.046 545.733C179.694 545.211 179.352 544.683 179.02 544.143C178.995 544.102 178.97 544.062 178.945 544.021C178.919 543.979 178.894 543.937 178.868 543.895C178.315 542.981 177.788 542.033 177.284 541.029C176.736 539.938 176.214 538.781 175.711 537.529C175.516 537.044 175.324 536.544 175.135 536.029C175.086 535.896 175.037 535.763 174.989 535.628L174.954 535.529C174.724 534.888 174.499 534.222 174.276 533.529C173.924 532.435 173.579 531.272 173.239 530.029C172.32 526.676 171.432 522.737 170.52 517.98L168.52 518.718Z" fill="#E4C9B1"/>
<path d="M151.52 574.529L186.76 558.938L188.26 558.351C186.785 556.564 181.234 547.491 180.046 545.733C164.79 546.661 150.449 546.548 135.217 545.562C135.398 546.243 135.581 546.898 135.768 547.529C136.028 548.408 136.295 549.239 136.569 550.029C137.532 552.8 138.586 555.053 139.771 557.029C140.189 557.726 140.624 558.39 141.077 559.029C142.716 561.342 149.32 572.341 151.52 574.529Z" fill="#E4C9B1"/>
<path d="M186.52 512.075C186.294 511.245 186.262 510.75 186.52 509.761C185.297 509.863 184.084 509.957 182.878 510.043C182.612 511.315 182.688 511.949 183.18 512.898C184.215 512.623 185.316 512.354 186.52 512.075Z" fill="black"/>
<path d="M195.888 539.529C195.589 539.106 195.3 538.681 195.02 538.254L194.954 538.154L194.908 538.083C194.872 538.028 194.836 537.972 194.801 537.917L191.655 537.538L187.42 537.029L186.122 538.561L191.63 539.107L195.888 539.529Z" fill="black"/>
<path d="M186.122 538.561L182.878 542.39L191.63 539.107L186.122 538.561Z" fill="#E4C9B1"/>
<path d="M179.02 544.143C179.352 544.683 179.694 545.211 180.046 545.733L182.245 544.872L193.52 540.456L195.888 539.529L191.63 539.107L182.878 542.39L178.868 543.895L178.945 544.021L179.02 544.143Z" fill="black"/>
<path d="M175.135 536.029C175.324 536.544 175.516 537.044 175.711 537.529L179.814 536.114L188.037 533.277L190.842 530.029L187.857 531.062L178.02 534.467L174.954 535.529L174.989 535.628C175.037 535.763 175.086 535.896 175.135 536.029Z" fill="black"/>
<path d="M191.655 532.029C191.442 531.539 191.235 531.04 191.035 530.529C191.001 530.444 190.968 530.358 190.935 530.272C190.904 530.191 190.872 530.11 190.842 530.029L188.037 533.277L185.044 536.743L183.683 538.319L180.48 542.029L178.868 543.895L182.878 542.39L186.122 538.561L187.42 537.029L189.901 534.099L191.655 532.029Z" fill="black"/>
<path d="M185.044 536.743L188.037 533.277L179.814 536.114L182.429 536.428L185.044 536.743Z" fill="#E4C9B1"/>
<path d="M175.711 537.529L178.868 537.821L183.683 538.319L185.044 536.743L182.429 536.428L179.814 536.114L175.711 537.529Z" fill="black"/>
<path d="M170.52 517.98C171.432 522.737 172.32 526.676 173.239 530.029C173.579 531.272 173.924 532.435 174.276 533.529C174.499 534.222 174.724 534.888 174.954 535.529L178.02 534.467C176.061 528.334 175.018 524.728 173.767 516.343C172.753 516.827 171.683 517.367 170.52 517.98Z" fill="black"/>
<path fill-rule="evenodd" clip-rule="evenodd" d="M178.02 534.467C176.061 528.334 175.018 524.728 173.767 516.343C177.038 514.784 179.739 513.811 183.18 512.898C184.621 520.867 185.684 524.755 187.857 531.062L178.02 534.467Z" fill="#E4C9B1"/>
<path d="M189.079 524.529C188.128 521.017 187.31 516.959 186.52 512.075C185.316 512.354 184.215 512.623 183.18 512.898C184.621 520.867 185.684 524.755 187.857 531.062L190.842 530.029C190.596 529.381 190.359 528.716 190.13 528.029C189.76 526.921 189.411 525.758 189.079 524.529Z" fill="black"/>
<path d="M117.961 536.755C116.729 537.37 115.436 538.057 114.02 538.832C114.445 540.598 114.857 542.269 115.26 543.853C116.623 543.995 117.975 544.131 119.315 544.261C118.822 542.096 118.397 539.776 117.961 536.755Z" fill="black"/>
<path d="M115.26 543.853C116.194 547.517 117.078 550.714 117.961 553.529L121.52 552.33C120.595 549.231 119.906 546.857 119.315 544.261C117.975 544.131 116.623 543.995 115.26 543.853Z" fill="black"/>
<path fill-rule="evenodd" clip-rule="evenodd" d="M119.315 544.261C123.463 544.664 127.509 545.013 131.487 545.304C130.267 541.273 129.468 538.073 128.52 532.847C124.534 533.81 121.502 534.986 117.961 536.755C118.397 539.776 118.822 542.096 119.315 544.261Z" fill="#E4C9B1"/>
<path d="M132.52 532.004C132.351 532.036 132.184 532.067 132.02 532.098C130.762 532.337 129.606 532.584 128.52 532.847C129.468 538.073 130.267 541.273 131.487 545.304L131.663 545.317C132.501 545.378 133.335 545.437 134.166 545.493C134.517 545.516 134.867 545.539 135.217 545.562C134.25 541.91 133.369 537.496 132.52 532.004Z" fill="black"/>
<path fill-rule="evenodd" clip-rule="evenodd" d="M121.52 552.33C120.595 549.231 119.906 546.857 119.315 544.261C123.463 544.664 127.509 545.013 131.487 545.304C131.8 546.34 132.141 547.43 132.52 548.623L121.52 552.33Z" fill="#E4C9B1"/>
<path d="M135.217 545.562C134.867 545.539 134.517 545.516 134.166 545.493C133.335 545.437 132.501 545.378 131.663 545.317L131.487 545.304C131.8 546.34 132.141 547.43 132.52 548.623L135.768 547.529C135.581 546.898 135.398 546.243 135.217 545.562Z" fill="black"/>
<path d="M123.286 566.029C124.898 568.619 131.828 579.68 134.02 581.529C134.52 581.529 136.52 581.029 137.336 580.406C134.986 578.006 128.78 567.664 126.866 564.62L123.286 566.029Z" fill="black"/>
<path fill-rule="evenodd" clip-rule="evenodd" d="M137.336 580.406C134.986 578.006 128.78 567.664 126.866 564.62L137.52 560.428C139.484 563.746 145.674 574.112 147.988 576.34C144.273 578.132 141.219 579.239 137.336 580.406Z" fill="#E4C9B1"/>
<path d="M151.52 574.529C149.32 572.341 142.716 561.342 141.077 559.029L137.52 560.428C139.484 563.746 145.674 574.112 147.988 576.34C149.02 576.029 150.02 575.529 151.52 574.529Z" fill="black"/>
<path d="M199.454 544.05C198.132 542.52 196.951 541.034 195.888 539.529L193.52 540.456L196.289 544.39C197.337 544.282 198.392 544.168 199.454 544.05Z" fill="black"/>
<path d="M204.02 551.001C203.922 550.889 202.405 548.407 201.412 546.931L201.411 546.929C200.467 545.526 199.545 544.155 199.454 544.05C198.392 544.168 197.337 544.282 196.289 544.39L201.52 552.529C202.315 552.093 203.142 551.527 204.02 551.001Z" fill="black"/>
<path fill-rule="evenodd" clip-rule="evenodd" d="M190.52 557.529C194.879 556.431 197.881 554.523 201.52 552.529L196.289 544.39C191.673 544.868 187.183 545.256 182.777 545.557L190.52 557.529Z" fill="#E4C9B1"/>
<path d="M180.046 545.733C181.234 547.491 186.785 556.564 188.26 558.351C189.161 558.351 190.02 558.029 190.52 557.529L182.777 545.557L182.529 545.574C181.699 545.63 180.871 545.683 180.046 545.733Z" fill="black"/>
<path fill-rule="evenodd" clip-rule="evenodd" d="M193.52 540.456L196.289 544.39C191.673 544.868 187.183 545.256 182.777 545.557L182.245 544.872L193.52 540.456Z" fill="#E4C9B1"/>
<path d="M182.245 544.872L180.046 545.733C180.871 545.683 181.699 545.63 182.529 545.574L182.777 545.557L182.245 544.872Z" fill="#2E302A"/>
<path fill-rule="evenodd" clip-rule="evenodd" d="M136.334 556.477L134.52 552.498L131.818 555.753L136.334 556.477Z" fill="#E4C9B1"/>
<path d="M139.771 557.029C138.586 555.053 137.532 552.8 136.569 550.029L134.52 552.498L136.334 556.477L139.771 557.029Z" fill="black"/>
<path fill-rule="evenodd" clip-rule="evenodd" d="M124.047 561.029L127.383 557.186L122.495 556.529C122.838 558.469 123.23 559.416 124.047 561.029Z" fill="#E4C9B1"/>
<path d="M118.779 556.029C119.775 558.938 120.786 561.398 121.877 563.529L124.047 561.029C123.23 559.416 122.838 558.469 122.495 556.529L118.779 556.029Z" fill="black"/>
<path fill-rule="evenodd" clip-rule="evenodd" d="M178.868 537.821C179.387 539.779 179.619 540.182 180.666 541.997L180.48 542.029L183.683 538.319L178.868 537.821Z" fill="#E4C9B1"/>
<path fill-rule="evenodd" clip-rule="evenodd" d="M191.655 537.538C190.78 536.304 190.359 535.576 189.901 534.099L187.42 537.029L191.655 537.538Z" fill="#E4C9B1"/>
<path d="M170.52 517.98C171.683 517.367 172.753 516.827 173.767 516.343C173.194 514.661 173.146 513.436 173.767 510.547C172.657 510.59 171.55 510.626 170.447 510.655C169.619 513.983 169.765 515.52 170.52 517.98Z" fill="black"/>
<path d="M175.711 537.529C176.214 538.781 176.736 539.938 177.284 541.029C177.788 542.033 178.315 542.981 178.868 543.895L180.48 542.029L180.666 541.997C179.619 540.182 179.387 539.779 178.868 537.821L175.711 537.529Z" fill="black"/>
<path d="M193.103 535.029C192.588 534.063 192.107 533.068 191.655 532.029L189.901 534.099C190.359 535.576 190.78 536.304 191.655 537.538L194.801 537.917C194.195 536.975 193.631 536.018 193.103 535.029Z" fill="black"/>
<path d="M213.52 546.529L212.648 542.396C211.982 542.489 211.319 542.579 210.659 542.669C211.432 543.653 212.719 545.588 213.52 546.529Z" fill="#4E4945"/>
<path d="M211.864 539.226C209.609 532.119 204.042 522.52 195.02 508.938C197.137 521.453 203.062 532.897 210.425 542.368L212.602 541.997C212.417 541.117 212.171 540.195 211.864 539.226Z" fill="#4E4945"/>
<path fill-rule="evenodd" clip-rule="evenodd" d="M212.602 541.997C212.868 543.269 213.507 545.423 213.52 546.529L212.648 542.396L212.602 541.997ZM210.425 542.368C203.062 532.897 197.137 521.453 195.02 508.938L186.52 512.075C187.31 516.959 188.128 521.017 189.079 524.529C189.411 525.758 189.76 526.921 190.13 528.029C190.359 528.716 190.596 529.381 190.842 530.029C190.872 530.11 190.904 530.191 190.935 530.272C190.968 530.358 191.001 530.444 191.035 530.529C191.235 531.04 191.442 531.539 191.655 532.029C192.107 533.068 192.588 534.063 193.103 535.029C193.631 536.018 194.195 536.975 194.801 537.917C194.836 537.972 194.872 538.028 194.908 538.083L194.954 538.154L195.02 538.254C195.3 538.681 195.589 539.106 195.888 539.529C196.951 541.034 198.132 542.52 199.454 544.05C199.545 544.155 200.467 545.526 201.411 546.929L201.412 546.931C202.405 548.407 203.922 550.889 204.02 551.001L213.52 546.529C212.719 545.588 211.432 543.653 210.659 542.669C210.581 542.569 210.503 542.468 210.425 542.368Z" fill="#E4C9B1"/>
<path d="M210.659 542.669C211.319 542.579 211.982 542.489 212.648 542.396L212.602 541.997L210.425 542.368C210.503 542.468 210.581 542.569 210.659 542.669Z" fill="#4E4945"/>
<path d="M102.622 709.425C137.593 730.737 194.534 701 194.534 701C194.534 701 220.69 666.942 224.798 648.132C226.484 640.413 234.067 615.47 232.323 601.285C219.02 658.865 204.876 659.752 180.644 666.004L186.942 652.244C166.476 658.215 154.718 662.317 132.573 672.743L135.496 663.18L124.444 670.258L123.917 642.909L102.848 660.519C108.041 644.88 111.537 636.716 119.324 623.728L105.178 627.246L107.955 618.161C97.1061 618.159 97.3418 619.866 85.155 624.432C86.7229 613.055 83.051 611.016 81.9999 596.5C59.3963 641.224 90.5351 661.627 90.5351 661.627C90.8077 673.573 67.6513 688.112 102.622 709.425Z" fill="#773A03"/>
<path d="M81.9999 596.5C83.051 611.016 86.7229 613.055 85.155 624.432C97.3418 619.866 97.1061 618.159 107.955 618.161L105.178 627.246L119.324 623.728C111.537 636.716 108.041 644.88 102.848 660.519L123.917 642.909L124.444 670.258L135.496 663.18L132.573 672.743C154.718 662.317 166.476 658.215 186.942 652.244L180.644 666.004C204.876 659.752 219.02 658.865 232.323 601.285L81.9999 596.5Z" fill="#895424"/>
<path d="M373.686 619.564C378.621 623.336 380.286 626.361 383.546 631.525L384.317 630.888C381.25 625.212 379.747 621.913 374.458 618.928L373.686 619.564Z" fill="black"/>
<path d="M379.129 607.302C387.359 612.541 389.303 616.593 392.729 623.734C392.754 623.786 392.78 623.839 392.805 623.892L394.348 622.619C390.442 614.959 388.697 610.295 380.673 606.029L379.129 607.302Z" fill="black"/>
<path d="M379.302 635.023C381.454 634.373 382.436 633.684 383.546 631.525C380.286 626.361 378.621 623.336 373.686 619.564L374.458 618.928C379.747 621.913 381.25 625.212 384.317 630.888C388.624 633.273 390.787 633.318 392.805 623.892L392.729 623.734C389.303 616.593 387.359 612.541 379.129 607.302L380.673 606.029C388.697 610.295 390.442 614.959 394.348 622.619C400.114 622.751 402.025 620.794 402.722 613.125C403.776 602.588 400.7 596.396 383.639 587.385C374.835 586.547 370.136 586.388 362.909 587.625C364.542 594.376 364.693 598.791 363.056 608.24C362.163 604.419 361.332 602.556 357.331 601.296C355.443 605.581 355.845 608.169 356.454 612.095L356.454 612.099C356.524 612.549 356.597 613.016 356.669 613.505C364.432 618.073 371.223 624.689 379.302 635.023Z" fill="#3E1400"/>
<path d="M335.276 535.238L332.101 494.441C332.246 488.467 332.543 483.318 332.812 478.657L332.812 478.653C332.965 476.013 333.108 473.529 333.21 471.14C333.893 455.077 323.107 440.296 310.75 428.451C329.396 454.683 333.876 467.831 327.019 487.403C324.847 484.659 323.036 482.813 320.652 480.552C328.227 511.797 329.572 520.55 329.234 527.908C325.375 526.603 323.442 525.13 321.283 518.262L317.425 521.443C313.138 513.38 308.829 508.799 300.25 500.609C301.555 511.695 300.485 517.738 297.221 528.377L289.677 514.509C290.189 538.311 289.377 552.204 287.55 577.172L284.464 579.717C274.707 571.544 269.146 566.252 258.682 552.371C261.528 562.095 264.771 569.183 269.497 577.151C253.235 567.162 243.574 554.788 223.51 497.127C236.224 544.316 244.354 563.02 265.694 581.534C269.646 584.963 274.05 588.384 279.021 591.979C285.505 594.965 290.811 597.33 297.341 599.268C305.309 601.633 315.097 603.362 331.064 604.805C336.622 605.88 341.462 607.076 345.843 608.583C349.757 609.93 353.304 611.525 356.669 613.505C356.597 613.016 356.524 612.549 356.454 612.099L356.454 612.095C355.845 608.169 355.443 605.581 357.331 601.296C361.332 602.556 362.163 604.419 363.056 608.24C364.693 598.791 364.542 594.376 362.909 587.625C370.136 586.388 374.835 586.547 383.639 587.385C381.844 586.437 379.895 585.458 377.779 584.44C360.086 571.408 350.219 562.114 340.75 545.629C338.929 542.458 337.122 539.02 335.276 535.238Z" fill="#773A03"/>
<path d="M329.234 527.908C329.572 520.55 328.227 511.797 320.652 480.552C323.036 482.813 324.847 484.659 327.019 487.403C333.876 467.831 329.396 454.683 310.75 428.451L223.51 497.127C243.574 554.788 253.235 567.162 269.497 577.151C264.771 569.183 261.528 562.095 258.682 552.371C269.146 566.252 274.707 571.544 284.464 579.717L287.55 577.172C289.377 552.204 290.189 538.311 289.677 514.509L297.221 528.377C300.485 517.738 301.555 511.695 300.25 500.609C308.829 508.799 313.138 513.38 317.425 521.443L321.283 518.262C323.442 525.13 325.375 526.603 329.234 527.908Z" fill="#895424"/>
</svg>
