<svg width="1568" height="1296" viewBox="0 0 1568 1296" fill="none" xmlns="http://www.w3.org/2000/svg">
<path d="M721.675 1063.41L726.168 1075.95L753.811 1089.68L780.666 1101.39L755.457 1103.15L693.285 1107.45L678.275 1108.5L680.92 1083.26L676.982 1061.98L721.675 1063.41Z" fill="#456746"/>
<path d="M522.353 1118.19L540.171 1131.03L565.037 1146.03L537.179 1146.03L463.866 1146.03L477.744 1093.66L500.941 1099.9L520.059 1094.8L522.353 1118.19Z" fill="#456746"/>
<path d="M416.489 923.813L443.191 924.979C442.742 935.34 442.789 945.247 443.464 955.124L425.603 986.275L431.759 1012.18L387.396 1026.88L298.517 1018.05L240.208 997.52L232.966 975.616C254.251 973.44 263.072 972.899 274.073 972.913C274.031 979.583 273.463 983.74 267.658 994.67C269.793 993.697 272.083 993.201 289.594 992.93C294.071 996.047 296.025 998.224 299.203 1002.34C302.735 1000.39 304.394 998.587 305.998 992.746C319.317 989.28 326.94 988.227 340.819 987.97C346.665 995.644 348.378 1000.36 351.756 1008.69L362.744 1007.37C363.469 990.758 381.834 990.756 401.025 1006.79L389.238 984.688L402.122 981.652L399.36 940.605L427.661 939.143L416.489 923.813Z" fill="#2D2727"/>
<path d="M218.256 957.884C222.025 963.675 225.741 967.847 232.966 975.616L240.208 997.52L298.517 1018.05L387.396 1026.88L431.759 1012.18L425.603 986.275L443.464 955.124C444.84 975.235 448.823 995.222 456.54 1018.66L471.525 1019.31C462.3 1033.04 452.327 1047.13 419.995 1052.14L278.21 1045.05C270.53 1040.5 263.63 1036.61 257.182 1032.89C260.216 1029.84 261.314 1027.57 261.027 1021.37C256.976 1020.69 253.996 1019.65 244.937 1014.37C239.9 1017.58 238.417 1019.21 238.788 1021.74C227.231 1014.18 216.168 1005.43 203.11 991.852L197.655 991.614L203.874 974.346L185.692 973.552L185.632 973.46C178.893 963.181 175.093 957.385 171.53 943.251C179.221 945.257 185.93 949.007 199.164 957.05L218.256 957.884Z" fill="#343F31"/>
<path d="M760.358 927.735L604.262 913.567L510.961 972.454C580.134 996.611 624.241 1005.75 674.094 1069.09L729.749 1069.09C753.272 1036.05 760.358 986.976 760.358 986.976C760.358 986.976 765.404 948.996 760.358 927.735Z" fill="black"/>
<path d="M744.59 418.181C753.893 433.58 757.295 442.372 760.47 458.307C756.147 461.198 754.093 461.367 750.802 459.752C740.985 451.747 739.825 450.735 735.584 447.201C737.197 444.143 736.965 439.874 736.945 433.161L744.59 418.181Z" fill="#2A2722"/>
<path d="M668.165 432.568C663.77 450.014 663.087 459.416 664.71 475.584C669.689 477.085 671.702 476.645 674.378 474.139C681.426 463.613 682.239 462.306 685.262 457.687C682.825 455.235 681.798 451.084 679.855 444.658L668.165 432.568Z" fill="#2A2722"/>
<path d="M685.562 482.845C691.742 478.213 693.099 475.252 692.457 469.46C698.202 472.819 701.098 475.004 705.053 479.932L706.565 481.189C690.113 485.066 686.898 484.889 685.562 482.845Z" fill="#A4A971"/>
<path d="M747.563 461.225C749.939 468.295 752.814 470.403 760.004 471.72C758.06 474.795 757.943 476.665 741.102 477.51C741.267 476.421 741.437 475.414 741.622 474.467C742.616 469.388 744.046 466.047 747.563 461.225Z" fill="#A4A971"/>
<path fill-rule="evenodd" clip-rule="evenodd" d="M592.74 430.497C598.129 430.186 603.675 454.066 596.424 455.15C589.067 456.938 572.08 458.906 565.415 459.29C558.75 459.674 554.27 436.748 561.731 434.637C569.191 432.526 587.35 430.809 592.74 430.497ZM580.944 434.237C587.297 442.737 583.834 453.572 583.834 453.572C583.834 453.572 578.433 446.03 580.944 434.237Z" fill="#A4A971"/>
<path fill-rule="evenodd" clip-rule="evenodd" d="M511.048 442.706C516.437 442.395 521.983 466.275 514.732 467.359C507.375 469.147 492.394 471.31 485.729 471.693C479.064 472.077 474.584 449.152 482.044 447.041C489.505 444.93 505.658 443.017 511.048 442.706ZM501.185 446.157C507.539 454.657 504.075 465.492 504.075 465.492C504.075 465.492 498.675 457.95 501.185 446.157Z" fill="#A4A971"/>
<path d="M580.944 434.237C587.297 442.737 583.834 453.572 583.834 453.572C583.834 453.572 578.433 446.03 580.944 434.237Z" fill="#D22B2B"/>
<path d="M501.185 446.157C507.539 454.657 504.075 465.492 504.075 465.492C504.075 465.492 498.675 457.95 501.185 446.157Z" fill="#D22B2B"/>
<path d="M760.004 471.72L775.472 469.408L776.772 478.109L772.905 478.687C772.851 478.679 772.8 478.687 772.755 478.709L582.452 507.15L571.067 510.334L569.983 503.084C577.705 502.914 581.723 502.702 584.968 500.844C596.35 500.729 598.275 500.172 598.503 498.821C609.165 498.359 617.096 499.191 621.706 495.354C636.188 495.108 641.932 494.537 643.941 492.031C655.088 491.482 658.779 490.334 659.943 486.674L685.562 482.845C686.898 484.889 690.113 485.066 706.565 481.189L705.053 479.932L741.622 474.467C741.437 475.414 741.267 476.421 741.102 477.51C757.943 476.665 758.06 474.795 760.004 471.72Z" fill="#2A2722"/>
<path fill-rule="evenodd" clip-rule="evenodd" d="M740.95 400.44L750.617 398.995C756.814 413.036 760.113 419.945 765.898 431.799C772.959 446.027 773.321 454.501 775.472 469.408L760.004 471.72C752.814 470.403 749.939 468.295 747.563 461.225C744.046 466.047 742.616 469.388 741.622 474.467L705.053 479.932C701.098 475.004 698.202 472.819 692.457 469.46C693.099 475.252 691.742 478.213 685.562 482.845L659.943 486.674C658.779 490.334 655.088 491.482 643.941 492.031L627.445 474.235L621.706 495.354L604.965 482.536L598.503 498.821L590.991 491.543L584.968 500.844L575.767 488.876L569.983 503.084L571.067 510.334L582.452 507.15L772.755 478.709C771.172 479.485 774.895 497.999 779.552 523.158C776.064 526.083 774.314 528.165 771.595 532.749L648.332 551.17L551.172 565.691C530.235 584.259 520.997 591.972 518.363 590.856C511.066 592.471 507.123 593.073 499.995 593.601L495.839 592.245C483.443 582.633 478.961 578.525 472.552 572.005L479.164 589.796C479.899 590.211 480.62 590.625 481.327 591.039L502.546 656.969C475.97 643.537 461.387 637.434 435.831 627.2L435.305 626.99C438.375 590.237 438.323 558.232 438.513 502.965L471.217 493.63C471.217 493.63 471.994 485.606 472.216 477.172C472.438 468.738 469.715 453.825 471.821 448.074C473.927 442.324 478.955 439.596 478.955 439.596L517.626 433.816L525.11 447.523L545.413 444.489L548.562 429.193L600.285 421.463C605.04 422.093 606.779 424.491 609.803 428.936C615.074 445.47 618.111 453.956 623.872 466.862L652.875 462.527C652.545 443.822 654.67 432.803 659.741 412.577L670.376 410.988L685.45 422.572L730.888 415.781L740.95 400.44ZM664.71 475.584C663.087 459.416 663.77 450.014 668.165 432.568L679.855 444.658C681.798 451.084 682.825 455.235 685.262 457.687C682.239 462.306 681.426 463.613 674.378 474.139C671.702 476.645 669.689 477.085 664.71 475.584ZM760.47 458.307C757.295 442.372 753.893 433.58 744.59 418.181L736.945 433.161C736.965 439.874 737.197 444.143 735.584 447.201C739.825 450.735 740.985 451.747 750.802 459.752C754.093 461.367 756.147 461.198 760.47 458.307ZM596.424 455.15C603.675 454.066 598.129 430.186 592.74 430.497C587.35 430.809 569.191 432.526 561.731 434.637C554.27 436.748 558.75 459.674 565.415 459.29C572.08 458.906 589.067 456.938 596.424 455.15ZM514.732 467.359C521.983 466.275 516.437 442.395 511.048 442.706C505.658 443.017 489.505 444.93 482.044 447.041C474.584 449.152 479.064 472.077 485.729 471.693C492.394 471.31 507.375 469.147 514.732 467.359Z" fill="#426640"/>
<path d="M627.445 474.235L643.941 492.031C641.932 494.537 636.188 495.108 621.706 495.354L627.445 474.235Z" fill="#A4A971"/>
<path d="M604.965 482.536L621.706 495.354C617.096 499.191 609.165 498.359 598.503 498.821L604.965 482.536Z" fill="#A4A971"/>
<path d="M590.991 491.543L598.503 498.821C598.275 500.172 596.35 500.729 584.968 500.844L590.991 491.543Z" fill="#A4A971"/>
<path d="M575.767 488.876L584.968 500.844C581.723 502.702 577.705 502.914 569.983 503.084L575.767 488.876Z" fill="#A4A971"/>
<path d="M422.095 518.761C427.126 512.562 430.905 509.109 438.513 502.965C438.323 558.232 438.375 590.237 435.305 626.99L423.822 632.824L409.125 640.292C408.016 633.303 406.703 629.26 401.884 621.607C408.276 615.34 413.041 611.402 423.886 603.493C416.447 596.862 412.426 592.958 406.69 584.319C412.43 576.956 416.225 572.364 426.93 561.033L416.229 552.254C420.654 546.525 423.798 543.029 430.641 536.263C427.097 529.555 425.44 525.689 422.095 518.761Z" fill="#2D2727"/>
<path d="M648.332 551.17L634.437 593.77C629.794 597.872 624.802 600.071 617.902 602.171C622.875 612.3 608.044 642.2 611.091 639.264C597.236 653.765 590.109 659.695 578.233 667.402C566.497 667.097 557.383 668.329 537.484 672.503L513.36 661.777C517.265 649.742 518.475 639.145 520.014 621.742C504.615 607.623 495.654 599.42 481.327 591.039C480.62 590.625 479.899 590.211 479.164 589.796L472.552 572.005C478.961 578.525 483.443 582.633 495.839 592.245L499.995 593.601C507.123 593.073 511.066 592.471 518.363 590.856C520.997 591.972 530.235 584.259 551.172 565.691L648.332 551.17Z" fill="#2D2727"/>
<path d="M520.014 621.742C518.475 639.145 517.265 649.742 513.36 661.777L502.546 656.969L481.327 591.039C495.654 599.42 504.615 607.623 520.014 621.742Z" fill="#714133"/>
<path d="M611.091 639.264C608.044 642.2 622.875 612.3 617.902 602.171C624.802 600.071 629.794 597.872 634.437 593.77C641.784 594.346 645.442 594.97 651.595 596.147C604.162 647.4 614.139 636.329 611.091 639.264Z" fill="#714133"/>
<path d="M559.38 962.578L590.534 925.362C611.206 943.83 617.993 983.451 617.993 983.451C621.351 989.388 567.887 1091.27 525.488 1108.48L490.188 1110.36L465.017 1111.42C465.017 1111.42 489.013 1036.58 468.202 1036C451.327 1035.52 444.781 1018.4 438.126 1000.61C431.472 982.818 443.038 983.265 435.592 960.333L559.38 962.578Z" fill="#2C1D1D"/>
<path d="M611.369 638.397C614.391 635.434 604.302 647.191 651.285 595.526L653.909 594.546C654.095 595.554 654.219 596.685 654.289 597.949C654.793 606.935 652.62 622.66 651.14 648.922C642.068 658.177 634.74 672.197 620.826 701.229C616.457 697.902 614.191 695.424 604.505 682.535L601.125 683.071L600.743 680.657C586.465 674.237 583.553 671.235 578.758 666.82C590.566 659.01 597.641 653.017 611.369 638.397Z" fill="#A8B877"/>
<path d="M513.839 661.761L538.055 672.277C533.755 680.381 527.031 686.246 522.087 693.309C521.386 694.312 520.72 695.338 520.102 696.398C514.238 707.701 512.387 711.78 509.262 718.669L509.261 718.671L508.908 719.45C505.201 719.573 503.037 719.258 499.277 718.006C490.682 709.649 486.316 705.144 479.677 697.358C463.302 682.168 455.989 676.305 445.59 669.602L424.867 638.74L424.051 633.591L435.482 627.656L436.01 627.862C461.655 637.873 476.291 643.848 502.983 657.048L513.839 661.761Z" fill="#A9B779"/>
<path d="M600.743 680.657L601.125 683.071L575.434 730.191L589.648 751.198L576.35 785.964L569.592 787.034L548.615 757.697L556.961 729.158L526.915 692.545L522.087 693.309C527.031 686.246 533.755 680.381 538.055 672.277C557.917 667.929 567.02 666.617 578.758 666.82C583.553 671.235 586.465 674.237 600.743 680.657Z" fill="black"/>
<path d="M620.826 701.229C634.74 672.197 642.068 658.177 651.14 648.922C620.083 748.831 600.371 781.562 578.705 822.704C566.545 810.624 560.35 804.576 537.268 779.783C520.184 760.701 509.129 747.557 489.52 724.241L489.345 724.033C472.636 704.894 462.942 692.363 445.59 669.602C455.989 676.305 463.302 682.168 479.677 697.358C486.316 705.144 490.682 709.649 499.277 718.006C503.037 719.258 505.201 719.573 508.908 719.45L509.261 718.671L509.262 718.669C512.387 711.78 514.238 707.701 520.102 696.398C520.72 695.338 521.386 694.312 522.087 693.309L526.915 692.545L556.961 729.158L548.615 757.697L569.592 787.034L576.35 785.964L589.648 751.198L575.434 730.191L601.125 683.071L604.505 682.535C614.191 695.424 616.457 697.902 620.826 701.229Z" fill="#74543F"/>
<path d="M585.892 868.082C605.774 864.934 609.865 894.47 590.556 897.528C571.247 900.587 566.01 871.229 585.892 868.082Z" fill="black"/>
<path d="M595.526 928.906C614.353 925.924 619.829 954.253 600.037 957.388C580.245 960.522 576.699 931.888 595.526 928.906Z" fill="black"/>
<path fill-rule="evenodd" clip-rule="evenodd" d="M578.705 822.704C600.371 781.562 620.083 748.831 651.14 648.922C652.62 622.66 654.793 606.935 654.289 597.949C688.316 608.735 670.373 601.473 701.861 613.568L740.135 727.099C737.604 745.449 742.39 756.105 742.998 761.278C742.016 746.019 743.606 766.45 742.998 761.278C729.505 796.484 743.055 892.509 761.5 933.299L646.101 1004.52L602.789 974.766L567.897 1016.91L436.748 988.693L436.016 984.076L437.355 983.154L436.743 979.292L434.908 967.706L430.568 950.579L430.249 949.28C421.951 915.404 417.181 895.931 404.614 848.298C394.49 824.614 389.395 811.056 381.894 786.082C375.406 760 371.49 745.812 363.772 721.653C359.79 706.46 357.63 695.996 354.272 688.738C372.792 671.915 383.249 657.957 409.419 641.186L424.051 633.591L424.867 638.74L445.59 669.602C462.942 692.363 472.636 704.894 489.345 724.033L489.52 724.241C509.129 747.557 520.184 760.701 537.268 779.783C560.35 804.576 566.545 810.624 578.705 822.704ZM585.892 868.082C605.774 864.934 609.865 894.47 590.556 897.528C571.247 900.587 566.01 871.229 585.892 868.082ZM595.526 928.906C614.353 925.924 619.829 954.253 600.037 957.388C580.245 960.522 576.699 931.888 595.526 928.906Z" fill="#252222"/>
<path d="M360.749 683.629C365.201 690.272 376.775 702.646 383.085 717.03C394.487 739.684 402.703 742.809 413.191 767.555C397.081 793.596 384.58 795.796 361.176 814.295L357.795 811.796L318.284 824.634C316.988 823.936 316.428 823.996 307.781 803.379L309.826 798.603C308.133 789.151 304.129 782.341 306.26 779.719C318.806 753.659 325.6 738.804 334.771 709.301C342.092 697.426 344.017 691.97 360.749 683.629Z" fill="#AFBE7B"/>
<path d="M446.486 869.874C445.287 868.878 440.728 879.877 438.202 880.876C428.981 883.027 426.274 887.909 419.395 889.622C403.583 868.622 385.333 845.404 356.698 842.498L358.721 820.257L361.176 814.295C384.58 795.796 397.081 793.596 413.191 767.555C413.191 767.555 428.503 830.715 422.4 840.679L403.867 818.436C401.557 819.542 400.871 820.675 400.276 823.2C411.882 831.609 421.092 839.454 432.597 852.187C436.737 858.545 443.693 861.862 446.486 869.874Z" fill="#7A3A2E"/>
<path d="M400.276 823.2C400.871 820.675 401.557 819.542 403.867 818.436L422.4 840.679C425.369 844.591 430.535 849.021 432.597 852.187C421.092 839.454 411.882 831.609 400.276 823.2Z" fill="black"/>
<path d="M318.606 831.235C319.319 827.818 320.573 826.345 318.284 824.634L357.795 811.796L361.176 814.295L358.721 820.257L356.698 842.498C385.333 845.404 403.583 868.622 419.395 889.622C402.562 893.814 406.468 902.347 390.698 907.12C385.164 918.766 387.845 932.749 376.132 940.857C368.26 928.751 328.758 893.012 309.946 872.592C311.797 859.009 313.428 850.394 318.606 831.235Z" fill="#456746"/>
<path d="M480.532 951.259C481.339 949.338 482.393 948.302 486.23 946.645C496.45 950.112 503.107 950.716 514.606 951.758L515.537 951.843C509.168 960.838 505.468 965.703 496.219 970.63C488.824 964.893 484.699 961.646 480.532 951.259Z" fill="black"/>
<path fill-rule="evenodd" clip-rule="evenodd" d="M450.709 993.647C445.101 991.501 431.916 983.04 375.973 940.964C384.002 929.197 387.999 922.523 388.992 909.667C402.005 899.56 411.732 892.241 425.944 882.295C431.753 878.23 438.311 873.726 446.149 868.414L463.59 887.622C460.177 886.979 455.055 889.904 440.691 900.506C440.071 907.282 439.071 913.532 430.677 949.494C432.031 951.649 436.637 951.796 482.231 941.707C485.976 930.724 487.201 924.245 487.092 911.985C502.178 910.944 505.068 910.304 509.975 909.178C507.274 902.405 506.203 898.034 505.124 889.208L506.081 889.061L541.501 883.649L525.786 910.84L528.247 913.878L527.548 915.346L522.894 925.131L542.055 951.123L483.94 998.183C471.295 999.075 465.273 998.938 454.708 998.585L450.709 993.647ZM486.23 946.645C482.393 948.302 481.339 949.338 480.532 951.259C484.699 961.646 488.824 964.893 496.219 970.63C505.468 965.703 509.168 960.838 515.537 951.843L514.606 951.758C503.107 950.716 496.45 950.112 486.23 946.645Z" fill="#343F31"/>
<path d="M463.59 887.622C482.802 886.816 485.306 890.692 505.124 889.208C506.203 898.034 507.274 902.405 509.975 909.178C505.068 910.304 502.178 910.944 487.092 911.985C487.201 924.245 485.976 930.724 482.231 941.707C436.637 951.796 432.031 951.649 430.677 949.494C439.071 913.532 440.071 907.282 440.691 900.506C455.055 889.904 460.177 886.979 463.59 887.622Z" fill="#456746"/>
<path fill-rule="evenodd" clip-rule="evenodd" d="M1545.55 840.521L1192.6 494.258C1164.34 440.522 1122.29 397.911 1060.38 364.538L937.632 244.118C1277.75 259.859 1456.39 400.035 1552.39 834.653C1550.09 836.636 1547.81 838.592 1545.55 840.521Z" fill="#D62C0C" fill-opacity="0.3"/>
<path d="M937.632 244.118C821.814 238.758 687.271 247.826 530.889 264.61C784.139 276.701 949.212 306.164 1056.21 362.324C1057.61 363.057 1059 363.795 1060.38 364.538L937.632 244.118Z" fill="#F3C0B6"/>
<path d="M1177.9 759.191C1201.16 822.634 1208.31 856.575 1215.44 915.548C1339.23 974.12 1412.85 953.614 1545.55 840.521L1192.6 494.258C1223.6 553.193 1238.02 625.51 1243.88 713.695C1226.92 650.976 1211.96 625.844 1173.8 601.843C1217.11 695.081 1220.41 746.368 1230.51 838.042C1212.66 802.065 1200.88 785.272 1177.9 759.191Z" fill="#456746" fill-opacity="0.3"/>
<path d="M691.387 202.795C687.496 202.053 683.396 201.232 679.062 200.326C665.135 187.164 652.681 177.913 635.746 165.493C664.072 325.768 696.316 372.67 771.642 409.675C763.962 385.194 760.881 374.66 756.924 359.871C696.053 325.258 730.338 236.468 789.772 250.187C791.708 251.307 793.232 252.098 794.497 252.652C798.15 251.26 801.541 250.012 804.745 248.882C819.423 243.705 830.191 241.018 844.382 238.538C846.984 238.083 849.701 237.635 852.579 237.181C934.255 178.574 968.064 278.606 945.223 308.553L954.375 361.636C980.417 321.657 993.895 298.132 993.532 232.118C974.241 156.36 961.613 114.845 937.88 64.46C923.073 99.6928 921.502 109.317 908.703 139.65C866.702 176.27 856.567 179.782 835.962 189.244L834.127 189.312L808.813 190.243C801.999 191.707 796.43 194.055 788.817 198.295C785.777 199.988 782.412 201.983 778.511 204.344C752.654 209.363 735.478 211.198 691.387 202.795Z" fill="black"/>
<path d="M617.086 151.746C643.506 297.364 660.695 378.89 781.393 423.048L771.642 409.675C696.316 372.67 664.072 325.768 635.746 165.493C630.098 161.351 623.952 156.856 617.086 151.746Z" fill="#E6EAEB"/>
<path d="M683.515 197.704C653.066 169.011 640.097 162.706 617.086 151.746C623.952 156.856 630.098 161.351 635.746 165.493C652.681 177.913 665.135 187.164 679.062 200.326C683.396 201.232 687.496 202.053 691.387 202.795C688.586 200.173 686.837 199.132 683.515 197.704Z" fill="#544E2E"/>
<path d="M771.642 409.675L781.393 423.048C781.464 417.769 781.085 414.048 780.139 406.919C772.183 389.389 768.38 378.28 761.805 359.076L761.426 357.969L756.924 359.871C760.881 374.66 763.962 385.194 771.642 409.675Z" fill="#544E2E"/>
<path d="M756.924 359.871L761.426 357.969C704.47 325.548 727.727 251.125 789.84 255.395L805.199 253.47C800.237 253.542 799.046 254.641 794.497 252.652C793.232 252.098 791.708 251.307 789.772 250.187C730.338 236.468 696.053 325.258 756.924 359.871Z" fill="#544E2E"/>
<path fill-rule="evenodd" clip-rule="evenodd" d="M954.375 361.636L958.756 374.798C962.045 369.903 965.2 365.448 968.211 361.196C987.83 333.493 1001.35 314.407 1006.11 238.202C996.402 182.721 987.078 146.21 947.982 49.7922C943.911 47.4953 941.686 50.0594 937.88 64.46C961.613 114.845 974.241 156.36 993.532 232.118C993.895 298.132 980.417 321.657 954.375 361.636Z" fill="#E6EAEB"/>
<path d="M945.223 308.553C968.064 278.606 934.255 178.574 852.579 237.181C849.701 237.635 846.984 238.083 844.382 238.538L845.542 244.324L855.857 242.746C902.836 186.961 973.374 258.985 939.344 309.392C947.558 355.851 951.824 369.787 958.756 374.798L954.375 361.636L945.223 308.553Z" fill="#544E2E"/>
<path d="M788.817 198.295C796.43 194.055 801.999 191.707 808.813 190.243L834.127 189.312C829.425 177.825 827.813 171.641 827.381 161.314C803.646 155.727 794.013 160.745 779.246 175.048L788.817 198.295Z" fill="#DBBF9F"/>
<path d="M845.542 244.324L844.382 238.538C830.191 241.018 819.423 243.705 804.745 248.882L805.199 253.47L864.499 454.684L872.04 467.484C882.931 470.065 893.183 469.26 902.559 460.752L901.091 443.625L845.542 244.324Z" fill="#DBBF9F"/>
<path d="M902.559 460.752C893.183 469.26 882.931 470.065 872.04 467.484L868.7 469.451C872.264 482.519 873.685 489.337 875.646 500.969C877.894 500.873 878.487 502.061 880.251 506.878C880.655 506.703 881.053 506.532 881.447 506.363C893.618 501.135 901.11 498.489 913.7 495.575C914.241 495.45 914.792 495.324 915.352 495.198C910.846 482.06 908.919 475.091 907.408 463.893C906.761 460.218 905.838 459.258 902.559 460.752Z" fill="#1C120D"/>
<path d="M928.316 546.785C926.743 552.326 925.596 555.529 899.513 570.124C902.222 580.286 905.024 590.974 907.963 602.255C933.673 587.009 938.03 582.614 937.306 578.285L928.316 546.785Z" fill="#4F3128"/>
<path d="M937.306 578.285C938.03 582.614 933.673 587.009 907.963 602.255C911.11 614.335 912.335 619.323 915.844 632.846C942.945 619.507 946.419 616.401 946.632 610.962L937.306 578.285Z" fill="#160903"/>
<path d="M946.632 610.962C946.419 616.401 942.945 619.507 915.844 632.846C916.402 634.995 919.042 644.934 919.61 647.121C927.851 653.915 935.165 652.964 954.829 639.682L946.632 610.962Z" fill="#75594D"/>
<path d="M927.235 676.365C938.56 682.531 946.004 682.135 963.026 668.401L954.829 639.682C935.165 652.964 927.851 653.915 919.61 647.121C922.046 656.5 924.582 666.239 927.235 676.365Z" fill="#140900"/>
<path d="M919.524 515.98C917.617 521.863 914.564 525.781 890.878 538.476C893.68 548.453 896.54 558.972 899.513 570.124C925.596 555.529 926.743 552.326 928.316 546.785L919.524 515.98Z" fill="#170A04"/>
<path d="M913.7 495.575C901.11 498.489 893.618 501.135 881.447 506.363C884.57 516.451 887.687 527.112 890.878 538.476C914.564 525.781 917.617 521.863 919.524 515.98L913.7 495.575Z" fill="#75594D"/>
<path d="M963.026 668.401C946.004 682.135 938.56 682.531 927.235 676.365C931.166 684.447 931.647 689.337 926.084 695.41C925.015 704.19 926.209 708.186 932.366 713.074C931.347 721.67 934.863 723.113 940.234 726.432C958.662 725.381 966.28 722.153 978.545 715.11C984.193 712.708 983.829 709.252 978.995 700.601C979.296 693.982 979.031 690.344 972.697 684.82C965.49 681.05 963.169 677.638 963.026 668.401Z" fill="#BCB3AA"/>
<path d="M729.748 724.375L693.147 611.682L702.814 610.238C714.072 606.463 713.162 614.583 712.475 608.793C718.153 607.601 722.693 606.074 734.274 600.978L756.975 641.522L758.648 644.509L744.557 704.372L729.748 724.375Z" fill="#AEBA78"/>
<path d="M756.975 641.522L734.274 600.978C741.442 597.578 746.49 597.634 750.632 598.377C753.152 591.84 759.433 586.048 768.61 576.6C784.517 568.77 791.524 564.356 802.774 556.45C810.974 554.482 815.017 554.163 820.457 553.474L817.697 564.205L829.907 593.213L826.548 611.381L834.144 628.781C811.298 627.099 799.095 625.055 778.982 618.49C769.284 627.17 762.305 629.842 756.975 641.522Z" fill="#456746"/>
<path d="M908.23 655.761C900.965 649.04 887.843 648.046 877.308 642.443L862.106 626.602L866.662 564.49C880.532 570.368 888.346 574.626 906.869 591.726L909.262 619.031L925.353 636.614L909.504 657.305L908.23 655.761Z" fill="#456746"/>
<path d="M729.748 724.375L744.557 704.372L758.648 644.509L756.975 641.522C762.305 629.842 769.284 627.17 778.982 618.49C799.095 625.055 811.298 627.099 834.144 628.781C840.082 640.739 844.652 646.851 852.157 653.369C853.609 654.63 855.171 655.906 856.874 657.243L856.83 657.256C844.564 660.972 837.674 663.06 828.065 663.145C817.263 660.023 809.56 658.967 789.133 659.943L791.796 665.169L828.065 663.145L813.78 699.524C799.571 705.173 790.713 703.256 785.981 705.433C781.25 707.609 747.982 721.112 729.748 724.375Z" fill="#7A3A2E"/>
<path d="M791.796 665.169L789.133 659.943C809.56 658.967 817.263 660.023 828.065 663.145L791.796 665.169Z" fill="black"/>
<path fill-rule="evenodd" clip-rule="evenodd" d="M820.457 553.474L817.697 564.205L829.907 593.213L826.548 611.381L834.144 628.781C840.082 640.739 844.652 646.851 852.157 653.369L877.308 642.443L862.106 626.602L866.662 564.49C880.532 570.368 888.346 574.626 906.869 591.726L909.262 619.031L925.353 636.614L909.504 657.305L913.328 661.939L913.966 662.712L942.307 681.732L940.966 648.954L947.498 645.626C946.76 640.705 946.119 638.514 944.58 635.593C955.637 628.709 961.584 623.967 972.188 615.493L936.907 546.251C934.158 544.403 930.748 542.707 926.414 540.852L934.255 571.19C942.278 608.933 917.293 613.245 907.238 582.761L906.815 581.476L890.513 537.691C888.782 538.053 887.112 538.394 885.507 538.722C875.945 540.675 868.655 542.164 864.327 544.835C851.398 546.011 840.501 548.64 821.838 553.141L820.457 553.474Z" fill="#2B2D28"/>
</svg>
