<svg width="1764" height="1323" viewBox="0 0 1764 1323" fill="none" xmlns="http://www.w3.org/2000/svg">
<path d="M686.591 750.466L707.975 771.797L712.08 775.893L797.002 860.606L911.92 836.3L857.392 761.223L818.654 777.745L758.298 722.724L759.602 698.784L686.591 750.466Z" fill="#211F27"/>
<path d="M686.591 750.466L668.47 760.897C684.836 757.309 694.3 758.842 707.975 771.797L686.591 750.466Z" fill="#211F27"/>
<path d="M686.591 750.466L759.602 698.784L758.298 722.724L818.654 777.745L857.392 761.223L911.92 836.3L797.002 860.606L712.08 775.893M686.591 750.466L668.47 760.897C684.836 757.309 694.3 758.842 707.975 771.797M686.591 750.466L707.975 771.797M712.08 775.893C710.665 774.416 709.3 773.053 707.975 771.797M712.08 775.893L707.975 771.797" stroke="black" stroke-width="0.350418"/>
<path d="M908.848 839.717L915.202 847.097L968.913 799.997L965.09 794.246L925.035 733.996L915.894 720.246L848.931 757.219L854.32 764.639L908.848 839.717Z" fill="#461B46"/>
<path d="M1068.39 743.365L1058.77 719.447L998.422 755.903L1011.88 774.336L1068.39 743.365Z" fill="#461B49"/>
<path d="M1074.9 774.331L1067.79 749.671L1019.75 773.283L1006.73 781.332L1021.45 794.127L1046.92 784.695L1074.9 774.331Z" fill="#461B49"/>
<path d="M973.539 752.48L983.922 724.029L984.795 721.638L1010.21 699.617L1007.53 699.398L983.033 720.106L973.539 752.48Z" fill="black"/>
<path fill-rule="evenodd" clip-rule="evenodd" d="M1005.04 748.29L998.422 755.903L1058.77 719.447L1005.04 748.29ZM1011.88 774.336L1019.75 773.283L1067.79 749.671L1068.39 743.365L1011.88 774.336Z" fill="black"/>
<path d="M990.942 741.525L996.812 737.458L988.278 726.223L990.942 741.525Z" fill="#461B49"/>
<path d="M1021.45 794.127L1006.73 781.332L1019.75 773.283L1011.88 774.336L998.422 755.903L1005.04 748.29L996.812 737.458L990.942 741.525L988.278 726.223L984.795 721.638L983.922 724.029L986.732 726.472L990.283 745.102L996.277 740.329L1002.52 749.71L994.758 756.764L1008.7 774.915L1005.07 780.953L1019.99 794.846L1021.45 794.127Z" fill="black"/>
<path d="M1021.45 794.127L1019.99 794.846L1021.54 796.195L1047.57 786.551L1046.92 784.695L1021.45 794.127Z" fill="black"/>
<path fill-rule="evenodd" clip-rule="evenodd" d="M925.035 733.996L956.299 717.296L966.862 696.066L969.125 696.251L1007.53 699.398L983.033 720.106L973.539 752.48L974.386 795.956L965.09 794.246L925.035 733.996ZM996.812 737.458L1005.04 748.29L1057.18 715.938L1054.07 709.095L1037.79 678.562L1035.01 680.686L1010.21 699.617L984.795 721.638L988.278 726.223L996.812 737.458Z" fill="#461B49"/>
<path d="M1005.04 748.29L1058.77 719.447L1057.18 715.938L1005.04 748.29Z" fill="black"/>
<path d="M1007.53 699.398L1010.21 699.617L1035.01 680.686L1035.3 678.614L1009.81 697.784L969.24 694.784L969.125 696.251L1007.53 699.398Z" fill="black"/>
<path d="M973.539 752.48L986.369 749.471L983.544 773.017L1005.92 801.756L1019.99 794.846L1005.07 780.953L1008.7 774.915L994.758 756.764L1002.52 749.71L996.277 740.329L990.283 745.102L986.732 726.472L983.922 724.029L973.539 752.48Z" fill="black"/>
<path d="M986.369 749.471L973.539 752.48L974.386 795.956L1005.92 801.756L983.544 773.017L986.369 749.471Z" fill="black"/>
<path d="M630.415 767.611L587.439 754.829C592.475 764.631 596.566 772.635 599.996 780.366L642.096 798.465L658.845 796.041L665.236 815.215L687.275 792.515L696.188 822.267L713.281 787.446C707.02 788.181 703.495 788.036 697.192 785.242C706.034 770.436 713.401 761.359 728.708 744.47C706.863 753.517 695.981 759.98 681.324 776.426L642.096 752.184L630.415 767.611Z" fill="#C5B5A5"/>
<path d="M687.828 535.102C693.225 528.27 698.294 523.422 698.955 518.133C698.428 509.759 696.229 505.313 689.699 507.995C683.169 510.677 681.324 521.302 687.828 535.102Z" fill="black"/>
<path d="M792.4 1107.08L789.535 1175.99L954.753 1179.96C926.906 1151.83 911.077 1137.54 866.891 1130.81V1102.08L792.4 1107.08Z" fill="black"/>
<path d="M336.639 1100.34L331.79 1129.27C302.798 1142.96 288.696 1155.03 265.013 1179.51H402.755V1155.27L419.945 1105.81L336.639 1100.34Z" fill="black"/>
<path d="M469.306 597.472C470.666 597.733 474.231 597.216 478.093 596.656C479.864 596.399 481.698 596.133 483.411 595.929L499.499 593.725L501.048 595.268H510.965C517.297 623.158 520.951 636.865 527.935 652.348L530.58 622.596C540.282 636.939 545.635 644.996 557.467 658.96C561.977 657.046 563.813 655.359 565.842 651.246C567.757 665.602 569.99 673.87 576.861 689.153C577.287 678.984 576.407 672.19 572.233 657.417C587.337 675.78 596.312 685.469 615.208 699.291C614.734 686.775 614.17 679.744 611.241 667.114C627.365 684.113 635.164 694.061 648.928 711.853L652.233 692.459L681.324 730.586C691.12 719.594 696.48 713.52 701.159 705.903C704.601 705.874 706.53 705.443 709.975 703.919C716.139 697.161 718.941 691.149 723.418 678.575C724.697 663.68 725.704 655.629 732.454 646.398C733.249 652.915 733.575 657.413 733.777 668.216C741.801 656.848 747.687 654.211 748.102 622.376L764.184 627.885C764.191 619.456 763.446 613.645 761.766 602.761L756.25 597.472C675.356 597.603 628.863 596.613 557.02 605.186L556.251 603.967L556.251 603.966C542.797 582.644 535.02 570.319 521.979 541.714C519.945 542.267 517.975 542.798 516.064 543.312C516.057 543.314 516.051 543.316 516.044 543.318C498.441 548.058 485.914 551.431 475.918 558.243C482.067 561.289 489.422 562.321 498.276 563.563C501.817 564.059 505.598 564.589 509.637 565.295C492.466 572.395 467.322 597.091 469.306 597.472Z" fill="#D2CFC9"/>
<path d="M773.881 635.379C775.5 622.451 773.538 616.232 769.914 605.186L761.766 602.761C763.446 613.645 764.191 619.456 764.184 627.885L748.102 622.376C747.687 654.211 741.801 656.848 733.777 668.216C733.575 657.413 733.249 652.915 732.454 646.398C725.704 655.629 724.697 663.68 723.418 678.575C718.941 691.149 716.139 697.161 709.975 703.919C706.53 705.443 704.601 705.874 701.159 705.903C696.48 713.52 691.12 719.594 681.324 730.586L652.233 692.459L648.928 711.853C635.164 694.061 627.365 684.113 611.241 667.114C614.17 679.744 614.734 686.775 615.208 699.291C596.312 685.469 587.337 675.78 572.233 657.417C576.407 672.19 577.287 678.984 576.861 689.153C569.99 673.87 567.757 665.602 565.842 651.246C563.813 655.359 561.977 657.046 557.467 658.96C545.635 644.996 540.282 636.939 530.58 622.596L527.935 652.348C520.951 636.865 517.297 623.158 510.965 595.268H501.048L499.499 593.725L483.411 595.929C481.951 599.24 481.464 605.431 480.649 615.775C480.641 615.886 480.632 615.997 480.623 616.108C480.598 616.43 480.572 616.756 480.546 617.086C488.43 614.833 492.599 613.23 499.499 609.593L506.772 654.552L509.695 656.955C509.695 656.956 509.696 656.956 509.697 656.957C544.291 685.399 564.57 702.071 598.233 731.027C598.237 730.952 598.241 730.878 598.245 730.804C598.25 730.702 598.256 730.601 598.261 730.501C598.272 730.31 598.282 730.121 598.292 729.934C598.306 729.678 598.32 729.426 598.333 729.177C598.336 729.121 598.339 729.064 598.342 729.008C598.342 729.001 598.343 728.993 598.343 728.986C598.65 723.251 598.852 719.476 599.996 714.057C629.735 730.399 646.471 739.181 676.69 752.184C705.358 718.696 721.76 700.583 752.283 670.861C752.346 669.01 752.383 667.266 752.417 665.606C752.417 665.603 752.417 665.6 752.418 665.598C752.624 655.753 752.768 648.861 758.013 640.227C759.93 640.951 761.242 642.497 764.184 648.161C766.748 639.748 767.981 637.092 769.914 635.379H773.881Z" fill="#C5B5A5"/>
<path d="M621.599 498.358C594.925 509.272 583.859 509.209 575.759 500.281C572.386 497.144 568.798 494.249 565.842 491.318C565.854 491.359 565.866 491.399 565.878 491.44C571.32 509.752 566.592 511.914 557.908 515.488C560.707 516.344 563.356 517.048 565.878 517.601C588.565 522.577 601.024 515.418 621.469 498.467C621.512 498.43 621.556 498.394 621.599 498.358Z" fill="#A4395B"/>
<path d="M552.398 441.217C547.304 450.562 545.105 455.824 542.04 465.24L552.398 464.64L568.707 463.697C577.946 466.287 590.571 467.854 603.112 469.411L603.113 469.411C612.314 470.554 619.811 471.69 627.55 473.221C631.363 473.975 635.168 474.605 638.129 475.598C634.556 474.707 630.818 474.069 627.55 473.221C599.852 466.037 583.441 459.653 552.398 441.217Z" fill="#FEBD87"/>
<path d="M789.314 532.725C784.968 535.321 779.694 536.881 771.242 538.629C767.403 548.872 771.257 553.686 776.792 560.6C776.793 560.601 776.794 560.602 776.795 560.603C776.8 560.609 776.805 560.615 776.81 560.621C777.335 561.277 777.874 561.951 778.424 562.651C783.033 562.098 785.565 559.99 789.314 532.725Z" fill="black"/>
<path d="M720.553 502.265C732.407 502.059 735.54 500.502 740.168 482.871C736.421 479.565 732.198 474.796 724.961 474.716C716.519 476.99 713.692 479.061 711.077 483.752C708.592 497.432 714.66 498.781 720.553 502.265Z" fill="#AC3131"/>
<path fill-rule="evenodd" clip-rule="evenodd" d="M627.55 473.221C631.363 473.975 635.168 474.605 638.129 475.598C634.556 474.707 630.818 474.069 627.55 473.221ZM632.302 493.238C634.832 483.625 635.086 477.6 618.343 474.432C614.348 473.377 610.828 473.023 607.935 473.221C604.062 473.487 599.941 480.537 598.679 482.43C596.839 485.191 607.094 498.944 621.469 498.467C623.426 498.402 625.46 498.073 627.55 497.416L630.349 494.955L632.302 493.238Z" fill="#AC3131"/>
<path d="M568.707 463.697L552.398 464.64C554.184 474.511 555.353 480.921 565.878 491.44C565.866 491.399 565.854 491.359 565.842 491.318C568.798 494.249 572.386 497.144 575.759 500.281C583.859 509.209 594.925 509.272 621.599 498.358L627.55 497.416C625.46 498.073 623.426 498.402 621.469 498.467C607.094 498.944 596.839 485.191 598.679 482.43C599.941 480.537 604.062 473.487 607.935 473.221C610.828 473.023 614.348 473.377 618.343 474.432C635.086 477.6 634.832 483.625 632.302 493.238L658.404 480.667L638.129 475.598C634.556 474.707 630.818 474.069 627.55 473.221C619.811 471.69 612.314 470.554 603.113 469.411L603.112 469.411C590.571 467.854 577.946 466.287 568.707 463.697Z" fill="black"/>
<path d="M655.533 510.419C651.542 519.612 659.862 525.237 670.912 535.102C672.677 523.468 674.136 516.833 664.134 507.995C660.704 505.691 658.836 506.956 655.533 510.419Z" fill="black"/>
<path d="M668.983 541.714H678.239H686.173H694.107C685.856 535.826 683.026 527.709 680.443 506.672H674.492C674.071 519.069 673.209 526.42 670.912 535.102C670.357 537.199 669.719 539.373 668.983 541.714Z" fill="#B74A5F"/>
<path d="M557.02 605.186C611.752 585.936 656.208 583.984 756.029 593.725C740.492 584.982 730.809 580.243 686.173 576.315C684.303 562.171 682.933 554.136 686.173 541.714H678.239C680.048 556.844 679.248 564.481 678.239 578.298H615.649L587.66 545.901L560.993 553.395L499.499 465.24L535.208 420.727L519.781 411.758C504.194 428.18 491.685 443.225 473.053 467.223C510.736 526.701 514.701 531.995 521.538 541.125L521.979 541.714C535.02 570.319 542.797 582.644 556.251 603.966L556.251 603.967L557.02 605.186Z" fill="#B74A5F"/>
<path d="M756.029 593.725C656.208 583.984 611.752 585.936 557.02 605.186C628.863 596.613 675.356 597.603 756.25 597.472L756.029 593.725Z" fill="black"/>
<path d="M655.533 430.639C624.794 419.667 609.843 415.676 595.704 411.902C581.076 407.997 567.318 404.325 537.846 393.393C531.171 399.99 525.284 405.959 519.781 411.758L535.208 420.727L575.759 444.303C607.126 457.412 625.686 454.572 666.999 467.223C689.025 455.185 703.037 448.302 734.658 435.487C745.057 459.373 751.337 469.524 762.284 489.482C765.289 479.143 768.136 466.967 770.795 451.355L724.294 410.363C693.649 418.052 677.77 422.444 655.533 430.639Z" fill="#FEBD87"/>
<path d="M811.501 464.578L793.429 481.328L779.617 499.4C779.267 510.675 778.179 515.344 776.393 523.004C776.295 523.428 776.194 523.86 776.091 524.303C790.808 524.594 794.009 525.577 795.265 528.05C793.328 529.949 791.431 531.46 789.314 532.725C785.565 559.99 783.033 562.098 778.424 562.651C778.817 563.151 779.216 563.665 779.617 564.194C773.928 564.274 771.055 563.339 766.394 560.227C763.533 571.963 761.695 577.341 758.24 586.012V594.387L817.958 545.901C818.31 529.237 816.799 485.398 811.501 464.578Z" fill="#B74A5F"/>
<path fill-rule="evenodd" clip-rule="evenodd" d="M756.029 586.012L739.941 549.648C724.455 522.394 717.375 511.441 706.669 496.958C697.875 493.524 686.474 488.709 667.66 481.328L658.404 480.667L632.302 493.238L630.349 494.955C629.266 496.037 628.091 497.246 627.55 497.416C625.46 498.073 623.426 498.402 621.469 498.467C601.024 515.418 588.565 522.577 565.878 517.601L587.66 545.901L615.649 578.298H678.239C679.248 564.481 680.048 556.844 678.239 541.714H668.983C669.719 539.373 670.357 537.199 670.912 535.102C659.862 525.237 651.542 519.612 655.533 510.419C658.836 506.956 660.704 505.691 664.134 507.995C674.136 516.833 672.677 523.468 670.912 535.102C673.209 526.42 674.071 519.069 674.492 506.672H680.443C683.026 527.709 685.856 535.826 694.107 541.714H686.173C682.933 554.136 684.303 562.171 686.173 576.315C730.809 580.243 740.492 584.982 756.029 593.725V586.012ZM698.955 518.133C698.294 523.422 693.225 528.27 687.828 535.102C681.324 521.302 683.169 510.677 689.699 507.995C696.229 505.313 698.428 509.759 698.955 518.133Z" fill="#FEBD87"/>
<path d="M737.082 453.78C711.876 464.966 695.425 470.717 667.66 481.328C690.975 475.097 704.045 471.674 727.385 469.527H743.033C741.257 461.986 739.853 458.805 737.082 453.78Z" fill="#FEBD87"/>
<path d="M720.553 502.265C714.66 498.781 708.592 497.432 711.077 483.752C713.692 479.061 716.519 476.99 724.961 474.716C732.198 474.796 736.421 479.565 740.168 482.871C738.696 477.3 736.264 471.561 727.385 469.527C704.045 471.674 690.975 475.097 667.66 481.328C686.474 488.709 697.875 493.524 706.669 496.958C711.267 498.754 716.694 501.054 720.553 502.265Z" fill="black"/>
<path d="M387.102 508.876L371.019 506.011L380.275 514.166C387.439 529.779 392.018 538.021 401.648 551.631L387.102 556.26L389.091 563.092C397.93 559.803 402.84 558.117 410.586 558.243L409.483 537.086L387.102 508.876Z" fill="black"/>
<path d="M387.102 460.391L347.433 436.369C319.327 468.917 311.116 485.377 321.207 508.876L343.691 554.496C351.954 561.513 356.562 565.459 364.628 572.568L412.011 585.571L410.586 558.243C402.84 558.117 397.93 559.803 389.091 563.092L387.102 556.26L367.273 537.086L354.49 506.011L347.653 495.873L387.102 460.391Z" fill="#D15F6F"/>
<path d="M405.84 467.223C398.088 467.729 393.882 466.952 387.102 460.391L347.653 495.873L354.49 506.011L367.273 537.086L387.102 556.26L401.648 551.631C392.018 538.021 387.439 529.779 380.275 514.166L371.019 506.011L387.102 508.876L409.483 537.086L405.84 467.223Z" fill="#B74A5F"/>
<path d="M414.871 965.739C334.655 958.907 218.422 985.879 248.258 846.95C278.094 708.022 88.703 690.035 77.6789 697.528C66.6549 705.021 63.3582 719.346 77.6789 727.941C91.9996 736.536 243.415 721.109 219.828 846.95C196.593 970.918 271.105 1005.29 391.539 987.939L397.03 987.117L414.871 965.739Z" fill="#211F27"/>
<path d="M514.932 993.288L527.929 965.739L481.322 961.38L455.207 958.907L448.155 984.913L514.932 993.288Z" fill="#6B304C"/>
<path d="M671.848 954.459L527.929 965.739L514.932 993.288L671.848 982.929V954.459Z" fill="#6B304C"/>
<path d="M676.69 884.416L526.981 887.314L536.089 952.075L702.261 941.056L692.51 919.458L676.69 884.416Z" fill="#6B304C"/>
<path d="M702.261 941.056L536.089 952.075L527.929 965.739L671.848 954.459L702.261 952.075V941.056Z" fill="black"/>
<path d="M666.999 467.223C625.686 454.572 607.126 457.412 575.759 444.303L535.208 420.727L499.499 465.24L560.993 553.395L587.66 545.901L565.878 517.601C563.356 517.048 560.707 516.344 557.908 515.488C566.592 511.914 571.32 509.752 565.878 491.44C555.353 480.921 554.184 474.511 552.398 464.64L542.04 465.24C545.105 455.824 547.304 450.562 552.398 441.217C583.441 459.653 599.852 466.037 627.55 473.221C631.363 473.975 635.168 474.605 638.129 475.598L658.404 480.667L667.66 481.328C695.425 470.717 711.876 464.966 737.082 453.78C739.853 458.805 741.257 461.986 743.033 469.527H727.385C736.264 471.561 738.696 477.3 740.168 482.871C735.54 500.502 732.407 502.059 720.553 502.265C716.694 501.054 711.267 498.754 706.669 496.958C717.375 511.441 724.455 522.394 739.941 549.648C743.23 540.244 746.442 532.346 749.554 524.694L749.555 524.692L749.556 524.691C754.029 513.694 758.295 503.205 762.284 489.482C751.337 469.524 745.057 459.373 734.658 435.487C703.037 448.302 689.025 455.185 666.999 467.223Z" fill="#6C5C5C"/>
<path d="M536.089 952.075L526.981 887.314L447.421 885.249L453.786 945.464L536.089 952.075Z" fill="#6B304C"/>
<path d="M527.929 965.739L536.089 952.075L453.786 945.464L455.207 958.907L481.322 961.38L527.929 965.739Z" fill="black"/>
<path d="M425.229 952.075L414.871 965.739L397.03 987.117C500.045 1032.64 562.257 1042.22 692.51 990.19L711.071 974.114L713.281 916.372L692.51 919.458L702.261 941.056V952.075L671.848 954.459V982.929L514.932 993.288L448.155 984.913L455.207 958.907L453.786 945.464L447.421 885.249L415.312 884.416L409.914 911.945L408.7 918.135C410.377 923.135 411.866 927.304 413.566 931.291C414.105 932.526 414.669 933.78 415.25 935.03C417.702 940.186 420.73 945.381 425.229 952.075Z" fill="#3F2F3D"/>
<path fill-rule="evenodd" clip-rule="evenodd" d="M587.439 754.829L630.415 767.611L642.096 752.184L681.324 776.426C695.981 759.98 706.863 753.517 728.708 744.47C713.401 761.359 706.034 770.436 697.192 785.242C703.495 788.036 707.02 788.181 713.281 787.446L696.188 822.267L687.275 792.515L665.236 815.215L658.845 796.041L642.096 798.465L599.996 780.366C596.566 772.635 592.475 764.631 587.439 754.829Z" fill="#D2CFC9"/>
<path d="M646.724 868.769C673.033 855.876 681.45 846.89 692.51 829.76L696.188 822.267L687.275 792.515L665.236 815.215L658.845 796.041L642.096 798.465L599.996 780.366C604.774 791.137 608.267 801.378 611.241 815.215C617.963 810.161 620.2 806.477 621.599 798.465C628.277 819.972 628.177 832.493 628.01 853.506L628.01 853.547L628.009 853.606L628.009 853.688L628.008 853.809C628.002 854.524 627.996 855.25 627.991 855.986C628.779 855.608 629.543 855.244 630.284 854.891L630.362 854.854L630.365 854.852C639.455 850.524 645.224 847.776 652.233 839.016C649.331 849.502 648.284 856.266 646.724 868.769Z" fill="#C5B5A5"/>
<path fill-rule="evenodd" clip-rule="evenodd" d="M773.881 635.379H769.914C767.981 637.092 766.748 639.748 764.184 648.161C761.242 642.497 759.93 640.951 758.013 640.227C752.768 648.861 752.624 655.753 752.418 665.598L752.417 665.606C752.383 667.266 752.346 669.01 752.283 670.861C721.76 700.583 705.358 718.696 676.69 752.184C646.471 739.181 629.735 730.399 599.996 714.057C598.852 719.476 598.65 723.251 598.343 728.986L598.342 729.008L598.333 729.177L598.292 729.934L598.261 730.501L598.245 730.804L598.233 731.027C564.57 702.071 544.291 685.399 509.697 656.957L509.695 656.955L506.772 654.552L499.499 609.593C492.599 613.23 488.43 614.833 480.546 617.086L480.623 616.108L480.649 615.775C481.464 605.431 481.951 599.24 483.411 595.929C481.698 596.133 479.864 596.399 478.093 596.656C474.231 597.216 470.666 597.733 469.306 597.472C467.322 597.091 492.466 572.395 509.637 565.295C505.598 564.589 501.817 564.059 498.276 563.563C489.422 562.321 482.067 561.289 475.918 558.243C485.914 551.431 498.441 548.058 516.044 543.318L516.064 543.312C517.975 542.798 519.945 542.267 521.979 541.714L521.538 541.125C514.701 531.995 510.736 526.701 473.053 467.223C491.685 443.225 504.194 428.18 519.781 411.758C525.284 405.959 531.171 399.99 537.846 393.393C567.318 404.325 581.076 407.997 595.704 411.902C609.843 415.676 624.794 419.667 655.533 430.639C677.77 422.444 693.649 418.052 724.294 410.363L770.795 451.355C768.136 466.967 765.289 479.143 762.284 489.482C758.295 503.205 754.029 513.694 749.556 524.691L749.555 524.692L749.554 524.694C746.442 532.346 743.23 540.244 739.941 549.648L756.029 586.012V593.725L756.25 597.472L761.766 602.761L769.914 605.186C771.45 603.581 772.945 602.022 774.402 600.504L774.402 600.504L774.403 600.503L774.404 600.502C794.799 579.241 807.526 565.973 817.958 545.901L758.24 594.387V586.012C761.695 577.341 763.533 571.963 766.394 560.227C771.055 563.339 773.928 564.274 779.617 564.194C779.216 563.665 778.817 563.151 778.424 562.651C777.874 561.951 777.335 561.277 776.81 560.621L776.795 560.603L776.792 560.6C771.257 553.686 767.403 548.872 771.242 538.629C779.694 536.881 784.968 535.321 789.314 532.725C791.431 531.46 793.328 529.949 795.265 528.05C794.009 525.577 790.808 524.594 776.091 524.303C776.194 523.86 776.295 523.428 776.393 523.004C778.179 515.344 779.267 510.675 779.617 499.4L793.429 481.328C792.181 477.937 791.176 475.328 790.364 473.221C788.842 469.273 787.999 467.086 787.515 464.824C786.914 462.016 786.864 459.091 786.753 452.536C786.728 451.084 786.701 449.455 786.663 447.609L784.278 445.236C704.792 366.183 654.411 316.076 535.422 278.131C463.795 330.74 433.269 373.278 387.102 460.391C393.882 466.952 398.088 467.729 405.84 467.223L409.483 537.086L410.586 558.243L412.011 585.571L364.628 572.568C356.562 565.459 351.954 561.513 343.691 554.496L321.207 508.876C319.308 511.47 318.976 513.72 321.207 520.777C329.817 537.373 335.878 550.322 347.653 576.315L413.989 602.1L415.312 623.918C407.363 626.792 403.597 629.571 401.648 642.651C398.455 667.268 402.193 709.83 406.213 755.606C411.169 812.032 416.554 873.342 409.914 911.945L415.312 884.416L447.421 885.249L526.981 887.314L676.69 884.416L692.51 919.458L713.281 916.372L711.071 974.114L692.51 990.19C562.257 1042.22 500.045 1032.64 397.03 987.117C395.189 987.402 393.359 987.676 391.539 987.939L355.812 993.288L320.771 1099.29L336.639 1100.34L419.945 1105.81L448.155 1107.67C448.155 1107.67 445.069 1090.04 461.746 1080.12C476.803 1071.17 505.501 1083.2 515.594 1087.44C516.68 1087.89 517.551 1088.26 518.166 1088.49C548.38 1100.23 548.53 1100.23 569.599 1099.66H569.602C575.539 1099.5 583.138 1099.29 593.538 1099.29C601.025 1097.41 608.557 1095.68 616.035 1093.96C647.074 1086.82 677.182 1079.89 699.324 1063.37L758.68 1077.26L760.664 1109.21L792.4 1107.08L866.891 1102.08L885.403 1100.84L874.163 1004.53L780.499 982.929L719.231 969.486V918.135L713.281 849.595L743.253 764.085L770.795 668.216L769.914 654.773L773.881 635.379ZM461.378 709.429L452.931 741.385L447.421 718.465L437.283 773.782L431.774 721.109L422.517 789.429L452.931 854.223L464.684 838.135L487.311 849.235L491.058 843.064L464.684 803.093L461.378 709.429ZM587.439 754.829L630.415 767.611L642.096 752.184L681.324 776.426C695.981 759.98 706.863 753.517 728.708 744.47C713.401 761.359 706.034 770.436 697.192 785.242C703.495 788.036 707.02 788.181 713.281 787.446L696.188 822.267L692.51 829.76C681.45 846.89 673.033 855.876 646.724 868.769C648.284 856.266 649.331 849.502 652.233 839.016C645.224 847.776 639.455 850.524 630.365 854.852L630.362 854.854L630.284 854.891C629.543 855.244 628.779 855.608 627.991 855.986C627.996 855.25 628.002 854.524 628.008 853.809L628.009 853.688L628.009 853.606L628.01 853.547L628.01 853.506C628.177 832.493 628.277 819.972 621.599 798.465C620.2 806.477 617.963 810.161 611.241 815.215C608.267 801.378 604.774 791.137 599.996 780.366C596.566 772.635 592.475 764.631 587.439 754.829Z" fill="#211F27"/>
<path d="M461.378 803.093V709.429L452.931 741.385L447.421 718.465L437.283 773.782L431.774 721.109L422.517 789.429L452.931 854.223L464.684 838.135L487.311 849.235L461.378 803.093Z" fill="#D2CFC9"/>
<path d="M461.378 709.429V803.093L487.311 849.235L491.058 843.064L464.684 803.093L461.378 709.429Z" fill="#D2CFC9"/>
<path d="M786.663 447.609L784.278 445.236M786.663 447.609C785.865 446.815 785.07 446.024 784.278 445.236M786.663 447.609C786.701 449.455 786.728 451.084 786.753 452.536C786.864 459.091 786.914 462.016 787.515 464.824C787.999 467.086 788.842 469.273 790.364 473.221C791.176 475.328 792.181 477.937 793.429 481.328M793.429 481.328L811.501 464.578C816.799 485.398 818.309 529.237 817.958 545.901M793.429 481.328L779.617 499.4C779.267 510.675 778.179 515.344 776.393 523.004C776.295 523.428 776.194 523.86 776.091 524.303C790.808 524.594 794.009 525.577 795.265 528.05C793.328 529.949 791.431 531.46 789.314 532.725M817.958 545.901L758.24 594.387V586.012C761.695 577.341 763.533 571.963 766.394 560.227C771.054 563.339 773.928 564.274 779.617 564.194C779.216 563.665 778.817 563.151 778.424 562.651M817.958 545.901C807.526 565.973 794.798 579.241 774.403 600.502L774.403 600.503L774.402 600.504L774.402 600.504C772.945 602.022 771.45 603.581 769.914 605.186M769.914 605.186C773.538 616.232 775.5 622.451 773.881 635.379M769.914 605.186L761.766 602.761M773.881 635.379H769.914C767.981 637.092 766.748 639.748 764.184 648.161C761.242 642.497 759.93 640.951 758.013 640.227C752.768 648.861 752.624 655.753 752.418 665.598M773.881 635.379L769.914 654.773L770.795 668.216L743.253 764.085L713.281 849.595L719.231 918.135V969.486L780.499 982.929L874.163 1004.53L885.403 1100.84L866.891 1102.08M598.233 731.027C564.57 702.071 544.291 685.399 509.697 656.957M598.233 731.027L598.245 730.804M598.233 731.027C598.237 730.952 598.241 730.878 598.245 730.804M506.772 654.552L499.499 609.593C492.599 613.23 488.43 614.833 480.546 617.086M506.772 654.552L509.695 656.955M506.772 654.552C507.758 655.363 508.732 656.164 509.695 656.955M480.546 617.086L480.623 616.108M480.546 617.086C480.572 616.756 480.598 616.43 480.623 616.108M483.411 595.929L499.499 593.725L501.048 595.268H510.965C517.297 623.158 520.951 636.865 527.935 652.348L530.58 622.596C540.282 636.939 545.635 644.996 557.467 658.96C561.977 657.046 563.813 655.359 565.842 651.246C567.757 665.602 569.99 673.87 576.861 689.153C577.287 678.984 576.407 672.19 572.233 657.417C587.337 675.78 596.312 685.469 615.208 699.291C614.734 686.775 614.17 679.744 611.241 667.114C627.365 684.113 635.164 694.061 648.928 711.853L652.233 692.459L681.324 730.586C691.12 719.594 696.48 713.52 701.159 705.903C704.601 705.874 706.53 705.443 709.975 703.919C716.139 697.161 718.941 691.149 723.418 678.575C724.697 663.68 725.704 655.629 732.454 646.398C733.249 652.915 733.575 657.413 733.777 668.216C741.801 656.848 747.687 654.211 748.102 622.376L764.184 627.885C764.191 619.456 763.446 613.645 761.766 602.761M483.411 595.929C481.698 596.133 479.864 596.399 478.093 596.656C474.231 597.216 470.666 597.733 469.306 597.472C467.322 597.091 492.466 572.394 509.637 565.295C505.598 564.589 501.817 564.059 498.276 563.563C489.422 562.321 482.067 561.289 475.918 558.243C485.914 551.431 498.441 548.058 516.044 543.318M483.411 595.929C481.951 599.24 481.464 605.431 480.649 615.775M521.979 541.714L521.537 541.125M521.979 541.714C521.83 541.516 521.683 541.319 521.537 541.125M521.979 541.714C535.02 570.319 542.797 582.644 556.251 603.966L556.251 603.967M521.979 541.714C519.945 542.267 517.975 542.798 516.064 543.312M739.941 549.648L756.029 586.012V593.725M739.941 549.648C724.455 522.394 717.375 511.441 706.669 496.958M739.941 549.648C743.23 540.244 746.442 532.346 749.554 524.694L749.555 524.692L749.556 524.691C754.029 513.694 758.295 503.205 762.284 489.482M756.029 593.725C656.208 583.984 611.752 585.936 557.02 605.186M756.029 593.725L756.25 597.472M756.029 593.725C740.492 584.982 730.809 580.243 686.173 576.315C684.303 562.171 682.933 554.136 686.173 541.714M557.02 605.186C628.863 596.613 675.356 597.603 756.25 597.472M557.02 605.186L556.251 603.967M557.02 605.186C556.762 604.776 556.505 604.37 556.251 603.967M756.25 597.472L761.766 602.761M387.102 460.391C433.269 373.278 463.795 330.74 535.422 278.131C654.411 316.076 704.792 366.183 784.278 445.236M387.102 460.391L347.433 436.369C319.327 468.917 311.116 485.377 321.207 508.876M387.102 460.391C393.882 466.952 398.088 467.729 405.84 467.223L409.483 537.086M387.102 460.391L347.653 495.873L354.49 506.011L367.273 537.086L387.102 556.26M321.207 508.876C319.308 511.47 318.976 513.72 321.207 520.777C329.817 537.373 335.878 550.322 347.653 576.315L413.989 602.1L415.312 623.918C407.363 626.792 403.597 629.571 401.648 642.651C398.455 667.268 402.193 709.83 406.213 755.606C411.169 812.032 416.554 873.342 409.914 911.945M321.207 508.876L343.691 554.496C351.954 561.513 356.562 565.459 364.628 572.568L412.011 585.571L410.586 558.243M408.7 918.135C410.377 923.135 411.866 927.304 413.566 931.291M408.7 918.135C409.383 920.986 411.24 925.964 413.566 931.291M408.7 918.135L409.914 911.945M408.7 918.135C409.143 916.144 409.547 914.079 409.914 911.945M425.229 952.075L414.871 965.739M425.229 952.075C420.73 945.381 417.701 940.186 415.25 935.03M425.229 952.075C422.481 949.324 418.594 942.232 415.25 935.03M414.871 965.739C334.655 958.907 218.422 985.879 248.258 846.95C278.094 708.022 88.703 690.035 77.6789 697.528C66.6549 705.021 63.3582 719.346 77.6789 727.941C91.9996 736.536 243.415 721.109 219.828 846.95C196.593 970.918 271.105 1005.29 391.539 987.939M414.871 965.739L397.03 987.117M397.03 987.117C500.045 1032.64 562.257 1042.22 692.51 990.19L711.071 974.114L713.281 916.372L692.51 919.458M397.03 987.117C395.189 987.402 393.359 987.676 391.539 987.939M397.03 987.117L391.539 987.939M461.378 709.429V803.093L487.311 849.235M461.378 709.429L464.684 803.093L491.058 843.064L487.311 849.235M461.378 709.429L452.931 741.385L447.421 718.465L437.283 773.782L431.774 721.109L422.517 789.429L452.931 854.223L464.684 838.135L487.311 849.235M526.981 887.314L676.69 884.416L692.51 919.458M526.981 887.314L536.089 952.075M526.981 887.314L447.421 885.249M702.261 941.056L536.089 952.075M702.261 941.056V952.075L671.848 954.459M702.261 941.056L692.51 919.458M536.089 952.075L527.929 965.739M536.089 952.075L453.786 945.463M527.929 965.739L671.848 954.459M527.929 965.739L514.932 993.288M527.929 965.739L481.322 961.38L455.207 958.907M671.848 954.459V982.929L514.932 993.288M514.932 993.288L448.155 984.913L455.207 958.907M455.207 958.907L453.786 945.463M792.4 1107.08L760.664 1109.21L758.68 1077.26L699.324 1063.37C677.182 1079.89 647.074 1086.82 616.035 1093.96C608.557 1095.68 601.025 1097.41 593.538 1099.29C583.138 1099.29 575.539 1099.5 569.602 1099.66M792.4 1107.08L789.535 1175.99L954.753 1179.96C926.906 1151.83 911.077 1137.54 866.891 1130.81V1102.08M792.4 1107.08L866.891 1102.08M336.639 1100.34L320.771 1099.29L355.812 993.288L391.539 987.939M336.639 1100.34L331.79 1129.27C302.798 1142.96 288.696 1155.03 265.013 1179.51H402.755V1155.27L419.945 1105.81M336.639 1100.34L419.945 1105.81M419.945 1105.81L448.155 1107.67C448.155 1107.67 445.069 1090.04 461.746 1080.12C476.803 1071.17 505.501 1083.2 515.594 1087.44C516.68 1087.89 517.551 1088.26 518.166 1088.49C548.38 1100.23 548.53 1100.23 569.599 1099.66M599.996 780.366C604.774 791.137 608.267 801.378 611.241 815.215C617.963 810.161 620.2 806.477 621.6 798.465C628.277 819.972 628.177 832.493 628.01 853.506M599.996 780.366C596.566 772.635 592.475 764.631 587.439 754.829L630.415 767.611L642.096 752.184L681.324 776.426C695.981 759.98 706.863 753.517 728.708 744.47C713.401 761.359 706.034 770.436 697.192 785.242C703.495 788.036 707.02 788.181 713.281 787.446L696.188 822.267M599.996 780.366L642.096 798.465L658.845 796.041L665.236 815.215L687.275 792.515L696.188 822.267M696.188 822.267L692.51 829.76C681.45 846.89 673.033 855.876 646.724 868.769C648.284 856.266 649.331 849.502 652.233 839.016C645.224 847.776 639.455 850.524 630.365 854.852M519.781 411.758C504.194 428.18 491.685 443.225 473.053 467.223C510.736 526.701 514.701 531.995 521.537 541.125M519.781 411.758C525.284 405.959 531.171 399.99 537.846 393.393C567.318 404.325 581.076 407.997 595.704 411.902C609.843 415.676 624.794 419.667 655.533 430.639C677.77 422.444 693.649 418.052 724.294 410.363L770.795 451.355C768.136 466.967 765.289 479.143 762.284 489.482M519.781 411.758L535.208 420.727M762.284 489.482C751.337 469.524 745.057 459.373 734.658 435.487C703.037 448.302 689.025 455.185 666.999 467.223C625.686 454.572 607.126 457.412 575.759 444.303L535.208 420.727M535.208 420.727L499.499 465.24L560.993 553.395L587.66 545.901M587.66 545.901L615.649 578.298H678.239C679.248 564.481 680.048 556.844 678.239 541.714M587.66 545.901L565.878 517.601M678.239 541.714H668.983C669.719 539.373 670.357 537.199 670.912 535.102M678.239 541.714H686.173M686.173 541.714H694.107C685.856 535.826 683.026 527.709 680.443 506.672H674.492C674.071 519.069 673.209 526.42 670.912 535.102M670.912 535.102C659.862 525.237 651.542 519.612 655.533 510.419C658.836 506.956 660.704 505.691 664.134 507.995C674.136 516.833 672.677 523.468 670.912 535.102ZM638.129 475.598L658.404 480.667M638.129 475.598C635.168 474.605 631.363 473.975 627.55 473.221M638.129 475.598C634.556 474.707 630.818 474.069 627.55 473.221M552.398 464.64L568.707 463.697C577.946 466.287 590.571 467.854 603.112 469.411L603.113 469.411C612.314 470.554 619.811 471.69 627.55 473.221M552.398 464.64L542.04 465.24C545.105 455.824 547.304 450.562 552.398 441.217C583.441 459.653 599.852 466.037 627.55 473.221M552.398 464.64C554.184 474.511 555.353 480.921 565.878 491.44M575.759 500.281C583.859 509.209 594.925 509.272 621.6 498.358M575.759 500.281C572.386 497.144 568.798 494.249 565.842 491.318C565.854 491.359 565.866 491.399 565.878 491.44M575.759 500.281C571.767 496.993 568.526 494.087 565.878 491.44M658.404 480.667L667.66 481.328M658.404 480.667L632.302 493.238M621.6 498.358L627.55 497.416M621.6 498.358C621.556 498.394 621.512 498.43 621.469 498.467M667.66 481.328C686.474 488.709 697.875 493.524 706.669 496.958M667.66 481.328C695.425 470.717 711.876 464.966 737.082 453.78C739.853 458.805 741.257 461.986 743.033 469.527H727.385M667.66 481.328C690.975 475.097 704.045 471.674 727.385 469.527M740.168 482.871C735.54 500.502 732.407 502.059 720.553 502.265M740.168 482.871C736.421 479.565 732.198 474.796 724.961 474.716C716.519 476.99 713.692 479.061 711.077 483.752C708.592 497.432 714.66 498.781 720.553 502.265M740.168 482.871C738.696 477.3 736.264 471.561 727.385 469.527M720.553 502.265C716.694 501.054 711.267 498.754 706.669 496.958M509.695 656.955L509.697 656.957M509.695 656.955C509.695 656.956 509.696 656.956 509.697 656.957M789.314 532.725C784.968 535.321 779.694 536.881 771.242 538.629C767.403 548.872 771.257 553.686 776.792 560.6M789.314 532.725C785.565 559.99 783.033 562.098 778.424 562.651M778.424 562.651C777.874 561.951 777.335 561.277 776.81 560.621M632.302 493.238C634.832 483.625 635.086 477.6 618.343 474.432C614.348 473.377 610.828 473.023 607.935 473.221C604.062 473.487 599.941 480.537 598.679 482.43C596.839 485.191 607.094 498.944 621.469 498.467M632.302 493.238L630.349 494.955M632.302 493.238C631.896 493.429 631.148 494.157 630.349 494.955M627.55 497.416C628.091 497.246 629.266 496.037 630.349 494.955M627.55 497.416C625.46 498.073 623.426 498.402 621.469 498.467M627.55 497.416L630.349 494.955M565.878 491.44C571.32 509.752 566.592 511.914 557.908 515.488C560.707 516.344 563.356 517.048 565.878 517.601M565.878 517.601C588.565 522.577 601.024 515.418 621.469 498.467M409.483 537.086L387.102 508.876L371.019 506.011L380.275 514.166C387.439 529.779 392.018 538.021 401.648 551.631L387.102 556.26M409.483 537.086L410.586 558.243M410.586 558.243C402.84 558.117 397.93 559.803 389.091 563.092L387.102 556.26M776.792 560.6L776.795 560.603M776.792 560.6C776.793 560.601 776.794 560.602 776.795 560.603M516.044 543.318L516.064 543.312M516.044 543.318C516.051 543.316 516.057 543.314 516.064 543.312M480.649 615.775L480.623 616.108M480.649 615.775C480.641 615.886 480.632 615.997 480.623 616.108M598.343 728.986C598.65 723.251 598.852 719.476 599.996 714.057C629.735 730.399 646.471 739.181 676.69 752.184C705.358 718.696 721.76 700.583 752.283 670.861C752.346 669.01 752.383 667.266 752.417 665.606M598.343 728.986L598.342 729.008M598.343 728.986C598.343 728.993 598.342 729.001 598.342 729.008M752.418 665.598L752.417 665.606M752.418 665.598C752.417 665.6 752.417 665.603 752.417 665.606M628.01 853.506L628.01 853.547M628.01 853.506C628.01 853.519 628.01 853.533 628.01 853.547M630.365 854.852L630.362 854.854M630.365 854.852C630.364 854.853 630.363 854.853 630.362 854.854M598.342 729.008L598.333 729.177M598.342 729.008C598.339 729.064 598.336 729.121 598.333 729.177M776.795 560.603L776.81 560.621M776.795 560.603C776.8 560.609 776.805 560.615 776.81 560.621M630.362 854.854L630.285 854.891M630.362 854.854C630.336 854.866 630.31 854.878 630.285 854.891M628.01 853.547L628.009 853.606M628.01 853.547C628.01 853.566 628.009 853.586 628.009 853.606M598.292 729.934L598.333 729.177M598.292 729.934L598.261 730.501M598.292 729.934C598.282 730.121 598.272 730.31 598.261 730.501M598.292 729.934C598.306 729.678 598.32 729.426 598.333 729.177M628.009 853.606L628.009 853.688M628.009 853.606C628.009 853.633 628.009 853.661 628.009 853.688M630.285 854.891C629.543 855.244 628.779 855.608 627.991 855.986C627.996 855.25 628.002 854.524 628.008 853.809M413.566 931.291C414.105 932.526 414.669 933.78 415.25 935.03M413.566 931.291C414.102 932.548 414.659 933.788 415.25 935.03M447.421 885.249L415.312 884.416L409.914 911.945M447.421 885.249L453.786 945.463M598.261 730.501L598.245 730.804M598.261 730.501C598.256 730.601 598.25 730.702 598.245 730.804M628.009 853.688L628.008 853.809M628.009 853.688C628.008 853.728 628.008 853.768 628.008 853.809M569.599 1099.66H569.602M569.599 1099.66C569.6 1099.66 569.601 1099.66 569.602 1099.66M687.828 535.102C693.225 528.27 698.294 523.422 698.955 518.133C698.428 509.759 696.229 505.313 689.699 507.995C683.169 510.677 681.324 521.302 687.828 535.102Z" stroke="black" stroke-width="0.440775"/>
<path d="M499.904 898.624C481.521 864.369 470.689 844.755 460.454 803.754C458.299 763.701 461.269 747.344 464.201 714.276L414.394 623.697C404.578 628.278 401.813 633.519 400.289 646.177C378.287 714.763 349.159 815.434 350.261 828.878C351.363 842.321 388.8 893.85 410.206 926.115L499.904 898.624Z" fill="#211F27"/>
<path d="M525.689 934.664L512.466 894.774L499.904 898.624L410.206 926.115L400.289 929.154L414.394 967.722L424.311 964.776L514.009 938.133L525.689 934.664Z" fill="#401945"/>
<path d="M424.311 964.776C433.085 991.82 438.611 1007.02 453.622 1034.5L479.628 1027.89L464.201 983.81L467.066 982.708L482.714 1026.57L508.279 1018.41L491.309 974.995L493.953 973.672L511.144 1017.31L538.912 1008.71C533.703 991.639 530.716 982.128 522.604 967.722C527.201 972.791 535.356 980.504 547.036 985.573L553.868 972.35C548.138 960.89 534.338 942.928 514.009 938.133L424.311 964.776Z" fill="#401945"/>
<path d="M464.201 983.81L479.628 1027.89L482.714 1026.57L467.066 982.708L464.201 983.81Z" fill="black"/>
<path d="M491.309 974.995L508.279 1018.41L511.144 1017.31L493.953 973.672L491.309 974.995Z" fill="black"/>
<path d="M499.904 898.624L512.466 894.774L525.689 934.664L514.009 938.133M499.904 898.624C481.521 864.369 470.689 844.755 460.454 803.754C458.299 763.701 461.269 747.344 464.201 714.276L414.394 623.697C404.578 628.278 401.813 633.519 400.289 646.177C378.287 714.763 349.159 815.434 350.261 828.878C351.363 842.321 388.8 893.85 410.206 926.115M499.904 898.624L410.206 926.115M410.206 926.115L400.289 929.154L414.394 967.722L424.311 964.776M424.311 964.776C433.085 991.82 438.611 1007.02 453.622 1034.5L479.628 1027.89M424.311 964.776L514.009 938.133M479.628 1027.89L464.201 983.81L467.066 982.708L482.714 1026.57M479.628 1027.89L482.714 1026.57M482.714 1026.57L508.278 1018.41M508.278 1018.41L491.309 974.995L493.953 973.672L511.144 1017.31M508.278 1018.41L511.144 1017.31M511.144 1017.31L538.912 1008.71C533.703 991.639 530.716 982.128 522.604 967.722C527.201 972.791 535.356 980.504 547.036 985.573L553.868 972.35C548.138 960.89 534.338 942.928 514.009 938.133" stroke="black" stroke-width="0.440775"/>
<path d="M698.666 841.098L713.635 838.866L711.874 829.184L698.868 827.133L691.319 837.079L695.158 842.013L676.331 883.637L677.37 936.477C680.038 953.361 681.274 962.714 690.194 982.315C712.483 1007.19 724.348 1020.27 729.188 1021.26L694.987 979.037C685.582 959.747 684.075 951.154 680.106 935.072L679.513 884.43L698.666 841.098Z" fill="#3E3030"/>
<path d="M737.386 1037.82C739.18 1032.1 748.57 1024.68 752.091 1025.88C752.324 1023.77 753.009 1022.78 755.129 1021.27C752.645 1019.52 750.433 1018.01 748.53 1016.64C740.552 1011.88 738.605 1009.48 737.014 1005.42L733.951 1006.94L738.33 1014.1C734.559 1015.79 732.59 1017.53 729.188 1021.26C728.108 1024.02 727.372 1025.03 726.034 1026.74C730.511 1030.63 732.978 1033.05 737.386 1037.82Z" fill="#3E3030"/>
<path d="M713.635 838.866L698.666 841.098L679.513 884.43L680.106 935.072C684.075 951.154 685.582 959.747 694.987 979.037L729.188 1021.26C732.59 1017.53 734.559 1015.79 738.33 1014.1L733.951 1006.94L737.014 1005.42C713.373 955.82 697.713 929.599 715.211 852.877L713.007 845.37L703.935 851.059C698.022 873.02 695.365 886.704 691.624 913.194C691.315 871.893 691.461 849.191 714.49 841.019L713.635 838.866Z" fill="#E7A220"/>
<path d="M716.021 913.81C715.076 886.462 715.653 873.176 721.085 857.621L714.49 841.019C691.461 849.191 691.315 871.893 691.624 913.194C695.365 886.704 698.022 873.02 703.935 851.059L713.007 845.37L715.211 852.877C697.713 929.599 713.373 955.82 737.014 1005.42C738.605 1009.48 740.552 1011.88 748.53 1016.64C745.046 1014.14 742.598 1012.13 741.415 1010.09L731.284 969.401L724.252 946.973L716.021 913.81Z" fill="#F4C63F"/>
<path d="M713.635 838.866L698.666 841.098L679.513 884.43L680.106 935.072C684.075 951.154 685.582 959.747 694.987 979.037L729.188 1021.26M713.635 838.866L711.874 829.184L698.868 827.133L691.319 837.079L695.158 842.013L676.331 883.637L677.37 936.477C680.038 953.361 681.274 962.714 690.194 982.315C712.483 1007.19 724.348 1020.27 729.188 1021.26M713.635 838.866L714.49 841.019M729.188 1021.26C728.108 1024.02 727.372 1025.03 726.034 1026.74C730.511 1030.63 732.978 1033.05 737.386 1037.82C739.18 1032.1 748.57 1024.68 752.091 1025.88C752.324 1023.77 753.009 1022.78 755.129 1021.27C752.645 1019.52 750.433 1018.01 748.53 1016.64M729.188 1021.26C732.59 1017.53 734.559 1015.79 738.33 1014.1L733.951 1006.94L737.014 1005.42M714.49 841.019L721.085 857.621C715.653 873.176 715.076 886.462 716.021 913.81L724.252 946.973L731.284 969.401L741.415 1010.09C742.598 1012.13 745.046 1014.14 748.53 1016.64M714.49 841.019C691.461 849.191 691.315 871.893 691.624 913.194C695.365 886.704 698.022 873.02 703.935 851.059L713.007 845.37L715.211 852.877C697.713 929.599 713.373 955.82 737.014 1005.42M737.014 1005.42C738.605 1009.48 740.552 1011.88 748.53 1016.64" stroke="black" stroke-width="0.192887"/>
<path d="M660.392 847.051L675.361 844.82L673.601 835.137L660.594 833.087L653.045 843.033L656.884 847.966L638.058 889.59L639.097 942.43C641.765 959.314 643.001 968.667 651.921 988.268C674.209 1013.14 686.074 1026.23 690.915 1027.21L656.714 984.99C647.308 965.7 645.802 957.107 641.833 941.025L641.239 890.383L660.392 847.051Z" fill="#3E3030"/>
<path d="M699.112 1043.77C700.907 1038.05 710.297 1030.64 713.817 1031.83C714.051 1029.73 714.735 1028.73 716.855 1027.22C714.372 1025.47 712.16 1023.96 710.256 1022.59C702.279 1017.83 700.332 1015.44 698.741 1011.37L695.677 1012.89L700.056 1020.05C696.286 1021.75 694.316 1023.48 690.915 1027.21C689.835 1029.98 689.098 1030.99 687.76 1032.69C692.237 1036.58 694.705 1039.01 699.112 1043.77Z" fill="#3E3030"/>
<path d="M675.361 844.82L660.392 847.051L641.239 890.383L641.833 941.025C645.802 957.107 647.308 965.7 656.714 984.99L690.915 1027.21C694.316 1023.48 696.286 1021.75 700.056 1020.05L695.677 1012.89L698.741 1011.37C675.099 961.774 659.439 935.552 676.937 858.83L674.734 851.323L665.662 857.012C659.749 878.973 657.092 892.658 653.351 919.147C653.042 877.846 653.187 855.144 676.216 846.972L675.361 844.82Z" fill="#E7A220"/>
<path d="M677.748 919.763C676.803 892.415 677.38 879.129 682.812 863.574L676.216 846.972C653.187 855.144 653.042 877.846 653.351 919.147C657.092 892.658 659.749 878.973 665.662 857.012L674.734 851.323L676.937 858.83C659.439 935.552 675.099 961.774 698.741 1011.37C700.332 1015.44 702.279 1017.83 710.256 1022.59C706.773 1020.09 704.325 1018.08 703.141 1016.05L693.011 975.354L685.979 952.926L677.748 919.763Z" fill="#F4C63F"/>
<path d="M675.361 844.82L660.392 847.051L641.239 890.383L641.833 941.025C645.802 957.107 647.308 965.7 656.714 984.99L690.915 1027.21M675.361 844.82L673.601 835.137L660.594 833.087L653.045 843.033L656.884 847.966L638.058 889.59L639.097 942.43C641.765 959.314 643.001 968.667 651.921 988.268C674.209 1013.14 686.074 1026.23 690.915 1027.21M675.361 844.82L676.216 846.972M690.915 1027.21C689.835 1029.98 689.098 1030.99 687.76 1032.69C692.237 1036.58 694.705 1039.01 699.112 1043.77C700.907 1038.05 710.297 1030.64 713.817 1031.83C714.051 1029.73 714.735 1028.73 716.855 1027.22C714.372 1025.47 712.16 1023.96 710.256 1022.59M690.915 1027.21C694.316 1023.48 696.286 1021.75 700.056 1020.05L695.677 1012.89L698.741 1011.37M676.216 846.972L682.812 863.574C677.38 879.129 676.803 892.415 677.748 919.763L685.979 952.926L693.011 975.354L703.141 1016.05C704.325 1018.08 706.773 1020.09 710.256 1022.59M676.216 846.972C653.187 855.144 653.042 877.846 653.351 919.147C657.092 892.658 659.749 878.973 665.662 857.012L674.734 851.323L676.937 858.83C659.439 935.552 675.099 961.774 698.741 1011.37M698.741 1011.37C700.332 1015.44 702.279 1017.83 710.256 1022.59" stroke="black" stroke-width="0.192887"/>
<path d="M621.603 852.34L636.572 850.109L634.812 840.426L621.805 838.376L614.256 848.322L618.095 853.255L599.268 894.879L600.308 947.719C602.976 964.603 604.212 973.956 613.132 993.557C635.42 1018.43 647.285 1031.52 652.126 1032.5L617.925 990.279C608.519 970.989 607.013 962.397 603.044 946.314L602.45 895.673L621.603 852.34Z" fill="#3E3030"/>
<path d="M660.323 1049.06C662.118 1043.34 671.508 1035.93 675.028 1037.12C675.262 1035.02 675.946 1034.02 678.066 1032.51C675.583 1030.76 673.37 1029.25 671.467 1027.88C663.49 1023.12 661.543 1020.73 659.952 1016.66L656.888 1018.18L661.267 1025.34C657.497 1027.04 655.527 1028.77 652.126 1032.5C651.046 1035.26 650.309 1036.27 648.971 1037.98C653.448 1041.87 655.916 1044.29 660.323 1049.06Z" fill="#3E3030"/>
<path d="M636.572 850.109L621.603 852.34L602.45 895.673L603.044 946.314C607.013 962.397 608.519 970.989 617.925 990.279L652.126 1032.5C655.527 1028.77 657.497 1027.04 661.267 1025.34L656.888 1018.18L659.952 1016.66C636.31 967.063 620.65 940.842 638.148 864.119L635.945 856.612L626.873 862.301C620.959 884.262 618.302 897.947 614.562 924.436C614.253 883.135 614.398 860.433 637.427 852.261L636.572 850.109Z" fill="#E7A220"/>
<path d="M638.959 925.052C638.013 897.704 638.591 884.418 644.022 868.864L637.427 852.261C614.398 860.433 614.253 883.135 614.562 924.436C618.302 897.947 620.959 884.262 626.873 862.301L635.945 856.612L638.148 864.119C620.65 940.842 636.31 967.063 659.952 1016.66C661.543 1020.73 663.49 1023.12 671.467 1027.88C667.984 1025.38 665.535 1023.37 664.352 1021.34L654.221 980.643L647.19 958.215L638.959 925.052Z" fill="#F4C63F"/>
<path d="M636.572 850.109L621.603 852.34L602.45 895.673L603.044 946.314C607.013 962.397 608.519 970.989 617.925 990.279L652.126 1032.5M636.572 850.109L634.812 840.426L621.805 838.376L614.256 848.322L618.095 853.255L599.268 894.879L600.308 947.719C602.976 964.603 604.212 973.956 613.132 993.557C635.42 1018.43 647.285 1031.52 652.126 1032.5M636.572 850.109L637.427 852.261M652.126 1032.5C651.046 1035.26 650.309 1036.27 648.971 1037.98C653.448 1041.87 655.916 1044.29 660.323 1049.06C662.118 1043.34 671.508 1035.93 675.028 1037.12C675.262 1035.02 675.946 1034.02 678.066 1032.51C675.583 1030.76 673.37 1029.25 671.467 1027.88M652.126 1032.5C655.527 1028.77 657.497 1027.04 661.267 1025.34L656.888 1018.18L659.952 1016.66M637.427 852.261L644.022 868.864C638.591 884.418 638.013 897.704 638.959 925.052L647.19 958.215L654.221 980.643L664.352 1021.34C665.535 1023.37 667.984 1025.38 671.467 1027.88M637.427 852.261C614.398 860.433 614.253 883.135 614.562 924.436C618.302 897.947 620.959 884.262 626.873 862.301L635.945 856.612L638.148 864.119C620.65 940.842 636.31 967.063 659.952 1016.66M659.952 1016.66C661.543 1020.73 663.49 1023.12 671.467 1027.88" stroke="black" stroke-width="0.192887"/>
<path fill-rule="evenodd" clip-rule="evenodd" d="M1228.63 291.624C1355.3 268.701 1422.64 290.224 1465.72 370.954L1487.95 328.66C1438.45 284.072 1401.87 274.365 1330.94 266.849C1273.23 272.12 1229.19 291.38 1228.63 291.624Z" fill="#F4C63F"/>
<path d="M1497.66 310.193C1445.43 268.642 1382.69 262.123 1330.94 266.849C1401.87 274.365 1438.45 284.072 1487.95 328.66L1497.66 310.193Z" fill="#3E3030"/>
<path d="M1228.62 291.625C1228.63 291.625 1228.63 291.624 1228.63 291.624M1228.62 291.627C1228.62 291.627 1228.63 291.626 1228.63 291.624M1228.63 291.624C1355.3 268.701 1422.64 290.224 1465.72 370.954L1487.95 328.66M1228.63 291.624C1229.19 291.38 1273.23 272.12 1330.94 266.849M1330.94 266.849C1382.69 262.123 1445.43 268.642 1497.66 310.193L1487.95 328.66M1330.94 266.849C1401.87 274.365 1438.45 284.072 1487.95 328.66" stroke="black" stroke-width="0.272444"/>
<path d="M1479.26 316.278L1508.71 327.893L1515.65 308.507L1494.23 291.187L1470.15 301.311L1471.94 314.265L1394.29 369.988L1340.9 466.812C1328.07 500.196 1320.53 518.434 1316.18 563.279C1330.55 631.666 1338.36 667.781 1346.1 674.632L1328.3 562.354C1331.43 517.565 1337.69 500.42 1347.33 467.128L1399.22 374.753L1479.26 316.278Z" fill="#3E3030"/>
<path d="M1343.63 713.203C1352.86 704.718 1377.63 701.112 1382.76 706.955C1385.39 703.388 1387.67 702.296 1393.09 701.78C1390.42 696.019 1387.99 690.961 1385.97 686.493C1376.5 669.522 1375.48 663.148 1376.85 654.117L1369.7 653.671L1370.15 671.215C1361.54 670.349 1356.16 671.435 1346.1 674.632C1341.25 678.507 1338.86 679.566 1334.65 681.253C1338.69 692.991 1340.63 699.962 1343.63 713.203Z" fill="#3E3030"/>
<path d="M1508.71 327.893L1479.26 316.278L1399.22 374.753L1347.33 467.128C1337.69 500.42 1331.43 517.565 1328.3 562.354L1346.1 674.632C1356.16 671.435 1361.54 670.349 1370.15 671.215L1369.7 653.671L1376.85 654.117C1385.89 539.522 1384.95 475.631 1496.91 354.926L1500.77 339.019L1478.38 339.838C1444.7 373.441 1425.57 395.456 1391.08 439.538C1433.72 364.383 1457.74 323.403 1508.01 332.687L1508.71 327.893Z" fill="#E7A220"/>
<path d="M1434.64 466.175C1461.53 415.636 1476.48 392.168 1502.59 369.667L1508.01 332.687C1457.74 323.403 1433.72 364.383 1391.08 439.538C1425.57 395.456 1444.7 373.441 1478.38 339.838L1500.77 339.019L1496.91 354.926C1384.95 475.631 1385.89 539.522 1376.85 654.117C1375.48 663.148 1376.5 669.522 1385.97 686.493C1382.28 678.315 1379.94 672.114 1379.93 667.192L1404.14 582.863L1414.86 534.872L1434.64 466.175Z" fill="#F4C63F"/>
<path d="M1508.71 327.893L1479.26 316.278L1399.22 374.753L1347.33 467.128C1337.69 500.42 1331.43 517.565 1328.3 562.354L1346.1 674.632M1508.71 327.893L1515.65 308.507L1494.23 291.187L1470.15 301.311L1471.94 314.265L1394.29 369.988L1340.9 466.812C1328.07 500.196 1320.53 518.434 1316.18 563.279C1330.55 631.666 1338.36 667.781 1346.1 674.632M1508.71 327.893L1508.01 332.687M1346.1 674.632C1341.25 678.507 1338.86 679.566 1334.65 681.253C1338.69 692.991 1340.63 699.962 1343.63 713.203C1352.86 704.718 1377.63 701.112 1382.76 706.955C1385.39 703.388 1387.67 702.296 1393.09 701.78C1390.42 696.019 1387.99 690.961 1385.97 686.493M1346.1 674.632C1356.16 671.435 1361.54 670.349 1370.15 671.215L1369.7 653.671L1376.85 654.117M1508.01 332.687L1502.59 369.667C1476.48 392.168 1461.53 415.636 1434.64 466.175L1414.86 534.872L1404.14 582.863L1379.93 667.192C1379.94 672.114 1382.28 678.315 1385.97 686.493M1508.01 332.687C1457.74 323.403 1433.72 364.383 1391.08 439.538C1425.57 395.456 1444.7 373.441 1478.38 339.838L1500.77 339.019L1496.91 354.926C1384.95 475.631 1385.89 539.522 1376.85 654.117M1376.85 654.117C1375.48 663.148 1376.5 669.522 1385.97 686.493" stroke="black" stroke-width="0.403548"/>
</svg>
