<svg width="1764" height="1323" viewBox="0 0 1764 1323" fill="none" xmlns="http://www.w3.org/2000/svg">
<path d="M547.462 1103.57L541.238 1131.99C572.366 1141.25 584.267 1152.71 603.882 1179.73L468.563 1179.73L469.409 1155.5L474.514 1100.26L547.462 1103.57Z" fill="black"/>
<path d="M547.462 1103.57L541.238 1131.99C572.366 1141.25 584.267 1152.71 603.882 1179.73L468.563 1179.73L469.409 1155.5L474.514 1100.26L547.462 1103.57Z" stroke="black" stroke-width="0.440775"/>
<path d="M710.108 1108.19L707.684 1179.82L858.428 1180.26C846.087 1159.77 813.69 1130.01 781.073 1123.4L784.599 1105.11L710.108 1108.19Z" fill="black"/>
<path d="M710.108 1108.19L707.684 1179.82L858.428 1180.26C846.087 1159.77 813.69 1130.01 781.073 1123.4L784.599 1105.11L710.108 1108.19Z" stroke="black" stroke-width="0.440775"/>
<path d="M1009.04 863.751L1013.67 883.86L1026.64 880.431L1028.04 862.531L1013.71 853.334L1007.42 859.081L948.824 837.942L877.109 845.008C854.444 850.441 841.863 853.121 816.173 867.343C784.744 900.301 768.23 917.829 767.407 924.514L821.141 873.507C846.356 858.659 857.875 855.692 879.312 848.576L948.086 842.352L1009.04 863.751Z" fill="#3E3030"/>
<path d="M745.779 937.428C753.746 939.256 764.825 951.227 763.581 956.14C766.465 956.232 767.894 957.056 770.172 959.776C772.28 956.213 774.101 953.044 775.756 950.311C781.375 938.958 784.42 936.055 789.776 933.457L787.379 929.456L778.122 936.174C775.41 931.23 772.838 928.739 767.407 924.514C763.536 923.342 762.085 922.449 759.626 920.812C754.813 927.314 751.783 930.927 745.779 937.428Z" fill="#3E3030"/>
<path d="M1013.67 883.86L1009.04 863.751L948.086 842.352L879.312 848.576C857.875 855.692 846.356 858.659 821.141 873.507L767.407 924.514C772.838 928.739 775.41 931.23 778.122 936.174L787.379 929.456L789.776 933.457C854.667 896.015 888.634 871.923 994.796 887.501L1004.76 883.703L996.06 871.979C965.576 866.291 946.69 864.143 910.283 861.892C966.391 857.054 997.265 854.823 1010.84 885.252L1013.67 883.86Z" fill="#E7A220"/>
<path d="M912.056 895.121C949.128 890.911 967.25 890.274 988.975 895.993L1010.84 885.252C997.265 854.823 966.391 857.054 910.283 861.892C946.69 864.143 965.576 866.291 996.06 871.979L1004.76 883.703L994.796 887.501C888.634 871.923 854.667 896.015 789.776 933.457C784.42 936.055 781.375 938.958 775.756 950.311C778.785 945.308 781.254 941.765 783.892 939.939L838.123 921.815L867.857 909.858L912.056 895.121Z" fill="#F4C63F"/>
<path d="M1013.67 883.86L1009.04 863.751L948.086 842.352L879.312 848.576C857.875 855.692 846.356 858.659 821.141 873.507L767.407 924.514M1013.67 883.86L1026.64 880.431L1028.04 862.531L1013.71 853.334L1007.42 859.081L948.824 837.942L877.109 845.008C854.444 850.441 841.863 853.121 816.173 867.343C784.744 900.301 768.23 917.829 767.407 924.514M1013.67 883.86L1010.84 885.252M767.407 924.514C763.536 923.342 762.085 922.449 759.626 920.812C754.813 927.314 751.783 930.927 745.779 937.428C753.746 939.256 764.825 951.227 763.581 956.14C766.465 956.232 767.894 957.056 770.172 959.776C772.28 956.213 774.101 953.044 775.756 950.311M767.407 924.514C772.838 928.739 775.41 931.23 778.122 936.174L787.379 929.456L789.776 933.457M1010.84 885.252L988.975 895.993C967.25 890.274 949.128 890.911 912.056 895.121L867.857 909.858L838.123 921.815L783.892 939.939C781.254 941.765 778.785 945.308 775.756 950.311M1010.84 885.252C997.265 854.823 966.391 857.054 910.283 861.892C946.69 864.143 965.576 866.291 996.06 871.979L1004.76 883.703L994.796 887.501C888.634 871.923 854.667 896.015 789.776 933.457M789.776 933.457C784.42 936.055 781.375 938.958 775.756 950.311" stroke="black" stroke-width="0.263004"/>
<path d="M806.424 834.339L823.828 856.889L829.338 853.866L891.903 818.609L901.374 812.906L884.664 787.089L806.424 834.339Z" fill="#461B46"/>
<path d="M889.06 927.762L907.192 916.905L869.936 872.717L856.737 885.979L889.06 927.762Z" fill="#461B49"/>
<path d="M864.823 937.006L883.877 928.08L858.599 892.215L850.412 882.704L841.939 896.263L852.843 915.676L864.823 937.006Z" fill="#461B49"/>
<path d="M869.516 852.13L893.884 856.889L895.932 857.289L917.021 875.04L916.855 872.848L896.947 855.666L869.516 852.13Z" fill="black"/>
<path fill-rule="evenodd" clip-rule="evenodd" d="M876.948 877.099L869.936 872.717L907.192 916.905L876.948 877.099ZM856.737 885.979L858.599 892.215L883.877 928.08L889.06 927.762L856.737 885.979Z" fill="black"/>
<path d="M880.618 864.817L884.664 869.048L892.666 860.697L880.618 864.817Z" fill="#461B49"/>
<path d="M841.939 896.263L850.412 882.704L858.599 892.215L856.737 885.979L869.936 872.717L876.948 877.099L884.664 869.048L880.618 864.817L892.666 860.697L895.932 857.289L893.884 856.889L892.266 859.478L877.638 864.742L882.271 868.983L875.475 875.237L868.768 869.861L855.859 883.473L850.506 881.314L841.17 895.171L841.939 896.263Z" fill="black"/>
<path d="M841.939 896.263L841.17 895.171L840.276 896.601L851.423 916.438L852.843 915.676L841.939 896.263Z" fill="black"/>
<path fill-rule="evenodd" clip-rule="evenodd" d="M891.903 818.609L895.793 824.963L901.374 832.268L914.338 839.489L914.475 841.304L916.855 872.848L896.947 855.666L869.516 852.13L832.423 859.376L829.338 853.866L891.903 818.609ZM884.664 869.048L876.948 877.099L909.83 915.165L914.972 911.773L937.607 894.678L935.716 892.875L917.021 875.04L895.932 857.289L892.666 860.697L884.664 869.048Z" fill="#461B49"/>
<path d="M876.948 877.099L907.192 916.905L909.83 915.165L876.948 877.099Z" fill="black"/>
<path d="M916.855 872.848L917.021 875.04L935.716 892.875L937.328 892.654L918.374 873.26L918.374 872.848L916.611 841.084L914.475 841.304L916.855 872.848Z" fill="black"/>
<path d="M761.254 636.781L761.254 719.031L803.679 839.803L890.732 787.131L846.213 699.637L837.308 577.04L830.071 547.764L761.254 636.781Z" fill="#211F27"/>
<path d="M761.254 636.781L743.292 655.992C761.659 645.659 761.254 719.031 761.254 719.031L761.254 636.781Z" fill="#211F27"/>
<path d="M761.254 636.781L830.071 547.764L837.308 577.04L846.213 699.637L890.732 787.131L803.679 839.803L761.254 719.031M761.254 636.781L743.292 655.992C761.659 645.659 761.254 719.031 761.254 719.031M761.254 636.781L761.254 719.031M761.254 719.031C763.31 720.054 759.009 717.776 761.254 719.031Z" stroke="black" stroke-width="0.440775"/>
<path d="M750.182 467.307C755.579 460.475 760.648 455.627 761.309 450.338C760.782 441.964 758.583 437.518 752.053 440.2C745.523 442.882 743.678 453.507 750.182 467.307Z" fill="black"/>
<path d="M531.66 529.677C533.02 529.938 536.584 529.422 540.446 528.861C542.218 528.605 544.052 528.339 545.764 528.134L561.853 525.931L563.401 527.473H573.319C579.651 555.363 583.304 569.07 590.288 584.554L592.933 554.801C602.636 569.144 607.988 577.201 619.82 591.165C624.33 589.251 626.166 587.564 628.195 583.452C630.11 597.807 632.344 606.075 639.214 621.358C639.641 611.19 638.76 604.395 634.586 589.622C649.691 607.985 658.666 617.674 677.562 631.496C677.087 618.98 676.524 611.949 673.595 599.319C689.718 616.318 697.518 626.266 711.281 644.058L714.587 624.664L743.678 662.791C753.474 651.8 758.834 645.725 763.513 638.108C766.954 638.079 768.884 637.648 772.328 636.124C778.492 629.366 781.295 623.354 785.772 610.78C787.051 595.885 788.057 587.834 794.808 578.603C795.603 585.12 795.928 589.618 796.13 600.421C804.155 589.053 810.04 586.416 810.455 554.581L826.537 560.091C826.544 551.661 825.8 545.85 824.119 534.966L818.603 529.677C737.709 529.808 691.217 528.818 619.374 537.391L618.605 536.172L618.604 536.171C605.151 514.85 597.374 502.525 584.332 473.919C582.299 474.472 580.328 475.003 578.418 475.517C578.411 475.519 578.404 475.521 578.397 475.523C560.794 480.263 548.268 483.637 538.272 490.448C544.42 493.495 551.775 494.526 560.63 495.768C564.171 496.264 567.951 496.794 571.991 497.501C554.819 504.6 529.676 529.296 531.66 529.677Z" fill="#D2CFC9"/>
<path d="M836.234 567.584C837.854 554.656 835.892 548.437 832.267 537.391L824.119 534.966C825.8 545.85 826.544 551.661 826.537 560.091L810.455 554.581C810.04 586.416 804.155 589.053 796.13 600.421C795.928 589.618 795.603 585.12 794.808 578.603C788.057 587.834 787.051 595.885 785.772 610.78C781.295 623.354 778.492 629.366 772.328 636.124C768.884 637.648 766.954 638.079 763.513 638.108C758.834 645.725 753.474 651.8 743.678 662.791L714.587 624.664L711.281 644.058C697.518 626.266 689.718 616.318 673.595 599.319C676.524 611.949 677.087 618.98 677.562 631.496C658.666 617.674 649.691 607.985 634.586 589.622C638.76 604.395 639.641 611.19 639.214 621.358C632.344 606.075 630.11 597.807 628.195 583.452C626.166 587.564 624.33 589.251 619.82 591.165C607.988 577.201 602.636 569.144 592.933 554.801L590.288 584.554C583.304 569.07 579.651 555.363 573.319 527.473H563.401L561.853 525.931L545.764 528.134C544.305 531.446 543.817 537.636 543.003 547.98C542.994 548.091 542.985 548.202 542.977 548.313C542.951 548.635 542.925 548.961 542.899 549.292C550.783 547.038 554.952 545.435 561.853 541.798L569.126 586.757L572.048 589.16C572.049 589.161 572.05 589.162 572.05 589.162C606.645 617.604 626.924 634.276 660.586 663.232C660.59 663.157 660.594 663.083 660.598 663.009C660.604 662.908 660.609 662.807 660.615 662.706C660.625 662.515 660.636 662.326 660.646 662.139C660.659 661.883 660.673 661.631 660.686 661.382C660.689 661.326 660.692 661.269 660.695 661.213C660.696 661.206 660.696 661.199 660.697 661.191C661.003 655.456 661.205 651.681 662.349 646.262C692.089 662.604 708.825 671.386 739.044 684.389C767.711 650.901 784.114 632.788 814.636 603.066C814.7 601.215 814.736 599.471 814.771 597.811C814.771 597.808 814.771 597.805 814.771 597.803C814.977 587.958 815.121 581.066 820.367 572.432C822.284 573.156 823.595 574.703 826.537 580.366C829.102 571.953 830.335 569.297 832.267 567.584H836.234Z" fill="#C5B5A5"/>
<path d="M683.953 430.563C657.279 441.477 646.213 441.414 638.112 432.486C634.74 429.349 631.152 426.454 628.195 423.523C628.207 423.564 628.219 423.604 628.231 423.645C633.674 441.957 628.945 444.119 620.261 447.693C623.061 448.549 625.709 449.253 628.231 449.806C650.918 454.782 663.378 447.623 683.822 430.672C683.866 430.636 683.909 430.599 683.953 430.563Z" fill="#A4395B"/>
<path d="M614.751 373.423C609.658 382.768 607.458 388.03 604.393 397.445L614.751 396.846L631.06 395.902C640.299 398.492 652.925 400.059 665.465 401.616L665.466 401.616C674.667 402.759 682.164 403.895 689.904 405.426C693.716 406.18 697.521 406.81 700.482 407.803C696.909 406.912 693.171 406.274 689.904 405.426C662.205 398.242 645.795 391.858 614.751 373.423Z" fill="#FEBD87"/>
<path d="M851.668 464.93C847.321 467.526 842.047 469.086 833.596 470.834C829.756 481.077 833.61 485.891 839.146 492.805C839.147 492.806 839.148 492.807 839.149 492.808C839.154 492.814 839.159 492.82 839.163 492.826C839.688 493.482 840.228 494.156 840.778 494.856C845.387 494.303 847.919 492.195 851.668 464.93Z" fill="black"/>
<path d="M782.907 434.47C794.76 434.264 797.893 432.707 802.521 415.076C798.775 411.77 794.552 407.001 787.315 406.921C778.872 409.195 776.045 411.266 773.43 415.957C770.946 429.637 777.013 430.986 782.907 434.47Z" fill="#AC3131"/>
<path fill-rule="evenodd" clip-rule="evenodd" d="M689.904 405.426C693.716 406.18 697.521 406.81 700.482 407.803C696.909 406.912 693.171 406.274 689.904 405.426ZM694.656 425.443C697.185 415.83 697.44 409.805 680.696 406.637C676.701 405.582 673.182 405.228 670.289 405.426C666.415 405.692 662.294 412.742 661.033 414.635C659.192 417.396 669.448 431.149 683.822 430.672C685.78 430.607 687.813 430.278 689.904 429.621L692.703 427.16L694.656 425.443Z" fill="#AC3131"/>
<path d="M631.06 395.902L614.751 396.846C616.537 406.716 617.706 413.126 628.231 423.645C628.219 423.604 628.207 423.564 628.195 423.523C631.152 426.454 634.74 429.349 638.112 432.486C646.213 441.414 657.279 441.477 683.953 430.563L689.904 429.621C687.813 430.278 685.78 430.607 683.822 430.672C669.448 431.149 659.192 417.396 661.033 414.635C662.294 412.742 666.415 405.692 670.289 405.426C673.182 405.228 676.701 405.582 680.696 406.637C697.44 409.805 697.185 415.83 694.656 425.443L720.758 412.872L700.482 407.803C696.909 406.912 693.171 406.274 689.904 405.426C682.164 403.895 674.667 402.759 665.466 401.616L665.465 401.616C652.925 400.059 640.299 398.492 631.06 395.902Z" fill="black"/>
<path d="M717.887 442.624C713.896 451.817 722.215 457.442 733.265 467.307C735.03 455.673 736.49 449.038 726.488 440.2C723.058 437.896 721.19 439.161 717.887 442.624Z" fill="black"/>
<path d="M731.336 473.919H740.593H748.526H756.46C748.21 468.031 745.38 459.914 742.796 438.878H736.846C736.424 451.274 735.563 458.625 733.265 467.307C732.711 469.404 732.072 471.578 731.336 473.919Z" fill="#B74A5F"/>
<path d="M619.374 537.391C674.106 518.141 718.561 516.189 818.383 525.931C802.846 517.188 793.162 512.448 748.526 508.52C746.657 494.376 745.287 486.341 748.526 473.919H740.593C742.402 489.049 741.601 496.686 740.593 510.503H678.003L650.013 478.106L623.347 485.6L561.853 397.445L597.561 352.932L582.134 343.963C566.547 360.385 554.039 375.43 535.406 399.428C573.09 458.906 577.055 464.2 583.891 473.33L584.332 473.919C597.374 502.525 605.151 514.85 618.604 536.171L618.605 536.172L619.374 537.391Z" fill="#B74A5F"/>
<path d="M818.383 525.931C718.561 516.189 674.106 518.141 619.374 537.391C691.217 528.818 737.709 529.808 818.603 529.677L818.383 525.931Z" fill="black"/>
<path d="M717.887 362.844C687.148 351.872 672.196 347.881 658.057 344.107C643.429 340.202 629.671 336.53 600.2 325.598C593.524 332.195 587.637 338.164 582.134 343.963L597.561 352.932L638.112 376.508C669.479 389.617 688.039 386.778 729.353 399.428C751.378 387.391 765.39 380.507 797.012 367.692C807.41 391.578 813.691 401.729 824.637 421.687C827.643 411.348 830.49 399.172 833.149 383.56L786.647 342.568C756.003 350.257 740.123 354.649 717.887 362.844Z" fill="#FEBD87"/>
<path d="M873.855 396.784L855.783 413.533L841.971 431.605C841.621 442.88 840.532 447.549 838.747 455.21C838.648 455.633 838.547 456.065 838.445 456.509C853.161 456.799 856.362 457.782 857.618 460.255C855.682 462.154 853.785 463.665 851.668 464.93C847.919 492.195 845.387 494.303 840.778 494.856C841.171 495.356 841.569 495.87 841.971 496.399C836.282 496.48 833.408 495.544 828.747 492.432C825.886 504.168 824.048 509.546 820.593 518.217V526.592L880.312 478.106C880.663 461.443 879.152 417.603 873.855 396.784Z" fill="#B74A5F"/>
<path fill-rule="evenodd" clip-rule="evenodd" d="M818.383 518.217L802.295 481.853C786.808 454.599 779.729 443.646 769.023 429.163C760.229 425.729 748.828 420.914 730.014 413.533L720.758 412.872L694.656 425.443L692.703 427.16C691.62 428.242 690.444 429.451 689.904 429.621C687.813 430.278 685.78 430.607 683.822 430.672C663.378 447.623 650.918 454.782 628.231 449.806L650.013 478.106L678.003 510.503H740.593C741.601 496.686 742.402 489.049 740.593 473.919H731.336C732.072 471.578 732.711 469.404 733.265 467.307C722.215 457.442 713.896 451.817 717.887 442.624C721.19 439.161 723.058 437.896 726.488 440.2C736.49 449.038 735.03 455.673 733.265 467.307C735.563 458.625 736.424 451.274 736.846 438.878H742.796C745.38 459.914 748.21 468.031 756.46 473.919H748.526C745.287 486.341 746.657 494.376 748.526 508.52C793.162 512.448 802.846 517.188 818.383 525.931V518.217ZM761.309 450.338C760.648 455.627 755.579 460.475 750.182 467.307C743.678 453.507 745.523 442.882 752.053 440.2C758.583 437.518 760.782 441.964 761.309 450.338Z" fill="#FEBD87"/>
<path d="M799.436 385.985C774.23 397.171 757.778 402.922 730.014 413.533C753.329 407.302 766.399 403.879 789.739 401.732H805.386C803.611 394.191 802.207 391.01 799.436 385.985Z" fill="#FEBD87"/>
<path d="M782.907 434.47C777.013 430.986 770.946 429.637 773.43 415.957C776.045 411.266 778.872 409.195 787.315 406.921C794.552 407.001 798.775 411.77 802.521 415.076C801.05 409.505 798.617 403.766 789.739 401.732C766.399 403.879 753.329 407.302 730.014 413.533C748.828 420.914 760.229 425.729 769.023 429.163C773.62 430.959 779.048 433.259 782.907 434.47Z" fill="black"/>
<path d="M449.456 441.081L433.373 438.216L442.629 446.371C449.793 461.984 454.372 470.226 464.001 483.837L449.456 488.465L451.444 495.297C460.284 492.008 465.193 490.322 472.94 490.448L471.837 469.291L449.456 441.081Z" fill="black"/>
<path d="M449.456 392.596L409.786 368.574C381.68 401.122 373.469 417.583 383.56 441.081L406.045 486.702C414.308 493.719 418.916 497.664 426.981 504.773L474.365 517.776L472.94 490.448C465.193 490.322 460.284 492.008 451.444 495.297L449.456 488.465L429.626 469.291L416.844 438.216L410.006 428.079L449.456 392.596Z" fill="#D15F6F"/>
<path d="M468.194 399.428C460.442 399.934 456.235 399.158 449.456 392.596L410.006 428.079L416.844 438.216L429.626 469.291L449.456 488.465L464.001 483.837C454.372 470.226 449.793 461.984 442.629 446.371L433.373 438.216L449.456 441.081L471.837 469.291L468.194 399.428Z" fill="#B74A5F"/>
<path d="M477.225 897.944C397.009 891.112 280.776 918.084 310.612 779.156C340.448 640.227 151.057 622.24 140.032 629.733C129.008 637.226 125.712 651.551 140.032 660.146C154.353 668.741 305.768 653.314 282.182 779.156C258.947 903.124 338.949 936.677 459.383 919.322L477.225 897.944Z" fill="#211F27"/>
<path d="M577.286 925.493L590.283 897.944L543.676 893.585L517.561 891.112L510.508 917.118L577.286 925.493Z" fill="#6B304C"/>
<path d="M734.201 886.664L590.283 897.944L577.286 925.493L734.201 915.134V886.664Z" fill="#6B304C"/>
<path d="M739.044 816.621L589.335 819.519L598.443 884.28L764.615 873.261L754.864 851.663L739.044 816.621Z" fill="#6B304C"/>
<path d="M764.615 873.261L598.443 884.28L590.283 897.944L734.201 886.664L764.615 884.28V873.261Z" fill="black"/>
<path d="M523.731 641.634V735.298L549.665 781.44L553.411 775.269L527.037 735.298L523.731 641.634Z" fill="black"/>
<path d="M729.353 399.428C688.039 386.778 669.479 389.617 638.112 376.508L597.561 352.932L561.853 397.445L623.347 485.6L650.013 478.106L628.231 449.806C625.709 449.253 623.061 448.549 620.261 447.693C628.945 444.119 633.674 441.957 628.231 423.645C617.706 413.126 616.537 406.716 614.751 396.846L604.393 397.445C607.458 388.03 609.658 382.768 614.751 373.423C645.795 391.858 662.205 398.242 689.904 405.426C693.716 406.18 697.521 406.81 700.482 407.803L720.758 412.872L730.014 413.533C757.778 402.922 774.23 397.171 799.436 385.985C802.207 391.01 803.611 394.191 805.386 401.732H789.739C798.617 403.766 801.05 409.505 802.521 415.076C797.893 432.707 794.76 434.264 782.907 434.47C779.048 433.259 773.62 430.959 769.023 429.163C779.729 443.646 786.808 454.599 802.295 481.853C805.583 472.449 808.796 464.551 811.908 456.899L811.909 456.898L811.909 456.896C816.382 445.9 820.649 435.41 824.637 421.687C813.691 401.729 807.41 391.578 797.012 367.692C765.39 380.507 751.378 387.391 729.353 399.428Z" fill="#6C5C5C"/>
<path d="M598.443 884.28L589.335 819.519L509.775 817.455L516.14 877.669L598.443 884.28Z" fill="#6B304C"/>
<path d="M590.283 897.944L598.443 884.28L516.14 877.669L517.561 891.112L543.676 893.585L590.283 897.944Z" fill="black"/>
<path d="M487.583 884.28L477.225 897.944L459.383 919.322C528.085 949.685 578.638 964.055 643.329 954.828C675.64 950.22 711.477 939.725 754.864 922.395L773.425 906.319L775.634 848.578L754.864 851.663L764.615 873.261V884.28L734.201 886.664V915.134L577.286 925.493L510.508 917.118L517.561 891.112L516.14 877.669L509.775 817.455L477.665 816.621L472.268 844.15L471.054 850.341C472.73 855.34 474.219 859.509 475.919 863.496C476.458 864.731 477.023 865.985 477.603 867.235C480.055 872.391 483.083 877.586 487.583 884.28Z" fill="#3F2F3D"/>
<path d="M459.383 919.322C477.665 995.576 475.919 1039.29 460.369 1102.72L559.142 1108.19C600.256 1071.56 620.781 1044.63 631.689 1014.75C638.256 996.765 641.338 977.711 643.329 954.828C578.638 964.055 528.085 949.685 459.383 919.322Z" fill="#211F27"/>
<path d="M692.768 699.816L649.793 687.034C654.829 696.836 658.92 704.84 662.349 712.571L704.449 730.67L721.198 728.246L727.59 747.42L749.628 724.72L758.542 754.472L775.634 719.651C769.374 720.386 765.848 720.241 759.546 717.447C768.387 702.642 775.754 693.564 791.061 676.675C769.217 685.722 758.335 692.186 743.678 708.632L704.449 684.389L692.768 699.816Z" fill="#D2CFC9"/>
<path fill-rule="evenodd" clip-rule="evenodd" d="M523.731 641.634V735.298L549.665 781.44L553.411 775.269L527.037 735.298L523.731 641.634Z" fill="#D2CFC9"/>
<path d="M709.077 800.974C735.387 788.081 743.803 779.095 754.864 761.965L758.542 754.472L749.628 724.72L727.59 747.42L721.198 728.246L704.449 730.67L662.349 712.571C667.127 723.342 670.621 733.583 673.595 747.42C680.316 742.366 682.554 738.682 683.953 730.67C690.63 752.178 690.531 764.698 690.364 785.711L690.363 785.752L690.363 785.811L690.362 785.893L690.361 786.014C690.355 786.729 690.35 787.455 690.344 788.191C691.133 787.813 691.896 787.449 692.638 787.096L692.716 787.059L692.719 787.057C701.808 782.729 707.578 779.981 714.587 771.222C711.685 781.707 710.638 788.471 709.077 800.974Z" fill="#C5B5A5"/>
<path fill-rule="evenodd" clip-rule="evenodd" d="M836.234 567.584H832.267C830.335 569.297 829.102 571.953 826.537 580.366C823.595 574.703 822.284 573.156 820.367 572.432C815.121 581.066 814.977 587.958 814.771 597.803L814.771 597.811C814.736 599.471 814.7 601.215 814.636 603.066C784.114 632.788 767.711 650.901 739.044 684.389C708.825 671.386 692.089 662.604 662.349 646.262C661.205 651.681 661.003 655.456 660.697 661.191L660.695 661.213L660.686 661.382L660.646 662.139L660.615 662.706L660.598 663.009L660.586 663.232C626.924 634.276 606.645 617.604 572.05 589.162L572.048 589.16L569.126 586.757L561.853 541.798C554.952 545.435 550.783 547.038 542.899 549.292L542.977 548.313L543.003 547.98C543.817 537.636 544.305 531.446 545.764 528.134C544.052 528.339 542.218 528.605 540.446 528.861C536.584 529.422 533.02 529.938 531.66 529.677C529.676 529.296 554.819 504.6 571.991 497.501C567.951 496.794 564.171 496.264 560.63 495.768C551.775 494.526 544.42 493.495 538.272 490.448C548.268 483.637 560.794 480.263 578.397 475.523L578.418 475.517C580.328 475.003 582.299 474.472 584.332 473.919L583.891 473.33C577.055 464.2 573.09 458.906 535.406 399.428C554.039 375.43 566.547 360.385 582.134 343.963C587.637 338.164 593.524 332.195 600.2 325.598C629.671 336.53 643.429 340.202 658.057 344.107C672.196 347.881 687.148 351.872 717.887 362.844C740.123 354.649 756.003 350.257 786.647 342.568L833.149 383.56C830.49 399.172 827.643 411.348 824.637 421.687C820.649 435.41 816.382 445.9 811.909 456.896L811.909 456.898L811.908 456.899C808.796 464.551 805.583 472.449 802.295 481.853L818.383 518.217V525.931L818.603 529.677L824.119 534.966L832.267 537.391C833.804 535.786 835.299 534.227 836.755 532.709L836.755 532.709L836.756 532.708L836.757 532.707C857.152 511.446 869.879 498.178 880.312 478.106L820.593 526.592V518.217C824.048 509.546 825.886 504.168 828.747 492.432C833.408 495.544 836.282 496.48 841.971 496.399C841.569 495.87 841.171 495.356 840.778 494.856C840.228 494.156 839.688 493.482 839.163 492.826L839.149 492.808L839.146 492.805C833.61 485.891 829.756 481.077 833.596 470.834C842.047 469.086 847.321 467.526 851.668 464.93C853.785 463.665 855.682 462.154 857.618 460.255C856.362 457.782 853.161 456.799 838.445 456.509C838.547 456.065 838.648 455.633 838.747 455.21C840.532 447.549 841.621 442.88 841.971 431.605L855.783 413.533C854.535 410.143 853.529 407.533 852.717 405.426C851.195 401.478 850.353 399.292 849.868 397.029C849.267 394.221 849.218 391.296 849.106 384.741C849.082 383.289 849.054 381.66 849.017 379.814L846.631 377.441C767.145 298.388 716.765 248.282 597.776 210.336C526.148 262.945 495.623 305.483 449.456 392.596C456.235 399.158 460.442 399.934 468.194 399.428L471.837 469.291L472.94 490.448L474.365 517.776L426.981 504.773C418.916 497.664 414.308 493.719 406.045 486.702L383.56 441.081C381.661 443.675 381.329 445.925 383.56 452.982C392.171 469.578 398.231 482.527 410.006 508.52L476.343 534.305L477.665 556.124C469.717 558.998 465.951 561.777 464.001 574.857C460.808 599.474 464.546 642.035 468.567 687.811C473.523 744.237 478.907 805.547 472.268 844.15L477.665 816.621L509.775 817.455L589.335 819.519L739.044 816.621L754.864 851.663L775.634 848.578L773.425 906.319L754.864 922.395C711.477 939.725 675.64 950.22 643.329 954.828C641.338 977.711 638.256 996.765 631.689 1014.75L651.49 1034.99L678.261 1062.35L700.63 1093.21L702.393 1111.72L787.683 1108.19C827.875 1016.09 812.58 972.708 781.585 901.691V850.341L775.634 781.8L805.607 696.29L832.267 586.978L836.234 567.584ZM523.731 641.634L511.979 653.535V631.496L496.772 680.422L499.417 621.358L477.665 663.009L483.328 707.53L506.249 775.269L517.929 757.998L549.665 781.44L553.411 775.269L527.037 735.298L523.731 641.634ZM649.793 687.034L692.768 699.816L704.449 684.389L743.678 708.632C758.335 692.186 769.217 685.722 791.061 676.675C775.754 693.564 768.387 702.642 759.546 717.447C765.848 720.241 769.374 720.386 775.634 719.651L758.542 754.472L754.864 761.965C743.803 779.095 735.387 788.081 709.077 800.974C710.638 788.471 711.685 781.707 714.587 771.222C707.578 779.981 701.808 782.729 692.719 787.057L692.716 787.059L692.638 787.096C691.896 787.449 691.133 787.813 690.344 788.191C690.35 787.455 690.355 786.729 690.361 786.014L690.362 785.893L690.363 785.811L690.363 785.752L690.364 785.711C690.531 764.698 690.63 752.178 683.953 730.67C682.554 738.682 680.316 742.366 673.595 747.42C670.621 733.583 667.127 723.342 662.349 712.571C658.92 704.84 654.829 696.836 649.793 687.034Z" fill="#211F27"/>
<path d="M523.731 735.298V641.634L511.979 653.535V631.496L496.772 680.422L499.417 621.358L477.665 663.009L483.328 707.53L506.249 775.269L517.929 757.998L549.665 781.44L523.731 735.298Z" fill="#D2CFC9"/>
<path d="M849.017 379.814L846.631 377.441M849.017 379.814C848.219 379.02 847.424 378.229 846.631 377.441M849.017 379.814C849.054 381.66 849.082 383.289 849.106 384.741C849.218 391.296 849.267 394.221 849.868 397.029C850.353 399.292 851.195 401.478 852.717 405.426C853.529 407.533 854.535 410.143 855.783 413.533M855.783 413.533L873.855 396.784C879.152 417.603 880.663 461.443 880.312 478.106M855.783 413.533L841.971 431.605C841.621 442.88 840.532 447.549 838.747 455.21C838.648 455.633 838.547 456.065 838.444 456.509C853.161 456.799 856.362 457.782 857.618 460.255C855.682 462.154 853.785 463.665 851.668 464.93M880.312 478.106L820.593 526.592V518.217C824.048 509.546 825.886 504.168 828.747 492.432C833.408 495.544 836.282 496.48 841.971 496.399C841.569 495.87 841.171 495.356 840.778 494.856M880.312 478.106C869.879 498.178 857.152 511.446 836.757 532.707L836.756 532.708L836.755 532.709L836.755 532.709C835.299 534.227 833.804 535.786 832.267 537.391M832.267 537.391C835.892 548.437 837.854 554.656 836.234 567.584M832.267 537.391L824.119 534.966M836.234 567.584H832.267C830.335 569.297 829.102 571.953 826.537 580.366C823.595 574.703 822.284 573.156 820.366 572.432C815.121 581.066 814.977 587.958 814.771 597.803M836.234 567.584L832.267 586.978L805.607 696.29L775.634 781.8L781.585 850.341V901.691C812.58 972.708 827.875 1016.09 787.683 1108.19L702.393 1111.72L700.63 1093.21L678.261 1062.35L651.489 1034.99L631.689 1014.75M660.586 663.232C626.924 634.276 606.645 617.604 572.05 589.162M660.586 663.232L660.598 663.009M660.586 663.232C660.59 663.157 660.594 663.083 660.598 663.009M569.126 586.757L561.853 541.798C554.952 545.435 550.783 547.038 542.899 549.292M569.126 586.757L572.048 589.16M569.126 586.757C570.111 587.568 571.085 588.369 572.048 589.16M542.899 549.292L542.977 548.313M542.899 549.292C542.925 548.961 542.951 548.635 542.977 548.313M545.764 528.134L561.853 525.931L563.401 527.473H573.319C579.651 555.363 583.304 569.07 590.288 584.554L592.933 554.801C602.636 569.144 607.988 577.201 619.82 591.165C624.33 589.251 626.166 587.564 628.195 583.452C630.11 597.807 632.344 606.075 639.214 621.358C639.641 611.19 638.76 604.395 634.586 589.622C649.691 607.985 658.666 617.674 677.562 631.496C677.087 618.98 676.524 611.949 673.595 599.319C689.718 616.318 697.518 626.266 711.281 644.058L714.587 624.664L743.678 662.791C753.474 651.8 758.834 645.725 763.513 638.108C766.954 638.079 768.884 637.648 772.328 636.124C778.492 629.366 781.295 623.354 785.772 610.78C787.051 595.885 788.057 587.834 794.808 578.603C795.603 585.12 795.928 589.618 796.13 600.421C804.155 589.053 810.04 586.416 810.455 554.581L826.537 560.091C826.544 551.661 825.8 545.85 824.119 534.966M545.764 528.134C544.052 528.339 542.218 528.605 540.446 528.861C536.584 529.422 533.02 529.938 531.66 529.677C529.676 529.296 554.819 504.6 571.991 497.501C567.951 496.794 564.171 496.264 560.63 495.768C551.775 494.526 544.42 493.495 538.272 490.448C548.268 483.637 560.794 480.263 578.397 475.523M545.764 528.134C544.305 531.446 543.817 537.636 543.003 547.98M584.332 473.919L583.891 473.33M584.332 473.919C584.184 473.721 584.037 473.525 583.891 473.33M584.332 473.919C597.374 502.525 605.151 514.85 618.604 536.171L618.605 536.172M584.332 473.919C582.299 474.472 580.328 475.003 578.418 475.517M802.295 481.853L818.383 518.217V525.931M802.295 481.853C786.808 454.599 779.729 443.646 769.023 429.163M802.295 481.853C805.583 472.449 808.796 464.551 811.908 456.899L811.909 456.898L811.909 456.896C816.382 445.9 820.649 435.41 824.637 421.687M818.383 525.931C718.561 516.189 674.106 518.141 619.374 537.391M818.383 525.931L818.603 529.677M818.383 525.931C802.846 517.188 793.162 512.448 748.526 508.52C746.657 494.376 745.287 486.341 748.526 473.919M619.374 537.391C691.217 528.818 737.709 529.808 818.603 529.677M619.374 537.391L618.605 536.172M619.374 537.391C619.115 536.981 618.859 536.575 618.605 536.172M818.603 529.677L824.119 534.966M449.456 392.596C495.623 305.483 526.148 262.945 597.776 210.336C716.765 248.282 767.145 298.388 846.631 377.441M449.456 392.596L409.786 368.574C381.68 401.122 373.469 417.583 383.56 441.081M449.456 392.596C456.235 399.158 460.442 399.934 468.194 399.428L471.837 469.291M449.456 392.596L410.006 428.079L416.844 438.216L429.626 469.291L449.456 488.465M383.56 441.081C381.661 443.675 381.329 445.925 383.56 452.982C392.171 469.578 398.231 482.527 410.006 508.52L476.343 534.305L477.665 556.124C469.717 558.998 465.951 561.777 464.001 574.856C460.808 599.474 464.546 642.035 468.567 687.811C473.523 744.237 478.907 805.547 472.268 844.15M383.56 441.081L406.045 486.702C414.308 493.719 418.916 497.664 426.981 504.773L474.365 517.776L472.94 490.448M471.054 850.341C472.73 855.34 474.219 859.509 475.919 863.496M471.054 850.341C471.737 853.191 473.594 858.169 475.919 863.496M471.054 850.341L472.268 844.15M471.054 850.341C471.496 848.35 471.9 846.284 472.268 844.15M487.583 884.28L477.225 897.944M487.583 884.28C483.083 877.586 480.055 872.391 477.603 867.235M487.583 884.28C484.834 881.529 480.947 874.437 477.603 867.235M477.225 897.944C397.009 891.112 280.776 918.084 310.612 779.156C340.448 640.227 151.057 622.24 140.032 629.733C129.008 637.226 125.712 651.551 140.032 660.146C154.353 668.741 305.768 653.314 282.182 779.156C258.947 903.124 338.949 936.677 459.383 919.322M477.225 897.944L459.383 919.322M459.383 919.322C477.665 995.576 475.919 1039.29 460.369 1102.72L559.142 1108.19C600.256 1071.56 620.781 1044.63 631.689 1014.75M459.383 919.322C528.085 949.685 578.639 964.055 643.329 954.828M523.731 641.634V735.298L549.665 781.44M523.731 641.634L527.037 735.298L553.411 775.269L549.665 781.44M523.731 641.634L511.979 653.535V631.496L496.772 680.422L499.417 621.358L477.665 663.009L483.328 707.53L506.249 775.269L517.929 757.998L549.665 781.44M589.335 819.519L739.044 816.621L754.864 851.663M589.335 819.519L598.443 884.28M589.335 819.519L509.775 817.455M764.615 873.261L598.443 884.28M764.615 873.261V884.28L734.201 886.664M764.615 873.261L754.864 851.663M598.443 884.28L590.283 897.944M598.443 884.28L516.14 877.669M590.283 897.944L734.201 886.664M590.283 897.944L577.286 925.493M590.283 897.944L543.676 893.585L517.561 891.112M754.864 851.663L775.634 848.578L773.425 906.319L754.864 922.395C711.477 939.725 675.64 950.22 643.329 954.828M734.201 886.664V915.134L577.286 925.493M577.286 925.493L510.508 917.118L517.561 891.112M517.561 891.112L516.14 877.669M662.349 712.571C667.127 723.342 670.621 733.583 673.595 747.42C680.316 742.366 682.554 738.682 683.953 730.67C690.63 752.178 690.531 764.698 690.364 785.711M662.349 712.571C658.92 704.84 654.829 696.836 649.793 687.034L692.769 699.816L704.449 684.389L743.678 708.632C758.335 692.186 769.217 685.722 791.061 676.675C775.754 693.564 768.387 702.642 759.546 717.447C765.848 720.241 769.374 720.386 775.634 719.651L758.542 754.472M662.349 712.571L704.449 730.67L721.198 728.246L727.59 747.42L749.628 724.72L758.542 754.472M758.542 754.472L754.864 761.965C743.803 779.095 735.387 788.081 709.077 800.974C710.638 788.471 711.684 781.707 714.587 771.222C707.578 779.981 701.808 782.729 692.719 787.057M582.134 343.963C566.547 360.385 554.039 375.43 535.406 399.428C573.09 458.906 577.055 464.2 583.891 473.33M582.134 343.963C587.637 338.164 593.524 332.195 600.2 325.598C629.671 336.53 643.429 340.202 658.057 344.107C672.196 347.881 687.148 351.872 717.887 362.844C740.123 354.649 756.003 350.257 786.647 342.568L833.149 383.56C830.49 399.172 827.642 411.348 824.637 421.687M582.134 343.963L597.561 352.932M824.637 421.687C813.691 401.729 807.41 391.578 797.012 367.692C765.39 380.507 751.378 387.391 729.353 399.428C688.039 386.778 669.479 389.617 638.112 376.508L597.561 352.932M597.561 352.932L561.853 397.445L623.347 485.6L650.013 478.106M650.013 478.106L678.003 510.503H740.593C741.601 496.686 742.402 489.049 740.593 473.919M650.013 478.106L628.231 449.806M740.593 473.919H731.336C732.072 471.578 732.711 469.404 733.265 467.308M740.593 473.919H748.526M748.526 473.919H756.46C748.21 468.031 745.379 459.914 742.796 438.878H736.846C736.424 451.274 735.563 458.625 733.265 467.308M733.265 467.308C722.215 457.442 713.896 451.817 717.887 442.624C721.19 439.161 723.058 437.896 726.488 440.2C736.49 449.038 735.03 455.673 733.265 467.308ZM700.482 407.803L720.758 412.872M700.482 407.803C697.521 406.81 693.716 406.18 689.903 405.426M700.482 407.803C696.909 406.912 693.171 406.274 689.903 405.426M614.751 396.846L631.06 395.902C640.299 398.492 652.925 400.059 665.465 401.616L665.466 401.616C674.667 402.759 682.164 403.895 689.903 405.426M614.751 396.846L604.393 397.445C607.458 388.03 609.658 382.768 614.751 373.423C645.795 391.858 662.205 398.242 689.903 405.426M614.751 396.846C616.537 406.716 617.706 413.126 628.231 423.645M638.112 432.486C646.213 441.414 657.279 441.477 683.953 430.563M638.112 432.486C634.74 429.349 631.152 426.454 628.195 423.523C628.207 423.564 628.219 423.604 628.231 423.645M638.112 432.486C634.12 429.199 630.88 426.292 628.231 423.645M720.758 412.872L730.014 413.533M720.758 412.872L694.656 425.443M683.953 430.563L689.903 429.621M683.953 430.563C683.909 430.599 683.866 430.636 683.822 430.672M730.014 413.533C748.828 420.914 760.229 425.729 769.023 429.163M730.014 413.533C757.778 402.922 774.23 397.171 799.436 385.985C802.207 391.01 803.611 394.191 805.386 401.732H789.739M730.014 413.533C753.329 407.302 766.399 403.879 789.739 401.732M802.521 415.076C797.893 432.707 794.76 434.264 782.907 434.47M802.521 415.076C798.775 411.77 794.552 407.001 787.315 406.921C778.872 409.195 776.045 411.266 773.43 415.957C770.946 429.637 777.013 430.986 782.907 434.47M802.521 415.076C801.05 409.505 798.617 403.766 789.739 401.732M782.907 434.47C779.048 433.259 773.62 430.959 769.023 429.163M572.048 589.16L572.05 589.162M572.048 589.16C572.049 589.161 572.05 589.162 572.05 589.162M851.668 464.93C847.321 467.526 842.047 469.086 833.596 470.834C829.756 481.077 833.61 485.891 839.146 492.805M851.668 464.93C847.919 492.195 845.387 494.303 840.778 494.856M840.778 494.856C840.228 494.156 839.688 493.482 839.163 492.826M694.656 425.443C697.185 415.83 697.44 409.805 680.696 406.637C676.702 405.582 673.182 405.228 670.289 405.426C666.415 405.692 662.294 412.742 661.033 414.635C659.192 417.396 669.448 431.149 683.822 430.672M694.656 425.443L692.703 427.16M694.656 425.443C694.249 425.634 693.501 426.362 692.703 427.16M689.903 429.621C690.444 429.451 691.62 428.242 692.703 427.16M689.903 429.621C687.813 430.278 685.78 430.607 683.822 430.672M689.903 429.621L692.703 427.16M628.231 423.645C633.674 441.957 628.945 444.119 620.261 447.693C623.061 448.549 625.709 449.253 628.231 449.806M628.231 449.806C650.918 454.782 663.378 447.623 683.822 430.672M471.837 469.291L449.456 441.081L433.373 438.216L442.629 446.371C449.793 461.984 454.372 470.226 464.001 483.837L449.456 488.465M471.837 469.291L472.94 490.448M472.94 490.448C465.193 490.322 460.284 492.008 451.444 495.297L449.456 488.465M839.146 492.805L839.149 492.808M839.146 492.805C839.147 492.806 839.148 492.807 839.149 492.808M578.397 475.523L578.418 475.517M578.397 475.523C578.404 475.521 578.411 475.519 578.418 475.517M543.003 547.98L542.977 548.313M543.003 547.98C542.994 548.091 542.985 548.202 542.977 548.313M660.697 661.191C661.003 655.456 661.205 651.681 662.349 646.262C692.089 662.604 708.825 671.386 739.044 684.389C767.711 650.901 784.114 632.788 814.636 603.066C814.7 601.215 814.736 599.471 814.771 597.811M660.697 661.191L660.695 661.213M660.697 661.191C660.696 661.199 660.696 661.206 660.695 661.213M814.771 597.803L814.771 597.811M814.771 597.803C814.771 597.805 814.771 597.808 814.771 597.811M690.364 785.711L690.363 785.752M690.364 785.711C690.363 785.725 690.363 785.738 690.363 785.752M692.719 787.057L692.716 787.059M692.719 787.057C692.718 787.058 692.717 787.058 692.716 787.059M660.695 661.213L660.686 661.382M660.695 661.213C660.692 661.269 660.689 661.326 660.686 661.382M839.149 492.808L839.163 492.826M839.149 492.808C839.154 492.814 839.158 492.82 839.163 492.826M692.716 787.059L692.638 787.096M692.716 787.059C692.69 787.071 692.664 787.083 692.638 787.096M690.363 785.752L690.363 785.811M690.363 785.752C690.363 785.772 690.363 785.791 690.363 785.811M660.646 662.139L660.686 661.382M660.646 662.139L660.615 662.706M660.646 662.139C660.636 662.326 660.625 662.515 660.615 662.706M660.646 662.139C660.659 661.883 660.673 661.631 660.686 661.382M690.363 785.811L690.362 785.893M690.363 785.811C690.363 785.838 690.362 785.866 690.362 785.893M692.638 787.096C691.896 787.449 691.132 787.813 690.344 788.191C690.35 787.455 690.355 786.729 690.361 786.014M475.919 863.496C476.458 864.731 477.023 865.985 477.603 867.235M475.919 863.496C476.455 864.754 477.013 865.993 477.603 867.235M509.775 817.455L477.665 816.621L472.268 844.15M509.775 817.455L516.14 877.669M660.615 662.706L660.598 663.009M660.615 662.706C660.61 662.807 660.604 662.908 660.598 663.009M690.362 785.893L690.361 786.014M690.362 785.893C690.362 785.933 690.361 785.974 690.361 786.014M643.329 954.828C641.338 977.711 638.256 996.765 631.689 1014.75M750.181 467.308C755.579 460.476 760.648 455.627 761.309 450.338C760.782 441.964 758.583 437.518 752.053 440.2C745.523 442.882 743.678 453.507 750.181 467.308Z" stroke="black" stroke-width="0.440775"/>
<path d="M761.023 773.305L775.992 771.073L774.232 761.391L761.225 759.341L753.676 769.286L757.515 774.22L738.688 815.844L739.728 868.684C742.396 885.568 743.632 894.921 752.552 914.522C774.84 939.398 786.705 952.48 791.546 953.467L757.345 911.244C747.939 891.954 746.433 883.361 742.464 867.279L741.87 816.637L761.023 773.305Z" fill="#3E3030"/>
<path d="M799.743 970.022C801.538 964.303 810.928 956.891 814.448 958.084C814.682 955.98 815.366 954.983 817.486 953.474C815.002 951.728 812.79 950.214 810.887 948.847C802.91 944.085 800.963 941.691 799.372 937.626L796.308 939.149L800.687 946.303C796.917 948.002 794.947 949.739 791.546 953.467C790.466 956.229 789.729 957.239 788.391 958.942C792.868 962.836 795.336 965.259 799.743 970.022Z" fill="#3E3030"/>
<path d="M775.992 771.073L761.023 773.305L741.87 816.637L742.464 867.279C746.433 883.361 747.939 891.954 757.345 911.244L791.546 953.467C794.947 949.739 796.917 948.002 800.687 946.303L796.308 939.149L799.372 937.626C775.73 888.027 760.07 861.806 777.568 785.084L775.365 777.577L766.293 783.266C760.379 805.227 757.722 818.911 753.981 845.401C753.673 804.1 753.818 781.398 776.847 773.226L775.992 771.073Z" fill="#E7A220"/>
<path d="M778.379 846.017C777.433 818.669 778.011 805.383 783.442 789.828L776.847 773.226C753.818 781.398 753.673 804.1 753.981 845.401C757.722 818.911 760.379 805.227 766.293 783.266L775.365 777.577L777.568 785.084C760.07 861.806 775.73 888.027 799.372 937.626C800.963 941.691 802.91 944.085 810.887 948.847C807.404 946.344 804.955 944.335 803.772 942.302L793.641 901.608L786.61 879.18L778.379 846.017Z" fill="#F4C63F"/>
<path d="M775.992 771.073L761.023 773.305L741.87 816.637L742.464 867.279C746.433 883.361 747.939 891.954 757.345 911.244L791.546 953.467M775.992 771.073L774.232 761.391L761.225 759.341L753.676 769.286L757.515 774.22L738.688 815.844L739.728 868.684C742.396 885.568 743.632 894.921 752.552 914.522C774.84 939.398 786.705 952.48 791.546 953.467M775.992 771.073L776.847 773.226M791.546 953.467C790.466 956.229 789.729 957.239 788.391 958.942C792.868 962.836 795.336 965.259 799.743 970.022C801.538 964.303 810.928 956.891 814.448 958.084C814.682 955.98 815.366 954.983 817.486 953.474C815.002 951.728 812.79 950.214 810.887 948.847M791.546 953.467C794.947 949.739 796.917 948.002 800.687 946.303L796.308 939.149L799.372 937.626M776.847 773.226L783.442 789.828C778.011 805.383 777.433 818.669 778.379 846.017L786.61 879.18L793.641 901.608L803.772 942.302C804.955 944.335 807.404 946.344 810.887 948.847M776.847 773.226C753.818 781.398 753.673 804.1 753.981 845.401C757.722 818.911 760.379 805.227 766.293 783.266L775.365 777.577L777.568 785.084C760.07 861.806 775.73 888.027 799.372 937.626M799.372 937.626C800.963 941.691 802.91 944.085 810.887 948.847" stroke="black" stroke-width="0.192887"/>
<path d="M722.746 779.256L737.715 777.025L735.954 767.342L722.948 765.292L715.399 775.238L719.238 780.171L700.411 821.795L701.45 874.635C704.118 891.519 705.354 900.872 714.274 920.473C736.563 945.349 748.428 958.431 753.268 959.418L719.067 917.195C709.662 897.905 708.155 889.313 704.186 873.23L703.593 822.589L722.746 779.256Z" fill="#3E3030"/>
<path d="M761.466 975.974C763.26 970.254 772.65 962.843 776.171 964.035C776.405 961.931 777.089 960.934 779.209 959.425C776.725 957.679 774.513 956.165 772.61 954.798C764.632 950.037 762.685 947.643 761.094 943.577L758.031 945.1L762.41 952.255C758.639 953.953 756.67 955.69 753.268 959.418C752.189 962.18 751.452 963.19 750.114 964.893C754.591 968.787 757.058 971.21 761.466 975.974Z" fill="#3E3030"/>
<path d="M737.715 777.025L722.746 779.256L703.593 822.589L704.186 873.23C708.155 889.313 709.662 897.905 719.067 917.195L753.268 959.418C756.67 955.69 758.639 953.953 762.41 952.255L758.031 945.1L761.094 943.577C737.453 893.979 721.793 867.758 739.291 791.035L737.087 783.528L728.015 789.218C722.102 811.178 719.445 824.863 715.704 851.352C715.395 810.051 715.541 787.349 738.57 779.177L737.715 777.025Z" fill="#E7A220"/>
<path d="M740.101 851.968C739.156 824.62 739.733 811.334 745.165 795.78L738.57 779.177C715.541 787.349 715.395 810.051 715.704 851.352C719.445 824.863 722.102 811.178 728.015 789.218L737.087 783.528L739.291 791.035C721.793 867.758 737.453 893.979 761.094 943.577C762.685 947.643 764.632 950.037 772.61 954.798C769.126 952.295 766.678 950.286 765.495 948.253L755.364 907.559L748.333 885.131L740.101 851.968Z" fill="#F4C63F"/>
<path d="M737.715 777.025L722.746 779.256L703.593 822.589L704.186 873.23C708.155 889.313 709.662 897.905 719.067 917.195L753.268 959.418M737.715 777.025L735.954 767.342L722.948 765.292L715.399 775.238L719.238 780.171L700.411 821.795L701.45 874.635C704.118 891.519 705.354 900.872 714.274 920.473C736.563 945.349 748.428 958.431 753.268 959.418M737.715 777.025L738.57 779.177M753.268 959.418C752.189 962.18 751.452 963.19 750.114 964.893C754.591 968.787 757.058 971.21 761.466 975.974C763.26 970.254 772.65 962.843 776.171 964.035C776.405 961.931 777.089 960.934 779.209 959.425C776.725 957.679 774.513 956.165 772.61 954.798M753.268 959.418C756.67 955.69 758.639 953.953 762.41 952.255L758.031 945.1L761.094 943.577M738.57 779.177L745.165 795.78C739.733 811.334 739.156 824.62 740.101 851.968L748.333 885.131L755.364 907.559L765.495 948.253C766.678 950.286 769.126 952.295 772.61 954.798M738.57 779.177C715.541 787.349 715.395 810.051 715.704 851.352C719.445 824.863 722.102 811.178 728.015 789.218L737.087 783.528L739.291 791.035C721.793 867.758 737.453 893.979 761.094 943.577M761.094 943.577C762.685 947.643 764.632 950.037 772.61 954.798" stroke="black" stroke-width="0.192887"/>
<path d="M683.957 784.547L698.926 782.316L697.165 772.633L684.159 770.583L676.61 780.529L680.449 785.462L661.622 827.086L662.661 879.926C665.329 896.81 666.565 906.163 675.485 925.764C697.774 950.64 709.639 963.722 714.479 964.709L680.278 922.486C670.873 903.196 669.366 894.604 665.397 878.521L664.804 827.88L683.957 784.547Z" fill="#3E3030"/>
<path d="M722.677 981.265C724.471 975.545 733.861 968.134 737.382 969.326C737.615 967.222 738.3 966.225 740.42 964.716C737.936 962.97 735.724 961.456 733.821 960.089C725.843 955.328 723.896 952.934 722.305 948.868L719.242 950.391L723.621 957.546C719.85 959.244 717.881 960.981 714.479 964.709C713.399 967.471 712.663 968.481 711.325 970.185C715.802 974.078 718.269 976.501 722.677 981.265Z" fill="#3E3030"/>
<path d="M698.926 782.316L683.957 784.547L664.804 827.88L665.397 878.521C669.366 894.604 670.873 903.196 680.278 922.486L714.479 964.709C717.881 960.981 719.85 959.244 723.621 957.546L719.242 950.391L722.305 948.868C698.664 899.27 683.004 873.049 700.502 796.326L698.298 788.819L689.226 794.509C683.313 816.469 680.656 830.154 676.915 856.643C676.606 815.342 676.752 792.64 699.781 784.468L698.926 782.316Z" fill="#E7A220"/>
<path d="M701.312 857.259C700.367 829.911 700.944 816.625 706.376 801.071L699.781 784.468C676.752 792.64 676.606 815.342 676.915 856.643C680.656 830.154 683.313 816.469 689.226 794.509L698.298 788.819L700.502 796.326C683.004 873.049 698.664 899.27 722.305 948.868C723.896 952.934 725.843 955.328 733.821 960.089C730.337 957.586 727.889 955.577 726.706 953.544L716.575 912.85L709.543 890.422L701.312 857.259Z" fill="#F4C63F"/>
<path d="M698.926 782.316L683.957 784.547L664.804 827.88L665.397 878.521C669.366 894.604 670.873 903.196 680.278 922.486L714.479 964.709M698.926 782.316L697.165 772.633L684.159 770.583L676.61 780.529L680.449 785.462L661.622 827.086L662.661 879.926C665.329 896.81 666.565 906.163 675.485 925.764C697.774 950.64 709.639 963.722 714.479 964.709M698.926 782.316L699.781 784.468M714.479 964.709C713.399 967.471 712.663 968.481 711.325 970.185C715.802 974.078 718.269 976.501 722.677 981.265C724.471 975.545 733.861 968.134 737.382 969.326C737.615 967.222 738.3 966.225 740.42 964.716C737.936 962.97 735.724 961.456 733.821 960.089M714.479 964.709C717.881 960.981 719.85 959.244 723.621 957.546L719.242 950.391L722.305 948.868M699.781 784.468L706.376 801.071C700.944 816.625 700.367 829.911 701.312 857.259L709.543 890.422L716.575 912.85L726.706 953.544C727.889 955.577 730.337 957.586 733.821 960.089M699.781 784.468C676.752 792.64 676.606 815.342 676.915 856.643C680.656 830.154 683.313 816.469 689.226 794.509L698.298 788.819L700.502 796.326C683.004 873.049 698.664 899.27 722.305 948.868M722.305 948.868C723.896 952.934 725.843 955.328 733.821 960.089" stroke="black" stroke-width="0.192887"/>
<path d="M563.142 831.712C544.759 797.457 533.927 777.843 523.692 736.842C521.537 696.789 524.507 680.432 527.439 647.364L477.632 556.785C467.816 561.366 465.051 566.607 463.527 579.265C441.526 647.851 412.397 748.522 413.499 761.966C414.601 775.409 452.038 826.938 473.444 859.202L563.142 831.712Z" fill="#211F27"/>
<path d="M588.927 867.752L575.704 827.862L563.142 831.712L473.444 859.202L463.527 862.242L477.632 900.81L487.549 897.864L577.247 871.221L588.927 867.752Z" fill="#401945"/>
<path d="M487.549 897.864C496.323 924.908 501.849 940.112 516.861 967.587L542.866 960.975L527.439 916.898L530.304 915.796L545.952 959.653L571.517 951.499L554.547 908.082L557.192 906.76L574.382 950.397L602.151 941.802C596.941 924.727 593.954 915.215 585.842 900.81C590.44 905.879 598.594 913.592 610.275 918.661L617.107 905.438C611.377 893.978 597.577 876.016 577.247 871.221L487.549 897.864Z" fill="#401945"/>
<path d="M527.439 916.898L542.866 960.975L545.952 959.653L530.304 915.796L527.439 916.898Z" fill="black"/>
<path d="M554.547 908.082L571.517 951.499L574.382 950.397L557.192 906.76L554.547 908.082Z" fill="black"/>
<path d="M563.142 831.712L575.704 827.862L588.927 867.752L577.247 871.221M563.142 831.712C544.759 797.457 533.927 777.843 523.693 736.842C521.537 696.789 524.507 680.432 527.439 647.364L477.632 556.785C467.816 561.366 465.051 566.607 463.527 579.265C441.526 647.851 412.397 748.522 413.499 761.966C414.601 775.409 452.038 826.938 473.444 859.202M563.142 831.712L473.444 859.202M473.444 859.202L463.527 862.242L477.632 900.81L487.549 897.864M487.549 897.864C496.323 924.908 501.849 940.112 516.861 967.587L542.866 960.975M487.549 897.864L577.247 871.221M542.866 960.975L527.439 916.898L530.304 915.796L545.952 959.653M542.866 960.975L545.952 959.653M545.952 959.653L571.517 951.499M571.517 951.499L554.547 908.082L557.192 906.76L574.382 950.397M571.517 951.499L574.382 950.397M574.382 950.397L602.151 941.802C596.941 924.727 593.954 915.215 585.842 900.81C590.44 905.879 598.594 913.592 610.275 918.661L617.107 905.438C611.377 893.978 597.577 876.016 577.247 871.221" stroke="black" stroke-width="0.440775"/>
</svg>
