<svg width="1137" height="891" viewBox="0 0 1137 891" fill="none" xmlns="http://www.w3.org/2000/svg">
<path d="M578.5 19.5C571.416 36.4866 569.303 45.8969 568.5 62.5C573.311 64.7714 575.414 64.6314 578.5 62.5C587.223 52.916 588.243 51.7167 592 47.5C589.905 44.6504 589.494 40.2959 588.5 33.5L578.5 19.5Z" fill="#2A2722"/>
<path d="M658 22.5C665.084 39.4866 667.197 48.8969 668 65.5C663.189 67.7714 661.086 67.6315 658 65.5C649.277 55.916 648.257 54.7167 644.5 50.5C646.595 47.6504 647.006 43.2959 648 36.5L658 22.5Z" fill="#2A2722"/>
<path d="M648 76C641.047 72.2478 639.227 69.4574 639 63.5C633.696 67.767 631.096 70.4161 627.839 76L626.5 77.5C643.732 78.9347 646.958 78.2701 648 76Z" fill="#A4A971"/>
<path d="M582 63.5C580.665 71.0133 578.075 73.5803 571 76C573.432 78.8174 573.833 80.6923 591 79C590.668 77.9235 590.344 76.93 590.013 76C588.24 71.0111 586.288 67.8479 582 63.5Z" fill="#A4A971"/>
<path fill-rule="evenodd" clip-rule="evenodd" d="M734 8.99999C728.5 9.49999 726.5 34.5 734 34.5C741.714 35.1965 759.198 34.6198 766 34C772.802 33.3802 773.867 9.50775 766 8.5C758.133 7.49225 739.5 8.49999 734 8.99999ZM746.5 11C741.357 20.5605 746.5 31 746.5 31C746.5 31 750.824 22.5526 746.5 11Z" fill="#A4A971"/>
<path fill-rule="evenodd" clip-rule="evenodd" d="M818.5 8.99999C813 9.49999 811 34.5 818.5 34.5C826.214 35.1965 841.698 35.1198 848.5 34.5C855.302 33.8802 856.367 10.0077 848.5 8.99999C840.633 7.99224 824 8.49999 818.5 8.99999ZM829 11C823.857 20.5605 829 31 829 31C829 31 833.324 22.5526 829 11Z" fill="#A4A971"/>
<path d="M746.5 11C741.357 20.5605 746.5 31 746.5 31C746.5 31 750.824 22.5526 746.5 11Z" fill="#D22B2B"/>
<path d="M829 11C823.857 20.5605 829 31 829 31C829 31 833.324 22.5526 829 11Z" fill="#D22B2B"/>
<path d="M571 76H555V85H559C559.054 84.9842 559.106 84.9843 559.156 85H756L768 86.5V79C760.161 79.9964 756.065 80.3887 752.5 79C740.967 80.6041 738.935 80.3316 738.5 79C727.642 80.1441 719.744 82.1851 714.5 79C699.809 80.9409 693.912 81.2325 691.5 79C680.139 80.1309 676.231 79.5268 674.5 76H648C646.958 78.2701 643.732 78.9347 626.5 77.5L627.839 76H590.013C590.344 76.93 590.668 77.9235 591 79C573.833 80.6923 573.432 78.8174 571 76Z" fill="#2A2722"/>
<path fill-rule="evenodd" clip-rule="evenodd" d="M579.5 1H569.5C565.354 16.1425 563.06 23.6321 559 36.5C554.007 51.9639 554.923 60.5925 555 76H571C578.075 73.5803 580.665 71.0133 582 63.5C586.288 67.8479 588.24 71.0111 590.013 76H627.839C631.096 70.4161 633.696 67.767 639 63.5C639.227 69.4574 641.047 72.2478 648 76H674.5C676.231 79.5268 680.139 80.1309 691.5 79L705.5 58.5L714.5 79L729.5 63.5L738.5 79L745 70.5L752.5 79L760 65.5L768 79V86.5L756 85H559.156C560.874 85.545 559.907 104.84 559 131C562.971 133.432 565.057 135.274 568.5 139.5H696H796.5C820.491 155.121 831.004 161.528 833.5 160C841.128 160.531 845.208 160.544 852.5 160L856.5 158C867.587 146.4 871.502 141.566 877 134L873 153C872.319 153.531 871.653 154.059 871 154.585L859.5 224.5C884.358 206.891 898.19 198.511 922.5 184.293L923 184C914.336 147.279 909.549 114.889 901 59L866.5 54.5C866.5 54.5 864.5 46.5 863 38C861.5 29.5 862 14 859 8.5C856 3.00001 850.5 1 850.5 1H810.5L805 16H784L778.5 1H725C720.284 2.35689 718.887 5.04558 716.5 10C713.666 27.526 711.878 36.5713 708 50.5H678C675.506 31.5246 671.689 20.6969 663.5 1H652.5L639 15H592L579.5 1ZM668 65.5C667.197 48.8969 665.084 39.4866 658 22.5L648 36.5C647.006 43.2959 646.595 47.6504 644.5 50.5C648.257 54.7167 649.277 55.916 658 65.5C661.086 67.6315 663.189 67.7714 668 65.5ZM568.5 62.5C569.303 45.8969 571.416 36.4866 578.5 19.5L588.5 33.5C589.494 40.2959 589.905 44.6504 592 47.5C588.243 51.7167 587.223 52.916 578.5 62.5C575.414 64.6314 573.311 64.7714 568.5 62.5ZM734 34.5C726.5 34.5 728.5 9.49999 734 8.99999C739.5 8.49999 758.133 7.49225 766 8.5C773.867 9.50775 772.802 33.3802 766 34C759.198 34.6198 741.714 35.1965 734 34.5ZM818.5 34.5C811 34.5 813 9.49999 818.5 8.99999C824 8.49999 840.633 7.99224 848.5 8.99999C856.367 10.0077 855.302 33.8802 848.5 34.5C841.698 35.1198 826.214 35.1965 818.5 34.5Z" fill="#426640"/>
<path d="M705.5 58.5L691.5 79C693.912 81.2325 699.809 80.9409 714.5 79L705.5 58.5Z" fill="#A4A971"/>
<path d="M729.5 63.5L714.5 79C719.744 82.1851 727.642 80.1441 738.5 79L729.5 63.5Z" fill="#A4A971"/>
<path d="M745 70.5L738.5 79C738.935 80.3316 740.967 80.6041 752.5 79L745 70.5Z" fill="#A4A971"/>
<path d="M760 65.5L752.5 79C756.065 80.3887 760.161 79.9964 768 79L760 65.5Z" fill="#A4A971"/>
<path d="M920 72.5C913.972 66.9885 909.627 64.0666 901 59C909.549 114.889 914.336 147.279 923 184L935.5 188.167L951.5 193.5C951.565 186.261 952.282 181.972 956 173.5C948.585 168.126 943.169 164.862 931 158.5C937.524 150.666 941.002 146.109 945.5 136.5C938.579 129.918 934.045 125.847 921.5 116L931 105.5C925.657 100.373 921.947 97.3107 914 91.5C916.571 84.1767 917.663 80.0155 920 72.5Z" fill="#2D2727"/>
<path d="M696 139.5L716.5 180.5C721.818 183.948 727.202 185.418 734.5 186.5C731 197.5 750.527 225.509 747 223C763.211 235.576 771.319 240.499 784.5 246.5C796.328 244.417 805.735 244.286 826.5 245.5L849.286 231C843.516 219.414 840.689 208.875 836.5 191.5C849.945 174.886 857.772 165.231 871 154.585C871.653 154.059 872.319 153.531 873 153L877 134C871.502 141.566 867.587 146.4 856.5 158L852.5 160C845.208 160.544 841.128 160.531 833.5 160C831.004 161.528 820.491 155.121 796.5 139.5H696Z" fill="#2D2727"/>
<path d="M836.5 191.5C840.689 208.875 843.516 219.414 849.286 231L859.5 224.5L871 154.585C857.772 165.231 849.945 174.886 836.5 191.5Z" fill="#714133"/>
<path d="M747 223C750.527 225.509 731 197.5 734.5 186.5C727.202 185.418 721.818 183.948 716.5 180.5C709.154 182.194 705.547 183.378 699.5 185.5C755.241 230.184 743.473 220.491 747 223Z" fill="#714133"/>
<path d="M747 223C743.473 220.491 755.241 230.184 699.5 185.5H697C696.973 186.548 697.029 187.711 697.16 189C698.09 198.159 702.802 213.701 708.5 240C719.147 247.9 728.795 260.893 747.5 288C751.382 283.939 753.275 281.073 761 266.5H764.5V264C777.899 255.228 780.361 251.729 784.5 246.5C771.319 240.499 763.211 235.576 747 223Z" fill="#A8B877"/>
<path d="M849.286 231L826.5 245.5C832.142 253.001 839.875 257.851 846 264.197C846.869 265.097 847.706 266.027 848.5 267C856.235 277.482 858.757 281.307 863.018 287.768L863.018 287.77L863.5 288.5C867.265 288.031 869.402 287.367 873 285.5C880.347 275.68 884.038 270.43 889.5 261.5C903.615 243.532 910.065 236.437 919.5 228L935.5 193.5V188.167L923 184L922.5 184.293C898.19 198.511 884.358 206.891 859.5 224.5L849.286 231Z" fill="#A9B779"/>
<path d="M764.5 264V266.5L798 310L787 333.5L806 366.5H813L829.5 333.5L816.5 306L841 264.197H846C839.875 257.851 832.142 253.001 826.5 245.5C805.735 244.286 796.328 244.417 784.5 246.5C780.361 251.729 777.899 255.228 764.5 264Z" fill="black"/>
<path d="M747.5 288C728.795 260.893 719.147 247.9 708.5 240C755.869 335.979 781.025 365.897 809.5 404C819.853 389.848 825.145 382.745 844.5 354C858.708 331.986 867.774 316.935 883.856 290.239L884 290C897.821 267.988 905.61 253.775 919.5 228C910.065 236.437 903.615 243.532 889.5 261.5C884.038 270.43 880.347 275.68 873 285.5C869.402 287.367 867.265 288.031 863.5 288.5L863.018 287.77L863.018 287.768C858.757 281.307 856.235 277.482 848.5 267C847.706 266.027 846.869 265.097 846 264.197H841L816.5 306L829.5 333.5L813 366.5H806L787 333.5L798 310L764.5 266.5H761C753.275 281.073 751.382 283.939 747.5 288Z" fill="#74543F"/>
<path d="M809.5 451C788.907 451.002 789.5 481.5 809.5 481.5C829.5 481.5 830.093 450.998 809.5 451Z" fill="black"/>
<path d="M809.5 514C790 514 789 543.5 809.5 543.5C830 543.5 829 514 809.5 514Z" fill="black"/>
<path fill-rule="evenodd" clip-rule="evenodd" d="M809.5 404C781.025 365.897 755.869 335.979 708.5 240C702.802 213.701 698.09 198.159 697.16 189C664.505 205.343 646.88 214.739 617 232L612.5 339C617.994 357.136 621.787 364.676 622 370C622.213 375.324 632.05 393.925 633.5 409.5C638.968 456.502 639.782 474.019 641.5 506.278L642.5 506.5L673 523.5L642.5 537.5V545L770.5 598.5L809.5 561.5L851.5 598.5L979.5 549V544.217L978 543.5V539.5L948 528L979.645 509.5L979.758 508.136C982.722 472.579 984.426 452.14 989.5 402C995.94 376.449 998.918 361.934 1002.5 335.5C1004.88 308.108 1006.57 293.146 1010.5 267.5C1012.09 251.511 1012.77 239.871 1015 232V228C993.595 213.965 980.626 206.257 951.5 193.5L935.5 188.167V193.5L919.5 228C905.61 253.775 897.821 267.988 884 290L883.856 290.239C867.774 316.935 858.708 331.986 844.5 354C825.145 382.745 819.853 389.848 809.5 404ZM809.5 451C788.907 451.002 789.5 481.5 809.5 481.5C829.5 481.5 830.093 450.998 809.5 451ZM809.5 514C790 514 789 543.5 809.5 543.5C830 543.5 829 514 809.5 514Z" fill="black" fill-opacity="0.85"/>
<path d="M612.5 339L617 232C597.128 242.148 586.575 249.37 568.5 264L508 331.5C509.788 343.514 507.597 345.937 502 348C503.551 353.73 504.267 358.577 505 371.5L552.5 373.363L556 373.5L609 348L612.5 339Z" fill="#AEBA78"/>
<path d="M552.5 373.363L505 371.5C505.231 379.613 505.399 384.069 508 387.5C503.212 392.832 500.85 401.248 496.5 414C496.751 432.136 495.982 440.573 494 454.5C496.015 462.888 497.602 466.721 499.5 472L508 464.5L526 463L541 451.5L574.5 449.5C562.356 429.457 554.826 419.284 539.5 404C542.909 391.129 544.329 383.645 552.5 373.363Z" fill="#456746"/>
<path fill-rule="evenodd" clip-rule="evenodd" d="M508 464.5L499.5 472L499.838 473.414C504.402 492.515 507.068 503.669 512 516C511.287 524.713 517.5 539.5 522 561C533.671 571.479 540.716 578.003 547 581.5H626.5C629.3 567.899 630.86 560.276 632 547C635.377 547.046 637.671 546.614 642.5 545V537.5L673 523.5L642.5 506.5L641.5 506.278L635.5 504.944L624 529L600.5 522.5L574.5 533C550.311 524.058 542.8 518.912 531 509L585.5 476L607 482.5L605.278 454.5C595.851 450.687 588.158 449.359 574.5 449.5L541 451.5L526 463L508 464.5ZM566.581 537.543L566.5 537.5L568.5 567.5L592 564.5C583.376 546.567 577.324 543.316 566.581 537.543Z" fill="#2B2D28"/>
<path d="M592 564.5L568.5 567.5L566.5 537.5L566.581 537.543C577.324 543.316 583.376 546.567 592 564.5Z" fill="black"/>
<path d="M633.5 504.5C624 501 617 489.5 607 482.5L585.5 476L531 509C542.8 518.912 550.311 524.058 574.5 533L600.5 522.5L624 529L635.5 504.944L633.5 504.5Z" fill="#456746"/>
<path d="M612.5 339L609 348L556 373.5L552.5 373.363C544.329 383.645 542.909 391.129 539.5 404C554.826 419.284 562.356 429.457 574.5 449.5C588.158 449.359 595.851 450.687 605.278 454.5C607.102 455.238 608.991 456.069 611 457L610.992 456.954C608.682 444.048 607.385 436.798 603 428C595.137 419.603 590.597 413.073 582 394H588L603 428L633.5 409.5C632.05 393.925 622.213 375.324 622 370C621.787 364.676 617.994 357.136 612.5 339Z" fill="#7A3A2E"/>
<path d="M588 394H582C590.597 413.073 595.137 419.603 603 428L588 394Z" fill="black"/>
<path d="M1040 542.5C1038.12 541.492 1036.62 541.347 1032.5 542.5C1026.61 551.836 1021.7 556.602 1013.23 564.834L1012.55 565.5C1023.4 568.551 1029.47 570.038 1040 568C1042.18 558.678 1043.37 553.44 1040 542.5Z" fill="black"/>
<path d="M1019.5 232H1015C1012.77 239.871 1012.09 251.511 1010.5 267.5C1006.57 293.146 1004.88 308.108 1002.5 335.5C1026.41 355.743 1040.88 364.901 1069.5 375.5L1072 372H1114.5C1115.54 370.911 1116.1 370.793 1118 348L1114.5 344C1113.16 334.268 1114.9 326.376 1112 324.5C1091.56 303.111 1080.25 290.806 1062 265C1051.12 255.761 1042.91 251.103 1019.5 232Z" fill="#AFBE7B"/>
<path d="M1009.5 456C1010.35 454.653 1011.23 454.326 1014 454.5C1023.65 453.677 1031.76 453.036 1039 452.528C1047.75 427.097 1054.06 413.879 1081 402L1072 381L1069.5 375.5C1040.88 364.901 1026.41 355.743 1002.5 335.5C998.918 361.934 995.94 376.449 989.5 402C1003.37 413.626 1007.41 413.235 1016.5 421L1027.5 393.5C1030.1 393.846 1031.12 394.732 1032.5 397C1023.87 408.85 1019.71 417.474 1012.55 433.5C1010.53 440.994 1009.68 447.322 1009.5 456Z" fill="#7A3A2E"/>
<path d="M1032.5 397C1031.12 394.732 1030.1 393.846 1027.5 393.5L1016.5 421C1014.85 425.745 1013.55 429.767 1012.55 433.5C1019.71 417.474 1023.87 408.85 1032.5 397Z" fill="black"/>
<path d="M1114.5 379C1112.73 375.901 1112.81 374.389 1114.5 372H1072L1069.5 375.5L1072 381L1081 402C1054.06 413.879 1047.75 427.097 1039 452.528C1056.7 451.285 1069.15 450.842 1086 450.5C1095.07 460.082 1102.54 462.814 1116.5 467C1120.33 452.733 1124.15 442.314 1136 416.5C1129.9 403.87 1125.6 396.004 1114.5 379Z" fill="#456746"/>
<path fill-rule="evenodd" clip-rule="evenodd" d="M1091 557C1094.08 551.683 1099.11 536.468 1116.5 467C1102.54 462.814 1095.07 460.082 1086 450.5C1069.15 450.842 1056.7 451.285 1039 452.528C1031.76 453.036 1023.65 453.677 1014 454.5L1012.5 481C1014.8 478.291 1020.75 477.319 1039 476.5C1043.86 481.488 1048.67 485.814 1078.5 509C1078.81 511.585 1075.24 514.668 1032.5 536C1022.45 529.679 1017.31 525.317 1009.5 515.5C996.836 524.384 994.127 525.736 989.5 528C987.287 520.877 985.325 516.712 980.5 509L979.645 509.5L948 528L978 539.5V543.5L979.5 544.217L989.5 549L991 582H1067.5C1078.13 574.569 1082.83 570.582 1091 563.5V557ZM1032.5 542.5C1036.62 541.347 1038.12 541.492 1040 542.5C1043.37 553.44 1042.18 558.678 1040 568C1029.47 570.038 1023.4 568.551 1012.55 565.5L1013.23 564.834C1021.7 556.602 1026.61 551.836 1032.5 542.5Z" fill="#343F31"/>
<path d="M1012.5 481C996.707 492.727 997.211 497.421 980.5 509C985.325 516.712 987.287 520.877 989.5 528C994.127 525.736 996.836 524.384 1009.5 515.5C1017.31 525.317 1022.45 529.679 1032.5 536C1075.24 514.668 1078.81 511.585 1078.5 509C1048.67 485.814 1043.86 481.488 1039 476.5C1020.75 477.319 1014.8 478.291 1012.5 481Z" fill="#456746"/>
<path d="M996 614H981.314C981.312 625.54 981.049 636.552 980.442 647.5L989.5 683L985.5 711.5L1009.5 730L1058.5 724.5L1091 704.5L1095.5 680.5C1083.87 677.047 1079.04 676.018 1073 675.5C1072.86 682.917 1073.08 687.567 1076 700C1074.85 698.814 1073.61 698.151 1064 697C1061.47 700.248 1060.34 702.574 1058.5 707C1056.61 704.657 1055.74 702.571 1055 696C1047.77 691.499 1043.61 689.959 1036 689C1032.61 697.247 1031.55 702.406 1029.5 711.5L1023.5 709.5C1023.5 691 1013.42 690.107 1002.5 707L1009.5 683L1002.5 679L1005 633.5L989.5 630.5L996 614Z" fill="#2D2727"/>
<path d="M1121.5 680.5H1111.5L1114.5 700C1118.4 691.521 1119.73 687.401 1121.5 680.5Z" fill="#59965C"/>
<path d="M1091.2 731.5C1091.46 728.703 1090.69 726.821 1088 723C1082.9 728.438 1081.24 729.442 1079 730C1078.69 736.88 1079.24 739.462 1080.83 743C1084.48 739.163 1087.87 735.504 1091.2 731.5Z" fill="#59965C"/>
<path d="M770.5 598.5L642.5 545V643C649.965 670.276 653.44 686.405 656 719.5H679H745.779L749.5 696L808 654C813.185 654.024 820.511 654.022 840 654L884.5 695L883.5 717.5H900H963.5H971.741C976.539 691.819 979.205 669.792 980.442 647.5C981.049 636.552 981.312 625.54 981.314 614C981.317 594.57 980.58 573.642 979.5 549L851.5 598.5L809.5 561.5L770.5 598.5Z" fill="black"/>
<path d="M1104 661.5C1101.79 667.756 1099.65 672.214 1095.5 680.5L1091 704.5L1058.5 724.5L1009.5 730L985.5 711.5L989.5 683L980.442 647.5C979.205 669.792 976.539 691.819 971.741 717.5H963.5C968.235 733.205 973.372 749.358 991 756.5L1069 755.5C1073.32 750.812 1077.21 746.818 1080.83 743C1079.24 739.462 1078.69 736.88 1079 730C1081.24 729.442 1082.9 728.438 1088 723C1090.69 726.821 1091.46 728.703 1091.2 731.5C1097.72 723.647 1104.01 714.465 1111.5 700H1114.5L1111.5 680.5H1121.5L1121.54 680.401C1125.48 669.3 1127.71 663.041 1130 647.5C1125.73 649.357 1121.96 653.201 1114.5 661.5H1104Z" fill="#343F31"/>
<path d="M679 719.5V724.5L652 741.5L624 756H740L745.779 719.5H679Z" fill="#456746"/>
<path d="M900 723.5L867 741.5L844.5 755.5H896.5H963.5V717.5H900V723.5Z" fill="#456746"/>
<path d="M901 59L866.5 54.5C866.5 54.5 864.5 46.5 863 38C861.5 29.5 862 14 859 8.5C856 3.00001 850.5 1 850.5 1H810.5L805 16H784L778.5 1H725C720.284 2.35689 718.887 5.04558 716.5 10C713.666 27.526 711.878 36.5713 708 50.5H678C675.506 31.5246 671.689 20.6969 663.5 1H652.5L639 15H592L579.5 1H569.5C565.354 16.1425 563.06 23.6321 559 36.5C554.007 51.9639 554.923 60.5925 555 76M901 59C909.627 64.0666 913.972 66.9885 920 72.5C917.663 80.0155 916.571 84.1767 914 91.5C921.947 97.3107 925.657 100.373 931 105.5L921.5 116C934.045 125.847 938.579 129.918 945.5 136.5C941.002 146.109 937.524 150.666 931 158.5C943.169 164.862 948.585 168.126 956 173.5C952.282 181.972 951.565 186.261 951.5 193.5M901 59C909.549 114.889 914.336 147.279 923 184M951.5 193.5L935.5 188.167M951.5 193.5C980.626 206.257 993.595 213.965 1015 228V232M923 184C922.833 184.098 922.666 184.195 922.5 184.293M923 184L935.5 188.167M923 184L922.5 184.293M578.5 19.5C571.416 36.4866 569.303 45.8969 568.5 62.5C573.311 64.7714 575.414 64.6314 578.5 62.5C587.223 52.916 588.243 51.7167 592 47.5C589.905 44.6504 589.494 40.2959 588.5 33.5M578.5 19.5C582.405 24.9673 584.595 28.0326 588.5 33.5M578.5 19.5L588.5 33.5M555 76H571M555 76V85H559M571 76C578.075 73.5803 580.665 71.0133 582 63.5C586.288 67.8479 588.24 71.0111 590.013 76M571 76C573.432 78.8174 573.833 80.6923 591 79C590.668 77.9235 590.344 76.93 590.013 76M590.013 76H627.839M648 76C641.047 72.2478 639.227 69.4574 639 63.5C633.696 67.767 631.096 70.4161 627.839 76M648 76H674.5C676.231 79.5268 680.14 80.1309 691.5 79M648 76C646.958 78.27 643.732 78.9347 626.5 77.5L627.839 76M691.5 79L705.5 58.5L714.5 79M691.5 79C693.912 81.2325 699.809 80.9409 714.5 79M714.5 79L729.5 63.5L738.5 79M714.5 79C719.744 82.1851 727.642 80.1441 738.5 79M738.5 79L745 70.5L752.5 79M738.5 79C738.935 80.3316 740.967 80.6042 752.5 79M752.5 79L760 65.5L768 79M752.5 79C756.065 80.3887 760.161 79.9964 768 79M768 79V86.5L756 85H559.156M559 85C559.054 84.9842 559.106 84.9843 559.156 85M559 85H559.156M696 139.5H568.5C565.057 135.274 562.971 133.432 559 131C559.907 104.84 560.874 85.545 559.156 85M696 139.5L716.5 180.5M696 139.5H796.5C820.491 155.121 831.004 161.528 833.5 160C841.128 160.531 845.208 160.544 852.5 160L856.5 158C867.587 146.4 871.502 141.566 877 134L873 153C872.319 153.531 871.653 154.059 871 154.585M716.5 180.5C721.818 183.948 727.202 185.418 734.5 186.5C731 197.5 750.527 225.509 747 223M716.5 180.5C709.154 182.194 705.547 183.378 699.5 185.5M747 223C743.473 220.491 755.241 230.184 699.5 185.5M747 223C763.211 235.576 771.319 240.499 784.5 246.5M699.5 185.5H697C696.973 186.548 697.029 187.711 697.16 189M784.5 246.5C780.361 251.729 777.899 255.228 764.5 264V266.5M784.5 246.5C796.328 244.417 805.735 244.286 826.5 245.5M849.286 231C843.516 219.414 840.689 208.875 836.5 191.5C849.945 174.886 857.772 165.231 871 154.585M849.286 231L826.5 245.5M849.286 231L859.5 224.5M871 154.585L859.5 224.5M859.5 224.5L826.5 245.5M859.5 224.5C884.358 206.891 898.19 198.511 922.5 184.293M826.5 245.5C832.142 253.001 839.875 257.851 846 264.197M708.5 240C719.147 247.9 728.795 260.893 747.5 288C751.382 283.939 753.275 281.073 761 266.5H764.5M708.5 240C755.869 335.979 781.025 365.897 809.5 404M708.5 240C702.802 213.701 698.09 198.159 697.16 189M764.5 266.5L798 310L787 333.5L806 366.5H813L829.5 333.5L816.5 306L841 264.197H846M809.5 404C819.853 389.848 825.145 382.745 844.5 354C858.708 331.986 867.774 316.935 883.856 290.239M809.5 404V435.5M935.5 188.167V193.5L919.5 228M919.5 228C910.066 236.437 903.615 243.532 889.5 261.5C884.038 270.43 880.347 275.68 873 285.5C869.402 287.367 867.265 288.031 863.5 288.5M919.5 228C905.61 253.775 897.821 267.988 884 290M863.5 288.5L863.018 287.77M863.5 288.5C863.337 288.253 863.176 288.009 863.018 287.77M884 290L883.856 290.239M884 290C883.952 290.08 883.904 290.159 883.856 290.239M846 264.197C846.869 265.097 847.706 266.028 848.5 267C856.235 277.482 858.757 281.307 863.018 287.768L863.018 287.77M697.16 189C664.505 205.343 646.88 214.739 617 232M617 232L612.5 339M617 232C597.128 242.148 586.575 249.37 568.5 264L508 331.5C509.788 343.515 507.597 345.937 502 348C503.551 353.73 504.267 358.577 505 371.5M612.5 339L609 348L556 373.5L552.5 373.363M612.5 339C617.994 357.136 621.787 364.676 622 370C622.213 375.324 632.05 393.925 633.5 409.5M505 371.5L552.5 373.363M505 371.5C505.231 379.613 505.399 384.069 508 387.5C503.212 392.832 500.85 401.248 496.5 414C496.751 432.136 495.982 440.573 494 454.5C496.015 462.888 497.602 466.721 499.5 472M552.5 373.363C544.329 383.645 542.909 391.129 539.5 404C554.826 419.284 562.356 429.457 574.5 449.5M574.5 449.5L541 451.5L526 463L508 464.5L499.5 472M574.5 449.5C588.158 449.359 595.851 450.687 605.278 454.5M633.5 409.5L603 428M633.5 409.5C638.968 456.502 639.782 474.019 641.5 506.278M603 428L588 394H582C590.597 413.073 595.137 419.603 603 428ZM603 428C607.385 436.798 608.682 444.048 610.992 456.954M611 457C608.991 456.069 607.102 455.238 605.278 454.5M611 457L610.992 456.954M611 457C610.997 456.985 610.995 456.97 610.992 456.954M499.5 472L499.838 473.414M499.5 472C499.614 472.476 499.726 472.947 499.838 473.414M605.278 454.5L607 482.5M607 482.5C617 489.5 624 501 633.5 504.5L635.5 504.944M607 482.5L585.5 476L531 509C542.8 518.912 550.311 524.058 574.5 533L600.5 522.5L624 529L635.5 504.944M642.5 545V537.5L673 523.5L642.5 506.5L641.5 506.278M642.5 545C637.671 546.614 635.377 547.046 632 547C630.86 560.276 629.3 567.899 626.5 581.5H547C540.716 578.003 533.671 571.479 522 561C517.5 539.5 511.287 524.713 512 516C507.068 503.669 504.402 492.515 499.838 473.414M642.5 545L770.5 598.5L809.5 561.5M642.5 545V643C649.965 670.276 653.44 686.405 656 719.5H679M635.5 504.944L641.5 506.278M566.5 537.5L568.5 567.5L592 564.5C583.376 546.567 577.324 543.316 566.581 537.543M566.5 537.5L566.581 537.543M566.5 537.5C566.527 537.514 566.554 537.529 566.581 537.543M1015 232H1019.5C1042.91 251.103 1051.12 255.761 1062 265C1080.25 290.806 1091.56 303.111 1112 324.5C1114.9 326.376 1113.16 334.268 1114.5 344L1118 348C1116.1 370.793 1115.54 370.911 1114.5 372M1015 232C1012.77 239.871 1012.09 251.511 1010.5 267.5C1006.57 293.146 1004.88 308.108 1002.5 335.5M1114.5 372C1112.81 374.389 1112.73 375.901 1114.5 379C1125.6 396.004 1129.9 403.87 1136 416.5C1124.15 442.314 1120.33 452.733 1116.5 467M1114.5 372H1072L1069.5 375.5M1116.5 467C1099.11 536.468 1094.08 551.683 1091 557V563.5C1082.83 570.582 1078.13 574.569 1067.5 582H991L989.5 549L979.5 544.217M1116.5 467C1102.54 462.814 1095.07 460.082 1086 450.5C1069.15 450.842 1056.7 451.285 1039 452.528M980.5 509C997.211 497.421 996.707 492.727 1012.5 481M980.5 509C985.325 516.712 987.287 520.877 989.5 528C994.127 525.736 996.836 524.384 1009.5 515.5C1017.31 525.317 1022.45 529.679 1032.5 536C1075.24 514.668 1078.81 511.585 1078.5 509C1048.67 485.814 1043.86 481.488 1039 476.5C1020.75 477.319 1014.8 478.291 1012.5 481M980.5 509L979.645 509.5M1012.5 481L1014 454.5M1014 454.5C1011.23 454.326 1010.35 454.653 1009.5 456C1009.68 447.322 1010.53 440.994 1012.55 433.5M1014 454.5C1023.65 453.677 1031.76 453.036 1039 452.528M1016.5 421C1007.41 413.235 1003.37 413.626 989.5 402M1016.5 421C1014.85 425.745 1013.55 429.767 1012.55 433.5M1016.5 421L1027.5 393.5C1030.1 393.846 1031.12 394.732 1032.5 397C1023.87 408.851 1019.71 417.474 1012.55 433.5M989.5 402C995.94 376.449 998.918 361.934 1002.5 335.5M989.5 402C984.426 452.14 982.722 472.579 979.758 508.136M1002.5 335.5C1026.41 355.743 1040.88 364.901 1069.5 375.5M1069.5 375.5L1072 381L1081 402C1054.06 413.879 1047.75 427.097 1039 452.528M1012.55 565.5C1023.4 568.551 1029.47 570.038 1040 568C1042.18 558.678 1043.37 553.441 1040 542.5C1038.12 541.492 1036.62 541.347 1032.5 542.5C1026.61 551.836 1021.7 556.602 1013.23 564.834M1012.55 565.5L1013.23 564.834M1012.55 565.5C1012.78 565.275 1013.01 565.053 1013.23 564.834M809.5 561.5L851.5 598.5L979.5 549M809.5 561.5V551.5M979.5 549V544.217M979.5 549C980.58 573.642 981.317 594.57 981.314 614M979.5 544.217L978 543.5V539.5L948 528L979.645 509.5M979.645 509.5L979.758 508.136M979.645 509.5C979.683 509.043 979.721 508.588 979.758 508.136M679 719.5V724.5L652 741.5L624 756H740L745.779 719.5M679 719.5H745.779M963.5 724.5V717.5M981.314 614H996L989.5 630.5L1005 633.5L1002.5 679L1009.5 683L1002.5 707C1013.42 690.106 1023.5 691 1023.5 709.5L1029.5 711.5C1031.55 702.406 1032.61 697.247 1036 689C1043.61 689.959 1047.77 691.499 1055 696C1055.74 702.571 1056.61 704.657 1058.5 707C1060.34 702.574 1061.47 700.248 1064 697C1073.61 698.151 1074.85 698.814 1076 700C1073.08 687.567 1072.86 682.917 1073 675.5C1079.04 676.018 1083.87 677.047 1095.5 680.5M981.314 614C981.312 625.54 981.049 636.552 980.442 647.5M1095.5 680.5C1099.65 672.214 1101.79 667.756 1104 661.5H1114.5C1121.96 653.201 1125.73 649.357 1130 647.5C1127.71 663.041 1125.48 669.3 1121.54 680.401M1095.5 680.5L1091 704.5L1058.5 724.5L1009.5 730L985.5 711.5L989.5 683L980.442 647.5M1121.5 680.5H1111.5L1114.5 700M1121.5 680.5C1119.73 687.402 1118.4 691.521 1114.5 700M1121.5 680.5L1121.54 680.401M1121.5 680.5C1121.51 680.467 1121.52 680.434 1121.54 680.401M1114.5 700H1111.5C1104.01 714.465 1097.72 723.647 1091.2 731.5M1091.2 731.5C1091.46 728.703 1090.69 726.821 1088 723C1082.9 728.438 1081.24 729.442 1079 730C1078.69 736.88 1079.24 739.462 1080.83 743M1091.2 731.5C1087.87 735.504 1084.48 739.163 1080.83 743M1080.83 743C1077.21 746.818 1073.32 750.812 1069 755.5L991 756.5C973.372 749.358 968.235 733.205 963.5 717.5M963.5 717.5V755.5H896.5H844.5L867 741.5L900 723.5V717.5M963.5 717.5H971.741C976.539 691.819 979.205 669.792 980.442 647.5M963.5 717.5H900M745.779 719.5L749.5 696L808 654C813.185 654.024 820.511 654.022 840 654L884.5 695L883.5 717.5H900M658 22.5C665.084 39.4866 667.197 48.8969 668 65.5C663.189 67.7714 661.086 67.6315 658 65.5C649.277 55.916 648.257 54.7167 644.5 50.5C646.595 47.6504 647.006 43.2959 648 36.5L658 22.5ZM809.5 451C788.907 451.002 789.5 481.5 809.5 481.5C829.5 481.5 830.093 450.998 809.5 451ZM809.5 514C790 514 789 543.5 809.5 543.5C830 543.5 829 514 809.5 514ZM734 8.99999C728.5 9.49999 726.5 34.5 734 34.5C741.714 35.1965 759.198 34.6198 766 34C772.802 33.3802 773.867 9.50775 766 8.5C758.133 7.49225 739.5 8.49999 734 8.99999ZM746.5 11C741.357 20.5605 746.5 31 746.5 31C746.5 31 750.824 22.5526 746.5 11ZM818.5 8.99999C813 9.49999 811 34.5 818.5 34.5C826.214 35.1965 841.698 35.1198 848.5 34.5C855.302 33.8802 856.367 10.0077 848.5 8.99999C840.633 7.99224 824 8.49999 818.5 8.99999ZM829 11C823.857 20.5605 829 31 829 31C829 31 833.324 22.5526 829 11Z" stroke="black"/>
<path d="M158.945 772.5C158.256 776.493 157.489 780.701 156.64 785.15C143.425 799.63 134.186 812.535 121.784 830.078C285.216 798.244 332.614 764.425 369.121 686.717C344.217 695.01 333.497 698.349 318.441 702.661C284.124 765.541 192.692 732.057 205.664 671.021C206.774 669.02 207.557 667.446 208.1 666.143C206.612 662.431 205.274 658.985 204.061 655.728C198.504 640.807 195.564 629.841 192.773 615.37C192.262 612.717 191.755 609.945 191.239 607.01C129.835 524.514 231.549 488.146 262.588 510.975L316.72 500.665C275.363 474.742 251.06 461.376 183.544 462.926C106.399 484.011 64.1605 497.668 13.0478 522.843C49.3501 537.36 59.2223 538.794 90.4766 551.345C128.684 593.652 132.457 603.956 142.504 624.863L142.605 626.738L144.01 652.615C145.629 659.558 148.13 665.212 152.603 672.924C154.389 676.003 156.49 679.409 158.974 683.357C164.57 709.715 166.754 727.251 158.945 772.5Z" fill="black"/>
<path d="M108.056 849.41C256.531 819.786 339.613 800.749 382.625 676.504L369.121 686.717C332.614 764.425 285.216 798.244 121.784 830.078C117.648 835.929 113.16 842.296 108.056 849.41Z" fill="#E6EAEB"/>
<path d="M153.878 780.643C125.074 812.3 118.855 825.677 108.056 849.41C113.16 842.296 117.648 835.929 121.784 830.078C134.186 812.535 143.425 799.63 156.64 785.15C157.489 780.701 158.256 776.493 158.945 772.5C156.313 775.412 155.28 777.219 153.878 780.643Z" fill="#544E2E"/>
<path d="M369.121 686.717L382.625 676.504C377.224 676.526 373.425 676.98 366.15 678.075C348.362 686.526 337.067 690.614 317.541 697.682L316.415 698.09L318.441 702.661C333.497 698.349 344.217 695.01 369.121 686.717Z" fill="#544E2E"/>
<path d="M318.441 702.661L316.415 698.09C284.27 756.926 207.731 734.466 210.989 670.857L208.746 655.182C208.908 660.256 210.054 661.455 208.1 666.143C207.557 667.446 206.774 669.02 205.664 671.021C192.692 732.057 284.124 765.541 318.441 702.661Z" fill="#544E2E"/>
<path fill-rule="evenodd" clip-rule="evenodd" d="M316.72 500.665L330.106 495.95C325.04 492.673 320.427 489.525 316.024 486.521C287.337 466.948 267.574 453.464 189.542 449.95C132.966 460.872 95.788 471.061 -2.13563 512.772C-4.41234 516.977 -1.7499 519.207 13.0478 522.843C64.1605 497.668 106.399 484.011 183.544 462.926C251.06 461.376 275.363 474.742 316.72 500.665Z" fill="#E6EAEB"/>
<path d="M262.588 510.975C231.549 488.146 129.835 524.514 191.239 607.01C191.755 609.945 192.262 612.717 192.773 615.37L198.671 614.081L196.873 603.558C138.974 556.501 211.385 483.065 263.551 516.972C310.926 507.742 325.104 503.129 330.106 495.95L316.72 500.665L262.588 510.975Z" fill="#544E2E"/>
<path d="M152.603 672.924C148.13 665.212 145.629 659.558 144.01 652.615L142.605 626.738C130.94 631.753 124.644 633.512 114.088 634.139C108.797 658.516 114.102 668.279 128.996 683.128L152.603 672.924Z" fill="#DBBF9F"/>
<path d="M198.671 614.081L192.773 615.37C195.564 629.841 198.504 640.807 204.061 655.728L208.746 655.182L413.5 590.934L426.459 582.993C428.904 571.807 427.897 561.335 419.028 551.896L401.535 553.703L198.671 614.081Z" fill="#DBBF9F"/>
<path d="M419.028 551.896C427.897 561.335 428.904 571.807 426.459 582.993L428.53 586.373C441.832 582.495 448.781 580.92 460.644 578.706C460.506 576.409 461.71 575.781 466.606 573.89C466.42 573.481 466.237 573.076 466.057 572.677C460.493 560.321 457.653 552.705 454.447 539.879C454.31 539.327 454.171 538.767 454.032 538.196C440.674 543.04 433.581 545.135 422.154 546.88C418.406 547.607 417.441 548.568 419.028 551.896Z" fill="#1C120D"/>
<path d="M506.567 524.015C512.263 525.525 515.559 526.64 530.953 553.059C541.299 550.107 552.181 547.049 563.667 543.842C547.615 517.817 543.042 513.438 538.626 514.257L506.567 524.015Z" fill="#4F3128"/>
<path d="M538.626 514.257C543.042 513.438 547.615 517.817 563.667 543.842C575.967 540.408 581.047 539.066 594.818 535.235C580.689 507.753 577.451 504.255 571.884 504.133L538.626 514.257Z" fill="#160903"/>
<path d="M571.884 504.133C577.451 504.255 580.689 507.753 594.818 535.235C597.005 534.626 607.124 531.748 609.351 531.128C616.153 522.577 615.05 515.113 601.113 495.237L571.884 504.133Z" fill="#75594D"/>
<path d="M639.127 522.807C645.232 511.113 644.694 503.506 630.343 486.34L601.113 495.237C615.05 515.113 616.153 522.577 609.351 531.128C618.901 528.468 628.817 525.701 639.127 522.807Z" fill="#140900"/>
<path d="M475.215 533.557C481.266 535.403 485.329 538.456 498.736 562.456C508.891 559.412 519.6 556.299 530.953 553.059C515.559 526.64 512.263 525.525 506.567 524.015L475.215 533.557Z" fill="#170A04"/>
<path d="M454.447 539.879C457.653 552.705 460.493 560.321 466.057 572.677C476.321 569.302 487.169 565.923 498.736 562.456C485.329 538.456 481.266 535.403 475.215 533.557L454.447 539.879Z" fill="#75594D"/>
<path d="M630.343 486.34C644.694 503.506 645.232 511.113 639.127 522.807C647.324 518.642 652.317 518.062 658.628 523.644C667.628 524.581 671.694 523.288 676.584 516.903C685.394 517.792 686.808 514.17 690.106 508.617C688.703 489.786 685.265 482.052 677.842 469.632C675.284 463.898 671.756 464.332 662.994 469.431C656.217 469.242 652.501 469.577 646.964 476.155C643.237 483.593 639.788 486.029 630.343 486.34Z" fill="#BCB3AA"/>
<path d="M108.056 849.41C256.531 819.786 339.613 800.749 382.625 676.504M108.056 849.41C118.855 825.677 125.074 812.3 153.878 780.643C155.28 777.219 156.313 775.412 158.945 772.5M108.056 849.41C113.16 842.296 117.648 835.929 121.784 830.078M382.625 676.504L369.121 686.717M382.625 676.504C377.224 676.526 373.425 676.98 366.15 678.075C348.362 686.526 337.067 690.614 317.541 697.682M158.945 772.5C158.256 776.493 157.489 780.701 156.64 785.15C143.425 799.63 134.186 812.535 121.784 830.078M158.945 772.5C166.754 727.251 164.57 709.715 158.974 683.357C156.49 679.409 154.389 676.003 152.603 672.924M152.603 672.924C148.13 665.212 145.629 659.558 144.01 652.615L142.605 626.738M152.603 672.924L128.996 683.128C114.102 668.279 108.797 658.516 114.088 634.139C124.644 633.512 130.94 631.753 142.605 626.738M142.605 626.738L142.504 624.863C132.457 603.956 128.684 593.652 90.4766 551.345C59.2223 538.794 49.3501 537.36 13.0478 522.843M121.784 830.078C285.216 798.244 332.614 764.425 369.121 686.717M369.121 686.717C344.217 695.01 333.497 698.349 318.441 702.661M316.415 698.09L318.441 702.661M316.415 698.09C284.27 756.926 207.731 734.466 210.989 670.857L208.746 655.182M316.415 698.09L317.541 697.682M316.415 698.09C316.793 697.953 317.169 697.817 317.541 697.682M318.441 702.661C284.124 765.541 192.692 732.057 205.664 671.021C206.774 669.02 207.557 667.446 208.1 666.143M208.746 655.182C208.908 660.256 210.054 661.455 208.1 666.143M208.746 655.182L204.061 655.728M208.746 655.182L413.5 590.934L426.459 582.993M208.1 666.143C206.612 662.431 205.274 658.985 204.061 655.728M330.106 495.95C325.104 503.129 310.926 507.742 263.551 516.972C211.385 483.065 138.974 556.501 196.873 603.558L198.671 614.081M330.106 495.95L316.72 500.665M330.106 495.95C325.04 492.673 320.427 489.525 316.024 486.521C287.337 466.948 267.574 453.464 189.542 449.95C132.966 460.872 95.788 471.061 -2.13563 512.772C-4.41234 516.977 -1.7499 519.207 13.0478 522.843M316.72 500.665L262.588 510.975C231.549 488.146 129.835 524.514 191.239 607.01C191.755 609.945 192.262 612.717 192.773 615.37M316.72 500.665C275.363 474.742 251.06 461.376 183.544 462.926C106.399 484.011 64.1605 497.668 13.0478 522.843M198.671 614.081L192.773 615.37M198.671 614.081L401.535 553.703L419.028 551.896M192.773 615.37C195.564 629.841 198.504 640.807 204.061 655.728M426.459 582.993C428.904 571.807 427.897 561.335 419.028 551.896M426.459 582.993L428.53 586.373C441.832 582.495 448.781 580.92 460.644 578.706C460.506 576.409 461.71 575.781 466.606 573.89C466.42 573.481 466.237 573.076 466.057 572.677M419.028 551.896C417.441 548.568 418.406 547.607 422.154 546.88C433.581 545.135 440.674 543.04 454.032 538.196C454.171 538.767 454.31 539.327 454.447 539.879M454.447 539.879C457.653 552.705 460.493 560.321 466.057 572.677M454.447 539.879L475.215 533.557M630.343 486.34C644.694 503.506 645.232 511.113 639.127 522.807M630.343 486.34L601.113 495.237M630.343 486.34C639.788 486.029 643.237 483.593 646.964 476.155C652.501 469.577 656.217 469.242 662.994 469.431C671.756 464.332 675.284 463.898 677.842 469.632C685.265 482.052 688.703 489.786 690.106 508.617C686.808 514.17 685.394 517.792 676.584 516.903C671.694 523.288 667.628 524.581 658.628 523.644C652.317 518.062 647.324 518.642 639.127 522.807M639.127 522.807C628.817 525.701 618.901 528.468 609.351 531.128M466.057 572.677C476.321 569.302 487.169 565.923 498.736 562.456M475.215 533.557C481.266 535.403 485.329 538.456 498.736 562.456M475.215 533.557L506.567 524.015M498.736 562.456C508.891 559.412 519.6 556.299 530.953 553.059M506.567 524.015C512.263 525.525 515.559 526.64 530.953 553.059M506.567 524.015L538.626 514.256M530.953 553.059C541.299 550.107 552.181 547.049 563.667 543.842M538.626 514.256C543.042 513.438 547.615 517.817 563.667 543.842M538.626 514.256L571.884 504.133M563.667 543.842C575.967 540.408 581.047 539.066 594.818 535.235M571.884 504.133C577.451 504.255 580.689 507.753 594.818 535.235M571.884 504.133L601.113 495.237M594.818 535.235C597.005 534.626 607.124 531.748 609.351 531.128M601.113 495.237C615.05 515.113 616.153 522.577 609.351 531.128" stroke="black" stroke-width="0.660797"/>
</svg>
