<svg width="833" height="869" viewBox="0 0 833 869" fill="none" xmlns="http://www.w3.org/2000/svg">
<path fill-rule="evenodd" clip-rule="evenodd" d="M264.045 725.563C57.4834 457.022 279.477 -222.086 619.34 194.849C638.465 226.573 651.404 261.275 659.014 297.5C655.993 321.335 631.234 343.46 601.373 370.142C529.13 434.696 427.03 525.928 530.686 732.606C572.686 826 347.838 834.498 264.045 725.563Z" fill="#2E6D76"/>
<g filter="url(#filter0_d_214_176)">
<path d="M365.348 301.027C329.277 295.65 316.882 288.509 302.114 271.91C300.39 263.185 300.477 256.707 303.16 251.283C303.853 249.882 304.719 248.551 305.773 247.269C309.644 242.56 316.039 238.522 325.631 234.135C329.557 232.753 333.383 231.465 337.128 230.269C338.18 229.934 339.225 229.605 340.264 229.284C357.248 224.032 372.654 220.699 388.342 219.073C389.212 218.982 390.083 218.898 390.955 218.818C401.564 217.848 412.348 217.651 423.879 218.16C436.352 218.711 449.698 220.09 464.641 222.215C471.273 223.158 478.22 224.248 485.545 225.478C490.603 226.783 495.296 228.052 499.655 229.301C523.226 236.056 536.995 242.226 545.643 250.288C547.376 251.903 548.903 253.595 550.263 255.382C552.935 258.896 554.958 262.78 556.617 267.187C539.529 293.87 510.846 302.96 416.04 305.749C411.752 317.293 409.35 318.279 405.065 305.749H396.704L376.845 302.601C373.71 321.489 367.724 314.845 365.348 301.027Z" fill="#6DB754"/>
<path d="M305.773 247.269C309.644 242.56 316.039 238.522 325.631 234.135C329.557 232.753 333.383 231.465 337.128 230.269M305.773 247.269L339.741 260.891L303.16 251.283M305.773 247.269C304.719 248.551 303.853 249.882 303.16 251.283M303.16 251.283C300.477 256.707 300.39 263.185 302.114 271.91C316.882 288.509 329.277 295.65 365.348 301.027C367.724 314.845 373.71 321.489 376.845 302.601L396.704 305.749H405.065C409.35 318.279 411.752 317.293 416.04 305.749C510.846 302.96 539.529 293.87 556.617 267.187C554.957 262.78 552.935 258.896 550.263 255.382M337.128 230.269L389.388 261.678L340.264 229.284M337.128 230.269C338.18 229.934 339.225 229.605 340.264 229.284M340.264 229.284C357.248 224.032 372.654 220.699 388.342 219.073M388.342 219.073L396.181 249.086L390.955 218.818M388.342 219.073C389.212 218.982 390.083 218.898 390.955 218.818M390.955 218.818C401.564 217.848 412.348 217.651 423.879 218.16M423.879 218.16L424.401 249.086M423.879 218.16C436.352 218.711 449.698 220.09 464.641 222.215M464.641 222.215C471.273 223.158 478.22 224.248 485.545 225.478C490.603 226.783 495.296 228.052 499.655 229.301M464.641 222.215L454.712 242.791M499.655 229.301L477.183 253.021M499.655 229.301C523.226 236.056 536.995 242.226 545.643 250.288M545.643 250.288C528.704 254.736 519.207 257.23 502.268 261.678C521.011 259.22 531.519 257.841 550.263 255.382M545.643 250.288C547.376 251.903 548.903 253.595 550.263 255.382" stroke="black"/>
<path d="M365.236 301.308C318.713 292.459 304.936 282.867 294.686 260.384C295.179 290.78 299.468 299.17 310.886 306.029C348.551 332.177 381.052 330.128 435.263 332C478.503 329.821 502.52 327.68 540.827 305.242C557.012 294.419 558.173 289.137 560.686 255.663C551.534 292.334 517.485 302.471 416.45 306.029C411.832 317.471 409.301 318.162 404.953 306.029C393.141 305.173 386.184 304.819 377.255 302.882C372.401 319.33 369.77 317.634 365.236 301.308Z" fill="#145A1A" stroke="black"/>
<path d="M295.73 261.967L301.485 271.411C299.986 262.566 300.704 255.353 304.098 249.3C309.105 240.369 319.938 233.964 338.066 228.569C351.152 224.675 368.039 221.308 389.28 217.897C401.992 217.494 413.815 217.325 424.817 217.421C439.678 217.55 453.038 218.161 465.056 219.33C477.832 220.573 489.091 222.447 499.025 225.041C521.041 230.79 536.548 240.081 547.626 253.899C550.75 257.796 553.521 262.052 555.988 266.69C558.201 263.188 559.164 260.837 560.168 255.672C552.095 238.403 545.835 231.246 531.426 223.406C530.381 239.145 517.753 232.347 520.974 217.897C500.254 209.283 487.868 206.354 465.056 202.944C463.347 222.038 451.584 219.908 453.037 201.37C422.949 198.399 405.421 197.682 374.642 202.398C371.622 216.809 369.38 218.012 364.19 205.305C308.311 217.349 299.414 231.863 295.73 261.967Z" fill="#145A1A"/>
<path d="M389.28 217.897C368.039 221.308 351.152 224.675 338.066 228.569M389.28 217.897V206.333M389.28 217.897C401.992 217.494 413.815 217.325 424.817 217.421M303.575 241.506L304.098 249.3M304.098 249.3C300.704 255.353 299.986 262.566 301.485 271.411L295.73 261.967C299.414 231.863 308.311 217.349 364.19 205.305C369.38 218.012 371.622 216.809 374.642 202.398C405.421 197.682 422.949 198.399 453.037 201.37C451.584 219.908 463.347 222.038 465.056 202.944C487.868 206.354 500.254 209.283 520.974 217.897C517.753 232.347 530.381 239.145 531.426 223.406C545.835 231.246 552.095 238.403 560.168 255.672C559.164 260.837 558.201 263.188 555.988 266.69C553.521 262.052 550.75 257.796 547.626 253.899M304.098 249.3C309.105 240.369 319.938 233.964 338.066 228.569M337.544 217.35L338.066 228.569M424.817 205.305V217.421M424.817 217.421C439.678 217.55 453.038 218.161 465.056 219.33M465.056 215.776V219.33M465.056 219.33C477.832 220.573 489.091 222.447 499.025 225.041M499.548 215.776L499.025 225.041M499.025 225.041C521.041 230.79 536.548 240.081 547.626 253.899M547.626 242.534V253.899" stroke="black"/>
</g>
<defs>
<filter id="filter0_d_214_176" x="294.186" y="198.5" width="278.998" height="153" filterUnits="userSpaceOnUse" color-interpolation-filters="sRGB">
<feFlood flood-opacity="0" result="BackgroundImageFix"/>
<feColorMatrix in="SourceAlpha" type="matrix" values="0 0 0 0 0 0 0 0 0 0 0 0 0 0 0 0 0 0 127 0" result="hardAlpha"/>
<feOffset dx="8" dy="15"/>
<feGaussianBlur stdDeviation="2"/>
<feComposite in2="hardAlpha" operator="out"/>
<feColorMatrix type="matrix" values="0 0 0 0 0 0 0 0 0 0 0 0 0 0 0 0 0 0 0.25 0"/>
<feBlend mode="normal" in2="BackgroundImageFix" result="effect1_dropShadow_214_176"/>
<feBlend mode="normal" in="SourceGraphic" in2="effect1_dropShadow_214_176" result="shape"/>
</filter>
</defs>
</svg>
