<svg width="1768" height="1297" viewBox="0 0 1768 1297" fill="none" xmlns="http://www.w3.org/2000/svg">
<path d="M548.276 1103.57L551.995 1116.37L578.749 1131.75L604.839 1145.08L579.57 1145.3L517.251 1145.8L502.205 1145.93L506.385 1120.9L503.754 1099.42L548.276 1103.57Z" fill="#456746"/>
<path d="M340.733 1106.96L340.733 1127.74L367.46 1145.33L335.69 1145.33L276.251 1113.12L307.204 1068.65L326.867 1082.45L346.575 1084.2L340.733 1106.96Z" fill="#456746"/>
<path d="M329.202 905.041L352.579 917.998C347.554 927.07 343.175 935.957 339.373 945.098L309.488 965.006L303.439 990.935L257.177 984.299L181.575 936.742L138.555 892.346L141.848 869.513C161.867 877.063 170.003 880.515 179.841 885.436C176.828 891.387 181.052 893.764 170.98 900.956C173.325 901.037 173.406 897.469 189.199 905.041C191.815 909.828 190.013 915.4 191.019 920.506C195.051 920.334 195.521 921.941 199.562 917.43C213.029 920.271 220.321 922.73 232.856 928.693C234.664 938.169 234.093 943.153 233.4 952.112L243.822 955.834C251.882 941.294 268.319 949.487 278.339 972.399L277.653 947.36L290.538 950.392L306.381 912.426L332.361 923.744L329.202 905.041Z" fill="#2D2727"/>
<path d="M136.595 847.08C137.384 853.945 138.847 859.336 141.848 869.513L138.555 892.346L181.575 936.742L257.177 984.299L303.439 990.935L309.488 965.006L339.373 945.098C331.63 963.71 326.277 983.374 322.726 1007.79L335.845 1015.06C321.465 1023.23 306.252 1031.39 275.08 1021.45L151.356 951.841C146.514 944.341 142.075 937.777 137.964 931.575C142.039 930.199 134.084 926.183 136.595 920.506C133.272 918.09 133.228 910.707 127.481 901.933C121.537 902.564 122.902 901.945 122.104 904.377C115.138 892.447 113.51 888.703 107.883 870.722L103.108 868.074L94.2454 847.08C83.4928 837.815 53.192 783.165 53.192 783.165C59.1794 788.392 111.626 824.713 119.881 837.815L136.595 847.08Z" fill="#343F31"/>
<path d="M625.646 1016.3L484.814 943.904L377 967.328C433.739 1013.69 493.188 1030.96 499.97 1112.4L555.652 1108C604.135 1073 625.646 1016.3 625.646 1016.3Z" fill="black"/>
<path d="M786.119 526.389C789.594 544.041 789.784 553.467 787.318 569.527C782.267 570.765 780.279 570.221 777.739 567.578C771.251 556.698 770.507 555.35 767.731 550.579C770.293 548.258 771.535 544.167 773.811 537.851L786.119 526.389Z" fill="#2A2722"/>
<path d="M709.382 513.77C699.286 528.66 695.428 537.262 691.423 553.01C695.589 556.123 697.631 556.399 701.002 554.959C711.226 547.478 712.437 546.528 716.857 543.221C715.406 540.083 715.861 535.832 716.233 529.129L709.382 513.77Z" fill="#2A2722"/>
<path d="M708.535 566.965C715.926 564.726 718.214 562.408 719.592 556.746C723.841 561.867 725.815 564.911 727.846 570.894L728.837 572.592C712.051 570.608 709.091 569.343 708.535 566.965Z" fill="#A4A971"/>
<path d="M774.191 567.854C774.005 575.311 775.986 578.275 782.292 581.971C779.414 584.196 778.664 585.914 762.55 580.947C763.077 579.981 763.582 579.092 764.08 578.266C766.75 573.833 769.237 571.183 774.191 567.854Z" fill="#A4A971"/>
<path fill-rule="evenodd" clip-rule="evenodd" d="M639.214 486.027C644.385 487.578 641.429 511.915 634.245 510.453C626.72 509.617 610.084 505.657 603.69 503.738C597.295 501.819 600.927 478.744 608.659 479.312C616.392 479.88 634.043 484.476 639.214 486.027ZM626.851 485.507C629.914 495.667 622.953 504.665 622.953 504.665C622.953 504.665 620.458 495.73 626.851 485.507Z" fill="#A4A971"/>
<path fill-rule="evenodd" clip-rule="evenodd" d="M558.273 469.559C563.444 471.11 560.488 495.447 553.303 493.986C545.779 493.149 530.961 490.058 524.567 488.139C518.173 486.22 521.804 463.145 529.536 463.713C537.269 464.281 553.102 468.009 558.273 469.559ZM547.825 469.429C550.889 479.589 543.928 488.587 543.928 488.587C543.928 488.587 541.432 479.652 547.825 469.429Z" fill="#A4A971"/>
<path d="M626.851 485.507C629.914 495.667 622.953 504.665 622.953 504.665C622.953 504.665 620.458 495.73 626.851 485.507Z" fill="#D22B2B"/>
<path d="M547.825 469.429C550.889 479.589 543.928 488.587 543.928 488.587C543.928 488.587 541.432 479.652 547.825 469.429Z" fill="#D22B2B"/>
<path d="M782.292 581.971L797.618 585.089L795.864 593.71L792.033 592.931C791.984 592.905 791.934 592.895 791.883 592.901L603.329 554.539L591.543 553.637L593.004 546.453C600.318 548.935 604.166 550.109 607.851 549.474C618.586 553.258 620.585 553.393 621.262 552.202C631.439 555.414 638.607 558.908 644.251 556.879C657.945 561.601 663.537 563.03 666.282 561.362C676.944 564.659 680.805 564.842 683.151 561.801L708.535 566.965C709.091 569.343 712.051 570.608 728.837 572.592L727.846 570.894L764.08 578.266C763.582 579.092 763.077 579.981 762.55 580.947C778.664 585.914 779.414 584.196 782.292 581.971Z" fill="#2A2722"/>
<path fill-rule="evenodd" clip-rule="evenodd" d="M788.766 508.474L798.345 510.422C799.365 525.735 800.103 533.356 801.484 546.474C803.253 562.259 800.695 570.346 797.618 585.089L782.292 581.971C775.986 578.275 774.005 575.311 774.191 567.854C769.237 571.183 766.75 573.833 764.08 578.266L727.846 570.894C725.815 564.911 723.841 561.867 719.592 556.746C718.214 562.408 715.926 564.726 708.535 566.965L683.151 561.801C680.805 564.842 676.944 564.659 666.282 561.362L656.867 538.997L644.251 556.879L632.903 539.109L621.262 552.202L616.692 542.793L607.851 549.474L603.298 535.081L593.004 546.453L591.543 553.637L603.329 554.539L791.883 592.901C790.131 593.088 787.297 611.759 783.068 636.994C778.79 638.549 776.434 639.907 772.312 643.284L650.181 618.437L553.914 598.851C527.889 609.138 516.571 613.226 514.477 611.277C507.067 610.299 503.156 609.516 496.277 607.574L492.836 604.879C484.476 591.606 481.668 586.213 477.876 577.894L478.005 596.874C478.554 597.515 479.089 598.151 479.612 598.782L477.002 667.993C456.623 646.281 445.007 635.559 424.492 617.201L424.069 616.824C439.525 583.338 450.422 553.245 469.503 501.376L503.427 503.789C503.427 503.789 506.902 496.515 509.995 488.666C513.089 480.816 515.631 465.871 519.576 461.188C523.522 456.504 529.18 455.66 529.18 455.66L567.495 463.455L569.84 478.896L589.956 482.988L598.147 469.692L649.394 480.118C653.647 482.337 654.461 485.184 655.782 490.395C655.081 507.736 655.032 516.749 656.031 530.846L684.768 536.693C690.855 519.003 696.621 509.375 708.304 492.103L718.841 494.247L729.044 510.288L774.064 519.448L788.766 508.474ZM691.423 553.01C695.428 537.262 699.286 528.66 709.382 513.77L716.233 529.129C715.861 535.832 715.406 540.083 716.857 543.221C712.437 546.528 711.226 547.478 701.002 554.959C697.631 556.399 695.589 556.123 691.423 553.01ZM787.318 569.527C789.784 553.467 789.594 544.041 786.119 526.389L773.811 537.851C771.535 544.167 770.293 548.258 767.731 550.579C770.507 555.35 771.251 556.698 777.739 567.578C780.279 570.221 782.267 570.765 787.318 569.527ZM634.245 510.453C641.429 511.915 644.385 487.578 639.214 486.027C634.043 484.476 616.392 479.88 608.659 479.312C600.927 478.744 597.295 501.819 603.69 503.738C610.084 505.657 626.72 509.617 634.245 510.453ZM553.303 493.986C560.488 495.447 563.444 471.11 558.273 469.559C553.102 468.009 537.269 464.281 529.536 463.713C521.804 463.145 518.173 486.22 524.567 488.139C530.961 490.058 545.779 493.149 553.303 493.986Z" fill="#426640"/>
<path d="M656.867 538.997L666.282 561.362C663.537 563.03 657.945 561.601 644.251 556.879L656.867 538.997Z" fill="#A4A971"/>
<path d="M632.903 539.109L644.251 556.879C638.607 558.908 631.439 555.414 621.262 552.202L632.903 539.109Z" fill="#A4A971"/>
<path d="M616.692 542.793L621.262 552.202C620.585 553.393 618.586 553.258 607.851 549.474L616.692 542.793Z" fill="#A4A971"/>
<path d="M603.298 535.081L607.851 549.474C604.166 550.109 600.318 548.935 593.004 546.453L603.298 535.081Z" fill="#A4A971"/>
<path d="M448.673 510.604C455.52 506.5 460.253 504.548 469.503 501.376C450.422 553.245 439.525 583.338 424.069 616.824L411.284 618.379L394.918 620.369C396.267 613.423 396.416 609.175 394.506 600.335C402.655 596.632 408.48 594.561 421.376 590.839C416.653 582.063 414.21 577.02 411.774 566.939C419.686 561.984 424.823 558.967 438.758 551.98L431.705 540.071C437.822 536.201 441.972 533.991 450.717 529.973C449.682 522.458 449.446 518.259 448.673 510.604Z" fill="#2D2727"/>
<path d="M650.181 618.437L622.555 653.715C616.788 655.981 611.345 656.34 604.143 655.954C605.352 667.173 581.189 690.197 585.057 688.481C567.078 697.368 558.352 700.503 544.556 703.683C533.632 699.382 524.647 697.423 504.52 694.54L485.52 676.21C493.305 666.236 498.066 656.692 505.465 640.865C495.824 622.331 490.208 611.557 479.612 598.782C479.089 598.151 478.554 597.515 478.005 596.874L477.876 577.894C481.668 586.213 484.476 591.606 492.836 604.879L496.277 607.574C503.156 609.516 507.067 610.299 514.477 611.277C516.571 613.226 527.889 609.138 553.914 598.851L650.181 618.437Z" fill="#2D2727"/>
<path d="M505.465 640.865C498.066 656.692 493.305 666.236 485.52 676.21L477.002 667.993L479.612 598.782C490.208 611.557 495.824 622.331 505.465 640.865Z" fill="#714133"/>
<path d="M585.057 688.481C581.189 690.197 605.352 667.173 604.143 655.954C611.345 656.34 616.788 655.981 622.555 653.715C629.261 656.769 632.485 658.606 637.864 661.817C575.762 693.756 588.924 686.764 585.057 688.481Z" fill="#714133"/>
<path d="M425.884 974.608L467.888 950.292C480.997 974.717 473.824 1014.27 473.824 1014.27C474.948 1021 389.861 1098.45 344.134 1100.12L310.32 1089.81L286.304 1082.2C286.304 1082.2 334.45 1020.08 315.094 1012.42C299.399 1006.2 299.105 987.866 298.936 968.873C298.767 949.881 309.483 954.257 310.329 930.161L425.884 974.608Z" fill="#2C1D1D"/>
<path d="M585.611 687.76C589.464 686.01 575.962 693.607 637.782 661.127L640.583 661.103C640.413 662.114 640.143 663.219 639.777 664.431C637.176 673.047 629.756 687.081 619.383 711.253C607.693 716.848 596.012 727.516 573.008 750.037C570.04 745.417 568.759 742.313 564.064 726.889L560.706 726.236L561.172 723.837C549.951 712.921 548.241 709.105 545.245 703.315C559.012 700.015 567.711 696.804 585.611 687.76Z" fill="#A8B877"/>
<path d="M485.971 676.358L505.131 694.522C498.318 700.667 489.993 703.879 482.932 708.825C481.93 709.527 480.954 710.264 480.01 711.049C470.634 719.664 467.5 722.864 462.206 728.269L462.205 728.27L461.607 728.881C458.082 727.729 456.155 726.693 453.051 724.231C447.833 713.438 445.27 707.712 441.695 698.124C431.502 678.25 426.636 670.239 419.157 660.384L410.239 624.295L411.233 619.177L424.005 617.511L424.43 617.885C445.105 636.062 456.815 646.683 477.382 668.216L485.971 676.358Z" fill="#A9B779"/>
<path d="M561.172 723.837L560.706 726.236L520.447 761.728L526.619 786.329L502.233 814.451L495.516 813.145L485.838 778.402L503.442 754.44L487.73 709.757L482.932 708.825C489.993 703.879 498.318 700.667 505.131 694.522C525.282 697.23 534.284 699.11 545.245 703.315C548.241 709.105 549.951 712.921 561.172 723.837Z" fill="black"/>
<path d="M573.008 750.037C596.012 727.516 607.693 716.848 619.383 711.253C556.028 794.514 526.31 818.53 491.88 849.781C484.585 834.27 480.832 826.468 467.622 795.275C458.094 771.502 452.202 755.369 441.75 726.753L441.657 726.497C432.5 702.798 427.677 687.707 419.157 660.384C426.636 670.239 431.502 678.25 441.695 698.124C445.27 707.712 447.833 713.438 453.051 724.231C456.155 726.693 458.082 727.729 461.607 728.881L462.205 728.27L462.206 728.269C467.5 722.864 470.634 719.664 480.01 711.049C480.954 710.264 481.93 709.527 482.932 708.825L487.73 709.757L503.442 754.44L485.838 778.402L495.516 813.145L502.233 814.451L526.619 786.329L520.447 761.728L560.706 726.236L564.064 726.889C568.759 742.313 570.04 745.417 573.008 750.037Z" fill="#74543F"/>
<path d="M483.114 894.88C502.873 898.722 496.616 927.876 477.425 924.146C458.234 920.415 463.354 891.037 483.114 894.88Z" fill="black"/>
<path d="M471.363 955.331C490.074 958.968 485.531 987.461 465.861 983.638C446.19 979.814 452.652 951.694 471.363 955.331Z" fill="black"/>
<path fill-rule="evenodd" clip-rule="evenodd" d="M491.88 849.781C526.31 818.53 556.028 794.514 619.383 711.253C629.756 687.081 637.176 673.047 639.777 664.431C668.063 686.204 653.685 673.243 679.137 695.379L676.273 815.153C667.619 831.531 668.471 843.182 667.274 848.25C671.57 833.575 666.076 853.319 667.274 848.25C642.553 876.718 622.444 971.587 625.825 1016.23L493.025 1043.69L462.503 1000.91L415.301 1028.58L301.712 957.207L302.604 952.618L304.177 952.21L304.923 948.371L307.161 936.857L308.94 919.278L309.086 917.948C312.874 883.277 315.051 863.347 319.534 814.289C318.121 788.57 317.971 774.087 319.464 748.054C322.287 721.325 323.46 706.654 324.47 681.313C325.925 665.673 327.474 655.102 326.801 647.133C349.958 637.658 364.558 628.119 394.886 621.311L411.233 619.177L410.239 624.295L419.157 660.384C427.677 687.707 432.5 702.798 441.657 726.497L441.75 726.753C452.202 755.369 458.094 771.502 467.622 795.275C480.832 826.468 484.585 834.27 491.88 849.781ZM483.114 894.88C502.873 898.722 496.616 927.876 477.425 924.146C458.234 920.415 463.354 891.037 483.114 894.88ZM471.363 955.331C490.074 958.968 485.531 987.461 465.861 983.638C446.19 979.814 452.652 951.694 471.363 955.331Z" fill="#252222"/>
<path d="M331.121 645.815C330.539 653.791 332.041 670.668 328.158 685.888C323.196 710.759 327.746 718.28 320.776 744.237C292.048 754.839 280.843 748.876 251.012 749.045L249.886 744.994L210.847 730.785C210.255 729.437 209.776 729.14 215.656 707.57L220.208 705.066C224.693 696.575 225.731 688.743 229.024 687.99C254.954 675.178 269.454 667.655 294.844 650.052C307.925 645.202 312.801 642.088 331.121 645.815Z" fill="#AFBE7B"/>
<path d="M284.019 845.363C283.687 843.841 273.322 849.701 270.717 848.934C262.127 844.951 256.988 847.132 250.512 844.246C250.981 817.963 250.895 788.432 230.119 768.512L245.406 752.231L251.012 749.045C280.843 748.876 292.048 754.839 320.776 744.237C320.776 744.237 293.957 803.435 283.013 807.529L282.103 778.591C279.601 778.04 278.364 778.511 276.34 780.134C280.309 793.906 282.736 805.758 283.963 822.876C283.311 830.434 286.75 837.331 284.019 845.363Z" fill="#7A3A2E"/>
<path d="M276.34 780.134C278.364 778.511 279.601 778.04 282.103 778.591L283.013 807.529C282.944 812.44 284.287 819.111 283.963 822.876C282.736 805.758 280.309 793.906 276.34 780.134Z" fill="black"/>
<path d="M207.036 736.185C209.702 733.932 211.597 733.543 210.847 730.785L249.886 744.994L251.012 749.045L245.406 752.231L230.119 768.512C250.895 788.432 250.981 817.963 250.512 844.246C234.667 837.187 232.492 846.316 217.126 840.367C205.595 846.138 199.099 858.807 184.877 857.985C186.127 843.599 177.003 791.116 174.75 763.443C184.572 753.879 191.16 748.095 207.036 736.185Z" fill="#456746"/>
<path d="M260.744 930.457C262.563 929.44 264.031 929.273 268.075 930.329C273.994 939.353 278.868 943.927 287.287 951.828L287.969 952.468C277.412 955.635 271.501 957.192 261.179 955.38C258.885 946.306 257.633 941.208 260.744 930.457Z" fill="black"/>
<path fill-rule="evenodd" clip-rule="evenodd" d="M211.146 945.499C208.049 940.355 202.868 925.57 184.688 857.972C198.26 853.642 205.519 850.844 214.216 841.325C230.693 841.372 242.864 841.592 260.187 842.505C267.267 842.878 275.208 843.367 284.654 844.006L286.573 869.88C284.278 867.272 278.442 866.424 260.596 865.934C255.936 870.893 251.299 875.202 222.545 898.372C222.285 900.904 225.824 903.856 267.964 923.976C277.677 917.627 282.631 913.276 290.093 903.548C302.622 912.015 305.293 913.29 309.854 915.424C311.895 908.424 313.742 904.32 318.326 896.701L319.17 897.175L350.414 914.716L321.289 926.467L321.358 930.377L319.904 931.104L310.212 935.948L309.309 968.227L234.541 969.532C224.027 962.45 219.366 958.634 211.257 951.852L211.146 945.499ZM268.075 930.329C264.031 929.273 262.563 929.44 260.744 930.457C257.633 941.208 258.885 946.306 261.179 955.38C271.501 957.192 277.412 955.635 287.969 952.468L287.287 951.828C278.868 943.927 273.994 939.353 268.075 930.329Z" fill="#343F31"/>
<path d="M286.573 869.88C302.208 881.073 301.795 885.669 318.326 896.701C313.742 904.32 311.895 908.424 309.854 915.424C305.293 913.29 302.622 912.015 290.093 903.548C282.631 913.276 277.677 917.627 267.964 923.976C225.824 903.856 222.285 900.904 222.545 898.372C251.299 875.202 255.936 870.893 260.596 865.934C278.442 866.424 284.278 867.272 286.573 869.88Z" fill="#456746"/>
<path d="M1142.69 156.394C1025.7 150.511 889.463 159.598 730.727 176.635C988.969 188.964 1155.52 219.357 1262.31 277.7L1142.69 156.394Z" fill="#D62C0C"/>
<path fill-rule="evenodd" clip-rule="evenodd" d="M1737.31 759.374C1742.2 755.272 1747.17 751.04 1752.23 746.678C1656.71 314.287 1479.42 173.328 1142.69 156.394L1262.31 277.7C1325.73 312.346 1368.06 356.848 1396.01 413.275L1737.31 759.374Z" fill="#D62C0C"/>
<path d="M1377.74 671.216C1401 734.658 1408.14 768.599 1415.28 827.573C1536.53 884.945 1609.66 866.445 1737.31 759.374L1396.01 413.275C1424.55 470.912 1438.08 540.991 1443.72 625.719C1426.76 563.001 1411.8 537.869 1373.64 513.868C1414.19 601.178 1419.67 651.703 1428.49 733.053L1428.5 733.073C1429.09 738.589 1429.71 744.246 1430.35 750.067C1412.5 714.09 1400.72 697.296 1377.74 671.216Z" fill="#456746"/>
<path d="M1178.07 740.756C1179.02 736.91 1180.05 732.859 1181.18 728.578C1195.06 715.359 1204.95 703.406 1218.24 687.145C1056.7 707.043 1008.17 736.788 967.278 810.075C992.127 803.686 1002.81 801.161 1017.78 797.983C1055.54 739.007 1142.41 777.892 1125.6 836.526C1124.38 838.402 1123.51 839.882 1122.89 841.116C1124.09 844.837 1125.16 848.289 1126.12 851.548C1130.52 866.477 1132.64 877.37 1134.37 891.672C1134.69 894.294 1135 897.031 1135.3 899.928C1189.55 984.56 1087.89 1013.09 1059.18 988.71L1005.69 995.072C1044.25 1023.17 1067.04 1037.86 1132.98 1040.95C1209.64 1025.65 1251.76 1015.22 1303.32 994.152C1268.91 977.521 1259.38 975.449 1229.76 961.08C1195.39 917.22 1192.41 906.915 1184.04 885.843L1184.07 884.007L1184.46 858.678C1183.36 851.798 1181.31 846.114 1177.47 838.289C1175.94 835.164 1174.12 831.699 1171.97 827.68C1168.31 801.596 1167.37 784.348 1178.07 740.756Z" fill="black"/>
<path d="M1232.94 669.23C1086.14 687.992 1003.83 700.891 953.413 819.113L967.278 810.075C1008.17 736.788 1056.7 707.043 1218.24 687.145C1222.67 681.721 1227.48 675.818 1232.94 669.23Z" fill="#E6EAEB"/>
<path d="M1183.57 733.162C1213.82 704.257 1220.79 691.636 1232.94 669.23C1227.48 675.818 1222.67 681.721 1218.24 687.145C1204.95 703.406 1195.06 715.359 1181.18 728.578C1180.05 732.859 1179.02 736.91 1178.07 740.756C1180.84 738.097 1181.97 736.405 1183.57 733.162Z" fill="#544E2E"/>
<path d="M967.278 810.075L953.413 819.113C958.681 819.46 962.416 819.276 969.585 818.704C987.507 811.677 998.8 808.46 1018.32 802.899L1019.45 802.578L1017.78 797.983C1002.81 801.161 992.127 803.686 967.278 810.075Z" fill="#544E2E"/>
<path d="M1017.78 797.983L1019.45 802.578C1054.81 747.398 1127.91 774.518 1120.39 836.322L1121.51 851.761C1121.7 846.802 1120.67 845.554 1122.89 841.116C1123.51 839.882 1124.38 838.402 1125.6 836.526C1142.41 777.892 1055.54 739.007 1017.78 797.983Z" fill="#544E2E"/>
<path fill-rule="evenodd" clip-rule="evenodd" d="M1005.69 995.072L992.314 998.757C997.031 1002.3 1001.31 1005.68 1005.4 1008.91C1032.04 1029.95 1050.39 1044.45 1126.24 1053.2C1182.16 1046.4 1219.11 1039 1317.44 1005.01C1319.95 1001.06 1317.5 998.707 1303.32 994.152C1251.76 1015.22 1209.64 1025.65 1132.98 1040.95C1067.04 1037.86 1044.25 1023.17 1005.69 995.072Z" fill="#E6EAEB"/>
<path d="M1059.18 988.71C1087.89 1013.09 1189.55 984.56 1135.3 899.928C1135 897.031 1134.69 894.294 1134.37 891.672L1128.53 892.527L1129.57 902.911C1182.82 952.745 1107.2 1019.42 1058.65 982.796C1011.82 988.566 997.681 992.098 992.314 998.757L1005.69 995.072L1059.18 988.71Z" fill="#544E2E"/>
<path d="M1177.47 838.289C1181.31 846.114 1183.36 851.798 1184.46 858.678L1184.07 884.007C1195.79 879.912 1202.05 878.626 1212.38 878.735C1219.2 855.325 1214.7 845.443 1201.18 829.948L1177.47 838.289Z" fill="#DBBF9F"/>
<path d="M1128.53 892.527L1134.37 891.672C1132.64 877.37 1130.52 866.477 1126.12 851.548L1121.51 851.761L917.471 900.449L904.293 907.309C901.146 918.05 901.414 928.33 909.419 938.139L926.6 937.57L1128.53 892.527Z" fill="#DBBF9F"/>
<path d="M909.419 938.139C901.414 928.33 901.146 918.05 904.293 907.309L902.504 903.872C889.268 906.746 882.384 907.809 870.665 909.158C870.644 911.408 869.427 911.938 864.524 913.447C864.677 913.86 864.828 914.267 864.976 914.669C869.559 927.097 871.809 934.717 874.061 947.442C874.157 947.989 874.254 948.545 874.351 949.112C887.707 945.299 894.767 943.74 906.028 942.817C909.733 942.363 910.74 941.492 909.419 938.139Z" fill="#1C120D"/>
<path d="M822.156 959.358C816.705 957.497 813.566 956.185 800.357 929.373C790.066 931.546 779.247 933.786 767.828 936.13C781.706 962.602 785.867 967.184 790.229 966.687L822.156 959.358Z" fill="#4F3128"/>
<path d="M790.229 966.687C785.867 967.184 781.706 962.602 767.828 936.13C755.599 938.64 750.554 939.602 736.865 942.399C748.768 970.161 751.688 973.793 757.108 974.291L790.229 966.687Z" fill="#160903"/>
<path d="M757.108 974.291C751.688 973.793 748.768 970.161 736.865 942.399C734.691 942.844 724.627 944.96 722.413 945.413C715.197 953.287 715.764 960.641 727.999 980.973L757.108 974.291Z" fill="#75594D"/>
<path d="M692.81 951.497C686.06 962.484 686.066 969.938 698.89 987.656L727.999 980.973C715.764 960.641 715.197 953.287 722.413 945.413C712.92 947.355 703.061 949.378 692.81 951.497Z" fill="#140900"/>
<path d="M853.379 952.19C847.604 949.978 843.851 946.724 832.413 922.407C822.303 924.683 811.649 926.988 800.357 929.373C813.566 956.185 816.705 957.497 822.156 959.358L853.379 952.19Z" fill="#170A04"/>
<path d="M874.061 947.442C871.809 934.717 869.559 927.097 864.976 914.669C854.737 917.26 843.929 919.814 832.413 922.407C843.851 946.724 847.604 949.978 853.379 952.19L874.061 947.442Z" fill="#75594D"/>
<path d="M698.89 987.656C686.066 969.938 686.06 962.484 692.81 951.497C684.534 954.999 679.625 955.224 673.852 949.35C665.14 947.824 661.087 948.807 655.882 954.699C647.352 953.232 645.727 956.668 642.132 961.858C642.217 980.316 645.041 988.092 651.433 1000.71C653.536 1006.48 657.006 1006.29 665.898 1001.92C672.493 1002.56 676.139 1002.49 681.988 996.454C686.129 989.455 689.658 987.315 698.89 987.656Z" fill="#BCB3AA"/>
<path d="M669.622 790.651L678.795 695.191L770.593 730.845C773.773 742.285 765.711 740.952 771.529 740.568C772.423 746.302 773.711 750.915 778.194 762.746L736.517 783.295L733.446 784.809L670.727 768.168L669.622 790.651Z" fill="#AEBA78"/>
<path d="M736.517 783.295L778.194 762.746C781.213 770.083 780.893 775.121 779.935 779.219C786.331 782.077 791.785 788.653 800.74 798.311C807.727 814.606 811.768 821.835 819.075 833.484C820.611 841.775 820.718 845.829 821.122 851.298L810.549 847.98L780.942 858.655L762.975 854.349L745.201 861.024C748.077 838.298 750.756 826.219 758.366 806.477C750.204 796.338 747.902 789.229 736.517 783.295Z" fill="#456746"/>
<path d="M714.381 933.597C721.473 926.694 723.152 913.642 729.299 903.415L745.914 889.062L807.703 896.863C801.106 910.406 796.446 917.987 778.4 935.59L751.007 936.551L732.606 951.698L712.772 934.789L714.381 933.597Z" fill="#456746"/>
<path d="M669.622 790.651L670.727 768.168L733.446 784.809L736.517 783.295C747.902 789.229 750.204 796.338 758.366 806.477C750.756 826.219 748.077 838.298 745.201 861.024C732.949 866.329 726.606 870.573 719.704 877.726C718.369 879.11 717.013 880.603 715.589 882.234L715.578 882.19C712.509 869.746 710.785 862.756 711.202 853.156C714.886 842.531 716.343 834.895 716.437 814.445L711.079 816.83L711.202 853.156L675.621 836.986C670.724 822.501 677.547 841.825 675.621 836.986C673.695 832.147 671.927 809.031 669.622 790.651Z" fill="#7A3A2E"/>
<path d="M711.079 816.83L716.437 814.445C716.343 834.895 714.886 842.531 711.202 853.156L711.079 816.83Z" fill="black"/>
<path fill-rule="evenodd" clip-rule="evenodd" d="M821.122 851.298L810.549 847.98L780.942 858.655L762.975 854.349L745.201 861.024C732.949 866.329 726.606 870.573 719.704 877.726L729.299 903.415L745.914 889.062L807.703 896.863C801.106 910.406 796.446 917.987 778.4 935.59L751.007 936.551L732.606 951.698L712.772 934.789L707.944 938.365L707.14 938.961L686.662 966.269L719.465 966.644L722.447 973.342C727.4 972.863 729.622 972.337 732.619 970.953C738.915 982.355 743.339 988.542 751.247 999.575L822.24 967.966C824.229 965.317 826.102 962.001 828.181 957.77L797.474 964.013C759.363 970.049 756.365 944.873 787.333 936.428L788.638 936.072L833.216 922.083C832.945 920.336 832.692 918.651 832.449 917.031C830.999 907.38 829.894 900.022 827.453 895.56C826.955 882.587 824.9 871.567 821.382 852.695L821.122 851.298Z" fill="#2B2D28"/>
</svg>
