<svg width="1071" height="841" viewBox="0 0 1071 841" fill="none" xmlns="http://www.w3.org/2000/svg">
<path d="M181.482 777.926L184.37 735.703L144.487 722.61L153.061 796.896L166.5 796.896L207 796.896C213.668 781.282 181.482 777.926 181.482 777.926Z" fill="black"/>
<path fill-rule="evenodd" clip-rule="evenodd" d="M229.213 662.89C240.557 752.117 184.953 766.346 181.735 767.813C178.518 769.279 146.68 765.916 142.461 760.068C138.241 754.22 167.991 721.977 103.57 689.38L80.5539 678.402C139.147 688.519 171.683 685.288 229.213 662.89Z" fill="#773A03"/>
<path fill-rule="evenodd" clip-rule="evenodd" d="M229.213 662.89C240.557 752.117 184.953 766.346 181.735 767.813C178.518 769.279 146.68 765.916 142.461 760.068C138.241 754.22 167.991 721.977 103.57 689.38L80.5539 678.402C139.147 688.519 171.683 685.288 229.213 662.89Z" stroke="black"/>
<path d="M89.9526 170.853L129.072 157L128.552 163.019L94.4496 174.565L89.9526 170.853Z" fill="#FCFAEC"/>
<path d="M94.4496 174.565L128.552 163.019L147.137 218.497L116.059 231.094C108.352 206.507 103.214 193.738 94.4496 174.565Z" fill="#397B05"/>
<path d="M116.059 231.094L147.137 218.497L151.771 221.1L132.781 228.885L113.486 237.309L116.059 231.094Z" fill="#FCFAEC"/>
<path d="M113.486 237.309L132.781 228.885L151.771 221.1C158.102 261.048 163.435 269.357 169.777 279.435L131.6 292.954C127.217 270.453 124.004 258.055 113.486 237.309Z" fill="#64AA06"/>
<path d="M131.6 292.954L169.777 279.435L170.366 285.592L133.603 298.61L131.6 292.954Z" fill="#FCFAEC"/>
<path d="M133.603 298.61L170.366 285.592C175.201 310.559 179.192 324.133 188.126 347.727L159.375 357.909L140.746 315.046L136.4 305.046L133.603 298.61Z" fill="#397B05"/>
<path d="M159.375 357.909L188.126 347.727L190.462 354.326L163.126 364.006L159.375 357.909Z" fill="#FCFAEC"/>
<path d="M163.126 364.006L190.462 354.326C198.641 377.421 201.282 383.381 210.54 405.032L180.513 414.605C180.513 414.605 170.744 382.525 163.126 364.006Z" fill="#64AA06"/>
<path d="M180.513 414.605L210.54 405.032L211.158 412.77L182.408 422.951L180.513 414.605Z" fill="#FCFAEC"/>
<path d="M182.408 422.951L211.158 412.77C218.394 436.198 219.672 441.291 228.518 466.271L206.03 468.689L195.315 473.785C187.658 444.671 192.598 460.715 182.408 422.951Z" fill="#397B05"/>
<path d="M195.315 473.785L206.03 468.689L228.518 466.271L228.084 472.549L199.304 481.149L195.315 473.785Z" fill="#FCFAEC"/>
<path d="M227.383 545.465L246.433 540.841L245.912 546.86L229.053 550.178L227.383 545.465Z" fill="#FCFAEC"/>
<path d="M199.304 481.149L228.084 472.549C232.069 491.293 240.198 520.24 246.433 540.841L227.383 545.465C218.488 526.337 209.917 499.138 199.304 481.149Z" fill="#64AA06"/>
<path d="M44.808 271.163C64.1054 270.433 78.2653 268.385 64.7699 284.64C67.0622 281.649 66.822 279.609 63.3863 278.149C61.0478 275.033 55.0697 273.16 44.808 271.163Z" fill="#64AA06"/>
<path d="M63.5507 286.072C62.8185 279.925 54.7127 278.303 41.702 275.068C52.8461 275.748 59.829 276.637 63.3863 278.149C64.8913 280.154 64.8889 282.673 63.5507 286.072Z" fill="#64AA06"/>
<path d="M63.5507 286.072C49.7069 295.461 44.3754 290.067 38.5254 309.518C52.0485 297.272 57.7777 299.78 63.5507 286.072Z" fill="#64AA06"/>
<path d="M72.7178 292.799C82.9095 297.879 86.7243 307.248 91.8601 322.616C84.3663 317.561 78.1081 313.737 73.3264 309.25C72.3813 303.535 68.9014 297.599 63.249 289.657L72.7178 292.799Z" fill="#64AA06"/>
<path d="M81.991 248.462C98.53 261.784 103.186 268.041 98.5039 275.792C96.7196 275.158 94.9257 274.696 93.1124 274.422C86.7377 271.241 84.695 262.712 81.991 248.462Z" fill="#64AA06"/>
<path d="M70.0471 324.391C59.2107 306.012 59.6282 299.528 63.249 289.657C68.9014 297.599 72.3813 303.535 73.3264 309.25C74.1274 314.093 73.1078 318.778 70.0471 324.391Z" fill="#64AA06"/>
<path d="M63.249 289.657L63.5507 286.072C74.6762 276.298 84.1328 273.062 93.1124 274.422C94.6385 275.183 96.4128 275.638 98.5039 275.792C111.72 281.543 120.225 288.695 136.4 305.046L140.746 315.046C107.313 278.949 88.2879 264.654 63.249 289.657Z" fill="#64AA06"/>
<path d="M428.271 509.724C427.661 493.447 428.135 478.82 429.809 447.117C417.007 469.809 407.401 486.487 400.01 498.876C396.929 507.235 397.209 510.93 405.945 513.472C401.829 519.877 422.617 534.332 445.093 544.031C445.687 542.893 448.036 541.947 448.036 541.947L450.332 540.151C443.557 534.253 438.213 529.309 433.313 520.229C428.925 517.08 425.323 515.515 417.36 513.034C420.736 511.591 422.407 510.688 428.557 510.375C428.462 510.16 428.366 509.943 428.271 509.724Z" fill="#C29171"/>
<path d="M428.557 510.375C422.407 510.688 420.736 511.591 417.36 513.034C425.323 515.515 428.925 517.08 433.313 520.229C431.802 517.428 430.245 514.201 428.557 510.375Z" fill="black"/>
<path d="M372.109 537.438L374.806 544.365L434.088 567.121C437.045 556.884 440.743 552.38 445.093 544.031C422.617 534.332 401.829 519.877 405.945 513.472C397.209 510.93 396.929 507.235 400.01 498.876C382.836 527.667 377.631 533.3 372.109 537.438Z" fill="#773A03"/>
<path d="M509.139 510.251L528.639 544.026L422.551 605.276C418.327 590.317 415.424 582.157 409.113 568.001L509.139 510.251Z" fill="#DBBF9F"/>
<path d="M405.663 615.026C402.535 598.667 399.507 590.521 391.792 578.001C395.285 574.226 397.378 573.067 401.319 572.501C408.103 585.688 411.08 593.851 415.19 609.526C410.828 613.333 408.871 614.192 405.663 615.026Z" fill="#210000"/>
<path d="M397.869 619.526L394.345 613.245C392.87 600.048 390.585 593.298 383.132 583.001C386.338 580.172 388.208 578.953 391.792 578.001C399.507 590.521 402.535 598.667 405.663 615.026C403.274 617.921 401.536 618.844 397.869 619.526Z" fill="#9F2525"/>
<path d="M378.784 585.512L383.132 583.001C390.585 593.298 392.87 600.048 394.345 613.245L378.784 585.512Z" fill="#210000"/>
<path d="M415.19 609.526C411.08 593.851 408.103 585.688 401.319 572.501C403.655 569.516 405.259 568.359 409.113 568.001C415.424 582.157 418.327 590.317 422.551 605.276C419.699 607.5 418.143 608.199 415.565 609.357L415.19 609.526Z" fill="#9F2525"/>
<path d="M510.647 486.864L520.397 503.751L525.272 512.195L530.147 520.639L535.022 529.083L539.897 537.526L549.647 554.414C547.809 556.658 546.516 557.199 544.018 557.664L505.018 490.114C507.017 488.5 508.046 487.435 510.647 486.864Z" fill="#9F2525"/>
<path d="M509.139 510.251L499.389 493.364C501.075 491.748 502.059 490.869 505.018 490.114L544.018 557.664C542.492 559.818 541.471 560.807 538.389 560.914L528.639 544.026L509.139 510.251Z" fill="#3D3D33"/>
<path d="M947.264 308.106C758.492 432.441 716.66 450.643 539.897 537.526L535.022 529.083L801.416 373.489C878.965 326.149 932.984 281.813 1011 220.501C1005.15 236.801 963.286 298.856 947.264 308.106Z" fill="#E6EAEB"/>
<path d="M520.397 503.751L1011 220.501C932.984 281.813 878.965 326.149 801.416 373.489L535.022 529.083L530.147 520.639L525.272 512.195L520.397 503.751Z" fill="black"/>
<path d="M463.859 536.291C456.006 534.765 454.643 536.537 450.253 540.777C443.872 539.537 435.288 547.776 434.902 548.999C429.761 552.075 426.48 548.262 425.346 558.857C431.223 575.79 446.021 592.644 447.584 591.194C458.873 593.389 484.352 572.364 483.262 570.115L473.022 553.353L463.859 536.291Z" fill="#3E1400"/>
<path d="M321.117 171.5C322.292 173.836 323.454 176.332 324.623 179C323.795 176.848 344.791 177.412 371.123 177.5C362.333 145.764 355.582 132.177 333.123 132C326.882 134.812 324.774 147.7 321.117 171.5Z" fill="#773A03"/>
<path d="M553.623 236C542.623 224.5 538.334 220.378 507.623 209C494.261 212.241 487.926 215.902 477.623 224C494.639 231.771 501.401 235.434 512.623 241.757C525.438 241.736 541.857 242.45 543.123 241.5C545.123 240 547.382 235.668 553.623 236Z" fill="#AAA494"/>
<path d="M524.623 275.5C489.312 274.012 493.939 245.651 497.623 243C498.975 242.027 505.193 241.768 512.623 241.757C501.401 235.434 494.639 231.771 477.623 224C473.872 228.329 470.675 232.416 467.972 236.312C467.558 236.909 467.155 237.501 466.764 238.09C461.498 246.006 458.295 253.139 456.626 259.923C456.477 260.528 456.34 261.13 456.215 261.729C454.842 268.328 454.898 274.628 455.886 281.039C455.982 281.663 456.087 282.289 456.2 282.915C457.103 287.912 458.538 293 460.269 298.371C460.431 298.872 460.595 299.375 460.761 299.881C462.459 305.043 464.407 310.477 466.403 316.35C466.476 316.566 466.549 316.783 466.623 317C470.938 322.803 473.024 325.978 474.123 331C481.779 330.245 484.885 331.898 490.623 334.5C507.752 326.798 515.743 321.402 523.623 307.5L524.623 275.5Z" fill="#AAA494"/>
<path d="M560.002 260.261C555.793 268.634 553.538 271.028 549.623 273C549.116 290.152 549.472 300.867 546.623 314C550.956 313.14 553.522 311.425 558.418 305.5C558.583 304.207 558.74 302.872 558.889 301.5C558.954 300.899 559.018 300.292 559.08 299.678C559.368 296.82 559.619 293.827 559.824 290.76C559.369 290.667 558.901 290.58 558.418 290.5V288.5C558.943 288.626 559.451 288.754 559.943 288.883C560.225 284.184 560.395 279.342 560.421 274.572C559.838 274.542 559.24 274.519 558.623 274.5V272.5C559.24 272.525 559.839 272.555 560.423 272.59C560.41 268.434 560.283 264.355 560.018 260.5L560.002 260.261Z" fill="#AAA494"/>
<path fill-rule="evenodd" clip-rule="evenodd" d="M560.002 260.261C555.623 258.5 555.623 250 558.039 246C557.877 245.309 557.706 244.642 557.525 244C556.529 240.465 555.244 237.695 553.623 236C547.382 235.668 545.123 240 543.123 241.5C541.857 242.45 525.438 241.736 512.623 241.757C505.193 241.768 498.975 242.027 497.623 243C493.939 245.651 489.312 274.012 524.623 275.5L523.623 307.5C515.743 321.402 507.752 326.798 490.623 334.5L493.623 334.459C504.739 336.249 511.419 336.841 527.623 334C540.439 338.277 546.536 335.965 555.123 322C556.318 318.773 557.485 312.831 558.418 305.5C553.522 311.425 550.956 313.14 546.623 314C549.472 300.867 549.116 290.152 549.623 273C553.538 271.028 555.793 268.634 560.002 260.261ZM501.123 250C512.072 246.222 530.123 257 520.623 266C511.123 275 490.174 253.778 501.123 250Z" fill="#3E1400"/>
<path d="M558.039 246C555.623 250 555.623 258.5 560.002 260.261C559.948 259.498 560.188 259.244 560.123 258.5C559.746 254.158 558.882 249.657 558.091 246.222C558.074 246.148 558.056 246.074 558.039 246Z" fill="black"/>
<path d="M501.123 250C512.072 246.222 530.123 257 520.623 266C511.123 275 490.174 253.778 501.123 250Z" fill="black"/>
<path d="M493.623 334.459L490.623 334.5C484.885 331.898 481.779 330.245 474.123 331C473.024 325.978 470.938 322.803 466.623 317L465.535 317.923L450.123 331C443.911 328.829 440.944 327.252 436.623 323.5C429.443 328.056 424.815 329.424 416.123 331L419.623 326.5C399.941 329.551 389.298 333.138 370.623 341L368.123 326.5C359.749 334.291 348.4 338.957 328.767 347.03L327.623 347.5C351.171 351.468 367.699 358.59 381.483 369.5C388.986 375.439 395.675 382.5 402.242 390.786L427.579 388.198L425.923 379C419.415 368.721 415.434 365.556 407.623 365.5C408.644 361.332 409.595 359.35 413.623 358V354C406.052 352.216 402.123 354.5 400.123 350H436.623L436.728 349.998C464.845 349.503 480.634 349.225 482.623 351.5C485.072 345.153 487.286 341.457 493.623 334.459Z" fill="#773A03"/>
<path d="M425.623 367L436.623 350H400.123C402.123 354.5 406.052 352.216 413.623 354V358C409.595 359.35 408.644 361.332 407.623 365.5C415.434 365.556 419.415 368.721 425.923 379L425.623 367Z" fill="black"/>
<path d="M482.623 351.5C509.272 351.81 523.814 351.665 527.623 334C511.419 336.841 504.739 336.249 493.623 334.459C487.286 341.457 485.072 345.153 482.623 351.5Z" fill="black"/>
<path d="M281.123 140.524C278.181 139.934 275.024 139.431 271.623 139C265.117 148.01 261.887 157.598 261.301 167C266.623 150 287.263 155.735 292.623 171.5C287.926 175.983 285.026 177.957 278.623 179C287.394 192.892 291.166 206.095 313.623 200.5L313.409 199.551C307.469 173.156 304.073 158.067 281.123 140.524Z" fill="black"/>
<path d="M313.623 200.5C291.166 206.095 287.394 192.892 278.623 179C285.026 177.957 287.926 175.983 292.623 171.5C287.263 155.735 266.623 150 261.301 167C260.247 183.915 267.75 200.23 280.123 211.5L268.623 236.378C278.314 227.509 285.797 223 304.123 216C288.403 212.774 281.675 209.505 274.123 200.5C275.765 196.452 277.654 194.849 283.123 193.5C291.905 206.033 298.077 209.151 313.623 200.5Z" fill="#773A03"/>
<path d="M189.761 358C182.171 368.914 175.66 374.252 163.123 383.461L355.141 415.129H394.623C404.579 407.356 414.976 398.839 426.521 389.092C426.872 388.795 427.225 388.497 427.579 388.198L402.242 390.786L399.123 390.305L368.992 385.656L189.761 358Z" fill="#37191B"/>
<path d="M571.623 309.5C569.438 309.458 561.106 302.671 559.08 299.678C559.018 300.292 558.954 300.899 558.889 301.5C564.707 307.715 567.371 309.739 571.123 310.5L571.623 309.5Z" fill="black"/>
<path d="M557.525 244C557.706 244.642 557.877 245.309 558.039 246C558.056 246.074 558.074 246.148 558.091 246.222C565.011 243.344 568.439 241.368 574.123 237.5L573.123 236C567.521 239.386 564.125 241.126 557.525 244Z" fill="black"/>
<path d="M560.123 258.5C560.188 259.244 559.948 259.498 560.002 260.261L560.018 260.5C565.536 259.816 578.105 255.079 581.623 253L578.921 252C576.532 253.809 564.708 258.45 560.123 258.5Z" fill="black"/>
<path d="M576.623 297.5L577.623 296.5C570.959 292.934 567.079 290.753 559.943 288.883C559.451 288.754 558.943 288.626 558.418 288.5V290.5C558.901 290.58 559.369 290.667 559.824 290.76C566.251 292.071 570.063 294.596 576.623 297.5Z" fill="#040404"/>
<path d="M582.623 280.5L583.123 278.5C574.261 274.763 569.011 273.109 560.423 272.59C559.839 272.555 559.24 272.525 558.623 272.5V274.5C559.24 274.519 559.838 274.542 560.421 274.572C568.976 275.004 574.092 276.634 582.623 280.5Z" fill="#040404"/>
<path fill-rule="evenodd" clip-rule="evenodd" d="M382.123 216C371.392 211.104 365.47 210.7 359.123 215.436C357.823 216.406 356.504 217.592 355.123 219C352.884 228.127 353.673 232.818 367.123 245.5C370.82 245.5 373.448 245.52 375.637 245.536C379.073 245.561 381.425 245.579 385.123 245.5C388.301 241.83 390.78 239.36 397.623 233.5C395.515 226.48 392.767 222.623 382.123 216Z" fill="#895424"/>
<path fill-rule="evenodd" clip-rule="evenodd" d="M359.123 215.436C357.823 216.406 356.504 217.592 355.123 219C352.884 228.127 353.673 232.818 367.123 245.5C370.82 245.5 373.448 245.52 375.637 245.536C379.073 245.561 381.425 245.579 385.123 245.5C388.301 241.83 390.78 239.36 397.623 233.5C386.271 223.321 379.874 217.641 359.123 215.436Z" fill="black"/>
<path d="M397.623 233.5C395.515 226.48 392.767 222.623 382.123 216C371.392 211.104 365.47 210.7 359.123 215.436C379.874 217.641 386.271 223.321 397.623 233.5Z" fill="#773A03"/>
<path d="M457.123 320C459.211 319.534 462.576 318.165 466.403 316.35C476.324 311.644 489.341 303.936 491.202 301.178C491.264 301.792 491.328 302.399 491.393 303C487.33 307.34 474.303 314.025 465.535 317.923C461.748 319.607 458.755 320.77 457.623 321L457.123 320Z" fill="black"/>
<path d="M490.623 247.05C490.442 247.692 490.271 248.359 490.109 249.05C490.091 249.123 490.074 249.197 490.057 249.271C485.613 247.423 475.172 242.442 466.764 238.09C462.078 235.664 458.023 233.434 455.989 232.05L456.989 230.55C459.036 231.787 463.195 233.938 467.972 236.312C476.271 240.434 486.434 245.225 490.623 247.05Z" fill="black"/>
<path d="M490.159 260C490.094 260.744 490.333 260.998 490.28 261.761L490.263 262C486.818 262.642 470.14 262.607 456.215 261.729C446.276 261.103 437.74 260.047 436.421 258.5L436.623 257C437.6 258.333 446.405 259.325 456.626 259.923C470.702 260.746 487.462 260.819 490.159 260Z" fill="black"/>
<path d="M447.123 304L446.123 303C448.492 301.732 453.927 300.07 460.269 298.371C471.765 295.291 486.24 292.088 490.839 290.883C491.331 290.754 491.838 290.626 492.363 290.5V292.5C491.881 292.58 491.413 292.667 490.958 292.76C486.77 293.614 472.211 296.895 460.761 299.881C454.641 301.477 449.408 302.988 447.123 304Z" fill="#040404"/>
<path d="M432.123 290L431.623 288C435.46 286.382 445.283 283.654 455.886 281.039C469.769 277.615 484.989 274.384 489.858 274.09C490.442 274.055 491.042 274.025 491.659 274V276C491.042 276.019 490.443 276.042 489.861 276.072C485.027 276.316 469.944 279.497 456.2 282.915C445.62 285.546 435.834 288.318 432.123 290Z" fill="#040404"/>
<path fill-rule="evenodd" clip-rule="evenodd" d="M324.623 179C323.454 176.332 322.292 173.836 321.117 171.5C311.88 153.142 301.822 144.674 281.123 140.524C304.073 158.067 307.469 173.156 313.409 199.551L313.623 200.5C298.077 209.151 291.905 206.033 283.123 193.5C277.654 194.849 275.765 196.452 274.123 200.5C281.675 209.505 288.403 212.774 304.123 216C285.797 223 278.314 227.509 268.623 236.378L231.123 317.5L189.761 358L368.992 385.656L399.123 390.305L402.242 390.786C395.675 382.5 388.986 375.439 381.483 369.5C367.699 358.59 351.171 351.468 327.623 347.5L328.767 347.03C348.4 338.957 359.749 334.291 368.123 326.5L370.623 341C389.298 333.138 399.941 329.551 419.623 326.5L416.123 331C424.815 329.424 429.443 328.056 436.623 323.5C440.944 327.252 443.911 328.829 450.123 331L465.535 317.923C461.748 319.607 458.755 320.77 457.623 321L457.123 320C459.211 319.534 462.576 318.165 466.403 316.35C464.407 310.477 462.459 305.043 460.761 299.881C454.641 301.477 449.408 302.988 447.123 304L446.123 303C448.492 301.732 453.927 300.07 460.269 298.371C458.538 293 457.103 287.912 456.2 282.915C445.62 285.546 435.834 288.318 432.123 290L431.623 288C435.46 286.382 445.283 283.654 455.886 281.039C454.898 274.628 454.842 268.328 456.215 261.729C446.276 261.103 437.74 260.047 436.421 258.5L436.623 257C437.6 258.333 446.405 259.325 456.626 259.923C458.295 253.139 461.498 246.006 466.764 238.09C462.078 235.664 458.023 233.434 455.989 232.05L456.989 230.55C459.036 231.787 463.195 233.938 467.972 236.312C470.675 232.416 473.872 228.329 477.623 224C487.926 215.902 494.261 212.241 507.623 209C462.563 193.778 436.153 185.652 371.123 177.5C344.791 177.412 323.795 176.848 324.623 179ZM382.123 216C392.767 222.623 395.515 226.48 397.623 233.5C390.78 239.36 388.301 241.83 385.123 245.5C381.425 245.579 379.073 245.561 375.637 245.536C373.448 245.52 370.82 245.5 367.123 245.5C353.673 232.818 352.884 228.127 355.123 219C356.504 217.592 357.823 216.406 359.123 215.436C365.47 210.7 371.392 211.104 382.123 216Z" fill="#895424"/>
<path d="M273.892 526.698C338.25 487.258 375.065 469.151 428.392 420.698L426.521 389.092C414.976 398.839 404.579 407.356 394.623 415.129C369.312 434.888 346.844 449.834 315.569 467.923C303.892 478.698 204.123 518 191.984 516.463C144.458 524.198 115.557 522.024 66.4168 513.404C64.2269 519.063 63.1595 523.573 64.123 525.5C62.0099 535.533 60.2633 543.051 58.1237 550.277C115.875 558.236 148.129 559.785 205.123 550.277C214.623 550.277 273.892 526.698 273.892 526.698Z" fill="#37191B"/>
<path d="M137.123 402.5H144.623C121.418 424.577 110.135 439.935 91.623 470.117C88.5463 470.934 72.7652 496.999 66.4168 513.404C115.557 522.024 144.458 524.198 191.984 516.463C204.123 518 303.892 478.698 315.569 467.923C346.844 449.834 369.312 434.888 394.623 415.129H355.141L163.123 383.461C155.089 389.794 147.282 395.524 137.123 402.5Z" fill="#895424"/>
<path d="M430.123 445.5L428.392 420.698C375.065 469.151 338.25 487.258 273.892 526.698C273.892 526.698 214.623 550.277 205.123 550.277C148.129 559.785 115.875 558.236 58.1237 550.277C56.2573 556.581 54.0918 562.663 51.123 570V628C56.3723 641.574 56.2962 649.162 58.123 660.5L92.123 688.5L115.623 691.5H124.123L168.123 700.5C200.768 700.604 218.598 698.988 248.123 688C305.364 671.907 333.34 654.984 375.623 610C391.149 590.988 398.847 578.72 408.623 550.5C412.296 544.658 415.137 537.533 420.852 504.5C423.312 490.285 426.303 471.273 430.123 445.5Z" fill="#895424"/>
<path d="M369.123 184C348.038 189.191 349.679 187.699 348.123 190.5L396.623 199.5C391.191 196.316 388.3 194.575 393.623 194.5C404.742 194.737 410.98 195.523 422.123 199.5C414.464 199.028 411.997 199.79 409.123 202C444.638 217.549 451.579 219.902 457.623 221C463.667 222.098 491.827 214.5 488.123 209C484.42 203.5 420.786 185.91 369.123 181.5V184Z" fill="#773A03"/>
<path d="M90.6426 517C85.5015 530.509 85.7661 537.677 88.6426 548.832C90.059 548.057 91.3523 547.37 92.5841 546.755C90.1472 535.853 90.1929 529.318 94.6426 517.555C93.3213 517.377 91.9884 517.192 90.6426 517Z" fill="black"/>
<path d="M71.6426 556.029C66.2184 559.781 83.8835 599.085 90.6114 598.409C95.5391 597.913 97.6956 596.467 100.611 594.909C101.677 594.34 102.601 594.139 104.143 593.42L104.152 593.415C105.623 592.729 107.237 592.163 108.643 591.529C106.451 589.68 99.5215 578.619 97.9093 576.029C97.4224 575.247 96.9542 574.416 96.4998 573.529C95.4088 571.398 94.398 568.938 93.4021 566.029C93.1288 565.23 92.8566 564.398 92.5841 563.529C91.7015 560.714 90.8166 557.517 89.8835 553.853C86.0052 553.45 82.0332 553.002 77.9433 552.51L77.5412 552.462C76.3066 552.924 75.9779 552.99 75.6904 553.136C75.254 553.359 74.9123 553.767 71.6426 556.029Z" fill="#E4C9B1"/>
<path d="M77.5412 552.462L77.9433 552.51C82.0332 553.002 86.0052 553.45 89.8835 553.853C89.4801 552.269 89.0677 550.598 88.6426 548.832C87.4907 549.204 86.3182 549.572 85.1546 549.937L85.1535 549.937C82.4436 550.788 79.7818 551.623 77.5412 552.462Z" fill="#E4C9B1"/>
<path d="M107.143 519.06C105.818 518.922 104.485 518.775 103.143 518.62C100.394 530.886 100.359 536.212 103.143 542.847C104.229 542.584 105.385 542.337 106.643 542.098L106.612 541.904C105.095 535.403 104.497 531.811 107.143 519.06Z" fill="black"/>
<path d="M106.99 561.446L98.161 564.424L103.641 565.303L106.99 561.446Z" fill="#E4C9B1"/>
<path d="M98.161 564.424L93.4021 566.029L97.1184 566.529L102.006 567.186L103.641 565.303L98.161 564.424Z" fill="black"/>
<path d="M111.192 560.029C110.918 559.239 110.651 558.408 110.391 557.529L106.99 561.446L103.641 565.303L102.006 567.186L98.6703 571.029L96.4998 573.529L101.49 571.716L104.924 567.579L106.441 565.753L109.143 562.498L111.192 560.029Z" fill="black"/>
<path d="M96.4998 573.529C96.9542 574.416 97.4224 575.247 97.9093 576.029L101.49 574.62L112.143 570.428L115.7 569.029L110.729 568.36L101.49 571.716L96.4998 573.529Z" fill="black"/>
<path d="M101.49 571.716L110.729 568.36L107.827 567.97L104.924 567.579L101.49 571.716Z" fill="#E4C9B1"/>
<path d="M115.7 569.029C115.247 568.39 114.812 567.726 114.394 567.029L110.957 566.477L106.441 565.753L104.924 567.579L107.827 567.97L110.729 568.36L115.7 569.029Z" fill="black"/>
<path d="M92.5841 563.529C92.8566 564.398 93.1288 565.23 93.4021 566.029L98.161 564.424L106.99 561.446L110.391 557.529L107.143 558.623L96.1426 562.33L92.5841 563.529Z" fill="black"/>
<path d="M143.143 528.718L107.143 542.004C107.992 547.496 108.873 551.91 109.84 555.562C125.072 556.548 139.413 556.661 154.669 555.733C154.317 555.211 153.975 554.683 153.643 554.143C153.618 554.102 153.593 554.062 153.568 554.021C153.542 553.979 153.517 553.937 153.491 553.895C152.938 552.981 152.411 552.033 151.907 551.029C151.359 549.938 150.837 548.781 150.334 547.529C150.139 547.044 149.947 546.544 149.758 546.029C149.709 545.896 149.661 545.763 149.612 545.628L149.577 545.529C149.347 544.888 149.122 544.222 148.899 543.529C148.547 542.435 148.202 541.272 147.862 540.029C146.943 536.676 146.055 532.737 145.143 527.98L143.143 528.718Z" fill="#E4C9B1"/>
<path d="M126.143 584.529L161.384 568.938L162.884 568.351C161.408 566.564 155.857 557.491 154.669 555.733C139.413 556.661 125.072 556.548 109.84 555.562C110.021 556.243 110.204 556.898 110.391 557.529C110.651 558.408 110.918 559.239 111.192 560.029C112.155 562.8 113.209 565.053 114.394 567.029C114.812 567.726 115.247 568.39 115.7 569.029C117.339 571.342 123.943 582.341 126.143 584.529Z" fill="#E4C9B1"/>
<path d="M161.143 522.075C160.917 521.245 160.885 520.75 161.143 519.761C159.92 519.863 158.707 519.957 157.501 520.043C157.235 521.315 157.311 521.949 157.804 522.898C158.838 522.623 159.939 522.354 161.143 522.075Z" fill="black"/>
<path d="M170.511 549.529C170.212 549.106 169.923 548.681 169.643 548.254L169.577 548.154L169.531 548.083C169.495 548.028 169.459 547.972 169.424 547.917L166.278 547.538L162.043 547.029L160.745 548.561L166.253 549.107L170.511 549.529Z" fill="black"/>
<path d="M160.745 548.561L157.501 552.39L166.253 549.107L160.745 548.561Z" fill="#E4C9B1"/>
<path d="M153.643 554.143C153.975 554.683 154.317 555.211 154.669 555.733L156.868 554.872L168.143 550.456L170.511 549.529L166.253 549.107L157.501 552.39L153.491 553.895L153.568 554.021L153.643 554.143Z" fill="black"/>
<path d="M149.758 546.029C149.947 546.544 150.139 547.044 150.334 547.529L154.437 546.114L162.66 543.277L165.465 540.029L162.48 541.062L152.643 544.467L149.577 545.529L149.612 545.628C149.661 545.763 149.709 545.896 149.758 546.029Z" fill="black"/>
<path d="M166.278 542.029C166.065 541.539 165.858 541.04 165.658 540.529C165.624 540.444 165.591 540.358 165.558 540.272C165.527 540.191 165.496 540.11 165.465 540.029L162.66 543.277L159.667 546.743L158.306 548.319L155.103 552.029L153.491 553.895L157.501 552.39L160.745 548.561L162.043 547.029L164.524 544.099L166.278 542.029Z" fill="black"/>
<path d="M159.667 546.743L162.66 543.277L154.437 546.114L157.052 546.428L159.667 546.743Z" fill="#E4C9B1"/>
<path d="M150.334 547.529L153.491 547.821L158.306 548.319L159.667 546.743L157.052 546.428L154.437 546.114L150.334 547.529Z" fill="black"/>
<path d="M145.143 527.98C146.055 532.737 146.943 536.676 147.862 540.029C148.202 541.272 148.547 542.435 148.899 543.529C149.122 544.222 149.347 544.888 149.577 545.529L152.643 544.467C150.684 538.334 149.641 534.728 148.39 526.343C147.376 526.827 146.306 527.367 145.143 527.98Z" fill="black"/>
<path fill-rule="evenodd" clip-rule="evenodd" d="M152.643 544.467C150.684 538.334 149.641 534.728 148.39 526.343C151.661 524.784 154.362 523.811 157.804 522.898C159.244 530.867 160.307 534.755 162.48 541.062L152.643 544.467Z" fill="#E4C9B1"/>
<path d="M163.702 534.529C162.751 531.017 161.933 526.959 161.143 522.075C159.939 522.354 158.838 522.623 157.804 522.898C159.244 530.867 160.307 534.755 162.48 541.062L165.465 540.029C165.219 539.381 164.982 538.716 164.753 538.029C164.383 536.921 164.034 535.758 163.702 534.529Z" fill="black"/>
<path d="M92.5841 546.755C91.3523 547.37 90.059 548.057 88.6426 548.832C89.0677 550.598 89.4801 552.269 89.8835 553.853C91.2464 553.995 92.5976 554.131 93.9384 554.261C93.4452 552.096 93.0203 549.776 92.5841 546.755Z" fill="black"/>
<path d="M89.8835 553.853C90.8166 557.517 91.7015 560.714 92.5841 563.529L96.1426 562.33C95.2185 559.231 94.5294 556.857 93.9384 554.261C92.5976 554.131 91.2464 553.995 89.8835 553.853Z" fill="black"/>
<path fill-rule="evenodd" clip-rule="evenodd" d="M93.9384 554.261C98.0856 554.664 102.132 555.013 106.11 555.304C104.89 551.273 104.092 548.073 103.143 542.847C99.1573 543.81 96.1249 544.986 92.5841 546.755C93.0203 549.776 93.4452 552.096 93.9384 554.261Z" fill="#E4C9B1"/>
<path d="M107.143 542.004C106.974 542.036 106.808 542.067 106.643 542.098C105.385 542.337 104.229 542.584 103.143 542.847C104.092 548.073 104.89 551.273 106.11 555.304L106.287 555.317C107.124 555.378 107.958 555.437 108.79 555.493C109.14 555.516 109.49 555.539 109.84 555.562C108.873 551.91 107.992 547.496 107.143 542.004Z" fill="black"/>
<path fill-rule="evenodd" clip-rule="evenodd" d="M96.1426 562.33C95.2185 559.231 94.5294 556.857 93.9384 554.261C98.0856 554.664 102.132 555.013 106.11 555.304C106.423 556.34 106.764 557.43 107.143 558.623L96.1426 562.33Z" fill="#E4C9B1"/>
<path d="M109.84 555.562C109.49 555.539 109.14 555.516 108.79 555.493C107.958 555.437 107.124 555.378 106.287 555.317L106.11 555.304C106.423 556.34 106.764 557.43 107.143 558.623L110.391 557.529C110.204 556.898 110.021 556.243 109.84 555.562Z" fill="black"/>
<path d="M97.9093 576.029C99.5215 578.619 106.451 589.68 108.643 591.529C109.143 591.529 111.143 591.029 111.959 590.406C109.609 588.006 103.403 577.664 101.49 574.62L97.9093 576.029Z" fill="black"/>
<path fill-rule="evenodd" clip-rule="evenodd" d="M111.959 590.406C109.609 588.006 103.403 577.664 101.49 574.62L112.143 570.428C114.107 573.746 120.297 584.112 122.611 586.34C118.896 588.132 115.842 589.239 111.959 590.406Z" fill="#E4C9B1"/>
<path d="M126.143 584.529C123.943 582.341 117.339 571.342 115.7 569.029L112.143 570.428C114.107 573.746 120.297 584.112 122.611 586.34C123.643 586.029 124.643 585.529 126.143 584.529Z" fill="black"/>
<path d="M174.077 554.05C172.755 552.52 171.574 551.034 170.511 549.529L168.143 550.456L170.912 554.39C171.96 554.282 173.015 554.168 174.077 554.05Z" fill="black"/>
<path d="M178.643 561.001C178.545 560.889 177.028 558.407 176.035 556.931L176.034 556.929C175.09 555.526 174.168 554.155 174.077 554.05C173.015 554.168 171.96 554.282 170.912 554.39L176.143 562.529C176.938 562.093 177.765 561.527 178.643 561.001Z" fill="black"/>
<path fill-rule="evenodd" clip-rule="evenodd" d="M165.143 567.529C169.502 566.431 172.504 564.523 176.143 562.529L170.912 554.39C166.296 554.868 161.806 555.256 157.4 555.557L165.143 567.529Z" fill="#E4C9B1"/>
<path d="M154.669 555.733C155.857 557.491 161.408 566.564 162.884 568.351C163.784 568.351 164.643 568.029 165.143 567.529L157.4 555.557L157.153 555.574C156.322 555.63 155.494 555.683 154.669 555.733Z" fill="black"/>
<path fill-rule="evenodd" clip-rule="evenodd" d="M168.143 550.456L170.912 554.39C166.296 554.868 161.806 555.256 157.4 555.557L156.868 554.872L168.143 550.456Z" fill="#E4C9B1"/>
<path d="M156.868 554.872L154.669 555.733C155.494 555.683 156.322 555.63 157.153 555.574L157.4 555.557L156.868 554.872Z" fill="#2E302A"/>
<path fill-rule="evenodd" clip-rule="evenodd" d="M110.957 566.477L109.143 562.498L106.441 565.753L110.957 566.477Z" fill="#E4C9B1"/>
<path d="M114.394 567.029C113.209 565.053 112.155 562.8 111.192 560.029L109.143 562.498L110.957 566.477L114.394 567.029Z" fill="black"/>
<path fill-rule="evenodd" clip-rule="evenodd" d="M98.6703 571.029L102.006 567.186L97.1184 566.529C97.4611 568.469 97.8535 569.416 98.6703 571.029Z" fill="#E4C9B1"/>
<path d="M93.4021 566.029C94.398 568.938 95.4088 571.398 96.4998 573.529L98.6703 571.029C97.8535 569.416 97.4611 568.469 97.1184 566.529L93.4021 566.029Z" fill="black"/>
<path fill-rule="evenodd" clip-rule="evenodd" d="M153.491 547.821C154.01 549.779 154.242 550.182 155.289 551.997L155.103 552.029L158.306 548.319L153.491 547.821Z" fill="#E4C9B1"/>
<path fill-rule="evenodd" clip-rule="evenodd" d="M166.278 547.538C165.404 546.304 164.982 545.576 164.524 544.099L162.043 547.029L166.278 547.538Z" fill="#E4C9B1"/>
<path d="M145.143 527.98C146.306 527.367 147.376 526.827 148.39 526.343C147.817 524.661 147.769 523.436 148.39 520.547C147.28 520.59 146.173 520.626 145.071 520.655C144.242 523.983 144.388 525.52 145.143 527.98Z" fill="black"/>
<path d="M150.334 547.529C150.837 548.781 151.359 549.938 151.907 551.029C152.411 552.033 152.938 552.981 153.491 553.895L155.103 552.029L155.289 551.997C154.242 550.182 154.01 549.779 153.491 547.821L150.334 547.529Z" fill="black"/>
<path d="M167.726 545.029C167.211 544.063 166.73 543.068 166.278 542.029L164.524 544.099C164.982 545.576 165.404 546.304 166.278 547.538L169.424 547.917C168.818 546.975 168.254 546.018 167.726 545.029Z" fill="black"/>
<path d="M188.143 556.529L187.271 552.396C186.605 552.489 185.942 552.579 185.282 552.669C186.055 553.653 187.342 555.588 188.143 556.529Z" fill="#4E4945"/>
<path d="M186.487 549.226C184.232 542.119 178.665 532.52 169.643 518.938C171.76 531.453 177.685 542.897 185.048 552.368L187.225 551.997C187.04 551.117 186.794 550.195 186.487 549.226Z" fill="#4E4945"/>
<path fill-rule="evenodd" clip-rule="evenodd" d="M187.225 551.997C187.491 553.269 188.13 555.423 188.143 556.529L187.271 552.396L187.225 551.997ZM185.048 552.368C177.685 542.897 171.76 531.453 169.643 518.938L161.143 522.075C161.933 526.959 162.751 531.017 163.702 534.529C164.034 535.758 164.383 536.921 164.753 538.029C164.982 538.716 165.219 539.381 165.465 540.029C165.496 540.11 165.527 540.191 165.558 540.272C165.591 540.358 165.624 540.444 165.658 540.529C165.858 541.04 166.065 541.539 166.278 542.029C166.73 543.068 167.211 544.063 167.726 545.029C168.254 546.018 168.818 546.975 169.424 547.917C169.459 547.972 169.495 548.028 169.531 548.083L169.577 548.154L169.643 548.254C169.923 548.681 170.212 549.106 170.511 549.529C171.574 551.034 172.755 552.52 174.077 554.05C174.168 554.155 175.09 555.526 176.034 556.929L176.035 556.931C177.028 558.407 178.545 560.889 178.643 561.001L188.143 556.529C187.342 555.588 186.055 553.653 185.282 552.669C185.204 552.569 185.126 552.468 185.048 552.368Z" fill="#E4C9B1"/>
<path d="M185.282 552.669C185.942 552.579 186.605 552.489 187.271 552.396L187.225 551.997L185.048 552.368C185.126 552.468 185.204 552.569 185.282 552.669Z" fill="#4E4945"/>
<path d="M133.014 759.316L176.063 736.537L155.363 694.179L117 743.5C103.354 767.507 118.5 787.5 126 789.5C133.5 791.5 136.5 779 133.014 759.316Z" fill="black"/>
<path d="M167.325 748.526C207.894 754.126 236.545 712.263 236.545 712.263C236.545 712.263 246.951 670.599 243.218 651.712C241.686 643.96 238.694 618.063 231.439 605.75C242.199 663.858 229.582 670.311 209.852 685.707L210.141 670.577C193.754 684.214 184.607 692.665 168.455 711.057L167.323 701.121L160.01 712.019L148.621 687.148L145.026 697.582C143.553 681.17 134.798 686.405 136.761 671.389L125.19 680.256L124.115 670.817C114.165 675.141 115.062 676.613 105.706 685.66C102.608 674.601 67.8969 665.654 61.1448 652.761C52.9538 681.321 139.5 706 139.5 706C144.513 716.847 126.756 742.926 167.325 748.526Z" fill="#773A03"/>
<path d="M61.1448 652.761C67.8969 665.654 102.608 674.601 105.706 685.66C115.062 676.613 114.165 675.141 124.115 670.817L125.19 680.256L136.761 671.389C134.798 686.405 143.553 681.17 145.026 697.582L148.621 687.148L160.01 712.019L167.323 701.121L168.455 711.057C184.607 692.665 193.754 684.214 210.141 670.577L209.852 685.707C229.582 670.311 242.199 663.858 231.439 605.75L61.1448 652.761Z" fill="#895424"/>
<path d="M319.303 657.397C323.137 662.283 323.991 665.629 325.854 671.444L326.76 671.022C325.212 664.758 324.583 661.188 320.209 656.974L319.303 657.397Z" fill="black"/>
<path d="M327.643 646.887C334.298 654.02 335.166 658.43 336.696 666.201C336.707 666.258 336.718 666.315 336.729 666.373L338.542 665.528C336.678 657.134 336.156 652.18 329.456 646.042L327.643 646.887Z" fill="black"/>
<path d="M320.869 673.769C323.115 673.678 324.239 673.257 325.854 671.444C323.991 665.629 323.137 662.283 319.303 657.397L320.209 656.974C324.583 661.188 325.212 664.758 326.76 671.022C330.333 674.408 332.416 674.994 336.729 666.373L336.696 666.201C335.166 658.43 334.298 654.02 327.643 646.887L329.456 646.042C336.156 652.18 336.678 657.134 338.542 665.528C344.091 667.099 346.431 665.683 349.026 658.432C352.685 648.495 351.257 641.729 336.995 628.734C328.682 625.719 324.172 624.388 316.866 623.776C316.757 630.721 315.798 635.033 311.846 643.771C311.939 639.849 311.6 637.836 308.043 635.615C305.142 639.29 304.883 641.897 304.49 645.851L304.489 645.854C304.444 646.307 304.397 646.778 304.345 647.269C310.717 653.636 315.635 661.741 320.869 673.769Z" fill="#3E1400"/>
<path d="M303.23 566.139L310.371 525.846C312.007 520.099 313.584 515.189 315.011 510.743L315.012 510.74C315.821 508.221 316.582 505.852 317.278 503.565C321.961 488.185 315.22 471.175 306.223 456.613C317.707 486.678 318.752 500.528 307.213 517.761C305.797 514.56 304.506 512.32 302.764 509.533C302.274 541.68 301.385 550.491 299.215 557.529C295.806 555.3 294.304 553.39 293.933 546.2L289.401 548.313C287.27 539.434 284.245 533.92 277.99 523.843C276.477 534.903 273.929 540.486 268.105 549.969L264.274 534.653C258.809 557.825 254.544 571.073 246.525 594.788L242.9 596.478C235.5 586.123 231.441 579.607 224.786 563.549C225.107 573.675 226.472 581.35 229.052 590.247C215.809 576.505 209.554 562.107 204.566 501.258C205.06 550.127 208.248 570.271 224.272 593.539C227.24 597.847 230.647 602.263 234.56 606.988C240.089 611.501 244.635 615.12 250.471 618.631C257.593 622.916 266.636 627.041 281.734 632.435C286.846 634.868 291.232 637.238 295.096 639.794C298.548 642.078 301.583 644.51 304.345 647.269C304.397 646.778 304.444 646.307 304.489 645.854L304.49 645.851C304.883 641.897 305.142 639.29 308.043 635.615C311.6 637.836 311.939 639.849 311.846 643.771C315.798 635.033 316.757 630.721 316.866 623.776C324.172 624.388 328.682 625.719 336.995 628.734C335.495 627.367 333.853 625.931 332.06 624.415C318.193 607.368 310.968 595.9 305.928 577.57C304.959 574.043 304.07 570.262 303.23 566.139Z" fill="#773A03"/>
<path d="M299.215 557.529C301.385 550.491 302.274 541.68 302.764 509.533C304.506 512.32 305.797 514.56 307.213 517.761C318.752 500.528 317.707 486.678 306.223 456.613L204.566 501.258C209.554 562.107 215.809 576.505 229.052 590.247C226.472 581.35 225.107 573.675 224.786 563.549C231.441 579.607 235.5 586.123 242.9 596.478L246.525 594.788C254.544 571.073 258.809 557.825 264.274 534.653L268.105 549.969C273.929 540.486 276.477 534.903 277.99 523.843C284.245 533.92 287.27 539.434 289.401 548.313L293.933 546.2C294.304 553.39 295.806 555.3 299.215 557.529Z" fill="#895424"/>
</svg>
