<svg width="1269" height="1275" viewBox="0 0 1269 1275" fill="none" xmlns="http://www.w3.org/2000/svg">
<path d="M720.716 1049.49L728.587 1060.24L758.99 1065.55L788.064 1069.15L764.394 1078L706.004 1099.78L691.911 1105.05L687.278 1080.1L677.458 1060.81L720.716 1049.49Z" fill="#456746"/>
<path d="M518.826 1118.19L536.643 1131.03L561.51 1146.03L533.651 1146.03L460.339 1146.03L474.217 1093.66L497.413 1099.9L516.532 1094.81L518.826 1118.19Z" fill="#456746"/>
<path d="M400.229 948.557L425.72 940.52C428.841 950.409 432.273 959.703 436.286 968.753L430.156 1004.13L444.801 1026.37L408.142 1055.36L321.604 1077.46L259.788 1078.11L245.491 1060C264.748 1050.68 272.853 1047.15 283.195 1043.4C285.437 1049.69 286.325 1053.79 284.608 1066.04C286.282 1064.4 288.263 1063.15 304.626 1056.91C309.899 1058.3 312.48 1059.68 316.875 1062.47C319.526 1059.42 320.468 1057.16 319.978 1051.12C331.308 1043.31 338.111 1039.71 351.065 1034.73C359.183 1039.94 362.406 1043.78 368.428 1050.45L378.302 1045.45C373.303 1029.6 390.56 1023.32 414.077 1031.82L395.441 1015.08L406.511 1007.82L389.876 970.195L415.97 959.141L400.229 948.557Z" fill="#2D2727"/>
<path d="M225.603 1048.37C231.126 1052.53 236.044 1055.18 245.491 1060L259.788 1078.11L321.604 1077.46L408.142 1055.36L444.801 1026.37L430.156 1004.13L436.286 968.753C444.457 987.181 455.036 1004.6 470.304 1023.98L484.608 1019.47C480.633 1035.52 476.083 1052.18 447.414 1067.95L311.755 1109.78C302.982 1108.13 295.165 1106.83 287.836 1105.54C289.644 1101.64 289.897 1099.13 287.507 1093.4C283.468 1094.14 280.314 1094.19 269.994 1092.32C266.36 1097.07 265.524 1099.11 266.738 1101.36C253.29 1098.2 239.905 1093.77 222.989 1085.47L217.782 1087.11L217.719 1068.76L200.362 1074.23L200.274 1074.17C190.426 1066.81 184.873 1062.67 176.691 1050.6C184.604 1049.86 192.191 1051.09 207.378 1054.12L225.603 1048.37Z" fill="#343F31"/>
<path d="M756.831 927.737L600.734 913.569L507.434 972.456C576.607 996.613 616.804 999.685 675.401 1070.77L726.221 1047.6C744.368 1019.23 754.035 978.875 754.035 978.875C754.035 978.875 761.877 948.998 756.831 927.737Z" fill="black"/>
<path d="M741.062 418.183C750.365 433.581 753.768 442.374 756.943 458.309C752.62 461.2 750.566 461.369 747.275 459.754C737.457 451.749 736.298 450.737 732.056 447.203C733.67 444.145 733.438 439.876 733.417 433.163L741.062 418.183Z" fill="#2A2722"/>
<path d="M664.637 432.57C660.243 450.015 659.56 459.418 661.183 475.586C666.162 477.087 668.175 476.647 670.85 474.141C677.899 463.615 678.712 462.308 681.734 457.689C679.297 455.237 678.271 451.086 676.328 444.66L664.637 432.57Z" fill="#2A2722"/>
<path d="M682.035 482.847C688.214 478.215 689.572 475.254 688.93 469.462C694.674 472.821 697.571 475.006 701.526 479.934L703.037 481.191C686.585 485.068 683.37 484.891 682.035 482.847Z" fill="#A4A971"/>
<path d="M744.036 461.226C746.412 468.297 749.286 470.405 756.476 471.722C754.533 474.797 754.416 476.667 737.574 477.512C737.74 476.423 737.91 475.416 738.095 474.469C739.088 469.39 740.519 466.049 744.036 461.226Z" fill="#A4A971"/>
<path fill-rule="evenodd" clip-rule="evenodd" d="M589.212 430.499C594.602 430.188 600.147 454.068 592.897 455.152C585.54 456.94 568.553 458.908 561.888 459.292C555.223 459.676 550.743 436.75 558.203 434.639C565.664 432.528 583.823 430.81 589.212 430.499ZM577.417 434.239C583.77 442.739 580.306 453.574 580.306 453.574C580.306 453.574 574.906 446.032 577.417 434.239Z" fill="#A4A971"/>
<path fill-rule="evenodd" clip-rule="evenodd" d="M507.52 442.708C512.91 442.397 518.455 466.277 511.205 467.361C503.848 469.149 488.867 471.312 482.201 471.695C475.536 472.079 471.057 449.154 478.517 447.043C485.977 444.932 502.131 443.019 507.52 442.708ZM497.658 446.159C504.011 454.659 500.548 465.494 500.548 465.494C500.548 465.494 495.147 457.952 497.658 446.159Z" fill="#A4A971"/>
<path d="M577.417 434.239C583.77 442.739 580.306 453.574 580.306 453.574C580.306 453.574 574.906 446.032 577.417 434.239Z" fill="#D22B2B"/>
<path d="M497.658 446.159C504.011 454.659 500.548 465.494 500.548 465.494C500.548 465.494 495.147 457.952 497.658 446.159Z" fill="#D22B2B"/>
<path d="M756.476 471.722L771.945 469.41L773.245 478.111L769.378 478.689C769.323 478.681 769.273 478.689 769.227 478.711L578.924 507.152L567.54 510.336L566.456 503.086C574.178 502.916 578.195 502.704 581.441 500.846C592.823 500.731 594.747 500.174 594.976 498.823C605.638 498.361 613.569 499.193 618.178 495.356C632.661 495.11 638.405 494.539 640.414 492.032C651.56 491.484 655.251 490.336 656.416 486.676L682.035 482.847C683.37 484.891 686.585 485.068 703.037 481.191L701.526 479.934L738.095 474.469C737.91 475.416 737.74 476.423 737.574 477.512C754.416 476.667 754.533 474.797 756.476 471.722Z" fill="#2A2722"/>
<path fill-rule="evenodd" clip-rule="evenodd" d="M737.422 400.442L747.09 398.997C753.286 413.038 756.586 419.947 762.37 431.801C769.432 446.029 769.793 454.503 771.945 469.41L756.476 471.722C749.286 470.405 746.412 468.297 744.036 461.226C740.519 466.049 739.088 469.39 738.095 474.469L701.526 479.934C697.571 475.006 694.674 472.821 688.93 469.462C689.572 475.254 688.214 478.215 682.035 482.847L656.416 486.676C655.251 490.336 651.56 491.484 640.414 492.032L623.917 474.236L618.178 495.356L601.437 482.538L594.976 498.823L587.464 491.545L581.441 500.846L572.24 488.878L566.456 503.086L567.54 510.336L578.924 507.152L769.227 478.711C767.645 479.487 771.368 498.001 776.024 523.16C772.537 526.085 770.786 528.167 768.068 532.75L644.805 551.172L547.644 565.693C526.707 584.261 517.47 591.974 514.836 590.858C507.539 592.473 503.595 593.075 496.467 593.603L492.311 592.247C479.916 582.635 475.433 578.527 469.025 572.007L475.637 589.797C476.372 590.213 477.092 590.627 477.8 591.041L499.019 656.971C472.443 643.539 457.86 637.436 432.303 627.202L431.778 626.992C434.848 590.239 434.796 558.234 434.986 502.967L467.689 493.631C467.689 493.631 468.467 485.608 468.689 477.174C468.911 468.74 466.188 453.827 468.294 448.076C470.399 442.326 475.428 439.598 475.428 439.598L514.098 433.818L521.583 447.525L541.885 444.491L545.035 429.195L596.757 421.465C601.513 422.095 603.251 424.493 606.275 428.937C611.547 445.472 614.583 453.958 620.344 466.864L649.348 462.529C649.017 443.824 651.142 432.804 656.214 412.579L666.848 410.99L681.922 422.574L727.361 415.783L737.422 400.442ZM661.183 475.586C659.56 459.418 660.243 450.015 664.637 432.57L676.328 444.66C678.271 451.086 679.297 455.237 681.734 457.689C678.712 462.308 677.899 463.615 670.85 474.141C668.175 476.647 666.162 477.087 661.183 475.586ZM756.943 458.309C753.768 442.374 750.365 433.581 741.062 418.183L733.417 433.163C733.438 439.876 733.67 444.145 732.056 447.203C736.298 450.737 737.457 451.749 747.275 459.754C750.566 461.369 752.62 461.2 756.943 458.309ZM592.897 455.152C600.147 454.068 594.602 430.188 589.212 430.499C583.823 430.81 565.664 432.528 558.203 434.639C550.743 436.75 555.223 459.676 561.888 459.292C568.553 458.908 585.54 456.94 592.897 455.152ZM511.205 467.361C518.455 466.277 512.91 442.397 507.52 442.708C502.131 443.019 485.977 444.932 478.517 447.043C471.057 449.154 475.536 472.079 482.201 471.695C488.867 471.312 503.848 469.149 511.205 467.361Z" fill="#426640"/>
<path d="M623.917 474.236L640.414 492.032C638.405 494.539 632.661 495.11 618.178 495.356L623.917 474.236Z" fill="#A4A971"/>
<path d="M601.437 482.538L618.178 495.356C613.569 499.193 605.638 498.361 594.976 498.823L601.437 482.538Z" fill="#A4A971"/>
<path d="M587.464 491.545L594.976 498.823C594.747 500.174 592.823 500.731 581.441 500.846L587.464 491.545Z" fill="#A4A971"/>
<path d="M572.24 488.878L581.441 500.846C578.195 502.704 574.178 502.916 566.456 503.086L572.24 488.878Z" fill="#A4A971"/>
<path d="M418.568 518.763C423.599 512.564 427.378 509.111 434.986 502.967C434.796 558.234 434.848 590.239 431.778 626.992L420.295 632.826L405.597 640.294C404.488 633.304 403.176 629.262 398.357 621.608C404.749 615.342 409.514 611.404 420.359 603.495C412.92 596.864 408.899 592.96 403.162 584.321C408.902 576.958 412.698 572.366 423.403 561.034L412.701 552.256C417.126 546.527 420.27 543.031 427.114 536.265C423.57 529.556 421.913 525.691 418.568 518.763Z" fill="#2D2727"/>
<path d="M644.805 551.172L630.91 593.772C626.267 597.874 621.274 600.073 614.375 602.173C619.348 612.302 604.517 642.202 607.564 639.266C593.709 653.767 586.582 659.697 574.706 667.404C562.97 667.099 553.856 668.331 533.957 672.505L509.833 661.779C513.738 649.744 514.947 639.147 516.487 621.744C501.088 607.625 492.126 599.422 477.8 591.041C477.092 590.627 476.372 590.213 475.637 589.797L469.025 572.007C475.433 578.527 479.916 582.635 492.311 592.247L496.467 593.603C503.595 593.075 507.539 592.473 514.836 590.858C517.47 591.974 526.707 584.261 547.644 565.693L644.805 551.172Z" fill="#2D2727"/>
<path d="M516.487 621.744C514.947 639.147 513.738 649.744 509.833 661.779L499.019 656.971L477.8 591.041C492.126 599.422 501.088 607.625 516.487 621.744Z" fill="#714133"/>
<path d="M607.564 639.266C604.517 642.202 619.348 612.302 614.375 602.173C621.274 600.073 626.267 597.874 630.91 593.772C638.257 594.348 641.915 594.971 648.067 596.149C600.634 647.402 610.611 636.331 607.564 639.266Z" fill="#714133"/>
<path d="M555.853 962.579L587.006 925.363C607.679 943.831 614.466 983.452 614.466 983.452C617.824 989.389 564.359 1091.27 521.961 1108.48L486.66 1110.36L461.49 1111.42C461.49 1111.42 485.486 1036.58 464.675 1036C447.8 1035.52 441.253 1018.4 434.599 1000.61C427.945 982.819 439.511 983.266 432.064 960.334L555.853 962.579Z" fill="#2C1D1D"/>
<path d="M607.84 638.399C610.862 635.436 600.772 647.193 647.756 595.528L650.379 594.548C650.566 595.556 650.689 596.687 650.76 597.951C651.263 606.937 649.09 622.662 647.61 648.924C638.539 658.179 631.211 672.199 617.297 701.231C612.928 697.904 610.662 695.426 600.975 682.537L597.596 683.073L597.214 680.659C582.936 674.239 580.024 671.237 575.228 666.821C587.037 659.012 594.112 653.019 607.84 638.399Z" fill="#A8B877"/>
<path d="M510.309 661.763L534.526 672.278C530.226 680.383 523.501 686.248 518.558 693.311C517.856 694.314 517.191 695.34 516.573 696.4C510.708 707.703 508.858 711.782 505.732 718.671L505.732 718.673L505.379 719.452C501.672 719.575 499.507 719.26 495.748 718.008C487.153 709.651 482.786 705.146 476.147 697.36C459.773 682.17 452.459 676.307 442.061 669.604L421.337 638.742L420.522 633.593L431.953 627.658L432.481 627.864C458.126 637.875 472.762 643.85 499.454 657.05L510.309 661.763Z" fill="#A9B779"/>
<path d="M597.214 680.659L597.596 683.073L571.905 730.193L586.118 751.2L572.821 785.966L566.062 787.036L545.086 757.699L553.432 729.16L523.385 692.547L518.558 693.311C523.501 686.248 530.226 680.383 534.526 672.278C554.388 667.931 563.49 666.619 575.228 666.821C580.024 671.237 582.936 674.239 597.214 680.659Z" fill="black"/>
<path d="M617.297 701.231C631.211 672.199 638.539 658.179 647.61 648.924C616.554 748.833 596.841 781.564 575.176 822.706C563.016 810.626 556.821 804.578 533.738 779.785C516.654 760.703 505.6 747.559 485.991 724.243L485.816 724.035C469.106 704.896 459.412 692.365 442.061 669.604C452.459 676.307 459.773 682.17 476.147 697.36C482.786 705.146 487.153 709.651 495.748 718.008C499.507 719.26 501.672 719.575 505.379 719.452L505.732 718.673L505.732 718.671C508.858 711.782 510.708 707.703 516.573 696.4C517.191 695.34 517.856 694.314 518.558 693.311L523.385 692.547L553.432 729.16L545.086 757.699L566.062 787.036L572.821 785.966L586.118 751.2L571.905 730.193L597.596 683.073L600.975 682.537C610.662 695.426 612.928 697.904 617.297 701.231Z" fill="#74543F"/>
<path d="M582.363 868.083C602.245 864.936 606.336 894.472 587.027 897.53C567.717 900.589 562.481 871.231 582.363 868.083Z" fill="black"/>
<path d="M591.997 928.908C610.823 925.926 616.3 954.255 596.508 957.39C576.715 960.524 573.17 931.89 591.997 928.908Z" fill="black"/>
<path fill-rule="evenodd" clip-rule="evenodd" d="M575.176 822.706C596.841 781.564 616.554 748.833 647.61 648.924C649.09 622.662 651.263 606.937 650.76 597.951C684.787 608.737 666.844 601.475 698.332 613.57L736.605 727.101C734.075 745.451 738.86 756.107 739.468 761.28C738.487 746.021 740.077 766.452 739.468 761.28C725.975 796.486 739.526 892.511 757.971 933.301L642.571 1004.53L599.26 974.768L564.368 1016.91L433.218 988.695L432.487 984.078L433.825 983.156L433.214 979.294L431.379 967.708L427.038 950.581L426.72 949.282C418.421 915.406 413.651 895.933 401.085 848.3C390.961 824.616 385.866 811.058 378.365 786.084C371.877 760.002 367.96 745.814 360.243 721.655C356.26 706.462 354.101 695.998 350.742 688.74C369.263 671.916 379.72 657.959 405.89 641.188L420.522 633.593L421.337 638.742L442.061 669.604C459.412 692.365 469.106 704.896 485.816 724.035L485.991 724.243C505.6 747.559 516.654 760.703 533.738 779.785C556.821 804.578 563.016 810.626 575.176 822.706ZM582.363 868.083C602.245 864.936 606.336 894.472 587.027 897.53C567.717 900.589 562.481 871.231 582.363 868.083ZM591.997 928.908C610.823 925.926 616.3 954.255 596.508 957.39C576.715 960.524 573.17 931.89 591.997 928.908Z" fill="#252222"/>
<path d="M357.221 683.629C361.674 690.273 373.248 702.647 379.558 717.031C390.96 739.685 399.176 742.81 409.664 767.556C393.553 793.597 381.053 795.797 357.649 814.295L354.268 811.797L314.757 824.635C313.461 823.937 312.9 823.997 304.253 803.38L306.299 798.604C304.606 789.152 300.601 782.342 302.733 779.72C315.278 753.66 322.073 738.805 331.243 709.302C338.565 697.427 340.49 691.971 357.221 683.629Z" fill="#AFBE7B"/>
<path d="M442.958 869.875C441.76 868.879 437.2 879.878 434.675 880.877C425.454 883.028 422.747 887.91 415.867 889.623C400.055 868.623 381.806 845.405 353.17 842.499L355.194 820.258L357.649 814.295C381.053 795.797 393.553 793.597 409.664 767.556C409.664 767.556 424.976 830.716 418.873 840.68L400.34 818.437C398.03 819.543 397.344 820.676 396.749 823.201C408.355 831.61 417.565 839.455 429.069 852.188C433.209 858.546 440.166 861.863 442.958 869.875Z" fill="#7A3A2E"/>
<path d="M396.749 823.201C397.344 820.676 398.03 819.543 400.34 818.437L418.873 840.68C421.842 844.592 427.007 849.022 429.069 852.188C417.565 839.455 408.355 831.61 396.749 823.201Z" fill="black"/>
<path d="M315.079 831.236C315.792 827.819 317.046 826.346 314.757 824.635L354.268 811.797L357.649 814.295L355.194 820.258L353.17 842.499C381.806 845.405 400.055 868.623 415.867 889.623C399.035 893.815 402.941 902.348 387.171 907.121C381.636 918.767 384.318 932.75 372.605 940.858C364.732 928.752 325.231 893.013 306.418 872.593C308.27 859.01 309.9 850.395 315.079 831.236Z" fill="#456746"/>
<path d="M477.005 951.26C477.812 949.339 478.866 948.303 482.702 946.646C492.922 950.113 499.579 950.716 511.078 951.759L512.009 951.844C505.64 960.839 501.941 965.704 492.691 970.631C485.297 964.894 481.171 961.647 477.005 951.26Z" fill="black"/>
<path fill-rule="evenodd" clip-rule="evenodd" d="M447.182 993.648C441.574 991.502 428.389 983.041 372.445 940.965C380.474 929.198 384.472 922.524 385.465 909.668C398.477 899.561 408.205 892.241 422.417 882.296C428.226 878.231 434.784 873.727 442.622 868.415L460.063 887.623C456.649 886.98 451.528 889.905 437.164 900.507C436.544 907.283 435.543 913.533 427.15 949.495C428.504 951.65 433.11 951.797 478.704 941.708C482.449 930.725 483.674 924.246 483.565 911.986C498.651 910.945 501.541 910.305 506.448 909.179C503.747 902.406 502.675 898.035 501.597 889.209L502.554 889.062L537.974 883.649L522.259 910.841L524.719 913.879L524.021 915.347L519.366 925.132L538.527 951.124L480.413 998.184C467.768 999.076 461.746 998.939 451.18 998.586L447.182 993.648ZM482.702 946.646C478.866 948.303 477.812 949.339 477.005 951.26C481.171 961.647 485.297 964.894 492.691 970.631C501.941 965.704 505.64 960.839 512.009 951.844L511.078 951.759C499.579 950.716 492.922 950.113 482.702 946.646Z" fill="#343F31"/>
<path d="M460.063 887.623C479.275 886.816 481.779 890.693 501.597 889.209C502.675 898.035 503.747 902.406 506.448 909.179C501.541 910.305 498.651 910.945 483.565 911.986C483.674 924.246 482.449 930.725 478.704 941.708C433.11 951.797 428.504 951.65 427.15 949.495C435.543 913.533 436.544 907.283 437.164 900.507C451.528 889.905 456.649 886.98 460.063 887.623Z" fill="#456746"/>
<path d="M687.855 202.795C683.965 202.053 679.865 201.232 675.531 200.326C661.604 187.164 649.15 177.913 632.215 165.493C660.541 325.768 692.785 372.67 768.111 409.675C760.43 385.194 757.35 374.66 753.392 359.871C692.522 325.258 726.807 236.468 786.24 250.187C788.177 251.307 789.701 252.098 790.966 252.652C794.619 251.26 798.01 250.012 801.214 248.882C815.892 243.705 826.659 241.018 840.851 238.538C843.453 238.083 846.17 237.635 849.047 237.181C930.724 178.574 964.533 278.606 941.691 308.553L950.844 361.636C976.886 321.657 990.364 298.132 990.001 232.118C970.709 156.36 958.082 114.845 934.349 64.46C919.542 99.6928 917.971 109.317 905.172 139.65C863.17 176.27 853.035 179.782 832.431 189.244L830.596 189.312L805.281 190.243C798.468 191.707 792.899 194.055 785.285 198.295C782.246 199.988 778.88 201.983 774.979 204.344C749.123 209.363 731.947 211.198 687.855 202.795Z" fill="black"/>
<path d="M613.555 151.746C639.975 297.364 657.164 378.89 777.862 423.048L768.111 409.675C692.785 372.67 660.541 325.768 632.215 165.493C626.567 161.351 620.421 156.856 613.555 151.746Z" fill="#E6EAEB"/>
<path d="M679.984 197.704C649.535 169.011 636.566 162.706 613.555 151.746C620.421 156.856 626.567 161.351 632.215 165.493C649.15 177.913 661.604 187.164 675.531 200.326C679.865 201.232 683.965 202.053 687.855 202.795C685.055 200.173 683.306 199.132 679.984 197.704Z" fill="#544E2E"/>
<path d="M768.111 409.675L777.862 423.048C777.933 417.769 777.554 414.048 776.608 406.919C768.652 389.389 764.848 378.28 758.274 359.076L757.894 357.969L753.392 359.871C757.35 374.66 760.43 385.194 768.111 409.675Z" fill="#544E2E"/>
<path d="M753.392 359.871L757.894 357.969C700.939 325.548 724.196 251.125 786.309 255.395L801.668 253.47C796.706 253.542 795.514 254.641 790.966 252.652C789.701 252.098 788.177 251.307 786.24 250.187C726.807 236.468 692.522 325.258 753.392 359.871Z" fill="#544E2E"/>
<path fill-rule="evenodd" clip-rule="evenodd" d="M950.844 361.636L955.224 374.798C958.513 369.903 961.668 365.448 964.68 361.196C984.299 333.493 997.815 314.407 1002.58 238.202C992.871 182.721 983.547 146.21 944.451 49.7922C940.38 47.4953 938.155 50.0594 934.349 64.46C958.082 114.845 970.709 156.36 990.001 232.118C990.364 298.132 976.886 321.657 950.844 361.636Z" fill="#E6EAEB"/>
<path d="M941.691 308.553C964.533 278.606 930.724 178.574 849.047 237.181C846.17 237.635 843.453 238.083 840.851 238.538L842.01 244.324L852.326 242.746C899.305 186.961 969.843 258.985 935.813 309.392C944.027 355.851 948.293 369.787 955.224 374.798L950.844 361.636L941.691 308.553Z" fill="#544E2E"/>
<path d="M785.285 198.295C792.899 194.055 798.468 191.707 805.281 190.243L830.596 189.312C825.894 177.825 824.282 171.641 823.85 161.314C800.115 155.727 790.482 160.745 775.715 175.048L785.285 198.295Z" fill="#DBBF9F"/>
<path d="M842.01 244.324L840.851 238.538C826.659 241.018 815.892 243.705 801.214 248.882L801.668 253.47L860.968 454.684L868.508 467.484C879.399 470.065 889.652 469.26 899.028 460.752L897.56 443.625L842.01 244.324Z" fill="#DBBF9F"/>
<path d="M899.028 460.752C889.652 469.26 879.399 470.065 868.508 467.484L865.169 469.451C868.732 482.519 870.154 489.337 872.115 500.969C874.363 500.873 874.956 502.061 876.72 506.878C877.123 506.703 877.522 506.532 877.915 506.363C890.087 501.135 897.579 498.489 910.169 495.575C910.71 495.45 911.26 495.324 911.821 495.198C907.314 482.06 905.388 475.091 903.876 463.893C903.23 460.218 902.307 459.258 899.028 460.752Z" fill="#1C120D"/>
<path d="M924.785 546.785C923.212 552.326 922.065 555.529 895.981 570.124C898.69 580.286 901.493 590.974 904.432 602.255C930.141 587.009 934.499 582.614 933.775 578.285L924.785 546.785Z" fill="#4F3128"/>
<path d="M933.775 578.285C934.499 582.614 930.141 587.009 904.432 602.255C907.579 614.335 908.803 619.323 912.313 632.846C939.414 619.507 942.888 616.401 943.101 610.962L933.775 578.285Z" fill="#160903"/>
<path d="M943.101 610.962C942.888 616.401 939.414 619.507 912.313 632.846C912.87 634.995 915.511 644.934 916.079 647.121C924.32 653.915 931.634 652.964 951.298 639.682L943.101 610.962Z" fill="#75594D"/>
<path d="M923.703 676.365C935.029 682.531 942.473 682.135 959.495 668.401L951.298 639.682C931.634 652.964 924.32 653.915 916.079 647.121C918.515 656.5 921.051 666.239 923.703 676.365Z" fill="#140900"/>
<path d="M915.993 515.98C914.086 521.863 911.032 525.781 887.347 538.476C890.149 548.453 893.009 558.972 895.981 570.124C922.065 555.529 923.212 552.326 924.785 546.785L915.993 515.98Z" fill="#170A04"/>
<path d="M910.169 495.575C897.579 498.489 890.087 501.135 877.915 506.363C881.039 516.451 884.156 527.112 887.347 538.476C911.032 525.781 914.086 521.863 915.993 515.98L910.169 495.575Z" fill="#75594D"/>
<path d="M959.495 668.401C942.473 682.135 935.029 682.531 923.703 676.365C927.634 684.447 928.115 689.337 922.552 695.41C921.484 704.19 922.678 708.186 928.835 713.074C927.815 721.67 931.332 723.113 936.703 726.432C955.131 725.381 962.749 722.153 975.014 715.11C980.662 712.708 980.298 709.252 975.463 700.601C975.764 693.982 975.5 690.344 969.166 684.82C961.959 681.05 959.638 677.638 959.495 668.401Z" fill="#BCB3AA"/>
<path d="M726.217 724.375L689.615 611.682L699.283 610.238C710.541 606.463 709.631 614.583 708.943 608.793C714.622 607.601 719.162 606.074 730.742 600.978L753.444 641.522L755.117 644.509L741.025 704.372L726.217 724.375Z" fill="#AEBA78"/>
<path d="M753.444 641.522L730.742 600.978C737.911 597.578 742.959 597.634 747.101 598.377C749.62 591.84 755.902 586.048 765.078 576.6C780.985 568.77 787.993 564.356 799.243 556.45C807.443 554.482 811.486 554.163 816.926 553.474L814.166 564.205L826.376 593.213L823.016 611.381L830.612 628.781C807.766 627.099 795.564 625.055 775.451 618.49C765.753 627.17 758.774 629.842 753.444 641.522Z" fill="#456746"/>
<path d="M904.698 655.761C897.434 649.04 884.312 648.046 873.777 642.443L858.575 626.602L863.131 564.49C877 570.368 884.815 574.626 903.338 591.726L905.731 619.031L921.821 636.614L905.973 657.305L904.698 655.761Z" fill="#456746"/>
<path d="M726.217 724.375L741.025 704.372L755.117 644.509L753.444 641.522C758.774 629.842 765.753 627.17 775.451 618.49C795.564 625.055 807.766 627.099 830.612 628.781C836.551 640.739 841.121 646.851 848.626 653.369C850.078 654.63 851.64 655.906 853.343 657.243L853.299 657.256C841.033 660.972 834.143 663.06 824.534 663.145C813.731 660.023 806.029 658.967 785.602 659.943L788.265 665.169L824.534 663.145L810.249 699.524C796.039 705.173 787.182 703.256 782.45 705.433C777.719 707.609 744.451 721.112 726.217 724.375Z" fill="#7A3A2E"/>
<path d="M788.265 665.169L785.602 659.943C806.029 658.967 813.731 660.023 824.534 663.145L788.265 665.169Z" fill="black"/>
<path fill-rule="evenodd" clip-rule="evenodd" d="M816.926 553.474L814.166 564.205L826.376 593.213L823.016 611.381L830.612 628.781C836.551 640.739 841.121 646.851 848.626 653.369L873.777 642.443L858.575 626.602L863.131 564.49C877 570.368 884.815 574.626 903.338 591.726L905.731 619.031L921.821 636.614L905.973 657.305L909.797 661.939L910.434 662.712L938.776 681.732L937.434 648.954L943.967 645.626C943.229 640.705 942.588 638.514 941.049 635.593C952.105 628.709 958.052 623.967 968.656 615.493L933.376 546.251C930.626 544.403 927.217 542.707 922.883 540.852L930.724 571.19C938.746 608.933 913.762 613.245 903.707 582.761L903.283 581.476L886.981 537.691C885.251 538.053 883.581 538.394 881.976 538.722C872.414 540.675 865.124 542.164 860.795 544.835C847.867 546.011 836.97 548.64 818.307 553.141L816.926 553.474Z" fill="#2B2D28"/>
</svg>
