<svg width="1665" height="939" viewBox="0 0 1665 939" fill="none" xmlns="http://www.w3.org/2000/svg">
<path fill-rule="evenodd" clip-rule="evenodd" d="M1653.2 340.556C1516.16 458.794 1427.29 446.658 1301.39 387.087C1306.16 386.952 1310.81 386.83 1315.35 386.71L1315.4 386.709L1315.4 386.709C1388.82 384.779 1434.04 383.59 1493.85 340.556L1500.21 373.89C1539.85 351.409 1561.68 334.55 1564.24 306.931L1653.2 340.556Z" fill="#456746"/>
<path d="M1653.2 340.556C1618.43 276.608 1597.96 271.741 1560.82 253.657C1565.39 267.985 1565.21 296.53 1564.24 306.931L1653.2 340.556Z" fill="#D62C0C"/>
<path d="M1653.2 340.556C1516.16 458.794 1427.29 446.658 1301.39 387.087C1306.16 386.952 1310.81 386.83 1315.35 386.71M1653.2 340.556C1618.43 276.608 1597.96 271.741 1560.82 253.657C1565.39 267.985 1565.21 296.53 1564.24 306.931M1653.2 340.556L1564.24 306.931M1315.4 386.709L1315.4 386.709C1388.82 384.779 1434.04 383.59 1493.85 340.556L1500.21 373.89C1539.85 351.409 1561.68 334.55 1564.24 306.931M1315.4 386.709L1315.35 386.71M1315.4 386.709C1315.38 386.71 1315.37 386.71 1315.35 386.71" stroke="black" stroke-width="0.977507"/>
<path d="M1123.64 449.025C1125.67 445.622 1127.85 442.051 1130.18 438.288C1147.31 429.703 1160.26 421.163 1177.73 409.498C1017.43 381.298 962.329 395.556 901.792 453.683C927.423 454.839 938.376 455.546 953.626 456.886C1006.97 411.525 1078.68 474.11 1045.46 525.267C1043.75 526.704 1042.48 527.866 1041.53 528.865C1041.59 532.774 1041.6 536.387 1041.57 539.784C1041.41 555.348 1040.25 566.385 1037.73 580.569C1037.27 583.169 1036.76 585.875 1036.2 588.735C1063.34 685.53 957.777 683.088 937.447 651.381L884.436 641.827C913.097 679.972 930.593 700.682 992.75 722.92C1070.54 730.702 1113.87 733.035 1169.33 727.966C1141.29 702.002 1132.78 697.234 1108.66 674.832C1088.61 622.839 1088.77 612.114 1086.93 589.515L1087.49 587.769L1095.28 563.662C1096.23 556.759 1095.93 550.723 1094.55 542.118C1094 538.682 1093.27 534.838 1092.39 530.365C1096.52 504.35 1100.67 487.583 1123.64 449.025Z" fill="black"/>
<path d="M1197.03 396.665C1051.15 371.687 968.666 359.955 885.89 458.272L901.792 453.683C962.329 395.556 1017.43 381.298 1177.73 409.498C1183.55 405.607 1189.88 401.369 1197.03 396.665Z" fill="#E6EAEB"/>
<path d="M1131.12 443.369C1168.5 424.57 1178.86 414.54 1197.03 396.665C1189.88 401.369 1183.55 405.607 1177.73 409.498C1160.26 421.163 1147.31 429.703 1130.18 438.288C1127.85 442.051 1125.67 445.622 1123.64 449.025C1127.07 447.29 1128.64 446.002 1131.12 443.369Z" fill="#544E2E"/>
<path d="M901.792 453.683L885.89 458.272C890.827 460.144 894.453 461.061 901.475 462.61C920.669 461.129 932.409 461.355 952.704 461.745L953.874 461.767L953.626 456.886C938.376 455.546 927.423 454.839 901.792 453.683Z" fill="#544E2E"/>
<path d="M953.626 456.886L953.874 461.767C1003.82 419.335 1065.8 466.643 1040.54 523.551L1037.1 538.641C1038.73 533.954 1038.1 532.458 1041.53 528.865C1042.48 527.866 1043.75 526.704 1045.46 525.267C1078.68 474.11 1006.97 411.525 953.626 456.886Z" fill="#544E2E"/>
<path fill-rule="evenodd" clip-rule="evenodd" d="M884.436 641.827L870.569 641.44C874.044 646.206 877.151 650.694 880.117 654.978C899.439 682.889 912.751 702.118 982.731 732.66C1038.19 742.511 1075.68 746.237 1179.66 742.475C1183.21 739.435 1181.56 736.468 1169.33 727.966C1113.87 733.035 1070.54 730.702 992.75 722.92C930.593 700.682 913.097 679.972 884.436 641.827Z" fill="#E6EAEB"/>
<path d="M937.447 651.381C957.777 683.088 1063.34 685.53 1036.2 588.735C1036.76 585.875 1037.27 583.169 1037.73 580.569L1031.9 579.679L1029.85 589.912C1066.2 653.138 974.398 694.788 938.67 645.571C892.203 637.399 877.648 636.641 870.569 641.44L884.436 641.827L937.447 651.381Z" fill="#544E2E"/>
<path d="M1094.55 542.118C1095.93 550.723 1096.23 556.759 1095.28 563.662L1087.49 587.769C1099.9 587.278 1106.26 587.879 1116.11 591.005C1129.48 570.612 1128.06 559.844 1119.67 541.076L1094.55 542.118Z" fill="#DBBF9F"/>
<path d="M1031.9 579.679L1037.73 580.569C1040.25 566.385 1041.41 555.348 1041.57 539.784L1037.1 538.641L827.738 525.546L813.131 528.254C806.981 537.605 804.231 547.515 809.019 559.235L825.615 563.714L1031.9 579.679Z" fill="#DBBF9F"/>
<path d="M809.019 559.235C804.231 547.515 806.981 537.605 813.131 528.254L812.424 524.443C798.927 523.322 792.033 522.326 780.432 520.19C779.754 522.335 778.435 522.487 773.305 522.496C773.33 522.935 773.356 523.369 773.38 523.796C774.13 537.021 774.053 544.967 772.485 557.794C772.418 558.345 772.348 558.906 772.275 559.476C786.162 559.734 793.369 560.307 804.409 562.717C808.084 563.367 809.301 562.828 809.019 559.235Z" fill="#1C120D"/>
<path d="M719.365 554.014C714.696 550.64 712.078 548.467 707.285 518.965C696.809 518.035 685.807 517.013 674.202 515.917C679.734 545.29 682.374 550.888 686.69 551.688L719.365 554.014Z" fill="#4F3128"/>
<path d="M686.69 551.688C682.374 550.888 679.734 545.29 674.202 515.917C661.774 514.742 656.668 514.187 642.759 512.859C646.025 542.888 647.756 547.215 652.793 549.276L686.69 551.688Z" fill="#160903"/>
<path d="M652.793 549.276C647.756 547.215 646.025 542.888 642.759 512.859C640.55 512.649 630.307 511.73 628.058 511.516C618.855 516.937 617.247 524.134 623.002 547.155L652.793 549.276Z" fill="#75594D"/>
<path d="M597.97 508.679C588.302 517.212 586.128 524.343 593.212 545.035L623.002 547.155C617.247 524.134 618.855 516.937 628.058 511.516C618.411 510.598 608.392 509.65 597.97 508.679Z" fill="#140900"/>
<path d="M751.319 556.288C746.444 552.484 743.806 548.274 739.977 521.676C729.644 520.897 718.781 519.986 707.285 518.965C712.078 548.467 714.696 550.64 719.365 554.014L751.319 556.288Z" fill="#170A04"/>
<path d="M772.485 557.794C774.053 544.967 774.13 537.021 773.38 523.796C762.831 523.281 751.748 522.564 739.977 521.676C743.806 548.274 746.444 552.484 751.319 556.288L772.485 557.794Z" fill="#75594D"/>
<path d="M593.212 545.035C586.128 524.343 588.302 517.212 597.97 508.679C589.031 509.608 584.271 508.388 580.467 501.083C572.582 497.076 568.418 496.832 561.719 500.945C553.991 497.048 551.432 499.858 546.476 503.77C541.161 521.446 541.588 529.709 544.012 543.643C544.338 549.772 547.709 550.612 557.492 549.028C563.609 551.575 567.118 552.57 574.476 548.508C580.482 543.025 584.483 542.01 593.212 545.035Z" fill="#BCB3AA"/>
<path d="M643.128 415.846L654.814 263.847L736.867 320.408C736.564 332.277 729.244 328.645 734.92 329.979C734.098 335.723 733.981 340.512 734.809 353.137L688.945 360.603L685.566 361.153L649.816 328.851L643.128 415.846Z" fill="#AEBA78"/>
<path d="M688.945 360.603L734.809 353.137C735.551 361.036 733.772 365.76 731.658 369.399C736.939 374.002 740.232 381.885 745.972 393.739C747.889 411.365 749.641 419.46 753.222 432.736C752.267 441.114 751.184 445.022 749.971 450.37L740.831 444.106L709.396 445.658L693.473 436.288L674.524 437.474C683.919 416.581 690.013 405.814 703.061 389.16C698.221 377.078 698.098 369.606 688.945 360.603Z" fill="#456746"/>
<path d="M623.833 497.865C632.633 493.338 638.055 481.346 646.923 473.363L667.009 464.496L723.817 490.021C713.549 501.043 706.875 506.931 684.471 518.488L657.995 511.398L635.969 520.504L621.946 498.535L623.833 497.865Z" fill="#456746"/>
<path d="M643.128 415.846L649.816 328.851L685.566 361.153L688.945 360.603C698.098 369.606 698.221 377.078 703.061 389.16C690.013 405.814 683.919 416.581 674.524 437.474C661.256 438.965 653.95 441.169 645.258 445.992C643.577 446.925 641.843 447.956 640.004 449.099L640.007 449.054C640.71 436.257 641.106 429.068 644.312 420.01C650.941 410.926 654.567 404.049 660.636 384.521L654.814 385.235L644.312 420.01L643.128 415.846Z" fill="#7A3A2E"/>
<path d="M654.814 385.235L660.636 384.521C654.567 404.049 650.941 410.926 644.312 420.01L654.814 385.235Z" fill="black"/>
<path fill-rule="evenodd" clip-rule="evenodd" d="M749.971 450.37L740.831 444.106L709.396 445.658L693.473 436.288L674.524 437.474C661.256 438.965 653.95 441.169 645.258 445.992L646.923 473.363L667.009 464.496L723.817 490.021C713.549 501.043 706.875 506.931 684.471 518.488L657.995 511.398L635.969 520.504L621.946 498.535L616.283 500.543L615.339 500.878L587.773 521.005L619.032 530.955L619.926 538.231C624.803 539.222 627.081 539.368 630.351 538.921C633.039 551.666 635.461 558.876 639.797 571.738L716.93 562.268C719.607 560.316 722.367 557.692 725.592 554.254L694.403 551.246C656.191 545.876 660.685 520.923 692.769 521.901L694.121 521.942L740.841 521.599C741.093 519.849 741.344 518.163 741.585 516.542C743.02 506.889 744.114 499.529 743.085 494.549C746.401 481.997 747.658 470.858 749.812 451.782L749.971 450.37Z" fill="#2B2D28"/>
<path d="M519.936 659.522L523.655 672.317L550.409 687.704L576.499 701.028L551.23 701.249L488.911 701.749L473.865 701.88L478.046 676.85L475.414 655.367L519.936 659.522Z" fill="#456746"/>
<path d="M312.393 662.908L312.393 683.687L339.12 701.282L307.35 701.282L247.911 669.067L278.865 624.6L298.527 638.4L318.235 640.15L312.393 662.908Z" fill="#456746"/>
<path d="M318.928 480.019L340.552 495.729C334.459 504.121 329.029 512.408 324.141 521.017L292.053 537.135L282.889 562.134L237.78 549.909L168.538 493.492L131.249 444.185L137.3 421.923C156.25 431.857 163.904 436.274 173.07 442.358C169.353 447.897 166.585 451.05 155.712 456.96C158.03 457.327 160.213 458.177 174.965 467.616C176.978 472.686 177.405 475.58 177.781 480.77C181.805 481.091 184.184 480.502 188.745 476.517C201.765 480.978 208.703 484.307 220.418 491.754C221.057 501.379 219.883 506.256 218.104 515.064L227.995 520.029C237.766 506.58 253.082 516.714 260.236 540.676L262.605 515.74L275.025 520.32L295.377 484.568L319.784 498.968L318.928 480.019Z" fill="#2D2727"/>
<path d="M134.82 399.017C134.767 405.927 135.562 411.457 137.3 421.923L131.249 444.185L168.538 493.492L237.78 549.909L282.889 562.134L292.053 537.135L324.141 521.017C314.188 538.547 306.478 557.412 299.979 581.214L312.113 590.031C296.845 596.383 280.751 602.631 251.022 588.965L136.704 504.797C132.812 496.763 129.207 489.706 125.881 483.05C130.094 482.181 132.265 480.89 135.449 475.561C132.445 472.759 130.53 470.253 125.894 460.844C119.918 460.746 117.783 461.285 116.695 463.602C111.235 450.912 106.834 437.516 103.442 418.984L99.0244 415.774L113.741 404.807L99.0174 394.11L99.018 394C99.0717 381.709 99.102 374.778 103.932 361.026C109.238 366.943 112.763 373.774 119.36 387.785L134.82 399.017Z" fill="#343F31"/>
<path d="M603.019 578.849L461.181 512.148L353.367 535.572C410.106 581.931 482.137 609.96 476.337 680.642L532.019 676.246C562.293 655.903 589.663 612.403 589.663 612.403C589.663 612.403 600.489 600.554 603.019 578.849Z" fill="black"/>
<path d="M762.482 94.6305C765.957 112.282 766.148 121.708 763.681 137.768C758.63 139.007 756.642 138.463 754.102 135.82C747.614 124.939 746.871 123.592 744.094 118.82C746.656 116.499 747.898 112.408 750.175 106.092L762.482 94.6305Z" fill="#2A2722"/>
<path d="M685.746 82.0109C675.649 96.9016 671.791 105.504 667.787 121.251C671.952 124.364 673.995 124.64 677.366 123.2C687.589 115.72 688.8 114.77 693.22 111.463C691.769 108.325 692.224 104.074 692.596 97.3701L685.746 82.0109Z" fill="#2A2722"/>
<path d="M684.898 135.207C692.289 132.967 694.577 130.649 695.955 124.987C700.204 130.108 702.179 133.152 704.21 139.136L705.2 140.833C688.415 138.849 685.454 137.584 684.898 135.207Z" fill="#A4A971"/>
<path d="M750.555 136.095C750.369 143.552 752.349 146.516 758.655 150.213C755.777 152.437 755.027 154.155 738.913 149.189C739.441 148.222 739.945 147.334 740.443 146.507C743.113 142.074 745.6 139.425 750.555 136.095Z" fill="#A4A971"/>
<path fill-rule="evenodd" clip-rule="evenodd" d="M615.577 54.2683C620.748 55.8191 617.792 80.156 610.608 78.6944C603.083 77.8583 586.447 73.8983 580.053 71.9792C573.659 70.06 577.29 46.9852 585.023 47.5531C592.755 48.121 610.406 52.7175 615.577 54.2683ZM603.214 53.7481C606.277 63.9082 599.316 72.9057 599.316 72.9057C599.316 72.9057 596.821 63.9715 603.214 53.7481Z" fill="#A4A971"/>
<path fill-rule="evenodd" clip-rule="evenodd" d="M534.636 37.8007C539.807 39.3515 536.851 63.6883 529.667 62.2267C522.142 61.3906 507.325 58.2994 500.93 56.3802C494.536 54.461 498.167 31.3863 505.9 31.9542C513.632 32.5221 529.465 36.2499 534.636 37.8007ZM524.189 37.6702C527.252 47.8303 520.291 56.8278 520.291 56.8278C520.291 56.8278 517.796 47.8937 524.189 37.6702Z" fill="#A4A971"/>
<path d="M603.214 53.7481C606.277 63.9082 599.316 72.9057 599.316 72.9057C599.316 72.9057 596.821 63.9715 603.214 53.7481Z" fill="#D22B2B"/>
<path d="M524.189 37.6702C527.252 47.8303 520.291 56.8278 520.291 56.8278C520.291 56.8278 517.796 47.8937 524.189 37.6702Z" fill="#D22B2B"/>
<path d="M758.655 150.213L773.981 153.331L772.227 161.952L768.396 161.172C768.347 161.146 768.297 161.136 768.247 161.142L579.693 122.78L567.906 121.878L569.367 114.694C576.682 117.176 580.529 118.35 584.215 117.715C594.95 121.499 596.949 121.634 597.625 120.443C607.802 123.655 614.97 127.149 620.614 125.12C634.308 129.843 639.9 131.271 642.646 129.603C653.307 132.9 657.168 133.083 659.514 130.042L684.898 135.207C685.454 137.584 688.415 138.849 705.2 140.833L704.21 139.136L740.443 146.507C739.945 147.334 739.441 148.222 738.913 149.189C755.027 154.155 755.777 152.437 758.655 150.213Z" fill="#2A2722"/>
<path fill-rule="evenodd" clip-rule="evenodd" d="M765.129 76.7148L774.708 78.6636C775.729 93.9764 776.466 101.598 777.848 114.715C779.617 130.5 777.058 138.587 773.981 153.331L758.655 150.213C752.349 146.516 750.369 143.552 750.555 136.095C745.6 139.425 743.113 142.074 740.443 146.507L704.21 139.136C702.179 133.152 700.204 130.108 695.955 124.987C694.577 130.649 692.289 132.967 684.898 135.207L659.514 130.042C657.168 133.083 653.307 132.9 642.646 129.603L633.23 107.238L620.614 125.12L609.267 107.35L597.625 120.443L593.055 111.034L584.215 117.715L579.661 103.322L569.367 114.694L567.906 121.878L579.693 122.78L768.247 161.142C766.494 161.329 763.66 180 759.431 205.235C755.154 206.791 752.797 208.148 748.675 211.525L626.545 186.678L530.277 167.092C504.252 177.379 492.934 181.468 490.841 179.518C483.431 178.54 479.52 177.757 472.641 175.815L469.199 173.12C460.839 159.848 458.032 154.454 454.24 146.135L454.368 165.115C454.917 165.756 455.452 166.392 455.975 167.023L453.366 236.234C432.986 214.522 421.37 203.8 400.855 185.443L400.433 185.065C415.888 151.579 426.785 121.486 445.867 69.617L479.791 72.03C479.791 72.03 483.265 64.7567 486.359 56.907C489.452 49.0573 491.994 34.1127 495.939 29.429C499.885 24.7453 505.543 23.9013 505.543 23.9013L543.858 31.6967L546.203 47.1368L566.319 51.2294L574.511 37.933L625.757 48.3592C630.011 50.5781 630.824 53.4257 632.145 58.6367C631.444 75.9768 631.395 84.9897 632.395 99.0875L661.131 104.934C667.218 87.2438 672.984 77.616 684.667 60.3446L695.204 62.4883L705.407 78.5296L750.428 87.6891L765.129 76.7148ZM667.787 121.251C671.791 105.504 675.649 96.9016 685.746 82.0109L692.596 97.3701C692.224 104.074 691.769 108.325 693.22 111.463C688.8 114.77 687.589 115.72 677.366 123.2C673.995 124.64 671.952 124.364 667.787 121.251ZM763.681 137.768C766.148 121.708 765.957 112.282 762.482 94.6305L750.175 106.092C747.898 112.408 746.656 116.499 744.094 118.82C746.871 123.592 747.614 124.939 754.102 135.82C756.642 138.463 758.63 139.007 763.681 137.768ZM610.608 78.6944C617.792 80.156 620.748 55.8191 615.577 54.2683C610.406 52.7175 592.755 48.121 585.023 47.5531C577.29 46.9852 573.659 70.06 580.053 71.9792C586.447 73.8983 603.083 77.8583 610.608 78.6944ZM529.667 62.2267C536.851 63.6883 539.807 39.3515 534.636 37.8007C529.465 36.2499 513.632 32.5221 505.9 31.9542C498.167 31.3863 494.536 54.461 500.93 56.3802C507.325 58.2994 522.142 61.3906 529.667 62.2267Z" fill="#426640"/>
<path d="M633.23 107.238L642.646 129.603C639.9 131.271 634.308 129.843 620.614 125.12L633.23 107.238Z" fill="#A4A971"/>
<path d="M609.267 107.35L620.614 125.12C614.97 127.149 607.802 123.655 597.625 120.443L609.267 107.35Z" fill="#A4A971"/>
<path d="M593.055 111.034L597.625 120.443C596.949 121.634 594.95 121.499 584.215 117.715L593.055 111.034Z" fill="#A4A971"/>
<path d="M579.661 103.322L584.215 117.715C580.529 118.35 576.682 117.176 569.367 114.694L579.661 103.322Z" fill="#A4A971"/>
<path d="M425.036 78.8456C431.884 74.7409 436.616 72.789 445.867 69.617C426.785 121.486 415.888 151.579 400.433 185.065L387.647 186.62L371.282 188.611C372.63 181.664 372.779 177.416 370.869 168.576C379.019 164.873 384.843 162.803 397.739 159.08C393.017 150.304 390.573 145.261 388.137 135.181C396.05 130.225 401.186 127.208 415.122 120.221L408.068 108.312C414.186 104.442 418.336 102.232 427.08 98.2147C426.045 90.6988 425.81 86.5 425.036 78.8456Z" fill="#2D2727"/>
<path d="M626.545 186.678L598.918 221.956C593.152 224.223 587.708 224.581 580.507 224.195C581.715 235.414 557.552 258.438 561.42 256.722C543.441 265.609 534.715 268.744 520.919 271.924C509.996 267.624 501.01 265.665 480.883 262.781L461.883 244.451C469.668 234.477 474.429 224.933 481.828 209.107C472.187 190.572 466.571 179.798 455.975 167.023C455.452 166.392 454.917 165.756 454.368 165.115L454.24 146.135C458.032 154.454 460.839 159.848 469.199 173.12L472.641 175.815C479.52 177.757 483.431 178.54 490.841 179.518C492.934 181.468 504.252 177.379 530.277 167.092L626.545 186.678Z" fill="#2D2727"/>
<path d="M481.828 209.107C474.429 224.933 469.668 234.477 461.883 244.451L453.366 236.234L455.975 167.023C466.571 179.798 472.187 190.572 481.828 209.107Z" fill="#714133"/>
<path d="M561.42 256.722C557.552 258.438 581.715 235.414 580.507 224.195C587.708 224.581 593.152 224.223 598.918 221.956C605.624 225.01 608.848 226.847 614.227 230.058C552.126 261.997 565.287 255.006 561.42 256.722Z" fill="#714133"/>
<path d="M402.245 542.851L444.249 518.534C457.358 542.959 450.185 582.511 450.185 582.511C451.31 589.239 366.223 666.694 320.495 668.363L286.681 658.056L262.665 650.446C262.665 650.446 310.811 588.325 291.455 580.657C275.76 574.44 275.466 556.108 275.297 537.116C275.129 518.123 285.845 522.499 286.69 498.403L402.245 542.851Z" fill="#2C1D1D"/>
<path d="M561.976 256.001C565.829 254.251 552.327 261.848 614.148 229.368L616.948 229.344C616.778 230.355 616.508 231.46 616.142 232.673C613.542 241.288 606.121 255.322 595.748 279.494C584.058 285.089 572.377 295.757 549.373 318.279C546.405 313.658 545.124 310.555 540.429 295.13L537.071 294.477L537.537 292.079C526.316 281.163 524.606 277.346 521.61 271.556C535.378 268.256 544.076 265.045 561.976 256.001Z" fill="#A8B877"/>
<path d="M462.336 244.6L481.496 262.763C474.683 268.908 466.358 272.12 459.297 277.066C458.295 277.768 457.319 278.505 456.376 279.29C446.999 287.905 443.865 291.105 438.572 296.51L438.571 296.511L437.972 297.122C434.447 295.97 432.521 294.934 429.416 292.472C424.198 281.679 421.635 275.953 418.06 266.365C407.868 246.491 403.001 238.48 395.522 228.625L386.604 192.536L387.599 187.418L400.37 185.752L400.796 186.126C421.47 204.304 433.18 214.924 453.748 236.457L462.336 244.6Z" fill="#A9B779"/>
<path d="M537.537 292.079L537.071 294.477L496.813 329.969L502.984 354.571L478.598 382.692L471.881 381.386L462.204 346.644L479.807 322.681L464.095 277.999L459.297 277.066C466.358 272.12 474.683 268.908 481.496 262.763C501.647 265.471 510.649 267.351 521.61 271.556C524.606 277.346 526.316 281.163 537.537 292.079Z" fill="black"/>
<path d="M549.373 318.279C572.377 295.757 584.058 285.089 595.748 279.494C532.394 362.756 502.676 386.771 468.245 418.022C460.951 402.511 457.197 394.709 443.987 363.517C434.459 339.743 428.567 323.61 418.115 294.994L418.022 294.738C408.866 271.039 404.042 255.948 395.522 228.625C403.001 238.48 407.868 246.491 418.06 266.365C421.635 275.953 424.198 281.679 429.416 292.472C432.521 294.934 434.447 295.97 437.972 297.122L438.571 296.511L438.572 296.51C443.865 291.105 446.999 287.905 456.376 279.29C457.319 278.505 458.295 277.768 459.297 277.066L464.095 277.999L479.807 322.681L462.204 346.644L471.881 381.386L478.598 382.692L502.984 354.571L496.813 329.969L537.071 294.477L540.429 295.13C545.124 310.555 546.405 313.658 549.373 318.279Z" fill="#74543F"/>
<path d="M459.479 463.121C479.238 466.963 472.981 496.117 453.79 492.387C434.599 488.657 439.719 459.278 459.479 463.121Z" fill="black"/>
<path d="M447.728 523.572C466.439 527.209 461.897 555.703 442.226 551.879C422.555 548.055 429.017 519.935 447.728 523.572Z" fill="black"/>
<path fill-rule="evenodd" clip-rule="evenodd" d="M468.245 418.022C502.676 386.771 532.394 362.756 595.748 279.494C606.121 255.322 613.542 241.288 616.142 232.673C644.428 254.446 630.051 241.484 655.503 263.62L652.638 383.394C643.984 399.772 644.836 411.423 643.639 416.491C647.935 401.817 642.441 421.56 643.639 416.491C618.918 444.959 598.809 539.828 602.191 584.467L469.39 611.928L438.869 569.151L391.667 596.82L278.077 525.448L278.969 520.859L280.542 520.451L281.288 516.613L283.526 505.098L285.306 487.519L285.451 486.19C289.239 451.518 291.417 431.588 295.9 382.53C294.486 356.812 294.336 342.328 295.829 316.295C298.653 289.567 299.825 274.895 300.836 249.554C302.29 233.914 303.839 223.343 303.166 215.374C326.323 205.9 340.924 196.36 371.251 189.552L387.599 187.418L386.604 192.536L395.522 228.625C404.042 255.948 408.866 271.039 418.022 294.738L418.115 294.994C428.567 323.61 434.459 339.743 443.987 363.517C457.197 394.709 460.951 402.511 468.245 418.022ZM459.479 463.121C479.238 466.963 472.981 496.117 453.79 492.387C434.599 488.657 439.719 459.278 459.479 463.121ZM447.728 523.572C466.439 527.209 461.897 555.703 442.226 551.879C422.555 548.055 429.017 519.935 447.728 523.572Z" fill="#252222"/>
<path d="M307.484 214.056C306.902 222.033 308.405 238.909 304.522 254.129C299.559 279 304.109 286.521 297.139 312.479C268.411 323.08 257.207 317.118 227.375 317.286L226.249 313.235L187.21 299.026C186.619 297.679 186.14 297.381 192.019 275.811L196.571 273.307C201.057 264.816 202.094 256.984 205.387 256.231C231.317 243.419 245.817 235.896 271.207 218.293C284.288 213.443 289.164 210.329 307.484 214.056Z" fill="#AFBE7B"/>
<path d="M260.382 413.605C260.05 412.082 249.686 417.942 247.081 417.175C238.491 413.193 233.352 415.373 226.875 412.488C227.345 386.204 227.259 356.673 206.482 336.753L221.77 320.473L227.375 317.286C257.207 317.118 268.411 323.08 297.139 312.479C297.139 312.479 270.32 371.676 259.376 375.77L258.466 346.832C255.965 346.282 254.727 346.752 252.703 348.375C256.672 362.147 259.1 374 260.326 391.117C259.674 398.675 263.114 405.572 260.382 413.605Z" fill="#7A3A2E"/>
<path d="M252.703 348.375C254.727 346.752 255.965 346.282 258.466 346.832L259.376 375.77C259.307 380.681 260.651 387.352 260.326 391.117C259.1 374 256.672 362.147 252.703 348.375Z" fill="black"/>
<path d="M183.4 304.427C186.065 302.173 187.961 301.784 187.21 299.026L226.249 313.235L227.375 317.286L221.77 320.473L206.482 336.753C227.259 356.673 227.345 386.204 226.875 412.488C211.031 405.428 208.855 414.557 193.49 408.609C181.958 414.379 175.462 427.048 161.241 426.227C162.49 411.84 153.366 359.357 151.113 331.684C160.935 322.121 167.523 316.336 183.4 304.427Z" fill="#456746"/>
<path d="M237.108 498.698C238.926 497.682 240.394 497.514 244.438 498.57C250.357 507.595 255.231 512.168 263.651 520.07L264.332 520.709C253.775 523.877 247.865 525.433 237.543 523.621C235.248 514.547 233.996 509.449 237.108 498.698Z" fill="black"/>
<path fill-rule="evenodd" clip-rule="evenodd" d="M187.51 513.74C184.412 508.596 179.232 493.811 161.052 426.213C174.623 421.884 181.882 419.086 190.58 409.566C207.056 409.613 219.228 409.834 236.55 410.746C243.63 411.119 251.571 411.608 261.018 412.247L262.936 438.122C260.642 435.513 254.805 434.665 236.959 434.176C232.299 439.134 227.662 443.443 198.908 466.614C198.648 469.146 202.187 472.098 244.327 492.218C254.04 485.868 258.994 481.517 266.456 471.789C278.985 480.256 281.656 481.532 286.217 483.665C288.258 476.665 290.105 472.561 294.689 464.942L295.533 465.416L326.777 482.957L297.653 494.709L297.721 498.618L296.267 499.345L286.575 504.19L285.672 536.468L210.904 537.773C200.39 530.691 195.73 526.875 187.621 520.093L187.51 513.74ZM244.438 498.57C240.394 497.514 238.926 497.682 237.108 498.698C233.996 509.449 235.248 514.547 237.543 523.621C247.865 525.433 253.775 523.877 264.332 520.709L263.651 520.07C255.231 512.168 250.357 507.595 244.438 498.57Z" fill="#343F31"/>
<path d="M262.936 438.122C278.572 449.314 278.158 453.91 294.689 464.942C290.105 472.561 288.258 476.665 286.217 483.665C281.656 481.532 278.985 480.256 266.456 471.789C258.994 481.517 254.04 485.868 244.327 492.218C202.187 472.098 198.648 469.146 198.908 466.614C227.662 443.443 232.299 439.134 236.959 434.176C254.805 434.665 260.642 435.513 262.936 438.122Z" fill="#456746"/>
</svg>
