<svg width="1353" height="952" viewBox="0 0 1353 952" fill="none" xmlns="http://www.w3.org/2000/svg">
<path d="M1163.07 462.769C1165.09 459.367 1167.27 455.795 1169.6 452.032C1186.73 443.447 1199.69 434.907 1217.15 423.242C1056.85 395.042 1001.75 409.3 941.214 467.427C966.845 468.583 977.798 469.29 993.048 470.63C1046.39 425.269 1118.1 487.854 1084.88 539.011C1083.17 540.448 1081.9 541.61 1080.95 542.609C1081.01 546.518 1081.02 550.131 1080.99 553.529C1080.83 569.092 1079.67 580.129 1077.15 594.313C1076.69 596.913 1076.18 599.62 1075.62 602.479C1102.76 699.274 997.198 696.832 976.869 665.125L923.858 655.571C952.518 693.716 970.015 714.426 1032.17 736.664C1109.96 744.446 1153.29 746.78 1208.75 741.71C1180.71 715.746 1172.2 710.978 1148.08 688.576C1128.03 636.583 1128.2 625.858 1126.35 603.26L1126.92 601.513L1134.7 577.406C1135.65 570.503 1135.35 564.467 1133.97 555.862C1133.42 552.427 1132.7 548.582 1131.81 544.109C1135.94 518.095 1140.09 501.327 1163.07 462.769Z" fill="black"/>
<path d="M1236.45 410.409C1090.58 385.431 1008.09 373.7 925.312 472.016L941.214 467.427C1001.75 409.3 1056.85 395.042 1217.15 423.242C1222.97 419.351 1229.3 415.113 1236.45 410.409Z" fill="#E6EAEB"/>
<path d="M1170.54 457.113C1207.92 438.314 1218.28 428.284 1236.45 410.409C1229.3 415.113 1222.97 419.351 1217.15 423.242C1199.69 434.907 1186.73 443.447 1169.6 452.032C1167.27 455.795 1165.09 459.367 1163.07 462.769C1166.49 461.034 1168.06 459.746 1170.54 457.113Z" fill="#544E2E"/>
<path d="M941.214 467.427L925.312 472.016C930.249 473.888 933.875 474.805 940.897 476.354C960.091 474.873 971.831 475.099 992.126 475.489L993.296 475.511L993.048 470.63C977.798 469.29 966.845 468.583 941.214 467.427Z" fill="#544E2E"/>
<path d="M993.048 470.63L993.296 475.511C1043.24 433.079 1105.22 480.387 1079.97 537.295L1076.52 552.386C1078.15 547.698 1077.53 546.203 1080.95 542.609C1081.9 541.61 1083.17 540.448 1084.88 539.011C1118.1 487.854 1046.39 425.269 993.048 470.63Z" fill="#544E2E"/>
<path fill-rule="evenodd" clip-rule="evenodd" d="M923.858 655.571L909.99 655.185C913.466 659.95 916.573 664.438 919.539 668.722C938.861 696.633 952.173 715.862 1022.15 746.404C1077.61 756.255 1115.11 759.981 1219.08 756.219C1222.63 753.18 1220.98 750.212 1208.75 741.71C1153.29 746.78 1109.96 744.446 1032.17 736.664C970.015 714.426 952.518 693.716 923.858 655.571Z" fill="#E6EAEB"/>
<path d="M976.869 665.125C997.198 696.832 1102.76 699.274 1075.62 602.479C1076.18 599.62 1076.69 596.913 1077.15 594.313L1071.32 593.423L1069.27 603.656C1105.63 666.882 1013.82 708.532 978.092 659.315C931.625 651.143 917.07 650.385 909.99 655.185L923.858 655.571L976.869 665.125Z" fill="#544E2E"/>
<path d="M1133.97 555.862C1135.35 564.467 1135.65 570.503 1134.7 577.406L1126.92 601.513C1139.32 601.022 1145.68 601.623 1155.53 604.749C1168.9 584.356 1167.48 573.588 1159.09 554.82L1133.97 555.862Z" fill="#DBBF9F"/>
<path d="M1071.32 593.423L1077.15 594.313C1079.67 580.129 1080.83 569.092 1080.99 553.529L1076.52 552.386L867.16 539.291L852.553 541.998C846.403 551.349 843.653 561.259 848.441 572.979L865.037 577.458L1071.32 593.423Z" fill="#DBBF9F"/>
<path d="M848.441 572.979C843.653 561.259 846.403 551.349 852.553 541.998L851.846 538.187C838.348 537.066 831.455 536.07 819.854 533.934C819.175 536.08 817.856 536.231 812.726 536.241C812.752 536.68 812.777 537.113 812.802 537.54C813.551 550.766 813.475 558.711 811.907 571.538C811.84 572.09 811.77 572.65 811.697 573.22C825.584 573.479 832.791 574.051 843.83 576.461C847.506 577.111 848.723 576.572 848.441 572.979Z" fill="#1C120D"/>
<path d="M758.787 567.758C754.118 564.384 751.5 562.212 746.707 532.709C736.231 531.779 725.229 530.758 713.624 529.661C719.156 559.034 721.796 564.632 726.112 565.432L758.787 567.758Z" fill="#4F3128"/>
<path d="M726.112 565.432C721.796 564.632 719.156 559.034 713.624 529.661C701.196 528.486 696.09 527.931 682.181 526.604C685.447 556.633 687.178 560.959 692.215 563.02L726.112 565.432Z" fill="#160903"/>
<path d="M692.215 563.02C687.178 560.959 685.447 556.633 682.181 526.604C679.972 526.393 669.729 525.474 667.48 525.26C658.277 530.681 656.669 537.879 662.424 560.9L692.215 563.02Z" fill="#75594D"/>
<path d="M637.392 522.423C627.724 530.956 625.55 538.087 632.633 558.779L662.424 560.9C656.669 537.879 658.277 530.681 667.48 525.26C657.833 524.342 647.814 523.394 637.392 522.423Z" fill="#140900"/>
<path d="M790.741 570.032C785.865 566.228 783.227 562.019 779.399 535.42C769.066 534.641 758.203 533.73 746.707 532.709C751.5 562.212 754.118 564.384 758.787 567.758L790.741 570.032Z" fill="#170A04"/>
<path d="M811.907 571.538C813.475 558.711 813.551 550.766 812.802 537.54C802.253 537.025 791.17 536.308 779.399 535.42C783.227 562.019 785.865 566.228 790.741 570.032L811.907 571.538Z" fill="#75594D"/>
<path d="M632.633 558.779C625.55 538.087 627.724 530.956 637.392 522.423C628.452 523.353 623.693 522.132 619.889 514.828C612.004 510.82 607.84 510.576 601.141 514.689C593.413 510.792 590.853 513.602 585.898 517.514C580.583 535.191 581.01 543.453 583.434 557.387C583.759 563.517 587.131 564.356 596.914 562.772C603.031 565.319 606.54 566.314 613.898 562.252C619.904 556.769 623.905 555.755 632.633 558.779Z" fill="#BCB3AA"/>
<path d="M682.55 429.591L694.236 277.591L776.289 334.152C775.985 346.021 768.666 342.389 774.342 343.723C773.52 349.467 773.403 354.256 774.231 366.881L728.367 374.347L724.988 374.897L689.238 342.596L682.55 429.591Z" fill="#AEBA78"/>
<path d="M728.367 374.347L774.231 366.881C774.973 374.78 773.194 379.504 771.08 383.143C776.361 387.746 779.654 395.63 785.394 407.484C787.311 425.109 789.063 433.204 792.644 446.48C791.689 454.858 790.606 458.766 789.393 464.114L780.253 457.85L748.818 459.403L732.895 450.032L713.946 451.219C723.341 430.326 729.435 419.558 742.483 402.904C737.643 390.822 737.52 383.35 728.367 374.347Z" fill="#456746"/>
<path d="M663.255 511.609C672.055 507.082 677.477 495.09 686.345 487.108L706.43 478.24L763.239 503.765C752.971 514.787 746.297 520.675 723.893 532.232L697.417 525.142L675.391 534.248L661.367 512.279L663.255 511.609Z" fill="#456746"/>
<path d="M682.55 429.591L689.238 342.596L724.988 374.897L728.367 374.347C737.52 383.35 737.643 390.822 742.483 402.904C729.435 419.558 723.341 430.326 713.946 451.219C700.678 452.709 693.372 454.913 684.68 459.736C682.998 460.669 681.265 461.7 679.426 462.843L679.429 462.798C680.132 450.001 680.528 442.812 683.733 433.754C690.362 424.67 693.988 417.793 700.058 398.265L694.236 398.979L683.733 433.754L682.55 429.591Z" fill="#7A3A2E"/>
<path d="M694.236 398.979L700.058 398.265C693.988 417.793 690.362 424.67 683.733 433.754L694.236 398.979Z" fill="black"/>
<path fill-rule="evenodd" clip-rule="evenodd" d="M789.393 464.114L780.253 457.85L748.818 459.403L732.895 450.032L713.946 451.219C700.678 452.709 693.372 454.913 684.68 459.736L686.345 487.108L706.43 478.24L763.239 503.765C752.971 514.787 746.297 520.675 723.893 532.232L697.417 525.142L675.391 534.248L661.367 512.279L655.705 514.287L654.761 514.622L627.195 534.749L658.454 544.699L659.348 551.976C664.225 552.966 666.503 553.113 669.773 552.665C672.461 565.41 674.882 572.62 679.219 585.483L756.352 576.012C759.029 574.06 761.789 571.437 765.014 567.998L733.824 564.99C695.613 559.62 700.107 534.668 732.191 535.645L733.543 535.687L780.263 535.343C780.515 533.593 780.766 531.907 781.007 530.286C782.442 520.633 783.536 513.273 782.507 508.293C785.823 495.741 787.08 484.603 789.234 465.526L789.393 464.114Z" fill="#2B2D28"/>
<path d="M620.491 717.18L624.21 729.975L650.964 745.362L677.054 758.686L651.784 758.907L589.466 759.407L574.42 759.538L578.6 734.509L575.968 713.026L620.491 717.18Z" fill="#456746"/>
<path d="M423.807 723.351L437.179 740.855L469.438 759.061L437.668 759.061L369.764 759.061L376.218 705.267L400.058 708.221L418.281 700.514L423.807 723.351Z" fill="#456746"/>
<path d="M377.38 532.508L402.248 542.304C398.451 551.954 395.269 561.336 392.692 570.895L365.662 594.534L363.049 621.031L316.316 620.49L235.154 583.207L186.707 544.807L186.991 521.739C207.825 526.611 216.341 528.972 226.738 532.567C224.527 538.86 222.637 542.606 213.589 551.05C215.925 550.825 218.251 551.101 234.897 556.546C238.115 560.951 239.254 563.645 240.917 568.576C244.893 567.879 247.049 566.713 250.467 561.713C264.189 562.772 271.739 564.258 284.946 568.534C287.975 577.692 288.059 582.709 288.542 591.682L299.361 594.012C305.454 578.544 322.819 584.521 335.745 605.929L331.795 581.194L344.966 582.519L355.718 542.809L382.953 550.639L377.38 532.508Z" fill="#2D2727"/>
<path d="M178.855 500.184C180.534 506.887 182.688 512.041 186.991 521.739L186.707 544.807L235.154 583.207L316.316 620.49L363.049 621.031L365.662 594.534L392.692 570.895C387.445 590.359 384.705 610.553 384.371 635.225L398.327 640.722C385.136 650.695 371.119 660.773 338.915 654.986L207.164 602.122C201.384 595.318 196.127 589.389 191.241 583.777C195.102 581.881 196.881 580.088 198.629 574.132C195.019 572.171 192.538 570.224 185.694 562.276C179.883 563.677 177.952 564.734 177.478 567.249C169.014 556.331 161.4 544.463 153.475 527.371L148.395 525.37L159.898 511.067L142.964 504.397L142.937 504.29C139.912 492.377 138.206 485.66 139.439 471.136C146.058 475.537 151.181 481.267 161.075 493.18L178.855 500.184Z" fill="#343F31"/>
<path d="M686.076 598.345L536.746 550.728L432.912 588.024C495.216 626.581 521.054 652.464 573.765 725.505L625.844 722.676C635.131 691.396 672.278 647.666 672.278 647.666C672.278 647.666 686.401 620.194 686.076 598.345Z" fill="black"/>
<path d="M780.969 97.456C786.719 114.503 788.138 123.823 787.789 140.068C782.943 141.955 780.901 141.675 778.037 139.386C770.185 129.446 769.272 128.207 765.896 123.839C768.133 121.203 768.831 116.985 770.264 110.426L780.969 97.456Z" fill="#2A2722"/>
<path d="M703.242 94.9605C695.176 111.042 692.474 120.074 690.559 136.209C695.095 138.752 697.156 138.759 700.31 136.891C709.47 128.14 710.546 127.04 714.497 123.185C712.649 120.263 712.545 115.989 712.039 109.294L703.242 94.9605Z" fill="#2A2722"/>
<path d="M709.346 147.812C716.381 144.627 718.347 142.03 718.974 136.236C723.855 140.759 726.21 143.519 729.005 149.186L730.209 150.74C713.308 150.964 710.207 150.096 709.346 147.812Z" fill="#A4A971"/>
<path d="M774.556 140.123C775.345 147.54 777.696 150.22 784.43 153.062C781.867 155.644 781.348 157.444 764.723 154.624C765.12 153.597 765.504 152.65 765.89 151.766C767.959 147.022 770.079 144.07 774.556 140.123Z" fill="#A4A971"/>
<path fill-rule="evenodd" clip-rule="evenodd" d="M630.053 76.614C635.382 77.4766 635.628 101.991 628.315 101.48C620.745 101.633 603.735 99.8783 597.145 98.8102C590.555 97.7421 591.143 74.3907 598.883 73.9445C606.624 73.4982 624.724 75.7514 630.053 76.614ZM617.728 77.7119C622.091 87.3853 616.364 97.2145 616.364 97.2145C616.364 97.2145 612.724 88.6824 617.728 77.7119Z" fill="#A4A971"/>
<path fill-rule="evenodd" clip-rule="evenodd" d="M547.655 70.8522C552.984 71.7148 553.23 96.2293 545.916 95.7179C538.347 95.8711 523.253 94.7404 516.663 93.6723C510.073 92.6042 510.661 69.2528 518.401 68.8066C526.142 68.3603 542.326 69.9896 547.655 70.8522ZM537.28 72.0865C541.643 81.7599 535.916 91.589 535.916 91.589C535.916 91.589 532.276 83.0569 537.28 72.0865Z" fill="#A4A971"/>
<path d="M617.728 77.7119C622.091 87.3853 616.364 97.2145 616.364 97.2145C616.364 97.2145 612.724 88.6824 617.728 77.7119Z" fill="#D22B2B"/>
<path d="M537.28 72.0865C541.643 81.7599 535.916 91.589 535.916 91.589C535.916 91.589 532.276 83.0569 537.28 72.0865Z" fill="#D22B2B"/>
<path d="M784.43 153.062L800.032 154.153L799.419 162.929L795.518 162.656C795.466 162.637 795.416 162.634 795.366 162.646L603.418 149.223L591.615 149.868L592.126 142.554C599.702 144.061 603.669 144.722 607.24 143.611C618.378 145.962 620.377 145.835 620.892 144.566C631.402 146.422 638.964 148.951 644.295 146.203C658.488 149.097 664.219 149.783 666.723 147.771C677.724 149.648 681.576 149.326 683.505 146.005L709.346 147.812C710.207 150.096 713.308 150.964 730.209 150.74L729.005 149.186L765.89 151.766C765.504 152.65 765.12 153.597 764.723 154.624C781.348 157.444 781.867 155.644 784.43 153.062Z" fill="#2A2722"/>
<path fill-rule="evenodd" clip-rule="evenodd" d="M781.256 79.348L791.007 80.0299C794.017 95.0784 795.743 102.538 798.825 115.363C802.64 130.783 801.158 139.134 800.032 154.153L784.43 153.062C777.696 150.22 775.345 147.54 774.556 140.123C770.079 144.07 767.959 147.022 765.89 151.766L729.005 149.186C726.21 143.519 723.855 140.759 718.974 136.236C718.347 142.03 716.381 144.627 709.346 147.812L683.505 146.005C681.576 149.326 677.724 149.648 666.723 147.771L654.469 126.826L644.295 146.203L630.725 130.065L620.892 144.566L615.133 135.834L607.24 143.611L600.847 129.936L592.126 142.554L591.615 149.868L603.418 149.223L795.366 162.646C793.653 163.06 793.281 181.941 792.382 207.512C788.344 209.613 786.184 211.267 782.538 215.153L658.21 206.459L560.209 199.606C535.75 213.203 525.062 218.733 522.732 217.073C515.258 217.071 511.278 216.805 504.205 215.778L500.44 213.555C490.42 201.487 486.932 196.507 482.087 188.754L484.692 207.554C485.319 208.119 485.933 208.679 486.534 209.236L492.981 278.196C469.942 259.33 457.025 250.216 434.29 234.693L433.822 234.374C444.774 199.157 451.65 167.899 463.798 113.983L497.747 111.947C497.747 111.947 500.242 104.283 502.285 96.0965C504.327 87.9102 504.896 72.7617 508.197 67.603C511.497 62.4444 516.997 60.8692 516.997 60.8692L556.002 63.5967L560.342 78.5986L580.82 80.0305L587.206 65.7787L639.375 69.4267C643.882 71.0715 645.06 73.7885 647.05 78.7824C648.618 96.0657 649.746 105.008 652.577 118.855L681.831 120.9C685.557 102.567 690.017 92.2688 699.345 73.6202L710.072 74.3703L722.281 88.9426L768.112 92.1474L781.256 79.348ZM690.559 136.209C692.474 120.074 695.176 111.042 703.242 94.9605L712.039 109.294C712.545 115.989 712.649 120.263 714.497 123.185C710.546 127.04 709.47 128.14 700.31 136.891C697.156 138.759 695.095 138.752 690.559 136.209ZM787.789 140.068C788.138 123.823 786.719 114.503 780.969 97.456L770.264 110.426C768.831 116.985 768.133 121.203 765.896 123.839C769.272 128.207 770.185 129.446 778.037 139.386C780.901 141.675 782.943 141.955 787.789 140.068ZM628.315 101.48C635.628 101.991 635.382 77.4766 630.053 76.614C624.724 75.7514 606.624 73.4982 598.883 73.9445C591.143 74.3907 590.555 97.7421 597.145 98.8102C603.735 99.8783 620.745 101.633 628.315 101.48ZM545.916 95.7179C553.23 96.2293 552.984 71.7148 547.655 70.8522C542.326 69.9896 526.142 68.3603 518.401 68.8066C510.661 69.2528 510.073 92.6042 516.663 93.6723C523.253 94.7404 538.347 95.8711 545.916 95.7179Z" fill="#426640"/>
<path d="M654.469 126.826L666.723 147.771C664.219 149.783 658.488 149.097 644.295 146.203L654.469 126.826Z" fill="#A4A971"/>
<path d="M630.725 130.065L644.295 146.203C638.964 148.951 631.402 146.422 620.892 144.566L630.725 130.065Z" fill="#A4A971"/>
<path d="M615.133 135.834L620.892 144.566C620.377 145.835 618.378 145.962 607.24 143.611L615.133 135.834Z" fill="#A4A971"/>
<path d="M600.847 129.936L607.24 143.611C603.669 144.722 599.702 144.061 592.126 142.554L600.847 129.936Z" fill="#A4A971"/>
<path d="M444.35 125.852C450.603 120.888 455.04 118.335 463.798 113.983C451.65 167.899 444.774 199.157 433.822 234.374L421.349 237.584L405.383 241.694C405.813 234.63 405.407 230.4 402.358 221.885C409.955 217.15 415.459 214.337 427.759 208.962C421.932 200.878 418.851 196.197 415.12 186.521C422.318 180.575 427.017 176.914 439.921 168.167L431.373 157.281C436.933 152.645 440.76 149.912 448.905 144.788C446.898 137.472 446.116 133.34 444.35 125.852Z" fill="#2D2727"/>
<path d="M658.21 206.459L635.424 245.041C630.003 248.041 624.653 249.107 617.462 249.665C620.125 260.63 599.174 286.611 602.785 284.405C586.119 295.562 577.877 299.81 564.615 304.763C553.223 301.925 544.059 301.156 523.728 300.924L502.498 285.231C508.914 274.326 512.389 264.242 517.659 247.585C505.681 230.468 498.707 220.519 486.534 209.236C485.933 208.679 485.319 208.119 484.692 207.554L482.087 188.754C486.932 196.507 490.42 201.487 500.44 213.555L504.205 215.778C511.278 216.805 515.258 217.071 522.732 217.073C525.062 218.733 535.75 213.203 560.209 199.606L658.21 206.459Z" fill="#2D2727"/>
<path d="M517.659 247.585C512.389 264.242 508.914 274.326 502.498 285.231L492.981 278.196L486.534 209.236C498.707 220.519 505.681 230.468 517.659 247.585Z" fill="#714133"/>
<path d="M602.785 284.405C599.174 286.611 620.125 260.63 617.462 249.665C624.653 249.107 630.003 248.041 635.424 245.041C642.472 247.194 645.908 248.595 651.66 251.076C594.258 290.848 606.395 282.198 602.785 284.405Z" fill="#714133"/>
<path d="M482.321 588.862L520.792 559.271C536.977 581.776 535.028 621.927 535.028 621.927C537.021 628.45 475.461 711.632 430.343 719.256L402.484 719.256L369.249 718.278C369.249 718.278 377.414 643.01 377.414 640.807C377.414 623.925 358.357 618.555 355.711 599.746C353.065 580.938 364.26 583.878 361.953 559.878L482.321 588.862Z" fill="#2C1D1D"/>
<path d="M603.24 283.618C606.831 281.38 594.437 290.674 651.489 250.403L654.262 250.014C654.226 251.038 654.102 252.169 653.898 253.419C652.444 262.3 646.919 277.183 639.79 302.502C628.93 309.574 618.741 321.676 598.874 347.008C595.328 342.814 593.653 339.904 586.985 325.225L583.57 325.016L583.719 322.577C571.169 313.219 568.976 309.658 565.25 304.309C578.469 299.24 586.673 294.921 603.24 283.618Z" fill="#A8B877"/>
<path d="M502.964 285.32L524.331 300.827C518.379 307.808 510.544 312.079 504.189 317.905C503.287 318.732 502.415 319.59 501.583 320.491C493.411 330.256 490.721 333.838 486.179 339.888L486.178 339.889L485.665 340.573C482.019 339.891 479.974 339.115 476.575 337.079C469.992 327.06 466.704 321.717 461.908 312.678C449.209 294.305 443.338 286.997 434.637 278.202L421.084 243.587L421.403 238.383L433.847 235.063L434.318 235.379C457.188 250.702 470.184 259.704 493.386 278.368L502.964 285.32Z" fill="#A9B779"/>
<path d="M583.719 322.577L583.57 325.016L548.289 365.459L557.619 389.044L537.112 420.108L530.282 419.69L516.152 386.508L530.477 360.452L509.068 318.203L504.189 317.905C510.544 312.079 518.379 307.808 524.331 300.827C544.663 300.881 553.834 301.571 565.25 304.309C568.976 309.658 571.169 313.219 583.719 322.577Z" fill="black"/>
<path d="M598.874 347.008C618.741 321.676 628.93 309.574 639.79 302.502C587.845 393.32 561.516 421.009 531.459 456.487C522.202 442.061 517.463 434.815 500.294 405.614C487.745 383.288 479.797 368.062 465.7 341.055L465.573 340.813C453.402 318.512 446.651 304.18 434.637 278.202C443.338 286.997 449.209 294.305 461.908 312.678C466.704 321.717 469.992 327.06 476.575 337.079C479.974 339.115 482.019 339.891 485.665 340.573L486.178 339.889L486.179 339.888C490.721 333.838 493.411 330.256 501.583 320.491C502.415 319.59 503.287 318.732 504.189 317.905L509.068 318.203L530.477 360.452L516.152 386.508L530.282 419.69L537.112 420.108L557.619 389.044L548.289 365.459L583.57 325.016L586.985 325.225C593.653 339.904 595.328 342.814 598.874 347.008Z" fill="#74543F"/>
<path d="M528.654 502.344C548.746 503.575 546.348 533.296 526.834 532.103C507.32 530.909 508.562 501.114 528.654 502.344Z" fill="black"/>
<path d="M524.895 563.812C543.92 564.976 543.136 593.818 523.134 592.595C503.133 591.372 505.869 562.649 524.895 563.812Z" fill="black"/>
<path fill-rule="evenodd" clip-rule="evenodd" d="M531.459 456.487C561.516 421.009 587.845 393.32 639.79 302.502C646.919 277.183 652.444 262.3 653.898 253.419C684.783 271.314 668.837 260.34 696.961 278.964L709.755 398.087C703.312 415.455 705.678 426.895 705.152 432.076C707.497 416.966 704.626 437.258 705.152 432.076C684.359 463.527 676.804 560.209 685.984 604.024L557.904 648.585L522.06 610.157L478.873 643.751L356.94 587.816L357.225 583.15L358.731 582.54L358.97 578.637L359.686 566.929L359.156 549.268L359.126 547.931C358.356 513.061 357.914 493.018 355.955 443.794C351.197 418.481 349.157 404.14 347.24 378.135C346.551 351.267 345.798 336.568 343.492 311.311C342.893 295.616 343.049 284.933 341.341 277.12C363.064 264.704 376.294 253.34 405.473 242.632L421.403 238.383L421.084 243.587L434.637 278.202C446.651 304.18 453.402 318.512 465.573 340.813L465.7 341.055C479.797 368.062 487.745 383.288 500.294 405.614C517.463 434.815 522.202 442.061 531.459 456.487ZM528.654 502.344C548.746 503.575 546.348 533.296 526.834 532.103C507.32 530.909 508.562 501.114 528.654 502.344ZM524.895 563.812C543.92 564.976 543.136 593.818 523.134 592.595C503.133 591.372 505.869 562.649 524.895 563.812Z" fill="#252222"/>
<path d="M341.907 276.592C344.022 284.305 351.071 299.713 352.491 315.355C356.116 340.456 362.915 346.027 365.01 372.823C341.469 392.405 328.916 390.525 300.852 400.642L298.438 397.199L256.896 396.837C255.888 395.764 255.338 395.643 253.68 373.348L257.135 369.468C258.528 359.967 256.892 352.238 259.745 350.428C279.911 329.696 291.068 317.764 309.126 292.695C319.837 283.757 323.394 279.194 341.907 276.592Z" fill="#AFBE7B"/>
<path d="M364.118 480.418C363.297 479.094 355.483 488.077 352.771 488.224C343.344 487.337 339.228 491.108 332.16 490.55C323.829 465.617 313.89 437.808 287.656 425.967L296.632 405.517L300.852 400.642C328.916 390.525 341.469 392.405 365.01 372.823C365.01 372.823 359.49 437.577 350.54 445.089L340.023 418.115C337.481 418.431 336.471 419.288 335.106 421.493C343.444 433.15 349.688 443.513 356.558 459.239C358.467 466.581 364.011 471.934 364.118 480.418Z" fill="#7A3A2E"/>
<path d="M335.106 421.493C336.471 419.288 337.481 418.431 340.023 418.115L350.54 445.089C352.114 449.742 355.607 455.581 356.558 459.239C349.688 443.513 343.444 433.15 335.106 421.493Z" fill="black"/>
<path d="M255.107 403.199C256.867 400.185 258.524 399.186 256.896 396.837L298.438 397.199L300.852 400.642L296.632 405.517L287.656 425.967C313.89 437.808 323.829 465.617 332.16 490.55C314.868 489.184 315.864 498.516 299.394 498.037C290.451 507.326 288.556 521.437 274.876 525.41C271.252 511.432 245.132 465.005 233.771 439.671C239.837 427.377 244.116 419.725 255.107 403.199Z" fill="#456746"/>
<path d="M370.583 568.402C371.958 566.836 373.286 566.188 377.45 565.834C386.042 572.365 392.163 575.05 402.737 579.687L403.593 580.062C394.699 586.572 389.647 590.012 379.312 591.75C374.121 583.962 371.238 579.574 370.583 568.402Z" fill="black"/>
<path fill-rule="evenodd" clip-rule="evenodd" d="M328.851 599.137C324.214 595.322 314.395 583.114 274.693 525.462C286.041 516.851 291.95 511.79 296.971 499.913C312.518 494.458 324.065 490.603 340.698 485.681C347.497 483.669 355.145 481.479 364.264 478.928L374.709 502.678C371.676 500.985 365.891 502.134 348.905 507.63C346.167 513.859 343.235 519.469 323.864 550.909C324.465 553.382 328.786 554.984 375.225 559.883C382.261 550.656 385.479 544.9 389.266 533.239C403.903 537.038 406.846 537.349 411.857 537.838C411.445 530.558 411.816 526.073 413.593 517.36L414.548 517.525L449.855 523.631L426.323 544.431L427.693 548.093L426.565 549.263L419.046 557.066L428.97 587.794L358.926 613.982C346.651 610.816 340.984 608.775 331.076 605.088L328.851 599.137ZM377.45 565.834C373.286 566.188 371.958 566.836 370.583 568.402C371.238 579.574 374.121 583.962 379.312 591.75C389.647 590.012 394.699 586.572 403.593 580.062L402.737 579.687C392.163 575.05 386.042 572.365 377.45 565.834Z" fill="#343F31"/>
<path d="M374.709 502.678C393.184 508.009 394.329 512.48 413.593 517.36C411.816 526.073 411.445 530.558 411.857 537.838C406.846 537.349 403.903 537.038 389.266 533.239C385.479 544.9 382.261 550.656 375.225 559.883C328.786 554.984 324.465 553.382 323.864 550.909C343.235 519.469 346.167 513.859 348.905 507.63C365.891 502.134 371.676 500.985 374.709 502.678Z" fill="#456746"/>
</svg>
