<svg width="1070" height="856" viewBox="0 0 1070 856" fill="none" xmlns="http://www.w3.org/2000/svg">
<path fill-rule="evenodd" clip-rule="evenodd" d="M159.645 774.833L139.5 792.5C139.5 792.5 168 814.5 158.5 823L139.5 823L111.5 803L128.535 746.65L159.645 774.833Z" fill="black"/>
<path d="M216.165 785.43L254.734 763.36L229.568 723.414L201.399 767.348C188.599 793.001 188.651 810.554 196.06 815.564C203.469 820.574 208.927 810.996 216.165 785.43Z" fill="black"/>
<path fill-rule="evenodd" clip-rule="evenodd" d="M216.782 683.04C212.459 772.881 157.386 777.115 153.963 778C150.54 778.885 117.612 770.168 114.473 763.676C111.333 757.185 146.23 730.597 88.4475 687.309L67.6876 672.501C123.634 692.639 156.236 695.107 216.782 683.04Z" fill="#773A03"/>
<path fill-rule="evenodd" clip-rule="evenodd" d="M216.782 683.04C212.459 772.881 157.386 777.115 153.963 778C150.54 778.885 117.612 770.168 114.473 763.676C111.333 757.185 146.23 730.597 88.4475 687.309L67.6876 672.501C123.634 692.639 156.236 695.107 216.782 683.04Z" stroke="black"/>
<path d="M89.3296 177.853L128.449 164L127.929 170.019L93.8265 181.565L89.3296 177.853Z" fill="#FCFAEC"/>
<path d="M93.8265 181.565L127.929 170.019L146.514 225.497L115.436 238.094C107.729 213.507 102.591 200.738 93.8265 181.565Z" fill="#397B05"/>
<path d="M115.436 238.094L146.514 225.497L151.148 228.1L132.158 235.885L112.863 244.309L115.436 238.094Z" fill="#FCFAEC"/>
<path d="M112.863 244.309L132.158 235.885L151.148 228.1C157.479 268.048 162.812 276.357 169.154 286.435L130.977 299.954C126.594 277.453 123.381 265.055 112.863 244.309Z" fill="#64AA06"/>
<path d="M130.977 299.954L169.154 286.435L169.743 292.592L132.98 305.61L130.977 299.954Z" fill="#FCFAEC"/>
<path d="M132.98 305.61L169.743 292.592C174.578 317.559 178.569 331.133 187.503 354.727L158.752 364.909L140.123 322.046L135.777 312.046L132.98 305.61Z" fill="#397B05"/>
<path d="M158.752 364.909L187.503 354.727L189.839 361.326L162.503 371.006L158.752 364.909Z" fill="#FCFAEC"/>
<path d="M162.503 371.006L189.839 361.326C198.017 384.421 200.659 390.381 209.917 412.032L179.89 421.605C179.89 421.605 170.121 389.525 162.503 371.006Z" fill="#64AA06"/>
<path d="M179.89 421.605L209.917 412.032L210.535 419.77L181.785 429.951L179.89 421.605Z" fill="#FCFAEC"/>
<path d="M181.785 429.951L210.535 419.77C217.771 443.198 219.049 448.291 227.895 473.271L205.407 475.689L194.692 480.785C187.034 451.671 191.975 467.715 181.785 429.951Z" fill="#397B05"/>
<path d="M194.692 480.785L205.407 475.689L227.895 473.271L227.461 479.549L198.681 488.149L194.692 480.785Z" fill="#FCFAEC"/>
<path d="M226.76 552.465L245.81 547.841L245.289 553.86L228.429 557.178L226.76 552.465Z" fill="#FCFAEC"/>
<path d="M198.681 488.149L227.461 479.549C231.446 498.293 239.575 527.24 245.81 547.841L226.76 552.465C217.865 533.337 209.294 506.138 198.681 488.149Z" fill="#64AA06"/>
<path d="M44.1849 278.163C63.4823 277.433 77.6423 275.385 64.1468 291.64C66.4392 288.649 66.1989 286.609 62.7633 285.149C60.4248 282.033 54.4466 280.16 44.1849 278.163Z" fill="#64AA06"/>
<path d="M62.9276 293.072C62.1954 286.925 54.0897 285.303 41.079 282.068C52.2231 282.748 59.206 283.637 62.7633 285.149C64.2682 287.154 64.2658 289.673 62.9276 293.072Z" fill="#64AA06"/>
<path d="M62.9276 293.072C49.0838 302.461 43.7523 297.067 37.9024 316.518C51.4255 304.272 57.1547 306.78 62.9276 293.072Z" fill="#64AA06"/>
<path d="M72.0948 299.799C82.2865 304.879 86.1012 314.248 91.237 329.616C83.7433 324.561 77.4851 320.737 72.7034 316.25C71.7583 310.535 68.2784 304.599 62.626 296.657L72.0948 299.799Z" fill="#64AA06"/>
<path d="M81.368 255.462C97.907 268.784 102.563 275.041 97.8808 282.792C96.0966 282.158 94.3027 281.696 92.4894 281.422C86.1146 278.241 84.0719 269.712 81.368 255.462Z" fill="#64AA06"/>
<path d="M69.424 331.391C58.5877 313.012 59.0052 306.528 62.626 296.657C68.2784 304.599 71.7583 310.535 72.7034 316.25C73.5043 321.093 72.4847 325.778 69.424 331.391Z" fill="#64AA06"/>
<path d="M62.626 296.657L62.9276 293.072C74.0532 283.298 83.5098 280.062 92.4894 281.422C94.0154 282.183 95.7897 282.638 97.8808 282.792C111.096 288.543 119.602 295.695 135.777 312.046L140.123 322.046C106.69 285.949 87.6649 271.654 62.626 296.657Z" fill="#64AA06"/>
<path d="M434.816 514.301C432.227 498.219 430.915 483.644 428.713 451.973C418.772 476.056 411.269 493.78 405.444 506.977C403.404 515.65 404.132 519.284 413.113 520.742C409.809 527.601 432.203 539.414 455.694 546.302C456.144 545.1 458.36 543.875 458.36 543.875L460.421 541.812C452.977 536.784 447.071 532.528 441.101 524.113C436.362 521.522 432.596 520.408 424.39 518.915C427.565 517.072 429.113 515.972 435.179 514.912C435.058 514.71 434.937 514.506 434.816 514.301Z" fill="#C29171"/>
<path d="M435.179 514.912C429.113 515.972 427.565 517.072 424.39 518.915C432.596 520.408 436.362 521.522 441.101 524.113C439.26 521.517 437.32 518.503 435.179 514.912Z" fill="black"/>
<path d="M382.45 548.653L385.971 555.199L447.584 570.561C449.272 560.04 452.393 555.118 455.694 546.302C432.203 539.414 409.809 527.601 413.113 520.742C404.132 519.284 403.404 515.65 405.444 506.977C391.907 537.647 387.427 543.872 382.45 548.653Z" fill="#773A03"/>
<path d="M515.145 504.97L538.616 536.117L440.783 609.839C434.767 595.506 430.892 587.761 422.903 574.48L515.145 504.97Z" fill="#DBBF9F"/>
<path d="M425.21 621.575C420.111 605.719 416.113 598.002 406.93 586.516C409.937 582.344 411.872 580.938 415.715 579.896C424.056 592.158 428.006 599.897 433.995 614.955C430.129 619.265 428.292 620.356 425.21 621.575Z" fill="#210000"/>
<path d="M418.022 626.991L413.758 621.186C410.687 608.267 407.596 601.846 398.944 592.534C401.781 589.336 403.488 587.898 406.93 586.516C416.113 598.002 420.111 605.719 425.21 621.575C423.191 624.739 421.579 625.867 418.022 626.991Z" fill="#9F2525"/>
<path d="M394.934 595.556L398.944 592.534C407.596 601.846 410.687 608.267 413.758 621.186L394.934 595.556Z" fill="#210000"/>
<path d="M433.995 614.955C428.006 599.897 424.056 592.158 415.715 579.896C417.67 576.648 419.121 575.304 422.903 574.48C430.892 587.761 434.767 595.506 440.783 609.839C438.223 612.394 436.765 613.277 434.347 614.741L433.995 614.955Z" fill="#9F2525"/>
<path d="M513.792 481.573L525.528 497.147L531.395 504.933L537.263 512.72L543.131 520.507L548.998 528.293L560.734 543.867C559.182 546.318 557.965 547.013 555.543 547.779L508.601 485.485C510.388 483.639 511.28 482.458 513.792 481.573Z" fill="#9F2525"/>
<path d="M515.145 504.97L503.41 489.397C504.886 487.587 505.756 486.595 508.601 485.485L555.543 547.779C554.29 550.103 553.397 551.209 550.351 551.69L538.616 536.117L515.145 504.97Z" fill="#3D3D33"/>
<path d="M925.37 250.938C753.157 397.352 713.855 420.515 548.998 528.293L543.131 520.507L788.576 333.608C859.778 277.169 907.991 226.581 977.955 156.218C974.135 173.11 940.144 239.804 925.37 250.938Z" fill="#E6EAEB"/>
<path d="M525.528 497.147L977.955 156.218C907.991 226.581 859.778 277.169 788.576 333.608L543.131 520.507L537.263 512.72L531.395 504.933L525.528 497.147Z" fill="black"/>
<path d="M473.376 536.334C465.396 535.776 464.259 537.702 460.418 542.445C453.934 541.992 446.418 551.215 446.184 552.477C441.456 556.156 437.735 552.772 437.9 563.426C445.797 579.516 462.539 594.441 463.914 592.812C475.386 593.614 498.113 569.641 496.756 567.541L484.55 552.152L473.376 536.334Z" fill="#3E1400"/>
<path d="M320.494 178.5C321.669 180.836 322.831 183.332 324 186C323.172 183.848 344.168 184.412 370.5 184.5C361.71 152.764 354.959 139.177 332.5 139C326.259 141.812 324.151 154.7 320.494 178.5Z" fill="#773A03"/>
<path d="M553 243C542 231.5 537.711 227.378 507 216C493.638 219.241 487.303 222.902 477 231C494.016 238.771 500.778 242.434 512 248.757C524.815 248.736 541.234 249.45 542.5 248.5C544.5 247 546.759 242.668 553 243Z" fill="#AAA494"/>
<path d="M524 282.5C488.689 281.012 493.316 252.651 497 250C498.352 249.027 504.57 248.768 512 248.757C500.778 242.434 494.016 238.771 477 231C473.249 235.329 470.052 239.416 467.349 243.312C466.935 243.909 466.532 244.501 466.14 245.09C460.875 253.006 457.672 260.139 456.003 266.923C455.854 267.528 455.717 268.13 455.592 268.729C454.219 275.328 454.275 281.628 455.263 288.039C455.359 288.663 455.464 289.289 455.577 289.915C456.48 294.912 457.915 300 459.646 305.371C459.808 305.872 459.972 306.375 460.138 306.881C461.836 312.043 463.784 317.477 465.78 323.35C465.853 323.566 465.926 323.783 466 324C470.315 329.803 472.401 332.978 473.5 338C481.156 337.245 484.262 338.898 490 341.5C507.129 333.798 515.12 328.402 523 314.5L524 282.5Z" fill="#AAA494"/>
<path d="M559.379 267.261C555.17 275.634 552.915 278.028 549 280C548.493 297.152 548.849 307.867 546 321C550.333 320.14 552.899 318.425 557.795 312.5C557.96 311.207 558.117 309.872 558.266 308.5C558.331 307.899 558.395 307.292 558.457 306.678C558.745 303.82 558.996 300.827 559.201 297.76C558.746 297.667 558.278 297.58 557.795 297.5V295.5C558.32 295.626 558.828 295.754 559.32 295.883C559.602 291.184 559.772 286.342 559.798 281.572C559.215 281.542 558.617 281.519 558 281.5V279.5C558.617 279.525 559.216 279.555 559.8 279.59C559.787 275.434 559.66 271.355 559.395 267.5L559.379 267.261Z" fill="#AAA494"/>
<path fill-rule="evenodd" clip-rule="evenodd" d="M559.379 267.261C555 265.5 555 257 557.416 253C557.254 252.309 557.082 251.642 556.902 251C555.906 247.465 554.621 244.695 553 243C546.759 242.668 544.5 247 542.5 248.5C541.234 249.45 524.815 248.736 512 248.757C504.57 248.768 498.352 249.027 497 250C493.316 252.651 488.689 281.012 524 282.5L523 314.5C515.12 328.402 507.129 333.798 490 341.5L493 341.459C504.116 343.249 510.796 343.841 527 341C539.816 345.277 545.913 342.965 554.5 329C555.695 325.773 556.862 319.831 557.795 312.5C552.899 318.425 550.333 320.14 546 321C548.849 307.867 548.493 297.152 549 280C552.915 278.028 555.17 275.634 559.379 267.261ZM500.5 257C511.449 253.222 529.5 264 520 273C510.5 282 489.551 260.778 500.5 257Z" fill="#3E1400"/>
<path d="M557.416 253C555 257 555 265.5 559.379 267.261C559.325 266.498 559.565 266.244 559.5 265.5C559.123 261.158 558.259 256.657 557.468 253.222C557.451 253.148 557.433 253.074 557.416 253Z" fill="black"/>
<path d="M500.5 257C511.449 253.222 529.5 264 520 273C510.5 282 489.551 260.778 500.5 257Z" fill="black"/>
<path d="M493 341.459L490 341.5C484.262 338.898 481.156 337.245 473.5 338C472.401 332.978 470.315 329.803 466 324L464.912 324.923L449.5 338C443.288 335.829 440.321 334.252 436 330.5C428.82 335.056 424.192 336.424 415.5 338L419 333.5C399.318 336.551 388.675 340.138 370 348L367.5 333.5C359.126 341.291 347.777 345.957 328.143 354.03L327 354.5C350.548 358.468 367.076 365.59 380.859 376.5C388.362 382.439 395.052 389.5 401.619 397.786L426.956 395.198L425.3 386C418.792 375.721 414.811 372.556 407 372.5C408.021 368.332 408.972 366.35 413 365V361C405.429 359.216 401.5 361.5 399.5 357H436L436.105 356.998C464.222 356.503 480.011 356.225 482 358.5C484.449 352.153 486.663 348.457 493 341.459Z" fill="#773A03"/>
<path d="M425 374L436 357H399.5C401.5 361.5 405.429 359.216 413 361V365C408.972 366.35 408.021 368.332 407 372.5C414.811 372.556 418.792 375.721 425.3 386L425 374Z" fill="black"/>
<path d="M482 358.5C508.649 358.81 523.191 358.665 527 341C510.796 343.841 504.116 343.249 493 341.459C486.663 348.457 484.449 352.153 482 358.5Z" fill="black"/>
<path d="M280.5 147.524C277.558 146.934 274.4 146.431 271 146C264.493 155.01 261.264 164.598 260.678 174C266 157 286.64 162.735 292 178.5C287.303 182.983 284.403 184.957 278 186C286.771 199.892 290.543 213.095 313 207.5L312.786 206.551C306.846 180.156 303.45 165.067 280.5 147.524Z" fill="black"/>
<path d="M313 207.5C290.543 213.095 286.771 199.892 278 186C284.403 184.957 287.303 182.983 292 178.5C286.64 162.735 266 157 260.678 174C259.624 190.915 267.126 207.23 279.5 218.5L268 243.378C277.691 234.509 285.174 230 303.5 223C287.78 219.774 281.052 216.505 273.5 207.5C275.142 203.452 277.031 201.849 282.5 200.5C291.282 213.033 297.454 216.151 313 207.5Z" fill="#773A03"/>
<path d="M189.138 365C181.548 375.914 175.037 381.252 162.5 390.461L354.518 422.129H394C403.956 414.356 414.353 405.839 425.898 396.092C426.249 395.795 426.602 395.497 426.956 395.198L401.619 397.786L398.5 397.305L368.369 392.656L189.138 365Z" fill="#37191B"/>
<path d="M571 316.5C568.815 316.458 560.483 309.671 558.457 306.678C558.395 307.292 558.331 307.899 558.266 308.5C564.084 314.715 566.748 316.739 570.5 317.5L571 316.5Z" fill="black"/>
<path d="M556.902 251C557.082 251.642 557.254 252.309 557.416 253C557.433 253.074 557.451 253.148 557.468 253.222C564.388 250.344 567.816 248.368 573.5 244.5L572.5 243C566.898 246.386 563.502 248.126 556.902 251Z" fill="black"/>
<path d="M559.5 265.5C559.565 266.244 559.325 266.498 559.379 267.261L559.395 267.5C564.913 266.816 577.482 262.079 581 260L578.298 259C575.909 260.809 564.085 265.45 559.5 265.5Z" fill="black"/>
<path d="M576 304.5L577 303.5C570.336 299.934 566.456 297.753 559.32 295.883C558.828 295.754 558.32 295.626 557.795 295.5V297.5C558.278 297.58 558.746 297.667 559.201 297.76C565.628 299.071 569.44 301.596 576 304.5Z" fill="#040404"/>
<path d="M582 287.5L582.5 285.5C573.638 281.763 568.388 280.109 559.8 279.59C559.216 279.555 558.617 279.525 558 279.5V281.5C558.617 281.519 559.215 281.542 559.798 281.572C568.353 282.004 573.469 283.634 582 287.5Z" fill="#040404"/>
<path fill-rule="evenodd" clip-rule="evenodd" d="M381.5 223C370.769 218.104 364.847 217.7 358.5 222.436C357.199 223.406 355.881 224.592 354.5 226C352.261 235.127 353.05 239.818 366.5 252.5C370.197 252.5 372.825 252.52 375.014 252.536C378.45 252.561 380.802 252.579 384.5 252.5C387.678 248.83 390.157 246.36 397 240.5C394.892 233.48 392.144 229.623 381.5 223Z" fill="#895424"/>
<path fill-rule="evenodd" clip-rule="evenodd" d="M358.5 222.436C357.199 223.406 355.881 224.592 354.5 226C352.261 235.127 353.05 239.818 366.5 252.5C370.197 252.5 372.825 252.52 375.014 252.536C378.45 252.561 380.802 252.579 384.5 252.5C387.678 248.83 390.157 246.36 397 240.5C385.648 230.321 379.251 224.641 358.5 222.436Z" fill="black"/>
<path d="M397 240.5C394.892 233.48 392.144 229.623 381.5 223C370.769 218.104 364.847 217.7 358.5 222.436C379.251 224.641 385.648 230.321 397 240.5Z" fill="#773A03"/>
<path d="M456.5 327C458.587 326.534 461.953 325.165 465.78 323.35C475.701 318.644 488.718 310.936 490.579 308.178C490.641 308.792 490.704 309.399 490.77 310C486.707 314.34 473.68 321.025 464.912 324.923C461.125 326.607 458.132 327.77 457 328L456.5 327Z" fill="black"/>
<path d="M490 254.05C489.819 254.692 489.648 255.359 489.486 256.05C489.468 256.123 489.451 256.197 489.434 256.271C484.99 254.423 474.549 249.442 466.14 245.09C461.455 242.664 457.4 240.434 455.366 239.05L456.366 237.55C458.413 238.787 462.572 240.938 467.349 243.312C475.648 247.434 485.811 252.225 490 254.05Z" fill="black"/>
<path d="M489.536 267C489.471 267.744 489.71 267.998 489.657 268.761L489.64 269C486.195 269.642 469.517 269.607 455.592 268.729C445.653 268.103 437.117 267.047 435.798 265.5L436 264C436.977 265.333 445.782 266.325 456.003 266.923C470.079 267.746 486.839 267.819 489.536 267Z" fill="black"/>
<path d="M446.5 311L445.5 310C447.869 308.732 453.304 307.07 459.646 305.371C471.142 302.291 485.617 299.088 490.216 297.883C490.708 297.754 491.215 297.626 491.74 297.5V299.5C491.258 299.58 490.79 299.667 490.335 299.76C486.147 300.614 471.588 303.895 460.138 306.881C454.018 308.477 448.785 309.988 446.5 311Z" fill="#040404"/>
<path d="M431.5 297L431 295C434.837 293.382 444.66 290.654 455.263 288.039C469.146 284.615 484.366 281.384 489.235 281.09C489.819 281.055 490.419 281.025 491.036 281V283C490.419 283.019 489.82 283.042 489.238 283.072C484.404 283.316 469.321 286.497 455.577 289.915C444.997 292.546 435.211 295.318 431.5 297Z" fill="#040404"/>
<path fill-rule="evenodd" clip-rule="evenodd" d="M324 186C322.831 183.332 321.669 180.836 320.494 178.5C311.257 160.142 301.199 151.674 280.5 147.524C303.45 165.067 306.846 180.156 312.786 206.551L313 207.5C297.454 216.151 291.282 213.033 282.5 200.5C277.031 201.849 275.142 203.452 273.5 207.5C281.052 216.505 287.78 219.774 303.5 223C285.174 230 277.691 234.509 268 243.378L230.5 324.5L189.138 365L368.369 392.656L398.5 397.305L401.619 397.786C395.052 389.5 388.362 382.439 380.859 376.5C367.076 365.59 350.548 358.468 327 354.5L328.143 354.03C347.777 345.957 359.126 341.291 367.5 333.5L370 348C388.675 340.138 399.318 336.551 419 333.5L415.5 338C424.192 336.424 428.82 335.056 436 330.5C440.321 334.252 443.288 335.829 449.5 338L464.912 324.923C461.125 326.607 458.132 327.77 457 328L456.5 327C458.587 326.534 461.953 325.165 465.78 323.35C463.784 317.477 461.836 312.043 460.138 306.881C454.018 308.477 448.785 309.988 446.5 311L445.5 310C447.869 308.732 453.304 307.07 459.646 305.371C457.915 300 456.48 294.912 455.577 289.915C444.997 292.546 435.211 295.318 431.5 297L431 295C434.837 293.382 444.66 290.654 455.263 288.039C454.275 281.628 454.219 275.328 455.592 268.729C445.653 268.103 437.117 267.047 435.798 265.5L436 264C436.977 265.333 445.782 266.325 456.003 266.923C457.672 260.139 460.875 253.006 466.14 245.09C461.455 242.664 457.4 240.434 455.366 239.05L456.366 237.55C458.413 238.787 462.572 240.938 467.349 243.312C470.052 239.416 473.249 235.329 477 231C487.303 222.902 493.638 219.241 507 216C461.94 200.778 435.53 192.652 370.5 184.5C344.168 184.412 323.172 183.848 324 186ZM381.5 223C392.144 229.623 394.892 233.48 397 240.5C390.157 246.36 387.678 248.83 384.5 252.5C380.802 252.579 378.45 252.561 375.014 252.536C372.825 252.52 370.197 252.5 366.5 252.5C353.05 239.818 352.261 235.127 354.5 226C355.881 224.592 357.199 223.406 358.5 222.436C364.847 217.7 370.769 218.104 381.5 223Z" fill="#895424"/>
<path d="M273.269 533.698C337.627 494.258 374.442 476.151 427.769 427.698L425.898 396.092C414.353 405.839 403.956 414.356 394 422.129C368.689 441.888 346.221 456.834 314.946 474.923C303.269 485.698 203.5 525 191.36 523.463C143.835 531.198 114.934 529.024 65.7938 520.404C63.6039 526.063 62.5364 530.573 63.5 532.5C61.3869 542.533 59.6403 550.051 57.5007 557.277C115.252 565.236 147.506 566.785 204.5 557.277C214 557.277 273.269 533.698 273.269 533.698Z" fill="#37191B"/>
<path d="M136.5 409.5H144C120.795 431.577 109.512 446.935 91 477.117C87.9232 477.934 72.1422 503.999 65.7938 520.404C114.934 529.024 143.835 531.198 191.36 523.463C203.5 525 303.269 485.698 314.946 474.923C346.221 456.834 368.689 441.888 394 422.129H354.518L162.5 390.461C154.466 396.794 146.659 402.524 136.5 409.5Z" fill="#895424"/>
<path d="M429.5 452.5L427.769 427.698C374.442 476.151 337.627 494.258 273.269 533.698C273.269 533.698 214 557.277 204.5 557.277C147.506 566.785 115.252 565.236 57.5007 557.277C55.6342 563.581 53.4687 569.663 50.5 577V635C55.7492 648.574 55.6731 656.162 57.5 667.5L91.5 695.5L115 698.5H123.5L167.5 707.5C200.145 707.604 217.975 705.988 247.5 695C304.741 678.907 332.716 661.984 375 617C390.526 597.988 398.224 585.72 408 557.5C411.673 551.658 414.514 544.533 420.229 511.5C422.689 497.285 425.68 478.273 429.5 452.5Z" fill="#895424"/>
<path d="M368.5 191C347.415 196.191 349.056 194.699 347.5 197.5L396 206.5C390.568 203.316 387.677 201.575 393 201.5C404.119 201.737 410.357 202.523 421.5 206.5C413.841 206.028 411.374 206.79 408.5 209C444.015 224.549 450.956 226.902 457 228C463.044 229.098 491.203 221.5 487.5 216C483.797 210.5 420.163 192.91 368.5 188.5V191Z" fill="#773A03"/>
<path d="M90.0196 524C84.8785 537.509 85.143 544.677 88.0196 555.832C89.4359 555.057 90.7292 554.37 91.9611 553.755C89.5242 542.853 89.5699 536.318 94.0196 524.555C92.6983 524.377 91.3653 524.192 90.0196 524Z" fill="black"/>
<path d="M71.0196 563.029C65.5954 566.781 83.2605 606.085 89.9883 605.409C94.9161 604.913 97.0726 603.467 99.9883 601.909C101.054 601.34 101.978 601.139 103.52 600.42L103.529 600.415C105 599.729 106.614 599.163 108.02 598.529C105.828 596.68 98.8985 585.619 97.2863 583.029C96.7994 582.247 96.3311 581.416 95.8768 580.529C94.7858 578.398 93.775 575.938 92.7791 573.029C92.5057 572.23 92.2335 571.398 91.9611 570.529C91.0785 567.714 90.1936 564.517 89.2605 560.853C85.3822 560.45 81.4102 560.002 77.3203 559.51L76.9181 559.462C75.6835 559.924 75.3549 559.99 75.0673 560.136C74.6309 560.359 74.2892 560.767 71.0196 563.029Z" fill="#E4C9B1"/>
<path d="M76.9181 559.462L77.3203 559.51C81.4102 560.002 85.3822 560.45 89.2605 560.853C88.8571 559.269 88.4447 557.598 88.0196 555.832C86.8677 556.204 85.6952 556.572 84.5315 556.937L84.5305 556.937C81.8205 557.788 79.1588 558.623 76.9181 559.462Z" fill="#E4C9B1"/>
<path d="M106.52 526.06C105.195 525.922 103.862 525.775 102.52 525.62C99.7709 537.886 99.736 543.212 102.52 549.847C103.606 549.584 104.762 549.337 106.02 549.098L105.988 548.904C104.472 542.403 103.874 538.811 106.52 526.06Z" fill="black"/>
<path d="M106.367 568.446L97.538 571.424L103.018 572.303L106.367 568.446Z" fill="#E4C9B1"/>
<path d="M97.538 571.424L92.7791 573.029L96.4954 573.529L101.383 574.186L103.018 572.303L97.538 571.424Z" fill="black"/>
<path d="M110.569 567.029C110.295 566.239 110.028 565.408 109.768 564.529L106.367 568.446L103.018 572.303L101.383 574.186L98.0473 578.029L95.8768 580.529L100.866 578.716L104.301 574.579L105.818 572.753L108.52 569.498L110.569 567.029Z" fill="black"/>
<path d="M95.8768 580.529C96.3311 581.416 96.7994 582.247 97.2863 583.029L100.866 581.62L111.52 577.428L115.077 576.029L110.106 575.36L100.866 578.716L95.8768 580.529Z" fill="black"/>
<path d="M100.866 578.716L110.106 575.36L107.204 574.97L104.301 574.579L100.866 578.716Z" fill="#E4C9B1"/>
<path d="M115.077 576.029C114.624 575.39 114.189 574.726 113.771 574.029L110.334 573.477L105.818 572.753L104.301 574.579L107.204 574.97L110.106 575.36L115.077 576.029Z" fill="black"/>
<path d="M91.9611 570.529C92.2335 571.398 92.5057 572.23 92.7791 573.029L97.538 571.424L106.367 568.446L109.768 564.529L106.52 565.623L95.5196 569.33L91.9611 570.529Z" fill="black"/>
<path d="M142.52 535.718L106.52 549.004C107.369 554.496 108.25 558.91 109.217 562.562C124.449 563.548 138.79 563.661 154.046 562.733C153.694 562.211 153.352 561.683 153.02 561.143C152.995 561.102 152.97 561.062 152.945 561.021C152.919 560.979 152.894 560.937 152.868 560.895C152.315 559.981 151.788 559.033 151.284 558.029C150.736 556.938 150.214 555.781 149.711 554.529C149.516 554.044 149.324 553.544 149.135 553.029C149.086 552.896 149.037 552.763 148.989 552.628L148.954 552.529C148.724 551.888 148.499 551.222 148.276 550.529C147.924 549.435 147.579 548.272 147.239 547.029C146.32 543.676 145.432 539.737 144.52 534.98L142.52 535.718Z" fill="#E4C9B1"/>
<path d="M125.52 591.529L160.76 575.938L162.26 575.351C160.785 573.564 155.234 564.491 154.046 562.733C138.79 563.661 124.449 563.548 109.217 562.562C109.398 563.243 109.581 563.898 109.768 564.529C110.028 565.408 110.295 566.239 110.569 567.029C111.532 569.8 112.586 572.053 113.771 574.029C114.189 574.726 114.624 575.39 115.077 576.029C116.716 578.342 123.32 589.341 125.52 591.529Z" fill="#E4C9B1"/>
<path d="M160.52 529.075C160.294 528.245 160.262 527.75 160.52 526.761C159.297 526.863 158.084 526.957 156.878 527.043C156.612 528.315 156.688 528.949 157.18 529.898C158.215 529.623 159.316 529.354 160.52 529.075Z" fill="black"/>
<path d="M169.888 556.529C169.589 556.106 169.3 555.681 169.02 555.254L168.954 555.154L168.908 555.083C168.872 555.028 168.836 554.972 168.801 554.917L165.655 554.538L161.42 554.029L160.122 555.561L165.63 556.107L169.888 556.529Z" fill="black"/>
<path d="M160.122 555.561L156.878 559.39L165.63 556.107L160.122 555.561Z" fill="#E4C9B1"/>
<path d="M153.02 561.143C153.352 561.683 153.694 562.211 154.046 562.733L156.245 561.872L167.52 557.456L169.888 556.529L165.63 556.107L156.878 559.39L152.868 560.895L152.945 561.021L153.02 561.143Z" fill="black"/>
<path d="M149.135 553.029C149.324 553.544 149.516 554.044 149.711 554.529L153.814 553.114L162.037 550.277L164.842 547.029L161.857 548.062L152.02 551.467L148.954 552.529L148.989 552.628C149.037 552.763 149.086 552.896 149.135 553.029Z" fill="black"/>
<path d="M165.655 549.029C165.442 548.539 165.235 548.04 165.035 547.529C165.001 547.444 164.968 547.358 164.935 547.272C164.904 547.191 164.872 547.11 164.842 547.029L162.037 550.277L159.044 553.743L157.683 555.319L154.48 559.029L152.868 560.895L156.878 559.39L160.122 555.561L161.42 554.029L163.901 551.099L165.655 549.029Z" fill="black"/>
<path d="M159.044 553.743L162.037 550.277L153.814 553.114L156.429 553.428L159.044 553.743Z" fill="#E4C9B1"/>
<path d="M149.711 554.529L152.868 554.821L157.683 555.319L159.044 553.743L156.429 553.428L153.814 553.114L149.711 554.529Z" fill="black"/>
<path d="M144.52 534.98C145.432 539.737 146.32 543.676 147.239 547.029C147.579 548.272 147.924 549.435 148.276 550.529C148.499 551.222 148.724 551.888 148.954 552.529L152.02 551.467C150.061 545.334 149.018 541.728 147.767 533.343C146.753 533.827 145.683 534.367 144.52 534.98Z" fill="black"/>
<path fill-rule="evenodd" clip-rule="evenodd" d="M152.02 551.467C150.061 545.334 149.018 541.728 147.767 533.343C151.038 531.784 153.739 530.811 157.18 529.898C158.621 537.867 159.684 541.755 161.857 548.062L152.02 551.467Z" fill="#E4C9B1"/>
<path d="M163.079 541.529C162.128 538.017 161.31 533.959 160.52 529.075C159.316 529.354 158.215 529.623 157.18 529.898C158.621 537.867 159.684 541.755 161.857 548.062L164.842 547.029C164.596 546.381 164.359 545.716 164.13 545.029C163.76 543.921 163.411 542.758 163.079 541.529Z" fill="black"/>
<path d="M91.9611 553.755C90.7292 554.37 89.4359 555.057 88.0196 555.832C88.4447 557.598 88.8571 559.269 89.2605 560.853C90.6233 560.995 91.9746 561.131 93.3154 561.261C92.8222 559.096 92.3973 556.776 91.9611 553.755Z" fill="black"/>
<path d="M89.2605 560.853C90.1936 564.517 91.0785 567.714 91.9611 570.529L95.5196 569.33C94.5954 566.231 93.9064 563.857 93.3154 561.261C91.9746 561.131 90.6233 560.995 89.2605 560.853Z" fill="black"/>
<path fill-rule="evenodd" clip-rule="evenodd" d="M93.3154 561.261C97.4626 561.664 101.509 562.013 105.487 562.304C104.267 558.273 103.468 555.073 102.52 549.847C98.5343 550.81 95.5018 551.986 91.9611 553.755C92.3973 556.776 92.8222 559.096 93.3154 561.261Z" fill="#E4C9B1"/>
<path d="M106.52 549.004C106.351 549.036 106.184 549.067 106.02 549.098C104.762 549.337 103.606 549.584 102.52 549.847C103.468 555.073 104.267 558.273 105.487 562.304L105.663 562.317C106.501 562.378 107.335 562.437 108.166 562.493C108.517 562.516 108.867 562.539 109.217 562.562C108.25 558.91 107.369 554.496 106.52 549.004Z" fill="black"/>
<path fill-rule="evenodd" clip-rule="evenodd" d="M95.5196 569.33C94.5954 566.231 93.9064 563.857 93.3154 561.261C97.4626 561.664 101.509 562.013 105.487 562.304C105.8 563.34 106.141 564.43 106.52 565.623L95.5196 569.33Z" fill="#E4C9B1"/>
<path d="M109.217 562.562C108.867 562.539 108.517 562.516 108.166 562.493C107.335 562.437 106.501 562.378 105.663 562.317L105.487 562.304C105.8 563.34 106.141 564.43 106.52 565.623L109.768 564.529C109.581 563.898 109.398 563.243 109.217 562.562Z" fill="black"/>
<path d="M97.2863 583.029C98.8985 585.619 105.828 596.68 108.02 598.529C108.52 598.529 110.52 598.029 111.336 597.406C108.986 595.006 102.78 584.664 100.866 581.62L97.2863 583.029Z" fill="black"/>
<path fill-rule="evenodd" clip-rule="evenodd" d="M111.336 597.406C108.986 595.006 102.78 584.664 100.866 581.62L111.52 577.428C113.484 580.746 119.674 591.112 121.988 593.34C118.273 595.132 115.219 596.239 111.336 597.406Z" fill="#E4C9B1"/>
<path d="M125.52 591.529C123.32 589.341 116.716 578.342 115.077 576.029L111.52 577.428C113.484 580.746 119.674 591.112 121.988 593.34C123.02 593.029 124.02 592.529 125.52 591.529Z" fill="black"/>
<path d="M173.454 561.05C172.132 559.52 170.951 558.034 169.888 556.529L167.52 557.456L170.289 561.39C171.337 561.282 172.392 561.168 173.454 561.05Z" fill="black"/>
<path d="M178.02 568.001C177.922 567.889 176.405 565.407 175.412 563.931L175.411 563.929C174.467 562.526 173.545 561.155 173.454 561.05C172.392 561.168 171.337 561.282 170.289 561.39L175.52 569.529C176.315 569.093 177.142 568.527 178.02 568.001Z" fill="black"/>
<path fill-rule="evenodd" clip-rule="evenodd" d="M164.52 574.529C168.879 573.431 171.881 571.523 175.52 569.529L170.289 561.39C165.673 561.868 161.183 562.256 156.777 562.557L164.52 574.529Z" fill="#E4C9B1"/>
<path d="M154.046 562.733C155.234 564.491 160.785 573.564 162.26 575.351C163.161 575.351 164.02 575.029 164.52 574.529L156.777 562.557L156.529 562.574C155.699 562.63 154.871 562.683 154.046 562.733Z" fill="black"/>
<path fill-rule="evenodd" clip-rule="evenodd" d="M167.52 557.456L170.289 561.39C165.673 561.868 161.183 562.256 156.777 562.557L156.245 561.872L167.52 557.456Z" fill="#E4C9B1"/>
<path d="M156.245 561.872L154.046 562.733C154.871 562.683 155.699 562.63 156.529 562.574L156.777 562.557L156.245 561.872Z" fill="#2E302A"/>
<path fill-rule="evenodd" clip-rule="evenodd" d="M110.334 573.477L108.52 569.498L105.818 572.753L110.334 573.477Z" fill="#E4C9B1"/>
<path d="M113.771 574.029C112.586 572.053 111.532 569.8 110.569 567.029L108.52 569.498L110.334 573.477L113.771 574.029Z" fill="black"/>
<path fill-rule="evenodd" clip-rule="evenodd" d="M98.0473 578.029L101.383 574.186L96.4954 573.529C96.838 575.469 97.2304 576.416 98.0473 578.029Z" fill="#E4C9B1"/>
<path d="M92.7791 573.029C93.775 575.938 94.7858 578.398 95.8768 580.529L98.0473 578.029C97.2304 576.416 96.838 575.469 96.4954 573.529L92.7791 573.029Z" fill="black"/>
<path fill-rule="evenodd" clip-rule="evenodd" d="M152.868 554.821C153.387 556.779 153.619 557.182 154.666 558.997L154.48 559.029L157.683 555.319L152.868 554.821Z" fill="#E4C9B1"/>
<path fill-rule="evenodd" clip-rule="evenodd" d="M165.655 554.538C164.78 553.304 164.359 552.576 163.901 551.099L161.42 554.029L165.655 554.538Z" fill="#E4C9B1"/>
<path d="M144.52 534.98C145.683 534.367 146.753 533.827 147.767 533.343C147.194 531.661 147.146 530.436 147.767 527.547C146.657 527.59 145.55 527.626 144.447 527.655C143.619 530.983 143.765 532.52 144.52 534.98Z" fill="black"/>
<path d="M149.711 554.529C150.214 555.781 150.736 556.938 151.284 558.029C151.788 559.033 152.315 559.981 152.868 560.895L154.48 559.029L154.666 558.997C153.619 557.182 153.387 556.779 152.868 554.821L149.711 554.529Z" fill="black"/>
<path d="M167.103 552.029C166.588 551.063 166.107 550.068 165.655 549.029L163.901 551.099C164.359 552.576 164.78 553.304 165.655 554.538L168.801 554.917C168.195 553.975 167.631 553.018 167.103 552.029Z" fill="black"/>
<path d="M187.52 563.529L186.648 559.396C185.982 559.489 185.319 559.579 184.659 559.669C185.432 560.653 186.719 562.588 187.52 563.529Z" fill="#4E4945"/>
<path d="M185.864 556.226C183.609 549.119 178.042 539.52 169.02 525.938C171.137 538.453 177.062 549.897 184.425 559.368L186.602 558.997C186.417 558.117 186.171 557.195 185.864 556.226Z" fill="#4E4945"/>
<path fill-rule="evenodd" clip-rule="evenodd" d="M186.602 558.997C186.868 560.269 187.507 562.423 187.52 563.529L186.648 559.396L186.602 558.997ZM184.425 559.368C177.062 549.897 171.137 538.453 169.02 525.938L160.52 529.075C161.31 533.959 162.128 538.017 163.079 541.529C163.411 542.758 163.76 543.921 164.13 545.029C164.359 545.716 164.596 546.381 164.842 547.029C164.872 547.11 164.904 547.191 164.935 547.272C164.968 547.358 165.001 547.444 165.035 547.529C165.235 548.04 165.442 548.539 165.655 549.029C166.107 550.068 166.588 551.063 167.103 552.029C167.631 553.018 168.195 553.975 168.801 554.917C168.836 554.972 168.872 555.028 168.908 555.083L168.954 555.154L169.02 555.254C169.3 555.681 169.589 556.106 169.888 556.529C170.951 558.034 172.132 559.52 173.454 561.05C173.545 561.155 174.467 562.526 175.411 563.929L175.412 563.931C176.405 565.407 177.922 567.889 178.02 568.001L187.52 563.529C186.719 562.588 185.432 560.653 184.659 559.669C184.581 559.569 184.503 559.468 184.425 559.368Z" fill="#E4C9B1"/>
<path d="M184.659 559.669C185.319 559.579 185.982 559.489 186.648 559.396L186.602 558.997L184.425 559.368C184.503 559.468 184.581 559.569 184.659 559.669Z" fill="#4E4945"/>
<path d="M218 773C235.188 792.631 305.453 741.5 286.867 705.033C268.28 668.565 279.487 674.915 265.441 658.954C260.221 653.022 256.394 621.883 247.301 610.856C267.019 666.566 255.566 674.914 238.488 693.206L236.407 678.218C222.355 694.249 216.075 688.759 203 709.451L198.5 683.928L188 709.451L178.237 691.912L176.318 715.076C172.295 699.097 164.468 705.637 164.057 690.499L154.016 701.066L151.477 691.912C142.326 697.739 143.442 699.053 135.617 709.451C130.827 699.014 95.1438 695.606 86.4578 683.928C82.8355 713.418 178.237 721 178.237 721C234.531 731.413 200.812 753.369 218 773Z" fill="#773A03"/>
<path d="M86.4578 683.928C95.1438 695.606 130.827 699.014 135.617 709.451C143.442 699.053 142.326 697.739 151.477 691.912L154.016 701.066L164.057 690.499C164.468 705.637 172.295 699.097 176.318 715.076L178.237 691.912L188 709.451L198.5 683.928L203 709.451C216.075 688.759 222.355 694.249 236.407 678.218L238.488 693.206C255.566 674.914 267.019 666.566 247.301 610.856L86.4578 683.928Z" fill="#895424"/>
<path d="M248.877 666.736C251.611 672.313 251.751 675.764 252.364 681.839L253.338 681.614C253.126 675.165 253.253 671.543 249.852 666.511L248.877 666.736Z" fill="black"/>
<path d="M259.22 658.191C264.247 666.551 264.179 671.046 264.059 678.964C264.058 679.023 264.057 679.081 264.056 679.14L266.005 678.69C265.927 670.092 266.447 665.138 261.169 657.741L259.22 658.191Z" fill="black"/>
<path d="M247.005 683.076C249.221 683.455 250.408 683.277 252.364 681.839C251.751 675.764 251.611 672.313 248.877 666.736L249.852 666.511C253.253 671.543 253.126 675.165 253.338 681.614C256.129 685.67 258.045 686.675 264.056 679.14L264.059 678.964C264.179 671.046 264.247 666.551 259.22 658.191L261.169 657.741C266.447 665.138 265.927 670.092 266.005 678.69C271.106 681.38 273.69 680.482 277.735 673.929C283.381 664.97 283.39 658.055 272.142 642.379C264.637 637.701 260.503 635.462 253.484 633.344C251.933 640.114 250.098 644.133 244.416 651.859C245.323 648.041 245.41 646.002 242.392 643.089C238.79 646.082 237.994 648.578 236.788 652.363L236.787 652.367C236.649 652.8 236.505 653.25 236.351 653.72C241.261 661.273 244.386 670.223 247.005 683.076Z" fill="#3E1400"/>
<path d="M252.129 574.131L267.491 536.204C270.286 530.922 272.849 526.447 275.17 522.396L275.172 522.392C276.486 520.097 277.723 517.938 278.88 515.845C286.658 501.775 283.601 483.735 277.828 467.621C282.81 499.417 280.953 513.181 266.083 527.638C265.363 524.213 264.567 521.753 263.442 518.665C256.279 550.008 253.577 558.441 249.992 564.875C247.121 561.986 246.048 559.805 247.18 552.695L242.308 553.82C242.07 544.692 240.257 538.669 236.235 527.512C232.455 538.016 228.801 542.946 221.134 551.011L220.57 535.234C210.407 556.764 203.481 568.835 190.706 590.365L186.809 591.264C181.724 579.596 179.109 572.38 175.937 555.288C174.146 565.26 173.885 573.051 174.559 582.29C164.463 566.095 161.338 550.711 169.11 490.154C159.433 538.059 158.363 558.425 169.2 584.516C171.207 589.347 173.622 594.375 176.466 599.81C180.937 605.375 184.631 609.859 189.609 614.507C195.685 620.179 203.673 626.094 217.319 634.509C221.813 637.952 225.611 641.182 228.859 644.485C231.761 647.437 234.223 650.447 236.351 653.72C236.505 653.25 236.649 652.8 236.787 652.367L236.788 652.363C237.994 648.578 238.79 646.082 242.392 643.089C245.41 646.002 245.323 648.041 244.416 651.859C250.098 644.133 251.933 640.114 253.484 633.344C260.503 635.462 264.637 637.701 272.142 642.379C270.959 640.73 269.651 638.984 268.212 637.128C258.193 617.571 253.51 604.851 252.391 585.873C252.176 582.222 252.093 578.339 252.129 574.131Z" fill="#773A03"/>
<path d="M249.992 564.875C253.577 558.441 256.279 550.008 263.442 518.665C264.567 521.753 265.363 524.213 266.083 527.638C280.953 513.181 282.81 499.417 277.828 467.621L169.11 490.154C161.338 550.711 164.463 566.095 174.559 582.29C173.885 573.051 174.146 565.26 175.937 555.288C179.109 572.38 181.724 579.596 186.809 591.264L190.706 590.365C203.481 568.835 210.407 556.764 220.57 535.234L221.134 551.011C228.801 542.946 232.455 538.016 236.235 527.512C240.257 538.669 242.07 544.692 242.308 553.82L247.18 552.695C246.048 559.805 247.121 561.986 249.992 564.875Z" fill="#895424"/>
</svg>
