<svg width="1078" height="860" viewBox="0 0 1078 860" fill="none" xmlns="http://www.w3.org/2000/svg">
<path d="M97.3296 177.853L136.449 164L135.929 170.019L101.827 181.565L97.3296 177.853Z" fill="#FCFAEC"/>
<path d="M101.827 181.565L135.929 170.019L154.514 225.497L123.436 238.094C115.729 213.507 110.591 200.738 101.827 181.565Z" fill="#397B05"/>
<path d="M123.436 238.094L154.514 225.497L159.148 228.1L140.158 235.885L120.863 244.309L123.436 238.094Z" fill="#FCFAEC"/>
<path d="M120.863 244.309L140.158 235.885L159.148 228.1C165.479 268.048 170.812 276.357 177.154 286.435L138.977 299.954C134.594 277.453 131.381 265.055 120.863 244.309Z" fill="#64AA06"/>
<path d="M138.977 299.954L177.154 286.435L177.743 292.592L140.98 305.61L138.977 299.954Z" fill="#FCFAEC"/>
<path d="M140.98 305.61L177.743 292.592C182.578 317.559 186.569 331.133 195.503 354.727L166.752 364.909L148.123 322.046L143.777 312.046L140.98 305.61Z" fill="#397B05"/>
<path d="M166.752 364.909L195.503 354.727L197.839 361.326L170.503 371.006L166.752 364.909Z" fill="#FCFAEC"/>
<path d="M170.503 371.006L197.839 361.326C206.017 384.421 208.659 390.381 217.917 412.032L187.89 421.605C187.89 421.605 178.121 389.525 170.503 371.006Z" fill="#64AA06"/>
<path d="M187.89 421.605L217.917 412.032L218.535 419.77L189.785 429.951L187.89 421.605Z" fill="#FCFAEC"/>
<path d="M189.785 429.951L218.535 419.77C225.771 443.198 227.049 448.291 235.895 473.271L213.407 475.689L202.692 480.785C195.034 451.671 199.975 467.715 189.785 429.951Z" fill="#397B05"/>
<path d="M202.692 480.785L213.407 475.689L235.895 473.271L235.461 479.549L206.681 488.149L202.692 480.785Z" fill="#FCFAEC"/>
<path d="M234.76 552.465L253.81 547.841L253.289 553.86L236.429 557.178L234.76 552.465Z" fill="#FCFAEC"/>
<path d="M206.681 488.149L235.461 479.549C239.446 498.293 247.575 527.24 253.81 547.841L234.76 552.465C225.865 533.337 217.294 506.138 206.681 488.149Z" fill="#64AA06"/>
<path d="M52.1849 278.163C71.4823 277.433 85.6423 275.385 72.1468 291.64C74.4392 288.649 74.1989 286.609 70.7633 285.149C68.4248 282.033 62.4466 280.16 52.1849 278.163Z" fill="#64AA06"/>
<path d="M70.9276 293.072C70.1954 286.925 62.0897 285.303 49.079 282.068C60.2231 282.748 67.206 283.637 70.7633 285.149C72.2682 287.154 72.2658 289.673 70.9276 293.072Z" fill="#64AA06"/>
<path d="M70.9276 293.072C57.0838 302.461 51.7523 297.067 45.9024 316.518C59.4255 304.272 65.1547 306.78 70.9276 293.072Z" fill="#64AA06"/>
<path d="M80.0948 299.799C90.2865 304.879 94.1012 314.248 99.237 329.616C91.7433 324.561 85.4851 320.737 80.7034 316.25C79.7583 310.535 76.2784 304.599 70.626 296.657L80.0948 299.799Z" fill="#64AA06"/>
<path d="M89.368 255.462C105.907 268.784 110.563 275.041 105.881 282.792C104.097 282.158 102.303 281.696 100.489 281.422C94.1146 278.241 92.0719 269.712 89.368 255.462Z" fill="#64AA06"/>
<path d="M77.424 331.391C66.5877 313.012 67.0052 306.528 70.626 296.657C76.2784 304.599 79.7583 310.535 80.7034 316.25C81.5043 321.093 80.4847 325.778 77.424 331.391Z" fill="#64AA06"/>
<path d="M70.626 296.657L70.9276 293.072C82.0532 283.298 91.5098 280.062 100.489 281.422C102.015 282.183 103.79 282.638 105.881 282.792C119.096 288.543 127.602 295.695 143.777 312.046L148.123 322.046C114.69 285.949 95.6649 271.654 70.626 296.657Z" fill="#64AA06"/>
<path d="M442.816 514.301C440.227 498.219 438.915 483.644 436.713 451.973C426.772 476.056 419.269 493.78 413.444 506.977C411.404 515.65 412.132 519.284 421.113 520.742C417.809 527.601 440.203 539.414 463.694 546.302C464.144 545.1 466.36 543.875 466.36 543.875L468.421 541.812C460.977 536.784 455.071 532.528 449.101 524.113C444.362 521.522 440.596 520.408 432.39 518.915C435.565 517.072 437.113 515.972 443.179 514.912C443.058 514.71 442.937 514.506 442.816 514.301Z" fill="#C29171"/>
<path d="M443.179 514.912C437.113 515.972 435.565 517.072 432.39 518.915C440.596 520.408 444.362 521.522 449.101 524.113C447.26 521.517 445.32 518.503 443.179 514.912Z" fill="black"/>
<path d="M390.45 548.653L393.971 555.199L455.584 570.561C457.272 560.04 460.393 555.118 463.694 546.302C440.203 539.414 417.809 527.601 421.113 520.742C412.132 519.284 411.404 515.65 413.444 506.977C399.907 537.647 395.427 543.872 390.45 548.653Z" fill="#773A03"/>
<path d="M523.145 504.97L546.616 536.117L448.783 609.839C442.767 595.506 438.892 587.761 430.903 574.48L523.145 504.97Z" fill="#DBBF9F"/>
<path d="M433.21 621.575C428.111 605.719 424.113 598.002 414.93 586.516C417.937 582.344 419.872 580.938 423.715 579.896C432.056 592.158 436.006 599.897 441.995 614.955C438.129 619.265 436.292 620.356 433.21 621.575Z" fill="#210000"/>
<path d="M426.022 626.991L421.758 621.186C418.687 608.267 415.596 601.846 406.944 592.534C409.781 589.336 411.488 587.898 414.93 586.516C424.113 598.002 428.111 605.719 433.21 621.575C431.191 624.739 429.579 625.867 426.022 626.991Z" fill="#9F2525"/>
<path d="M402.934 595.556L406.944 592.534C415.596 601.846 418.687 608.267 421.758 621.186L402.934 595.556Z" fill="#210000"/>
<path d="M441.995 614.955C436.006 599.897 432.056 592.158 423.715 579.896C425.67 576.648 427.121 575.304 430.903 574.48C438.892 587.761 442.767 595.506 448.783 609.839C446.223 612.394 444.765 613.277 442.347 614.741L441.995 614.955Z" fill="#9F2525"/>
<path d="M521.792 481.573L533.528 497.147L539.395 504.933L545.263 512.72L551.131 520.507L556.998 528.293L568.734 543.867C567.182 546.318 565.965 547.013 563.543 547.779L516.601 485.485C518.388 483.639 519.28 482.458 521.792 481.573Z" fill="#9F2525"/>
<path d="M523.145 504.97L511.41 489.397C512.886 487.587 513.756 486.595 516.601 485.485L563.543 547.779C562.29 550.103 561.397 551.209 558.351 551.69L546.616 536.117L523.145 504.97Z" fill="#3D3D33"/>
<path d="M933.37 250.938C761.157 397.352 721.855 420.515 556.998 528.293L551.131 520.507L796.576 333.608C867.778 277.169 915.991 226.581 985.955 156.218C982.135 173.11 948.144 239.804 933.37 250.938Z" fill="#E6EAEB"/>
<path d="M533.528 497.147L985.955 156.218C915.991 226.581 867.778 277.169 796.576 333.608L551.131 520.507L545.263 512.72L539.395 504.933L533.528 497.147Z" fill="black"/>
<path d="M481.376 536.334C473.396 535.776 472.259 537.702 468.418 542.445C461.934 541.992 454.418 551.215 454.184 552.477C449.456 556.156 445.735 552.772 445.9 563.426C453.797 579.516 470.539 594.441 471.914 592.812C483.386 593.614 506.113 569.641 504.756 567.541L492.55 552.152L481.376 536.334Z" fill="#3E1400"/>
<path d="M199.53 773.205L242.556 754.895L220.391 713.285L187.077 753.458C171.247 777.36 169.158 794.788 175.902 800.664C182.646 806.54 189.23 797.698 199.53 773.205Z" fill="black"/>
<path fill-rule="evenodd" clip-rule="evenodd" d="M326.036 650.031C347 709 276.5 743.5 251.094 753.18C225.687 762.86 206.787 737.513 208.734 729.821C210.682 722.129 219.131 688.786 197.669 653.18L177.039 638.191C232.808 658.817 265.388 661.569 326.036 650.031Z" fill="#773A03"/>
<path d="M328.494 178.5C329.669 180.836 330.831 183.332 332 186C331.172 183.848 352.168 184.412 378.5 184.5C369.71 152.764 362.959 139.177 340.5 139C334.259 141.812 332.151 154.7 328.494 178.5Z" fill="#773A03"/>
<path d="M561 243C550 231.5 545.711 227.378 515 216C501.638 219.241 495.303 222.902 485 231C502.016 238.771 508.778 242.434 520 248.757C532.815 248.736 549.234 249.45 550.5 248.5C552.5 247 554.759 242.668 561 243Z" fill="#AAA494"/>
<path d="M532 282.5C496.689 281.012 501.316 252.651 505 250C506.352 249.027 512.57 248.768 520 248.757C508.778 242.434 502.016 238.771 485 231C481.249 235.329 478.052 239.416 475.349 243.312C474.935 243.909 474.532 244.501 474.14 245.09C468.875 253.006 465.672 260.139 464.003 266.923C463.854 267.528 463.717 268.13 463.592 268.729C462.219 275.328 462.275 281.628 463.263 288.039C463.359 288.663 463.464 289.289 463.577 289.915C464.48 294.912 465.915 300 467.646 305.371C467.808 305.872 467.972 306.375 468.138 306.881C469.836 312.043 471.784 317.477 473.78 323.35C473.853 323.566 473.926 323.783 474 324C478.315 329.803 480.401 332.978 481.5 338C489.156 337.245 492.262 338.898 498 341.5C515.129 333.798 523.12 328.402 531 314.5L532 282.5Z" fill="#AAA494"/>
<path d="M567.379 267.261C563.17 275.634 560.915 278.028 557 280C556.493 297.152 556.849 307.867 554 321C558.333 320.14 560.899 318.425 565.795 312.5C565.96 311.207 566.117 309.872 566.266 308.5C566.331 307.899 566.395 307.292 566.457 306.678C566.745 303.82 566.996 300.827 567.201 297.76C566.746 297.667 566.278 297.58 565.795 297.5V295.5C566.32 295.626 566.828 295.754 567.32 295.883C567.602 291.184 567.772 286.342 567.798 281.572C567.215 281.542 566.617 281.519 566 281.5V279.5C566.617 279.525 567.216 279.555 567.8 279.59C567.787 275.434 567.66 271.355 567.395 267.5L567.379 267.261Z" fill="#AAA494"/>
<path fill-rule="evenodd" clip-rule="evenodd" d="M567.379 267.261C563 265.5 563 257 565.416 253C565.254 252.309 565.082 251.642 564.902 251C563.906 247.465 562.621 244.695 561 243C554.759 242.668 552.5 247 550.5 248.5C549.234 249.45 532.815 248.736 520 248.757C512.57 248.768 506.352 249.027 505 250C501.316 252.651 496.689 281.012 532 282.5L531 314.5C523.12 328.402 515.129 333.798 498 341.5L501 341.459C512.116 343.249 518.796 343.841 535 341C547.816 345.277 553.913 342.965 562.5 329C563.695 325.773 564.862 319.831 565.795 312.5C560.899 318.425 558.333 320.14 554 321C556.849 307.867 556.493 297.152 557 280C560.915 278.028 563.17 275.634 567.379 267.261ZM508.5 257C519.449 253.222 537.5 264 528 273C518.5 282 497.551 260.778 508.5 257Z" fill="#3E1400"/>
<path d="M565.416 253C563 257 563 265.5 567.379 267.261C567.325 266.498 567.565 266.244 567.5 265.5C567.123 261.158 566.259 256.657 565.468 253.222C565.451 253.148 565.433 253.074 565.416 253Z" fill="black"/>
<path d="M508.5 257C519.449 253.222 537.5 264 528 273C518.5 282 497.551 260.778 508.5 257Z" fill="black"/>
<path d="M501 341.459L498 341.5C492.262 338.898 489.156 337.245 481.5 338C480.401 332.978 478.315 329.803 474 324L472.912 324.923L457.5 338C451.288 335.829 448.321 334.252 444 330.5C436.82 335.056 432.192 336.424 423.5 338L427 333.5C407.318 336.551 396.675 340.138 378 348L375.5 333.5C367.126 341.291 355.777 345.957 336.143 354.03L335 354.5C358.548 358.468 375.076 365.59 388.859 376.5C396.362 382.439 403.052 389.5 409.619 397.786L434.956 395.198L433.3 386C426.792 375.721 422.811 372.556 415 372.5C416.021 368.332 416.972 366.35 421 365V361C413.429 359.216 409.5 361.5 407.5 357H444L444.105 356.998C472.222 356.503 488.011 356.225 490 358.5C492.449 352.153 494.663 348.457 501 341.459Z" fill="#773A03"/>
<path d="M433 374L444 357H407.5C409.5 361.5 413.429 359.216 421 361V365C416.972 366.35 416.021 368.332 415 372.5C422.811 372.556 426.792 375.721 433.3 386L433 374Z" fill="black"/>
<path d="M490 358.5C516.649 358.81 531.191 358.665 535 341C518.796 343.841 512.116 343.249 501 341.459C494.663 348.457 492.449 352.153 490 358.5Z" fill="black"/>
<path d="M288.5 147.524C285.558 146.934 282.4 146.431 279 146C272.493 155.01 269.264 164.598 268.678 174C274 157 294.64 162.735 300 178.5C295.303 182.983 292.403 184.957 286 186C294.771 199.892 298.543 213.095 321 207.5L320.786 206.551C314.846 180.156 311.45 165.067 288.5 147.524Z" fill="black"/>
<path d="M321 207.5C298.543 213.095 294.771 199.892 286 186C292.403 184.957 295.303 182.983 300 178.5C294.64 162.735 274 157 268.678 174C267.624 190.915 275.126 207.23 287.5 218.5L276 243.378C285.691 234.509 293.174 230 311.5 223C295.78 219.774 289.052 216.505 281.5 207.5C283.142 203.452 285.031 201.849 290.5 200.5C299.282 213.033 305.454 216.151 321 207.5Z" fill="#773A03"/>
<path d="M197.138 365C189.548 375.914 183.037 381.252 170.5 390.461L362.518 422.129H402C411.956 414.356 422.353 405.839 433.898 396.092C434.249 395.795 434.602 395.497 434.956 395.198L409.619 397.786L406.5 397.305L376.369 392.656L197.138 365Z" fill="#37191B"/>
<path d="M579 316.5C576.815 316.458 568.483 309.671 566.457 306.678C566.395 307.292 566.331 307.899 566.266 308.5C572.084 314.715 574.748 316.739 578.5 317.5L579 316.5Z" fill="black"/>
<path d="M564.902 251C565.082 251.642 565.254 252.309 565.416 253C565.433 253.074 565.451 253.148 565.468 253.222C572.388 250.344 575.816 248.368 581.5 244.5L580.5 243C574.898 246.386 571.502 248.126 564.902 251Z" fill="black"/>
<path d="M567.5 265.5C567.565 266.244 567.325 266.498 567.379 267.261L567.395 267.5C572.913 266.816 585.482 262.079 589 260L586.298 259C583.909 260.809 572.085 265.45 567.5 265.5Z" fill="black"/>
<path d="M584 304.5L585 303.5C578.336 299.934 574.456 297.753 567.32 295.883C566.828 295.754 566.32 295.626 565.795 295.5V297.5C566.278 297.58 566.746 297.667 567.201 297.76C573.628 299.071 577.44 301.596 584 304.5Z" fill="#040404"/>
<path d="M590 287.5L590.5 285.5C581.638 281.763 576.388 280.109 567.8 279.59C567.216 279.555 566.617 279.525 566 279.5V281.5C566.617 281.519 567.215 281.542 567.798 281.572C576.353 282.004 581.469 283.634 590 287.5Z" fill="#040404"/>
<path fill-rule="evenodd" clip-rule="evenodd" d="M389.5 223C378.769 218.104 372.847 217.7 366.5 222.436C365.199 223.406 363.881 224.592 362.5 226C360.261 235.127 361.05 239.818 374.5 252.5C378.197 252.5 380.825 252.52 383.014 252.536C386.45 252.561 388.802 252.579 392.5 252.5C395.678 248.83 398.157 246.36 405 240.5C402.892 233.48 400.144 229.623 389.5 223Z" fill="#895424"/>
<path fill-rule="evenodd" clip-rule="evenodd" d="M366.5 222.436C365.199 223.406 363.881 224.592 362.5 226C360.261 235.127 361.05 239.818 374.5 252.5C378.197 252.5 380.825 252.52 383.014 252.536C386.45 252.561 388.802 252.579 392.5 252.5C395.678 248.83 398.157 246.36 405 240.5C393.648 230.321 387.251 224.641 366.5 222.436Z" fill="black"/>
<path d="M405 240.5C402.892 233.48 400.144 229.623 389.5 223C378.769 218.104 372.847 217.7 366.5 222.436C387.251 224.641 393.648 230.321 405 240.5Z" fill="#773A03"/>
<path d="M464.5 327C466.587 326.534 469.953 325.165 473.78 323.35C483.701 318.644 496.718 310.936 498.579 308.178C498.641 308.792 498.704 309.399 498.77 310C494.707 314.34 481.68 321.025 472.912 324.923C469.125 326.607 466.132 327.77 465 328L464.5 327Z" fill="black"/>
<path d="M498 254.05C497.819 254.692 497.648 255.359 497.486 256.05C497.468 256.123 497.451 256.197 497.434 256.271C492.99 254.423 482.549 249.442 474.14 245.09C469.455 242.664 465.4 240.434 463.366 239.05L464.366 237.55C466.413 238.787 470.572 240.938 475.349 243.312C483.648 247.434 493.811 252.225 498 254.05Z" fill="black"/>
<path d="M497.536 267C497.471 267.744 497.71 267.998 497.657 268.761L497.64 269C494.195 269.642 477.517 269.607 463.592 268.729C453.653 268.103 445.117 267.047 443.798 265.5L444 264C444.977 265.333 453.782 266.325 464.003 266.923C478.079 267.746 494.839 267.819 497.536 267Z" fill="black"/>
<path d="M454.5 311L453.5 310C455.869 308.732 461.304 307.07 467.646 305.371C479.142 302.291 493.617 299.088 498.216 297.883C498.708 297.754 499.215 297.626 499.74 297.5V299.5C499.258 299.58 498.79 299.667 498.335 299.76C494.147 300.614 479.588 303.895 468.138 306.881C462.018 308.477 456.785 309.988 454.5 311Z" fill="#040404"/>
<path d="M439.5 297L439 295C442.837 293.382 452.66 290.654 463.263 288.039C477.146 284.615 492.366 281.384 497.235 281.09C497.819 281.055 498.419 281.025 499.036 281V283C498.419 283.019 497.82 283.042 497.238 283.072C492.404 283.316 477.321 286.497 463.577 289.915C452.997 292.546 443.211 295.318 439.5 297Z" fill="#040404"/>
<path fill-rule="evenodd" clip-rule="evenodd" d="M332 186C330.831 183.332 329.669 180.836 328.494 178.5C319.257 160.142 309.199 151.674 288.5 147.524C311.45 165.067 314.846 180.156 320.786 206.551L321 207.5C305.454 216.151 299.282 213.033 290.5 200.5C285.031 201.849 283.142 203.452 281.5 207.5C289.052 216.505 295.78 219.774 311.5 223C293.174 230 285.691 234.509 276 243.378L238.5 324.5L197.138 365L376.369 392.656L406.5 397.305L409.619 397.786C403.052 389.5 396.362 382.439 388.859 376.5C375.076 365.59 358.548 358.468 335 354.5L336.143 354.03C355.777 345.957 367.126 341.291 375.5 333.5L378 348C396.675 340.138 407.318 336.551 427 333.5L423.5 338C432.192 336.424 436.82 335.056 444 330.5C448.321 334.252 451.288 335.829 457.5 338L472.912 324.923C469.125 326.607 466.132 327.77 465 328L464.5 327C466.587 326.534 469.953 325.165 473.78 323.35C471.784 317.477 469.836 312.043 468.138 306.881C462.018 308.477 456.785 309.988 454.5 311L453.5 310C455.869 308.732 461.304 307.07 467.646 305.371C465.915 300 464.48 294.912 463.577 289.915C452.997 292.546 443.211 295.318 439.5 297L439 295C442.837 293.382 452.66 290.654 463.263 288.039C462.275 281.628 462.219 275.328 463.592 268.729C453.653 268.103 445.117 267.047 443.798 265.5L444 264C444.977 265.333 453.782 266.325 464.003 266.923C465.672 260.139 468.875 253.006 474.14 245.09C469.455 242.664 465.4 240.434 463.366 239.05L464.366 237.55C466.413 238.787 470.572 240.938 475.349 243.312C478.052 239.416 481.249 235.329 485 231C495.303 222.902 501.638 219.241 515 216C469.94 200.778 443.53 192.652 378.5 184.5C352.168 184.412 331.172 183.848 332 186ZM389.5 223C400.144 229.623 402.892 233.48 405 240.5C398.157 246.36 395.678 248.83 392.5 252.5C388.802 252.579 386.45 252.561 383.014 252.536C380.825 252.52 378.197 252.5 374.5 252.5C361.05 239.818 360.261 235.127 362.5 226C363.881 224.592 365.199 223.406 366.5 222.436C372.847 217.7 378.769 218.104 389.5 223Z" fill="#895424"/>
<path d="M281.269 533.698C345.627 494.258 382.442 476.151 435.769 427.698L433.898 396.092C422.353 405.839 411.956 414.356 402 422.129C376.689 441.888 354.221 456.834 322.946 474.923C311.269 485.698 211.5 525 199.36 523.463C151.835 531.198 122.934 529.024 73.7938 520.404C71.6039 526.063 70.5364 530.573 71.5 532.5C69.3869 542.533 67.6403 550.051 65.5007 557.277C123.252 565.236 155.506 566.785 212.5 557.277C222 557.277 281.269 533.698 281.269 533.698Z" fill="#37191B"/>
<path d="M144.5 409.5H152C128.795 431.577 117.512 446.935 99 477.117C95.9232 477.934 80.1422 503.999 73.7938 520.404C122.934 529.024 151.835 531.198 199.36 523.463C211.5 525 311.269 485.698 322.946 474.923C354.221 456.834 376.689 441.888 402 422.129H362.518L170.5 390.461C162.466 396.794 154.659 402.524 144.5 409.5Z" fill="#895424"/>
<path d="M437.5 452.5L435.769 427.698C382.442 476.151 345.627 494.258 281.269 533.698C281.269 533.698 222 557.277 212.5 557.277C155.506 566.785 123.252 565.236 65.5007 557.277C63.6342 563.581 61.4687 569.663 58.5 577V635C63.7492 648.574 63.6731 656.162 65.5 667.5L99.5 695.5L123 698.5H131.5L175.5 707.5C208.145 707.604 225.975 705.988 255.5 695C312.741 678.907 340.716 661.984 383 617C398.526 597.988 406.224 585.72 416 557.5C419.673 551.658 422.514 544.533 428.229 511.5C430.689 497.285 433.68 478.273 437.5 452.5Z" fill="#895424"/>
<path d="M376.5 191C355.415 196.191 357.056 194.699 355.5 197.5L404 206.5C398.568 203.316 395.677 201.575 401 201.5C412.119 201.737 418.357 202.523 429.5 206.5C421.841 206.028 419.374 206.79 416.5 209C452.015 224.549 458.956 226.902 465 228C471.044 229.098 499.203 221.5 495.5 216C491.797 210.5 428.163 192.91 376.5 188.5V191Z" fill="#773A03"/>
<path d="M98.0196 524C92.8785 537.509 93.143 544.677 96.0196 555.832C97.4359 555.057 98.7292 554.37 99.9611 553.755C97.5242 542.853 97.5699 536.318 102.02 524.555C100.698 524.377 99.3653 524.192 98.0196 524Z" fill="black"/>
<path d="M79.0196 563.029C73.5954 566.781 91.2605 606.085 97.9883 605.409C102.916 604.913 105.073 603.467 107.988 601.909C109.054 601.34 109.978 601.139 111.52 600.42L111.529 600.415C113 599.729 114.614 599.163 116.02 598.529C113.828 596.68 106.898 585.619 105.286 583.029C104.799 582.247 104.331 581.416 103.877 580.529C102.786 578.398 101.775 575.938 100.779 573.029C100.506 572.23 100.234 571.398 99.9611 570.529C99.0785 567.714 98.1936 564.517 97.2605 560.853C93.3822 560.45 89.4102 560.002 85.3203 559.51L84.9181 559.462C83.6835 559.924 83.3549 559.99 83.0673 560.136C82.6309 560.359 82.2892 560.767 79.0196 563.029Z" fill="#E4C9B1"/>
<path d="M84.9181 559.462L85.3203 559.51C89.4102 560.002 93.3822 560.45 97.2605 560.853C96.8571 559.269 96.4447 557.598 96.0196 555.832C94.8677 556.204 93.6952 556.572 92.5315 556.937L92.5305 556.937C89.8205 557.788 87.1588 558.623 84.9181 559.462Z" fill="#E4C9B1"/>
<path d="M114.52 526.06C113.195 525.922 111.862 525.775 110.52 525.62C107.771 537.886 107.736 543.212 110.52 549.847C111.606 549.584 112.762 549.337 114.02 549.098L113.988 548.904C112.472 542.403 111.874 538.811 114.52 526.06Z" fill="black"/>
<path d="M114.367 568.446L105.538 571.424L111.018 572.303L114.367 568.446Z" fill="#E4C9B1"/>
<path d="M105.538 571.424L100.779 573.029L104.495 573.529L109.383 574.186L111.018 572.303L105.538 571.424Z" fill="black"/>
<path d="M118.569 567.029C118.295 566.239 118.028 565.408 117.768 564.529L114.367 568.446L111.018 572.303L109.383 574.186L106.047 578.029L103.877 580.529L108.866 578.716L112.301 574.579L113.818 572.753L116.52 569.498L118.569 567.029Z" fill="black"/>
<path d="M103.877 580.529C104.331 581.416 104.799 582.247 105.286 583.029L108.866 581.62L119.52 577.428L123.077 576.029L118.106 575.36L108.866 578.716L103.877 580.529Z" fill="black"/>
<path d="M108.866 578.716L118.106 575.36L115.204 574.97L112.301 574.579L108.866 578.716Z" fill="#E4C9B1"/>
<path d="M123.077 576.029C122.624 575.39 122.189 574.726 121.771 574.029L118.334 573.477L113.818 572.753L112.301 574.579L115.204 574.97L118.106 575.36L123.077 576.029Z" fill="black"/>
<path d="M99.9611 570.529C100.234 571.398 100.506 572.23 100.779 573.029L105.538 571.424L114.367 568.446L117.768 564.529L114.52 565.623L103.52 569.33L99.9611 570.529Z" fill="black"/>
<path d="M150.52 535.718L114.52 549.004C115.369 554.496 116.25 558.91 117.217 562.562C132.449 563.548 146.79 563.661 162.046 562.733C161.694 562.211 161.352 561.683 161.02 561.143C160.995 561.102 160.97 561.062 160.945 561.021C160.919 560.979 160.894 560.937 160.868 560.895C160.315 559.981 159.788 559.033 159.284 558.029C158.736 556.938 158.214 555.781 157.711 554.529C157.516 554.044 157.324 553.544 157.135 553.029C157.086 552.896 157.037 552.763 156.989 552.628L156.954 552.529C156.724 551.888 156.499 551.222 156.276 550.529C155.924 549.435 155.579 548.272 155.239 547.029C154.32 543.676 153.432 539.737 152.52 534.98L150.52 535.718Z" fill="#E4C9B1"/>
<path d="M133.52 591.529L168.76 575.938L170.26 575.351C168.785 573.564 163.234 564.491 162.046 562.733C146.79 563.661 132.449 563.548 117.217 562.562C117.398 563.243 117.581 563.898 117.768 564.529C118.028 565.408 118.295 566.239 118.569 567.029C119.532 569.8 120.586 572.053 121.771 574.029C122.189 574.726 122.624 575.39 123.077 576.029C124.716 578.342 131.32 589.341 133.52 591.529Z" fill="#E4C9B1"/>
<path d="M168.52 529.075C168.294 528.245 168.262 527.75 168.52 526.761C167.297 526.863 166.084 526.957 164.878 527.043C164.612 528.315 164.688 528.949 165.18 529.898C166.215 529.623 167.316 529.354 168.52 529.075Z" fill="black"/>
<path d="M177.888 556.529C177.589 556.106 177.3 555.681 177.02 555.254L176.954 555.154L176.908 555.083C176.872 555.028 176.836 554.972 176.801 554.917L173.655 554.538L169.42 554.029L168.122 555.561L173.63 556.107L177.888 556.529Z" fill="black"/>
<path d="M168.122 555.561L164.878 559.39L173.63 556.107L168.122 555.561Z" fill="#E4C9B1"/>
<path d="M161.02 561.143C161.352 561.683 161.694 562.211 162.046 562.733L164.245 561.872L175.52 557.456L177.888 556.529L173.63 556.107L164.878 559.39L160.868 560.895L160.945 561.021L161.02 561.143Z" fill="black"/>
<path d="M157.135 553.029C157.324 553.544 157.516 554.044 157.711 554.529L161.814 553.114L170.037 550.277L172.842 547.029L169.857 548.062L160.02 551.467L156.954 552.529L156.989 552.628C157.037 552.763 157.086 552.896 157.135 553.029Z" fill="black"/>
<path d="M173.655 549.029C173.442 548.539 173.235 548.04 173.035 547.529C173.001 547.444 172.968 547.358 172.935 547.272C172.904 547.191 172.872 547.11 172.842 547.029L170.037 550.277L167.044 553.743L165.683 555.319L162.48 559.029L160.868 560.895L164.878 559.39L168.122 555.561L169.42 554.029L171.901 551.099L173.655 549.029Z" fill="black"/>
<path d="M167.044 553.743L170.037 550.277L161.814 553.114L164.429 553.428L167.044 553.743Z" fill="#E4C9B1"/>
<path d="M157.711 554.529L160.868 554.821L165.683 555.319L167.044 553.743L164.429 553.428L161.814 553.114L157.711 554.529Z" fill="black"/>
<path d="M152.52 534.98C153.432 539.737 154.32 543.676 155.239 547.029C155.579 548.272 155.924 549.435 156.276 550.529C156.499 551.222 156.724 551.888 156.954 552.529L160.02 551.467C158.061 545.334 157.018 541.728 155.767 533.343C154.753 533.827 153.683 534.367 152.52 534.98Z" fill="black"/>
<path fill-rule="evenodd" clip-rule="evenodd" d="M160.02 551.467C158.061 545.334 157.018 541.728 155.767 533.343C159.038 531.784 161.739 530.811 165.18 529.898C166.621 537.867 167.684 541.755 169.857 548.062L160.02 551.467Z" fill="#E4C9B1"/>
<path d="M171.079 541.529C170.128 538.017 169.31 533.959 168.52 529.075C167.316 529.354 166.215 529.623 165.18 529.898C166.621 537.867 167.684 541.755 169.857 548.062L172.842 547.029C172.596 546.381 172.359 545.716 172.13 545.029C171.76 543.921 171.411 542.758 171.079 541.529Z" fill="black"/>
<path d="M99.9611 553.755C98.7292 554.37 97.4359 555.057 96.0196 555.832C96.4447 557.598 96.8571 559.269 97.2605 560.853C98.6233 560.995 99.9746 561.131 101.315 561.261C100.822 559.096 100.397 556.776 99.9611 553.755Z" fill="black"/>
<path d="M97.2605 560.853C98.1936 564.517 99.0785 567.714 99.9611 570.529L103.52 569.33C102.595 566.231 101.906 563.857 101.315 561.261C99.9746 561.131 98.6233 560.995 97.2605 560.853Z" fill="black"/>
<path fill-rule="evenodd" clip-rule="evenodd" d="M101.315 561.261C105.463 561.664 109.509 562.013 113.487 562.304C112.267 558.273 111.468 555.073 110.52 549.847C106.534 550.81 103.502 551.986 99.9611 553.755C100.397 556.776 100.822 559.096 101.315 561.261Z" fill="#E4C9B1"/>
<path d="M114.52 549.004C114.351 549.036 114.184 549.067 114.02 549.098C112.762 549.337 111.606 549.584 110.52 549.847C111.468 555.073 112.267 558.273 113.487 562.304L113.663 562.317C114.501 562.378 115.335 562.437 116.166 562.493C116.517 562.516 116.867 562.539 117.217 562.562C116.25 558.91 115.369 554.496 114.52 549.004Z" fill="black"/>
<path fill-rule="evenodd" clip-rule="evenodd" d="M103.52 569.33C102.595 566.231 101.906 563.857 101.315 561.261C105.463 561.664 109.509 562.013 113.487 562.304C113.8 563.34 114.141 564.43 114.52 565.623L103.52 569.33Z" fill="#E4C9B1"/>
<path d="M117.217 562.562C116.867 562.539 116.517 562.516 116.166 562.493C115.335 562.437 114.501 562.378 113.663 562.317L113.487 562.304C113.8 563.34 114.141 564.43 114.52 565.623L117.768 564.529C117.581 563.898 117.398 563.243 117.217 562.562Z" fill="black"/>
<path d="M105.286 583.029C106.898 585.619 113.828 596.68 116.02 598.529C116.52 598.529 118.52 598.029 119.336 597.406C116.986 595.006 110.78 584.664 108.866 581.62L105.286 583.029Z" fill="black"/>
<path fill-rule="evenodd" clip-rule="evenodd" d="M119.336 597.406C116.986 595.006 110.78 584.664 108.866 581.62L119.52 577.428C121.484 580.746 127.674 591.112 129.988 593.34C126.273 595.132 123.219 596.239 119.336 597.406Z" fill="#E4C9B1"/>
<path d="M133.52 591.529C131.32 589.341 124.716 578.342 123.077 576.029L119.52 577.428C121.484 580.746 127.674 591.112 129.988 593.34C131.02 593.029 132.02 592.529 133.52 591.529Z" fill="black"/>
<path d="M181.454 561.05C180.132 559.52 178.951 558.034 177.888 556.529L175.52 557.456L178.289 561.39C179.337 561.282 180.392 561.168 181.454 561.05Z" fill="black"/>
<path d="M186.02 568.001C185.922 567.889 184.405 565.407 183.412 563.931L183.411 563.929C182.467 562.526 181.545 561.155 181.454 561.05C180.392 561.168 179.337 561.282 178.289 561.39L183.52 569.529C184.315 569.093 185.142 568.527 186.02 568.001Z" fill="black"/>
<path fill-rule="evenodd" clip-rule="evenodd" d="M172.52 574.529C176.879 573.431 179.881 571.523 183.52 569.529L178.289 561.39C173.673 561.868 169.183 562.256 164.777 562.557L172.52 574.529Z" fill="#E4C9B1"/>
<path d="M162.046 562.733C163.234 564.491 168.785 573.564 170.26 575.351C171.161 575.351 172.02 575.029 172.52 574.529L164.777 562.557L164.529 562.574C163.699 562.63 162.871 562.683 162.046 562.733Z" fill="black"/>
<path fill-rule="evenodd" clip-rule="evenodd" d="M175.52 557.456L178.289 561.39C173.673 561.868 169.183 562.256 164.777 562.557L164.245 561.872L175.52 557.456Z" fill="#E4C9B1"/>
<path d="M164.245 561.872L162.046 562.733C162.871 562.683 163.699 562.63 164.529 562.574L164.777 562.557L164.245 561.872Z" fill="#2E302A"/>
<path fill-rule="evenodd" clip-rule="evenodd" d="M118.334 573.477L116.52 569.498L113.818 572.753L118.334 573.477Z" fill="#E4C9B1"/>
<path d="M121.771 574.029C120.586 572.053 119.532 569.8 118.569 567.029L116.52 569.498L118.334 573.477L121.771 574.029Z" fill="black"/>
<path fill-rule="evenodd" clip-rule="evenodd" d="M106.047 578.029L109.383 574.186L104.495 573.529C104.838 575.469 105.23 576.416 106.047 578.029Z" fill="#E4C9B1"/>
<path d="M100.779 573.029C101.775 575.938 102.786 578.398 103.877 580.529L106.047 578.029C105.23 576.416 104.838 575.469 104.495 573.529L100.779 573.029Z" fill="black"/>
<path fill-rule="evenodd" clip-rule="evenodd" d="M160.868 554.821C161.387 556.779 161.619 557.182 162.666 558.997L162.48 559.029L165.683 555.319L160.868 554.821Z" fill="#E4C9B1"/>
<path fill-rule="evenodd" clip-rule="evenodd" d="M173.655 554.538C172.78 553.304 172.359 552.576 171.901 551.099L169.42 554.029L173.655 554.538Z" fill="#E4C9B1"/>
<path d="M152.52 534.98C153.683 534.367 154.753 533.827 155.767 533.343C155.194 531.661 155.146 530.436 155.767 527.547C154.657 527.59 153.55 527.626 152.447 527.655C151.619 530.983 151.765 532.52 152.52 534.98Z" fill="black"/>
<path d="M157.711 554.529C158.214 555.781 158.736 556.938 159.284 558.029C159.788 559.033 160.315 559.981 160.868 560.895L162.48 559.029L162.666 558.997C161.619 557.182 161.387 556.779 160.868 554.821L157.711 554.529Z" fill="black"/>
<path d="M175.103 552.029C174.588 551.063 174.107 550.068 173.655 549.029L171.901 551.099C172.359 552.576 172.78 553.304 173.655 554.538L176.801 554.917C176.195 553.975 175.631 553.018 175.103 552.029Z" fill="black"/>
<path d="M195.52 563.529L194.648 559.396C193.982 559.489 193.319 559.579 192.659 559.669C193.432 560.653 194.719 562.588 195.52 563.529Z" fill="#4E4945"/>
<path d="M193.864 556.226C191.609 549.119 186.042 539.52 177.02 525.938C179.137 538.453 185.062 549.897 192.425 559.368L194.602 558.997C194.417 558.117 194.171 557.195 193.864 556.226Z" fill="#4E4945"/>
<path fill-rule="evenodd" clip-rule="evenodd" d="M194.602 558.997C194.868 560.269 195.507 562.423 195.52 563.529L194.648 559.396L194.602 558.997ZM192.425 559.368C185.062 549.897 179.137 538.453 177.02 525.938L168.52 529.075C169.31 533.959 170.128 538.017 171.079 541.529C171.411 542.758 171.76 543.921 172.13 545.029C172.359 545.716 172.596 546.381 172.842 547.029C172.872 547.11 172.904 547.191 172.935 547.272C172.968 547.358 173.001 547.444 173.035 547.529C173.235 548.04 173.442 548.539 173.655 549.029C174.107 550.068 174.588 551.063 175.103 552.029C175.631 553.018 176.195 553.975 176.801 554.917C176.836 554.972 176.872 555.028 176.908 555.083L176.954 555.154L177.02 555.254C177.3 555.681 177.589 556.106 177.888 556.529C178.951 558.034 180.132 559.52 181.454 561.05C181.545 561.155 182.467 562.526 183.411 563.929L183.412 563.931C184.405 565.407 185.922 567.889 186.02 568.001L195.52 563.529C194.719 562.588 193.432 560.653 192.659 559.669C192.581 559.569 192.503 559.468 192.425 559.368Z" fill="#E4C9B1"/>
<path d="M192.659 559.669C193.319 559.579 193.982 559.489 194.648 559.396L194.602 558.997L192.425 559.368C192.503 559.468 192.581 559.569 192.659 559.669Z" fill="#4E4945"/>
<path d="M144.5 793.5L157.618 759.208L127.496 733.553L119 802L148 823L163 823C166.753 808.851 144.5 793.5 144.5 793.5Z" fill="black"/>
<path d="M139.352 771.907C180.254 773.95 217.034 714.709 217.034 714.709C217.034 714.709 224.618 666.37 219.252 647.879C217.05 640.291 211.813 614.752 203.512 603.118C219.296 660.068 207.289 667.596 188.976 684.653L187.945 669.556C172.809 684.568 164.433 693.785 149.946 713.514L147.953 703.715L141.617 715.209L128.104 691.425L117.991 716.954C115.092 700.733 114.269 691.89 114.915 676.76L104.162 686.602L102.268 677.292C92.7322 682.467 87.6222 686.467 79.0908 696.295C75.0401 685.548 73.602 678.098 65.7519 665.843C67.5476 707.064 105.776 707.045 113.669 712.675C111.732 723.957 98.4495 769.864 139.352 771.907Z" fill="#773A03"/>
<path d="M65.7519 665.843C73.602 678.098 75.0401 685.548 79.0908 696.295C87.6222 686.467 92.7322 682.467 102.268 677.292L104.162 686.602L114.915 676.76C114.269 691.89 115.092 700.733 117.991 716.954L128.104 691.425L141.617 715.209L147.953 703.715L149.946 713.514C164.433 693.785 172.809 684.568 187.945 669.556L188.976 684.653C207.289 667.596 219.296 660.068 203.512 603.118L65.7519 665.843Z" fill="#895424"/>
<path d="M256.877 666.736C259.611 672.313 259.751 675.764 260.364 681.839L261.338 681.614C261.126 675.165 261.253 671.543 257.852 666.511L256.877 666.736Z" fill="black"/>
<path d="M267.22 658.191C272.247 666.551 272.179 671.046 272.059 678.964C272.058 679.023 272.057 679.081 272.056 679.14L274.005 678.69C273.927 670.092 274.447 665.138 269.169 657.741L267.22 658.191Z" fill="black"/>
<path d="M255.005 683.076C257.221 683.455 258.408 683.277 260.364 681.839C259.751 675.764 259.611 672.313 256.877 666.736L257.852 666.511C261.253 671.543 261.126 675.165 261.338 681.614C264.129 685.67 266.045 686.675 272.056 679.14L272.059 678.964C272.179 671.046 272.247 666.551 267.22 658.191L269.169 657.741C274.447 665.138 273.927 670.092 274.005 678.69C279.106 681.38 281.69 680.482 285.735 673.929C291.381 664.97 291.39 658.055 280.142 642.379C272.637 637.701 268.503 635.462 261.484 633.344C259.933 640.114 258.098 644.133 252.416 651.859C253.323 648.041 253.41 646.002 250.392 643.089C246.79 646.082 245.994 648.578 244.788 652.363L244.787 652.367C244.649 652.8 244.505 653.25 244.351 653.72C249.261 661.273 252.386 670.223 255.005 683.076Z" fill="#3E1400"/>
<path d="M260.129 574.131L275.491 536.204C278.286 530.922 280.849 526.447 283.17 522.396L283.172 522.392C284.486 520.097 285.723 517.938 286.88 515.845C294.658 501.775 291.601 483.735 285.828 467.621C290.81 499.417 288.953 513.181 274.083 527.638C273.363 524.213 272.567 521.753 271.442 518.665C264.279 550.008 261.577 558.441 257.992 564.875C255.121 561.986 254.048 559.805 255.18 552.695L250.308 553.82C250.07 544.692 248.257 538.669 244.235 527.512C240.455 538.016 236.801 542.946 229.134 551.011L228.57 535.234C218.407 556.764 211.481 568.835 198.706 590.365L194.809 591.264C189.724 579.596 187.109 572.38 183.937 555.288C182.146 565.26 181.885 573.051 182.559 582.29C172.463 566.095 169.338 550.711 177.11 490.154C167.433 538.059 166.363 558.425 177.2 584.516C179.207 589.347 181.622 594.375 184.466 599.81C188.937 605.375 192.631 609.859 197.609 614.507C203.685 620.179 211.673 626.094 225.319 634.509C229.813 637.952 233.611 641.182 236.859 644.485C239.761 647.437 242.223 650.447 244.351 653.72C244.505 653.25 244.649 652.8 244.787 652.367L244.788 652.363C245.994 648.578 246.79 646.082 250.392 643.089C253.41 646.002 253.323 648.041 252.416 651.859C258.098 644.133 259.933 640.114 261.484 633.344C268.503 635.462 272.637 637.701 280.142 642.379C278.959 640.73 277.651 638.984 276.212 637.128C266.193 617.571 261.51 604.851 260.391 585.873C260.176 582.222 260.093 578.339 260.129 574.131Z" fill="#773A03"/>
<path d="M257.992 564.875C261.577 558.441 264.279 550.008 271.442 518.665C272.567 521.753 273.363 524.213 274.083 527.638C288.953 513.181 290.81 499.417 285.828 467.621L177.11 490.154C169.338 550.711 172.463 566.095 182.559 582.29C181.885 573.051 182.146 565.26 183.937 555.288C187.109 572.38 189.724 579.596 194.809 591.264L198.706 590.365C211.481 568.835 218.407 556.764 228.57 535.234L229.134 551.011C236.801 542.946 240.455 538.016 244.235 527.512C248.257 538.669 250.07 544.692 250.308 553.82L255.18 552.695C254.048 559.805 255.121 561.986 257.992 564.875Z" fill="#895424"/>
</svg>
