<svg width="1745" height="1138" viewBox="0 0 1745 1138" fill="none" xmlns="http://www.w3.org/2000/svg">
<path fill-rule="evenodd" clip-rule="evenodd" d="M1733.12 547.912C1596.08 666.15 1507.21 654.013 1381.31 594.443C1383.55 582.402 1385.72 571.143 1387.76 560.545C1408.42 453.287 1416.05 413.67 1354.53 315.102C1427.13 359.044 1456.23 388.806 1469.84 458.795C1482.56 401.938 1489.68 353.871 1489.57 307.873L1724.87 518.379C1727.63 527.999 1730.38 537.839 1733.12 547.912Z" fill="#456746"/>
<path d="M1412.15 46.0709C1466.57 151.648 1489.38 226.524 1489.57 307.873L1724.87 518.379C1658.63 287.67 1584.25 183.568 1412.15 46.0709Z" fill="#D62C0C"/>
<path d="M1123.88 648.025C1125.9 644.622 1128.08 641.051 1130.41 637.288C1147.54 628.703 1160.49 620.163 1177.96 608.498C1017.66 580.298 962.559 594.556 902.022 652.683C927.653 653.839 938.606 654.546 953.857 655.886C1007.2 610.525 1078.91 673.11 1045.69 724.267C1043.98 725.704 1042.71 726.866 1041.76 727.865C1041.82 731.774 1041.83 735.387 1041.8 738.784C1041.64 754.348 1040.48 765.385 1037.96 779.569C1037.5 782.169 1036.99 784.875 1036.43 787.735C1063.57 884.53 958.007 882.088 937.678 850.381L884.666 840.827C913.327 878.972 930.823 899.682 992.981 921.92C1070.77 929.702 1114.1 932.035 1169.56 926.966C1141.52 901.002 1133.01 896.234 1108.89 873.832C1088.84 821.839 1089.01 811.114 1087.16 788.515L1087.72 786.769L1095.51 762.662C1096.46 755.759 1096.16 749.723 1094.78 741.118C1094.23 737.682 1093.51 733.838 1092.62 729.365C1096.75 703.35 1100.9 686.583 1123.88 648.025Z" fill="black"/>
<path d="M1197.26 595.665C1051.38 570.687 968.897 558.955 886.121 657.272L902.022 652.683C962.559 594.556 1017.66 580.298 1177.96 608.498C1183.78 604.607 1190.11 600.369 1197.26 595.665Z" fill="#E6EAEB"/>
<path d="M1131.35 642.369C1168.73 623.57 1179.09 613.54 1197.26 595.665C1190.11 600.369 1183.78 604.607 1177.96 608.498C1160.49 620.163 1147.54 628.703 1130.41 637.288C1128.08 641.051 1125.9 644.622 1123.88 648.025C1127.3 646.29 1128.87 645.002 1131.35 642.369Z" fill="#544E2E"/>
<path d="M902.022 652.683L886.121 657.272C891.057 659.144 894.683 660.061 901.706 661.61C920.9 660.129 932.639 660.355 952.934 660.745L954.104 660.767L953.857 655.886C938.606 654.546 927.653 653.839 902.022 652.683Z" fill="#544E2E"/>
<path d="M953.857 655.886L954.104 660.767C1004.05 618.335 1066.03 665.643 1040.77 722.551L1037.33 737.641C1038.96 732.954 1038.33 731.458 1041.76 727.865C1042.71 726.866 1043.98 725.704 1045.69 724.267C1078.91 673.11 1007.2 610.525 953.857 655.886Z" fill="#544E2E"/>
<path fill-rule="evenodd" clip-rule="evenodd" d="M884.666 840.827L870.799 840.44C874.274 845.206 877.382 849.694 880.347 853.978C899.67 881.889 912.982 901.118 982.961 931.66C1038.42 941.511 1075.91 945.237 1179.89 941.475C1183.44 938.435 1181.79 935.468 1169.56 926.966C1114.1 932.035 1070.77 929.702 992.981 921.92C930.823 899.682 913.327 878.972 884.666 840.827Z" fill="#E6EAEB"/>
<path d="M937.678 850.381C958.007 882.088 1063.57 884.53 1036.43 787.735C1036.99 784.875 1037.5 782.169 1037.96 779.569L1032.13 778.679L1030.08 788.912C1066.43 852.138 974.628 893.788 938.9 844.571C892.433 836.399 877.878 835.641 870.799 840.44L884.666 840.827L937.678 850.381Z" fill="#544E2E"/>
<path d="M1094.78 741.118C1096.16 749.723 1096.46 755.759 1095.51 762.662L1087.72 786.769C1100.13 786.278 1106.49 786.879 1116.34 790.005C1129.71 769.612 1128.29 758.844 1119.9 740.076L1094.78 741.118Z" fill="#DBBF9F"/>
<path d="M1032.13 778.679L1037.96 779.569C1040.48 765.385 1041.64 754.348 1041.8 738.784L1037.33 737.641L827.969 724.546L813.361 727.254C807.211 736.605 804.462 746.515 809.249 758.235L825.846 762.714L1032.13 778.679Z" fill="#DBBF9F"/>
<path d="M809.249 758.235C804.462 746.515 807.211 736.605 813.361 727.254L812.655 723.443C799.157 722.322 792.264 721.326 780.662 719.19C779.984 721.335 778.665 721.487 773.535 721.496C773.561 721.935 773.586 722.369 773.61 722.796C774.36 736.021 774.284 743.967 772.716 756.794C772.649 757.345 772.578 757.906 772.505 758.476C786.393 758.734 793.6 759.307 804.639 761.717C808.314 762.367 809.532 761.828 809.249 758.235Z" fill="#1C120D"/>
<path d="M719.595 753.014C714.927 749.64 712.309 747.467 707.516 717.965C697.039 717.035 686.038 716.013 674.432 714.917C679.965 744.29 682.604 749.888 686.921 750.688L719.595 753.014Z" fill="#4F3128"/>
<path d="M686.921 750.688C682.604 749.888 679.965 744.29 674.432 714.917C662.004 713.742 656.898 713.187 642.99 711.859C646.256 741.888 647.986 746.215 653.024 748.276L686.921 750.688Z" fill="#160903"/>
<path d="M653.024 748.276C647.986 746.215 646.256 741.888 642.99 711.859C640.781 711.649 630.537 710.73 628.288 710.516C619.085 715.937 617.478 723.134 623.233 746.155L653.024 748.276Z" fill="#75594D"/>
<path d="M598.2 707.679C588.532 716.212 586.358 723.343 593.442 744.035L623.233 746.155C617.478 723.134 619.085 715.937 628.288 710.516C618.642 709.598 608.623 708.65 598.2 707.679Z" fill="#140900"/>
<path d="M751.55 755.288C746.674 751.484 744.036 747.274 740.208 720.676C729.874 719.897 719.011 718.986 707.516 717.965C712.309 747.467 714.927 749.64 719.595 753.014L751.55 755.288Z" fill="#170A04"/>
<path d="M772.716 756.794C774.284 743.967 774.36 736.021 773.61 722.796C763.062 722.281 751.978 721.564 740.208 720.676C744.036 747.274 746.674 751.484 751.55 755.288L772.716 756.794Z" fill="#75594D"/>
<path d="M593.442 744.035C586.358 723.343 588.532 716.212 598.2 707.679C589.261 708.608 584.502 707.388 580.698 700.083C572.812 696.076 568.649 695.832 561.949 699.945C554.221 696.048 551.662 698.858 546.706 702.77C541.391 720.446 541.819 728.709 544.242 742.643C544.568 748.772 547.939 749.612 557.722 748.028C563.84 750.575 567.348 751.57 574.706 747.508C580.713 742.025 584.713 741.01 593.442 744.035Z" fill="#BCB3AA"/>
<path d="M643.356 614.846L655.042 462.847L737.095 519.408C736.792 531.277 729.472 527.645 735.148 528.979C734.326 534.723 734.209 539.512 735.037 552.137L689.174 559.603L685.794 560.153L650.045 527.851L643.356 614.846Z" fill="#AEBA78"/>
<path d="M689.174 559.603L735.037 552.137C735.78 560.036 734.001 564.76 731.886 568.399C737.167 573.002 740.461 580.885 746.201 592.739C748.118 610.365 749.869 618.46 753.451 631.736C752.495 640.114 751.412 644.022 750.2 649.37L741.059 643.106L709.625 644.658L693.702 635.288L674.753 636.474C684.147 615.581 690.241 604.814 703.29 588.16C698.45 576.078 698.326 568.606 689.174 559.603Z" fill="#456746"/>
<path d="M624.062 696.865C632.862 692.338 638.283 680.346 647.152 672.363L667.237 663.496L724.045 689.021C713.777 700.043 707.104 705.931 684.7 717.488L658.223 710.398L636.197 719.504L622.174 697.535L624.062 696.865Z" fill="#456746"/>
<path d="M643.356 614.846L650.045 527.851L685.794 560.153L689.174 559.603C698.326 568.606 698.45 576.078 703.29 588.16C690.241 604.814 684.147 615.581 674.753 636.474C661.485 637.965 654.179 640.169 645.487 644.992C643.805 645.925 642.072 646.956 640.233 648.099L640.235 648.054C640.939 635.257 641.334 628.068 644.54 619.01C651.169 609.926 654.795 603.049 660.864 583.521L655.043 584.235L644.54 619.01L643.356 614.846Z" fill="#7A3A2E"/>
<path d="M655.043 584.235L660.864 583.521C654.795 603.049 651.169 609.926 644.54 619.01L655.043 584.235Z" fill="black"/>
<path fill-rule="evenodd" clip-rule="evenodd" d="M750.2 649.37L741.059 643.106L709.625 644.658L693.702 635.288L674.753 636.474C661.485 637.965 654.179 640.169 645.487 644.992L647.152 672.363L667.237 663.496L724.045 689.021C713.777 700.043 707.104 705.931 684.7 717.488L658.223 710.398L636.197 719.504L622.174 697.535L616.512 699.543L615.568 699.878L588.001 720.005L619.261 729.955L620.154 737.231C625.031 738.222 627.309 738.368 630.58 737.921C633.268 750.666 635.689 757.876 640.026 770.738L717.159 761.268C719.835 759.316 722.596 756.692 725.821 753.254L694.631 750.246C656.42 744.876 660.914 719.923 692.998 720.901L694.35 720.942L741.07 720.599C741.322 718.849 741.572 717.163 741.813 715.542C743.249 705.889 744.343 698.529 743.313 693.549C746.63 680.997 747.887 669.858 750.04 650.782L750.2 649.37Z" fill="#2B2D28"/>
<path d="M520.171 858.522L523.89 871.317L550.643 886.704L576.733 900.028L551.464 900.249L489.145 900.749L474.099 900.88L478.28 875.85L475.648 854.367L520.171 858.522Z" fill="#456746"/>
<path d="M312.628 861.908L312.628 882.687L339.355 900.282L307.585 900.282L248.146 868.067L279.099 823.6L298.761 837.4L318.469 839.15L312.628 861.908Z" fill="#456746"/>
<path d="M319.159 679.019L340.782 694.729C334.689 703.121 329.26 711.408 324.372 720.017L292.284 736.135L283.12 761.134L238.011 748.909L168.768 692.492L131.479 643.185L137.53 620.923C156.48 630.857 164.135 635.274 173.3 641.358C169.584 646.897 166.816 650.05 155.942 655.96C158.26 656.327 160.443 657.177 175.195 666.616C177.208 671.686 177.636 674.58 178.012 679.77C182.036 680.091 184.414 679.502 188.975 675.517C201.996 679.978 208.933 683.307 220.648 690.754C221.288 700.379 220.114 705.256 218.334 714.064L228.225 719.029C237.997 705.58 253.312 715.714 260.466 739.676L262.836 714.74L275.255 719.32L295.607 683.568L320.014 697.968L319.159 679.019Z" fill="#2D2727"/>
<path d="M135.051 598.017C134.997 604.927 135.792 610.457 137.53 620.923L131.479 643.185L168.768 692.492L238.011 748.909L283.12 761.134L292.284 736.135L324.372 720.017C314.419 737.547 306.709 756.412 300.209 780.214L312.343 789.031C297.076 795.383 280.982 801.631 251.253 787.965L136.934 703.797C133.042 695.763 129.437 688.706 126.112 682.05C130.325 681.181 132.495 679.89 135.679 674.561C132.675 671.759 130.76 669.253 126.125 659.844C120.148 659.746 118.014 660.285 116.925 662.602C111.465 649.912 107.065 636.516 103.672 617.984L99.2548 614.774L113.972 603.807L99.2479 593.11L99.2484 593C99.3022 580.709 99.3324 573.778 104.163 560.026C109.469 565.943 112.994 572.774 119.59 586.785L135.051 598.017Z" fill="#343F31"/>
<path d="M603.251 777.849L461.414 711.148L353.6 734.572C410.338 780.931 470.639 777.849 476.57 879.642L532.252 875.246C563.991 859.79 583.134 824.947 583.134 824.947C583.134 824.947 600.721 799.554 603.251 777.849Z" fill="black"/>
<path d="M762.712 293.631C766.188 311.282 766.378 320.708 763.911 336.768C758.86 338.007 756.873 337.463 754.332 334.82C747.845 323.939 747.101 322.592 744.324 317.82C746.886 315.499 748.128 311.408 750.405 305.092L762.712 293.631Z" fill="#2A2722"/>
<path d="M685.976 281.011C675.88 295.902 672.022 304.504 668.017 320.251C672.183 323.364 674.225 323.64 677.596 322.2C687.819 314.72 689.03 313.77 693.451 310.463C691.999 307.325 692.455 303.074 692.827 296.37L685.976 281.011Z" fill="#2A2722"/>
<path d="M685.129 334.207C692.52 331.967 694.808 329.649 696.186 323.987C700.435 329.108 702.409 332.152 704.44 338.136L705.431 339.833C688.645 337.849 685.684 336.584 685.129 334.207Z" fill="#A4A971"/>
<path d="M750.785 335.095C750.599 342.552 752.58 345.516 758.886 349.213C756.007 351.437 755.258 353.155 739.143 348.189C739.671 347.222 740.175 346.334 740.673 345.507C743.344 341.074 745.831 338.425 750.785 335.095Z" fill="#A4A971"/>
<path fill-rule="evenodd" clip-rule="evenodd" d="M615.808 253.268C620.979 254.819 618.022 279.156 610.838 277.694C603.314 276.858 586.678 272.898 580.283 270.979C573.889 269.06 577.521 245.985 585.253 246.553C592.985 247.121 610.637 251.718 615.808 253.268ZM603.445 252.748C606.508 262.908 599.547 271.906 599.547 271.906C599.547 271.906 597.052 262.972 603.445 252.748Z" fill="#A4A971"/>
<path fill-rule="evenodd" clip-rule="evenodd" d="M534.867 236.801C540.038 238.351 537.081 262.688 529.897 261.227C522.373 260.391 507.555 257.299 501.161 255.38C494.766 253.461 498.398 230.386 506.13 230.954C513.863 231.522 529.696 235.25 534.867 236.801ZM524.419 236.67C527.482 246.83 520.521 255.828 520.521 255.828C520.521 255.828 518.026 246.894 524.419 236.67Z" fill="#A4A971"/>
<path d="M603.445 252.748C606.508 262.908 599.547 271.906 599.547 271.906C599.547 271.906 597.052 262.972 603.445 252.748Z" fill="#D22B2B"/>
<path d="M524.419 236.67C527.482 246.83 520.521 255.828 520.521 255.828C520.521 255.828 518.026 246.894 524.419 236.67Z" fill="#D22B2B"/>
<path d="M758.886 349.213L774.212 352.331L772.458 360.952L768.626 360.172C768.577 360.146 768.528 360.136 768.477 360.142L579.923 321.78L568.136 320.878L569.598 313.694C576.912 316.176 580.76 317.35 584.445 316.715C595.18 320.499 597.179 320.634 597.856 319.443C608.033 322.655 615.201 326.149 620.845 324.12C634.538 328.843 640.131 330.271 642.876 328.603C653.538 331.9 657.399 332.083 659.745 329.042L685.129 334.207C685.684 336.584 688.645 337.849 705.431 339.833L704.44 338.136L740.673 345.507C740.175 346.334 739.671 347.222 739.143 348.189C755.258 353.155 756.007 351.437 758.886 349.213Z" fill="#2A2722"/>
<path fill-rule="evenodd" clip-rule="evenodd" d="M765.36 275.715L774.939 277.664C775.959 292.976 776.697 300.598 778.078 313.715C779.847 329.5 777.289 337.587 774.212 352.331L758.886 349.213C752.58 345.516 750.599 342.552 750.785 335.095C745.831 338.425 743.344 341.074 740.673 345.507L704.44 338.136C702.409 332.152 700.435 329.108 696.186 323.987C694.808 329.649 692.52 331.967 685.129 334.207L659.745 329.042C657.399 332.083 653.538 331.9 642.876 328.603L633.461 306.238L620.845 324.12L609.497 306.35L597.856 319.443L593.286 310.034L584.445 316.715L579.892 302.322L569.598 313.694L568.136 320.878L579.923 321.78L768.477 360.142C766.725 360.329 763.891 379 759.662 404.235C755.384 405.791 753.027 407.148 748.905 410.525L626.775 385.678L530.508 366.092C504.483 376.379 493.165 380.468 491.071 378.518C483.661 377.54 479.75 376.757 472.871 374.815L469.429 372.12C461.07 358.848 458.262 353.454 454.47 345.135L454.599 364.115C455.147 364.756 455.683 365.392 456.206 366.023L453.596 435.234C433.217 413.522 421.601 402.8 401.085 384.443L400.663 384.065C416.118 350.579 427.016 320.486 446.097 268.617L480.021 271.03C480.021 271.03 483.496 263.757 486.589 255.907C489.683 248.057 492.224 233.113 496.17 228.429C500.115 223.745 505.773 222.901 505.773 222.901L544.089 230.697L546.434 246.137L566.549 250.229L574.741 236.933L625.988 247.359C630.241 249.578 631.055 252.426 632.376 257.637C631.675 274.977 631.625 283.99 632.625 298.087L661.362 303.934C667.449 286.244 673.215 276.616 684.898 259.345L695.434 261.488L705.637 277.53L750.658 286.689L765.36 275.715ZM668.017 320.251C672.022 304.504 675.88 295.902 685.976 281.011L692.827 296.37C692.455 303.074 691.999 307.325 693.451 310.463C689.03 313.77 687.819 314.72 677.596 322.2C674.225 323.64 672.183 323.364 668.017 320.251ZM763.911 336.768C766.378 320.708 766.188 311.282 762.712 293.631L750.405 305.092C748.128 311.408 746.886 315.499 744.324 317.82C747.101 322.592 747.845 323.939 754.332 334.82C756.873 337.463 758.86 338.007 763.911 336.768ZM610.838 277.694C618.022 279.156 620.979 254.819 615.808 253.268C610.637 251.718 592.985 247.121 585.253 246.553C577.521 245.985 573.889 269.06 580.283 270.979C586.678 272.898 603.314 276.858 610.838 277.694ZM529.897 261.227C537.081 262.688 540.038 238.351 534.867 236.801C529.696 235.25 513.863 231.522 506.13 230.954C498.398 230.386 494.766 253.461 501.161 255.38C507.555 257.299 522.373 260.391 529.897 261.227Z" fill="#426640"/>
<path d="M633.461 306.238L642.876 328.603C640.131 330.271 634.538 328.843 620.845 324.12L633.461 306.238Z" fill="#A4A971"/>
<path d="M609.497 306.35L620.845 324.12C615.201 326.149 608.033 322.655 597.856 319.443L609.497 306.35Z" fill="#A4A971"/>
<path d="M593.286 310.034L597.856 319.443C597.179 320.634 595.18 320.499 584.445 316.715L593.286 310.034Z" fill="#A4A971"/>
<path d="M579.892 302.322L584.445 316.715C580.76 317.35 576.912 316.176 569.598 313.694L579.892 302.322Z" fill="#A4A971"/>
<path d="M425.266 277.846C432.114 273.741 436.846 271.789 446.097 268.617C427.016 320.486 416.118 350.579 400.663 384.065L387.878 385.62L371.512 387.611C372.861 380.664 373.01 376.416 371.099 367.576C379.249 363.873 385.073 361.803 397.97 358.08C393.247 349.304 390.804 344.261 388.368 334.181C396.28 329.225 401.417 326.208 415.352 319.221L408.299 307.312C414.416 303.442 418.566 301.232 427.311 297.215C426.275 289.699 426.04 285.5 425.266 277.846Z" fill="#2D2727"/>
<path d="M626.775 385.678L599.148 420.956C593.382 423.223 587.939 423.581 580.737 423.195C581.946 434.414 557.783 457.438 561.65 455.722C543.671 464.609 534.945 467.744 521.15 470.924C510.226 466.624 501.24 464.665 481.114 461.781L462.113 443.451C469.899 433.477 474.66 423.933 482.059 408.107C472.417 389.572 466.802 378.798 456.206 366.023C455.683 365.392 455.147 364.756 454.599 364.115L454.47 345.135C458.262 353.454 461.07 358.848 469.429 372.12L472.871 374.815C479.75 376.757 483.661 377.54 491.071 378.518C493.165 380.468 504.483 376.379 530.508 366.092L626.775 385.678Z" fill="#2D2727"/>
<path d="M482.059 408.107C474.66 423.933 469.899 433.477 462.113 443.451L453.596 435.234L456.206 366.023C466.802 378.798 472.417 389.572 482.059 408.107Z" fill="#714133"/>
<path d="M561.65 455.722C557.783 457.438 581.946 434.414 580.737 423.195C587.939 423.581 593.382 423.223 599.148 420.956C605.855 424.01 609.079 425.847 614.458 429.058C552.356 460.997 565.518 454.006 561.65 455.722Z" fill="#714133"/>
<path d="M402.478 741.852L444.481 717.535C457.591 741.96 450.417 781.512 450.417 781.512C451.542 788.24 359.653 863.539 313.926 865.209L275.53 851.481L260.368 843.991C260.368 843.991 311.044 787.326 291.688 779.658C275.993 773.441 275.699 755.109 275.53 736.117C275.361 717.124 286.077 721.5 286.923 697.404L402.478 741.852Z" fill="#2C1D1D"/>
<path d="M562.207 455.001C566.059 453.251 552.557 460.848 614.378 428.368L617.179 428.344C617.009 429.355 616.738 430.46 616.372 431.673C613.772 440.288 606.352 454.322 595.979 478.494C584.289 484.089 572.608 494.757 549.604 517.279C546.636 512.658 545.354 509.555 540.66 494.13L537.301 493.477L537.768 491.079C526.546 480.163 524.837 476.346 521.841 470.556C535.608 467.256 544.306 464.045 562.207 455.001Z" fill="#A8B877"/>
<path d="M462.567 443.6L481.726 461.763C474.914 467.908 466.589 471.12 459.528 476.066C458.526 476.768 457.549 477.505 456.606 478.29C447.229 486.905 444.096 490.105 438.802 495.51L438.801 495.511L438.203 496.122C434.678 494.97 432.751 493.934 429.647 491.472C424.428 480.679 421.866 474.953 418.29 465.365C408.098 445.491 403.232 437.48 395.752 427.625L386.834 391.536L387.829 386.418L400.601 384.752L401.026 385.126C421.701 403.304 433.41 413.924 453.978 435.457L462.567 443.6Z" fill="#A9B779"/>
<path d="M537.768 491.079L537.301 493.477L497.043 528.969L503.215 553.571L478.828 581.692L472.112 580.386L462.434 545.644L480.037 521.681L464.326 476.999L459.528 476.066C466.589 471.12 474.914 467.908 481.726 461.763C501.877 464.471 510.88 466.351 521.841 470.556C524.837 476.346 526.546 480.163 537.768 491.079Z" fill="black"/>
<path d="M549.604 517.279C572.608 494.757 584.289 484.089 595.979 478.494C532.624 561.756 502.906 585.771 468.476 617.022C461.181 601.511 457.428 593.709 444.217 562.517C434.69 538.743 428.798 522.61 418.346 493.994L418.252 493.738C409.096 470.039 404.273 454.948 395.752 427.625C403.232 437.48 408.098 445.491 418.29 465.365C421.866 474.953 424.428 480.679 429.647 491.472C432.751 493.934 434.678 494.97 438.203 496.122L438.801 495.511L438.802 495.51C444.096 490.105 447.229 486.905 456.606 478.29C457.549 477.505 458.526 476.768 459.528 476.066L464.326 476.999L480.037 521.681L462.434 545.644L472.112 580.386L478.828 581.692L503.215 553.571L497.043 528.969L537.301 493.477L540.66 494.13C545.354 509.555 546.636 512.658 549.604 517.279Z" fill="#74543F"/>
<path d="M459.709 662.121C479.469 665.963 473.211 695.117 454.02 691.387C434.83 687.657 439.95 658.278 459.709 662.121Z" fill="black"/>
<path d="M447.959 722.572C466.67 726.209 462.127 754.703 442.456 750.879C422.786 747.055 429.248 718.935 447.959 722.572Z" fill="black"/>
<path fill-rule="evenodd" clip-rule="evenodd" d="M468.476 617.022C502.906 585.771 532.624 561.756 595.979 478.494C606.352 454.322 613.772 440.288 616.372 431.673C644.658 453.446 630.281 440.484 655.733 462.62L652.869 582.394C644.215 598.772 645.067 610.423 643.869 615.491C648.166 600.817 642.672 620.56 643.869 615.491C619.149 643.959 599.039 738.828 602.421 783.467L469.62 810.928L439.099 768.151L391.897 795.82L278.307 724.448L279.2 719.859L280.773 719.451L281.519 715.613L283.757 704.098L285.536 686.519L285.681 685.19C289.469 650.518 291.647 630.588 296.13 581.53C294.717 555.812 294.566 541.328 296.059 515.295C298.883 488.567 300.055 473.895 301.066 448.554C302.52 432.914 304.07 422.343 303.397 414.374C326.554 404.9 341.154 395.36 371.482 388.552L387.829 386.418L386.834 391.536L395.752 427.625C404.273 454.948 409.096 470.039 418.252 493.738L418.346 493.994C428.798 522.61 434.69 538.743 444.217 562.517C457.428 593.709 461.181 601.511 468.476 617.022ZM459.709 662.121C479.469 665.963 473.211 695.117 454.02 691.387C434.83 687.657 439.95 658.278 459.709 662.121ZM447.959 722.572C466.67 726.209 462.127 754.703 442.456 750.879C422.786 747.055 429.248 718.935 447.959 722.572Z" fill="#252222"/>
<path d="M307.718 413.056C307.137 421.033 308.639 437.909 304.756 453.129C299.793 478 304.344 485.521 297.373 511.479C268.646 522.08 257.441 516.118 227.61 516.286L226.483 512.235L187.445 498.026C186.853 496.679 186.374 496.381 192.254 474.811L196.806 472.307C201.291 463.816 202.328 455.984 205.622 455.231C231.552 442.419 246.052 434.896 271.442 417.293C284.522 412.443 289.398 409.329 307.718 413.056Z" fill="#AFBE7B"/>
<path d="M260.616 612.605C260.285 611.082 249.92 616.942 247.315 616.175C238.725 612.193 233.586 614.373 227.11 611.488C227.579 585.204 227.493 555.673 206.716 535.753L222.004 519.473L227.61 516.286C257.441 516.118 268.646 522.08 297.373 511.479C297.373 511.479 270.555 570.676 259.611 574.77L258.701 545.832C256.199 545.282 254.961 545.752 252.938 547.375C256.907 561.147 259.334 573 260.56 590.117C259.909 597.675 263.348 604.572 260.616 612.605Z" fill="#7A3A2E"/>
<path d="M252.938 547.375C254.961 545.752 256.199 545.282 258.701 545.832L259.611 574.77C259.542 579.681 260.885 586.352 260.56 590.117C259.334 573 256.907 561.147 252.938 547.375Z" fill="black"/>
<path d="M183.634 503.427C186.3 501.173 188.195 500.784 187.445 498.026L226.483 512.235L227.61 516.286L222.004 519.473L206.716 535.753C227.493 555.673 227.579 585.204 227.11 611.488C211.265 604.428 209.089 613.557 193.724 607.609C182.193 613.379 175.697 626.048 161.475 625.227C162.725 610.84 153.6 558.357 151.348 530.684C161.169 521.121 167.758 515.336 183.634 503.427Z" fill="#456746"/>
<path d="M237.342 697.698C239.161 696.682 240.629 696.514 244.672 697.57C250.591 706.595 255.465 711.168 263.885 719.07L264.566 719.709C254.01 722.877 248.099 724.433 237.777 722.621C235.482 713.547 234.23 708.449 237.342 697.698Z" fill="black"/>
<path fill-rule="evenodd" clip-rule="evenodd" d="M187.744 712.74C184.647 707.596 179.466 692.811 161.286 625.213C174.858 620.884 182.116 618.086 190.814 608.566C207.29 608.613 219.462 608.834 236.784 609.746C243.865 610.119 251.805 610.608 261.252 611.247L263.17 637.122C260.876 634.513 255.039 633.665 237.193 633.176C232.533 638.134 227.897 642.443 199.142 665.614C198.883 668.146 202.421 671.098 244.561 691.218C254.274 684.868 259.229 680.517 266.691 670.789C279.22 679.256 281.891 680.532 286.451 682.665C288.492 675.665 290.339 671.561 294.923 663.942L295.768 664.416L327.012 681.957L297.887 693.709L297.955 697.618L296.501 698.345L286.809 703.19L285.906 735.468L211.139 736.773C200.625 729.691 195.964 725.875 187.855 719.093L187.744 712.74ZM244.672 697.57C240.629 696.514 239.161 696.682 237.342 697.698C234.23 708.449 235.482 713.547 237.777 722.621C248.099 724.433 254.01 722.877 264.566 719.709L263.885 719.07C255.465 711.168 250.591 706.595 244.672 697.57Z" fill="#343F31"/>
<path d="M263.17 637.122C278.806 648.314 278.393 652.91 294.923 663.942C290.339 671.561 288.492 675.665 286.451 682.665C281.891 680.532 279.22 679.256 266.691 670.789C259.229 680.517 254.274 684.868 244.561 691.218C202.421 671.098 198.883 668.146 199.142 665.614C227.897 642.443 232.533 638.134 237.193 633.176C255.039 633.665 260.876 634.513 263.17 637.122Z" fill="#456746"/>
</svg>
