<svg width="1129" height="868" viewBox="0 0 1129 868" fill="none" xmlns="http://www.w3.org/2000/svg">
<path d="M395.352 773.744L373.5 737.5L333.32 749.651L381 800L395.352 800C408.999 799.357 436.218 782.458 425.789 770.948C415.36 759.438 392.389 774.213 395.352 773.744Z" fill="black"/>
<path d="M147.953 174.853L187.072 161L186.552 167.019L152.45 178.565L147.953 174.853Z" fill="#FCFAEC"/>
<path d="M152.45 178.565L186.552 167.019L205.137 222.497L174.059 235.094C166.352 210.507 161.214 197.738 152.45 178.565Z" fill="#397B05"/>
<path d="M174.059 235.094L205.137 222.497L209.771 225.1L190.781 232.885L171.486 241.309L174.059 235.094Z" fill="#FCFAEC"/>
<path d="M171.486 241.309L190.781 232.885L209.771 225.1C216.102 265.048 221.435 273.357 227.777 283.435L189.6 296.954C185.217 274.453 182.004 262.055 171.486 241.309Z" fill="#64AA06"/>
<path d="M189.6 296.954L227.777 283.435L228.366 289.592L191.603 302.61L189.6 296.954Z" fill="#FCFAEC"/>
<path d="M191.603 302.61L228.366 289.592C233.201 314.559 237.192 328.133 246.126 351.727L217.375 361.909L198.746 319.046L194.4 309.046L191.603 302.61Z" fill="#397B05"/>
<path d="M217.375 361.909L246.126 351.727L248.462 358.326L221.126 368.006L217.375 361.909Z" fill="#FCFAEC"/>
<path d="M221.126 368.006L248.462 358.326C256.641 381.421 259.282 387.381 268.54 409.032L238.513 418.605C238.513 418.605 228.744 386.525 221.126 368.006Z" fill="#64AA06"/>
<path d="M238.513 418.605L268.54 409.032L269.158 416.77L240.408 426.951L238.513 418.605Z" fill="#FCFAEC"/>
<path d="M240.408 426.951L269.158 416.77C276.394 440.198 277.672 445.291 286.518 470.271L264.03 472.689L253.315 477.785C245.658 448.671 250.598 464.715 240.408 426.951Z" fill="#397B05"/>
<path d="M253.315 477.785L264.03 472.689L286.518 470.271L286.084 476.549L257.304 485.149L253.315 477.785Z" fill="#FCFAEC"/>
<path d="M285.383 549.465L304.433 544.841L303.912 550.86L287.053 554.178L285.383 549.465Z" fill="#FCFAEC"/>
<path d="M257.304 485.149L286.084 476.549C290.069 495.293 298.198 524.24 304.433 544.841L285.383 549.465C276.488 530.337 267.917 503.138 257.304 485.149Z" fill="#64AA06"/>
<path d="M102.808 275.163C122.105 274.433 136.265 272.385 122.77 288.64C125.062 285.649 124.822 283.609 121.386 282.149C119.048 279.033 113.07 277.16 102.808 275.163Z" fill="#64AA06"/>
<path d="M121.551 290.072C120.818 283.925 112.713 282.303 99.702 279.068C110.846 279.748 117.829 280.637 121.386 282.149C122.891 284.154 122.889 286.673 121.551 290.072Z" fill="#64AA06"/>
<path d="M121.551 290.072C107.707 299.461 102.375 294.067 96.5254 313.518C110.049 301.272 115.778 303.78 121.551 290.072Z" fill="#64AA06"/>
<path d="M130.718 296.799C140.91 301.879 144.724 311.248 149.86 326.616C142.366 321.561 136.108 317.737 131.326 313.25C130.381 307.535 126.901 301.599 121.249 293.657L130.718 296.799Z" fill="#64AA06"/>
<path d="M139.991 252.462C156.53 265.784 161.186 272.041 156.504 279.792C154.72 279.158 152.926 278.696 151.112 278.422C144.738 275.241 142.695 266.712 139.991 252.462Z" fill="#64AA06"/>
<path d="M128.047 328.391C117.211 310.012 117.628 303.528 121.249 293.657C126.901 301.599 130.381 307.535 131.326 313.25C132.127 318.093 131.108 322.778 128.047 328.391Z" fill="#64AA06"/>
<path d="M121.249 293.657L121.551 290.072C132.676 280.298 142.133 277.062 151.112 278.422C152.638 279.183 154.413 279.638 156.504 279.792C169.72 285.543 178.225 292.695 194.4 309.046L198.746 319.046C165.313 282.949 146.288 268.654 121.249 293.657Z" fill="#64AA06"/>
<path fill-rule="evenodd" clip-rule="evenodd" d="M364.189 618.426C377.962 664.553 377.217 736.556 375.139 739.416C373.061 742.276 343.694 755.027 337.142 752.015C330.59 749.003 307.207 716.832 267.879 703.352L242.441 705.13C298.42 685.083 325.147 666.25 364.189 618.426Z" fill="#773A03"/>
<path fill-rule="evenodd" clip-rule="evenodd" d="M364.189 618.426C377.962 664.553 377.217 736.556 375.139 739.416C373.061 742.276 343.694 755.027 337.142 752.015C330.59 749.003 307.207 716.832 267.879 703.352L242.441 705.13C298.42 685.083 325.147 666.25 364.189 618.426Z" stroke="black"/>
<path d="M485.739 509.899C485.129 493.621 485.603 478.995 487.277 447.292C474.475 469.984 464.869 486.661 457.478 499.051C454.396 507.41 454.677 511.105 463.412 513.647C459.297 520.052 480.085 534.507 502.561 544.206C503.154 543.068 505.503 542.122 505.503 542.122L507.8 540.326C501.025 534.428 495.681 529.484 490.781 520.404C486.393 517.255 482.791 515.69 474.828 513.209C478.204 511.766 479.874 510.863 486.024 510.549C485.929 510.334 485.834 510.118 485.739 509.899Z" fill="#C29171"/>
<path d="M486.024 510.549C479.874 510.863 478.204 511.766 474.828 513.209C482.791 515.69 486.393 517.255 490.781 520.404C489.27 517.603 487.712 514.375 486.024 510.549Z" fill="black"/>
<path d="M429.576 537.613L432.273 544.539L491.556 567.296C494.513 557.059 498.211 552.554 502.561 544.206C480.085 534.507 459.297 520.052 463.412 513.647C454.677 511.105 454.396 507.41 457.478 499.051C440.304 527.842 435.099 533.475 429.576 537.613Z" fill="#773A03"/>
<path d="M566.607 510.426L586.107 544.201L480.019 605.451C475.794 590.492 472.891 582.332 466.581 568.176L566.607 510.426Z" fill="#DBBF9F"/>
<path d="M463.131 615.201C460.003 598.842 456.975 590.695 449.26 578.176C452.753 574.401 454.846 573.242 458.786 572.676C465.571 585.863 468.548 594.026 472.657 609.701C468.295 613.508 466.339 614.367 463.131 615.201Z" fill="#210000"/>
<path d="M455.337 619.701L451.812 613.42C450.338 600.223 448.053 593.473 440.6 583.176C443.806 580.347 445.675 579.128 449.26 578.176C456.975 590.695 460.003 598.842 463.131 615.201C460.742 618.096 459.004 619.019 455.337 619.701Z" fill="#9F2525"/>
<path d="M436.252 585.687L440.6 583.176C448.053 593.473 450.338 600.223 451.812 613.42L436.252 585.687Z" fill="#210000"/>
<path d="M472.657 609.701C468.548 594.026 465.571 585.863 458.786 572.676C461.122 569.69 462.727 568.534 466.581 568.176C472.891 582.332 475.794 590.492 480.019 605.451C477.166 607.675 475.611 608.374 473.033 609.532L472.657 609.701Z" fill="#9F2525"/>
<path d="M568.115 487.039L577.865 503.926L582.74 512.37L587.615 520.814L592.49 529.257L597.365 537.701L607.115 554.589C605.277 556.833 603.983 557.374 601.486 557.839L562.486 490.289C564.485 488.674 565.514 487.61 568.115 487.039Z" fill="#9F2525"/>
<path d="M566.607 510.426L556.857 493.539C558.542 491.923 559.527 491.043 562.486 490.289L601.486 557.839C599.96 559.993 598.939 560.982 595.857 561.089L586.107 544.201L566.607 510.426Z" fill="#3D3D33"/>
<path d="M1004.73 308.281C815.96 432.616 774.128 450.817 597.365 537.701L592.49 529.257L858.883 373.664C936.433 326.324 990.451 281.988 1068.47 220.676C1062.62 236.976 1020.75 299.031 1004.73 308.281Z" fill="#E6EAEB"/>
<path d="M577.865 503.926L1068.47 220.676C990.451 281.988 936.433 326.324 858.883 373.664L592.49 529.257L587.615 520.814L582.74 512.37L577.865 503.926Z" fill="black"/>
<path d="M521.327 536.466C513.474 534.939 512.11 536.712 507.721 540.952C501.34 539.712 492.756 547.95 492.37 549.174C487.229 552.25 483.948 548.437 482.813 559.032C488.69 575.964 503.489 592.819 505.052 591.369C516.34 593.564 541.82 572.539 540.729 570.29L530.489 553.528L521.327 536.466Z" fill="#3E1400"/>
<path d="M379.117 175.5C380.292 177.836 381.454 180.332 382.623 183C381.795 180.848 402.791 181.412 429.123 181.5C420.333 149.764 413.582 136.177 391.123 136C384.882 138.812 382.774 151.7 379.117 175.5Z" fill="#773A03"/>
<path d="M611.623 240C600.623 228.5 596.334 224.378 565.623 213C552.261 216.241 545.926 219.902 535.623 228C552.639 235.771 559.401 239.434 570.623 245.757C583.438 245.736 599.857 246.45 601.123 245.5C603.123 244 605.382 239.668 611.623 240Z" fill="#AAA494"/>
<path d="M582.623 279.5C547.312 278.012 551.939 249.651 555.623 247C556.975 246.027 563.193 245.768 570.623 245.757C559.401 239.434 552.639 235.771 535.623 228C531.872 232.329 528.675 236.416 525.972 240.312C525.558 240.909 525.155 241.501 524.764 242.09C519.498 250.006 516.295 257.139 514.626 263.923C514.477 264.528 514.34 265.13 514.215 265.729C512.842 272.328 512.898 278.628 513.886 285.039C513.982 285.663 514.087 286.289 514.2 286.915C515.103 291.912 516.538 297 518.269 302.371C518.431 302.872 518.595 303.375 518.761 303.881C520.459 309.043 522.407 314.477 524.403 320.35C524.476 320.566 524.549 320.783 524.623 321C528.938 326.803 531.024 329.978 532.123 335C539.779 334.245 542.885 335.898 548.623 338.5C565.752 330.798 573.743 325.402 581.623 311.5L582.623 279.5Z" fill="#AAA494"/>
<path d="M618.002 264.261C613.793 272.634 611.538 275.028 607.623 277C607.116 294.152 607.472 304.867 604.623 318C608.956 317.14 611.522 315.425 616.418 309.5C616.583 308.207 616.74 306.872 616.889 305.5C616.954 304.899 617.018 304.292 617.08 303.678C617.368 300.82 617.619 297.827 617.824 294.76C617.369 294.667 616.901 294.58 616.418 294.5V292.5C616.943 292.626 617.451 292.754 617.943 292.883C618.225 288.184 618.395 283.342 618.421 278.572C617.838 278.542 617.24 278.519 616.623 278.5V276.5C617.24 276.525 617.839 276.555 618.423 276.59C618.41 272.434 618.283 268.355 618.018 264.5L618.002 264.261Z" fill="#AAA494"/>
<path fill-rule="evenodd" clip-rule="evenodd" d="M618.002 264.261C613.623 262.5 613.623 254 616.039 250C615.877 249.309 615.706 248.642 615.525 248C614.529 244.465 613.244 241.695 611.623 240C605.382 239.668 603.123 244 601.123 245.5C599.857 246.45 583.438 245.736 570.623 245.757C563.193 245.768 556.975 246.027 555.623 247C551.939 249.651 547.312 278.012 582.623 279.5L581.623 311.5C573.743 325.402 565.752 330.798 548.623 338.5L551.623 338.459C562.739 340.249 569.419 340.841 585.623 338C598.439 342.277 604.536 339.965 613.123 326C614.318 322.773 615.485 316.831 616.418 309.5C611.522 315.425 608.956 317.14 604.623 318C607.472 304.867 607.116 294.152 607.623 277C611.538 275.028 613.793 272.634 618.002 264.261ZM559.123 254C570.072 250.222 588.123 261 578.623 270C569.123 279 548.174 257.778 559.123 254Z" fill="#3E1400"/>
<path d="M616.039 250C613.623 254 613.623 262.5 618.002 264.261C617.948 263.498 618.188 263.244 618.123 262.5C617.746 258.158 616.882 253.657 616.091 250.222C616.074 250.148 616.056 250.074 616.039 250Z" fill="black"/>
<path d="M559.123 254C570.072 250.222 588.123 261 578.623 270C569.123 279 548.174 257.778 559.123 254Z" fill="black"/>
<path d="M551.623 338.459L548.623 338.5C542.885 335.898 539.779 334.245 532.123 335C531.024 329.978 528.938 326.803 524.623 321L523.535 321.923L508.123 335C501.911 332.829 498.944 331.252 494.623 327.5C487.443 332.056 482.815 333.424 474.123 335L477.623 330.5C457.941 333.551 447.298 337.138 428.623 345L426.123 330.5C417.749 338.291 406.4 342.957 386.767 351.03L385.623 351.5C409.171 355.468 425.699 362.59 439.483 373.5C446.986 379.439 453.675 386.5 460.242 394.786L485.579 392.198L483.923 383C477.415 372.721 473.434 369.556 465.623 369.5C466.644 365.332 467.595 363.35 471.623 362V358C464.052 356.216 460.123 358.5 458.123 354H494.623L494.728 353.998C522.845 353.503 538.634 353.225 540.623 355.5C543.072 349.153 545.286 345.457 551.623 338.459Z" fill="#773A03"/>
<path d="M483.623 371L494.623 354H458.123C460.123 358.5 464.052 356.216 471.623 358V362C467.595 363.35 466.644 365.332 465.623 369.5C473.434 369.556 477.415 372.721 483.923 383L483.623 371Z" fill="black"/>
<path d="M540.623 355.5C567.272 355.81 581.814 355.665 585.623 338C569.419 340.841 562.739 340.249 551.623 338.459C545.286 345.457 543.072 349.153 540.623 355.5Z" fill="black"/>
<path d="M339.123 144.524C336.181 143.934 333.024 143.431 329.623 143C323.117 152.01 319.887 161.598 319.301 171C324.623 154 345.263 159.735 350.623 175.5C345.926 179.983 343.026 181.957 336.623 183C345.394 196.892 349.166 210.095 371.623 204.5L371.409 203.551C365.469 177.156 362.073 162.067 339.123 144.524Z" fill="black"/>
<path d="M371.623 204.5C349.166 210.095 345.394 196.892 336.623 183C343.026 181.957 345.926 179.983 350.623 175.5C345.263 159.735 324.623 154 319.301 171C318.247 187.915 325.75 204.23 338.123 215.5L326.623 240.378C336.314 231.509 343.797 227 362.123 220C346.403 216.774 339.675 213.505 332.123 204.5C333.765 200.452 335.654 198.849 341.123 197.5C349.905 210.033 356.077 213.151 371.623 204.5Z" fill="#773A03"/>
<path d="M247.761 362C240.171 372.914 233.66 378.252 221.123 387.461L413.141 419.129H452.623C462.579 411.356 472.976 402.839 484.521 393.092C484.872 392.795 485.225 392.497 485.579 392.198L460.242 394.786L457.123 394.305L426.992 389.656L247.761 362Z" fill="#37191B"/>
<path d="M629.623 313.5C627.438 313.458 619.106 306.671 617.08 303.678C617.018 304.292 616.954 304.899 616.889 305.5C622.707 311.715 625.371 313.739 629.123 314.5L629.623 313.5Z" fill="black"/>
<path d="M615.525 248C615.706 248.642 615.877 249.309 616.039 250C616.056 250.074 616.074 250.148 616.091 250.222C623.011 247.344 626.439 245.368 632.123 241.5L631.123 240C625.521 243.386 622.125 245.126 615.525 248Z" fill="black"/>
<path d="M618.123 262.5C618.188 263.244 617.948 263.498 618.002 264.261L618.018 264.5C623.536 263.816 636.105 259.079 639.623 257L636.921 256C634.532 257.809 622.708 262.45 618.123 262.5Z" fill="black"/>
<path d="M634.623 301.5L635.623 300.5C628.959 296.934 625.079 294.753 617.943 292.883C617.451 292.754 616.943 292.626 616.418 292.5V294.5C616.901 294.58 617.369 294.667 617.824 294.76C624.251 296.071 628.063 298.596 634.623 301.5Z" fill="#040404"/>
<path d="M640.623 284.5L641.123 282.5C632.261 278.763 627.011 277.109 618.423 276.59C617.839 276.555 617.24 276.525 616.623 276.5V278.5C617.24 278.519 617.838 278.542 618.421 278.572C626.976 279.004 632.092 280.634 640.623 284.5Z" fill="#040404"/>
<path fill-rule="evenodd" clip-rule="evenodd" d="M440.123 220C429.392 215.104 423.47 214.7 417.123 219.436C415.823 220.406 414.504 221.592 413.123 223C410.884 232.127 411.673 236.818 425.123 249.5C428.82 249.5 431.448 249.52 433.637 249.536C437.073 249.561 439.425 249.579 443.123 249.5C446.301 245.83 448.78 243.36 455.623 237.5C453.515 230.48 450.767 226.623 440.123 220Z" fill="#895424"/>
<path fill-rule="evenodd" clip-rule="evenodd" d="M417.123 219.436C415.823 220.406 414.504 221.592 413.123 223C410.884 232.127 411.673 236.818 425.123 249.5C428.82 249.5 431.448 249.52 433.637 249.536C437.073 249.561 439.425 249.579 443.123 249.5C446.301 245.83 448.78 243.36 455.623 237.5C444.271 227.321 437.874 221.641 417.123 219.436Z" fill="black"/>
<path d="M455.623 237.5C453.515 230.48 450.767 226.623 440.123 220C429.392 215.104 423.47 214.7 417.123 219.436C437.874 221.641 444.271 227.321 455.623 237.5Z" fill="#773A03"/>
<path d="M515.123 324C517.211 323.534 520.576 322.165 524.403 320.35C534.324 315.644 547.341 307.936 549.202 305.178C549.264 305.792 549.328 306.399 549.393 307C545.33 311.34 532.303 318.025 523.535 321.923C519.748 323.607 516.755 324.77 515.623 325L515.123 324Z" fill="black"/>
<path d="M548.623 251.05C548.442 251.692 548.271 252.359 548.109 253.05C548.091 253.123 548.074 253.197 548.057 253.271C543.613 251.423 533.172 246.442 524.764 242.09C520.078 239.664 516.023 237.434 513.989 236.05L514.989 234.55C517.036 235.787 521.195 237.938 525.972 240.312C534.271 244.434 544.434 249.225 548.623 251.05Z" fill="black"/>
<path d="M548.159 264C548.094 264.744 548.333 264.998 548.28 265.761L548.263 266C544.818 266.642 528.14 266.607 514.215 265.729C504.276 265.103 495.74 264.047 494.421 262.5L494.623 261C495.6 262.333 504.405 263.325 514.626 263.923C528.702 264.746 545.462 264.819 548.159 264Z" fill="black"/>
<path d="M505.123 308L504.123 307C506.492 305.732 511.927 304.07 518.269 302.371C529.765 299.291 544.24 296.088 548.839 294.883C549.331 294.754 549.838 294.626 550.363 294.5V296.5C549.881 296.58 549.413 296.667 548.958 296.76C544.77 297.614 530.211 300.895 518.761 303.881C512.641 305.477 507.408 306.988 505.123 308Z" fill="#040404"/>
<path d="M490.123 294L489.623 292C493.46 290.382 503.283 287.654 513.886 285.039C527.769 281.615 542.989 278.384 547.858 278.09C548.442 278.055 549.042 278.025 549.659 278V280C549.042 280.019 548.443 280.042 547.861 280.072C543.027 280.316 527.944 283.497 514.2 286.915C503.62 289.546 493.834 292.318 490.123 294Z" fill="#040404"/>
<path fill-rule="evenodd" clip-rule="evenodd" d="M382.623 183C381.454 180.332 380.292 177.836 379.117 175.5C369.88 157.142 359.822 148.674 339.123 144.524C362.073 162.067 365.469 177.156 371.409 203.551L371.623 204.5C356.077 213.151 349.905 210.033 341.123 197.5C335.654 198.849 333.765 200.452 332.123 204.5C339.675 213.505 346.403 216.774 362.123 220C343.797 227 336.314 231.509 326.623 240.378L289.123 321.5L247.761 362L426.992 389.656L457.123 394.305L460.242 394.786C453.675 386.5 446.986 379.439 439.483 373.5C425.699 362.59 409.171 355.468 385.623 351.5L386.767 351.03C406.4 342.957 417.749 338.291 426.123 330.5L428.623 345C447.298 337.138 457.941 333.551 477.623 330.5L474.123 335C482.815 333.424 487.443 332.056 494.623 327.5C498.944 331.252 501.911 332.829 508.123 335L523.535 321.923C519.748 323.607 516.755 324.77 515.623 325L515.123 324C517.211 323.534 520.576 322.165 524.403 320.35C522.407 314.477 520.459 309.043 518.761 303.881C512.641 305.477 507.408 306.988 505.123 308L504.123 307C506.492 305.732 511.927 304.07 518.269 302.371C516.538 297 515.103 291.912 514.2 286.915C503.62 289.546 493.834 292.318 490.123 294L489.623 292C493.46 290.382 503.283 287.654 513.886 285.039C512.898 278.628 512.842 272.328 514.215 265.729C504.276 265.103 495.74 264.047 494.421 262.5L494.623 261C495.6 262.333 504.405 263.325 514.626 263.923C516.295 257.139 519.498 250.006 524.764 242.09C520.078 239.664 516.023 237.434 513.989 236.05L514.989 234.55C517.036 235.787 521.195 237.938 525.972 240.312C528.675 236.416 531.872 232.329 535.623 228C545.926 219.902 552.261 216.241 565.623 213C520.563 197.778 494.153 189.652 429.123 181.5C402.791 181.412 381.795 180.848 382.623 183ZM440.123 220C450.767 226.623 453.515 230.48 455.623 237.5C448.78 243.36 446.301 245.83 443.123 249.5C439.425 249.579 437.073 249.561 433.637 249.536C431.448 249.52 428.82 249.5 425.123 249.5C411.673 236.818 410.884 232.127 413.123 223C414.504 221.592 415.823 220.406 417.123 219.436C423.47 214.7 429.392 215.104 440.123 220Z" fill="#895424"/>
<path d="M331.892 530.698C396.25 491.258 433.065 473.151 486.392 424.698L484.521 393.092C472.976 402.839 462.579 411.356 452.623 419.129C427.312 438.888 404.844 453.834 373.569 471.923C361.892 482.698 262.123 522 249.984 520.463C202.458 528.198 173.557 526.024 124.417 517.404C122.227 523.063 121.159 527.573 122.123 529.5C120.01 539.533 118.263 547.051 116.124 554.277C173.875 562.236 206.129 563.785 263.123 554.277C272.623 554.277 331.892 530.698 331.892 530.698Z" fill="#37191B"/>
<path d="M195.123 406.5H202.623C179.418 428.577 168.135 443.935 149.623 474.117C146.546 474.934 130.765 500.999 124.417 517.404C173.557 526.024 202.458 528.198 249.984 520.463C262.123 522 361.892 482.698 373.569 471.923C404.844 453.834 427.312 438.888 452.623 419.129H413.141L221.123 387.461C213.089 393.794 205.282 399.524 195.123 406.5Z" fill="#895424"/>
<path d="M488.123 449.5L486.392 424.698C433.065 473.151 396.25 491.258 331.892 530.698C331.892 530.698 272.623 554.277 263.123 554.277C206.129 563.785 173.875 562.236 116.124 554.277C114.257 560.581 112.092 566.663 109.123 574V632C114.372 645.574 114.296 653.162 116.123 664.5L150.123 692.5L173.623 695.5H182.123L226.123 704.5C258.768 704.604 276.598 702.988 306.123 692C363.364 675.907 391.34 658.984 433.623 614C449.149 594.988 456.847 582.72 466.623 554.5C470.296 548.658 473.137 541.533 478.852 508.5C481.312 494.285 484.303 475.273 488.123 449.5Z" fill="#895424"/>
<path d="M427.123 188C406.038 193.191 407.679 191.699 406.123 194.5L454.623 203.5C449.191 200.316 446.3 198.575 451.623 198.5C462.742 198.737 468.98 199.523 480.123 203.5C472.464 203.028 469.997 203.79 467.123 206C502.638 221.549 509.579 223.902 515.623 225C521.667 226.098 549.827 218.5 546.123 213C542.42 207.5 478.786 189.91 427.123 185.5V188Z" fill="#773A03"/>
<path d="M148.643 521C143.502 534.509 143.766 541.677 146.643 552.832C148.059 552.057 149.352 551.37 150.584 550.755C148.147 539.853 148.193 533.318 152.643 521.555C151.321 521.377 149.988 521.192 148.643 521Z" fill="black"/>
<path d="M129.643 560.029C124.218 563.781 141.884 603.085 148.611 602.409C153.539 601.913 155.696 600.467 158.611 598.909C159.677 598.34 160.601 598.139 162.143 597.42L162.152 597.415C163.623 596.729 165.237 596.163 166.643 595.529C164.451 593.68 157.521 582.619 155.909 580.029C155.422 579.247 154.954 578.416 154.5 577.529C153.409 575.398 152.398 572.938 151.402 570.029C151.129 569.23 150.857 568.398 150.584 567.529C149.702 564.714 148.817 561.517 147.884 557.853C144.005 557.45 140.033 557.002 135.943 556.51L135.541 556.462C134.307 556.924 133.978 556.99 133.69 557.136C133.254 557.359 132.912 557.767 129.643 560.029Z" fill="#E4C9B1"/>
<path d="M135.541 556.462L135.943 556.51C140.033 557.002 144.005 557.45 147.884 557.853C147.48 556.269 147.068 554.598 146.643 552.832C145.491 553.204 144.318 553.572 143.155 553.937L143.154 553.937C140.444 554.788 137.782 555.623 135.541 556.462Z" fill="#E4C9B1"/>
<path d="M165.143 523.06C163.818 522.922 162.485 522.775 161.143 522.62C158.394 534.886 158.359 540.212 161.143 546.847C162.229 546.584 163.385 546.337 164.643 546.098L164.612 545.904C163.095 539.403 162.497 535.811 165.143 523.06Z" fill="black"/>
<path d="M164.99 565.446L156.161 568.424L161.641 569.303L164.99 565.446Z" fill="#E4C9B1"/>
<path d="M156.161 568.424L151.402 570.029L155.118 570.529L160.006 571.186L161.641 569.303L156.161 568.424Z" fill="black"/>
<path d="M169.192 564.029C168.918 563.239 168.651 562.408 168.391 561.529L164.99 565.446L161.641 569.303L160.006 571.186L156.67 575.029L154.5 577.529L159.49 575.716L162.924 571.579L164.441 569.753L167.143 566.498L169.192 564.029Z" fill="black"/>
<path d="M154.5 577.529C154.954 578.416 155.422 579.247 155.909 580.029L159.49 578.62L170.143 574.428L173.7 573.029L168.729 572.36L159.49 575.716L154.5 577.529Z" fill="black"/>
<path d="M159.49 575.716L168.729 572.36L165.827 571.97L162.924 571.579L159.49 575.716Z" fill="#E4C9B1"/>
<path d="M173.7 573.029C173.247 572.39 172.812 571.726 172.394 571.029L168.957 570.477L164.441 569.753L162.924 571.579L165.827 571.97L168.729 572.36L173.7 573.029Z" fill="black"/>
<path d="M150.584 567.529C150.857 568.398 151.129 569.23 151.402 570.029L156.161 568.424L164.99 565.446L168.391 561.529L165.143 562.623L154.143 566.33L150.584 567.529Z" fill="black"/>
<path d="M201.143 532.718L165.143 546.004C165.992 551.496 166.873 555.91 167.84 559.562C183.072 560.548 197.413 560.661 212.669 559.733C212.317 559.211 211.975 558.683 211.643 558.143C211.618 558.102 211.593 558.062 211.568 558.021C211.542 557.979 211.517 557.937 211.491 557.895C210.938 556.981 210.411 556.033 209.907 555.029C209.359 553.938 208.837 552.781 208.334 551.529C208.139 551.044 207.947 550.544 207.758 550.029C207.709 549.896 207.661 549.763 207.612 549.628L207.577 549.529C207.347 548.888 207.122 548.222 206.899 547.529C206.547 546.435 206.202 545.272 205.862 544.029C204.943 540.676 204.055 536.737 203.143 531.98L201.143 532.718Z" fill="#E4C9B1"/>
<path d="M184.143 588.529L219.384 572.938L220.884 572.351C219.408 570.564 213.857 561.491 212.669 559.733C197.413 560.661 183.072 560.548 167.84 559.562C168.021 560.243 168.204 560.898 168.391 561.529C168.651 562.408 168.918 563.239 169.192 564.029C170.155 566.8 171.209 569.053 172.394 571.029C172.812 571.726 173.247 572.39 173.7 573.029C175.339 575.342 181.943 586.341 184.143 588.529Z" fill="#E4C9B1"/>
<path d="M219.143 526.075C218.917 525.245 218.885 524.75 219.143 523.761C217.92 523.863 216.707 523.957 215.501 524.043C215.235 525.315 215.311 525.949 215.804 526.898C216.838 526.623 217.939 526.354 219.143 526.075Z" fill="black"/>
<path d="M228.511 553.529C228.212 553.106 227.923 552.681 227.643 552.254L227.577 552.154L227.531 552.083C227.495 552.028 227.459 551.972 227.424 551.917L224.278 551.538L220.043 551.029L218.745 552.561L224.253 553.107L228.511 553.529Z" fill="black"/>
<path d="M218.745 552.561L215.501 556.39L224.253 553.107L218.745 552.561Z" fill="#E4C9B1"/>
<path d="M211.643 558.143C211.975 558.683 212.317 559.211 212.669 559.733L214.868 558.872L226.143 554.456L228.511 553.529L224.253 553.107L215.501 556.39L211.491 557.895L211.568 558.021L211.643 558.143Z" fill="black"/>
<path d="M207.758 550.029C207.947 550.544 208.139 551.044 208.334 551.529L212.437 550.114L220.66 547.277L223.465 544.029L220.48 545.062L210.643 548.467L207.577 549.529L207.612 549.628C207.661 549.763 207.709 549.896 207.758 550.029Z" fill="black"/>
<path d="M224.278 546.029C224.065 545.539 223.858 545.04 223.658 544.529C223.624 544.444 223.591 544.358 223.558 544.272C223.527 544.191 223.496 544.11 223.465 544.029L220.66 547.277L217.667 550.743L216.306 552.319L213.103 556.029L211.491 557.895L215.501 556.39L218.745 552.561L220.043 551.029L222.524 548.099L224.278 546.029Z" fill="black"/>
<path d="M217.667 550.743L220.66 547.277L212.437 550.114L215.052 550.428L217.667 550.743Z" fill="#E4C9B1"/>
<path d="M208.334 551.529L211.491 551.821L216.306 552.319L217.667 550.743L215.052 550.428L212.437 550.114L208.334 551.529Z" fill="black"/>
<path d="M203.143 531.98C204.055 536.737 204.943 540.676 205.862 544.029C206.202 545.272 206.547 546.435 206.899 547.529C207.122 548.222 207.347 548.888 207.577 549.529L210.643 548.467C208.684 542.334 207.641 538.728 206.39 530.343C205.376 530.827 204.306 531.367 203.143 531.98Z" fill="black"/>
<path fill-rule="evenodd" clip-rule="evenodd" d="M210.643 548.467C208.684 542.334 207.641 538.728 206.39 530.343C209.661 528.784 212.362 527.811 215.804 526.898C217.244 534.867 218.307 538.755 220.48 545.062L210.643 548.467Z" fill="#E4C9B1"/>
<path d="M221.702 538.529C220.751 535.017 219.933 530.959 219.143 526.075C217.939 526.354 216.838 526.623 215.804 526.898C217.244 534.867 218.307 538.755 220.48 545.062L223.465 544.029C223.219 543.381 222.982 542.716 222.753 542.029C222.383 540.921 222.034 539.758 221.702 538.529Z" fill="black"/>
<path d="M150.584 550.755C149.352 551.37 148.059 552.057 146.643 552.832C147.068 554.598 147.48 556.269 147.884 557.853C149.246 557.995 150.598 558.131 151.938 558.261C151.445 556.096 151.02 553.776 150.584 550.755Z" fill="black"/>
<path d="M147.884 557.853C148.817 561.517 149.702 564.714 150.584 567.529L154.143 566.33C153.218 563.231 152.529 560.857 151.938 558.261C150.598 558.131 149.246 557.995 147.884 557.853Z" fill="black"/>
<path fill-rule="evenodd" clip-rule="evenodd" d="M151.938 558.261C156.086 558.664 160.132 559.013 164.11 559.304C162.89 555.273 162.092 552.073 161.143 546.847C157.157 547.81 154.125 548.986 150.584 550.755C151.02 553.776 151.445 556.096 151.938 558.261Z" fill="#E4C9B1"/>
<path d="M165.143 546.004C164.974 546.036 164.808 546.067 164.643 546.098C163.385 546.337 162.229 546.584 161.143 546.847C162.092 552.073 162.89 555.273 164.11 559.304L164.287 559.317C165.124 559.378 165.958 559.437 166.79 559.493C167.14 559.516 167.49 559.539 167.84 559.562C166.873 555.91 165.992 551.496 165.143 546.004Z" fill="black"/>
<path fill-rule="evenodd" clip-rule="evenodd" d="M154.143 566.33C153.218 563.231 152.529 560.857 151.938 558.261C156.086 558.664 160.132 559.013 164.11 559.304C164.423 560.34 164.764 561.43 165.143 562.623L154.143 566.33Z" fill="#E4C9B1"/>
<path d="M167.84 559.562C167.49 559.539 167.14 559.516 166.79 559.493C165.958 559.437 165.124 559.378 164.287 559.317L164.11 559.304C164.423 560.34 164.764 561.43 165.143 562.623L168.391 561.529C168.204 560.898 168.021 560.243 167.84 559.562Z" fill="black"/>
<path d="M155.909 580.029C157.521 582.619 164.451 593.68 166.643 595.529C167.143 595.529 169.143 595.029 169.959 594.406C167.609 592.006 161.403 581.664 159.49 578.62L155.909 580.029Z" fill="black"/>
<path fill-rule="evenodd" clip-rule="evenodd" d="M169.959 594.406C167.609 592.006 161.403 581.664 159.49 578.62L170.143 574.428C172.107 577.746 178.297 588.112 180.611 590.34C176.896 592.132 173.842 593.239 169.959 594.406Z" fill="#E4C9B1"/>
<path d="M184.143 588.529C181.943 586.341 175.339 575.342 173.7 573.029L170.143 574.428C172.107 577.746 178.297 588.112 180.611 590.34C181.643 590.029 182.643 589.529 184.143 588.529Z" fill="black"/>
<path d="M232.077 558.05C230.755 556.52 229.574 555.034 228.511 553.529L226.143 554.456L228.912 558.39C229.96 558.282 231.015 558.168 232.077 558.05Z" fill="black"/>
<path d="M236.643 565.001C236.545 564.889 235.028 562.407 234.035 560.931L234.034 560.929C233.09 559.526 232.168 558.155 232.077 558.05C231.015 558.168 229.96 558.282 228.912 558.39L234.143 566.529C234.938 566.093 235.765 565.527 236.643 565.001Z" fill="black"/>
<path fill-rule="evenodd" clip-rule="evenodd" d="M223.143 571.529C227.502 570.431 230.504 568.523 234.143 566.529L228.912 558.39C224.296 558.868 219.806 559.256 215.4 559.557L223.143 571.529Z" fill="#E4C9B1"/>
<path d="M212.669 559.733C213.857 561.491 219.408 570.564 220.884 572.351C221.784 572.351 222.643 572.029 223.143 571.529L215.4 559.557L215.153 559.574C214.322 559.63 213.494 559.683 212.669 559.733Z" fill="black"/>
<path fill-rule="evenodd" clip-rule="evenodd" d="M226.143 554.456L228.912 558.39C224.296 558.868 219.806 559.256 215.4 559.557L214.868 558.872L226.143 554.456Z" fill="#E4C9B1"/>
<path d="M214.868 558.872L212.669 559.733C213.494 559.683 214.322 559.63 215.153 559.574L215.4 559.557L214.868 558.872Z" fill="#2E302A"/>
<path fill-rule="evenodd" clip-rule="evenodd" d="M168.957 570.477L167.143 566.498L164.441 569.753L168.957 570.477Z" fill="#E4C9B1"/>
<path d="M172.394 571.029C171.209 569.053 170.155 566.8 169.192 564.029L167.143 566.498L168.957 570.477L172.394 571.029Z" fill="black"/>
<path fill-rule="evenodd" clip-rule="evenodd" d="M156.67 575.029L160.006 571.186L155.118 570.529C155.461 572.469 155.853 573.416 156.67 575.029Z" fill="#E4C9B1"/>
<path d="M151.402 570.029C152.398 572.938 153.409 575.398 154.5 577.529L156.67 575.029C155.853 573.416 155.461 572.469 155.118 570.529L151.402 570.029Z" fill="black"/>
<path fill-rule="evenodd" clip-rule="evenodd" d="M211.491 551.821C212.01 553.779 212.242 554.182 213.289 555.997L213.103 556.029L216.306 552.319L211.491 551.821Z" fill="#E4C9B1"/>
<path fill-rule="evenodd" clip-rule="evenodd" d="M224.278 551.538C223.404 550.304 222.982 549.576 222.524 548.099L220.043 551.029L224.278 551.538Z" fill="#E4C9B1"/>
<path d="M203.143 531.98C204.306 531.367 205.376 530.827 206.39 530.343C205.817 528.661 205.769 527.436 206.39 524.547C205.28 524.59 204.173 524.626 203.071 524.655C202.242 527.983 202.388 529.52 203.143 531.98Z" fill="black"/>
<path d="M208.334 551.529C208.837 552.781 209.359 553.938 209.907 555.029C210.411 556.033 210.938 556.981 211.491 557.895L213.103 556.029L213.289 555.997C212.242 554.182 212.01 553.779 211.491 551.821L208.334 551.529Z" fill="black"/>
<path d="M225.726 549.029C225.211 548.063 224.73 547.068 224.278 546.029L222.524 548.099C222.982 549.576 223.404 550.304 224.278 551.538L227.424 551.917C226.818 550.975 226.254 550.018 225.726 549.029Z" fill="black"/>
<path d="M246.143 560.529L245.271 556.396C244.605 556.489 243.942 556.579 243.282 556.669C244.055 557.653 245.342 559.588 246.143 560.529Z" fill="#4E4945"/>
<path d="M244.487 553.226C242.232 546.119 236.665 536.52 227.643 522.938C229.76 535.453 235.685 546.897 243.048 556.368L245.225 555.997C245.04 555.117 244.794 554.195 244.487 553.226Z" fill="#4E4945"/>
<path fill-rule="evenodd" clip-rule="evenodd" d="M245.225 555.997C245.491 557.269 246.13 559.423 246.143 560.529L245.271 556.396L245.225 555.997ZM243.048 556.368C235.685 546.897 229.76 535.453 227.643 522.938L219.143 526.075C219.933 530.959 220.751 535.017 221.702 538.529C222.034 539.758 222.383 540.921 222.753 542.029C222.982 542.716 223.219 543.381 223.465 544.029C223.496 544.11 223.527 544.191 223.558 544.272C223.591 544.358 223.624 544.444 223.658 544.529C223.858 545.04 224.065 545.539 224.278 546.029C224.73 547.068 225.211 548.063 225.726 549.029C226.254 550.018 226.818 550.975 227.424 551.917C227.459 551.972 227.495 552.028 227.531 552.083L227.577 552.154L227.643 552.254C227.923 552.681 228.212 553.106 228.511 553.529C229.574 555.034 230.755 556.52 232.077 558.05C232.168 558.155 233.09 559.526 234.034 560.929L234.035 560.931C235.028 562.407 236.545 564.889 236.643 565.001L246.143 560.529C245.342 559.588 244.055 557.653 243.282 556.669C243.204 556.569 243.126 556.468 243.048 556.368Z" fill="#E4C9B1"/>
<path d="M243.282 556.669C243.942 556.579 244.605 556.489 245.271 556.396L245.225 555.997L243.048 556.368C243.126 556.468 243.204 556.569 243.282 556.669Z" fill="#4E4945"/>
<path d="M124 779L148.566 759.652L132.739 723.39L87.3731 777.516L113.168 800L128.5 800C144.617 791.544 124 779 124 779Z" fill="black"/>
<path d="M136.705 759.114C174.302 775.351 229.499 732.743 229.499 732.743C229.499 732.743 253.531 690.12 254.981 670.922C255.576 663.043 259.614 637.288 255.913 623.484C250.753 682.354 236.87 685.201 213.743 694.764L218.065 680.262C198.63 689.023 187.557 694.722 167.078 708.129L168.643 698.252L158.683 706.799L154.355 679.79L135.941 700.16C138.908 683.951 141.233 675.38 147.137 661.435L133.618 666.887L135.104 657.504C124.36 659.011 124.831 660.67 113.398 666.887C113.368 655.402 112.96 643.927 109.898 629.698C93.7392 677.132 125.667 691.06 124.466 698.239C126.398 710.031 99.1085 742.876 136.705 759.114Z" fill="#773A03"/>
<path d="M109.898 629.698C112.96 643.927 113.368 655.402 113.398 666.887C124.831 660.67 124.36 659.011 135.104 657.504L133.618 666.887L147.137 661.435C141.233 675.38 138.908 683.951 135.941 700.16L154.355 679.79L158.683 706.799L168.643 698.252L167.078 708.129C187.557 694.722 198.63 689.023 218.065 680.262L213.743 694.764C236.87 685.201 250.753 682.354 255.913 623.484L109.898 629.698Z" fill="#895424"/>
<path d="M372.303 659.397C376.137 664.283 376.991 667.629 378.854 673.444L379.76 673.022C378.212 666.758 377.583 663.188 373.209 658.974L372.303 659.397Z" fill="black"/>
<path d="M380.643 648.887C387.298 656.02 388.166 660.43 389.696 668.201C389.707 668.258 389.718 668.315 389.729 668.373L391.542 667.528C389.678 659.134 389.156 654.18 382.456 648.042L380.643 648.887Z" fill="black"/>
<path d="M373.869 675.769C376.115 675.678 377.239 675.257 378.854 673.444C376.991 667.629 376.137 664.283 372.303 659.397L373.209 658.974C377.583 663.188 378.212 666.758 379.76 673.022C383.333 676.408 385.416 676.994 389.729 668.373L389.696 668.201C388.166 660.43 387.298 656.02 380.643 648.887L382.456 648.042C389.156 654.18 389.678 659.134 391.542 667.528C397.091 669.099 399.431 667.683 402.026 660.432C405.685 650.495 404.257 643.729 389.995 630.734C381.682 627.719 377.172 626.388 369.866 625.776C369.757 632.721 368.798 637.033 364.846 645.771C364.939 641.849 364.6 639.836 361.043 637.615C358.142 641.29 357.883 643.897 357.49 647.851L357.489 647.854C357.444 648.307 357.397 648.778 357.345 649.269C363.717 655.636 368.635 663.741 373.869 675.769Z" fill="#3E1400"/>
<path d="M356.23 568.139L363.371 527.846C365.007 522.099 366.584 517.189 368.011 512.743L368.012 512.74C368.821 510.221 369.582 507.852 370.278 505.565C374.961 490.185 368.22 473.175 359.223 458.613C370.707 488.678 371.752 502.528 360.213 519.761C358.797 516.56 357.506 514.32 355.764 511.533C355.274 543.68 354.385 552.491 352.215 559.529C348.806 557.3 347.304 555.39 346.933 548.2L342.401 550.313C340.27 541.434 337.245 535.92 330.99 525.843C329.477 536.903 326.929 542.486 321.105 551.969L317.274 536.653C311.809 559.825 307.544 573.073 299.525 596.788L295.9 598.478C288.5 588.123 284.441 581.607 277.786 565.549C278.107 575.675 279.472 583.35 282.052 592.247C268.809 578.505 262.554 564.107 257.566 503.258C258.06 552.127 261.248 572.271 277.272 595.539C280.24 599.847 283.647 604.263 287.56 608.988C293.089 613.501 297.635 617.12 303.471 620.631C310.593 624.916 319.636 629.041 334.734 634.435C339.846 636.868 344.232 639.238 348.096 641.794C351.548 644.078 354.583 646.51 357.345 649.269C357.397 648.778 357.444 648.307 357.489 647.854L357.49 647.851C357.883 643.897 358.142 641.29 361.043 637.615C364.6 639.836 364.939 641.849 364.846 645.771C368.798 637.033 369.757 632.721 369.866 625.776C377.172 626.388 381.682 627.719 389.995 630.734C388.495 629.367 386.853 627.931 385.06 626.415C371.193 609.368 363.968 597.9 358.928 579.57C357.959 576.043 357.07 572.262 356.23 568.139Z" fill="#773A03"/>
<path d="M352.215 559.529C354.385 552.491 355.274 543.68 355.764 511.533C357.506 514.32 358.797 516.56 360.213 519.761C371.752 502.528 370.707 488.678 359.223 458.613L257.566 503.258C262.554 564.107 268.809 578.505 282.052 592.247C279.472 583.35 278.107 575.675 277.786 565.549C284.441 581.607 288.5 588.123 295.9 598.478L299.525 596.788C307.544 573.073 311.809 559.825 317.274 536.653L321.105 551.969C326.929 542.486 329.477 536.903 330.99 525.843C337.245 535.92 340.27 541.434 342.401 550.313L346.933 548.2C347.304 555.39 348.806 557.3 352.215 559.529Z" fill="#895424"/>
</svg>
