<svg width="1157" height="813" viewBox="0 0 1157 813" fill="none" xmlns="http://www.w3.org/2000/svg">
<path d="M1070.55 502.015C1073.19 498.947 1076.02 495.735 1079.04 492.359C1097.82 486.753 1112.39 480.45 1132.06 471.8C975.572 414.914 917.526 419.49 846.211 467.297C871.828 473.015 882.737 475.673 897.863 479.732C959.664 443.508 1020.79 519.3 978.236 564.938C976.254 566.081 974.773 567.026 973.636 567.864C973 571.812 972.372 575.455 971.734 578.872C968.812 594.523 965.685 605.437 960.623 619.279C959.695 621.817 958.702 624.453 957.633 627.235C967.778 729.574 861.861 708.36 847.013 672.806L795.302 653.763C817.401 697.284 831.349 721.257 890.02 754.703C967.006 776.362 1010.24 786.41 1067.02 791.155C1043.38 760.015 1035.66 753.701 1015.33 726.846C1004.37 670.903 1006.45 660.128 1008.6 637.033L1009.48 635.373L1021.6 612.469C1023.79 605.684 1024.56 599.549 1024.7 590.635C1024.75 587.076 1024.71 583.074 1024.61 578.41C1033.39 552.935 1040.55 536.779 1070.55 502.015Z" fill="black"/>
<path d="M1153.78 462.3C1011.25 411.222 930.235 384.749 829.375 469.096L846.211 467.297C917.526 419.49 975.572 414.914 1132.06 471.8C1138.61 468.915 1145.74 465.769 1153.78 462.3Z" fill="#E6EAEB"/>
<path d="M1079.08 497.645C1120.08 485.345 1132.3 477.081 1153.78 462.3C1145.74 465.769 1138.61 468.915 1132.06 471.8C1112.39 480.45 1097.82 486.753 1079.04 492.359C1076.02 495.735 1073.19 498.947 1070.55 502.015C1074.3 500.875 1076.12 499.858 1079.08 497.645Z" fill="#544E2E"/>
<path d="M846.211 467.297L829.375 469.096C834.016 471.859 837.506 473.426 844.306 476.235C863.906 478.152 875.694 480.465 896.071 484.463L897.246 484.694L897.863 479.732C882.737 475.673 871.828 473.015 846.211 467.297Z" fill="#544E2E"/>
<path d="M897.863 479.732L897.246 484.694C955.103 450.817 1009.14 509.489 973.588 562.335L967.437 576.927C969.911 572.494 969.547 570.876 973.636 567.864C974.773 567.026 976.254 566.081 978.236 564.938C1020.79 519.3 959.664 443.508 897.863 479.732Z" fill="#544E2E"/>
<path fill-rule="evenodd" clip-rule="evenodd" d="M795.302 653.763L781.4 650.91C784.055 656.328 786.388 661.402 788.615 666.245C803.123 697.797 813.119 719.534 878.195 762.736C932.316 782.512 969.431 792.927 1074.85 807.608C1078.97 805.176 1077.83 801.893 1067.02 791.155C1010.24 786.41 967.006 776.362 890.02 754.703C831.349 721.257 817.401 697.284 795.302 653.763Z" fill="#E6EAEB"/>
<path d="M847.013 672.806C861.861 708.36 967.778 729.574 957.633 627.235C958.702 624.453 959.695 621.817 960.623 619.279L954.904 617.346L951.026 627.292C976.419 697.448 876.528 723.101 849.277 667.169C803.914 650.681 789.385 647.333 781.4 650.91L795.302 653.763L847.013 672.806Z" fill="#544E2E"/>
<path d="M1024.7 590.635C1024.56 599.549 1023.79 605.684 1021.6 612.469L1009.48 635.373C1022.06 637.082 1028.37 638.817 1037.74 643.717C1054.83 625.546 1055.31 614.446 1050.19 594.047L1024.7 590.635Z" fill="#DBBF9F"/>
<path d="M954.904 617.346L960.623 619.279C965.685 605.437 968.812 594.523 971.734 578.872L967.437 576.927L758.838 526.542L743.64 526.675C735.783 535.004 731.253 544.499 733.994 557.157L749.919 564.617L954.904 617.346Z" fill="#DBBF9F"/>
<path d="M733.994 557.157C731.253 544.499 735.783 535.004 743.64 526.675L743.606 522.71C730.206 519.183 723.438 516.955 712.13 512.742C711.065 514.783 709.71 514.701 704.54 513.8C704.488 514.246 704.436 514.687 704.384 515.123C702.79 528.58 701.302 536.57 697.444 549.215C697.278 549.759 697.108 550.311 696.933 550.872C710.878 553.6 718.037 555.457 728.731 559.846C732.318 561.153 733.641 560.827 733.994 557.157Z" fill="#1C120D"/>
<path d="M644.598 535.97C640.494 531.742 638.242 529.088 638.654 498.514C628.265 495.716 617.363 492.732 605.866 489.566C606.221 520.141 607.886 526.25 612.093 527.823L644.598 535.97Z" fill="#4F3128"/>
<path d="M612.093 527.823C607.886 526.25 606.221 520.141 605.866 489.566C593.554 486.174 588.508 484.708 574.731 480.9C572.687 511.733 573.662 516.4 578.371 519.371L612.093 527.823Z" fill="#160903"/>
<path d="M578.371 519.371C573.662 516.4 572.687 511.733 574.731 480.9C572.543 480.295 562.387 477.55 560.159 476.935C549.924 480.761 547.026 487.727 548.734 511.942L578.371 519.371Z" fill="#75594D"/>
<path d="M530.35 468.732C519.094 475.611 515.637 482.409 519.098 504.514L548.734 511.942C547.026 487.727 549.924 480.761 560.159 476.935C550.603 474.296 540.678 471.561 530.35 468.732Z" fill="#140900"/>
<path d="M676.387 543.938C672.151 539.239 670.241 534.53 671.109 507.052C660.837 504.432 650.055 501.584 638.654 498.514C638.242 529.088 640.494 531.742 644.598 535.97L676.387 543.938Z" fill="#170A04"/>
<path d="M697.444 549.215C701.302 536.57 702.79 528.58 704.384 515.123C693.849 512.729 682.81 510.038 671.109 507.052C670.241 534.53 672.151 539.239 676.387 543.938L697.444 549.215Z" fill="#75594D"/>
<path d="M519.098 504.514C515.637 482.409 519.094 475.611 530.35 468.732C521.179 468.08 516.601 466.005 514.066 457.97C506.834 452.532 502.682 451.547 495.202 454.5C488.109 449.201 485.031 451.578 479.344 454.639C470.849 471.503 469.812 479.903 469.778 494.372C469.017 500.605 472.265 502.05 482.402 502.191C488.113 505.844 491.471 507.47 499.605 504.684C506.631 500.228 510.841 499.916 519.098 504.514Z" fill="#BCB3AA"/>
<path d="M503.988 684.9L507.678 698.022L534.909 714.002L561.48 727.865L535.628 727.865L471.873 727.82L456.48 727.82L460.98 702.253L458.48 680.253L503.988 684.9Z" fill="#456746"/>
<path d="M307.017 672.5L309.5 698.5L314.5 725L296.462 702.723L246.501 645.5L296.462 621.5L307.017 643.692L323.683 655.179L307.017 672.5Z" fill="#456746"/>
<path d="M281.653 479.855L305.451 493.319C300.23 502.554 295.671 511.606 291.699 520.922L260.951 541.022L254.531 567.493L207.265 560.291L130.351 510.966L86.739 465.167L90.3112 441.838C110.723 449.74 119.015 453.344 129.035 458.466C125.9 464.527 123.451 468.052 113.083 475.319C115.482 475.423 117.799 476.034 133.887 483.92C136.52 488.84 137.29 491.732 138.273 496.964C142.4 496.824 144.75 495.95 148.924 491.371C162.675 494.398 170.112 496.978 182.882 503.19C184.647 512.9 184.018 517.993 183.23 527.152L193.858 531.053C202.233 516.251 218.974 524.779 229.02 548.306L228.541 522.685L241.695 525.903L258.241 487.205L284.717 499.016L281.653 479.855Z" fill="#2D2727"/>
<path d="M85.1381 418.843C85.884 425.872 87.3329 431.401 90.3112 441.838L86.739 465.167L130.351 510.966L207.265 560.291L254.531 567.493L260.951 541.022L291.699 520.922C283.613 539.893 277.961 559.961 274.111 584.908L287.466 592.463C272.683 600.688 257.048 608.903 225.248 598.455L99.3027 526.143C94.4166 518.427 89.935 511.672 85.784 505.291C89.9655 503.92 92.0223 502.357 94.6413 496.572C91.2638 494.071 89.027 491.746 83.2258 482.719C77.1398 483.312 75.0325 484.107 74.1943 486.588C67.1749 474.322 61.151 461.216 55.5562 442.771L50.6947 440.021L64.3835 427.169L48.1787 418.001L48.1666 417.889C46.7978 405.39 46.0259 398.342 49.3432 383.804C55.4215 389.204 59.7956 395.739 68.1231 409.216L85.1381 418.843Z" fill="#343F31"/>
<path d="M584.111 329.773L640.638 267.813L688.849 332.323C685.918 344.111 687.867 346.733 693.24 349.322C691.147 354.877 689.97 359.634 688.001 372.427L640.542 369.728L637.045 369.529L586.733 339.067L584.111 329.773Z" fill="#AEBA78"/>
<path d="M640.542 369.728L688.001 372.427C686.994 380.48 684.384 383.855 681.467 387.021C685.722 392.788 675.583 400.922 678.691 414.032C676.703 432.06 677.534 430.448 670.425 442.206C667.615 450.362 638.774 464.396 636.379 469.468L632.455 461.823L614.682 458.604L600.853 445.72L567.699 440.518C581.708 421.731 631.81 414.17 648.53 400.426C646.371 387.287 647.69 380.747 640.542 369.728Z" fill="#456746"/>
<path fill-rule="evenodd" clip-rule="evenodd" d="M632.455 461.823L636.379 469.468C624.12 483.948 598.657 501.237 589.33 507.983C581.736 514.366 559.752 520.108 553.212 541.078C540.591 550.39 545.848 550.433 539.257 553.312L503.287 566.927C501.803 553.119 500.981 545.382 501.119 532.058C497.753 531.781 495.51 531.13 490.859 529.061L491.578 521.596L462.56 504.737L494.549 490.738L495.565 490.613L487.543 482.512L496.684 507.559L520.699 503.341L545.573 516.285C570.508 509.702 578.477 505.3 591.173 496.564L540.087 458.493L518.063 462.902L536.583 442.545C546.332 439.653 554.118 439.069 567.699 440.518L600.853 445.72L614.682 458.604L632.455 461.823ZM567.143 528.915L567.228 528.88L562.362 558.55L539.257 553.312C549.56 536.288 555.896 533.632 567.143 528.915Z" fill="#2B2D28"/>
<path d="M539.257 553.312L562.362 558.55L567.228 528.88L567.143 528.915C555.896 533.632 549.56 536.288 539.257 553.312Z" fill="black"/>
<path d="M489.576 482.261C499.368 479.687 507.438 468.911 518.063 462.902L540.087 458.493L591.173 496.564C578.477 505.3 570.508 509.702 545.573 516.285L520.699 503.341L496.684 507.559L487.543 482.512L489.576 482.261Z" fill="#456746"/>
<path d="M584.111 329.773L586.733 339.067L637.045 369.529L640.542 369.728C647.69 380.747 646.371 387.287 648.53 400.426C631.81 414.17 581.708 421.731 567.699 440.518C554.118 439.069 546.332 439.653 536.583 442.545C534.697 443.105 574.369 445.595 572.28 446.329L572.292 446.284C575.828 433.659 577.815 426.567 583.022 418.229C591.654 410.625 596.799 404.559 607.184 386.399L601.212 385.824L583.022 418.229L559.487 385.908C562.423 370.543 568.946 363.954 569.669 358.675C570.391 353.397 576.905 347.299 584.111 329.773Z" fill="#7A3A2E"/>
<path d="M601.212 385.824L607.184 386.399C596.799 404.559 591.654 410.625 583.022 418.229L601.212 385.824Z" fill="black"/>
<path d="M585 590.5L440.5 521L330 544C387.628 591.93 411.5 612 454.5 693.5L511.5 689.5C513.5 655 564 638.5 564 638.5C564 638.5 582.218 612.681 585 590.5Z" fill="black"/>
<path d="M752.446 96.5825C755.844 114.671 755.954 124.315 753.287 140.722C748.109 141.944 746.081 141.369 743.506 138.643C736.966 127.455 736.218 126.069 733.42 121.164C736.061 118.812 737.368 114.638 739.754 108.197L752.446 96.5825Z" fill="#2A2722"/>
<path d="M674.06 82.988C663.598 98.1305 659.575 106.896 655.338 122.969C659.571 126.191 661.658 126.492 665.119 125.048C675.644 117.487 676.892 116.526 681.443 113.183C679.986 109.96 680.49 105.615 680.93 98.7612L674.06 82.988Z" fill="#2A2722"/>
<path d="M672.718 137.398C680.299 135.173 682.66 132.822 684.12 127.042C688.421 132.319 690.414 135.451 692.438 141.59L693.436 143.335C676.283 141.156 673.265 139.835 672.718 137.398Z" fill="#A4A971"/>
<path d="M739.874 138.893C739.618 146.52 741.617 149.569 748.035 153.407C745.071 155.657 744.289 157.408 727.848 152.183C728.397 151.2 728.921 150.295 729.437 149.454C732.209 144.943 734.776 142.255 739.874 138.893Z" fill="#A4A971"/>
<path fill-rule="evenodd" clip-rule="evenodd" d="M602.527 53.9817C607.803 55.6143 604.561 80.4838 597.225 78.9245C589.535 78.002 572.553 73.8026 566.029 71.7822C559.505 69.7619 563.425 46.1895 571.33 46.8395C579.235 47.4894 597.251 52.3491 602.527 53.9817ZM589.884 53.3391C592.927 63.76 585.726 72.9021 585.726 72.9021C585.726 72.9021 583.253 63.7404 589.884 53.3391Z" fill="#A4A971"/>
<path fill-rule="evenodd" clip-rule="evenodd" d="M519.874 36.4132C525.149 38.0458 521.908 62.9153 514.572 61.3559C506.882 60.4335 491.752 57.1389 485.227 55.1186C478.703 53.0982 482.624 29.5258 490.529 30.1758C498.434 30.8258 514.598 34.7806 519.874 36.4132ZM509.187 36.1864C512.23 46.6073 505.029 55.7493 505.029 55.7493C505.029 55.7493 502.556 46.5876 509.187 36.1864Z" fill="#A4A971"/>
<path d="M589.884 53.3391C592.927 63.76 585.726 72.9021 585.726 72.9021C585.726 72.9021 583.253 63.7404 589.884 53.3391Z" fill="#D22B2B"/>
<path d="M509.187 36.1864C512.23 46.6073 505.029 55.7493 505.029 55.7493C505.029 55.7493 502.556 46.5876 509.187 36.1864Z" fill="#D22B2B"/>
<path d="M748.035 153.407L763.685 156.734L761.814 165.537L757.902 164.705C757.852 164.679 757.801 164.668 757.749 164.673L565.207 123.747L553.157 122.719L554.716 115.383C562.176 117.987 566.102 119.223 569.878 118.606C580.825 122.573 582.869 122.728 583.572 121.516C593.954 124.893 601.255 128.532 607.047 126.506C621.013 131.459 626.721 132.971 629.545 131.288C640.422 134.756 644.37 134.978 646.797 131.888L672.718 137.398C673.265 139.835 676.283 141.156 693.436 143.335L692.438 141.59L729.437 149.454C728.921 150.295 728.397 151.2 727.848 152.183C744.289 157.408 745.071 155.657 748.035 153.407Z" fill="#2A2722"/>
<path fill-rule="evenodd" clip-rule="evenodd" d="M755.314 78.2789L765.096 80.358C766.003 96.0316 766.689 103.834 767.985 117.265C769.654 133.429 766.965 141.679 763.685 156.734L748.035 153.407C741.617 149.569 739.618 146.52 739.874 138.893C734.776 142.255 732.209 144.943 729.437 149.454L692.438 141.59C690.414 135.451 688.421 132.319 684.12 127.042C682.66 132.822 680.299 135.173 672.718 137.398L646.797 131.888C644.37 134.978 640.422 134.756 629.545 131.288L620.113 108.326L607.047 126.506L595.598 108.226L583.572 121.516L578.981 111.851L569.878 118.606L565.348 103.841L554.716 115.383L553.157 122.719L565.207 123.747L757.749 164.673C755.955 164.849 752.889 183.924 748.338 209.7C743.948 211.254 741.525 212.621 737.278 216.039L612.564 189.531L514.26 168.636C487.546 178.927 475.931 183.008 473.807 180.995C466.235 179.929 462.242 179.092 455.222 177.044L451.725 174.257C443.292 160.605 440.468 155.062 436.663 146.519L436.625 165.935C437.181 166.597 437.723 167.252 438.252 167.901L434.965 238.68C414.311 216.287 402.524 205.215 381.701 186.252L381.273 185.862C397.382 151.745 408.798 121.058 428.781 68.1678L463.463 70.9391C463.463 70.9391 467.082 63.5298 470.317 55.5274C473.551 47.525 476.285 32.2597 480.363 27.5037C484.441 22.7476 490.236 21.9348 490.236 21.9348L529.362 30.2513L531.623 46.067L552.164 50.4332L560.663 36.9045L612.994 48.0277C617.325 50.3356 618.132 53.2558 619.437 58.5983C618.565 76.3304 618.434 85.55 619.331 99.9806L648.675 106.218C655.06 88.1757 661.044 78.3782 673.15 60.8143L683.909 63.1013L694.204 79.6022L740.177 89.3741L755.314 78.2789ZM655.338 122.969C659.575 106.896 663.598 98.1305 674.06 82.988L680.93 98.7612C680.49 105.615 679.986 109.96 681.443 113.183C676.892 116.526 675.644 117.487 665.119 125.048C661.658 126.492 659.571 126.191 655.338 122.969ZM753.287 140.722C755.954 124.315 755.844 114.671 752.446 96.5825L739.754 108.197C737.368 114.638 736.061 118.812 733.42 121.164C736.218 126.069 736.966 127.455 743.506 138.643C746.081 141.369 748.109 141.944 753.287 140.722ZM597.225 78.9245C604.561 80.4838 607.803 55.6143 602.527 53.9817C597.251 52.3491 579.235 47.4894 571.33 46.8395C563.425 46.1895 559.505 69.7619 566.029 71.7822C572.553 73.8026 589.535 78.002 597.225 78.9245ZM514.572 61.3559C521.908 62.9153 525.149 38.0458 519.874 36.4132C514.598 34.7806 498.434 30.8258 490.529 30.1758C482.624 29.5258 478.703 53.0982 485.227 55.1186C491.752 57.1389 506.882 60.4335 514.572 61.3559Z" fill="#426640"/>
<path d="M620.113 108.326L629.545 131.288C626.721 132.971 621.013 131.459 607.047 126.506L620.113 108.326Z" fill="#A4A971"/>
<path d="M595.598 108.226L607.047 126.506C601.255 128.532 593.954 124.893 583.572 121.516L595.598 108.226Z" fill="#A4A971"/>
<path d="M578.981 111.851L583.572 121.516C582.869 122.728 580.825 122.573 569.878 118.606L578.981 111.851Z" fill="#A4A971"/>
<path d="M565.348 103.841L569.878 118.606C566.102 119.223 562.176 117.987 554.716 115.383L565.348 103.841Z" fill="#A4A971"/>
<path d="M407.389 77.4225C414.431 73.2847 419.289 71.3301 428.781 68.1678C408.798 121.058 397.382 151.745 381.273 185.862L368.179 187.339L351.42 189.229C352.862 182.135 353.052 177.791 351.177 168.731C359.547 165.016 365.523 162.949 378.749 159.256C373.996 150.237 371.542 145.056 369.14 134.722C377.278 129.723 382.56 126.683 396.878 119.66L389.768 107.414C396.061 103.51 400.326 101.286 409.308 97.2548C408.316 89.557 408.112 85.2596 407.389 77.4225Z" fill="#2D2727"/>
<path d="M612.564 189.531L583.988 225.373C578.069 227.64 572.497 227.958 565.134 227.499C566.27 238.986 541.346 262.324 545.318 260.602C526.847 269.533 517.893 272.663 503.752 275.792C492.615 271.296 483.441 269.211 462.877 266.082L443.604 247.161C451.657 237.028 456.613 227.307 464.323 211.183C454.626 192.136 448.978 181.065 438.252 167.901C437.723 167.252 437.181 166.597 436.625 165.935L436.663 146.519C440.468 155.062 443.292 160.605 451.725 174.257L455.222 177.044C462.242 179.092 466.235 179.929 473.807 180.995C475.931 183.008 487.546 178.927 514.26 168.636L612.564 189.531Z" fill="#2D2727"/>
<path d="M464.323 211.183C456.613 227.307 451.657 237.028 443.604 247.161L434.965 238.68L438.252 167.901C448.978 181.065 454.626 192.136 464.323 211.183Z" fill="#714133"/>
<path d="M545.318 260.602C541.346 262.324 566.27 238.986 565.134 227.499C572.497 227.958 578.069 227.64 583.988 225.373C590.821 228.557 594.103 230.465 599.577 233.798C535.763 265.916 549.29 258.881 545.318 260.602Z" fill="#714133"/>
<path d="M383.813 555.5L426.998 531C440.191 556.103 432.5 596.5 432.5 596.5C433.952 631.512 396.5 670.5 319.5 670.5L279.5 628.2C279.5 628.2 310.232 604.516 290.5 596.5C274.5 590 254.003 567.93 254 548.5C253.997 529.07 264.92 533.642 266 509L383.813 555.5Z" fill="#2C1D1D"/>
<path d="M545.895 259.871C549.851 258.115 535.971 265.766 599.502 233.092L602.367 233.092C602.184 234.125 601.898 235.253 601.513 236.49C598.776 245.28 591.059 259.57 580.232 284.205C568.224 289.824 556.179 300.632 532.446 323.466C529.451 318.713 528.168 315.527 523.503 299.706L520.073 299.009L520.572 296.559C509.19 285.292 507.476 281.372 504.462 275.423C518.575 272.17 527.502 268.962 545.895 259.871Z" fill="#A8B877"/>
<path d="M444.067 247.318L463.505 266.069C456.481 272.295 447.936 275.506 440.669 280.503C439.637 281.212 438.632 281.957 437.66 282.752C427.991 291.481 424.757 294.727 419.293 300.209L419.292 300.21L418.675 300.83C415.079 299.619 413.117 298.543 409.964 295.996C404.722 284.908 402.151 279.028 398.58 269.188C388.331 248.767 383.424 240.528 375.861 230.379L367.06 193.382L368.123 188.156L381.203 186.565L381.635 186.951C402.622 205.731 414.506 216.7 435.354 238.912L444.067 247.318Z" fill="#A9B779"/>
<path d="M520.572 296.559L520.073 299.009L478.573 334.957L484.667 360.178L459.47 388.727L452.61 387.332L443.021 351.705L461.242 327.349L445.568 281.5L440.669 280.503C447.936 275.506 456.481 272.295 463.505 266.069C484.095 269.019 493.287 271.023 504.462 275.423C507.476 281.372 509.19 285.292 520.572 296.559Z" fill="black"/>
<path d="M532.446 323.466C556.179 300.632 568.224 289.824 580.232 284.205C514.679 368.813 484.064 393.115 448.564 424.777C441.24 408.844 437.47 400.829 424.235 368.803C414.701 344.398 408.817 327.842 398.381 298.475L398.287 298.212C389.132 273.887 384.333 258.407 375.861 230.379C383.424 240.528 388.331 248.767 398.58 269.188C402.151 279.028 404.722 284.908 409.964 295.996C413.117 298.543 415.079 299.619 418.675 300.83L419.292 300.21L419.293 300.209C424.757 294.727 427.991 291.481 437.66 282.752C438.632 281.957 439.637 281.212 440.669 280.503L445.568 281.5L461.242 327.349L443.021 351.705L452.61 387.332L459.47 388.727L484.667 360.178L478.573 334.957L520.073 299.009L523.503 299.706C528.168 315.527 529.451 318.713 532.446 323.466Z" fill="#74543F"/>
<path d="M439.193 470.833C459.372 474.941 452.711 504.708 433.113 500.721C413.514 496.734 419.014 466.726 439.193 470.833Z" fill="black"/>
<path d="M426.633 532.568C445.742 536.456 440.84 565.563 420.752 561.476C400.663 557.389 407.525 528.681 426.633 532.568Z" fill="black"/>
<path fill-rule="evenodd" clip-rule="evenodd" d="M448.564 424.777C484.064 393.115 514.679 368.813 580.232 284.205C591.059 259.57 598.776 245.28 601.513 236.49C630.254 259.016 615.662 245.628 641.501 268.5L637.502 391C628.503 407.677 629.27 419.603 628 424.777C632.526 409.803 626.73 429.951 628 424.777C602.457 453.678 581.039 550.547 584.1 596.241L448.004 623.147L417.163 579.115L368.63 606.999L253.068 532.973L254.022 528.287L255.634 527.883L256.432 523.963L258.824 512.204L260.801 494.237L260.962 492.878C265.146 457.444 267.552 437.076 272.576 386.931C271.36 360.609 271.335 345.791 273.095 319.174C276.222 291.857 277.552 276.859 278.812 250.944C280.44 234.958 282.119 224.158 281.502 216C305.275 206.514 320.296 196.886 351.381 190.192L368.123 188.156L367.06 193.382L375.861 230.379C384.333 258.407 389.132 273.887 398.287 298.212L398.381 298.475C408.817 327.842 414.701 344.398 424.235 368.803C437.47 400.829 441.24 408.844 448.564 424.777ZM439.193 470.833C459.372 474.941 452.711 504.708 433.113 500.721C413.514 496.734 419.014 466.726 439.193 470.833ZM426.633 532.568C445.742 536.456 440.84 565.563 420.752 561.476C400.663 557.389 407.525 528.681 426.633 532.568Z" fill="#252222"/>
<path d="M277.13 218.452L281.121 216.374C286.735 222.326 292.709 232.338 301.505 245.785C316.834 266.718 325.239 279.21 340 302.408C328.141 331.403 319.531 346.209 299.04 368.826L295.207 366.876L257.509 386.5C256.083 386.015 255.528 386.17 243.322 366.828L244.58 361.664C241.275 352.412 236.085 346.217 237.793 343.213C246.051 314.8 250.398 298.664 254.67 267.348C260.052 254.13 265.181 246.209 277.13 218.452Z" fill="#AFBE7B"/>
<path d="M394.5 410.5C393.123 409.698 390.379 421.565 388 423C379.059 426.727 377.152 432.11 370.5 435C351 416.481 328.667 396.135 299.283 398.039L297.57 375.256L299.04 368.826C319.531 346.209 328.141 331.403 340 302.408C340 302.408 369.744 374.026 365.269 385.109L342.813 365.796C340.669 367.302 340.169 368.561 339.994 371.209C353.125 377.734 363.742 384.095 377.5 395C382.75 400.715 390.329 402.888 394.5 410.5Z" fill="#7A3A2E"/>
<path d="M339.994 371.209C340.169 368.561 340.669 367.302 342.813 365.796L365.269 385.109C368.925 388.556 374.885 392.153 377.5 395C363.742 384.095 353.125 377.734 339.994 371.209Z" fill="black"/>
<path d="M258.948 393.106C259.091 389.538 260.107 387.84 257.509 386.5L295.207 366.876L299.04 368.826L297.57 375.256L299.283 398.039C328.667 396.135 351 416.481 370.5 435C354.224 442.072 359.606 450.022 344.5 457.5C340.882 470.186 345.949 483.841 335.5 494C325.513 483.115 279.622 453.724 257.193 436.297C256.768 422.279 256.958 413.312 258.948 393.106Z" fill="#456746"/>
<path d="M442.595 486.865C443.085 484.791 443.974 483.568 447.565 481.248C458.462 483.02 465.281 482.505 477.059 481.616L478.013 481.544C473.105 491.695 470.194 497.229 461.694 503.762C453.264 499.221 448.553 496.642 442.595 486.865Z" fill="black"/>
<path fill-rule="evenodd" clip-rule="evenodd" d="M419.661 534.67C413.641 533.451 398.909 527.14 335.359 494.132C341.473 480.904 344.38 473.495 343.211 460.356C354.633 447.961 363.212 438.933 375.873 426.499C381.047 421.416 386.904 415.765 393.915 409.082L414.756 425.518C411.204 425.445 406.53 429.261 393.827 442.383C394.346 449.325 394.392 455.8 391.994 493.502C393.725 495.448 398.397 494.819 442.697 476.941C444.621 465.227 444.763 458.482 442.583 446.131C457.629 442.533 460.436 441.4 465.198 439.435C461.329 433.057 459.51 428.828 456.931 420.104L457.872 419.795L492.696 408.353L481.431 438.442L484.427 441.092L483.97 442.691L480.926 453.35L504.647 476.34L453.957 533.635C441.349 536.67 435.25 537.548 424.53 538.977L419.661 534.67ZM447.565 481.248C443.974 483.568 443.085 484.791 442.595 486.865C448.553 496.642 453.264 499.221 461.694 503.762C470.194 497.229 473.105 491.695 478.013 481.544L477.059 481.616C465.281 482.505 458.462 483.02 447.565 481.248Z" fill="#343F31"/>
<path d="M414.756 425.518C434.005 421.46 437.186 424.948 456.931 420.104C459.51 428.828 461.329 433.057 465.198 439.435C460.436 441.4 457.629 442.533 442.583 446.131C444.763 458.482 444.621 465.227 442.697 476.941C398.397 494.819 393.725 495.448 391.994 493.502C394.392 455.8 394.346 449.325 393.827 442.383C406.53 429.261 411.204 425.445 414.756 425.518Z" fill="#456746"/>
</svg>
