<svg width="1764" height="1323" viewBox="0 0 1764 1323" fill="none" xmlns="http://www.w3.org/2000/svg">
<g clip-path="url(#clip0_183_686)">
<path d="M766.089 672.201L792.488 686.877L797.556 689.694L902.395 747.976L902.395 858.189L823.508 833.42L828.712 791.629L759.187 748.777L736.534 756.628L766.089 672.201Z" fill="#211F27"/>
<path d="M766.089 672.201L771.121 651.907C772.183 668.628 776.265 677.303 792.488 686.877L766.089 672.201Z" fill="#211F27"/>
<path d="M766.089 672.201L736.534 756.628L759.187 748.777L828.712 791.629L823.508 833.42L902.395 858.189L902.395 747.976L797.556 689.694M766.089 672.201L771.121 651.907C772.183 668.628 776.265 677.303 792.488 686.877M766.089 672.201L792.488 686.877M797.556 689.694C795.747 688.741 794.06 687.805 792.488 686.877M797.556 689.694L792.488 686.877" stroke="black" stroke-width="0.350418"/>
<path d="M630.874 767.611L587.898 754.829C592.934 764.631 597.025 772.635 600.455 780.366L642.555 798.465L659.304 796.041L665.695 815.215L687.734 792.515L696.647 822.267L713.74 787.446C707.479 788.181 703.954 788.036 697.651 785.242C706.493 770.436 713.86 761.359 729.167 744.47C707.322 753.517 696.44 759.98 681.783 776.426L642.555 752.184L630.874 767.611Z" fill="#C5B5A5"/>
<path d="M688.287 535.102C693.684 528.27 698.753 523.422 699.414 518.133C698.887 509.759 696.688 505.313 690.158 507.995C683.628 510.677 681.783 521.302 688.287 535.102Z" fill="black"/>
<path d="M792.859 1107.08L789.994 1175.99L955.212 1179.96C927.365 1151.83 911.536 1137.54 867.349 1130.81V1102.08L792.859 1107.08Z" fill="black"/>
<path d="M337.098 1100.34L332.249 1129.27C303.257 1142.96 289.155 1155.03 265.472 1179.51H403.214V1155.27L420.404 1105.81L337.098 1100.34Z" fill="black"/>
<path d="M469.765 597.472C471.125 597.733 474.69 597.216 478.552 596.656C480.323 596.399 482.157 596.133 483.87 595.929L499.958 593.725L501.507 595.268H511.424C517.756 623.158 521.41 636.865 528.394 652.348L531.039 622.596C540.741 636.939 546.094 644.996 557.926 658.96C562.436 657.046 564.272 655.359 566.301 651.246C568.216 665.602 570.449 673.87 577.32 689.153C577.746 678.984 576.866 672.19 572.692 657.417C587.796 675.78 596.771 685.469 615.667 699.291C615.193 686.775 614.629 679.744 611.7 667.114C627.824 684.113 635.623 694.061 649.387 711.853L652.692 692.459L681.783 730.586C691.579 719.594 696.939 713.52 701.618 705.903C705.06 705.874 706.989 705.443 710.434 703.919C716.598 697.161 719.4 691.149 723.877 678.575C725.156 663.68 726.163 655.629 732.913 646.398C733.708 652.915 734.034 657.413 734.236 668.216C742.26 656.848 748.146 654.211 748.561 622.376L764.643 627.885C764.65 619.456 763.905 613.645 762.225 602.761L756.709 597.472C675.815 597.603 629.322 596.613 557.479 605.186L556.71 603.967L556.71 603.966C543.256 582.644 535.479 570.319 522.438 541.714C520.404 542.267 518.434 542.798 516.523 543.312C516.516 543.314 516.51 543.316 516.503 543.318C498.9 548.058 486.373 551.431 476.377 558.243C482.526 561.289 489.881 562.321 498.735 563.563C502.276 564.059 506.057 564.589 510.096 565.295C492.925 572.395 467.781 597.091 469.765 597.472Z" fill="#D2CFC9"/>
<path d="M774.34 635.379C775.959 622.451 773.997 616.232 770.373 605.186L762.225 602.761C763.905 613.645 764.65 619.456 764.643 627.885L748.561 622.376C748.146 654.211 742.26 656.848 734.236 668.216C734.034 657.413 733.708 652.915 732.913 646.398C726.163 655.629 725.156 663.68 723.877 678.575C719.4 691.149 716.598 697.161 710.434 703.919C706.989 705.443 705.06 705.874 701.618 705.903C696.939 713.52 691.579 719.594 681.783 730.586L652.692 692.459L649.387 711.853C635.623 694.061 627.824 684.113 611.7 667.114C614.629 679.744 615.193 686.775 615.667 699.291C596.771 685.469 587.796 675.78 572.692 657.417C576.866 672.19 577.746 678.984 577.32 689.153C570.449 673.87 568.216 665.602 566.301 651.246C564.272 655.359 562.436 657.046 557.926 658.96C546.094 644.996 540.741 636.939 531.039 622.596L528.394 652.348C521.41 636.865 517.756 623.158 511.424 595.268H501.507L499.958 593.725L483.87 595.929C482.41 599.24 481.923 605.431 481.108 615.775C481.1 615.886 481.091 615.997 481.082 616.108C481.057 616.43 481.031 616.756 481.005 617.086C488.889 614.833 493.058 613.23 499.958 609.593L507.231 654.552L510.154 656.955C510.154 656.956 510.155 656.956 510.156 656.957C544.75 685.399 565.029 702.071 598.692 731.027C598.696 730.952 598.7 730.878 598.704 730.804C598.709 730.702 598.715 730.601 598.72 730.501C598.731 730.31 598.741 730.121 598.751 729.934C598.765 729.678 598.779 729.426 598.792 729.177C598.795 729.121 598.798 729.064 598.801 729.008C598.801 729.001 598.802 728.993 598.802 728.986C599.109 723.251 599.311 719.476 600.455 714.057C630.194 730.399 646.93 739.181 677.149 752.184C705.817 718.696 722.219 700.583 752.742 670.861C752.805 669.01 752.842 667.266 752.876 665.606C752.876 665.603 752.876 665.6 752.877 665.598C753.083 655.753 753.227 648.861 758.472 640.227C760.389 640.951 761.701 642.497 764.643 648.161C767.207 639.748 768.44 637.092 770.373 635.379H774.34Z" fill="#C5B5A5"/>
<path d="M622.058 498.358C595.384 509.272 584.318 509.209 576.218 500.281C572.845 497.144 569.257 494.249 566.301 491.318C566.313 491.359 566.325 491.399 566.337 491.44C571.779 509.752 567.051 511.914 558.367 515.488C561.166 516.344 563.815 517.048 566.337 517.601C589.024 522.577 601.483 515.418 621.928 498.467C621.971 498.43 622.015 498.394 622.058 498.358Z" fill="#A4395B"/>
<path d="M552.857 441.217C547.763 450.562 545.564 455.824 542.499 465.24L552.857 464.64L569.166 463.697C578.405 466.287 591.03 467.854 603.571 469.411L603.572 469.411C612.773 470.554 620.27 471.69 628.009 473.221C631.822 473.975 635.627 474.605 638.588 475.598C635.015 474.707 631.277 474.069 628.009 473.221C600.311 466.037 583.9 459.653 552.857 441.217Z" fill="#FEBD87"/>
<path d="M789.773 532.725C785.427 535.321 780.153 536.881 771.701 538.629C767.862 548.872 771.716 553.686 777.251 560.6C777.252 560.601 777.253 560.602 777.254 560.603C777.259 560.609 777.264 560.615 777.269 560.621C777.794 561.277 778.333 561.951 778.883 562.651C783.492 562.098 786.024 559.99 789.773 532.725Z" fill="black"/>
<path d="M721.012 502.265C732.866 502.059 735.999 500.502 740.627 482.871C736.88 479.565 732.657 474.796 725.42 474.716C716.978 476.99 714.151 479.061 711.536 483.752C709.051 497.432 715.119 498.781 721.012 502.265Z" fill="#AC3131"/>
<path fill-rule="evenodd" clip-rule="evenodd" d="M628.009 473.221C631.822 473.975 635.627 474.605 638.588 475.598C635.015 474.707 631.277 474.069 628.009 473.221ZM632.761 493.238C635.291 483.625 635.545 477.6 618.802 474.432C614.807 473.377 611.287 473.023 608.394 473.221C604.521 473.487 600.4 480.537 599.138 482.43C597.298 485.191 607.553 498.944 621.928 498.467C623.885 498.402 625.919 498.073 628.009 497.416L630.808 494.955L632.761 493.238Z" fill="#AC3131"/>
<path d="M569.166 463.697L552.857 464.64C554.643 474.511 555.812 480.921 566.337 491.44C566.325 491.399 566.313 491.359 566.301 491.318C569.257 494.249 572.845 497.144 576.218 500.281C584.318 509.209 595.384 509.272 622.058 498.358L628.009 497.416C625.919 498.073 623.885 498.402 621.928 498.467C607.553 498.944 597.298 485.191 599.138 482.43C600.4 480.537 604.521 473.487 608.394 473.221C611.287 473.023 614.807 473.377 618.802 474.432C635.545 477.6 635.291 483.625 632.761 493.238L658.863 480.667L638.588 475.598C635.015 474.707 631.277 474.069 628.009 473.221C620.27 471.69 612.773 470.554 603.572 469.411L603.571 469.411C591.03 467.854 578.405 466.287 569.166 463.697Z" fill="black"/>
<path d="M655.992 510.419C652.001 519.612 660.321 525.237 671.371 535.102C673.136 523.468 674.595 516.833 664.593 507.995C661.163 505.691 659.295 506.956 655.992 510.419Z" fill="black"/>
<path d="M669.442 541.714H678.698H686.632H694.566C686.315 535.826 683.485 527.709 680.902 506.672H674.951C674.53 519.069 673.668 526.42 671.371 535.102C670.816 537.199 670.178 539.373 669.442 541.714Z" fill="#B74A5F"/>
<path d="M557.479 605.186C612.211 585.936 656.667 583.984 756.488 593.725C740.951 584.982 731.268 580.243 686.632 576.315C684.762 562.171 683.392 554.136 686.632 541.714H678.698C680.507 556.844 679.707 564.481 678.698 578.298H616.108L588.119 545.901L561.452 553.395L499.958 465.24L535.667 420.727L520.24 411.758C504.653 428.18 492.144 443.225 473.512 467.223C511.195 526.701 515.16 531.995 521.996 541.125L522.438 541.714C535.479 570.319 543.256 582.644 556.71 603.966L556.71 603.967L557.479 605.186Z" fill="#B74A5F"/>
<path d="M756.488 593.725C656.667 583.984 612.211 585.936 557.479 605.186C629.322 596.613 675.815 597.603 756.709 597.472L756.488 593.725Z" fill="black"/>
<path d="M655.992 430.639C625.253 419.667 610.302 415.676 596.163 411.902C581.535 407.997 567.777 404.325 538.305 393.393C531.63 399.99 525.743 405.959 520.24 411.758L535.667 420.727L576.218 444.303C607.585 457.412 626.145 454.572 667.458 467.223C689.484 455.185 703.496 448.302 735.117 435.487C745.516 459.373 751.796 469.524 762.743 489.482C765.748 479.143 768.595 466.967 771.254 451.355L724.753 410.363C694.108 418.052 678.229 422.444 655.992 430.639Z" fill="#FEBD87"/>
<path d="M811.96 464.578L793.888 481.328L780.076 499.4C779.726 510.675 778.638 515.344 776.852 523.004C776.754 523.428 776.653 523.86 776.55 524.303C791.267 524.594 794.468 525.577 795.724 528.05C793.787 529.949 791.89 531.46 789.773 532.725C786.024 559.99 783.492 562.098 778.883 562.651C779.276 563.151 779.675 563.665 780.076 564.194C774.387 564.274 771.513 563.339 766.853 560.227C763.992 571.963 762.154 577.341 758.699 586.012V594.387L818.417 545.901C818.768 529.237 817.258 485.398 811.96 464.578Z" fill="#B74A5F"/>
<path fill-rule="evenodd" clip-rule="evenodd" d="M756.488 586.012L740.4 549.648C724.914 522.394 717.834 511.441 707.128 496.958C698.334 493.524 686.933 488.709 668.119 481.328L658.863 480.667L632.761 493.238L630.808 494.955C629.725 496.037 628.55 497.246 628.009 497.416C625.919 498.073 623.885 498.402 621.928 498.467C601.483 515.418 589.024 522.577 566.337 517.601L588.119 545.901L616.108 578.298H678.698C679.707 564.481 680.507 556.844 678.698 541.714H669.442C670.178 539.373 670.816 537.199 671.371 535.102C660.321 525.237 652.001 519.612 655.992 510.419C659.295 506.956 661.163 505.691 664.593 507.995C674.595 516.833 673.136 523.468 671.371 535.102C673.668 526.42 674.53 519.069 674.951 506.672H680.902C683.485 527.709 686.315 535.826 694.566 541.714H686.632C683.392 554.136 684.762 562.171 686.632 576.315C731.268 580.243 740.951 584.982 756.488 593.725V586.012ZM699.414 518.133C698.753 523.422 693.684 528.27 688.287 535.102C681.783 521.302 683.628 510.677 690.158 507.995C696.688 505.313 698.887 509.759 699.414 518.133Z" fill="#FEBD87"/>
<path d="M737.541 453.78C712.335 464.966 695.884 470.717 668.119 481.328C691.434 475.097 704.504 471.674 727.844 469.527H743.492C741.716 461.986 740.312 458.805 737.541 453.78Z" fill="#FEBD87"/>
<path d="M721.012 502.265C715.119 498.781 709.051 497.432 711.536 483.752C714.151 479.061 716.978 476.99 725.42 474.716C732.657 474.796 736.88 479.565 740.627 482.871C739.155 477.3 736.723 471.561 727.844 469.527C704.504 471.674 691.434 475.097 668.119 481.328C686.933 488.709 698.334 493.524 707.128 496.958C711.726 498.754 717.153 501.054 721.012 502.265Z" fill="black"/>
<path d="M387.561 508.876L371.478 506.011L380.734 514.166C387.898 529.779 392.477 538.021 402.107 551.631L387.561 556.26L389.55 563.092C398.389 559.803 403.299 558.117 411.045 558.243L409.942 537.086L387.561 508.876Z" fill="black"/>
<path d="M387.561 460.391L347.892 436.369C319.786 468.917 311.575 485.377 321.666 508.876L344.15 554.496C352.413 561.513 357.021 565.459 365.087 572.568L412.47 585.571L411.045 558.243C403.299 558.117 398.389 559.803 389.55 563.092L387.561 556.26L367.732 537.086L354.949 506.011L348.112 495.873L387.561 460.391Z" fill="#D15F6F"/>
<path d="M406.299 467.223C398.547 467.729 394.341 466.952 387.561 460.391L348.112 495.873L354.949 506.011L367.732 537.086L387.561 556.26L402.107 551.631C392.477 538.021 387.898 529.779 380.734 514.166L371.478 506.011L387.561 508.876L409.942 537.086L406.299 467.223Z" fill="#B74A5F"/>
<path d="M415.33 965.739C335.114 958.907 218.881 985.879 248.717 846.95C278.553 708.022 89.162 690.035 78.1379 697.528C67.1138 705.021 63.8172 719.346 78.1379 727.941C92.4586 736.536 243.874 721.109 220.287 846.95C197.052 970.918 271.564 1005.29 391.998 987.939L397.489 987.117L415.33 965.739Z" fill="#211F27"/>
<path d="M515.391 993.288L528.388 965.739L481.781 961.38L455.666 958.907L448.614 984.913L515.391 993.288Z" fill="#6B304C"/>
<path d="M672.307 954.459L528.388 965.739L515.391 993.288L672.307 982.929V954.459Z" fill="#6B304C"/>
<path d="M677.149 884.416L527.44 887.314L536.548 952.075L702.72 941.056L692.969 919.458L677.149 884.416Z" fill="#6B304C"/>
<path d="M702.72 941.056L536.548 952.075L528.388 965.739L672.307 954.459L702.72 952.075V941.056Z" fill="black"/>
<path d="M667.458 467.223C626.145 454.572 607.585 457.412 576.218 444.303L535.667 420.727L499.958 465.24L561.452 553.395L588.119 545.901L566.337 517.601C563.815 517.048 561.166 516.344 558.367 515.488C567.051 511.914 571.779 509.752 566.337 491.44C555.812 480.921 554.643 474.511 552.857 464.64L542.499 465.24C545.564 455.824 547.763 450.562 552.857 441.217C583.9 459.653 600.311 466.037 628.009 473.221C631.822 473.975 635.627 474.605 638.588 475.598L658.863 480.667L668.119 481.328C695.884 470.717 712.335 464.966 737.541 453.78C740.312 458.805 741.716 461.986 743.492 469.527H727.844C736.723 471.561 739.155 477.3 740.627 482.871C735.999 500.502 732.866 502.059 721.012 502.265C717.153 501.054 711.726 498.754 707.128 496.958C717.834 511.441 724.914 522.394 740.4 549.648C743.689 540.244 746.901 532.346 750.013 524.694L750.014 524.692L750.015 524.691C754.488 513.694 758.754 503.205 762.743 489.482C751.796 469.524 745.516 459.373 735.117 435.487C703.496 448.302 689.484 455.185 667.458 467.223Z" fill="#6C5C5C"/>
<path d="M536.548 952.075L527.44 887.314L447.88 885.249L454.245 945.464L536.548 952.075Z" fill="#6B304C"/>
<path d="M528.388 965.739L536.548 952.075L454.245 945.464L455.666 958.907L481.781 961.38L528.388 965.739Z" fill="black"/>
<path d="M425.688 952.075L415.33 965.739L397.489 987.117C500.504 1032.64 562.716 1042.22 692.969 990.19L711.53 974.114L713.74 916.372L692.969 919.458L702.72 941.056V952.075L672.307 954.459V982.929L515.391 993.288L448.614 984.913L455.666 958.907L454.245 945.464L447.88 885.249L415.771 884.416L410.373 911.945L409.159 918.135C410.836 923.135 412.325 927.304 414.025 931.291C414.564 932.526 415.128 933.78 415.709 935.03C418.16 940.186 421.189 945.381 425.688 952.075Z" fill="#3F2F3D"/>
<path fill-rule="evenodd" clip-rule="evenodd" d="M587.898 754.829L630.874 767.611L642.555 752.184L681.783 776.426C696.44 759.98 707.322 753.517 729.167 744.47C713.86 761.359 706.493 770.436 697.651 785.242C703.954 788.036 707.479 788.181 713.74 787.446L696.647 822.267L687.734 792.515L665.695 815.215L659.304 796.041L642.555 798.465L600.455 780.366C597.025 772.635 592.934 764.631 587.898 754.829Z" fill="#D2CFC9"/>
<path d="M647.183 868.769C673.492 855.876 681.909 846.89 692.969 829.76L696.647 822.267L687.734 792.515L665.695 815.215L659.304 796.041L642.555 798.465L600.455 780.366C605.233 791.137 608.726 801.378 611.7 815.215C618.422 810.161 620.659 806.477 622.058 798.465C628.736 819.972 628.636 832.493 628.469 853.506L628.469 853.547L628.468 853.606L628.468 853.688L628.467 853.809C628.461 854.524 628.455 855.25 628.45 855.986C629.238 855.608 630.002 855.244 630.743 854.891L630.821 854.854L630.824 854.852C639.914 850.524 645.683 847.776 652.692 839.016C649.79 849.502 648.743 856.266 647.183 868.769Z" fill="#C5B5A5"/>
<path fill-rule="evenodd" clip-rule="evenodd" d="M774.34 635.379H770.373C768.44 637.092 767.207 639.748 764.643 648.161C761.701 642.497 760.389 640.951 758.472 640.227C753.227 648.861 753.083 655.753 752.877 665.598L752.876 665.606C752.842 667.266 752.805 669.01 752.742 670.861C722.219 700.583 705.817 718.696 677.149 752.184C646.93 739.181 630.194 730.399 600.455 714.057C599.311 719.476 599.109 723.251 598.802 728.986L598.801 729.008L598.792 729.177L598.751 729.934L598.72 730.501L598.704 730.804L598.692 731.027C565.029 702.071 544.75 685.399 510.156 656.957L510.154 656.955L507.231 654.552L499.958 609.593C493.058 613.23 488.889 614.833 481.005 617.086L481.082 616.108L481.108 615.775C481.923 605.431 482.41 599.24 483.87 595.929C482.157 596.133 480.323 596.399 478.552 596.656C474.69 597.216 471.125 597.733 469.765 597.472C467.781 597.091 492.925 572.395 510.096 565.295C506.057 564.589 502.276 564.059 498.735 563.563C489.881 562.321 482.526 561.289 476.377 558.243C486.373 551.431 498.9 548.058 516.503 543.318L516.523 543.312C518.434 542.798 520.404 542.267 522.438 541.714L521.996 541.125C515.16 531.995 511.195 526.701 473.512 467.223C492.144 443.225 504.653 428.18 520.24 411.758C525.743 405.959 531.63 399.99 538.305 393.393C567.777 404.325 581.535 407.997 596.163 411.902C610.302 415.676 625.253 419.667 655.992 430.639C678.229 422.444 694.108 418.052 724.753 410.363L771.254 451.355C768.595 466.967 765.748 479.143 762.743 489.482C758.754 503.205 754.488 513.694 750.015 524.691L750.014 524.692L750.013 524.694C746.901 532.346 743.689 540.244 740.4 549.648L756.488 586.012V593.725L756.709 597.472L762.225 602.761L770.373 605.186C771.909 603.581 773.404 602.022 774.861 600.504L774.861 600.504L774.862 600.503L774.862 600.502C795.258 579.241 807.985 565.973 818.417 545.901L758.699 594.387V586.012C762.154 577.341 763.992 571.963 766.853 560.227C771.513 563.339 774.387 564.274 780.076 564.194C779.675 563.665 779.276 563.151 778.883 562.651C778.333 561.951 777.794 561.277 777.269 560.621L777.254 560.603L777.251 560.6C771.716 553.686 767.862 548.872 771.701 538.629C780.153 536.881 785.427 535.321 789.773 532.725C791.89 531.46 793.787 529.949 795.724 528.05C794.468 525.577 791.267 524.594 776.55 524.303C776.653 523.86 776.754 523.428 776.852 523.004C778.638 515.344 779.726 510.675 780.076 499.4L793.888 481.328C792.64 477.937 791.635 475.328 790.823 473.221C789.301 469.273 788.458 467.086 787.974 464.824C787.373 462.016 787.323 459.091 787.212 452.536C787.187 451.084 787.16 449.455 787.122 447.609L784.737 445.236C705.251 366.183 654.87 316.076 535.881 278.131C464.254 330.74 433.728 373.278 387.561 460.391C394.341 466.952 398.547 467.729 406.299 467.223L409.942 537.086L411.045 558.243L412.47 585.571L365.087 572.568C357.021 565.459 352.413 561.513 344.15 554.496L321.666 508.876C319.767 511.47 319.435 513.72 321.666 520.777C330.276 537.373 336.337 550.322 348.112 576.315L414.448 602.1L415.771 623.918C407.822 626.792 404.056 629.571 402.107 642.651C398.914 667.268 402.652 709.83 406.672 755.606C411.628 812.032 417.013 873.342 410.373 911.945L415.771 884.416L447.88 885.249L527.44 887.314L677.149 884.416L692.969 919.458L713.74 916.372L711.53 974.114L692.969 990.19C562.716 1042.22 500.504 1032.64 397.489 987.117C395.648 987.402 393.818 987.676 391.998 987.939L356.271 993.288L321.23 1099.29L337.098 1100.34L420.404 1105.81L448.614 1107.67C448.614 1107.67 445.528 1090.04 462.205 1080.12C477.262 1071.17 505.96 1083.2 516.053 1087.44C517.139 1087.89 518.01 1088.26 518.625 1088.49C548.839 1100.23 548.989 1100.23 570.058 1099.66H570.061C575.998 1099.5 583.597 1099.29 593.997 1099.29C601.484 1097.41 609.016 1095.68 616.494 1093.96C647.533 1086.82 677.641 1079.89 699.783 1063.37L759.139 1077.26L761.123 1109.21L792.859 1107.08L867.349 1102.08L885.862 1100.84L874.622 1004.53L780.958 982.929L719.69 969.486V918.135L713.74 849.595L743.712 764.085L771.254 668.216L770.373 654.773L774.34 635.379ZM461.837 709.429L453.39 741.385L447.88 718.465L437.742 773.782L432.233 721.109L422.976 789.429L453.39 854.223L465.143 838.135L487.77 849.235L491.517 843.064L465.143 803.093L461.837 709.429ZM587.898 754.829L630.874 767.611L642.555 752.184L681.783 776.426C696.44 759.98 707.322 753.517 729.167 744.47C713.86 761.359 706.493 770.436 697.651 785.242C703.954 788.036 707.479 788.181 713.74 787.446L696.647 822.267L692.969 829.76C681.909 846.89 673.492 855.876 647.183 868.769C648.743 856.266 649.79 849.502 652.692 839.016C645.683 847.776 639.914 850.524 630.824 854.852L630.821 854.854L630.743 854.891C630.002 855.244 629.238 855.608 628.45 855.986C628.455 855.25 628.461 854.524 628.467 853.809L628.468 853.688L628.468 853.606L628.469 853.547L628.469 853.506C628.636 832.493 628.736 819.972 622.058 798.465C620.659 806.477 618.422 810.161 611.7 815.215C608.726 801.378 605.233 791.137 600.455 780.366C597.025 772.635 592.934 764.631 587.898 754.829Z" fill="#211F27"/>
<path d="M461.837 803.093V709.429L453.39 741.385L447.88 718.465L437.742 773.782L432.233 721.109L422.976 789.429L453.39 854.223L465.143 838.135L487.77 849.235L461.837 803.093Z" fill="#D2CFC9"/>
<path d="M461.837 709.429V803.093L487.77 849.235L491.517 843.064L465.143 803.093L461.837 709.429Z" fill="#D2CFC9"/>
<path d="M787.122 447.609L784.737 445.236M787.122 447.609C786.324 446.815 785.529 446.024 784.737 445.236M787.122 447.609C787.16 449.455 787.187 451.084 787.212 452.536C787.323 459.091 787.373 462.016 787.974 464.824C788.458 467.086 789.301 469.273 790.823 473.221C791.635 475.328 792.64 477.937 793.888 481.328M793.888 481.328L811.96 464.578C817.258 485.398 818.768 529.237 818.417 545.901M793.888 481.328L780.076 499.4C779.726 510.675 778.638 515.344 776.852 523.004C776.754 523.428 776.653 523.86 776.55 524.303C791.267 524.594 794.468 525.577 795.724 528.05C793.787 529.949 791.89 531.46 789.773 532.725M818.417 545.901L758.699 594.387V586.012C762.154 577.341 763.992 571.963 766.853 560.227C771.513 563.339 774.387 564.274 780.076 564.194C779.675 563.665 779.276 563.151 778.883 562.651M818.417 545.901C807.985 565.973 795.257 579.241 774.862 600.502L774.861 600.503L774.861 600.504L774.861 600.504C773.404 602.022 771.909 603.581 770.373 605.186M770.373 605.186C773.997 616.232 775.959 622.451 774.34 635.379M770.373 605.186L762.225 602.761M774.34 635.379H770.373C768.44 637.092 767.207 639.748 764.643 648.161C761.701 642.497 760.389 640.951 758.472 640.227C753.227 648.861 753.083 655.753 752.877 665.598M774.34 635.379L770.373 654.773L771.254 668.216L743.712 764.085L713.74 849.595L719.69 918.135V969.486L780.958 982.929L874.622 1004.53L885.862 1100.84L867.35 1102.08M598.692 731.027C565.029 702.071 544.75 685.399 510.156 656.957M598.692 731.027L598.704 730.804M598.692 731.027C598.696 730.952 598.7 730.878 598.704 730.804M507.231 654.552L499.958 609.593C493.058 613.23 488.889 614.833 481.005 617.086M507.231 654.552L510.154 656.955M507.231 654.552C508.217 655.363 509.191 656.164 510.154 656.955M481.005 617.086L481.082 616.108M481.005 617.086C481.031 616.756 481.057 616.43 481.082 616.108M483.87 595.929L499.958 593.725L501.507 595.268H511.424C517.756 623.158 521.41 636.865 528.394 652.348L531.039 622.596C540.741 636.939 546.094 644.996 557.926 658.96C562.436 657.046 564.272 655.359 566.301 651.246C568.216 665.602 570.449 673.87 577.32 689.153C577.746 678.984 576.866 672.19 572.692 657.417C587.796 675.78 596.771 685.469 615.667 699.291C615.193 686.775 614.629 679.744 611.7 667.114C627.824 684.113 635.623 694.061 649.387 711.853L652.692 692.459L681.783 730.586C691.579 719.594 696.939 713.52 701.618 705.903C705.059 705.874 706.989 705.443 710.434 703.919C716.598 697.161 719.4 691.149 723.877 678.575C725.156 663.68 726.163 655.629 732.913 646.398C733.708 652.915 734.034 657.413 734.236 668.216C742.26 656.848 748.146 654.211 748.561 622.376L764.643 627.885C764.65 619.456 763.905 613.645 762.225 602.761M483.87 595.929C482.157 596.133 480.323 596.399 478.552 596.656C474.69 597.216 471.125 597.733 469.765 597.472C467.781 597.091 492.925 572.394 510.096 565.295C506.057 564.589 502.276 564.059 498.735 563.563C489.881 562.321 482.526 561.289 476.377 558.243C486.373 551.431 498.9 548.058 516.503 543.318M483.87 595.929C482.41 599.24 481.923 605.431 481.108 615.775M522.438 541.714L521.996 541.125M522.438 541.714C522.289 541.516 522.142 541.319 521.996 541.125M522.438 541.714C535.479 570.319 543.256 582.644 556.71 603.966L556.71 603.967M522.438 541.714C520.404 542.267 518.434 542.798 516.523 543.312M740.4 549.648L756.488 586.012V593.725M740.4 549.648C724.914 522.394 717.834 511.441 707.128 496.958M740.4 549.648C743.689 540.244 746.901 532.346 750.013 524.694L750.014 524.692L750.015 524.691C754.488 513.694 758.754 503.205 762.743 489.482M756.488 593.725C656.667 583.984 612.211 585.936 557.479 605.186M756.488 593.725L756.709 597.472M756.488 593.725C740.951 584.982 731.268 580.243 686.632 576.315C684.762 562.171 683.392 554.136 686.632 541.714M557.479 605.186C629.322 596.613 675.815 597.603 756.709 597.472M557.479 605.186L556.71 603.967M557.479 605.186C557.221 604.776 556.964 604.37 556.71 603.967M756.709 597.472L762.225 602.761M387.561 460.391C433.728 373.278 464.254 330.74 535.881 278.131C654.87 316.076 705.251 366.183 784.737 445.236M387.561 460.391L347.892 436.369C319.786 468.917 311.575 485.377 321.666 508.876M387.561 460.391C394.341 466.952 398.547 467.729 406.299 467.223L409.942 537.086M387.561 460.391L348.112 495.873L354.949 506.011L367.732 537.086L387.561 556.26M321.666 508.876C319.767 511.47 319.435 513.72 321.666 520.777C330.276 537.373 336.337 550.322 348.112 576.315L414.448 602.1L415.771 623.918C407.822 626.792 404.056 629.571 402.107 642.651C398.914 667.268 402.652 709.83 406.672 755.606C411.628 812.032 417.013 873.342 410.373 911.945M321.666 508.876L344.15 554.496C352.413 561.513 357.021 565.459 365.087 572.568L412.47 585.571L411.045 558.243M409.159 918.135C410.836 923.135 412.325 927.304 414.025 931.291M409.159 918.135C409.842 920.986 411.699 925.964 414.025 931.291M409.159 918.135L410.373 911.945M409.159 918.135C409.602 916.144 410.006 914.079 410.373 911.945M425.688 952.075L415.33 965.739M425.688 952.075C421.189 945.381 418.16 940.186 415.709 935.03M425.688 952.075C422.94 949.324 419.053 942.232 415.709 935.03M415.33 965.739C335.114 958.907 218.881 985.879 248.717 846.95C278.553 708.022 89.162 690.035 78.1379 697.528C67.1138 705.021 63.8172 719.346 78.1379 727.941C92.4586 736.536 243.874 721.109 220.287 846.95C197.052 970.918 271.564 1005.29 391.998 987.939M415.33 965.739L397.489 987.117M397.489 987.117C500.504 1032.64 562.716 1042.22 692.969 990.19L711.53 974.114L713.74 916.372L692.969 919.458M397.489 987.117C395.648 987.402 393.818 987.676 391.998 987.939M397.489 987.117L391.998 987.939M461.837 709.429V803.093L487.77 849.235M461.837 709.429L465.143 803.093L491.517 843.064L487.77 849.235M461.837 709.429L453.39 741.385L447.88 718.465L437.742 773.782L432.233 721.109L422.976 789.429L453.39 854.223L465.143 838.135L487.77 849.235M527.44 887.314L677.149 884.416L692.969 919.458M527.44 887.314L536.548 952.075M527.44 887.314L447.88 885.249M702.72 941.056L536.548 952.075M702.72 941.056V952.075L672.307 954.459M702.72 941.056L692.969 919.458M536.548 952.075L528.388 965.739M536.548 952.075L454.245 945.463M528.388 965.739L672.307 954.459M528.388 965.739L515.391 993.288M528.388 965.739L481.781 961.38L455.666 958.907M672.307 954.459V982.929L515.391 993.288M515.391 993.288L448.614 984.913L455.666 958.907M455.666 958.907L454.245 945.463M792.859 1107.08L761.123 1109.21L759.139 1077.26L699.783 1063.37C677.641 1079.89 647.533 1086.82 616.494 1093.96C609.016 1095.68 601.484 1097.41 593.997 1099.29C583.597 1099.29 575.998 1099.5 570.061 1099.66M792.859 1107.08L789.994 1175.99L955.212 1179.96C927.365 1151.83 911.536 1137.54 867.35 1130.81V1102.08M792.859 1107.08L867.35 1102.08M337.098 1100.34L321.23 1099.29L356.271 993.288L391.998 987.939M337.098 1100.34L332.249 1129.27C303.257 1142.96 289.155 1155.03 265.472 1179.51H403.214V1155.27L420.404 1105.81M337.098 1100.34L420.404 1105.81M420.404 1105.81L448.614 1107.67C448.614 1107.67 445.528 1090.04 462.205 1080.12C477.262 1071.17 505.96 1083.2 516.053 1087.44C517.139 1087.89 518.01 1088.26 518.625 1088.49C548.839 1100.23 548.989 1100.23 570.058 1099.66M600.455 780.366C605.233 791.137 608.726 801.378 611.7 815.215C618.422 810.161 620.659 806.477 622.058 798.465C628.736 819.972 628.636 832.493 628.469 853.506M600.455 780.366C597.025 772.635 592.934 764.631 587.898 754.829L630.874 767.611L642.555 752.184L681.783 776.426C696.44 759.98 707.322 753.517 729.167 744.47C713.86 761.359 706.493 770.436 697.651 785.242C703.954 788.036 707.479 788.181 713.74 787.446L696.647 822.267M600.455 780.366L642.555 798.465L659.304 796.041L665.695 815.215L687.734 792.515L696.647 822.267M696.647 822.267L692.969 829.76C681.909 846.89 673.492 855.876 647.183 868.769C648.743 856.266 649.79 849.502 652.692 839.016C645.683 847.776 639.914 850.524 630.824 854.852M520.24 411.758C504.653 428.18 492.144 443.225 473.512 467.223C511.195 526.701 515.16 531.995 521.996 541.125M520.24 411.758C525.743 405.959 531.63 399.99 538.305 393.393C567.777 404.325 581.535 407.997 596.163 411.902C610.302 415.676 625.253 419.667 655.992 430.639C678.229 422.444 694.108 418.052 724.753 410.363L771.254 451.355C768.595 466.967 765.748 479.143 762.743 489.482M520.24 411.758L535.667 420.727M762.743 489.482C751.796 469.524 745.516 459.373 735.117 435.487C703.496 448.302 689.484 455.185 667.458 467.223C626.145 454.572 607.585 457.412 576.218 444.303L535.667 420.727M535.667 420.727L499.958 465.24L561.452 553.395L588.119 545.901M588.119 545.901L616.108 578.298H678.698C679.707 564.481 680.507 556.844 678.698 541.714M588.119 545.901L566.337 517.601M678.698 541.714H669.442C670.178 539.373 670.816 537.199 671.371 535.102M678.698 541.714H686.632M686.632 541.714H694.566C686.315 535.826 683.485 527.709 680.902 506.672H674.951C674.53 519.069 673.668 526.42 671.371 535.102M671.371 535.102C660.321 525.237 652.001 519.612 655.992 510.419C659.295 506.956 661.163 505.691 664.593 507.995C674.595 516.833 673.136 523.468 671.371 535.102ZM638.588 475.598L658.863 480.667M638.588 475.598C635.627 474.605 631.822 473.975 628.009 473.221M638.588 475.598C635.015 474.707 631.277 474.069 628.009 473.221M552.857 464.64L569.166 463.697C578.405 466.287 591.03 467.854 603.571 469.411L603.572 469.411C612.773 470.554 620.27 471.69 628.009 473.221M552.857 464.64L542.499 465.24C545.564 455.824 547.763 450.562 552.857 441.217C583.9 459.653 600.311 466.037 628.009 473.221M552.857 464.64C554.643 474.511 555.812 480.921 566.337 491.44M576.218 500.281C584.318 509.209 595.384 509.272 622.058 498.358M576.218 500.281C572.845 497.144 569.257 494.249 566.301 491.318C566.313 491.359 566.325 491.399 566.337 491.44M576.218 500.281C572.226 496.993 568.985 494.087 566.337 491.44M658.863 480.667L668.119 481.328M658.863 480.667L632.761 493.238M622.058 498.358L628.009 497.416M622.058 498.358C622.015 498.394 621.971 498.43 621.928 498.467M668.119 481.328C686.933 488.709 698.334 493.524 707.128 496.958M668.119 481.328C695.884 470.717 712.335 464.966 737.541 453.78C740.312 458.805 741.716 461.986 743.492 469.527H727.844M668.119 481.328C691.434 475.097 704.504 471.674 727.844 469.527M740.627 482.871C735.999 500.502 732.866 502.059 721.012 502.265M740.627 482.871C736.88 479.565 732.657 474.796 725.42 474.716C716.978 476.99 714.151 479.061 711.536 483.752C709.051 497.432 715.119 498.781 721.012 502.265M740.627 482.871C739.155 477.3 736.723 471.561 727.844 469.527M721.012 502.265C717.153 501.054 711.726 498.754 707.128 496.958M510.154 656.955L510.156 656.957M510.154 656.955C510.154 656.956 510.155 656.956 510.156 656.957M789.773 532.725C785.427 535.321 780.153 536.881 771.701 538.629C767.862 548.872 771.716 553.686 777.251 560.6M789.773 532.725C786.024 559.99 783.492 562.098 778.883 562.651M778.883 562.651C778.333 561.951 777.794 561.277 777.269 560.621M632.761 493.238C635.291 483.625 635.545 477.6 618.802 474.432C614.807 473.377 611.287 473.023 608.394 473.221C604.521 473.487 600.4 480.537 599.138 482.43C597.298 485.191 607.553 498.944 621.928 498.467M632.761 493.238L630.808 494.955M632.761 493.238C632.355 493.429 631.607 494.157 630.808 494.955M628.009 497.416C628.55 497.246 629.725 496.037 630.808 494.955M628.009 497.416C625.919 498.073 623.885 498.402 621.928 498.467M628.009 497.416L630.808 494.955M566.337 491.44C571.779 509.752 567.051 511.914 558.367 515.488C561.166 516.344 563.815 517.048 566.337 517.601M566.337 517.601C589.024 522.577 601.483 515.418 621.928 498.467M409.942 537.086L387.561 508.876L371.478 506.011L380.734 514.166C387.898 529.779 392.477 538.021 402.107 551.631L387.561 556.26M409.942 537.086L411.045 558.243M411.045 558.243C403.299 558.117 398.389 559.803 389.55 563.092L387.561 556.26M777.251 560.6L777.254 560.603M777.251 560.6C777.252 560.601 777.253 560.602 777.254 560.603M516.503 543.318L516.523 543.312M516.503 543.318C516.51 543.316 516.516 543.314 516.523 543.312M481.108 615.775L481.082 616.108M481.108 615.775C481.1 615.886 481.091 615.997 481.082 616.108M598.802 728.986C599.109 723.251 599.311 719.476 600.455 714.057C630.194 730.399 646.93 739.181 677.149 752.184C705.817 718.696 722.219 700.583 752.742 670.861C752.805 669.01 752.842 667.266 752.876 665.606M598.802 728.986L598.801 729.008M598.802 728.986C598.802 728.993 598.801 729.001 598.801 729.008M752.877 665.598L752.876 665.606M752.877 665.598C752.876 665.6 752.876 665.603 752.876 665.606M628.469 853.506L628.469 853.547M628.469 853.506C628.469 853.519 628.469 853.533 628.469 853.547M630.824 854.852L630.821 854.854M630.824 854.852C630.823 854.853 630.822 854.853 630.821 854.854M598.801 729.008L598.792 729.177M598.801 729.008C598.798 729.064 598.795 729.121 598.792 729.177M777.254 560.603L777.269 560.621M777.254 560.603C777.259 560.609 777.264 560.615 777.269 560.621M630.821 854.854L630.743 854.891M630.821 854.854C630.795 854.866 630.769 854.878 630.743 854.891M628.469 853.547L628.468 853.606M628.469 853.547C628.469 853.566 628.468 853.586 628.468 853.606M598.751 729.934L598.792 729.177M598.751 729.934L598.72 730.501M598.751 729.934C598.741 730.121 598.731 730.31 598.72 730.501M598.751 729.934C598.765 729.678 598.778 729.426 598.792 729.177M628.468 853.606L628.468 853.688M628.468 853.606C628.468 853.633 628.468 853.661 628.468 853.688M630.743 854.891C630.002 855.244 629.238 855.608 628.45 855.986C628.455 855.25 628.461 854.524 628.467 853.809M414.025 931.291C414.564 932.526 415.128 933.78 415.709 935.03M414.025 931.291C414.561 932.548 415.118 933.788 415.709 935.03M447.88 885.249L415.771 884.416L410.373 911.945M447.88 885.249L454.245 945.463M598.72 730.501L598.704 730.804M598.72 730.501C598.715 730.601 598.709 730.702 598.704 730.804M628.468 853.688L628.467 853.809M628.468 853.688C628.467 853.728 628.467 853.768 628.467 853.809M570.058 1099.66H570.061M570.058 1099.66C570.059 1099.66 570.06 1099.66 570.061 1099.66M688.287 535.102C693.684 528.27 698.753 523.422 699.414 518.133C698.887 509.759 696.688 505.313 690.158 507.995C683.628 510.677 681.783 521.302 688.287 535.102Z" stroke="black" stroke-width="0.440775"/>
<path d="M500.363 898.624C481.98 864.369 471.148 844.755 460.913 803.754C458.758 763.701 461.728 747.344 464.66 714.276L414.852 623.697C405.037 628.278 402.272 633.519 400.748 646.177C378.746 714.763 349.618 815.434 350.72 828.878C351.822 842.321 389.259 893.85 410.665 926.115L500.363 898.624Z" fill="#211F27"/>
<path d="M526.148 934.664L512.925 894.774L500.363 898.624L410.665 926.115L400.748 929.154L414.852 967.722L424.77 964.776L514.468 938.133L526.148 934.664Z" fill="#401945"/>
<path d="M424.77 964.776C433.544 991.82 439.07 1007.02 454.081 1034.5L480.087 1027.89L464.66 983.81L467.525 982.708L483.173 1026.57L508.737 1018.41L491.768 974.995L494.412 973.672L511.603 1017.31L539.371 1008.71C534.162 991.639 531.175 982.128 523.063 967.722C527.66 972.791 535.815 980.504 547.495 985.573L554.327 972.35C548.597 960.89 534.797 942.928 514.468 938.133L424.77 964.776Z" fill="#401945"/>
<path d="M464.66 983.81L480.087 1027.89L483.173 1026.57L467.525 982.708L464.66 983.81Z" fill="black"/>
<path d="M491.768 974.995L508.737 1018.41L511.603 1017.31L494.412 973.672L491.768 974.995Z" fill="black"/>
<path d="M500.363 898.624L512.925 894.774L526.148 934.664L514.468 938.133M500.363 898.624C481.98 864.369 471.148 844.755 460.913 803.754C458.758 763.701 461.728 747.344 464.66 714.276L414.852 623.697C405.037 628.278 402.272 633.519 400.748 646.177C378.746 714.763 349.618 815.434 350.72 828.878C351.822 842.321 389.259 893.85 410.665 926.115M500.363 898.624L410.665 926.115M410.665 926.115L400.748 929.154L414.852 967.722L424.77 964.776M424.77 964.776C433.544 991.82 439.07 1007.02 454.081 1034.5L480.087 1027.89M424.77 964.776L514.468 938.133M480.087 1027.89L464.66 983.81L467.525 982.708L483.173 1026.57M480.087 1027.89L483.173 1026.57M483.173 1026.57L508.737 1018.41M508.737 1018.41L491.768 974.995L494.412 973.672L511.603 1017.31M508.737 1018.41L511.603 1017.31M511.603 1017.31L539.371 1008.71C534.162 991.639 531.175 982.128 523.063 967.722C527.66 972.791 535.815 980.504 547.495 985.573L554.327 972.35C548.597 960.89 534.797 942.928 514.468 938.133" stroke="black" stroke-width="0.440775"/>
<path d="M699.125 841.098L714.094 838.866L712.333 829.184L699.327 827.133L691.778 837.079L695.617 842.013L676.79 883.637L677.829 936.477C680.497 953.361 681.733 962.714 690.653 982.315C712.942 1007.19 724.807 1020.27 729.647 1021.26L695.446 979.037C686.041 959.747 684.534 951.154 680.565 935.072L679.972 884.43L699.125 841.098Z" fill="#3E3030"/>
<path d="M737.845 1037.82C739.639 1032.1 749.029 1024.68 752.55 1025.88C752.783 1023.77 753.468 1022.78 755.588 1021.27C753.104 1019.52 750.892 1018.01 748.989 1016.64C741.011 1011.88 739.064 1009.48 737.473 1005.42L734.41 1006.94L738.789 1014.1C735.018 1015.79 733.049 1017.53 729.647 1021.26C728.567 1024.02 727.831 1025.03 726.493 1026.74C730.97 1030.63 733.437 1033.05 737.845 1037.82Z" fill="#3E3030"/>
<path d="M714.094 838.866L699.125 841.098L679.972 884.43L680.565 935.072C684.534 951.154 686.041 959.747 695.446 979.037L729.647 1021.26C733.049 1017.53 735.018 1015.79 738.789 1014.1L734.41 1006.94L737.473 1005.42C713.832 955.82 698.172 929.599 715.67 852.877L713.466 845.37L704.394 851.059C698.481 873.02 695.824 886.704 692.083 913.194C691.774 871.893 691.92 849.191 714.949 841.019L714.094 838.866Z" fill="#E7A220"/>
<path d="M716.48 913.81C715.535 886.462 716.112 873.176 721.544 857.621L714.949 841.019C691.92 849.191 691.774 871.893 692.083 913.194C695.824 886.704 698.481 873.02 704.394 851.059L713.466 845.37L715.67 852.877C698.172 929.599 713.832 955.82 737.473 1005.42C739.064 1009.48 741.011 1011.88 748.989 1016.64C745.505 1014.14 743.057 1012.13 741.874 1010.09L731.743 969.401L724.711 946.973L716.48 913.81Z" fill="#F4C63F"/>
<path d="M714.094 838.866L699.125 841.098L679.972 884.43L680.565 935.072C684.534 951.154 686.041 959.747 695.446 979.037L729.647 1021.26M714.094 838.866L712.333 829.184L699.327 827.133L691.778 837.079L695.617 842.013L676.79 883.637L677.829 936.477C680.497 953.361 681.733 962.714 690.653 982.315C712.942 1007.19 724.807 1020.27 729.647 1021.26M714.094 838.866L714.949 841.019M729.647 1021.26C728.567 1024.02 727.831 1025.03 726.493 1026.74C730.97 1030.63 733.437 1033.05 737.845 1037.82C739.639 1032.1 749.029 1024.68 752.55 1025.88C752.783 1023.77 753.468 1022.78 755.588 1021.27C753.104 1019.52 750.892 1018.01 748.989 1016.64M729.647 1021.26C733.049 1017.53 735.018 1015.79 738.789 1014.1L734.41 1006.94L737.473 1005.42M714.949 841.019L721.544 857.621C716.112 873.176 715.535 886.462 716.48 913.81L724.711 946.973L731.743 969.401L741.874 1010.09C743.057 1012.13 745.505 1014.14 748.989 1016.64M714.949 841.019C691.92 849.191 691.774 871.893 692.083 913.194C695.824 886.704 698.481 873.02 704.394 851.059L713.466 845.37L715.67 852.877C698.172 929.599 713.832 955.82 737.473 1005.42M737.473 1005.42C739.064 1009.48 741.011 1011.88 748.989 1016.64" stroke="black" stroke-width="0.192887"/>
<path d="M660.849 847.051L675.818 844.82L674.058 835.137L661.051 833.087L653.502 843.033L657.341 847.966L638.515 889.59L639.554 942.43C642.222 959.314 643.458 968.667 652.378 988.268C674.666 1013.14 686.531 1026.23 691.372 1027.21L657.171 984.99C647.766 965.7 646.259 957.107 642.29 941.025L641.696 890.383L660.849 847.051Z" fill="#3E3030"/>
<path d="M699.569 1043.77C701.364 1038.05 710.754 1030.64 714.275 1031.83C714.508 1029.73 715.192 1028.73 717.312 1027.22C714.829 1025.47 712.617 1023.96 710.714 1022.59C702.736 1017.83 700.789 1015.44 699.198 1011.37L696.134 1012.89L700.513 1020.05C696.743 1021.75 694.773 1023.48 691.372 1027.21C690.292 1029.98 689.555 1030.99 688.217 1032.69C692.695 1036.58 695.162 1039.01 699.569 1043.77Z" fill="#3E3030"/>
<path d="M675.818 844.82L660.849 847.051L641.696 890.383L642.29 941.025C646.259 957.107 647.766 965.7 657.171 984.99L691.372 1027.21C694.773 1023.48 696.743 1021.75 700.513 1020.05L696.134 1012.89L699.198 1011.37C675.556 961.774 659.896 935.552 677.394 858.83L675.191 851.323L666.119 857.012C660.206 878.973 657.549 892.658 653.808 919.147C653.499 877.846 653.644 855.144 676.673 846.972L675.818 844.82Z" fill="#E7A220"/>
<path d="M678.205 919.763C677.26 892.415 677.837 879.129 683.269 863.574L676.673 846.972C653.644 855.144 653.499 877.846 653.808 919.147C657.549 892.658 660.206 878.973 666.119 857.012L675.191 851.323L677.394 858.83C659.896 935.552 675.556 961.774 699.198 1011.37C700.789 1015.44 702.736 1017.83 710.714 1022.59C707.23 1020.09 704.782 1018.08 703.598 1016.05L693.468 975.354L686.436 952.926L678.205 919.763Z" fill="#F4C63F"/>
<path d="M675.818 844.82L660.849 847.051L641.696 890.383L642.29 941.025C646.259 957.107 647.766 965.7 657.171 984.99L691.372 1027.21M675.818 844.82L674.058 835.137L661.051 833.087L653.502 843.033L657.341 847.966L638.515 889.59L639.554 942.43C642.222 959.314 643.458 968.667 652.378 988.268C674.666 1013.14 686.531 1026.23 691.372 1027.21M675.818 844.82L676.673 846.972M691.372 1027.21C690.292 1029.98 689.555 1030.99 688.217 1032.69C692.695 1036.58 695.162 1039.01 699.569 1043.77C701.364 1038.05 710.754 1030.64 714.275 1031.83C714.508 1029.73 715.192 1028.73 717.312 1027.22C714.829 1025.47 712.617 1023.96 710.714 1022.59M691.372 1027.21C694.773 1023.48 696.743 1021.75 700.513 1020.05L696.134 1012.89L699.198 1011.37M676.673 846.972L683.269 863.574C677.837 879.129 677.26 892.415 678.205 919.763L686.436 952.926L693.468 975.354L703.598 1016.05C704.782 1018.08 707.23 1020.09 710.714 1022.59M676.673 846.972C653.644 855.144 653.499 877.846 653.808 919.147C657.549 892.658 660.206 878.973 666.119 857.012L675.191 851.323L677.394 858.83C659.896 935.552 675.556 961.774 699.198 1011.37M699.198 1011.37C700.789 1015.44 702.736 1017.83 710.714 1022.59" stroke="black" stroke-width="0.192887"/>
<path d="M622.062 852.34L637.031 850.109L635.271 840.426L622.264 838.376L614.715 848.322L618.554 853.255L599.727 894.879L600.767 947.719C603.435 964.603 604.671 973.956 613.591 993.557C635.879 1018.43 647.744 1031.52 652.585 1032.5L618.384 990.279C608.978 970.989 607.472 962.397 603.503 946.314L602.909 895.673L622.062 852.34Z" fill="#3E3030"/>
<path d="M660.782 1049.06C662.577 1043.34 671.967 1035.93 675.487 1037.12C675.721 1035.02 676.405 1034.02 678.525 1032.51C676.042 1030.76 673.829 1029.25 671.926 1027.88C663.949 1023.12 662.002 1020.73 660.411 1016.66L657.347 1018.18L661.726 1025.34C657.956 1027.04 655.986 1028.77 652.585 1032.5C651.505 1035.26 650.768 1036.27 649.43 1037.98C653.907 1041.87 656.375 1044.29 660.782 1049.06Z" fill="#3E3030"/>
<path d="M637.031 850.109L622.062 852.34L602.909 895.673L603.503 946.314C607.472 962.397 608.978 970.989 618.384 990.279L652.585 1032.5C655.986 1028.77 657.956 1027.04 661.726 1025.34L657.347 1018.18L660.411 1016.66C636.769 967.063 621.109 940.842 638.607 864.119L636.404 856.612L627.332 862.301C621.418 884.262 618.761 897.947 615.021 924.436C614.712 883.135 614.857 860.433 637.886 852.261L637.031 850.109Z" fill="#E7A220"/>
<path d="M639.418 925.052C638.472 897.704 639.05 884.418 644.481 868.864L637.886 852.261C614.857 860.433 614.712 883.135 615.021 924.436C618.761 897.947 621.418 884.262 627.332 862.301L636.404 856.612L638.607 864.119C621.109 940.842 636.769 967.063 660.411 1016.66C662.002 1020.73 663.949 1023.12 671.926 1027.88C668.443 1025.38 665.994 1023.37 664.811 1021.34L654.68 980.643L647.649 958.215L639.418 925.052Z" fill="#F4C63F"/>
<path d="M637.031 850.109L622.062 852.34L602.909 895.673L603.503 946.314C607.472 962.397 608.978 970.989 618.384 990.279L652.585 1032.5M637.031 850.109L635.271 840.426L622.264 838.376L614.715 848.322L618.554 853.255L599.727 894.879L600.767 947.719C603.435 964.603 604.671 973.956 613.591 993.557C635.879 1018.43 647.744 1031.52 652.585 1032.5M637.031 850.109L637.886 852.261M652.585 1032.5C651.505 1035.26 650.768 1036.27 649.43 1037.98C653.907 1041.87 656.375 1044.29 660.782 1049.06C662.577 1043.34 671.967 1035.93 675.487 1037.12C675.721 1035.02 676.405 1034.02 678.525 1032.51C676.042 1030.76 673.829 1029.25 671.926 1027.88M652.585 1032.5C655.986 1028.77 657.956 1027.04 661.726 1025.34L657.347 1018.18L660.411 1016.66M637.886 852.261L644.481 868.864C639.05 884.418 638.472 897.704 639.418 925.052L647.649 958.215L654.68 980.643L664.811 1021.34C665.994 1023.37 668.443 1025.38 671.926 1027.88M637.886 852.261C614.857 860.433 614.712 883.135 615.021 924.436C618.761 897.947 621.418 884.262 627.332 862.301L636.404 856.612L638.607 864.119C621.109 940.842 636.769 967.063 660.411 1016.66M660.411 1016.66C662.002 1020.73 663.949 1023.12 671.926 1027.88" stroke="black" stroke-width="0.192887"/>
<path d="M932.466 999.152L920.624 1016.05L931.853 1023.4L946.088 1012.46L943.337 995.657L934.854 994.824L911.355 937.135L858.119 888.569C838.915 875.36 828.505 867.805 800.746 858.229C755.223 856.926 731.147 856.383 725.628 860.244L799.489 866.047C827.396 874.849 837.308 881.424 856.941 892.594L907.585 939.537L932.466 999.152Z" fill="#3E3030"/>
<path d="M701.56 852.813C705.532 859.956 704.05 876.2 699.566 878.563C701.427 880.768 701.772 882.381 701.274 885.894C705.332 885.076 708.906 884.31 712.044 883.711C724.241 880.289 728.436 880.61 733.95 882.852L735.32 878.393L724.134 876.009C725.992 870.685 726.123 867.107 725.628 860.244C723.91 856.583 723.602 854.907 723.173 851.985C715.12 852.759 710.408 852.925 701.56 852.813Z" fill="#3E3030"/>
<path d="M920.624 1016.05L932.466 999.152L907.585 939.537L856.941 892.594C837.308 881.424 827.396 874.849 799.489 866.047L725.628 860.244C726.123 867.107 725.992 870.685 724.134 876.009L735.32 878.393L733.95 882.852C805.196 906.022 845.828 915.144 905.287 1004.46L914.781 1009.33L917.668 995.014C901.498 968.554 890.457 953.082 867.769 924.52C908.907 962.978 931.224 984.43 917.693 1014.88L920.624 1016.05Z" fill="#E7A220"/>
<path d="M844.261 948.072C872.196 972.805 884.795 985.845 895.081 1005.82L917.693 1014.88C931.224 984.43 908.907 962.978 867.769 924.52C890.457 953.082 901.498 968.554 917.668 995.014L914.781 1009.33L905.287 1004.46C845.828 915.144 805.196 906.022 733.95 882.852C728.436 880.61 724.241 880.289 712.044 883.711C717.789 882.614 722.074 882.078 725.196 882.816L774.953 910.991L803.735 925.086L844.261 948.072Z" fill="#F4C63F"/>
<path d="M920.624 1016.05L932.466 999.152L907.585 939.537L856.941 892.594C837.308 881.424 827.396 874.849 799.489 866.047L725.628 860.244M920.624 1016.05L931.853 1023.4L946.088 1012.46L943.337 995.657L934.854 994.824L911.355 937.135L858.119 888.569C838.915 875.36 828.505 867.805 800.746 858.229C755.223 856.926 731.147 856.383 725.628 860.244M920.624 1016.05L917.693 1014.88M725.628 860.244C723.91 856.583 723.602 854.907 723.173 851.985C715.12 852.759 710.408 852.925 701.56 852.813C705.532 859.956 704.05 876.2 699.566 878.563C701.427 880.768 701.772 882.381 701.274 885.894C705.332 885.076 708.906 884.31 712.044 883.711M725.628 860.244C726.123 867.107 725.992 870.685 724.134 876.009L735.32 878.394L733.95 882.852M917.693 1014.88L895.081 1005.82C884.795 985.845 872.196 972.805 844.261 948.071L803.735 925.086L774.953 910.991L725.196 882.816C722.074 882.078 717.789 882.614 712.044 883.711M917.693 1014.88C931.224 984.43 908.907 962.978 867.769 924.52C890.457 953.082 901.498 968.554 917.668 995.014L914.781 1009.33L905.287 1004.46C845.828 915.144 805.196 906.022 733.95 882.852M733.95 882.852C728.436 880.61 724.241 880.289 712.044 883.711" stroke="black" stroke-width="0.263004"/>
<path d="M818.751 828.901L813.639 856.923L819.572 858.995L887.637 881.899L898.212 885.12L906.217 855.428L818.751 828.901Z" fill="#461B46"/>
<path d="M804.618 952.824L824.82 959.034L832.728 901.779L814.041 900.845L804.618 952.824Z" fill="#461B49"/>
<path d="M781.531 940.997L800.914 949.185L810.652 906.401L812.242 893.952L796.496 896.729L789.366 917.822L781.531 940.997Z" fill="#461B49"/>
<path d="M847.746 887.692L860.515 908.985L861.588 910.775L862.508 938.324L864.026 936.735L863.474 910.442L847.746 887.692Z" fill="black"/>
<path fill-rule="evenodd" clip-rule="evenodd" d="M834.164 909.922L832.728 901.779L824.82 959.034L834.164 909.922ZM814.041 900.845L810.652 906.401L800.914 949.185L804.618 952.824L814.041 900.845Z" fill="black"/>
<path d="M845.747 904.431L845.31 910.269L856.87 910.628L845.747 904.431Z" fill="#461B49"/>
<path d="M796.496 896.729L812.242 893.952L810.652 906.401L814.041 900.845L832.728 901.779L834.164 909.922L845.31 910.269L845.747 904.431L856.87 910.628L861.588 910.775L860.515 908.985L857.509 909.515L843.808 902.166L843.757 908.447L834.562 907.581L834.07 899L815.315 898.515L813.338 893.093L796.793 895.427L796.496 896.729Z" fill="black"/>
<path d="M796.496 896.729L796.793 895.427L795.133 895.719L787.849 917.277L789.366 917.822L796.496 896.729Z" fill="black"/>
<path fill-rule="evenodd" clip-rule="evenodd" d="M887.637 881.899L885.518 889.041L883.824 898.076L887.132 912.542L885.875 913.858L864.026 936.735L863.474 910.442L847.746 887.692L817.542 864.975L819.572 858.995L887.637 881.899ZM845.31 910.269L834.164 909.922L827.877 959.829L833.839 961.381L861.689 966.763L861.764 964.152L862.508 938.324L861.588 910.775L856.87 910.628L845.31 910.269Z" fill="#461B49"/>
<path d="M834.164 909.922L824.82 959.034L827.877 959.829L834.164 909.922Z" fill="black"/>
<path d="M864.026 936.735L862.508 938.324L861.764 964.152L863.006 965.201L864.736 938.139L865.042 937.864L887.468 915.299L885.875 913.858L864.026 936.735Z" fill="black"/>
<path fill-rule="evenodd" clip-rule="evenodd" d="M1617.04 317.021C1657.37 439.267 1645.43 508.949 1571.48 562.841L1616.46 578.975C1653.72 523.751 1658.24 486.17 1655.81 414.892C1642.56 358.472 1617.36 317.538 1617.04 317.021Z" fill="#F4C63F"/>
<path d="M1636.09 586.02C1669.97 528.509 1667.7 465.477 1655.81 414.892C1658.24 486.17 1653.72 523.751 1616.46 578.975L1636.09 586.02Z" fill="#3E3030"/>
<path d="M1617.04 317.017C1617.04 317.018 1617.04 317.02 1617.04 317.021M1617.04 317.017C1617.04 317.017 1617.04 317.018 1617.04 317.021M1617.04 317.021C1657.37 439.267 1645.43 508.949 1571.48 562.841L1616.46 578.975M1617.04 317.021C1617.36 317.538 1642.56 358.472 1655.81 414.892M1655.81 414.892C1667.7 465.477 1669.97 528.509 1636.09 586.02L1616.46 578.975M1655.81 414.892C1658.24 486.17 1653.72 523.751 1616.46 578.975" stroke="black" stroke-width="0.272444"/>
<path d="M1627.51 568.64L1620.11 599.425L1640.27 603.599L1654.44 579.976L1641.06 557.537L1628.48 561.118L1562.5 491.975L1459.18 452.579C1424.34 444.522 1405.23 439.59 1360.22 441.53C1294.49 465.27 1259.82 478.033 1254.11 486.649L1362.82 453.397C1407.61 450.271 1425.46 454.083 1459.76 458.988L1558.46 497.526L1627.51 568.64Z" fill="#3E3030"/>
<path d="M1215.57 489.575C1225.26 497.539 1232.28 521.562 1227.2 527.457C1231.1 529.559 1232.5 531.668 1233.77 536.963C1239.1 533.513 1243.77 530.409 1247.91 527.789C1263.4 516.045 1269.57 514.145 1278.7 514.244L1278.15 507.109L1260.84 509.995C1260.5 501.35 1258.68 496.169 1254.11 486.649C1249.6 482.389 1248.22 480.169 1245.96 476.239C1234.9 481.872 1228.26 484.759 1215.57 489.575Z" fill="#3E3030"/>
<path d="M1620.11 599.425L1627.51 568.64L1558.46 497.526L1459.76 458.988C1425.46 454.083 1407.61 450.271 1362.82 453.397L1254.11 486.649C1258.68 496.169 1260.5 501.35 1260.84 509.995L1278.15 507.109L1278.7 514.244C1393.44 507.257 1456.58 497.43 1591.69 591.502L1607.98 593.112L1604.06 571.054C1566.09 542.373 1541.63 526.494 1493.18 498.477C1573.53 530.246 1617.46 548.321 1615.26 599.397L1620.11 599.425Z" fill="#E7A220"/>
<path d="M1472.86 545.319C1526.65 564.919 1551.97 576.451 1577.89 599.179L1615.26 599.397C1617.46 548.321 1573.53 530.246 1493.18 498.477C1541.63 526.494 1566.09 542.373 1604.06 571.054L1607.98 593.112L1591.69 591.502C1456.58 497.43 1393.44 507.257 1278.7 514.244C1269.57 514.145 1263.4 516.045 1247.91 527.789C1255.5 522.992 1261.31 519.818 1266.19 519.116L1353.06 531.358L1402.08 535.295L1472.86 545.319Z" fill="#F4C63F"/>
<path d="M1620.11 599.425L1627.51 568.64L1558.46 497.526L1459.76 458.988C1425.46 454.083 1407.61 450.271 1362.82 453.397L1254.11 486.649M1620.11 599.425L1640.27 603.599L1654.44 579.976L1641.06 557.537L1628.48 561.118L1562.5 491.975L1459.18 452.579C1424.34 444.522 1405.23 439.59 1360.22 441.53C1294.49 465.27 1259.82 478.033 1254.11 486.649M1620.11 599.425L1615.26 599.397M1254.11 486.649C1249.6 482.389 1248.22 480.169 1245.96 476.239C1234.9 481.872 1228.26 484.759 1215.57 489.575C1225.26 497.539 1232.28 521.562 1227.2 527.457C1231.1 529.559 1232.5 531.668 1233.77 536.963C1239.1 533.513 1243.77 530.409 1247.91 527.789M1254.11 486.649C1258.68 496.169 1260.5 501.35 1260.84 509.995L1278.15 507.109L1278.7 514.244M1615.26 599.397L1577.89 599.179C1551.97 576.451 1526.65 564.919 1472.86 545.319L1402.08 535.295L1353.06 531.358L1266.19 519.116C1261.31 519.818 1255.5 522.992 1247.91 527.789M1615.26 599.397C1617.46 548.321 1573.53 530.246 1493.18 498.477C1541.63 526.494 1566.09 542.373 1604.06 571.054L1607.98 593.112L1591.69 591.502C1456.58 497.43 1393.44 507.257 1278.7 514.244M1278.7 514.244C1269.57 514.145 1263.4 516.045 1247.91 527.789" stroke="black" stroke-width="0.403548"/>
</g>
<defs>
<clipPath id="clip0_183_686">
<rect width="1763.1" height="1322.32" fill="white" transform="translate(0.714844)"/>
</clipPath>
</defs>
</svg>
