<svg width="1305" height="864" viewBox="0 0 1305 864" fill="none" xmlns="http://www.w3.org/2000/svg">
<path d="M429.427 723.529L425.831 736.677L436.5 761L458.5 774.5L431.499 774.5L379.793 743.778L366.599 735.85L383.624 716.252L392.812 696.107L429.427 723.529Z" fill="#456746"/>
<path d="M588 567H464.258L356.758 589.376C414.387 637.306 399 646.5 378.5 707L433 733C435 698.5 567 615 567 615C567 615 585.218 589.181 588 567Z" fill="black"/>
<path d="M480.29 720.827L500.284 737.631L522.425 753.028L493.944 749.782L416.001 740.015L440.862 693.077L460.098 700.28L480.036 696.792L480.29 720.827Z" fill="#456746"/>
<path d="M1182.14 399.39C1183.83 395.712 1185.66 391.845 1187.64 387.768C1204.15 377.201 1216.41 367.128 1232.93 353.392C1066.83 341.842 1012.29 362.241 956.919 427.853C983.12 426.288 994.339 425.837 1010 425.569C1059.42 373.714 1139.07 429.72 1110.74 485.32C1109.15 486.965 1107.99 488.282 1107.13 489.401C1107.6 493.371 1108 497.046 1108.33 500.506C1109.84 516.357 1109.84 527.71 1108.79 542.411C1108.6 545.106 1108.37 547.914 1108.11 550.883C1146.07 646.461 1038.41 655.264 1014.34 625.179L959.38 621.127C992.618 656.871 1012.63 676.071 1078.25 692.049C1158.22 691.649 1202.56 689.39 1258.45 678.301C1227.14 654.884 1217.97 650.943 1191.03 630.731C1165.08 579.976 1164.1 569.047 1159.81 546.252L1160.19 544.415L1165.53 519.056C1165.77 511.93 1164.81 505.822 1162.49 497.215C1161.56 493.778 1160.41 489.944 1159.04 485.488C1160.45 458.579 1162.88 441.076 1182.14 399.39Z" fill="black"/>
<path d="M1251.2 338.272C1100.11 328.458 1014.93 325.343 941.232 434.222L956.919 427.853C1012.29 362.241 1066.83 341.842 1232.93 353.392C1238.44 348.811 1244.42 343.822 1251.2 338.272Z" fill="#E6EAEB"/>
<path d="M1189.14 392.836C1225.15 369.713 1234.62 358.401 1251.2 338.272C1244.42 343.822 1238.44 348.811 1232.93 353.392C1216.41 367.128 1204.15 377.201 1187.64 387.768C1185.66 391.845 1183.83 395.712 1182.14 399.39C1185.43 397.259 1186.9 395.78 1189.14 392.836Z" fill="#544E2E"/>
<path d="M956.919 427.853L941.232 434.222C946.454 435.599 950.241 436.144 957.552 436.969C976.921 433.41 988.889 432.384 1009.58 430.611L1010.77 430.508L1010 425.569C994.339 425.837 983.12 426.288 956.919 427.853Z" fill="#544E2E"/>
<path d="M1010 425.569L1010.77 430.508C1057.05 381.997 1125.17 423.501 1105.56 484.099L1103.67 499.821C1104.82 494.878 1104.03 493.423 1107.13 489.401C1107.99 488.282 1109.15 486.965 1110.74 485.32C1139.07 429.72 1059.42 373.714 1010 425.569Z" fill="#544E2E"/>
<path fill-rule="evenodd" clip-rule="evenodd" d="M959.38 621.127L945.23 622.217C949.275 626.694 952.917 630.928 956.392 634.969C979.035 661.3 994.635 679.44 1069.1 703.031C1126.57 707.123 1165.12 706.904 1270.5 691.958C1273.79 688.486 1271.8 685.643 1258.45 678.301C1202.56 689.39 1158.22 691.649 1078.25 692.049C1012.63 676.071 992.618 656.871 959.38 621.127Z" fill="#E6EAEB"/>
<path d="M1014.34 625.179C1038.41 655.264 1146.07 646.461 1108.11 550.883C1108.37 547.914 1108.6 545.106 1108.79 542.411L1102.76 542.129L1101.77 552.759C1145.52 613.198 1056.57 665.391 1014.96 619.137C966.808 615.792 951.919 616.577 945.23 622.217L959.38 621.127L1014.34 625.179Z" fill="#544E2E"/>
<path d="M1162.49 497.215C1164.81 505.822 1165.77 511.93 1165.53 519.056L1160.19 544.415C1172.76 542.589 1179.29 542.52 1189.65 544.647C1201.07 522.47 1198.48 511.666 1187.93 493.468L1162.49 497.215Z" fill="#DBBF9F"/>
<path d="M1102.76 542.129L1108.79 542.411C1109.84 527.71 1109.84 516.357 1108.33 500.506L1103.67 499.821L889.261 508.886L874.689 513.203C869.432 523.374 867.694 533.75 873.818 545.163L891.182 547.945L1102.76 542.129Z" fill="#DBBF9F"/>
<path d="M873.818 545.163C867.694 533.75 869.432 523.374 874.689 513.203L873.563 509.401C859.71 509.704 852.59 509.427 840.558 508.495C840.098 510.75 838.772 511.045 833.554 511.604C833.627 512.048 833.699 512.486 833.769 512.918C835.946 526.293 836.718 534.385 836.495 547.604C836.485 548.171 836.474 548.749 836.461 549.337C850.617 548.115 858.011 547.927 869.5 549.198C873.309 549.466 874.49 548.788 873.818 545.163Z" fill="#1C120D"/>
<path d="M782.045 549.437C776.935 546.505 774.039 544.574 766.007 515.071C755.25 515.245 743.947 515.382 732.022 515.507C740.792 544.8 744.076 550.213 748.553 550.566L782.045 549.437Z" fill="#4F3128"/>
<path d="M748.553 550.566C744.076 550.213 740.792 544.8 732.022 515.507C719.253 515.641 713.998 515.622 699.706 515.759C706.24 545.961 708.463 550.178 713.808 551.736L748.553 550.566Z" fill="#160903"/>
<path d="M713.808 551.736C708.463 550.178 706.24 545.961 699.706 515.759C697.435 515.78 686.916 515.941 684.604 515.964C675.821 522.463 674.955 529.958 683.272 552.764L713.808 551.736Z" fill="#75594D"/>
<path d="M653.69 516.295C644.766 526.01 643.317 533.497 652.736 553.793L683.272 552.764C674.955 529.958 675.821 522.463 684.604 515.964C674.692 516.061 664.397 516.168 653.69 516.295Z" fill="#140900"/>
<path d="M814.799 548.334C809.432 544.986 806.298 540.985 799.559 514.333C788.962 514.645 777.813 514.88 766.007 515.071C774.039 544.574 776.935 546.505 782.045 549.437L814.799 548.334Z" fill="#170A04"/>
<path d="M836.495 547.604C836.718 534.385 835.946 526.293 833.769 512.918C822.982 513.522 811.629 513.977 799.559 514.333C806.298 540.985 809.432 544.986 814.799 548.334L836.495 547.604Z" fill="#75594D"/>
<path d="M652.736 553.793C643.317 533.497 644.766 526.01 653.69 516.295C644.694 518.196 639.721 517.464 635.07 510.439C626.619 507.205 622.357 507.402 615.981 512.303C607.701 509.164 605.398 512.297 600.775 516.807C597.257 535.359 598.576 543.72 602.531 557.637C603.518 563.839 607.038 564.333 616.822 561.675C623.318 563.612 626.994 564.249 634.045 559.329C639.571 553.109 643.532 551.649 652.736 553.793Z" fill="#BCB3AA"/>
<path d="M261.815 513.079L289.008 515.937C287.903 526.488 287.331 536.607 287.404 546.734L267.221 577.428L271.889 604.263L225.671 616.506L135.468 601.941L77.2108 577.331L71.1845 554.513C93.0544 553.62 102.095 553.619 113.327 554.32C112.868 561.128 112.029 565.338 105.418 576.136C107.66 575.275 110.028 574.912 127.926 575.729C132.303 579.191 134.162 581.536 137.15 585.942C140.879 584.167 142.685 582.429 144.687 576.566C158.505 573.858 166.354 573.259 180.542 573.864C186.032 582.064 187.486 586.986 190.415 595.7L201.718 595.039C203.495 578.125 222.248 579.27 240.843 596.84L230.187 573.535L243.533 571.241L243.276 529.155L272.265 529.429L261.815 513.079Z" fill="#2D2727"/>
<path d="M57.2712 535.487C60.7581 541.636 64.2914 546.129 71.1845 554.513L77.2108 577.331L135.468 601.941L225.671 616.506L271.889 604.263L267.221 577.428L287.404 546.734C287.553 567.356 290.372 588.013 296.788 612.426L312.049 614.03C301.771 627.467 290.709 641.235 257.38 644.334L113.047 628.24C105.489 623.112 98.6858 618.705 92.3347 614.508C95.6226 611.584 96.8855 609.33 96.9804 602.98C92.8859 602.034 89.9074 600.793 80.988 594.829C75.6432 597.799 74.0277 599.368 74.2481 601.977C62.92 593.528 52.1696 583.911 39.6841 569.227L34.1291 568.643L41.5579 551.399L23.0413 549.453L22.9857 549.355C16.7463 538.438 13.2282 532.283 10.4732 517.628C18.2009 520.157 24.8178 524.405 37.8287 533.444L57.2712 535.487Z" fill="#343F31"/>
<path d="M611.954 341.9L643.202 264.068L710.952 307.609C712.335 319.677 715.078 321.451 721.018 321.994C721.003 327.93 721.566 332.798 724.203 345.47L678.803 359.563L675.458 360.602L617.664 349.688L611.954 341.9Z" fill="#AEBA78"/>
<path d="M678.803 359.563L724.203 345.47C726.079 353.366 724.95 358.406 723.326 362.393C729.331 366.304 733.79 373.822 741.293 385.013C745.744 402.596 748.671 410.547 754.19 423.486C754.415 432.11 753.874 436.223 753.406 441.813L743.255 436.769L725.48 439.979L708.015 432.753L675.139 439.492C681.681 416.988 686.322 405.213 697.17 386.483C690.546 374.933 689.357 367.381 678.803 359.563Z" fill="#456746"/>
<path d="M632.384 507.888C640.654 502.048 644.44 489.128 652.287 479.779L671.372 467.936L732.556 485.706C723.724 498.334 717.801 505.249 696.75 520.146L668.918 516.734L647.901 529.094L630.567 508.835L632.384 507.888Z" fill="#456746"/>
<path d="M611.954 341.9L617.664 349.688L675.458 360.602L678.803 359.563C689.357 367.381 690.546 374.933 697.17 386.483C686.322 405.213 681.681 416.988 675.139 439.492C661.91 442.891 654.822 446.164 646.703 452.287C645.133 453.472 643.523 454.763 641.823 456.183L641.82 456.137C640.71 443.072 640.087 435.733 642.045 426.101C647.467 415.955 650.162 408.472 653.53 387.824L647.734 389.377L642.045 426.101L608.681 404.068C606.051 388.648 609.853 380.192 608.681 374.994C607.509 369.797 611.342 360.841 611.954 341.9Z" fill="#7A3A2E"/>
<path d="M647.734 389.377L653.53 387.824C650.162 408.472 647.467 415.955 642.045 426.101L647.734 389.377Z" fill="black"/>
<path fill-rule="evenodd" clip-rule="evenodd" d="M753.406 441.813L743.255 436.769L725.48 439.979L708.015 432.753L675.139 439.492C661.91 442.891 654.822 446.164 646.703 452.287L652.287 479.779L671.372 467.936L732.556 485.706C723.724 498.334 717.801 505.249 696.75 520.146L668.918 516.734L647.901 529.094L630.567 508.835L625.117 511.676L624.208 512.149L599.148 536.464L632.232 542.093L634.173 549.337C639.255 549.646 641.583 549.47 644.833 548.551C649.37 561.08 652.85 568.039 659.075 580.452L735.866 559.876C738.299 557.518 740.722 554.467 743.5 550.525L711.475 551.918C672 551.918 673 526 705.642 522.423L707.018 522.272L754.299 515.272C754.305 513.463 754.319 511.72 754.332 510.044C754.412 500.06 754.473 492.449 752.72 487.549C754.293 474.362 753.981 462.899 753.446 443.266L753.406 441.813Z" fill="#2B2D28"/>
<path d="M405 559L436.256 577C449.78 582.138 481.1 623.281 470.76 608.999C460.419 594.718 523.5 678.5 484.501 712L428 705.5C428 705.5 403.839 652.999 361.258 652.999C346.261 652.999 248.001 585 253.5 544.5C258.999 504 288.677 579.641 289.757 555L405 559Z" fill="#2C1D1D"/>
<path d="M708.771 61.1151C713.887 78.7945 714.921 88.3835 713.839 104.971C708.802 106.683 706.728 106.306 703.904 103.839C696.322 93.3288 695.444 92.0217 692.188 87.4069C694.593 84.8127 695.494 80.5328 697.251 73.8931L708.771 61.1151Z" fill="#2A2722"/>
<path d="M629.443 55.0962C620.481 71.1717 617.316 80.2822 614.639 96.6877C619.162 99.4891 621.268 99.5882 624.575 97.8197C634.327 89.2848 635.476 88.2087 639.686 84.4444C637.927 81.3759 638.012 77.003 637.794 70.1382L629.443 55.0962Z" fill="#2A2722"/>
<path d="M633.322 109.384C640.655 106.443 642.78 103.877 643.679 97.9835C648.466 102.824 650.75 105.75 653.353 111.667L654.514 113.309C637.231 112.783 634.1 111.758 633.322 109.384Z" fill="#A4A971"/>
<path d="M700.313 104.436C700.789 112.052 703.071 114.896 709.827 118.101C707.092 120.625 706.482 122.442 689.616 118.818C690.068 117.786 690.503 116.835 690.936 115.949C693.263 111.192 695.561 108.271 700.313 104.436Z" fill="#A4A971"/>
<path fill-rule="evenodd" clip-rule="evenodd" d="M555.46 33.0795C560.868 34.1989 560.025 59.2646 552.573 58.4156C544.83 58.2344 527.523 55.682 520.835 54.2963C514.148 52.9106 515.791 29.0709 523.722 28.9602C531.653 28.8495 550.052 31.9601 555.46 33.0795ZM542.814 33.6516C546.841 43.7329 540.549 53.523 540.549 53.523C540.549 53.523 537.21 44.6405 542.814 33.6516Z" fill="#A4A971"/>
<path fill-rule="evenodd" clip-rule="evenodd" d="M471.503 23.5138C476.911 24.6332 476.068 49.6989 468.616 48.8499C460.873 48.6687 445.497 46.8395 438.809 45.4538C432.121 44.0681 433.765 20.2284 441.696 20.1177C449.626 20.007 466.095 22.3944 471.503 23.5138ZM460.844 24.3123C464.871 34.3936 458.58 44.1838 458.58 44.1838C458.58 44.1838 455.24 35.3012 460.844 24.3123Z" fill="#A4A971"/>
<path d="M542.814 33.6516C546.841 43.7329 540.549 53.523 540.549 53.523C540.549 53.523 537.21 44.6405 542.814 33.6516Z" fill="#D22B2B"/>
<path d="M460.844 24.3123C464.871 34.3936 458.58 44.1838 458.58 44.1838C458.58 44.1838 455.24 35.3012 460.844 24.3123Z" fill="#D22B2B"/>
<path d="M709.827 118.101L725.724 119.912L724.706 128.854L720.731 128.402C720.679 128.38 720.628 128.374 720.577 128.384L524.998 106.1L512.905 106.232L513.754 98.7806C521.429 100.658 525.455 101.512 529.154 100.535C540.432 103.435 542.481 103.394 543.064 102.12C553.723 104.486 561.339 107.408 566.91 104.837C581.286 108.428 587.113 109.386 589.762 107.441C600.922 109.85 604.873 109.693 606.992 106.384L633.322 109.384C634.1 111.758 637.231 112.783 654.514 113.309L653.353 111.667L690.936 115.949C690.503 116.835 690.068 117.786 689.616 118.818C706.482 122.442 707.092 120.625 709.827 118.101Z" fill="#2A2722"/>
<path fill-rule="evenodd" clip-rule="evenodd" d="M709.872 42.6208L719.808 43.7528C722.213 59.2673 723.644 66.9685 726.222 80.2133C729.432 96.143 727.545 104.613 725.724 119.912L709.827 118.101C703.071 114.896 700.789 112.052 700.313 104.436C695.561 108.271 693.263 111.192 690.936 115.949L653.353 111.667C650.75 105.75 648.466 102.824 643.679 97.9835C642.78 103.877 640.655 106.443 633.322 109.384L606.992 106.384C604.873 109.693 600.922 109.85 589.762 107.441L578.173 85.4876L566.91 104.837L553.761 87.7386L543.064 102.12L537.568 92.9389L529.154 100.535L523.231 86.273L513.754 98.7806L512.905 106.232L524.998 106.1L720.577 128.384C718.807 128.731 717.584 148.012 715.524 174.106C711.303 176.073 709.022 177.666 705.123 181.476L578.442 167.042L478.588 155.665C452.983 168.47 441.813 173.645 439.505 171.845C431.867 171.51 427.811 171.06 420.628 169.694L416.88 167.254C407.177 154.474 403.835 149.228 399.228 141.088L401.052 160.419C401.668 161.024 402.27 161.624 402.86 162.22L406.371 232.987C383.666 212.677 370.872 202.786 348.328 185.907L347.864 185.559C360.629 150.055 369.052 118.416 383.873 63.8531L418.661 63.2876C418.661 63.2876 421.553 55.5654 424.006 47.2899C426.458 39.0143 427.716 23.5573 431.32 18.4323C434.923 13.3073 440.614 11.9427 440.614 11.9427L480.357 16.4709L484.124 31.9971L504.989 34.3743L512.151 20.0934L565.307 26.1497C569.84 28.0318 570.923 30.8613 572.734 36.0541C573.565 53.7882 574.319 62.9779 576.595 77.256L606.402 80.6521C611.028 62.081 616.046 51.755 626.412 33.1117L637.341 34.357L649.17 49.7952L695.868 55.1158L709.872 42.6208ZM614.639 96.6877C617.316 80.2822 620.481 71.1717 629.443 55.0962L637.794 70.1382C638.012 77.003 637.927 81.3759 639.686 84.4444C635.476 88.2087 634.327 89.2848 624.575 97.8197C621.268 99.5882 619.162 99.4891 614.639 96.6877ZM713.839 104.971C714.921 88.3835 713.887 78.7945 708.771 61.1151L697.251 73.8931C695.494 80.5328 694.593 84.8127 692.188 87.4069C695.444 92.0217 696.322 93.3288 703.904 103.839C706.728 106.306 708.802 106.683 713.839 104.971ZM552.573 58.4156C560.025 59.2646 560.868 34.1989 555.46 33.0795C550.052 31.9601 531.653 28.8495 523.722 28.9602C515.791 29.0709 514.148 52.9106 520.835 54.2963C527.523 55.682 544.83 58.2344 552.573 58.4156ZM468.616 48.8499C476.068 49.6989 476.911 24.6332 471.503 23.5138C466.095 22.3944 449.626 20.007 441.696 20.1177C433.765 20.2284 432.121 44.0681 438.809 45.4538C445.497 46.8395 460.873 48.6687 468.616 48.8499Z" fill="#426640"/>
<path d="M578.173 85.4876L589.762 107.441C587.113 109.386 581.286 108.428 566.91 104.837L578.173 85.4876Z" fill="#A4A971"/>
<path d="M553.761 87.7386L566.91 104.837C561.339 107.408 553.723 104.486 543.064 102.12L553.761 87.7386Z" fill="#A4A971"/>
<path d="M537.568 92.9389L543.064 102.12C542.481 103.394 540.432 103.435 529.154 100.535L537.568 92.9389Z" fill="#A4A971"/>
<path d="M523.231 86.273L529.154 100.535C525.455 101.512 521.429 100.658 513.754 98.7806L523.231 86.273Z" fill="#A4A971"/>
<path d="M363.467 75.1155C370.079 70.3218 374.728 67.9106 383.873 63.8531C369.052 118.416 360.629 150.055 347.864 185.559L334.973 188.284L318.472 191.772C319.227 184.572 319 180.23 316.265 171.391C324.24 166.891 329.991 164.261 342.802 159.317C337.207 150.795 334.267 145.873 330.886 135.817C338.507 130.061 343.473 126.529 357.052 118.166L348.802 106.658C354.691 102.169 358.724 99.5463 367.277 94.6726C365.552 87.1053 364.938 82.8472 363.467 75.1155Z" fill="#2D2727"/>
<path d="M578.442 167.042L553.433 205.458C547.758 208.282 542.243 209.133 534.869 209.382C537.101 220.707 514.529 246.326 518.318 244.232C500.787 254.892 492.174 258.865 478.398 263.336C466.882 259.927 457.55 258.732 436.782 257.588L415.784 240.602C422.828 229.743 426.83 219.592 432.959 202.803C421.481 184.774 414.797 174.295 402.86 162.22C402.27 161.624 401.668 161.024 401.052 160.419L399.228 141.088C403.835 149.228 407.177 154.474 416.88 167.254L420.628 169.694C427.811 171.06 431.867 171.51 439.505 171.845C441.813 173.645 452.983 168.47 478.588 155.665L578.442 167.042Z" fill="#2D2727"/>
<path d="M432.959 202.803C426.83 219.592 422.828 229.743 415.784 240.602L406.371 232.987L402.86 162.22C414.797 174.295 421.481 184.774 432.959 202.803Z" fill="#714133"/>
<path d="M518.318 244.232C514.529 246.326 537.101 220.707 534.869 209.382C542.243 209.133 547.758 208.282 553.433 205.458C560.54 207.973 563.989 209.557 569.757 212.35C509.316 250.437 522.106 242.138 518.318 244.232Z" fill="#714133"/>
<path d="M517.127 242.991C520.897 240.864 507.814 249.81 567.921 211.197L570.773 210.923C570.69 211.968 570.513 213.119 570.248 214.387C568.366 223.399 562.055 238.363 553.639 263.922C542.225 270.666 531.271 282.579 509.835 307.583C506.399 303.139 504.816 300.09 498.657 284.789L495.176 284.423L495.437 281.937C483.028 271.813 480.946 268.076 477.376 262.442C491.112 257.852 499.69 253.804 517.127 242.991Z" fill="#A8B877"/>
<path d="M414.565 240.255L435.711 257.058C429.316 263.928 421.118 267.943 414.363 273.613C413.405 274.418 412.475 275.256 411.584 276.14C402.796 285.756 399.888 289.297 394.975 295.277L394.974 295.278L394.419 295.955C390.723 295.095 388.668 294.211 385.284 291.978C379.004 281.444 375.882 275.837 371.383 266.385C359.224 247.04 353.55 239.309 345.049 229.932L332.743 193.949L333.301 188.645L346.168 185.808L346.635 186.151C369.325 202.833 382.206 212.612 405.086 232.723L414.565 240.255Z" fill="#A9B779"/>
<path d="M495.437 281.937L495.176 284.423L457.312 324.183L465.796 348.704L443.45 379.538L436.489 378.806L423.529 344.262L439.332 318.272L419.336 274.136L414.363 273.613C421.118 267.943 429.316 263.928 435.711 257.058C456.488 258.021 465.831 259.134 477.376 262.442C480.946 268.076 483.028 271.813 495.437 281.937Z" fill="black"/>
<path d="M509.835 307.583C531.271 282.579 542.225 270.666 553.639 263.922C496.497 354.424 468.352 381.548 436.05 416.466C427.233 401.309 422.712 393.693 406.468 363.082C394.639 339.703 387.195 323.787 373.992 295.556L373.874 295.304C362.43 271.968 356.169 257.019 345.049 229.932C353.55 239.309 359.224 247.04 371.383 266.385C375.882 275.837 379.004 281.444 385.284 291.978C388.668 294.211 390.723 295.095 394.419 295.955L394.974 295.278L394.975 295.277C399.888 289.297 402.796 285.756 411.584 276.14C412.475 275.256 413.405 274.418 414.363 273.613L419.336 274.136L439.332 318.272L423.529 344.262L436.489 378.806L443.45 379.538L465.796 348.704L457.312 324.183L495.176 284.423L498.657 284.789C504.816 300.09 506.399 303.139 509.835 307.583Z" fill="#74543F"/>
<path d="M431.137 463.209C451.617 465.363 447.839 495.632 427.949 493.542C408.058 491.451 410.657 461.055 431.137 463.209Z" fill="black"/>
<path d="M424.552 525.864C443.945 527.902 441.856 557.345 421.468 555.202C401.08 553.059 405.158 523.826 424.552 525.864Z" fill="black"/>
<path fill-rule="evenodd" clip-rule="evenodd" d="M436.05 416.466C468.352 381.548 496.497 354.424 553.639 263.922C562.055 238.363 568.366 223.399 570.248 214.387C601.016 234.054 617.562 245.241 645.474 265.53L638.765 372.415C631.406 389.877 626.845 396.98 626.077 402.252C625.308 407.524 613.581 424.995 610.511 440.333C600.159 486.507 597.52 503.842 592.438 535.745L591.421 535.861L589.748 551.774L588.18 566.691L587.396 574.15L454.505 613.978L419.586 573.104L373.949 605.511L251.824 542.902L252.324 538.146L253.891 537.589L254.309 533.611L255.563 521.677L255.809 503.603L255.839 502.235C256.608 466.563 257.05 446.058 257.245 395.662C253.511 369.578 252.067 354.831 251.267 328.168C251.762 300.676 251.648 285.62 250.419 259.704C250.507 243.636 251.143 232.724 249.746 224.663C272.501 212.943 286.53 201.919 316.831 192.276L333.301 188.645L332.743 193.949L345.049 229.932C356.169 257.019 362.43 271.968 373.874 295.304L373.992 295.556C387.195 323.787 394.639 339.703 406.468 363.082C422.712 393.693 427.233 401.309 436.05 416.466ZM431.137 463.209C451.617 465.363 447.839 495.632 427.949 493.542C408.058 491.451 410.657 461.055 431.137 463.209ZM424.552 525.864C443.945 527.902 441.856 557.345 421.468 555.202C401.08 553.059 405.158 523.826 424.552 525.864Z" fill="#252222"/>
<path d="M183.202 523.087C185.221 522.403 186.729 522.508 190.599 524.324C194.871 534.505 198.921 540.015 205.917 549.532L206.483 550.302C195.274 551.52 189.038 551.984 178.993 548.237C178.377 538.682 178.068 533.32 183.202 523.087Z" fill="black"/>
<path d="M254.668 220.228L259.106 220.971C260.008 229.103 258.754 240.694 257.685 256.727C257.331 282.67 256.525 297.705 254.353 325.115C227.432 341.134 211.645 347.777 181.669 353.508L179.781 349.643L137.864 342.629C137.018 341.384 136.481 341.174 138.373 318.38L142.486 315.013C145.414 305.636 144.997 297.564 148.17 296.193C171.864 278.471 185.047 268.201 207.304 245.761C219.558 238.444 228.421 235.205 254.668 220.228Z" fill="#AFBE7B"/>
<path d="M227.56 442.807C226.943 441.337 226.133 440.871 223.37 440.585C213.986 438.18 206.09 436.208 199.038 434.513C194.61 407.988 190.566 393.91 165.953 377.747L178.296 358.52L181.669 353.508C211.645 347.777 227.432 341.134 254.353 325.115C253.523 351.778 254.064 366.585 256.199 392.848C240.602 402.026 236.678 400.973 226.433 407.131L220.123 378.193C217.504 378.106 216.347 378.81 214.614 380.82C221.173 393.933 223.845 403.123 228.269 420.113C229.023 427.837 228.811 434.218 227.56 442.807Z" fill="#7A3A2E"/>
<path d="M214.614 380.82C216.347 378.81 217.504 378.106 220.123 378.193L226.433 407.131C227.279 412.084 227.894 416.265 228.269 420.113C223.845 403.123 221.173 393.933 214.614 380.82Z" fill="black"/>
<path d="M136.709 349.533C138.97 346.769 139.133 345.263 137.864 342.629L179.781 349.643L181.669 353.508L178.296 358.52L165.953 377.747C190.566 393.91 194.61 407.988 199.038 434.513C181.784 430.366 169.582 427.875 153.017 424.756C142.494 432.71 134.671 434.171 120.212 435.996C118.787 421.292 116.739 410.386 109.315 382.97C117.411 371.519 122.96 364.472 136.709 349.533Z" fill="#456746"/>
<path fill-rule="evenodd" clip-rule="evenodd" d="M130.508 528.97C128.351 523.218 125.897 507.381 120.212 435.996C134.671 434.171 142.494 432.71 153.017 424.756C169.582 427.875 181.784 430.366 199.038 434.513C206.09 436.208 213.986 438.18 223.37 440.585L220.475 466.969C218.654 463.917 212.941 461.976 195.081 458.157C189.47 462.275 184.002 465.746 150.759 483.692C150.026 486.19 153.035 489.819 191.672 517.914C202.626 513.338 208.42 509.884 217.74 501.491C228.764 512.343 231.213 514.124 235.403 517.12C238.761 510.46 241.383 506.676 247.415 499.866L248.176 500.501L276.333 523.97L244.847 530.361L244.187 534.306L242.589 534.766L231.937 537.832L225.011 570.132L149.56 557.506C140.304 548.423 136.328 543.715 129.435 535.381L130.508 528.97ZM190.599 524.324C186.729 522.508 185.221 522.403 183.202 523.087C178.068 533.32 178.377 538.682 178.993 548.237C189.038 551.984 195.274 551.52 206.483 550.302L205.917 549.532C198.921 540.015 194.871 534.505 190.599 524.324Z" fill="#343F31"/>
<path d="M220.475 466.969C234.117 481.142 232.844 485.688 247.415 499.866C241.383 506.676 238.761 510.46 235.403 517.12C231.213 514.124 228.764 512.343 217.74 501.491C208.42 509.884 202.626 513.338 191.672 517.914C153.035 489.819 150.026 486.19 150.759 483.692C184.002 465.746 189.47 462.275 195.081 458.157C212.941 461.976 218.654 463.917 220.475 466.969Z" fill="#456746"/>
</svg>
