<svg width="132" height="572" viewBox="0 0 132 572" fill="none" xmlns="http://www.w3.org/2000/svg">
<path d="M106.885 42.9632C84.7184 27.2552 71.7888 20.9204 50.4776 1C42.9643 9.83637 40.1307 10.3946 34.2623 13.9886L31.629 29.9746L64.4755 69.44L112.743 76.9334L106.885 42.9632Z" fill="#634C5E"/>
<path d="M64.4755 69.44L31.629 29.9746L31.0746 64.4443L64.7527 96.4163L113.26 101.412V79.9308L112.743 76.9334L64.4755 69.44Z" fill="#4D3A48"/>
<path d="M31.629 29.9746C29.6263 31.0575 28.5041 32.182 26.5011 29.9746C19.5662 41.9773 16.7526 50.7228 11.533 65.943L7.76636 97.915L25.5309 127.389H34.678L52.6951 136.381L74.3156 148.87V161.859C60.6853 160.473 54.9448 162.307 49.3689 171.977L55.1898 176.846L78.1962 174.848L79.8731 173.349L94.9659 159.861L99.5394 139.878L113.26 142.876L119.22 134.883L113.26 103.41V101.412L64.7527 96.4163L31.0746 64.4443L31.629 29.9746Z" fill="#634C5E"/>
<path d="M115.616 162.358L113.26 142.876L99.5394 139.878L100.232 164.357C110.321 167.54 116.128 169.693 126.426 162.358V159.861C122.199 162.228 119.834 162.49 115.616 162.358Z" fill="#4D3A48"/>
<path d="M119.774 155.864L119.22 134.883L113.26 142.876L115.616 162.358L119.774 155.864Z" fill="#433940"/>
<path d="M99.5394 139.878L94.9659 159.861L79.8731 173.349C87.5397 168.671 91.415 164.311 100.232 164.357L99.5394 139.878Z" fill="black"/>
<path d="M131 162.358L116.586 79.9308H113.26V101.412V103.41L119.22 134.883L119.774 155.864L115.616 162.358C119.834 162.49 122.199 162.228 126.426 159.861V162.358C116.128 169.693 110.321 167.54 100.232 164.357C91.415 164.311 87.5397 168.671 79.8731 173.349L78.1962 174.848L55.1898 176.846L91.5011 193.831L97.4605 191.253L119.22 181.841L131 162.358Z" fill="#634C5E"/>
<path d="M34.678 127.389H25.5309L35.2324 130.387L30.7974 136.381C37.4362 144.551 42.4232 147.202 51.032 152.367L74.3156 148.87L52.6951 136.381L34.678 127.389Z" fill="#634C5E"/>
<path d="M25.5309 127.389L30.1045 155.864C39.146 166.605 43.6429 170.949 49.3689 171.977C54.9448 162.307 60.6853 160.473 74.3156 161.859V148.87L51.032 152.367C42.4232 147.202 37.4362 144.551 30.7974 136.381L35.2324 130.387L25.5309 127.389Z" fill="#4D3A48"/>
<path d="M26.6397 263.27L7.23667 210.816L2.9403 241.445C25.2879 291.192 26.2597 324.44 24.0064 370.176L38.1429 321.219H43.1322L52.6951 383.165C51.7935 319.642 54.1435 316.943 65.6309 303.749C67.8826 301.163 70.4858 298.173 73.484 294.243L47.8443 276.259L46.3198 272.762L33.4307 266.767L31.0746 263.27H26.6397Z" fill="#634C5E"/>
<path d="M82.3539 301.237L73.484 294.243L83.7399 370.176C80.4089 319.31 86.2806 296.247 101.48 286.25L97.4605 191.253C95.8777 222.404 103.421 281.254 82.3539 301.237Z" fill="black"/>
<path d="M92.887 571C100.069 566.029 104.15 564.233 111.458 561.508C117.017 548.011 118.859 539.875 122.546 525.54L126.628 350.194C118.675 346.18 116.303 367.819 114.23 431.123L117.141 301.237C104.704 515.719 87.5025 532.506 57.7699 561.523C57.1918 562.088 56.609 562.656 56.0213 563.231L92.887 571Z" fill="#3A2E37"/>
<path d="M131 162.358L119.22 181.841L97.4605 191.253L101.48 286.25C86.2806 296.247 80.4089 319.31 83.7399 370.176L73.484 294.243C70.4858 298.173 67.8826 301.163 65.6309 303.749C54.1435 316.943 51.7935 319.642 52.6951 383.165L43.1322 321.219H38.1429L24.0064 370.176C26.2597 324.44 25.2879 291.192 2.9403 241.445L1 255.277V346.697C3.50504 465.277 6.16816 525.074 28.3028 539.418L47.8443 561.508L56.0213 563.231C56.609 562.656 57.1918 562.088 57.7699 561.523C87.5025 532.506 104.704 515.719 117.141 301.237L114.23 431.123C116.303 367.819 118.675 346.18 126.628 350.194L131 162.358Z" fill="#4D3A48"/>
<path d="M7.23667 102.411V210.816L26.6397 263.27H31.0746L33.4307 266.767L46.3198 272.762L47.8443 276.259L73.484 294.243L82.3539 301.237C103.421 281.254 95.8777 222.404 97.4605 191.253L91.5011 193.831L55.1898 176.846L49.3689 171.977C43.6429 170.949 39.146 166.605 30.1045 155.864L25.5309 127.389L7.76636 97.915L7.23667 102.411Z" fill="#4D3A48"/>
<path d="M7.23667 210.816V102.411L7.76636 97.915M7.23667 210.816L26.6397 263.27H31.0746L33.4307 266.767L46.3198 272.762L47.8443 276.259L73.484 294.243M7.23667 210.816L2.9403 241.445M131 162.358L116.586 79.9308H113.26M131 162.358L119.22 181.841L97.4605 191.253M131 162.358L126.628 350.194M113.26 79.9308L112.743 76.9334M113.26 79.9308V101.412M31.629 29.9746L34.2623 13.9886C40.1307 10.3946 42.9643 9.83637 50.4776 1C71.7888 20.9204 84.7184 27.2552 106.885 42.9632L112.743 76.9334M31.629 29.9746C29.6263 31.0575 28.5041 32.182 26.5011 29.9746C19.5662 41.9773 16.7526 50.7228 11.533 65.943L7.76636 97.915M31.629 29.9746L64.4755 69.44L112.743 76.9334M31.629 29.9746L31.0746 64.4443L64.7527 96.4163L113.26 101.412M119.22 134.883L113.26 103.41V101.412M119.22 134.883L119.774 155.864L115.616 162.358M119.22 134.883L113.26 142.876M115.616 162.358L113.26 142.876M115.616 162.358C119.834 162.49 122.199 162.228 126.426 159.861V162.358C116.128 169.693 110.321 167.54 100.232 164.357M113.26 142.876L99.5394 139.878M99.5394 139.878L94.9659 159.861L79.8731 173.349M99.5394 139.878L100.232 164.357M55.1898 176.846L78.1962 174.848L79.8731 173.349M55.1898 176.846L91.5011 193.831L97.4605 191.253M55.1898 176.846L49.3689 171.977M25.5309 127.389L30.1045 155.864C39.146 166.605 43.6429 170.949 49.3689 171.977M25.5309 127.389L7.76636 97.915M25.5309 127.389H34.678L52.6951 136.381L74.3156 148.87M25.5309 127.389L35.2324 130.387L30.7974 136.381C37.4362 144.551 42.4232 147.202 51.032 152.367L74.3156 148.87M79.8731 173.349C87.5397 168.671 91.415 164.311 100.232 164.357M74.3156 148.87V161.859C60.6853 160.473 54.9448 162.307 49.3689 171.977M73.484 294.243L82.3539 301.237C103.421 281.254 95.8777 222.404 97.4605 191.253M73.484 294.243L83.7399 370.176C80.4089 319.31 86.2806 296.247 101.48 286.25L97.4605 191.253M73.484 294.243C70.4858 298.173 67.8826 301.163 65.6309 303.749C54.1435 316.943 51.7935 319.642 52.6951 383.165L43.1322 321.219H38.1429L24.0064 370.176C26.2597 324.44 25.2879 291.192 2.9403 241.445M2.9403 241.445L1 255.277V346.697C3.50504 465.277 6.16816 525.074 28.3028 539.418L47.8443 561.508L56.0213 563.231M56.0213 563.231L92.887 571C100.069 566.029 104.15 564.233 111.458 561.508C117.017 548.011 118.859 539.875 122.546 525.54L126.628 350.194M56.0213 563.231C56.609 562.656 57.1918 562.088 57.7699 561.523C87.5025 532.506 104.704 515.719 117.141 301.237L114.23 431.123C116.303 367.819 118.675 346.18 126.628 350.194" stroke="black" stroke-width="0.618102"/>
</svg>
