<svg width="1764" height="1323" viewBox="0 0 1764 1323" fill="none" xmlns="http://www.w3.org/2000/svg">
<path d="M708.351 800.448C734.66 787.556 743.076 778.57 754.137 761.44L757.815 753.947L748.902 724.194L726.863 746.894L720.472 727.721L703.722 730.145L661.623 712.046C666.401 722.817 669.894 733.058 672.868 746.894C679.59 741.841 681.827 738.157 683.226 730.145C689.904 751.652 689.804 764.173 689.637 785.186C689.637 785.199 689.637 785.213 689.637 785.226C689.637 785.246 689.636 785.266 689.636 785.286C689.636 785.313 689.636 785.341 689.636 785.368C689.635 785.408 689.635 785.448 689.635 785.488C689.629 786.204 689.623 786.93 689.618 787.666C690.406 787.287 691.17 786.924 691.911 786.57C691.937 786.558 691.963 786.546 691.989 786.533C691.99 786.533 691.991 786.532 691.992 786.532C701.081 782.203 706.851 779.456 713.86 770.696C710.958 781.182 709.911 787.945 708.351 800.448Z" fill="#D2CFC9"/>
<path d="M749.455 466.782C754.852 459.95 759.921 455.102 760.582 449.812C760.055 441.438 757.856 436.992 751.326 439.674C744.796 442.357 742.951 452.981 749.455 466.782Z" fill="black"/>
<path d="M530.933 529.152C532.293 529.413 535.858 528.896 539.72 528.336C541.491 528.079 543.325 527.813 545.038 527.609L561.126 525.405L562.675 526.948H572.592C578.924 554.838 582.578 568.545 589.562 584.028L592.207 554.276C601.909 568.618 607.262 576.675 619.094 590.64C623.604 588.726 625.44 587.039 627.468 582.926C629.383 597.281 631.617 605.55 638.488 620.833C638.914 610.664 638.034 603.869 633.86 589.097C648.964 607.46 657.939 617.148 676.835 630.971C676.361 618.455 675.797 611.424 672.868 598.794C688.992 615.793 696.791 625.741 710.555 643.533L713.86 624.139L742.951 662.266C752.747 651.274 758.107 645.2 762.786 637.582C766.227 637.553 768.157 637.123 771.602 635.599C777.766 628.841 780.568 622.829 785.045 610.254C786.324 595.36 787.331 587.308 794.081 578.078C794.876 584.595 795.202 589.093 795.404 599.896C803.428 588.528 809.314 585.891 809.729 554.055L825.811 559.565C825.818 551.136 825.073 545.324 823.393 534.441L817.877 529.152C736.983 529.283 690.49 528.293 618.647 536.865L617.878 535.647L617.878 535.646C604.424 514.324 596.647 501.999 583.605 473.394C581.572 473.947 579.602 474.477 577.691 474.992C577.684 474.994 577.678 474.995 577.671 474.997C560.068 479.738 547.541 483.111 537.545 489.923C543.694 492.969 551.049 494.001 559.903 495.242C563.444 495.739 567.225 496.269 571.264 496.975C554.093 504.074 528.949 528.771 530.933 529.152Z" fill="#D2CFC9"/>
<path d="M835.508 567.058C837.127 554.13 835.165 547.912 831.541 536.865L823.393 534.441C825.073 545.324 825.818 551.136 825.811 559.565L809.729 554.055C809.314 585.891 803.428 588.528 795.404 599.896C795.202 589.093 794.876 584.595 794.081 578.078C787.331 587.308 786.324 595.36 785.045 610.254C780.568 622.829 777.766 628.841 771.602 635.599C768.157 637.123 766.227 637.553 762.786 637.582C758.107 645.2 752.747 651.274 742.951 662.266L713.86 624.139L710.555 643.533C696.791 625.741 688.992 615.793 672.868 598.794C675.797 611.424 676.361 618.455 676.835 630.971C657.939 617.148 648.964 607.46 633.86 589.097C638.034 603.869 638.914 610.664 638.488 620.833C631.617 605.55 629.383 597.281 627.468 582.926C625.44 587.039 623.604 588.726 619.094 590.64C607.262 576.675 601.909 568.618 592.207 554.276L589.562 584.028C582.578 568.545 578.924 554.838 572.592 526.948H562.675L561.126 525.405L545.038 527.609C543.578 530.92 543.091 537.111 542.276 547.455C542.267 547.566 542.259 547.677 542.25 547.788C542.225 548.11 542.199 548.436 542.173 548.766C550.057 546.513 554.226 544.91 561.126 541.273L568.399 586.232L571.322 588.635C571.322 588.636 571.323 588.636 571.324 588.637C605.918 617.079 626.197 633.751 659.86 662.706C659.864 662.632 659.868 662.558 659.872 662.484C659.877 662.382 659.883 662.281 659.888 662.181C659.899 661.99 659.909 661.801 659.919 661.614C659.933 661.358 659.946 661.106 659.96 660.857C659.963 660.8 659.966 660.744 659.969 660.688C659.969 660.68 659.97 660.673 659.97 660.666C660.277 654.93 660.479 651.155 661.623 645.737C691.362 662.078 708.098 670.861 738.317 683.864C766.985 650.375 783.387 632.263 813.91 602.541C813.973 600.69 814.01 598.946 814.044 597.286C814.044 597.283 814.044 597.28 814.044 597.277C814.25 587.433 814.395 580.541 819.64 571.907C821.557 572.631 822.869 574.177 825.811 579.841C828.375 571.427 829.608 568.772 831.541 567.058H835.508Z" fill="#C5B5A5"/>
<path d="M683.226 430.038C656.552 440.952 645.486 440.889 637.386 431.961C634.013 428.823 630.425 425.929 627.468 422.998C627.481 423.038 627.493 423.079 627.505 423.119C632.947 441.431 628.219 443.594 619.535 447.168C622.334 448.024 624.983 448.727 627.505 449.28C650.192 454.257 662.651 447.098 683.096 430.146C683.139 430.11 683.183 430.074 683.226 430.038Z" fill="#A4395B"/>
<path d="M614.025 372.897C608.931 382.242 606.732 387.504 603.667 396.919L614.025 396.32L630.334 395.377C639.573 397.967 652.198 399.534 664.739 401.091L664.74 401.091C673.941 402.233 681.438 403.37 689.177 404.901C692.99 405.655 696.794 406.284 699.755 407.278C696.183 406.387 692.445 405.748 689.177 404.901C661.479 397.716 645.068 391.332 614.025 372.897Z" fill="#FEBD87"/>
<path d="M850.941 464.404C846.595 467.001 841.321 468.56 832.869 470.308C829.029 480.552 832.884 485.366 838.419 492.279C838.42 492.281 838.421 492.282 838.422 492.283C838.427 492.289 838.432 492.295 838.437 492.301C838.961 492.956 839.501 493.631 840.051 494.331C844.66 493.778 847.192 491.669 850.941 464.404Z" fill="black"/>
<path d="M782.18 433.944C794.034 433.739 797.167 432.181 801.795 414.55C798.048 411.245 793.825 406.476 786.588 406.396C778.146 408.67 775.319 410.74 772.704 415.432C770.219 429.112 776.287 430.461 782.18 433.944Z" fill="#AC3131"/>
<path fill-rule="evenodd" clip-rule="evenodd" d="M689.177 404.901C692.99 405.655 696.794 406.284 699.755 407.278C696.183 406.387 692.445 405.748 689.177 404.901ZM693.929 424.917C696.459 415.305 696.713 409.28 679.97 406.112C675.975 405.057 672.455 404.702 669.562 404.901C665.689 405.166 661.568 412.217 660.306 414.11C658.466 416.87 668.721 430.624 683.096 430.146C685.053 430.081 687.087 429.752 689.177 429.096L691.976 426.635L693.929 424.917Z" fill="#AC3131"/>
<path d="M630.334 395.377L614.025 396.32C615.811 406.191 616.98 412.601 627.505 423.119C627.493 423.079 627.481 423.038 627.468 422.998C630.425 425.929 634.013 428.823 637.386 431.961C645.486 440.889 656.552 440.952 683.226 430.038L689.177 429.096C687.087 429.752 685.053 430.081 683.096 430.146C668.721 430.624 658.466 416.87 660.306 414.11C661.568 412.217 665.689 405.166 669.562 404.901C672.455 404.702 675.975 405.057 679.97 406.112C696.713 409.28 696.459 415.305 693.929 424.917L720.031 412.346L699.755 407.278C696.183 406.387 692.445 405.748 689.177 404.901C681.438 403.37 673.941 402.233 664.74 401.091L664.739 401.091C652.198 399.534 639.573 397.967 630.334 395.377Z" fill="black"/>
<path d="M717.16 442.099C713.169 451.291 721.489 456.917 732.539 466.782C734.304 455.147 735.763 448.513 725.761 439.674C722.331 437.371 720.463 438.635 717.16 442.099Z" fill="black"/>
<path d="M730.61 473.394H739.866H747.8H755.734C747.483 467.506 744.653 459.388 742.07 438.352H736.119C735.698 450.749 734.836 458.1 732.539 466.782C731.984 468.878 731.346 471.052 730.61 473.394Z" fill="#B74A5F"/>
<path d="M618.647 536.865C673.379 517.615 717.835 515.663 817.656 525.405C802.119 516.662 792.436 511.922 747.8 507.995C745.93 493.851 744.56 485.816 747.8 473.394H739.866C741.675 488.524 740.875 496.161 739.866 509.978H677.276L649.287 477.581L622.62 485.074L561.126 396.919L596.835 352.406L581.408 343.437C565.821 359.86 553.312 374.905 534.68 398.903C572.363 458.38 576.328 463.675 583.164 472.805L583.605 473.394C596.647 501.999 604.424 514.324 617.878 535.646L617.878 535.647L618.647 536.865Z" fill="#B74A5F"/>
<path d="M817.656 525.405C717.835 515.663 673.379 517.615 618.647 536.865C690.49 528.293 736.983 529.283 817.877 529.152L817.656 525.405Z" fill="black"/>
<path d="M717.16 362.319C686.421 351.346 671.47 347.355 657.331 343.581C642.703 339.677 628.945 336.004 599.473 325.073C592.798 331.669 586.911 337.639 581.408 343.437L596.835 352.406L637.386 375.983C668.753 389.092 687.313 386.252 728.626 398.903C750.652 386.865 764.664 379.982 796.285 367.167C806.684 391.053 812.964 401.203 823.911 421.162C826.916 410.822 829.763 398.647 832.422 383.035L785.921 342.043C755.276 349.732 739.397 354.124 717.16 362.319Z" fill="#FEBD87"/>
<path d="M873.128 396.258L855.056 413.008L841.244 431.079C840.894 442.355 839.806 447.024 838.02 454.684C837.922 455.108 837.821 455.54 837.718 455.983C852.435 456.274 855.636 457.257 856.892 459.73C854.955 461.628 853.058 463.139 850.941 464.404C847.192 491.669 844.66 493.778 840.051 494.331C840.444 494.831 840.843 495.344 841.244 495.873C835.555 495.954 832.681 495.019 828.021 491.906C825.159 503.642 823.322 509.021 819.867 517.692V526.066L879.585 477.581C879.936 460.917 878.426 417.078 873.128 396.258Z" fill="#B74A5F"/>
<path fill-rule="evenodd" clip-rule="evenodd" d="M817.656 517.692L801.568 481.328C786.081 454.073 779.002 443.121 768.296 428.638C759.502 425.203 748.101 420.388 729.287 413.008L720.031 412.346L693.929 424.917L691.976 426.635C690.893 427.717 689.718 428.926 689.177 429.096C687.087 429.752 685.053 430.081 683.096 430.146C662.651 447.098 650.192 454.257 627.505 449.28L649.287 477.581L677.276 509.978H739.866C740.875 496.161 741.675 488.524 739.866 473.394H730.61C731.346 471.052 731.984 468.878 732.539 466.782C721.489 456.917 713.169 451.291 717.16 442.099C720.463 438.635 722.331 437.371 725.761 439.674C735.763 448.513 734.304 455.147 732.539 466.782C734.836 458.1 735.698 450.749 736.119 438.352H742.07C744.653 459.388 747.483 467.506 755.734 473.394H747.8C744.56 485.816 745.93 493.851 747.8 507.995C792.436 511.922 802.119 516.662 817.656 525.405V517.692ZM760.582 449.812C759.921 455.102 754.852 459.95 749.455 466.782C742.951 452.981 744.796 442.357 751.326 439.674C757.856 436.992 760.055 441.438 760.582 449.812Z" fill="#FEBD87"/>
<path d="M798.709 385.459C773.503 396.646 757.052 402.397 729.287 413.008C752.602 406.777 765.672 403.354 789.012 401.207H804.66C802.884 393.665 801.48 390.485 798.709 385.459Z" fill="#FEBD87"/>
<path d="M782.18 433.944C776.287 430.461 770.219 429.112 772.704 415.432C775.319 410.74 778.146 408.67 786.588 406.396C793.825 406.476 798.048 411.245 801.795 414.55C800.323 408.98 797.891 403.24 789.012 401.207C765.672 403.354 752.602 406.777 729.287 413.008C748.101 420.388 759.502 425.203 768.296 428.638C772.894 430.434 778.321 432.734 782.18 433.944Z" fill="black"/>
<path d="M448.729 440.556L432.646 437.691L441.902 445.845C449.066 461.458 453.645 469.701 463.275 483.311L448.729 487.939L450.718 494.771C459.557 491.483 464.467 489.797 472.213 489.923L471.11 468.766L448.729 440.556Z" fill="black"/>
<path d="M448.729 392.071L409.06 368.049C380.954 400.596 372.743 417.057 382.834 440.556L405.318 486.176C413.581 493.193 418.189 497.138 426.255 504.248L473.638 517.251L472.213 489.923C464.467 489.797 459.557 491.483 450.718 494.771L448.729 487.939L428.9 468.766L416.117 437.691L409.28 427.553L448.729 392.071Z" fill="#D15F6F"/>
<path d="M467.467 398.903C459.715 399.409 455.509 398.632 448.729 392.071L409.28 427.553L416.117 437.691L428.9 468.766L448.729 487.939L463.275 483.311C453.645 469.701 449.066 461.458 441.902 445.845L432.646 437.691L448.729 440.556L471.11 468.766L467.467 398.903Z" fill="#B74A5F"/>
<path d="M476.498 897.419C396.282 890.587 280.049 917.559 309.885 778.63C339.721 639.702 150.33 621.714 139.306 629.208C128.282 636.701 124.985 651.026 139.306 659.621C153.627 668.216 305.042 652.789 281.455 778.63C258.22 902.598 338.223 936.152 458.657 918.796L476.498 897.419Z" fill="#211F27"/>
<path d="M576.559 924.967L589.556 897.419L542.949 893.06L516.834 890.587L509.782 916.593L576.559 924.967Z" fill="#6B304C"/>
<path d="M733.475 886.139L589.556 897.419L576.559 924.967L733.475 914.609V886.139Z" fill="#6B304C"/>
<path d="M738.317 816.096L588.608 818.994L597.716 883.755L763.888 872.735L754.137 851.138L738.317 816.096Z" fill="#6B304C"/>
<path d="M763.888 872.735L597.716 883.755L589.556 897.419L733.475 886.139L763.888 883.755V872.735Z" fill="black"/>
<path d="M523.005 641.108V734.773L548.938 780.915L552.685 774.744L526.311 734.773L523.005 641.108Z" fill="black"/>
<path d="M728.626 398.903C687.313 386.252 668.753 389.092 637.386 375.983L596.835 352.406L561.126 396.919L622.62 485.074L649.287 477.581L627.505 449.28C624.983 448.727 622.334 448.024 619.535 447.168C628.219 443.594 632.947 441.431 627.505 423.119C616.98 412.601 615.811 406.191 614.025 396.32L603.667 396.919C606.732 387.504 608.931 382.242 614.025 372.897C645.068 391.332 661.479 397.716 689.177 404.901C692.99 405.655 696.794 406.284 699.755 407.278L720.031 412.346L729.287 413.008C757.052 402.397 773.503 396.646 798.709 385.459C801.48 390.485 802.884 393.665 804.66 401.207H789.012C797.891 403.24 800.323 408.98 801.795 414.55C797.167 432.181 794.034 433.739 782.18 433.944C778.321 432.734 772.894 430.434 768.296 428.638C779.002 443.121 786.081 454.073 801.568 481.328C804.857 471.923 808.069 464.026 811.181 456.374L811.182 456.372L811.182 456.371C815.656 445.374 819.922 434.885 823.911 421.162C812.964 401.203 806.684 391.053 796.285 367.167C764.664 379.982 750.652 386.865 728.626 398.903Z" fill="#6C5C5C"/>
<path d="M597.716 883.755L588.608 818.994L509.048 816.929L515.413 877.143L597.716 883.755Z" fill="#6B304C"/>
<path d="M589.556 897.419L597.716 883.755L515.413 877.143L516.834 890.587L542.949 893.06L589.556 897.419Z" fill="black"/>
<path d="M486.856 883.755L476.498 897.419L458.657 918.796C527.358 949.159 577.912 963.53 642.603 954.303C674.913 949.694 710.751 939.199 754.137 921.87L772.698 905.794L774.908 848.052L754.137 851.138L763.888 872.735V883.755L733.475 886.139V914.609L576.559 924.967L509.782 916.593L516.834 890.587L515.413 877.143L509.048 816.929L476.939 816.096L471.541 843.625L470.327 849.815C472.004 854.815 473.493 858.984 475.193 862.97C475.732 864.205 476.296 865.459 476.877 866.71C479.328 871.865 482.357 877.061 486.856 883.755Z" fill="#3F2F3D"/>
<path d="M458.657 918.796C476.939 995.05 475.193 1038.76 459.643 1102.19L558.415 1107.67C599.53 1071.03 620.054 1044.1 630.963 1014.22C637.529 996.239 640.611 977.186 642.603 954.303C577.912 963.53 527.358 949.159 458.657 918.796Z" fill="#211F27"/>
<path fill-rule="evenodd" clip-rule="evenodd" d="M523.005 734.773V641.108L526.311 734.773L552.685 774.744L548.938 780.915L523.005 734.773ZM757.815 753.947L748.902 724.194L726.863 746.894L720.472 727.721L703.722 730.145L661.623 712.046C666.401 722.817 669.894 733.058 672.868 746.894C679.59 741.841 681.827 738.157 683.226 730.145C689.904 751.652 689.804 764.173 689.637 785.186L689.637 785.226L689.636 785.286L689.636 785.368L689.635 785.488C689.629 786.204 689.623 786.93 689.618 787.666C690.406 787.287 691.17 786.924 691.911 786.57L691.989 786.533L691.992 786.532C701.081 782.203 706.851 779.456 713.86 770.696C710.958 781.182 709.911 787.945 708.351 800.448C734.66 787.556 743.076 778.57 754.137 761.44L757.815 753.947Z" fill="#C5B5A5"/>
<path d="M692.042 699.291L649.066 686.508C654.102 696.311 658.193 704.315 661.623 712.046L703.722 730.145L720.472 727.721L726.863 746.894L748.902 724.194L757.815 753.947L774.908 719.126C768.647 719.861 765.122 719.716 758.819 716.922C767.661 702.116 775.028 693.039 790.335 676.15C768.49 685.197 757.608 691.66 742.951 708.106L703.722 683.864L692.042 699.291Z" fill="#D2CFC9"/>
<path fill-rule="evenodd" clip-rule="evenodd" d="M835.508 567.058H831.541C829.608 568.772 828.375 571.427 825.811 579.841C822.869 574.177 821.557 572.631 819.64 571.907C814.395 580.541 814.25 587.433 814.044 597.277L814.044 597.286C814.01 598.946 813.973 600.69 813.91 602.541C783.387 632.263 766.985 650.375 738.317 683.864C708.098 670.861 691.362 662.078 661.623 645.737C660.479 651.155 660.277 654.93 659.97 660.666L659.969 660.688L659.96 660.857L659.919 661.614L659.888 662.181L659.872 662.484L659.86 662.706C626.197 633.751 605.918 617.079 571.324 588.637L571.322 588.635L568.399 586.232L561.126 541.273C554.226 544.91 550.057 546.513 542.173 548.766L542.25 547.788L542.276 547.455C543.091 537.111 543.578 530.92 545.038 527.609C543.325 527.813 541.491 528.079 539.72 528.336C535.858 528.896 532.293 529.413 530.933 529.152C528.949 528.771 554.093 504.074 571.264 496.975C567.225 496.269 563.444 495.739 559.903 495.242C551.049 494.001 543.694 492.969 537.545 489.923C547.541 483.111 560.068 479.738 577.671 474.997L577.691 474.992C579.602 474.477 581.572 473.947 583.605 473.394L583.164 472.805C576.328 463.675 572.363 458.38 534.68 398.903C553.312 374.905 565.821 359.86 581.408 343.437C586.911 337.639 592.798 331.669 599.473 325.073C628.945 336.004 642.703 339.677 657.331 343.581C671.47 347.355 686.421 351.346 717.16 362.319C739.397 354.124 755.276 349.732 785.921 342.043L832.422 383.035C829.763 398.647 826.916 410.822 823.911 421.162C819.922 434.885 815.656 445.374 811.182 456.371L811.182 456.372L811.181 456.374C808.069 464.026 804.857 471.923 801.568 481.328L817.656 517.692V525.405L817.877 529.152L823.393 534.441L831.541 536.865C833.077 535.26 834.572 533.702 836.029 532.184L836.029 532.183L836.029 532.183L836.03 532.182C856.425 510.921 869.153 497.653 879.585 477.581L819.867 526.066V517.692C823.322 509.021 825.159 503.642 828.021 491.906C832.681 495.019 835.555 495.954 841.244 495.873C840.843 495.344 840.444 494.831 840.051 494.331C839.501 493.631 838.961 492.956 838.437 492.301L838.422 492.283L838.419 492.279C832.884 485.366 829.029 480.552 832.869 470.308C841.321 468.56 846.595 467.001 850.941 464.404C853.058 463.139 854.955 461.628 856.892 459.73C855.636 457.257 852.435 456.274 837.718 455.983C837.821 455.54 837.922 455.108 838.02 454.684C839.806 447.024 840.894 442.355 841.244 431.079L855.056 413.008C853.808 409.617 852.803 407.008 851.991 404.901C850.469 400.952 849.626 398.766 849.142 396.503C848.541 393.696 848.491 390.77 848.38 384.216C848.355 382.764 848.328 381.134 848.29 379.288L845.905 376.916C766.419 297.863 716.038 247.756 597.049 209.811C525.422 262.42 494.896 304.958 448.729 392.071C455.509 398.632 459.715 399.409 467.467 398.903L471.11 468.766L472.213 489.923L473.638 517.251L426.255 504.248C418.189 497.138 413.581 493.193 405.318 486.176L382.834 440.556C380.934 443.15 380.603 445.4 382.834 452.457C391.444 469.053 397.505 482.002 409.28 507.995L475.616 533.78L476.939 555.598C468.99 558.472 465.224 561.251 463.275 574.331C460.082 598.948 463.82 641.51 467.84 687.286C472.796 743.712 478.181 805.022 471.541 843.625L476.939 816.096L509.048 816.929L588.608 818.994L738.317 816.096L754.137 851.138L774.908 848.052L772.698 905.794L754.137 921.87C710.751 939.199 674.913 949.694 642.603 954.303C640.611 977.186 637.529 996.239 630.963 1014.22L650.763 1034.46L677.534 1061.83L699.904 1092.68L701.667 1111.19L786.957 1107.67C827.148 1015.56 811.853 972.183 780.858 901.165V849.815L774.908 781.275L804.88 695.764L831.541 586.452L835.508 567.058ZM523.005 641.108L509.782 669.318L506.844 647.5L501.335 699.291L495.605 656.536L486.856 727.721L515.413 785.186L523.005 764.966L548.938 780.915L552.685 774.744L526.311 734.773L523.005 641.108ZM649.066 686.508L692.042 699.291L703.722 683.864L742.951 708.106C757.608 691.66 768.49 685.197 790.335 676.15C775.028 693.039 767.661 702.116 758.819 716.922C765.122 719.716 768.647 719.861 774.908 719.126L757.815 753.947L754.137 761.44C743.076 778.57 734.66 787.556 708.351 800.448C709.911 787.945 710.958 781.182 713.86 770.696C706.851 779.456 701.081 782.203 691.992 786.532L691.989 786.533L691.911 786.57C691.17 786.924 690.406 787.287 689.618 787.666C689.623 786.93 689.629 786.204 689.635 785.488L689.636 785.368L689.636 785.286L689.637 785.226L689.637 785.186C689.804 764.173 689.904 751.652 683.226 730.145C681.827 738.157 679.59 741.841 672.868 746.894C669.894 733.058 666.401 722.817 661.623 712.046C658.193 704.315 654.102 696.311 649.066 686.508Z" fill="#211F27"/>
<path d="M523.005 734.773V641.108L509.782 669.318L506.844 647.5L501.335 699.291L495.605 656.536L486.856 727.721L515.413 785.186L523.005 764.966L548.938 780.915L523.005 734.773Z" fill="#C5B5A5"/>
<path d="M848.29 379.288L845.905 376.916M848.29 379.288C847.492 378.495 846.697 377.704 845.905 376.916M848.29 379.288C848.328 381.134 848.355 382.764 848.38 384.216C848.491 390.77 848.541 393.696 849.142 396.503C849.626 398.766 850.469 400.952 851.991 404.901C852.803 407.008 853.808 409.617 855.056 413.008M855.056 413.008L873.128 396.258C878.426 417.078 879.936 460.917 879.585 477.581M855.056 413.008L841.244 431.079C840.894 442.355 839.806 447.024 838.02 454.684C837.922 455.108 837.821 455.54 837.718 455.983C852.435 456.274 855.636 457.257 856.892 459.73C854.955 461.628 853.058 463.139 850.941 464.404M879.585 477.581L819.867 526.066V517.692C823.322 509.021 825.16 503.642 828.021 491.906C832.681 495.019 835.555 495.954 841.244 495.873C840.843 495.344 840.444 494.831 840.051 494.331M879.585 477.581C869.153 497.653 856.425 510.921 836.03 532.182L836.029 532.183L836.029 532.183L836.028 532.184C834.572 533.702 833.077 535.26 831.541 536.865M831.541 536.865C835.165 547.912 837.127 554.13 835.508 567.058M831.541 536.865L823.393 534.441M835.508 567.058H831.541C829.608 568.772 828.375 571.427 825.811 579.841C822.869 574.177 821.557 572.631 819.64 571.907C814.395 580.541 814.251 587.433 814.044 597.277M835.508 567.058L831.541 586.452L804.88 695.764L774.908 781.275L780.858 849.815V901.165C811.853 972.183 827.148 1015.56 786.957 1107.67L701.667 1111.19L699.904 1092.68L677.534 1061.83L650.763 1034.46L630.963 1014.22M659.86 662.706C626.197 633.751 605.918 617.079 571.324 588.637M659.86 662.706L659.872 662.484M659.86 662.706C659.864 662.632 659.868 662.558 659.872 662.484M568.399 586.232L561.126 541.273C554.226 544.91 550.057 546.513 542.173 548.766M568.399 586.232L571.322 588.635M568.399 586.232C569.385 587.042 570.359 587.843 571.322 588.635M542.173 548.766L542.25 547.788M542.173 548.766C542.199 548.436 542.225 548.11 542.25 547.788M545.038 527.609L561.126 525.405L562.675 526.948H572.592C578.924 554.838 582.578 568.545 589.562 584.028L592.207 554.276C601.909 568.618 607.262 576.675 619.094 590.64C623.604 588.726 625.44 587.039 627.468 582.926C629.383 597.281 631.617 605.55 638.488 620.833C638.914 610.664 638.034 603.869 633.86 589.097C648.964 607.46 657.939 617.148 676.835 630.971C676.361 618.455 675.797 611.424 672.868 598.794C688.992 615.793 696.791 625.741 710.554 643.533L713.86 624.139L742.951 662.266C752.747 651.274 758.107 645.2 762.786 637.582C766.227 637.553 768.157 637.123 771.602 635.599C777.766 628.841 780.568 622.829 785.045 610.254C786.324 595.36 787.331 587.308 794.081 578.078C794.876 584.595 795.202 589.093 795.404 599.896C803.428 588.528 809.314 585.891 809.729 554.055L825.811 559.565C825.818 551.136 825.073 545.324 823.393 534.441M545.038 527.609C543.325 527.813 541.491 528.079 539.72 528.336C535.858 528.896 532.293 529.413 530.933 529.152C528.949 528.771 554.093 504.074 571.264 496.975C567.225 496.269 563.444 495.739 559.903 495.242C551.049 494.001 543.694 492.969 537.545 489.923C547.541 483.111 560.068 479.738 577.671 474.997M545.038 527.609C543.578 530.92 543.091 537.111 542.276 547.455M583.605 473.394L583.164 472.805M583.605 473.394C583.457 473.195 583.31 472.999 583.164 472.805M583.605 473.394C596.647 501.999 604.424 514.324 617.878 535.646L617.878 535.647M583.605 473.394C581.572 473.947 579.602 474.477 577.691 474.992M801.568 481.328L817.656 517.692V525.405M801.568 481.328C786.081 454.073 779.002 443.121 768.296 428.638M801.568 481.328C804.857 471.923 808.069 464.026 811.181 456.374L811.182 456.372L811.183 456.371C815.656 445.374 819.922 434.885 823.911 421.162M817.656 525.405C717.835 515.663 673.379 517.615 618.647 536.865M817.656 525.405L817.877 529.152M817.656 525.405C802.119 516.662 792.436 511.922 747.8 507.995C745.93 493.851 744.56 485.816 747.8 473.394M618.647 536.865C690.49 528.293 736.983 529.283 817.877 529.152M618.647 536.865L617.878 535.647M618.647 536.865C618.389 536.456 618.132 536.05 617.878 535.647M817.877 529.152L823.393 534.441M448.729 392.071C494.896 304.958 525.422 262.42 597.049 209.811C716.038 247.756 766.419 297.863 845.905 376.916M448.729 392.071L409.06 368.049C380.954 400.596 372.743 417.057 382.834 440.556M448.729 392.071C455.509 398.632 459.715 399.409 467.467 398.903L471.11 468.766M448.729 392.071L409.28 427.553L416.117 437.691L428.9 468.766L448.729 487.939M382.834 440.556C380.934 443.15 380.603 445.4 382.834 452.457C391.444 469.053 397.505 482.002 409.28 507.995L475.616 533.78L476.939 555.598C468.99 558.472 465.224 561.251 463.275 574.331C460.081 598.948 463.82 641.51 467.84 687.286C472.796 743.712 478.181 805.022 471.541 843.625M382.834 440.556L405.318 486.176C413.581 493.193 418.189 497.138 426.255 504.248L473.638 517.251L472.213 489.923M470.327 849.815C472.004 854.815 473.493 858.984 475.193 862.97M470.327 849.815C471.01 852.666 472.867 857.643 475.193 862.97M470.327 849.815L471.541 843.625M470.327 849.815C470.77 847.824 471.174 845.759 471.541 843.625M486.856 883.755L476.498 897.419M486.856 883.755C482.357 877.061 479.328 871.865 476.877 866.71M486.856 883.755C484.108 881.004 480.221 873.912 476.877 866.71M476.498 897.419C396.282 890.587 280.049 917.559 309.885 778.63C339.721 639.702 150.33 621.714 139.306 629.208C128.282 636.701 124.985 651.026 139.306 659.621C153.627 668.216 305.042 652.789 281.455 778.63C258.22 902.598 338.223 936.152 458.657 918.796M476.498 897.419L458.657 918.796M458.657 918.796C476.939 995.05 475.193 1038.76 459.643 1102.19L558.415 1107.67C599.53 1071.03 620.054 1044.1 630.963 1014.22M458.657 918.796C527.358 949.159 577.912 963.53 642.603 954.303M523.005 641.108V734.773L548.938 780.915M523.005 641.108L526.311 734.773L552.685 774.744L548.938 780.915M523.005 641.108L509.782 669.318L506.844 647.5L501.335 699.291L495.605 656.536L486.856 727.721L515.413 785.186L523.005 764.966L548.938 780.915M588.608 818.994L738.317 816.096L754.137 851.138M588.608 818.994L597.716 883.755M588.608 818.994L509.048 816.929M763.888 872.735L597.716 883.755M763.888 872.735V883.755L733.475 886.139M763.888 872.735L754.137 851.138M597.716 883.755L589.556 897.419M597.716 883.755L515.413 877.143M589.556 897.419L733.475 886.139M589.556 897.419L576.559 924.967M589.556 897.419L542.949 893.06L516.834 890.587M754.137 851.138L774.908 848.052L772.698 905.794L754.137 921.87C710.751 939.199 674.913 949.694 642.603 954.303M733.475 886.139V914.609L576.559 924.967M576.559 924.967L509.782 916.593L516.834 890.587M516.834 890.587L515.413 877.143M661.623 712.046C666.401 722.817 669.894 733.058 672.868 746.894C679.59 741.841 681.827 738.157 683.226 730.145C689.904 751.652 689.804 764.173 689.637 785.186M661.623 712.046C658.193 704.315 654.102 696.311 649.066 686.508L692.042 699.291L703.722 683.864L742.951 708.106C757.608 691.66 768.49 685.197 790.335 676.15C775.028 693.039 767.661 702.116 758.819 716.922C765.122 719.716 768.647 719.861 774.908 719.126L757.815 753.947M661.623 712.046L703.722 730.145L720.472 727.721L726.863 746.894L748.902 724.194L757.815 753.947M757.815 753.947L754.137 761.44C743.076 778.57 734.66 787.556 708.351 800.448C709.911 787.946 710.958 781.182 713.86 770.696C706.851 779.456 701.081 782.203 691.992 786.532M581.408 343.437C565.821 359.86 553.312 374.905 534.68 398.903C572.363 458.38 576.328 463.675 583.164 472.805M581.408 343.437C586.911 337.639 592.798 331.669 599.473 325.073C628.945 336.004 642.703 339.677 657.331 343.581C671.47 347.355 686.421 351.346 717.16 362.319C739.397 354.124 755.276 349.732 785.921 342.043L832.422 383.035C829.763 398.647 826.916 410.822 823.911 421.162M581.408 343.437L596.835 352.406M823.911 421.162C812.964 401.203 806.684 391.053 796.285 367.167C764.664 379.982 750.652 386.865 728.626 398.903C687.313 386.252 668.753 389.092 637.386 375.983L596.835 352.406M596.835 352.406L561.126 396.919L622.62 485.074L649.287 477.581M649.287 477.581L677.276 509.978H739.866C740.875 496.161 741.675 488.524 739.866 473.394M649.287 477.581L627.505 449.28M739.866 473.394H730.61C731.346 471.052 731.984 468.878 732.539 466.782M739.866 473.394H747.8M747.8 473.394H755.734C747.483 467.506 744.653 459.388 742.07 438.352H736.119C735.697 450.749 734.836 458.1 732.539 466.782M732.539 466.782C721.489 456.917 713.169 451.291 717.16 442.099C720.463 438.635 722.331 437.371 725.761 439.674C735.763 448.513 734.304 455.147 732.539 466.782ZM699.756 407.278L720.031 412.346M699.756 407.278C696.794 406.284 692.99 405.655 689.177 404.901M699.756 407.278C696.183 406.387 692.445 405.748 689.177 404.901M614.025 396.32L630.334 395.377C639.573 397.967 652.198 399.534 664.739 401.091L664.739 401.091C673.941 402.233 681.438 403.37 689.177 404.901M614.025 396.32L603.667 396.919C606.732 387.504 608.931 382.242 614.025 372.897C645.068 391.332 661.479 397.716 689.177 404.901M614.025 396.32C615.811 406.191 616.98 412.601 627.505 423.119M637.386 431.961C645.486 440.889 656.552 440.952 683.226 430.038M637.386 431.961C634.013 428.823 630.425 425.929 627.468 422.998C627.481 423.038 627.493 423.079 627.505 423.119M637.386 431.961C633.394 428.673 630.153 425.766 627.505 423.119M720.031 412.346L729.287 413.008M720.031 412.346L693.929 424.917M683.226 430.038L689.177 429.096M683.226 430.038C683.183 430.074 683.139 430.11 683.096 430.146M729.287 413.008C748.101 420.388 759.502 425.203 768.296 428.638M729.287 413.008C757.052 402.397 773.503 396.646 798.709 385.459C801.48 390.485 802.884 393.665 804.66 401.207H789.012M729.287 413.008C752.602 406.777 765.672 403.354 789.012 401.207M801.795 414.55C797.167 432.181 794.034 433.739 782.18 433.944M801.795 414.55C798.048 411.245 793.825 406.476 786.588 406.396C778.146 408.67 775.319 410.74 772.704 415.432C770.219 429.112 776.287 430.461 782.18 433.944M801.795 414.55C800.323 408.98 797.891 403.24 789.012 401.207M782.18 433.944C778.321 432.734 772.894 430.434 768.296 428.638M571.322 588.635L571.324 588.637M571.322 588.635C571.322 588.636 571.323 588.636 571.324 588.637M850.941 464.404C846.595 467.001 841.321 468.56 832.869 470.308C829.029 480.552 832.884 485.366 838.419 492.279M850.941 464.404C847.192 491.67 844.66 493.778 840.051 494.331M840.051 494.331C839.501 493.631 838.961 492.956 838.437 492.301M693.929 424.917C696.459 415.305 696.713 409.28 679.97 406.112C675.975 405.057 672.455 404.702 669.562 404.901C665.689 405.166 661.568 412.217 660.306 414.11C658.466 416.87 668.721 430.624 683.096 430.146M693.929 424.917L691.976 426.635M693.929 424.917C693.523 425.108 692.775 425.837 691.976 426.635M689.177 429.096C689.718 428.926 690.893 427.717 691.976 426.635M689.177 429.096C687.087 429.752 685.053 430.081 683.096 430.146M689.177 429.096L691.976 426.635M627.505 423.119C632.947 441.431 628.219 443.594 619.535 447.168C622.334 448.024 624.983 448.727 627.505 449.28M627.505 449.28C650.192 454.257 662.651 447.098 683.096 430.146M471.11 468.766L448.729 440.556L432.646 437.691L441.902 445.845C449.066 461.458 453.645 469.701 463.275 483.311L448.729 487.939M471.11 468.766L472.213 489.923M472.213 489.923C464.467 489.797 459.557 491.483 450.718 494.771L448.729 487.939M838.419 492.279L838.422 492.283M838.419 492.279C838.42 492.281 838.421 492.282 838.422 492.283M577.671 474.997L577.691 474.992M577.671 474.997C577.678 474.995 577.684 474.994 577.691 474.992M542.276 547.455L542.25 547.788M542.276 547.455C542.267 547.566 542.259 547.677 542.25 547.788M659.97 660.666C660.277 654.93 660.479 651.155 661.623 645.737C691.362 662.078 708.098 670.861 738.317 683.864C766.985 650.375 783.387 632.263 813.91 602.541C813.973 600.69 814.01 598.946 814.044 597.286M659.97 660.666L659.969 660.688M659.97 660.666C659.97 660.673 659.969 660.68 659.969 660.688M814.044 597.277L814.044 597.286M814.044 597.277C814.044 597.28 814.044 597.283 814.044 597.286M689.637 785.186L689.637 785.226M689.637 785.186C689.637 785.199 689.637 785.213 689.637 785.226M691.992 786.532L691.989 786.533M691.992 786.532C691.991 786.532 691.99 786.533 691.989 786.533M659.969 660.688L659.96 660.857M659.969 660.688C659.966 660.744 659.963 660.8 659.96 660.857M838.422 492.283L838.437 492.301M838.422 492.283C838.427 492.289 838.432 492.295 838.437 492.301M691.989 786.533L691.911 786.57M691.989 786.533C691.963 786.546 691.937 786.558 691.911 786.57M689.637 785.226L689.636 785.286M689.637 785.226C689.637 785.246 689.636 785.266 689.636 785.286M659.919 661.614L659.96 660.857M659.919 661.614L659.888 662.181M659.919 661.614C659.909 661.801 659.899 661.99 659.888 662.181M659.919 661.614C659.933 661.358 659.946 661.106 659.96 660.857M689.636 785.286L689.636 785.368M689.636 785.286C689.636 785.313 689.636 785.341 689.636 785.368M691.911 786.57C691.17 786.924 690.406 787.287 689.618 787.666C689.623 786.93 689.629 786.204 689.635 785.488M475.193 862.97C475.732 864.205 476.296 865.459 476.877 866.71M475.193 862.97C475.729 864.228 476.286 865.468 476.877 866.71M509.048 816.929L476.939 816.096L471.541 843.625M509.048 816.929L515.413 877.143M659.888 662.181L659.872 662.484M659.888 662.181C659.883 662.281 659.877 662.382 659.872 662.484M689.636 785.368L689.635 785.488M689.636 785.368C689.635 785.408 689.635 785.448 689.635 785.488M642.603 954.303C640.611 977.186 637.529 996.239 630.963 1014.22M749.455 466.782C754.852 459.95 759.921 455.102 760.582 449.812C760.055 441.438 757.856 436.992 751.326 439.674C744.796 442.357 742.951 452.981 749.455 466.782Z" stroke="black" stroke-width="0.440775"/>
<path d="M805.466 694.05L843.369 696.654L850.646 697.153L1001.17 707.494L1090.21 589.586L976.487 563.312L953.346 610.964L850.646 608.54L832.127 584.738L805.466 694.05Z" fill="#211F27"/>
<path d="M805.466 694.05L796.871 718.906C809.447 701.995 819.696 695.639 843.369 696.654L805.466 694.05Z" fill="#211F27"/>
<path d="M805.466 694.05L832.127 584.738L850.646 608.54L953.346 610.964L976.487 563.312L1090.21 589.586L1001.17 707.494L850.646 697.153M805.466 694.05L796.871 718.906C809.447 701.995 819.696 695.639 843.369 696.654M805.466 694.05L843.369 696.654M850.646 697.153C848.084 696.92 845.664 696.752 843.369 696.654M850.646 697.153L843.369 696.654" stroke="black" stroke-width="0.440775"/>
<path d="M545.412 1102.71L539.188 1131.13C570.315 1140.4 582.216 1151.86 601.831 1178.88L466.513 1178.88L467.359 1154.65L472.463 1099.4L545.412 1102.71Z" fill="black"/>
<path d="M545.412 1102.71L539.188 1131.13C570.315 1140.4 582.216 1151.86 601.831 1178.88L466.513 1178.88L467.359 1154.65L472.463 1099.4L545.412 1102.71Z" stroke="black" stroke-width="0.440775"/>
<path d="M708.057 1107.34L705.633 1178.97L856.378 1179.41C844.036 1158.91 811.639 1129.16 779.022 1122.55L782.548 1104.25L708.057 1107.34Z" fill="black"/>
<path d="M708.057 1107.34L705.633 1178.97L856.378 1179.41C844.036 1158.91 811.639 1129.16 779.022 1122.55L782.548 1104.25L708.057 1107.34Z" stroke="black" stroke-width="0.440775"/>
<path d="M981.205 268.166L1003.6 245.785L988.592 231.691L964.166 244.43L963.848 270.551L976.444 274.069L996.581 367.502L1064.09 455.074C1089.58 480.149 1103.3 494.34 1142.7 516.205C1211.14 530.303 1247.37 537.54 1256.74 533.175L1146.68 504.728C1106.85 483.99 1093.63 471.414 1066.94 449.306L1002.92 364.877L981.205 268.166Z" fill="#3E3030"/>
<path d="M1291.13 550.817C1287.03 538.965 1293.6 514.815 1301 512.438C1298.78 508.61 1298.69 506.081 1300.38 500.905C1294.03 501.06 1288.42 501.266 1283.52 501.335C1264.18 503.256 1257.92 501.653 1250.19 496.796L1246.93 503.168L1263.2 509.752C1258.97 517.301 1257.82 522.672 1256.74 533.175C1258.36 539.165 1258.38 541.78 1258.25 546.309C1270.62 547.286 1277.79 548.291 1291.13 550.817Z" fill="#3E3030"/>
<path d="M1003.6 245.785L981.205 268.166L1002.92 364.877L1066.94 449.306C1093.63 471.414 1106.85 483.99 1146.68 504.728L1256.74 533.175C1257.82 522.672 1258.97 517.301 1263.2 509.752L1246.93 503.168L1250.19 496.796C1148.71 442.802 1089.74 418.192 1023.69 267.386L1010.64 257.502L1002.46 278.361C1019.85 322.653 1032.41 348.974 1059.08 398.178C1007.17 329.104 979.159 290.743 1007.72 248.34L1003.6 245.785Z" fill="#E7A220"/>
<path d="M1100.88 368.853C1065.26 324.037 1049.69 300.974 1039.47 268.055L1007.72 248.34C979.159 290.743 1007.17 329.104 1059.08 398.178C1032.41 348.974 1019.85 322.653 1002.46 278.361L1010.64 257.502L1023.69 267.386C1089.74 418.192 1148.71 442.802 1250.19 496.796C1257.92 501.653 1264.18 503.256 1283.52 501.335C1274.55 501.462 1267.93 501.13 1263.41 499.182L1195.73 443.351L1155.99 414.383L1100.88 368.853Z" fill="#F4C63F"/>
<path d="M1003.6 245.785L981.205 268.166L1002.92 364.877L1066.94 449.306C1093.63 471.414 1106.85 483.99 1146.68 504.728L1256.74 533.175M1003.6 245.785L988.592 231.691L964.166 244.43L963.848 270.551L976.444 274.069L996.581 367.502L1064.09 455.074C1089.58 480.149 1103.3 494.34 1142.7 516.205C1211.14 530.303 1247.37 537.54 1256.74 533.175M1003.6 245.785L1007.72 248.34M1256.74 533.175C1258.36 539.165 1258.38 541.78 1258.25 546.309C1270.62 547.286 1277.79 548.291 1291.13 550.817C1287.03 538.965 1293.6 514.815 1301 512.438C1298.78 508.61 1298.69 506.081 1300.38 500.905C1294.03 501.06 1288.42 501.266 1283.52 501.335M1256.74 533.175C1257.82 522.672 1258.97 517.301 1263.2 509.752L1246.93 503.168L1250.19 496.796M1007.72 248.34L1039.47 268.055C1049.69 300.974 1065.26 324.037 1100.88 368.853L1155.99 414.383L1195.73 443.351L1263.41 499.182C1267.93 501.13 1274.55 501.462 1283.52 501.335M1007.72 248.34C979.159 290.743 1007.17 329.104 1059.08 398.178C1032.41 348.974 1019.85 322.653 1002.46 278.361L1010.64 257.502L1023.69 267.386C1089.74 418.192 1148.71 442.802 1250.19 496.796M1250.19 496.796C1257.92 501.653 1264.18 503.256 1283.52 501.335" stroke="black" stroke-width="0.403548"/>
<path d="M1090.11 595.363L1102.23 597.126L1114.35 508.089L1105.98 505.785L1018.23 481.643L998.207 476.133L965.148 566.492L976.388 569.089L1090.11 595.363Z" fill="#461B46"/>
<path d="M1162.05 372.236L1133.18 357.47L1105.98 441.878L1133.97 448.27L1162.05 372.236Z" fill="#461B49"/>
<path d="M1193.79 396.258L1166.68 378.722L1140.57 440.776L1134.85 459.163H1159.38L1175.77 429.191L1193.79 396.258Z" fill="#461B49"/>
<path d="M1079.53 459.163L1065.91 423.586L1064.76 420.596L1070.71 378.722L1068 380.719L1061.83 420.596L1079.53 459.163Z" fill="black"/>
<path fill-rule="evenodd" clip-rule="evenodd" d="M1105.98 429.191V441.878L1133.18 357.47L1105.98 429.191ZM1133.97 448.27L1140.57 440.776L1166.68 378.722L1162.05 372.236L1133.97 448.27Z" fill="black"/>
<path d="M1087.01 434.403L1089.23 425.697L1071.85 422.074L1087.01 434.403Z" fill="#461B49"/>
<path d="M1159.38 459.163H1134.85L1140.57 440.776L1133.97 448.27L1105.98 441.878V429.191L1089.23 425.697L1087.01 434.403L1071.85 422.074L1064.76 420.596L1065.91 423.586H1070.59L1089.34 438.341L1091.09 428.865L1104.75 432.622L1103.21 445.72L1131.42 451.45L1132.96 460.171L1158.58 461.052L1159.38 459.163Z" fill="black"/>
<path d="M1159.38 459.163L1158.58 461.052H1161.17L1177.92 430.418L1175.77 429.191L1159.38 459.163Z" fill="black"/>
<path fill-rule="evenodd" clip-rule="evenodd" d="M1018.23 481.643L1034.13 439.99L1026.64 411.119L1028.94 409.427L1068 380.719L1061.83 420.596L1079.53 459.163L1116.21 499.737L1105.98 505.785L1018.23 481.643ZM1089.23 425.697L1105.98 429.191L1128.77 355.453L1120.18 351.52L1079.53 335.967L1078.64 340.28L1070.71 378.722L1064.76 420.596L1071.85 422.074L1089.23 425.697Z" fill="#461B49"/>
<path d="M1105.98 429.191L1133.18 357.47L1128.77 355.453L1105.98 429.191Z" fill="black"/>
<path d="M1068 380.719L1070.71 378.722L1078.64 340.28L1077.2 338.076L1068.83 377.305L1027.84 407.939L1028.94 409.427L1068 380.719Z" fill="black"/>
<path d="M561.529 831.186C543.146 796.932 532.314 777.317 522.079 736.316C519.924 696.263 522.894 679.907 525.826 646.839L476.019 556.26C466.203 560.84 463.438 566.082 461.914 578.739C439.912 647.326 410.784 747.997 411.886 761.44C412.988 774.884 450.425 826.413 471.831 858.677L561.529 831.186Z" fill="#211F27"/>
<path d="M587.314 867.226L574.091 827.336L561.529 831.186L471.831 858.677L461.914 861.717L476.019 900.284L485.936 897.339L575.634 870.696L587.314 867.226Z" fill="#401945"/>
<path d="M485.936 897.339C494.71 924.383 500.236 939.587 515.247 967.062L541.253 960.45L525.826 916.373L528.691 915.271L544.339 959.128L569.904 950.973L552.934 907.557L555.578 906.235L572.769 949.871L600.537 941.276C595.328 924.202 592.341 914.69 584.229 900.284C588.826 905.353 596.981 913.067 608.661 918.136L615.493 904.912C609.763 893.452 595.963 875.491 575.634 870.696L485.936 897.339Z" fill="#401945"/>
<path d="M525.826 916.373L541.253 960.45L544.339 959.128L528.691 915.271L525.826 916.373Z" fill="black"/>
<path d="M552.934 907.557L569.904 950.973L572.769 949.871L555.578 906.235L552.934 907.557Z" fill="black"/>
<path d="M561.529 831.186L574.091 827.336L587.314 867.226L575.634 870.696M561.529 831.186C543.146 796.932 532.314 777.317 522.079 736.316C519.924 696.263 522.894 679.907 525.826 646.839L476.019 556.26C466.203 560.84 463.438 566.082 461.914 578.739C439.912 647.326 410.784 747.997 411.886 761.44C412.988 774.884 450.425 826.413 471.831 858.677M561.529 831.186L471.831 858.677M471.831 858.677L461.914 861.717L476.019 900.284L485.936 897.339M485.936 897.339C494.71 924.383 500.236 939.587 515.247 967.062L541.253 960.45M485.936 897.339L575.634 870.696M541.253 960.45L525.826 916.373L528.691 915.271L544.339 959.128M541.253 960.45L544.339 959.128M544.339 959.128L569.903 950.973M569.903 950.973L552.934 907.557L555.578 906.235L572.769 949.871M569.903 950.973L572.769 949.871M572.769 949.871L600.537 941.276C595.328 924.202 592.341 914.69 584.229 900.284C588.826 905.353 596.981 913.067 608.661 918.136L615.493 904.912C609.763 893.452 595.963 875.491 575.634 870.696" stroke="black" stroke-width="0.440775"/>
<path d="M760.293 772.778L775.262 770.546L773.501 760.863L760.495 758.813L752.946 768.759L756.785 773.692L737.958 815.317L738.997 868.156C741.665 885.041 742.901 894.393 751.821 913.995C774.11 938.87 785.975 951.953 790.815 952.939L756.614 910.717C747.209 891.427 745.702 882.834 741.733 866.751L741.14 816.11L760.293 772.778Z" fill="#3E3030"/>
<path d="M799.012 969.495C800.807 963.776 810.197 956.364 813.718 957.556C813.951 955.453 814.636 954.455 816.756 952.946C814.272 951.201 812.06 949.686 810.157 948.319C802.179 943.558 800.232 941.164 798.641 937.099L795.578 938.621L799.957 945.776C796.186 947.475 794.217 949.211 790.815 952.939C789.735 955.702 788.999 956.712 787.661 958.415C792.138 962.308 794.605 964.732 799.012 969.495Z" fill="#3E3030"/>
<path d="M775.262 770.546L760.293 772.778L741.14 816.11L741.733 866.751C745.702 882.834 747.209 891.427 756.614 910.717L790.815 952.939C794.217 949.211 796.186 947.475 799.957 945.776L795.578 938.621L798.641 937.099C775 887.5 759.34 861.279 776.838 784.556L774.634 777.049L765.562 782.739C759.649 804.699 756.992 818.384 753.251 844.873C752.942 803.572 753.088 780.87 776.117 772.698L775.262 770.546Z" fill="#E7A220"/>
<path d="M777.648 845.489C776.703 818.142 777.28 804.856 782.712 789.301L776.117 772.698C753.088 780.87 752.942 803.572 753.251 844.873C756.992 818.384 759.649 804.699 765.562 782.739L774.634 777.049L776.838 784.556C759.34 861.279 775 887.5 798.641 937.099C800.232 941.164 802.179 943.558 810.157 948.319C806.673 945.817 804.225 943.808 803.042 941.774L792.911 901.08L785.879 878.653L777.648 845.489Z" fill="#F4C63F"/>
<path d="M775.262 770.546L760.293 772.778L741.14 816.11L741.733 866.751C745.702 882.834 747.209 891.427 756.614 910.717L790.815 952.939M775.262 770.546L773.501 760.863L760.495 758.813L752.946 768.759L756.785 773.692L737.958 815.317L738.997 868.156C741.665 885.041 742.901 894.393 751.821 913.995C774.11 938.87 785.975 951.953 790.815 952.939M775.262 770.546L776.117 772.698M790.815 952.939C789.735 955.702 788.999 956.712 787.661 958.415C792.138 962.308 794.605 964.732 799.012 969.495C800.807 963.776 810.197 956.364 813.718 957.556C813.951 955.453 814.636 954.455 816.756 952.946C814.272 951.201 812.06 949.686 810.157 948.319M790.815 952.939C794.217 949.211 796.186 947.475 799.956 945.776L795.578 938.621L798.641 937.099M776.117 772.698L782.712 789.301C777.28 804.856 776.703 818.142 777.648 845.489L785.879 878.653L792.911 901.08L803.042 941.774C804.225 943.808 806.673 945.817 810.157 948.319M776.117 772.698C753.088 780.87 752.942 803.572 753.251 844.873C756.992 818.384 759.649 804.699 765.562 782.739L774.634 777.049L776.838 784.556C759.34 861.279 775 887.5 798.641 937.099M798.641 937.099C800.232 941.164 802.179 943.558 810.157 948.319" stroke="black" stroke-width="0.192887"/>
<path d="M722.016 778.731L736.984 776.499L735.224 766.816L722.217 764.766L714.668 774.712L718.507 779.645L699.681 821.27L700.72 874.11C703.388 890.994 704.624 900.347 713.544 919.948C735.832 944.824 747.697 957.906 752.538 958.893L718.337 916.67C708.932 897.38 707.425 888.787 703.456 872.704L702.862 822.063L722.016 778.731Z" fill="#3E3030"/>
<path d="M760.735 975.448C762.53 969.729 771.92 962.317 775.441 963.51C775.674 961.406 776.358 960.409 778.478 958.9C775.995 957.154 773.783 955.639 771.88 954.272C763.902 949.511 761.955 947.117 760.364 943.052L757.301 944.574L761.679 951.729C757.909 953.428 755.939 955.165 752.538 958.893C751.458 961.655 750.721 962.665 749.383 964.368C753.861 968.262 756.328 970.685 760.735 975.448Z" fill="#3E3030"/>
<path d="M736.984 776.499L722.016 778.731L702.862 822.063L703.456 872.704C707.425 888.787 708.932 897.38 718.337 916.67L752.538 958.893C755.939 955.165 757.909 953.428 761.679 951.729L757.301 944.574L760.364 943.052C736.722 893.453 721.062 867.232 738.56 790.509L736.357 783.002L727.285 788.692C721.372 810.653 718.715 824.337 714.974 850.826C714.665 809.526 714.81 786.824 737.839 778.651L736.984 776.499Z" fill="#E7A220"/>
<path d="M739.371 851.443C738.426 824.095 739.003 810.809 744.435 795.254L737.839 778.651C714.81 786.824 714.665 809.526 714.974 850.826C718.715 824.337 721.372 810.653 727.285 788.692L736.357 783.002L738.56 790.509C721.062 867.232 736.722 893.453 760.364 943.052C761.955 947.117 763.902 949.511 771.88 954.272C768.396 951.77 765.948 949.761 764.764 947.727L754.634 907.033L747.602 884.606L739.371 851.443Z" fill="#F4C63F"/>
<path d="M736.984 776.499L722.016 778.731L702.862 822.063L703.456 872.704C707.425 888.787 708.932 897.38 718.337 916.67L752.538 958.893M736.984 776.499L735.224 766.816L722.217 764.766L714.668 774.712L718.507 779.645L699.681 821.27L700.72 874.11C703.388 890.994 704.624 900.347 713.544 919.948C735.832 944.824 747.697 957.906 752.538 958.893M736.984 776.499L737.839 778.651M752.538 958.893C751.458 961.655 750.721 962.665 749.383 964.368C753.861 968.262 756.328 970.685 760.735 975.448C762.53 969.729 771.92 962.317 775.441 963.51C775.674 961.406 776.358 960.409 778.478 958.9C775.995 957.154 773.783 955.639 771.88 954.272M752.538 958.893C755.939 955.165 757.909 953.428 761.679 951.729L757.301 944.574L760.364 943.052M737.839 778.651L744.435 795.254C739.003 810.809 738.426 824.095 739.371 851.443L747.602 884.606L754.634 907.033L764.764 947.727C765.948 949.761 768.396 951.77 771.88 954.272M737.839 778.651C714.81 786.824 714.665 809.526 714.974 850.826C718.715 824.337 721.372 810.653 727.285 788.692L736.357 783.002L738.56 790.509C721.062 867.232 736.722 893.453 760.364 943.052M760.364 943.052C761.955 947.117 763.902 949.511 771.88 954.272" stroke="black" stroke-width="0.192887"/>
<path d="M683.23 784.02L698.199 781.788L696.439 772.106L683.432 770.055L675.883 780.001L679.722 784.934L660.895 826.559L661.935 879.399C664.603 896.283 665.839 905.636 674.759 925.237C697.047 950.113 708.912 963.195 713.753 964.182L679.552 921.959C670.146 902.669 668.64 894.076 664.671 877.993L664.077 827.352L683.23 784.02Z" fill="#3E3030"/>
<path d="M721.95 980.737C723.745 975.018 733.135 967.606 736.655 968.799C736.889 966.695 737.573 965.698 739.693 964.189C737.21 962.443 734.997 960.928 733.094 959.561C725.117 954.8 723.17 952.406 721.579 948.341L718.515 949.863L722.894 957.018C719.124 958.717 717.154 960.454 713.753 964.182C712.673 966.944 711.936 967.954 710.598 969.657C715.075 973.551 717.543 975.974 721.95 980.737Z" fill="#3E3030"/>
<path d="M698.199 781.788L683.23 784.02L664.077 827.352L664.671 877.993C668.64 894.076 670.146 902.669 679.552 921.959L713.753 964.182C717.154 960.454 719.124 958.717 722.894 957.018L718.515 949.863L721.579 948.341C697.937 898.742 682.277 872.521 699.775 795.799L697.572 788.291L688.5 793.981C682.586 815.942 679.929 829.626 676.188 856.116C675.88 814.815 676.025 792.113 699.054 783.941L698.199 781.788Z" fill="#E7A220"/>
<path d="M700.586 856.732C699.64 829.384 700.218 816.098 705.649 800.543L699.054 783.941C676.025 792.113 675.88 814.815 676.188 856.116C679.929 829.626 682.586 815.942 688.5 793.981L697.572 788.291L699.775 795.799C682.277 872.521 697.937 898.742 721.579 948.341C723.17 952.406 725.117 954.8 733.094 959.561C729.611 957.059 727.162 955.05 725.979 953.016L715.848 912.322L708.817 889.895L700.586 856.732Z" fill="#F4C63F"/>
<path d="M698.199 781.788L683.23 784.02L664.077 827.352L664.671 877.993C668.64 894.076 670.146 902.669 679.552 921.959L713.753 964.182M698.199 781.788L696.439 772.106L683.432 770.055L675.883 780.001L679.722 784.934L660.895 826.559L661.935 879.399C664.603 896.283 665.839 905.636 674.759 925.237C697.047 950.113 708.912 963.195 713.753 964.182M698.199 781.788L699.054 783.941M713.753 964.182C712.673 966.944 711.936 967.954 710.598 969.657C715.075 973.551 717.543 975.974 721.95 980.737C723.745 975.018 733.135 967.606 736.655 968.799C736.889 966.695 737.573 965.698 739.693 964.189C737.21 962.443 734.997 960.928 733.094 959.561M713.753 964.182C717.154 960.454 719.124 958.717 722.894 957.018L718.515 949.863L721.579 948.341M699.054 783.941L705.649 800.543C700.218 816.098 699.64 829.384 700.586 856.732L708.817 889.895L715.848 912.322L725.979 953.016C727.162 955.05 729.611 957.059 733.094 959.561M699.054 783.941C676.025 792.113 675.88 814.815 676.188 856.116C679.929 829.626 682.586 815.942 688.5 793.981L697.572 788.291L699.775 795.799C682.277 872.521 697.937 898.742 721.579 948.341M721.579 948.341C723.17 952.406 725.117 954.8 733.094 959.561" stroke="black" stroke-width="0.192887"/>
</svg>
