<svg width="1021" height="836" viewBox="0 0 1021 836" fill="none" xmlns="http://www.w3.org/2000/svg">
<path d="M364.13 507.478C333.198 533.869 353.967 546.548 384.591 541.589L383.801 537.131C358.283 545.896 336.363 534.606 365.71 507.534L364.13 507.478Z" fill="black"/>
<path d="M237.791 389.857C214.849 376.789 201.074 391.668 223.91 406.45L223.037 417.652C207.589 431.7 209.178 439.687 219.86 451.599L221.658 451.936C212.952 440.894 207.78 433.287 224.06 418.049L225.131 405.747C202.895 390.4 215.111 380.551 237.375 390.678L237.791 389.857Z" fill="black"/>
<path d="M179.979 358.574C198.604 364.613 207.774 363.061 208.957 349.005C224.772 338.273 210.786 310.941 190.669 320.508C184.434 313.048 177.66 308.179 167.729 320.483L167.862 318.703C177.586 307.628 182.353 309.971 190.606 318.442C206.469 312.211 227.352 330.041 211.659 349.252C206.369 367.908 196.515 365.175 181.241 360.631L179.979 358.574Z" fill="black"/>
<path d="M352.796 689.062C349.506 698.413 351.291 701.758 357.776 705.987C358.76 705.382 359.781 704.72 360.842 704.007C353.895 700.812 351.712 694.987 355.166 684.716L355.158 684.722C345.881 692.139 342.312 694.993 344.47 669.621C337.888 669.472 335.198 666.77 334.331 662.27C334.148 661.316 334.046 660.281 334.007 659.172C333.983 658.497 333.989 659.9 334.007 659.172L331.361 659.021C331.035 659.403 331.518 658.484 331.361 659.021C331.093 659.941 331.062 661.054 331.228 662.238C331.958 667.468 336.52 674.079 341.394 671.569C340.411 694.695 342.499 699.752 352.796 689.062Z" fill="black"/>
<path d="M307.423 615.269C307.448 615.123 306.639 615.221 306.665 615.074L309.616 612.299C290.31 613.372 286.358 605.091 287.744 583.116L286.052 586.22C284.565 608.925 290.579 616.494 307.423 615.269Z" fill="black"/>
<path d="M331.228 662.238C331.062 661.054 331.093 659.941 331.361 659.021C316.292 657.514 305.613 644.877 309.388 615.092C308.717 615.164 308.063 615.223 307.423 615.269C302.562 643.784 313.022 661.139 331.228 662.238Z" fill="black"/>
<path d="M334.007 659.172C334.046 660.281 334.148 661.316 334.331 662.27C343.16 661.935 353.562 658.046 364.783 650.093L366.617 647.469C355.997 654.868 344.185 659.332 334.007 659.172Z" fill="black"/>
<path d="M151.578 467.522C133.381 494.245 93.3916 439.819 134.615 432.902L134.962 430.537C89.2158 441.569 136.33 498.954 153.674 469.333L151.578 467.522Z" fill="black"/>
<path d="M213.331 599.455C159.156 610.184 229.731 658.737 249.367 631.59L248.944 630.151C230.619 656.814 160.348 610.292 217.402 599.122L213.331 599.455Z" fill="black"/>
<path d="M342.372 586.326C345.617 614.214 349.068 618.808 357.02 614.851C353.933 636.959 363.186 640.929 376.972 636.604C368.033 654.157 376.088 665.606 398.25 661.094L398.354 659.677C373.902 664.027 370.673 653.346 377.838 636.005C361.493 639.097 355.6 636.3 357.745 613.773C349.084 618.027 346.017 610.978 343.097 585.248L342.372 586.326Z" fill="black"/>
<path d="M398.25 661.094C397.491 669.21 400.262 669.919 412.274 662.7C416.153 675.569 420.99 675.623 430.221 674.098L429.842 672.823C420.207 675.159 416.585 673 413.713 662.277L412.858 661.142C399.096 669.518 398.234 667.275 399.596 660.354L398.354 659.677L398.25 661.094Z" fill="black"/>
<path d="M257.292 527.448C250.948 549.586 265.683 566.942 285.175 570.842C292.786 580.245 297.106 576.77 304.814 570.275C309.591 585.688 313.822 588.752 326.626 575.323C329.425 581.794 333.271 583.94 342.372 586.326L343.097 585.248C333.258 583.134 330.199 580.304 326.73 573.906C314.148 587.688 309.872 584.571 304.839 568.882C293.834 579.052 290.786 576.25 285.9 569.763C260.712 562.991 253.75 545.107 258.731 527.024L257.292 527.448Z" fill="black"/>
<path d="M199.546 398.504C174.843 398.303 169.532 410.064 189.73 425.368C159.355 437.266 174.314 447.401 195.771 451.213L197.21 450.79C168.341 444.605 164.75 436.384 190.878 425.728C165.663 405.211 184.136 399.652 199.877 399.627L200.506 398.222L199.546 398.504Z" fill="black"/>
<path d="M203.9 471.754C199.308 489.668 205.57 492.859 230.538 487.891C241.752 504.179 257.489 499.695 252.801 480.298L251.945 479.163C255.971 498.962 242.733 503.356 230.736 486.791C203.079 492.813 200.884 486.976 204.766 471.155C202.878 471.177 200.953 471.358 199.129 471.53C189.793 472.409 183.08 473.041 197.21 450.79L195.771 451.213C195.006 452.705 194.263 454.122 193.559 455.464L193.558 455.465C186.335 469.234 183.295 475.029 203.9 471.754Z" fill="black"/>
<path d="M135.855 343.235C139.348 361.759 143.432 369.224 161.732 367.414C152.528 397.359 168.703 392.298 189.442 371.248C182.208 387.333 185.692 392.684 199.546 398.504L200.506 398.222C182.614 389.617 185.313 383.482 190.346 372.042C190.522 371.643 190.7 371.237 190.881 370.825L189.546 369.831C164.605 394.89 154.56 392.634 163.171 366.991L162.41 366.172C146.457 369.649 138.783 360.272 136.58 342.157L135.855 343.235Z" fill="black"/>
<path d="M134.129 298.399C107.584 297.255 108.54 341.201 135.855 343.235L136.58 342.157C110.525 341.782 108.379 298.62 134.459 299.522L135.277 298.76L134.129 298.399Z" fill="black"/>
<path d="M135.277 298.76C126.19 287.361 139.76 266.169 143.994 280.559L145.151 279.176L143.627 277.54C137.474 268.687 127.111 287.521 134.129 298.399L135.277 298.76Z" fill="black"/>
<path d="M158.955 258.78C147.741 264.739 139.325 269.48 143.627 277.54L145.151 279.176C144.851 278.33 144.486 277.551 144.139 276.808C141.942 272.112 140.422 268.86 160.103 259.141L158.955 258.78Z" fill="black"/>
<path fill-rule="evenodd" clip-rule="evenodd" d="M164.722 235.867C158.831 238.993 154.298 248.097 160.103 259.141C140.422 268.86 141.942 272.112 144.139 276.808C144.486 277.551 144.851 278.33 145.151 279.176L143.994 280.559C139.76 266.169 126.19 287.361 135.277 298.76L134.459 299.522C108.379 298.62 110.525 341.782 136.58 342.157C138.783 360.272 146.457 369.649 162.41 366.172L163.171 366.991C154.56 392.634 164.605 394.89 189.546 369.831L190.881 370.825C190.7 371.237 190.522 371.643 190.346 372.042C185.313 383.482 182.614 389.617 200.506 398.222L199.877 399.627C184.136 399.652 165.663 405.211 190.878 425.728C164.75 436.384 168.341 444.605 197.21 450.79C183.08 473.041 189.793 472.409 199.129 471.53C200.953 471.358 202.878 471.177 204.766 471.155C200.884 486.976 203.079 492.813 230.736 486.791C242.733 503.356 255.971 498.962 251.945 479.163L264.031 484.812C263.032 486.148 262.049 487.429 261.11 488.655C252.791 499.512 247.827 505.989 263.771 506.955L263.574 508.056C251.279 517.651 251.868 521.459 258.731 527.024C253.75 545.107 260.712 562.991 285.9 569.763C290.786 576.25 293.834 579.052 304.839 568.882C309.872 584.571 314.148 587.688 326.73 573.906C330.199 580.304 333.258 583.134 343.097 585.248C346.017 610.978 349.084 618.027 357.745 613.773C355.6 636.3 361.493 639.097 377.838 636.005C370.673 653.346 373.902 664.027 398.354 659.677L399.596 660.354C398.234 667.275 399.096 669.518 412.858 661.142L413.713 662.277C416.585 673 420.207 675.159 429.842 672.823L335.106 353.926C346.496 336.408 315.802 316.882 307.303 335.005C305.983 332.131 304.674 329.227 303.365 326.326C286.123 288.093 268.999 250.122 229.531 282.077C217.237 245.959 209.337 248.434 194.991 258.571C189.387 234.757 181.769 232.705 164.722 235.867ZM179.979 358.574C198.604 364.613 207.774 363.061 208.957 349.005C224.772 338.273 210.786 310.941 190.669 320.508C184.434 313.048 177.66 308.179 167.729 320.483L167.862 318.703C177.586 307.628 182.353 309.971 190.606 318.442C206.469 312.211 227.352 330.041 211.659 349.252C206.369 367.908 196.515 365.175 181.241 360.631L179.979 358.574ZM237.791 389.857C214.849 376.789 201.074 391.668 223.91 406.45L223.037 417.652C207.589 431.7 209.178 439.687 219.86 451.599L221.658 451.936C212.952 440.894 207.78 433.287 224.06 418.049L225.131 405.747C202.895 390.4 215.111 380.551 237.375 390.678L237.791 389.857ZM364.13 507.478C333.198 533.869 353.967 546.548 384.591 541.589L383.801 537.131C358.283 545.896 336.363 534.606 365.71 507.534L364.13 507.478Z" fill="url(#paint0_linear_214_178)"/>
<path d="M252.801 480.298L262.592 485.235C246.37 505.019 252.363 505.938 262.905 507.554C250.924 516.865 251.222 520.982 257.292 527.448L258.731 527.024C251.868 521.459 251.279 517.651 263.574 508.056L263.771 506.955C247.827 505.989 252.791 499.512 261.11 488.655C262.049 487.429 263.032 486.148 264.031 484.812L251.945 479.163L252.801 480.298Z" fill="black"/>
<path fill-rule="evenodd" clip-rule="evenodd" d="M297.322 691.833C308.131 701.229 317.164 702.52 337.899 698.657C340.564 712.494 346.79 712.747 357.776 705.987C351.291 701.758 349.506 698.413 352.796 689.062C342.499 699.752 340.411 694.695 341.394 671.569C336.52 674.079 331.958 667.468 331.228 662.238C313.022 661.139 302.562 643.784 307.423 615.269C290.579 616.494 284.565 608.925 286.052 586.22L287.744 583.116C286.358 605.091 290.31 613.372 309.616 612.299L309.779 612.29C309.789 612.218 309.419 614.868 309.39 615.08C309.389 615.085 309.389 615.089 309.388 615.091C309.388 615.094 309.388 615.095 309.388 615.092C315.034 614.491 321.799 613.016 329.79 610.876L330.326 609.155C322.074 610.891 315.302 611.969 309.779 612.29L309.616 612.299L309.388 615.091C309.389 615.089 309.389 615.085 309.39 615.08C309.419 614.868 309.789 612.218 309.779 612.29C315.302 611.969 322.074 610.891 330.326 609.155L329.79 610.876C321.799 613.016 315.034 614.491 309.388 615.092C308.717 615.164 308.063 615.223 307.423 615.269C302.562 643.784 313.022 661.139 331.228 662.238C331.062 661.054 331.093 659.941 331.361 659.021C316.292 657.514 305.613 644.877 309.388 615.092C309.388 615.095 309.388 615.094 309.388 615.091L309.616 612.299L306.665 615.074C306.639 615.221 307.448 615.123 307.423 615.269C308.063 615.223 308.717 615.164 309.388 615.092C305.613 644.877 316.292 657.514 331.361 659.021L334.007 659.172C344.185 659.332 355.997 654.868 366.617 647.469L364.783 650.093C353.562 658.046 343.16 661.935 334.331 662.27C333.274 662.31 332.239 662.299 331.228 662.238C331.958 667.468 336.52 674.079 341.394 671.569C340.411 694.695 342.499 699.752 352.796 689.062C349.506 698.413 351.291 701.758 357.776 705.987C358.76 705.382 359.781 704.72 360.842 704.007C364.172 701.769 367.887 699.023 372.012 695.916C371.405 711.662 408.377 708.375 406.973 696.053C421.015 700.035 435.029 690.817 430.221 674.098C420.99 675.623 416.153 675.569 412.274 662.7C400.262 669.919 397.491 669.21 398.25 661.094C376.088 665.606 368.033 654.157 376.972 636.604C363.186 640.929 353.933 636.959 357.02 614.851C349.068 618.808 345.617 614.214 342.372 586.326C333.271 583.94 329.425 581.794 326.626 575.323C313.822 588.752 309.591 585.688 304.814 570.275C297.106 576.77 292.786 580.245 285.175 570.842C265.683 566.942 250.948 549.586 257.292 527.448C251.222 520.982 250.924 516.865 262.905 507.554C252.363 505.938 246.37 505.019 262.592 485.235L252.801 480.298C257.489 499.695 241.752 504.179 230.538 487.891C205.57 492.859 199.308 489.668 203.9 471.754C183.295 475.029 186.335 469.234 193.558 455.465L193.559 455.464C194.263 454.122 195.006 452.705 195.771 451.213C174.314 447.401 159.355 437.266 189.73 425.368C169.532 410.064 174.843 398.303 199.546 398.504C185.692 392.684 182.208 387.333 189.442 371.248C168.703 392.298 152.528 397.359 161.732 367.414C143.432 369.224 139.348 361.759 135.855 343.235C108.54 341.201 107.584 297.255 134.129 298.399C127.111 287.521 137.474 268.687 143.627 277.54C139.325 269.48 147.741 264.739 158.955 258.78C153.094 252.033 157.265 236.833 163.241 236.15L159.854 224.638L147.103 253.928C124.665 232.527 106.81 264.037 127.749 273.174C105.778 273.562 106.938 280.87 122.954 292.306C105.668 284.323 100.594 295.938 91.2696 315.701C72.2365 311.5 60.3543 338.278 78.2378 352.892C71.7769 353.453 70.4576 354.961 75.5582 361.498C79.966 369.341 84.4411 369.434 94.4074 365.334L85.2947 376.875C96.8978 381.013 103.251 380.212 114.075 368.407L111.876 385.732C85.9158 384.693 85.3041 388.75 91.6459 398.46C77.2491 401.058 77.6819 406.265 79.6277 416.069C60.6764 409.186 46.5707 423.777 71.2217 438.869C45.5354 454.784 59.3223 480.012 80.7639 481.926C61.8192 489.4 66.7472 494.627 73.6558 503.823C65.8718 517.941 75.9637 519.617 90.3613 514.544C81.3446 534.397 85.842 534.579 95.7245 532.771C87.0987 546.153 92.7621 550.37 109.299 555.879L107.016 571.144C95.4998 571.868 90.7737 579.9 112.661 590.331C92.5944 601.507 100.82 635.97 125.278 622.581C120.959 639.342 123.385 649.256 152.481 640.637C142.521 651.189 148.558 656.79 158.547 643.542C163.727 665.737 178.012 660.938 183.364 646.457C183.46 643.27 184.097 639.643 185.409 635.639C185.292 639.592 184.546 643.26 183.364 646.457C182.899 661.987 195.282 667.069 204.993 654.372C201.082 671.963 214.228 680.725 225.509 678.044C230.518 687.37 233.852 687.977 241.226 676.546C243.417 690.784 261.022 695.556 269.161 682.92C287.328 706.115 290.136 698.832 297.322 691.833ZM166.484 537.666C174.134 567.208 231.188 564.493 197.303 523.73L195.385 524.294C225.862 557.022 181.302 570.311 167.02 535.945C138.983 549.548 99.3826 497.64 157.882 497.803L156.076 495.208C102.908 495.981 126.844 547.288 166.484 537.666ZM134.615 432.902C93.3916 439.819 133.381 494.245 151.578 467.522L153.674 469.333C136.33 498.954 89.2158 441.569 134.962 430.537L134.615 432.902ZM249.367 631.59C229.731 658.737 159.156 610.184 213.331 599.455L217.402 599.122C160.348 610.292 230.619 656.814 248.944 630.151L249.367 631.59Z" fill="url(#paint1_linear_214_178)"/>
<path fill-rule="evenodd" clip-rule="evenodd" d="M151.578 467.522C133.381 494.245 93.3916 439.819 134.615 432.902L134.962 430.537C89.2158 441.569 136.33 498.954 153.674 469.333L151.578 467.522ZM213.331 599.455C159.156 610.184 229.731 658.737 249.367 631.59L248.944 630.151C230.619 656.814 160.348 610.292 217.402 599.122L213.331 599.455Z" fill="black"/>
<path d="M197.303 523.73C231.188 564.493 174.134 567.208 166.484 537.666C126.844 547.288 102.908 495.981 156.076 495.208L157.882 497.803C99.3826 497.64 138.983 549.548 167.02 535.945C181.302 570.311 225.862 557.022 195.385 524.294L197.303 523.73Z" fill="black"/>
<path d="M560.675 536.474C522.2 523.322 521.884 547.653 541.765 571.469L545.197 568.515C524.646 551.033 523.18 526.42 561.433 537.862L560.675 536.474Z" fill="black"/>
<path d="M597.435 367.817C596.978 341.419 577.155 337.156 576.084 364.338L566.002 369.298C546.041 363.172 539.98 368.612 535.179 383.875L535.807 385.594C540.867 372.474 544.773 364.146 566.182 370.381L577.311 365.029C579.175 338.075 593.877 343.562 596.517 367.878L597.435 367.817Z" fill="black"/>
<path d="M594.868 302.134C599.169 321.235 605.181 328.333 617.875 322.183C635.171 330.315 651.552 304.347 633.063 291.92C636.302 282.753 637.036 274.443 621.388 272.173L622.987 271.38C637.472 274.098 637.887 279.394 634.809 290.812C648.258 301.281 643.567 328.337 619.04 324.633C600.294 329.596 597.621 319.725 593.741 304.269L594.868 302.134Z" fill="black"/>
<path d="M398.692 619.314C388.97 621.253 387.003 624.493 386.672 632.228C387.694 632.766 388.784 633.308 389.938 633.856C389.144 626.252 393.042 621.403 403.639 619.137L403.63 619.133C392.519 614.935 388.244 613.32 411.17 602.239C407.942 596.501 408.895 592.809 412.324 589.769C413.051 589.125 413.89 588.509 414.824 587.91C415.392 587.545 414.188 588.266 414.824 587.91L413.604 585.558C413.11 585.472 414.146 585.418 413.604 585.558C412.676 585.796 411.703 586.337 410.769 587.083C406.642 590.378 403.282 597.674 407.926 600.586C387.531 611.533 384.246 615.907 398.692 619.314Z" fill="black"/>
<path d="M439.035 542.656C439.174 542.603 438.676 541.957 438.816 541.905L442.708 543.028C431.941 526.967 437.05 519.345 456.66 509.332L453.127 509.459C432.837 519.758 429.393 528.791 439.035 542.656Z" fill="black"/>
<path d="M410.769 587.083C411.703 586.337 412.676 585.796 413.604 585.558C407.217 571.826 412.643 556.196 440.189 544.256C439.785 543.716 439.401 543.183 439.035 542.656C412.027 553.014 402.431 570.862 410.769 587.083Z" fill="black"/>
<path d="M414.824 587.91C413.89 588.509 413.051 589.125 412.324 589.769C417.113 597.193 425.764 604.158 438.327 609.756L441.519 609.995C429.739 604.633 419.875 596.748 414.824 587.91Z" fill="black"/>
<path d="M486.665 333.256C454.399 331.229 480.826 269.077 507.797 301.011L510.008 300.104C477.192 266.377 451.851 336.167 486.176 335.983L486.665 333.256Z" fill="black"/>
<path d="M404.66 453.651C367.807 412.519 362.027 497.987 395.392 501.036L396.414 499.939C364.133 497.771 368.322 413.6 407.023 456.984L404.66 453.651Z" fill="black"/>
<path d="M481.753 557.962C459.417 574.974 457.226 580.285 464.684 585.108C444.092 593.725 445.395 603.709 456.145 613.363C436.487 614.623 430.746 627.391 445.928 644.154L447.2 643.521C430.99 624.705 438.531 616.481 457.102 613.802C446.108 601.319 445.509 594.823 465.981 585.181C457.906 579.9 462.405 573.668 483.051 558.036L481.753 557.962Z" fill="black"/>
<path d="M445.928 644.154C438.56 647.64 439.362 650.385 451.697 657.037C442.605 666.936 445.025 671.125 451.044 678.287L451.947 677.311C445.025 670.214 445.036 665.998 452.795 658.059L453.335 656.745C439.113 649.177 440.602 647.292 447.251 644.934L447.2 643.521L445.928 644.154Z" fill="black"/>
<path d="M489.019 454.751C466.741 460.582 459.324 482.107 465.908 500.864C461.7 512.205 466.892 514.15 476.41 517.469C465.586 529.437 465.108 534.639 483.189 538.806C479.05 544.513 479.165 548.917 481.753 557.962L483.051 558.036C479.852 548.494 480.726 544.419 484.461 538.174C466.19 534.378 466.691 529.109 477.621 516.779C463.261 512.499 464.117 508.448 467.206 500.938C460.187 475.817 472.022 460.708 490.117 455.773L489.019 454.751Z" fill="black"/>
<path d="M570.496 339.328C558.072 317.975 545.247 319.403 542.381 344.581C516.658 324.519 515.567 342.555 523.229 362.957L524.327 363.979C514.926 335.991 520.168 328.71 542.657 345.753C547.449 313.6 561.651 326.656 569.698 340.184L571.227 340.009L570.496 339.328Z" fill="black"/>
<path d="M509.704 380.423C491.952 385.607 492.4 392.621 509.405 411.567C501.112 429.518 512.993 440.769 527.288 426.846L527.829 425.531C512.85 439.09 502.32 429.942 510.453 411.175C491.17 390.455 495.071 385.59 510.661 380.863C509.679 379.249 508.542 377.686 507.464 376.205C501.947 368.622 497.98 363.169 524.327 363.979L523.229 362.957C521.555 363.059 519.957 363.142 518.444 363.221L518.443 363.221C502.915 364.028 496.38 364.367 509.704 380.423Z" fill="black"/>
<path d="M585.563 256.356C571.41 268.807 567.07 276.127 577.959 290.946C547.506 298.297 560.107 309.63 588.79 316.737C571.265 318.716 568.438 324.442 570.496 339.328L571.227 340.009C569.507 320.23 576.16 319.424 588.568 317.92C589.001 317.867 589.441 317.814 589.888 317.759L590.062 316.104C555.788 307.427 552.606 297.636 579.057 291.968L579.372 290.895C568.247 278.945 572.401 267.562 586.861 256.43L585.563 256.356Z" fill="black"/>
<path d="M623.252 232.009C610.701 208.591 573.385 231.822 585.563 256.356L586.861 256.43C573.897 233.826 609.933 209.971 622.455 232.866L623.528 233.181L623.252 232.009Z" fill="black"/>
<path d="M623.528 233.181C628.699 219.552 653.849 220.419 643.629 231.399L645.409 231.689L646.039 229.543C650.517 219.736 629.032 220.425 623.252 232.009L623.528 233.181Z" fill="black"/>
<path d="M669.993 233.163C659.149 226.555 650.779 221.733 646.039 229.543L645.409 231.689C645.984 230.999 646.468 230.289 646.93 229.611C649.85 225.326 651.871 222.36 670.268 234.335L669.993 233.163Z" fill="black"/>
<path fill-rule="evenodd" clip-rule="evenodd" d="M692.643 226.441C686.951 222.967 676.808 223.71 670.268 234.335C651.871 222.36 649.85 225.326 646.93 229.611C646.468 230.289 645.984 230.999 645.409 231.689L643.629 231.399C653.849 220.419 628.699 219.552 623.528 233.181L622.455 232.866C609.933 209.971 573.897 233.826 586.861 256.43C572.401 267.562 568.247 278.945 579.372 290.895L579.057 291.968C552.606 297.636 555.788 307.427 590.062 316.104L589.888 317.759C589.441 317.814 589.001 317.867 588.568 317.92C576.16 319.424 569.507 320.23 571.227 340.009L569.698 340.184C561.651 326.656 547.449 313.6 542.657 345.753C520.168 328.71 514.926 335.991 524.327 363.979C497.98 363.169 501.947 368.622 507.464 376.205C508.542 377.686 509.679 379.249 510.661 380.863C495.071 385.59 491.17 390.455 510.453 411.175C502.32 429.942 512.85 439.09 527.829 425.531L529.133 438.808C527.473 438.629 525.87 438.438 524.336 438.255C510.756 436.634 502.652 435.667 509.951 449.876L508.904 450.267C494.381 444.583 491.405 447.032 490.117 455.773C472.022 460.708 460.187 475.817 467.206 500.938C464.117 508.448 463.261 512.499 477.621 516.779C466.691 529.109 466.19 534.378 484.461 538.174C480.726 544.419 479.852 548.494 483.051 558.036C462.405 573.668 457.906 579.9 465.981 585.181C445.509 594.823 446.108 601.319 457.102 613.802C438.531 616.481 430.99 624.705 447.2 643.521L447.251 644.934C440.602 647.292 439.113 649.177 453.335 656.745L452.795 658.059C445.036 665.998 445.025 670.214 451.947 677.311L677.966 433.209C698.843 434.075 699.989 397.714 680.065 399.644C681.865 397.043 683.695 394.437 685.524 391.831C709.621 357.504 733.553 323.411 685.939 305.754C710.74 276.762 704.583 271.228 688.548 264.057C706.176 247.093 704.056 239.493 692.643 226.441ZM594.868 302.134C599.169 321.235 605.181 328.333 617.875 322.183C635.171 330.315 651.552 304.347 633.063 291.92C636.302 282.753 637.036 274.443 621.388 272.173L622.987 271.38C637.472 274.098 637.887 279.394 634.809 290.812C648.258 301.281 643.567 328.337 619.04 324.633C600.294 329.596 597.621 319.725 593.741 304.269L594.868 302.134ZM597.435 367.817C596.978 341.419 577.155 337.156 576.084 364.338L566.002 369.298C546.041 363.172 539.98 368.612 535.179 383.875L535.807 385.594C540.867 372.474 544.773 364.146 566.182 370.381L577.311 365.029C579.175 338.075 593.877 343.562 596.517 367.878L597.435 367.817ZM560.675 536.474C522.2 523.322 521.884 547.653 541.765 571.469L545.197 568.515C524.646 551.033 523.18 526.42 561.433 537.862L560.675 536.474Z" fill="url(#paint2_linear_214_178)"/>
<path d="M527.288 426.846L528.035 437.786C502.744 433.919 505.009 439.543 508.994 449.436C494.875 443.877 491.486 446.233 489.019 454.751L490.117 455.773C491.405 447.032 494.381 444.583 508.904 450.267L509.951 449.876C502.652 435.667 510.756 436.634 524.336 438.255C525.87 438.438 527.473 438.629 529.133 438.808L527.829 425.531L527.288 426.846Z" fill="black"/>
<path fill-rule="evenodd" clip-rule="evenodd" d="M368.022 573.007C365.451 587.096 368.946 595.524 382.842 611.392C372.297 620.74 375.255 626.225 386.672 632.228C387.003 624.493 388.97 621.253 398.692 619.314C384.246 615.907 387.531 611.533 407.926 600.586C403.282 597.674 406.642 590.378 410.769 587.083C402.431 570.862 412.027 553.014 439.035 542.656C429.393 528.791 432.837 519.758 453.127 509.459L456.66 509.332C437.05 519.345 431.941 526.967 442.708 543.028L442.799 543.163C442.866 543.136 440.398 544.168 440.2 544.251C440.196 544.253 440.192 544.255 440.19 544.255C440.187 544.257 440.187 544.257 440.189 544.256C443.585 548.806 448.303 553.874 454.219 559.657L455.973 559.24C450.272 553.027 445.891 547.751 442.799 543.163L442.708 543.028L440.19 544.255C440.192 544.255 440.196 544.253 440.2 544.251C440.398 544.168 442.866 543.136 442.799 543.163C445.891 547.751 450.272 553.027 455.973 559.24L454.219 559.657C448.303 553.874 443.585 548.806 440.189 544.256C439.785 543.716 439.401 543.183 439.035 542.656C412.027 553.014 402.431 570.862 410.769 587.083C411.703 586.337 412.676 585.796 413.604 585.558C407.217 571.826 412.643 556.196 440.189 544.256C440.187 544.257 440.187 544.257 440.19 544.255L442.708 543.028L438.816 541.905C438.676 541.957 439.174 542.603 439.035 542.656C439.401 543.183 439.785 543.716 440.189 544.256C412.643 556.196 407.217 571.826 413.604 585.558L414.824 587.91C419.875 596.748 429.739 604.633 441.519 609.995L438.327 609.756C425.764 604.158 417.113 597.193 412.324 589.769C411.75 588.88 411.232 587.984 410.769 587.083C406.642 590.378 403.282 597.674 407.926 600.586C387.531 611.533 384.246 615.907 398.692 619.314C388.97 621.253 387.003 624.493 386.672 632.228C387.694 632.766 388.784 633.308 389.938 633.856C393.562 635.58 397.818 637.375 402.594 639.34C388.739 646.846 410.419 676.975 420.303 669.484C424.038 683.593 439.113 690.949 451.044 678.287C445.025 671.125 442.605 666.936 451.697 657.037C439.362 650.385 438.56 647.64 445.928 644.154C430.746 627.391 436.487 614.623 456.145 613.363C445.395 603.709 444.092 593.725 464.684 585.108C457.226 580.285 459.417 574.974 481.753 557.962C479.165 548.917 479.05 544.513 483.189 538.806C465.108 534.639 465.586 529.437 476.41 517.469C466.892 514.15 461.7 512.205 465.908 500.864C459.324 482.107 466.741 460.582 489.019 454.751C491.486 446.233 494.875 443.877 508.994 449.436C505.009 439.543 502.744 433.919 528.035 437.786L527.288 426.846C512.993 440.769 501.112 429.518 509.405 411.567C492.4 392.621 491.952 385.607 509.704 380.423C496.38 364.367 502.915 364.028 518.443 363.221L518.444 363.221C519.957 363.142 521.555 363.059 523.229 362.957C515.567 342.555 516.658 324.519 542.381 344.581C545.247 319.403 558.072 317.975 570.496 339.328C568.438 324.442 571.265 318.716 588.79 316.737C560.107 309.63 547.506 298.297 577.959 290.946C567.07 276.127 571.41 268.807 585.563 256.356C573.385 231.822 610.701 208.591 623.252 232.009C629.032 220.425 650.517 219.736 646.039 229.543C650.779 221.733 659.149 226.555 669.993 233.163C672.809 224.681 688.011 220.519 691.645 225.311L699.821 216.527L668.123 220.494C675.092 190.28 638.881 190.987 641.698 213.659C630.162 194.956 624.467 199.681 622.796 219.289C620.849 200.349 608.27 201.907 586.515 203.963C580.423 185.448 551.33 188.88 547.877 211.716C544.1 206.444 542.129 206.079 539.107 213.8C534.608 221.59 536.81 225.487 545.419 231.97L530.844 230.016C533.201 242.107 537.129 247.164 552.804 250.455L536.779 257.398C524.435 234.537 520.634 236.079 515.514 246.486C505.938 235.426 501.68 238.453 494.239 245.126C490.496 225.314 470.752 220.62 470.339 249.521C443.551 235.54 428.879 260.264 438.166 279.685C422.076 267.199 420.093 274.103 415.705 284.735C399.591 285.238 403.296 294.774 415.001 304.572C393.325 306.939 395.461 310.901 402.056 318.48C386.146 317.883 385.406 324.906 389.1 341.941L374.803 347.76C368.309 338.223 358.989 338.253 361.177 362.4C341.331 350.836 315.879 375.485 339.868 389.697C323.248 394.528 315.956 401.671 338.207 422.305C324.051 419.118 322.311 427.166 338.801 429.005C322.349 444.778 333.762 454.62 348.948 451.84C351.738 450.297 355.183 448.995 359.297 448.082C355.836 449.998 352.3 451.226 348.948 451.84C335.351 459.358 337.294 472.602 353.168 474.482C336.041 480.087 335.207 495.863 343.266 504.2C337.797 513.264 338.975 516.443 352.568 516.957C341.438 526.101 346.309 543.679 361.329 544.237C350.64 571.693 358.337 570.394 368.022 573.007ZM433.925 381.846C412.413 403.49 443.841 451.185 461.629 401.251L460.165 399.888C447.552 442.795 413.399 411.238 435.679 381.429C409.682 364.247 434.142 303.713 463.83 354.119L465.142 351.242C437.367 305.901 405.436 352.652 433.925 381.846ZM507.797 301.011C480.826 269.077 454.399 331.229 486.665 333.256L486.176 335.983C451.851 336.167 477.192 266.377 510.008 300.104L507.797 301.011ZM395.392 501.036C362.027 497.987 367.807 412.519 404.66 453.651L407.023 456.984C368.322 413.6 364.133 497.771 396.414 499.939L395.392 501.036Z" fill="url(#paint3_linear_214_178)"/>
<path fill-rule="evenodd" clip-rule="evenodd" d="M486.665 333.256C454.399 331.229 480.826 269.077 507.797 301.011L510.008 300.104C477.192 266.377 451.851 336.167 486.176 335.983L486.665 333.256ZM404.66 453.651C367.807 412.519 362.027 497.987 395.392 501.036L396.414 499.939C364.133 497.771 368.322 413.6 407.023 456.984L404.66 453.651Z" fill="black"/>
<path d="M461.629 401.251C443.841 451.185 412.413 403.49 433.925 381.846C405.436 352.652 437.367 305.901 465.142 351.242L463.83 354.119C434.142 303.713 409.682 364.247 435.679 381.429C413.399 411.238 447.552 442.795 460.165 399.888L461.629 401.251Z" fill="black"/>
<path d="M412.675 433.474C374.2 420.322 373.884 444.653 393.765 468.469L397.197 465.515C376.646 448.033 375.18 423.42 413.433 434.862L412.675 433.474Z" fill="black"/>
<path d="M449.435 264.817C448.978 238.419 429.155 234.156 428.084 261.338L418.002 266.298C398.041 260.172 391.98 265.612 387.179 280.875L387.807 282.594C392.867 269.474 396.773 261.146 418.182 267.381L429.311 262.029C431.175 235.075 445.877 240.562 448.517 264.878L449.435 264.817Z" fill="black"/>
<path d="M446.868 199.134C451.169 218.235 457.181 225.333 469.875 219.183C487.171 227.315 503.552 201.347 485.063 188.92C488.302 179.753 489.036 171.443 473.388 169.173L474.987 168.38C489.472 171.098 489.887 176.394 486.809 187.812C500.258 198.281 495.567 225.337 471.04 221.633C452.294 226.596 449.621 216.725 445.741 201.269L446.868 199.134Z" fill="black"/>
<path d="M250.692 516.314C240.97 518.253 239.003 521.493 238.672 529.228C239.694 529.766 240.784 530.308 241.938 530.856C241.144 523.252 245.042 518.403 255.639 516.137L255.63 516.133C244.519 511.935 240.244 510.32 263.17 499.239C259.942 493.501 260.895 489.809 264.324 486.769C265.051 486.125 265.89 485.509 266.824 484.91C267.392 484.545 266.188 485.266 266.824 484.91L265.604 482.558C265.11 482.472 266.146 482.418 265.604 482.558C264.676 482.796 263.703 483.337 262.769 484.083C258.642 487.378 255.282 494.674 259.926 497.586C239.531 508.533 236.246 512.907 250.692 516.314Z" fill="black"/>
<path d="M291.035 439.656C291.174 439.603 290.676 438.957 290.816 438.905L294.708 440.028C283.941 423.967 289.05 416.345 308.66 406.332L305.127 406.459C284.837 416.758 281.393 425.791 291.035 439.656Z" fill="black"/>
<path d="M262.769 484.083C263.703 483.337 264.676 482.796 265.604 482.558C259.217 468.826 264.643 453.196 292.189 441.256C291.785 440.716 291.401 440.183 291.035 439.656C264.027 450.014 254.431 467.862 262.769 484.083Z" fill="black"/>
<path d="M266.824 484.91C265.89 485.509 265.051 486.125 264.324 486.769C269.113 494.193 277.764 501.158 290.327 506.756L293.519 506.995C281.739 501.633 271.875 493.748 266.824 484.91Z" fill="black"/>
<path d="M338.665 230.256C306.399 228.229 332.826 166.077 359.797 198.011L362.008 197.104C329.192 163.377 303.851 233.167 338.176 232.983L338.665 230.256Z" fill="black"/>
<path d="M256.66 350.651C219.807 309.519 214.027 394.987 247.392 398.036L248.414 396.939C216.133 394.771 220.322 310.6 259.023 353.984L256.66 350.651Z" fill="black"/>
<path d="M333.753 454.962C311.417 471.974 309.226 477.285 316.684 482.108C296.092 490.725 297.395 500.709 308.145 510.363C288.487 511.623 282.746 524.391 297.928 541.154L299.2 540.521C282.99 521.705 290.531 513.481 309.102 510.802C298.108 498.319 297.509 491.823 317.981 482.181C309.906 476.9 314.405 470.668 335.051 455.036L333.753 454.962Z" fill="black"/>
<path d="M297.928 541.154C290.56 544.64 291.362 547.385 303.697 554.037C294.605 563.936 297.025 568.125 303.044 575.287L303.947 574.311C297.025 567.214 297.036 562.998 304.795 555.059L305.335 553.745C291.113 546.177 292.602 544.292 299.251 541.934L299.2 540.521L297.928 541.154Z" fill="black"/>
<path d="M341.019 351.751C318.741 357.582 311.324 379.107 317.908 397.864C313.7 409.205 318.892 411.15 328.41 414.469C317.586 426.437 317.108 431.639 335.189 435.806C331.05 441.513 331.165 445.917 333.753 454.962L335.051 455.036C331.852 445.494 332.726 441.419 336.461 435.174C318.19 431.378 318.691 426.109 329.621 413.779C315.261 409.499 316.117 405.448 319.206 397.938C312.187 372.817 324.022 357.708 342.117 352.773L341.019 351.751Z" fill="black"/>
<path d="M422.496 236.328C410.072 214.975 397.247 216.403 394.381 241.581C368.658 221.519 367.567 239.555 375.229 259.957L376.327 260.979C366.926 232.991 372.168 225.71 394.657 242.753C399.449 210.6 413.651 223.656 421.698 237.184L423.227 237.009L422.496 236.328Z" fill="black"/>
<path d="M361.704 277.423C343.952 282.607 344.4 289.621 361.405 308.567C353.112 326.518 364.993 337.769 379.288 323.846L379.829 322.531C364.85 336.09 354.32 326.942 362.453 308.175C343.17 287.455 347.071 282.59 362.661 277.863C361.679 276.249 360.542 274.686 359.464 273.205C353.947 265.622 349.98 260.169 376.327 260.979L375.229 259.957C373.555 260.059 371.957 260.142 370.444 260.221L370.443 260.221C354.915 261.028 348.38 261.367 361.704 277.423Z" fill="black"/>
<path d="M437.563 153.356C423.41 165.807 419.07 173.127 429.959 187.946C399.506 195.297 412.107 206.63 440.79 213.737C423.265 215.716 420.438 221.442 422.496 236.328L423.227 237.009C421.507 217.23 428.16 216.424 440.568 214.92C441.001 214.867 441.441 214.814 441.888 214.759L442.062 213.104C407.788 204.427 404.606 194.636 431.057 188.968L431.372 187.895C420.247 175.945 424.401 164.562 438.861 153.43L437.563 153.356Z" fill="black"/>
<path d="M475.252 129.009C462.701 105.591 425.385 128.822 437.563 153.356L438.861 153.43C425.897 130.826 461.933 106.971 474.455 129.866L475.528 130.181L475.252 129.009Z" fill="black"/>
<path d="M475.528 130.181C480.699 116.552 505.849 117.419 495.629 128.399L497.409 128.689L498.039 126.543C502.517 116.736 481.032 117.425 475.252 129.009L475.528 130.181Z" fill="black"/>
<path d="M521.993 130.163C511.149 123.555 502.779 118.733 498.039 126.543L497.409 128.689C497.984 127.999 498.468 127.289 498.93 126.611C501.85 122.326 503.871 119.36 522.268 131.335L521.993 130.163Z" fill="black"/>
<path fill-rule="evenodd" clip-rule="evenodd" d="M544.643 123.441C538.951 119.967 528.808 120.71 522.268 131.335C503.871 119.36 501.85 122.326 498.93 126.611C498.468 127.289 497.984 127.999 497.409 128.689L495.629 128.399C505.849 117.419 480.699 116.552 475.528 130.181L474.455 129.866C461.933 106.971 425.897 130.826 438.861 153.43C424.401 164.562 420.247 175.945 431.372 187.895L431.057 188.968C404.606 194.636 407.788 204.427 442.062 213.104L441.888 214.759C441.441 214.814 441.001 214.867 440.568 214.92C428.16 216.424 421.507 217.23 423.227 237.009L421.698 237.184C413.651 223.656 399.449 210.6 394.657 242.753C372.168 225.71 366.926 232.991 376.327 260.979C349.98 260.169 353.947 265.622 359.464 273.205C360.542 274.686 361.679 276.249 362.661 277.863C347.071 282.59 343.17 287.455 362.453 308.175C354.32 326.942 364.85 336.09 379.829 322.531L381.133 335.808C379.473 335.629 377.87 335.438 376.336 335.255C362.756 333.634 354.652 332.667 361.951 346.876L360.904 347.267C346.381 341.583 343.405 344.032 342.117 352.773C324.022 357.708 312.187 372.817 319.206 397.938C316.117 405.448 315.261 409.499 329.621 413.779C318.691 426.109 318.19 431.378 336.461 435.174C332.726 441.419 331.852 445.494 335.051 455.036C314.405 470.668 309.906 476.9 317.981 482.181C297.509 491.823 298.108 498.319 309.102 510.802C290.531 513.481 282.99 521.705 299.2 540.521L299.251 541.934C292.602 544.292 291.113 546.177 305.335 553.745L304.795 555.059C297.036 562.998 297.025 567.214 303.947 574.311L529.966 330.209C550.843 331.075 551.989 294.714 532.065 296.644C533.865 294.043 535.695 291.437 537.524 288.831C561.621 254.504 585.553 220.411 537.939 202.754C562.74 173.762 556.583 168.228 540.548 161.057C558.176 144.093 556.056 136.493 544.643 123.441ZM446.868 199.134C451.169 218.235 457.181 225.333 469.875 219.183C487.171 227.315 503.552 201.347 485.063 188.92C488.302 179.753 489.036 171.443 473.388 169.173L474.987 168.38C489.472 171.098 489.887 176.394 486.809 187.812C500.258 198.281 495.567 225.337 471.04 221.633C452.294 226.596 449.621 216.725 445.741 201.269L446.868 199.134ZM449.435 264.817C448.978 238.419 429.155 234.156 428.084 261.338L418.002 266.298C398.041 260.172 391.98 265.612 387.179 280.875L387.807 282.594C392.867 269.474 396.773 261.146 418.182 267.381L429.311 262.029C431.175 235.075 445.877 240.562 448.517 264.878L449.435 264.817ZM412.675 433.474C374.2 420.322 373.884 444.653 393.765 468.469L397.197 465.515C376.646 448.033 375.18 423.42 413.433 434.862L412.675 433.474Z" fill="url(#paint4_linear_214_178)"/>
<path d="M379.288 323.846L380.035 334.786C354.744 330.919 357.009 336.543 360.994 346.436C346.875 340.877 343.486 343.233 341.019 351.751L342.117 352.773C343.405 344.032 346.381 341.583 360.904 347.267L361.951 346.876C354.652 332.667 362.756 333.634 376.336 335.255C377.87 335.438 379.473 335.629 381.133 335.808L379.829 322.531L379.288 323.846Z" fill="black"/>
<path fill-rule="evenodd" clip-rule="evenodd" d="M220.022 470.007C217.451 484.096 220.946 492.524 234.842 508.392C224.297 517.74 227.255 523.225 238.672 529.228C239.003 521.493 240.97 518.253 250.692 516.314C236.246 512.907 239.531 508.533 259.926 497.586C255.282 494.674 258.642 487.378 262.769 484.083C254.431 467.862 264.027 450.014 291.035 439.656C281.393 425.791 284.837 416.758 305.127 406.459L308.66 406.332C289.05 416.345 283.941 423.967 294.708 440.028L294.799 440.163C294.866 440.136 292.398 441.168 292.2 441.251C292.196 441.253 292.192 441.255 292.19 441.255C292.187 441.257 292.187 441.257 292.189 441.256C295.585 445.806 300.303 450.874 306.219 456.657L307.973 456.24C302.272 450.027 297.891 444.751 294.799 440.163L294.708 440.028L292.19 441.255C292.192 441.255 292.196 441.253 292.2 441.251C292.398 441.168 294.866 440.136 294.799 440.163C297.891 444.751 302.272 450.027 307.973 456.24L306.219 456.657C300.303 450.874 295.585 445.806 292.189 441.256C291.785 440.716 291.401 440.183 291.035 439.656C264.027 450.014 254.431 467.862 262.769 484.083C263.703 483.337 264.676 482.796 265.604 482.558C259.217 468.826 264.643 453.196 292.189 441.256C292.187 441.257 292.187 441.257 292.19 441.255L294.708 440.028L290.816 438.905C290.676 438.957 291.174 439.603 291.035 439.656C291.401 440.183 291.785 440.716 292.189 441.256C264.643 453.196 259.217 468.826 265.604 482.558L266.824 484.91C271.875 493.748 281.739 501.633 293.519 506.995L290.327 506.756C277.764 501.158 269.113 494.193 264.324 486.769C263.75 485.88 263.232 484.984 262.769 484.083C258.642 487.378 255.282 494.674 259.926 497.586C239.531 508.533 236.246 512.907 250.692 516.314C240.97 518.253 239.003 521.493 238.672 529.228C239.694 529.766 240.784 530.308 241.938 530.856C245.562 532.58 249.818 534.375 254.594 536.34C240.739 543.846 262.419 573.975 272.303 566.484C276.038 580.593 291.113 587.949 303.044 575.287C297.025 568.125 294.605 563.936 303.697 554.037C291.362 547.385 290.56 544.64 297.928 541.154C282.746 524.391 288.487 511.623 308.145 510.363C297.395 500.709 296.092 490.725 316.684 482.108C309.226 477.285 311.417 471.974 333.753 454.962C331.165 445.917 331.05 441.513 335.189 435.806C317.108 431.639 317.586 426.437 328.41 414.469C318.892 411.15 313.7 409.205 317.908 397.864C311.324 379.107 318.741 357.582 341.019 351.751C343.486 343.233 346.875 340.877 360.994 346.436C357.009 336.543 354.744 330.919 380.035 334.786L379.288 323.846C364.993 337.769 353.112 326.518 361.405 308.567C344.4 289.621 343.952 282.607 361.704 277.423C348.38 261.367 354.915 261.028 370.443 260.221L370.444 260.221C371.957 260.142 373.555 260.059 375.229 259.957C367.567 239.555 368.658 221.519 394.381 241.581C397.247 216.403 410.072 214.975 422.496 236.328C420.438 221.442 423.265 215.716 440.79 213.737C412.107 206.63 399.506 195.297 429.959 187.946C419.07 173.127 423.41 165.807 437.563 153.356C425.385 128.822 462.701 105.591 475.252 129.009C481.032 117.425 502.517 116.736 498.039 126.543C502.779 118.733 511.149 123.555 521.993 130.163C524.809 121.681 540.011 117.519 543.645 122.311L551.821 113.527L520.123 117.494C527.092 87.2797 490.881 87.9871 493.698 110.659C482.162 91.9563 476.467 96.6806 474.796 116.289C472.849 97.3491 460.27 98.9067 438.515 100.963C432.423 82.4479 403.33 85.8803 399.877 108.716C396.1 103.444 394.129 103.079 391.107 110.8C386.608 118.59 388.81 122.487 397.419 128.97L382.844 127.016C385.201 139.107 389.129 144.164 404.804 147.455L388.779 154.398C376.435 131.537 372.634 133.079 367.514 143.486C357.938 132.426 353.68 135.453 346.239 142.126C342.496 122.314 322.752 117.62 322.339 146.521C295.551 132.54 280.879 157.264 290.166 176.685C274.076 164.199 272.093 171.103 267.705 181.735C251.591 182.238 255.296 191.774 267.001 201.572C245.325 203.939 247.461 207.901 254.056 215.48C238.146 214.883 237.406 221.906 241.1 238.941L226.803 244.76C220.309 235.223 210.989 235.253 213.177 259.4C193.331 247.836 167.879 272.485 191.868 286.697C175.248 291.528 167.956 298.671 190.207 319.305C176.051 316.118 174.311 324.166 190.801 326.005C174.349 341.778 185.762 351.62 200.948 348.84C203.738 347.297 207.183 345.995 211.297 345.082C207.836 346.998 204.3 348.226 200.948 348.84C187.351 356.358 189.294 369.602 205.168 371.482C188.041 377.087 187.207 392.863 195.266 401.2C189.797 410.264 190.975 413.443 204.568 413.957C193.438 423.101 198.309 440.679 213.329 441.237C202.64 468.693 210.337 467.394 220.022 470.007ZM285.925 278.846C264.413 300.49 295.841 348.185 313.629 298.251L312.165 296.888C299.552 339.795 265.399 308.238 287.679 278.429C261.682 261.247 286.142 200.713 315.83 251.119L317.142 248.242C289.367 202.901 257.436 249.652 285.925 278.846ZM359.797 198.011C332.826 166.077 306.399 228.229 338.665 230.256L338.176 232.983C303.851 233.167 329.192 163.377 362.008 197.104L359.797 198.011ZM247.392 398.036C214.027 394.987 219.807 309.519 256.66 350.651L259.023 353.984C220.322 310.6 216.133 394.771 248.414 396.939L247.392 398.036Z" fill="url(#paint5_linear_214_178)"/>
<path fill-rule="evenodd" clip-rule="evenodd" d="M338.665 230.256C306.399 228.229 332.826 166.077 359.797 198.011L362.008 197.104C329.192 163.377 303.851 233.167 338.176 232.983L338.665 230.256ZM256.66 350.651C219.807 309.519 214.027 394.987 247.392 398.036L248.414 396.939C216.133 394.771 220.322 310.6 259.023 353.984L256.66 350.651Z" fill="black"/>
<path d="M313.629 298.251C295.841 348.185 264.413 300.49 285.925 278.846C257.436 249.652 289.367 202.901 317.142 248.242L315.83 251.119C286.142 200.713 261.682 261.247 287.679 278.429C265.399 308.238 299.552 339.795 312.165 296.888L313.629 298.251Z" fill="black"/>
<path d="M724.276 443.542C754.462 470.784 764.336 448.544 755.441 418.823L751.123 420.186C763.128 444.349 754.782 467.55 724.127 441.968L724.276 443.542Z" fill="black"/>
<path d="M624.065 584.091C614.088 608.536 630.63 620.261 642.32 595.698L653.541 595.109C669.476 608.601 677.189 605.988 687.613 593.849L687.713 592.022C677.895 602.089 671.025 608.206 653.802 594.042L641.464 594.579C629.135 618.621 617.783 607.787 624.932 584.396L624.065 584.091Z" fill="black"/>
<path d="M600.556 645.476C604.125 626.225 601.394 617.334 587.304 617.988C574.609 603.7 549.325 621.118 561.425 639.822C554.838 646.973 550.89 654.323 564.379 662.571L562.597 662.67C550.353 654.468 552.057 649.436 559.384 640.153C551.145 625.234 566.112 602.212 587.198 615.276C606.384 618.097 604.953 628.223 602.432 643.958L600.556 645.476Z" fill="black"/>
<path d="M905.794 431.192C915.494 433.239 918.578 431.035 921.929 424.055C921.201 423.159 920.412 422.232 919.568 421.273C917.302 428.575 911.81 431.497 901.177 429.407L901.184 429.413C909.744 437.648 913.037 440.816 887.6 441.973C888.307 448.518 885.977 451.537 881.628 452.98C880.706 453.286 879.692 453.522 878.598 453.705C877.932 453.816 879.322 453.628 878.598 453.705L878.792 456.347C879.213 456.621 878.239 456.262 878.792 456.347C879.74 456.493 880.847 456.38 882 456.062C887.09 454.658 893.052 449.276 889.93 444.769C912.989 442.74 917.731 440.013 905.794 431.192Z" fill="black"/>
<path d="M838.521 485.766C838.372 485.76 838.575 486.55 838.426 486.543L835.291 483.978C838.863 502.981 831.165 507.975 809.196 509.455L812.494 510.73C835.2 509.254 841.923 502.308 838.521 485.766Z" fill="black"/>
<path d="M882 456.062C880.847 456.38 879.74 456.493 878.792 456.347C879.255 471.484 868.113 483.714 838.09 483.841C838.248 484.496 838.392 485.138 838.521 485.766C867.425 486.882 883.274 474.256 882 456.062Z" fill="black"/>
<path d="M878.598 453.705C879.692 453.522 880.706 453.286 881.628 452.98C880.149 444.27 874.941 434.461 865.598 424.368L862.758 422.891C871.474 432.46 877.435 443.592 878.598 453.705Z" fill="black"/>
<path d="M712.27 659.484C741.131 674.055 692.362 720.776 680.147 680.8L677.758 680.764C694.639 724.689 745.418 670.519 713.794 657.17L712.27 659.484Z" fill="black"/>
<path d="M835.064 581.116C852.739 633.438 891.713 557.153 862.245 541.21L860.874 541.817C889.691 556.523 852.692 632.241 834.205 577.122L835.064 581.116Z" fill="black"/>
<path d="M805.283 454.873C832.513 448.033 836.619 444.014 831.664 436.644C853.985 436.833 856.72 427.143 850.64 414.035C869.206 420.619 879.511 411.144 872.158 389.756L870.74 389.837C878.23 413.517 868.059 418.106 849.934 413.254C855.123 429.059 853.115 435.266 830.5 436.065C835.843 444.1 829.253 448.056 804.119 454.294L805.283 454.873Z" fill="black"/>
<path d="M872.158 389.756C880.304 389.454 880.648 386.615 871.93 375.642C884.185 370.124 883.611 365.321 880.899 356.367L879.684 356.908C883.252 366.158 881.581 370.03 871.323 374.271L870.309 375.266C880.401 387.823 878.29 388.969 871.25 388.518L870.74 389.837L872.158 389.756Z" fill="black"/>
<path d="M757.956 546.881C780.73 550.296 796.025 533.431 797.36 513.597C805.694 504.829 801.688 500.997 794.247 494.198C808.909 487.459 811.397 482.867 796.419 471.915C802.471 468.299 804.1 464.207 805.283 454.873L804.119 454.294C803.302 464.325 800.894 467.726 795 471.996C810.3 482.681 807.765 487.326 792.862 494.355C804.376 503.945 801.994 507.331 796.196 513.018C792.754 538.873 775.926 548.099 757.349 545.509L757.956 546.881Z" fill="black"/>
<path d="M637.607 620.888C640.616 645.408 652.968 649.146 665.517 627.131C681.261 655.703 689.367 639.554 690.359 617.784L689.753 616.412C687.371 645.84 679.685 650.468 665.726 625.946C648.658 653.613 640.746 636.018 638.677 620.415L637.202 619.973L637.607 620.888Z" fill="black"/>
<path d="M709.67 607.055C728.028 609.282 730.379 602.658 722.21 578.546C736.903 565.312 730.413 550.291 711.789 557.459L710.775 558.455C729.883 551.891 735.959 564.447 721.093 578.494C730.657 605.134 725.155 608.069 708.964 606.274C709.231 608.144 709.66 610.029 710.068 611.815C712.152 620.958 713.651 627.532 689.753 616.412L690.359 617.784C691.938 618.348 693.44 618.902 694.861 619.425L694.862 619.426C709.453 624.799 715.594 627.061 709.67 607.055Z" fill="black"/>
<path d="M591.08 691.219C608.992 685.349 615.864 680.33 611.692 662.42C642.579 667.657 635.459 652.276 611.894 634.448C628.782 639.53 633.636 635.381 637.607 620.888L637.202 619.973C630.994 638.831 624.561 636.952 612.564 633.448C612.145 633.325 611.72 633.201 611.287 633.076L610.475 634.528C638.562 656.002 637.63 666.256 611.085 661.048L610.373 661.91C615.892 677.276 607.591 686.103 589.916 690.64L591.08 691.219Z" fill="black"/>
<path d="M546.848 698.755C549.161 725.223 592.611 718.567 591.08 691.219L589.916 690.64C592.929 716.523 550.411 724.258 547.918 698.282L547.056 697.57L546.848 698.755Z" fill="black"/>
<path d="M547.056 697.57C536.935 708.061 514.159 697.359 527.877 691.291L526.356 690.324L524.931 692.047C516.953 699.298 536.973 707.127 546.848 698.755L547.056 697.57Z" fill="black"/>
<path d="M504.339 679.286C511.704 689.631 517.499 697.36 524.931 692.047L526.356 690.324C525.556 690.731 524.831 691.194 524.14 691.634C519.768 694.423 516.742 696.353 504.548 678.101L504.339 679.286Z" fill="black"/>
<path fill-rule="evenodd" clip-rule="evenodd" d="M480.872 676.545C484.736 681.979 494.352 685.292 504.548 678.101C516.742 696.353 519.768 694.423 524.14 691.634C524.831 691.194 525.556 690.731 526.356 690.324L527.877 691.291C514.159 697.359 536.935 708.061 547.056 697.57L547.918 698.282C550.411 724.258 592.929 716.523 589.916 690.64C607.591 686.103 615.892 677.276 610.373 661.91L611.085 661.048C637.63 666.256 638.562 656.002 610.475 634.528L611.287 633.076C611.72 633.201 612.145 633.325 612.564 633.448C624.561 636.952 630.994 638.831 637.202 619.973L638.677 620.415C640.746 636.018 648.658 653.613 665.726 625.946C679.685 650.468 687.371 645.84 689.753 616.412C713.651 627.532 712.152 620.958 710.068 611.815C709.66 610.029 709.231 608.144 708.964 606.274C725.155 608.069 730.657 605.134 721.093 578.494C735.959 564.447 729.883 551.891 710.775 558.455L714.806 545.737C716.26 546.555 717.659 547.363 718.996 548.135C730.841 554.973 737.909 559.053 736.796 543.119L737.912 543.171C749.023 554.115 752.723 553.037 757.349 545.509C775.926 548.099 792.754 538.873 796.196 513.018C801.994 507.331 804.376 503.945 792.862 494.355C807.765 487.326 810.3 482.681 795 471.996C800.894 467.726 803.302 464.325 804.119 454.294C829.253 448.056 835.843 444.1 830.5 436.065C853.115 435.266 855.123 429.059 849.934 413.254C868.059 418.106 878.23 413.517 870.74 389.837L871.25 388.518C878.29 388.969 880.401 387.823 870.309 375.266L871.323 374.271C881.581 370.03 883.252 366.158 879.684 356.908L575.796 492.268C556.947 483.25 541.573 516.221 560.647 522.293C557.969 523.975 555.26 525.651 552.553 527.325C516.884 549.388 481.459 571.3 518.271 606.282C484.056 623.163 487.536 630.675 499.451 643.582C476.567 652.232 475.521 660.053 480.872 676.545ZM600.556 645.476C604.125 626.225 601.394 617.334 587.304 617.988C574.609 603.7 549.325 621.118 561.425 639.822C554.838 646.973 550.89 654.323 564.379 662.571L562.597 662.67C550.353 654.468 552.057 649.436 559.384 640.153C551.145 625.234 566.112 602.212 587.198 615.276C606.384 618.097 604.953 628.223 602.432 643.958L600.556 645.476ZM624.065 584.091C614.088 608.536 630.63 620.261 642.32 595.698L653.541 595.109C669.476 608.601 677.189 605.988 687.613 593.849L687.713 592.022C677.895 602.089 671.025 608.206 653.802 594.042L641.464 594.579C629.135 618.621 617.783 607.787 624.932 584.396L624.065 584.091ZM724.276 443.542C754.462 470.784 764.336 448.544 755.441 418.823L751.123 420.186C763.128 444.349 754.782 467.55 724.127 441.968L724.276 443.542Z" fill="url(#paint6_linear_214_178)"/>
<path d="M711.789 557.459L715.412 547.109C737.136 560.624 737.269 554.562 737.502 543.9C748.29 554.57 752.334 553.74 757.956 546.881L757.349 545.509C752.723 553.037 749.023 554.115 737.912 543.171L736.796 543.119C737.909 559.053 730.841 554.973 718.996 548.135C717.659 547.363 716.26 546.555 714.806 545.737L710.775 558.455L711.789 557.459Z" fill="black"/>
<path fill-rule="evenodd" clip-rule="evenodd" d="M915.748 485.835C923.66 473.898 923.767 464.774 917.243 444.716C930.617 440.276 930.058 434.07 921.929 424.055C918.578 431.035 915.494 433.239 905.794 431.192C917.731 440.013 912.989 442.74 889.93 444.769C893.052 449.276 887.09 454.658 882 456.062C883.274 474.256 867.425 486.882 838.521 485.766C841.923 502.308 835.2 509.254 812.494 510.73L809.196 509.455C831.165 507.975 838.863 502.981 835.291 483.978L835.261 483.818C835.188 483.816 837.863 483.84 838.078 483.841C838.083 483.841 838.086 483.841 838.089 483.841C838.092 483.841 838.093 483.841 838.09 483.841C836.76 478.321 834.42 471.805 831.259 464.159L829.483 463.851C832.276 471.808 834.225 478.382 835.261 483.818L835.291 483.978L838.089 483.841C838.086 483.841 838.083 483.841 838.078 483.841C837.863 483.84 835.188 483.816 835.261 483.818C834.225 478.382 832.276 471.808 829.483 463.851L831.259 464.159C834.42 471.805 836.76 478.321 838.09 483.841C838.248 484.496 838.392 485.138 838.521 485.766C867.425 486.882 883.274 474.256 882 456.062C880.847 456.38 879.74 456.493 878.792 456.347C879.255 471.484 868.113 483.714 838.09 483.841C838.093 483.841 838.092 483.841 838.089 483.841L835.291 483.978L838.426 486.543C838.575 486.55 838.372 485.76 838.521 485.766C838.392 485.138 838.248 484.496 838.09 483.841C868.113 483.714 879.255 471.484 878.792 456.347L878.598 453.705C877.435 443.592 871.474 432.46 862.758 422.891L865.598 424.368C874.941 434.461 880.149 444.27 881.628 452.98C881.805 454.024 881.929 455.051 882 456.062C887.09 454.658 893.052 449.276 889.93 444.769C912.989 442.74 917.731 440.013 905.794 431.192C915.494 433.239 918.578 431.035 921.929 424.055C921.201 423.159 920.412 422.232 919.568 421.273C916.916 418.261 913.711 414.935 910.094 411.248C925.786 409.805 917.724 373.573 905.688 376.566C907.812 362.126 896.852 349.427 880.899 356.367C883.611 365.321 884.185 370.124 871.93 375.642C880.648 386.615 880.304 389.454 872.158 389.756C879.511 411.144 869.206 420.619 850.64 414.035C856.72 427.143 853.985 436.833 831.664 436.644C836.619 444.014 832.513 448.033 805.283 454.873C804.1 464.207 802.471 468.299 796.419 471.915C811.397 482.867 808.909 487.459 794.247 494.198C801.688 500.997 805.694 504.829 797.36 513.597C796.025 533.431 780.73 550.296 757.956 546.881C752.334 553.74 748.29 554.57 737.502 543.9C737.269 554.562 737.136 560.624 715.412 547.109L711.789 557.459C730.413 550.291 736.903 565.312 722.21 578.546C730.379 602.658 728.028 609.282 709.67 607.055C715.594 627.061 709.453 624.799 694.862 619.426L694.861 619.425C693.44 618.902 691.938 618.348 690.359 617.784C689.367 639.554 681.261 655.703 665.517 627.131C652.968 649.146 640.616 645.408 637.607 620.888C633.636 635.381 628.782 639.53 611.894 634.448C635.459 652.276 642.579 667.657 611.692 662.42C615.864 680.33 608.992 685.349 591.08 691.219C592.611 718.567 549.161 725.223 546.848 698.755C536.973 707.127 516.953 699.298 524.931 692.047C517.499 697.36 511.704 689.631 504.339 679.286C498.41 685.974 482.798 683.812 481.344 677.976L470.37 682.83L501.068 691.668C482.763 716.696 516.326 730.307 522.665 708.358C525.904 730.092 532.999 727.993 542.258 710.627C536.588 728.803 548.764 732.326 569.571 739.004C567.878 758.421 595.972 766.724 608.139 747.094C609.535 753.427 611.202 754.539 617.021 748.633C624.224 743.243 623.735 738.794 618.375 729.445L631.003 736.981C633.598 724.939 631.978 718.744 618.867 709.545L636.332 709.475C638.674 735.35 642.775 735.429 651.58 727.88C656.026 741.817 661.132 740.711 670.6 737.509C666.237 757.193 682.538 769.284 694.299 742.881C713.417 766.283 736.64 749.335 735.752 727.827C745.624 745.64 750.166 740.075 758.387 732.03C773.396 737.914 773.747 727.69 766.846 714.074C787.703 720.435 787.299 715.952 784.223 706.388C798.611 713.202 802.057 707.039 805.371 689.926L820.804 690.208C823.018 701.532 831.596 705.174 839.095 682.117C852.782 700.562 885.885 687.929 869.433 665.418C886.612 667.524 896.127 663.83 883.801 636.1C895.558 644.605 900.327 637.892 885.894 629.707C907.228 621.688 900.614 608.148 885.56 604.722C882.388 605.041 878.708 604.881 874.568 604.101C878.503 603.703 882.237 603.966 885.56 604.722C901.02 603.166 904.449 590.228 890.599 582.248C908.549 583.841 915.528 569.668 911.404 558.831C920.001 552.654 920.17 549.268 907.878 543.442C921.71 539.42 924.155 521.345 910.569 514.916C931.207 493.889 923.622 492.051 915.748 485.835ZM779.884 635.592C808.182 624.169 798.078 567.952 762.062 606.844L762.871 608.673C791.363 574.202 810.328 616.659 778.108 635.284C795.238 661.317 748.914 707.324 741.477 649.3L739.138 651.428C746.811 704.044 794.574 673.647 779.884 635.592ZM680.147 680.8C692.362 720.776 741.131 674.055 712.27 659.484L713.794 657.17C745.418 670.519 694.639 724.689 677.758 680.764L680.147 680.8ZM862.245 541.21C891.713 557.153 852.739 633.438 835.064 581.116L834.205 577.122C852.692 632.241 889.691 556.523 860.874 541.817L862.245 541.21Z" fill="url(#paint7_linear_214_178)"/>
<path fill-rule="evenodd" clip-rule="evenodd" d="M712.27 659.484C741.131 674.055 692.362 720.776 680.147 680.8L677.758 680.764C694.639 724.689 745.418 670.519 713.794 657.17L712.27 659.484ZM835.064 581.116C852.739 633.438 891.713 557.153 862.245 541.21L860.874 541.817C889.691 556.523 852.692 632.241 834.205 577.122L835.064 581.116Z" fill="black"/>
<path d="M762.062 606.844C798.078 567.952 808.182 624.169 779.884 635.592C794.574 673.647 746.811 704.044 739.138 651.428L741.477 649.3C748.914 707.324 795.238 661.317 778.108 635.284C810.328 616.659 791.363 574.202 762.871 608.673L762.062 606.844Z" fill="black"/>
<path d="M575.357 345.229C592.754 308.477 568.613 305.426 542.711 322.501L545.26 326.244C564.943 307.79 589.565 309.102 573.892 345.825L575.357 345.229Z" fill="black"/>
<path d="M738.807 400.729C765.09 403.245 771.555 384.027 744.667 379.904L740.872 369.328C749.205 350.183 744.481 343.549 729.855 337.062L728.077 337.492C740.544 343.995 748.38 348.813 739.775 369.385L743.841 381.046C770.415 385.93 763.309 399.921 738.85 399.81L738.807 400.729Z" fill="black"/>
<path d="M804.362 405.566C784.899 407.692 777.17 412.867 781.853 426.172C771.826 442.443 795.786 461.642 810.214 444.669C818.959 448.918 827.134 450.582 831.149 435.289L831.758 436.967C827.428 451.055 822.119 450.871 811.119 446.528C799.203 458.714 772.847 451.009 779.287 427.054C776.464 407.869 786.574 406.323 802.367 404.207L804.362 405.566Z" fill="black"/>
<path d="M511.265 174.955C510.432 165.076 507.434 162.757 499.785 161.558C499.136 162.513 498.475 163.535 497.8 164.62C505.445 164.687 509.825 169.106 510.885 179.89L510.889 179.881C516.31 169.313 518.396 165.247 526.828 189.274C532.892 186.712 536.454 188.074 539.089 191.823C539.647 192.619 540.164 193.521 540.655 194.516C540.953 195.122 540.373 193.845 540.655 194.516L543.129 193.57C543.27 193.088 543.207 194.124 543.129 193.57C542.997 192.62 542.569 191.592 541.933 190.58C539.123 186.109 532.252 181.949 528.835 186.237C520.252 164.739 516.275 160.983 511.265 174.955Z" fill="black"/>
<path d="M582.898 223.665C582.935 223.809 583.632 223.387 583.669 223.532L582.115 227.273C599.285 218.381 606.284 224.315 614.027 244.927L614.299 241.402C606.348 220.082 597.76 215.644 582.898 223.665Z" fill="black"/>
<path d="M541.933 190.58C542.569 191.592 542.997 192.62 543.129 193.57C557.492 188.768 572.413 195.917 581.178 224.631C581.761 224.291 582.334 223.969 582.898 223.665C575.644 195.663 558.989 184.121 541.933 190.58Z" fill="black"/>
<path d="M540.655 194.516C540.164 193.521 539.647 192.619 539.089 191.823C531.173 195.747 523.279 203.559 516.304 215.413L515.707 218.558C522.361 207.456 531.305 198.542 540.655 194.516Z" fill="black"/>
<path d="M785.611 294.55C791.255 262.716 850.039 295.968 815.273 319.175L815.926 321.474C853.131 292.66 786.634 259.629 782.956 293.757L785.611 294.55Z" fill="black"/>
<path d="M675.205 199.521C720.222 167.529 635.946 152.171 629.163 184.981L630.139 186.12C635.924 154.288 719.09 167.919 671.628 201.494L675.205 199.521Z" fill="black"/>
<path d="M562.883 264.39C548.492 240.282 543.462 237.508 537.83 244.375C531.584 222.945 521.517 223.116 510.715 232.712C511.674 213.038 499.633 205.896 481.269 219.096L481.755 220.431C502.275 206.441 509.598 214.859 510.171 233.613C523.812 224.094 530.334 224.23 537.611 245.656C543.767 238.226 549.454 243.398 562.664 265.671L562.883 264.39Z" fill="black"/>
<path d="M481.269 219.096C478.634 211.383 475.816 211.871 467.818 223.379C459.005 213.231 454.571 215.164 446.777 220.339L447.645 221.347C455.476 215.267 459.664 215.752 466.68 224.355L467.925 225.04C477.044 211.759 478.749 213.451 480.344 220.323L481.755 220.431L481.269 219.096Z" fill="black"/>
<path d="M664.621 283.221C661.335 260.428 640.78 250.637 621.401 255.069C610.606 249.612 608.089 254.552 603.721 263.636C593.046 251.535 587.931 250.474 581.756 267.972C576.551 263.217 572.163 262.836 562.883 264.39L562.664 265.671C572.505 263.566 576.456 264.893 582.242 269.307C588.069 251.579 593.247 252.669 604.269 264.917C610.138 251.13 614.067 252.436 621.182 256.35C646.933 252.202 660.615 265.661 663.482 284.197L664.621 283.221Z" fill="black"/>
<path d="M770.147 377.165C792.762 367.223 792.785 354.318 768.089 348.638C790.918 325.335 773.119 322.222 751.985 327.54L750.846 328.516C779.714 322.324 786.359 328.351 766.894 348.78C798.304 357.159 783.732 369.802 769.386 376.277L769.387 377.816L770.147 377.165Z" fill="black"/>
<path d="M736.151 312.136C732.997 293.914 725.977 293.57 705.239 308.336C688.334 298.075 675.818 308.616 688.045 324.387L689.29 325.071C677.503 308.663 687.777 299.229 705.51 309.421C728.268 292.591 732.663 297.015 735.606 313.037C737.32 312.243 739.001 311.289 740.595 310.385C748.75 305.756 754.614 302.428 750.846 328.516L751.985 327.54C752.071 325.866 752.169 324.268 752.261 322.756L752.261 322.755C753.206 307.234 753.604 300.703 736.151 312.136Z" fill="black"/>
<path d="M850.896 401.471C840.117 386.007 833.332 380.871 817.382 390.024C813.503 358.937 800.824 370.184 790.536 397.884C790.541 380.248 785.17 376.795 770.147 377.165L769.387 377.816C789.234 378.331 789.287 385.033 789.385 397.531C789.389 397.967 789.392 398.41 789.397 398.86L791.022 399.22C803.499 366.139 813.587 364.08 816.243 391L817.273 391.434C830.399 381.724 841.242 387.132 850.677 402.752L850.896 401.471Z" fill="black"/>
<path d="M870.849 441.66C895.53 431.823 876.645 392.13 850.896 401.471L850.677 402.752C874.596 392.414 894.245 430.904 870.088 440.771L869.654 441.802L870.849 441.66Z" fill="black"/>
<path d="M869.654 441.802C882.614 448.474 878.924 473.366 869.163 461.976L868.675 463.711L870.736 464.579C879.977 470.132 881.709 448.706 870.849 441.66L869.654 441.802Z" fill="black"/>
<path d="M864.444 487.974C872.23 477.942 877.963 470.168 870.736 464.579L868.675 463.711C869.295 464.36 869.947 464.922 870.568 465.457C874.497 468.84 877.217 471.183 863.249 488.115L864.444 487.974Z" fill="black"/>
<path fill-rule="evenodd" clip-rule="evenodd" d="M868.576 511.237C872.668 505.972 873.071 495.809 863.249 488.115C877.217 471.183 874.497 468.84 870.568 465.457C869.947 464.922 869.295 464.36 868.675 463.711L869.163 461.976C878.924 473.366 882.614 448.474 869.654 441.802L870.088 440.771C894.245 430.904 874.596 392.414 850.677 402.752C841.242 387.132 830.399 381.724 817.273 391.434L816.243 391C813.587 364.08 803.499 366.139 791.022 399.22L789.397 398.86C789.392 398.41 789.389 397.967 789.385 397.531C789.287 385.033 789.234 378.331 769.387 377.816L769.386 376.277C783.732 369.802 798.304 357.159 766.894 348.78C786.359 328.351 779.714 322.324 750.846 328.516C754.614 302.428 748.75 305.756 740.595 310.385C739.001 311.289 737.32 312.243 735.606 313.037C732.663 297.015 728.268 292.591 705.51 309.421C687.777 299.229 677.503 308.663 689.29 325.071L675.951 324.873C676.315 323.245 676.686 321.673 677.04 320.17C680.178 306.858 682.051 298.915 667.111 304.569L666.84 303.484C674.122 289.693 672.024 286.46 663.482 284.197C660.615 265.661 646.933 252.202 621.182 256.35C614.067 252.436 610.138 251.13 604.269 264.917C593.247 252.669 588.069 251.579 582.242 269.307C576.456 264.893 572.505 263.566 562.664 265.671C549.454 243.398 543.767 238.226 537.611 245.656C530.334 224.23 523.812 224.094 510.171 233.613C509.598 214.859 502.275 206.441 481.755 220.431L480.344 220.323C478.749 213.451 477.044 211.759 467.925 225.04L466.68 224.355C459.664 215.752 455.476 215.267 447.645 221.347L664.771 473.391C661.562 494.039 697.563 499.268 697.887 479.254C700.269 481.335 702.653 483.446 705.036 485.556C736.435 513.362 767.618 540.978 790.52 495.653C816.538 523.557 822.73 518.062 831.659 502.935C846.532 522.36 854.323 521.109 868.576 511.237ZM804.362 405.566C784.899 407.692 777.17 412.867 781.853 426.172C771.826 442.443 795.786 461.642 810.214 444.669C818.959 448.918 827.134 450.582 831.149 435.289L831.758 436.967C827.428 451.055 822.119 450.871 811.119 446.528C799.203 458.714 772.847 451.009 779.287 427.054C776.464 407.869 786.574 406.323 802.367 404.207L804.362 405.566ZM738.807 400.729C765.09 403.245 771.555 384.027 744.667 379.904L740.872 369.328C749.205 350.183 744.481 343.549 729.855 337.062L728.077 337.492C740.544 343.995 748.38 348.813 739.775 369.385L743.841 381.046C770.415 385.93 763.309 399.921 738.85 399.81L738.807 400.729ZM575.357 345.229C592.754 308.477 568.613 305.426 542.711 322.501L545.26 326.244C564.943 307.79 589.565 309.102 573.892 345.825L575.357 345.229Z" fill="url(#paint8_linear_214_178)"/>
<path d="M688.045 324.387L677.09 323.897C683.778 299.202 677.935 300.821 667.656 303.667C674.768 290.263 672.809 286.63 664.621 283.221L663.482 284.197C672.024 286.46 674.122 289.693 666.84 303.484L667.111 304.569C682.051 298.915 680.178 306.858 677.04 320.17C676.686 321.673 676.315 323.245 675.951 324.873L689.29 325.071L688.045 324.387Z" fill="black"/>
<path fill-rule="evenodd" clip-rule="evenodd" d="M560.728 149.688C547.018 145.549 538.25 148.073 520.92 160.096C512.817 148.567 507.034 150.889 499.785 161.558C507.434 162.757 510.432 165.076 511.265 174.955C516.275 160.983 520.252 164.739 528.835 186.237C532.252 181.949 539.123 186.109 541.933 190.58C558.989 184.121 575.644 195.663 582.898 223.665C597.76 215.644 606.348 220.082 614.299 241.402L614.027 244.927C606.284 224.315 599.285 218.381 582.115 227.273L581.971 227.348C581.99 227.417 581.243 224.849 581.182 224.643C581.18 224.639 581.179 224.635 581.179 224.633C581.178 224.63 581.178 224.629 581.178 224.631C576.275 227.494 570.709 231.612 564.297 236.84L564.514 238.63C571.329 233.664 577.064 229.904 581.971 227.348L582.115 227.273L581.179 224.633C581.179 224.635 581.18 224.639 581.182 224.643C581.243 224.849 581.99 227.417 581.971 227.348C577.064 229.904 571.329 233.664 564.514 238.63L564.297 236.84C570.709 231.612 576.275 227.494 581.178 224.631C581.761 224.291 582.334 223.969 582.898 223.665C575.644 195.663 558.989 184.121 541.933 190.58C542.569 191.592 542.997 192.62 543.129 193.57C557.492 188.768 572.413 195.917 581.178 224.631C581.178 224.629 581.178 224.63 581.179 224.633L582.115 227.273L583.669 223.532C583.632 223.387 582.935 223.809 582.898 223.665C582.334 223.969 581.761 224.291 581.178 224.631C572.413 195.917 557.492 188.768 543.129 193.57L540.655 194.516C531.305 198.542 522.361 207.456 515.707 218.558L516.304 215.413C523.279 203.559 531.173 195.747 539.089 191.823C540.037 191.353 540.985 190.939 541.933 190.58C539.123 186.109 532.252 181.949 528.835 186.237C520.252 164.739 516.275 160.983 511.265 174.955C510.432 165.076 507.434 162.757 499.785 161.558C499.136 162.513 498.475 163.535 497.8 164.62C495.68 168.027 493.417 172.054 490.927 176.579C485.027 161.967 452.651 180.12 458.982 190.784C444.542 192.908 435.538 207.061 446.777 220.339C454.571 215.164 459.005 213.231 467.818 223.379C475.816 211.871 478.634 211.383 481.269 219.096C499.633 205.896 511.674 213.038 510.715 232.712C521.517 223.116 531.584 222.945 537.83 244.375C543.462 237.508 548.492 240.282 562.883 264.39C572.163 262.836 576.551 263.217 581.756 267.972C587.931 250.474 593.046 251.535 603.721 263.636C608.089 254.552 610.606 249.612 621.401 255.069C640.78 250.637 661.335 260.428 664.621 283.221C672.809 286.63 674.768 290.263 667.656 303.667C677.935 300.821 683.778 299.202 677.09 323.897L688.045 324.387C675.818 308.616 688.334 298.075 705.239 308.336C725.977 293.57 732.997 293.914 736.151 312.136C753.604 300.703 753.206 307.234 752.261 322.755L752.261 322.756C752.169 324.268 752.071 325.866 751.985 327.54C773.119 322.222 790.918 325.335 768.089 348.638C792.785 354.318 792.762 367.223 770.147 377.165C785.17 376.795 790.541 380.248 790.536 397.884C800.824 370.184 813.503 358.937 817.382 390.024C833.332 380.871 840.117 386.007 850.896 401.471C876.645 392.13 895.53 431.823 870.849 441.66C881.709 448.706 879.977 470.132 870.736 464.579C877.963 470.168 872.23 477.942 864.444 487.974C872.556 491.726 874.981 507.3 869.81 510.372L877.619 519.484L877.243 487.541C906.482 497.865 909.852 461.804 887.008 462.053C906.889 452.694 902.836 446.503 883.539 442.637C902.578 442.833 902.446 430.159 902.85 408.31C921.933 404.34 921.795 375.046 899.493 369.046C905.156 365.886 905.741 363.969 898.409 360.097C891.174 354.751 887.054 356.5 879.644 364.325L883.225 350.062C870.946 351.044 865.479 354.379 860.445 369.583L855.349 352.879C879.454 343.186 878.349 339.235 868.584 332.977C880.651 324.706 878.122 320.135 872.329 311.99C892.436 310.5 899.322 291.409 870.651 287.747C887.556 262.702 864.64 245.342 844.298 252.385C858.514 237.802 851.877 235.054 841.806 229.498C843.119 213.43 833.227 216.039 822.174 226.567C822.261 204.762 818.084 206.44 809.811 212.14C812.194 196.398 805.299 194.873 787.957 196.627L783.783 181.766C793.99 176.386 795.009 167.122 770.769 166.58C784.491 148.161 762.862 120.097 746.042 142.335C743.111 125.277 736.834 117.228 713.828 137.016C718.588 123.308 710.785 120.675 707.103 136.853C693.281 118.731 682.218 128.964 683.272 144.366C684.491 147.313 685.397 150.882 685.842 155.072C684.328 151.418 683.505 147.766 683.272 144.366C677.331 130.01 663.953 130.451 660.299 146.012C656.657 128.363 641.074 125.761 631.883 132.83C623.492 126.376 620.201 127.189 618.161 140.638C610.327 128.55 592.313 131.413 590.068 146.275C563.99 132.565 564.414 140.358 560.728 149.688ZM743.262 236.679C724.175 212.868 673.248 238.731 720.863 262.023L722.382 260.722C681.167 243.362 716.366 212.976 743.479 238.468C763.477 214.569 820.874 245.683 767.448 269.513L770.16 271.14C818.338 248.642 775.476 211.654 743.262 236.679ZM815.273 319.175C850.039 295.968 791.255 262.716 785.611 294.55L782.956 293.757C786.634 259.629 853.131 292.66 815.926 321.474L815.273 319.175ZM629.163 184.981C635.946 152.171 720.222 167.529 675.205 199.521L671.628 201.494C719.09 167.919 635.924 154.288 630.139 186.12L629.163 184.981Z" fill="url(#paint9_linear_214_178)"/>
<path fill-rule="evenodd" clip-rule="evenodd" d="M785.611 294.55C791.255 262.716 850.039 295.968 815.273 319.175L815.926 321.474C853.131 292.66 786.634 259.629 782.956 293.757L785.611 294.55ZM675.205 199.521C720.222 167.529 635.946 152.171 629.163 184.981L630.139 186.12C635.924 154.288 719.09 167.919 671.628 201.494L675.205 199.521Z" fill="black"/>
<path d="M720.863 262.023C673.248 238.731 724.175 212.868 743.262 236.679C775.476 211.654 818.338 248.642 770.16 271.14L767.448 269.513C820.874 245.683 763.477 214.569 743.479 238.468C716.366 212.976 681.167 243.362 722.382 260.722L720.863 262.023Z" fill="black"/>
<defs>
<linearGradient id="paint0_linear_214_178" x1="248.133" y1="512.422" x2="384.292" y2="409.273" gradientUnits="userSpaceOnUse">
<stop stop-color="#253A2D"/>
<stop offset="1" stop-color="#0E1310"/>
</linearGradient>
<linearGradient id="paint1_linear_214_178" x1="110.764" y1="605.139" x2="263.203" y2="469.597" gradientUnits="userSpaceOnUse">
<stop offset="0.0148686" stop-color="#4B5C32"/>
<stop offset="1" stop-color="#1B322A"/>
</linearGradient>
<linearGradient id="paint2_linear_214_178" x1="497.275" y1="439.21" x2="655.434" y2="503.742" gradientUnits="userSpaceOnUse">
<stop stop-color="#253A2D"/>
<stop offset="1" stop-color="#0E1310"/>
</linearGradient>
<linearGradient id="paint3_linear_214_178" x1="347.472" y1="368.318" x2="541.798" y2="430.337" gradientUnits="userSpaceOnUse">
<stop offset="0.0148686" stop-color="#4B5C32"/>
<stop offset="1" stop-color="#1B322A"/>
</linearGradient>
<linearGradient id="paint4_linear_214_178" x1="349.275" y1="336.21" x2="507.434" y2="400.742" gradientUnits="userSpaceOnUse">
<stop stop-color="#253A2D"/>
<stop offset="1" stop-color="#0E1310"/>
</linearGradient>
<linearGradient id="paint5_linear_214_178" x1="199.472" y1="265.318" x2="393.798" y2="327.337" gradientUnits="userSpaceOnUse">
<stop offset="0.0148686" stop-color="#4B5C32"/>
<stop offset="1" stop-color="#1B322A"/>
</linearGradient>
<linearGradient id="paint6_linear_214_178" x1="744.247" y1="557.914" x2="624.285" y2="436.309" gradientUnits="userSpaceOnUse">
<stop stop-color="#253A2D"/>
<stop offset="1" stop-color="#0E1310"/>
</linearGradient>
<linearGradient id="paint7_linear_214_178" x1="854.023" y1="682.075" x2="699.827" y2="548.535" gradientUnits="userSpaceOnUse">
<stop offset="0.0148686" stop-color="#4B5C32"/>
<stop offset="1" stop-color="#1B322A"/>
</linearGradient>
<linearGradient id="paint8_linear_214_178" x1="679.135" y1="293.172" x2="597.22" y2="443.068" gradientUnits="userSpaceOnUse">
<stop stop-color="#253A2D"/>
<stop offset="1" stop-color="#0E1310"/>
</linearGradient>
<linearGradient id="paint9_linear_214_178" x1="766.43" y1="152.295" x2="682.943" y2="338.412" gradientUnits="userSpaceOnUse">
<stop offset="0.0148686" stop-color="#4B5C32"/>
<stop offset="1" stop-color="#1B322A"/>
</linearGradient>
</defs>
</svg>
