<svg width="1021" height="799" viewBox="0 0 1021 799" fill="none" xmlns="http://www.w3.org/2000/svg">
<path d="M75.693 733.068L110.5 699L78.6221 664.265L54.1397 714.414C44.7978 741.518 48.9998 765.5 56.9998 769.5C64.9998 773.5 71.8541 759.359 75.693 733.068Z" fill="black"/>
<path d="M89.3291 166.853L128.449 153L127.928 159.019L93.8261 170.565L89.3291 166.853Z" fill="#FCFAEC"/>
<path d="M93.8261 170.565L127.928 159.019L146.513 214.497L115.435 227.094C107.728 202.507 102.591 189.738 93.8261 170.565Z" fill="#397B05"/>
<path d="M115.435 227.094L146.513 214.497L151.148 217.1L132.157 224.885L112.862 233.309L115.435 227.094Z" fill="#FCFAEC"/>
<path d="M112.862 233.309L132.157 224.885L151.148 217.1C157.479 257.048 162.812 265.357 169.153 275.435L130.976 288.954C126.593 266.453 123.381 254.055 112.862 233.309Z" fill="#64AA06"/>
<path d="M130.976 288.954L169.153 275.435L169.742 281.592L132.979 294.61L130.976 288.954Z" fill="#FCFAEC"/>
<path d="M132.979 294.61L169.742 281.592C174.578 306.559 178.569 320.133 187.502 343.727L158.752 353.909L140.122 311.046L135.776 301.046L132.979 294.61Z" fill="#397B05"/>
<path d="M158.752 353.909L187.502 343.727L189.839 350.326L162.502 360.006L158.752 353.909Z" fill="#FCFAEC"/>
<path d="M162.502 360.006L189.839 350.326C198.017 373.421 200.658 379.381 209.916 401.032L179.889 410.605C179.889 410.605 170.121 378.525 162.502 360.006Z" fill="#64AA06"/>
<path d="M179.889 410.605L209.916 401.032L210.535 408.77L181.784 418.951L179.889 410.605Z" fill="#FCFAEC"/>
<path d="M181.784 418.951L210.535 408.77C217.77 432.198 219.049 437.291 227.894 462.271L205.407 464.689L194.692 469.785C187.034 440.671 191.975 456.715 181.784 418.951Z" fill="#397B05"/>
<path d="M194.692 469.785L205.407 464.689L227.894 462.271L227.46 468.549L198.68 477.149L194.692 469.785Z" fill="#FCFAEC"/>
<path d="M226.76 541.465L245.809 536.841L245.288 542.86L228.429 546.178L226.76 541.465Z" fill="#FCFAEC"/>
<path d="M198.68 477.149L227.46 468.549C231.446 487.293 239.575 516.24 245.809 536.841L226.76 541.465C217.865 522.337 209.294 495.138 198.68 477.149Z" fill="#64AA06"/>
<path d="M44.1845 267.163C63.4818 266.433 77.6418 264.385 64.1464 280.64C66.4387 277.649 66.1984 275.609 62.7628 274.149C60.4243 271.033 54.4461 269.16 44.1845 267.163Z" fill="#64AA06"/>
<path d="M62.9271 282.072C62.1949 275.925 54.0892 274.303 41.0785 271.068C52.2226 271.748 59.2055 272.637 62.7628 274.149C64.2678 276.154 64.2653 278.673 62.9271 282.072Z" fill="#64AA06"/>
<path d="M62.9271 282.072C49.0833 291.461 43.7518 286.067 37.9019 305.518C51.425 293.272 57.1542 295.78 62.9271 282.072Z" fill="#64AA06"/>
<path d="M72.0943 288.799C82.286 293.879 86.1007 303.248 91.2365 318.616C83.7428 313.561 77.4846 309.737 72.7029 305.25C71.7578 299.535 68.2779 293.599 62.6255 285.657L72.0943 288.799Z" fill="#64AA06"/>
<path d="M81.3675 244.462C97.9065 257.784 102.562 264.041 97.8803 271.792C96.0961 271.158 94.3022 270.696 92.4889 270.422C86.1142 267.241 84.0715 258.712 81.3675 244.462Z" fill="#64AA06"/>
<path d="M69.4235 320.391C58.5872 302.012 59.0047 295.528 62.6255 285.657C68.2779 293.599 71.7578 299.535 72.7029 305.25C73.5038 310.093 72.4842 314.778 69.4235 320.391Z" fill="#64AA06"/>
<path d="M62.6255 285.657L62.9271 282.072C74.0527 272.298 83.5093 269.062 92.4889 270.422C94.0149 271.183 95.7892 271.638 97.8803 271.792C111.096 277.543 119.602 284.695 135.776 301.046L140.122 311.046C106.69 274.949 87.6644 260.654 62.6255 285.657Z" fill="#64AA06"/>
<path d="M450.5 500.5C444.098 485.522 439.298 471.698 429.5 441.5C425.68 467.273 422.689 486.285 420.229 500.5C420.348 509.408 421.934 512.758 431 512C429.453 519.455 454.04 525.5 478.5 526.5C478.646 525.225 480.5 523.5 480.5 523.5L482 521C473.561 517.922 466.801 515.221 458.972 508.5C453.747 507.133 449.824 506.963 441.5 507.5C444.135 504.943 445.371 503.502 451 501.005C450.834 500.838 450.668 500.67 450.5 500.5Z" fill="#C29171"/>
<path d="M451 501.005C445.371 503.502 444.135 504.943 441.5 507.5C449.824 506.963 453.747 507.133 458.972 508.5C456.558 506.427 453.947 503.972 451 501.005Z" fill="black"/>
<path d="M408 546.5L413 552H476.5C475.592 541.384 477.43 535.853 478.5 526.5C454.04 525.5 429.453 519.455 431 512C421.934 512.758 420.348 509.408 420.229 500.5C414.514 533.533 411.673 540.658 408 546.5Z" fill="#773A03"/>
<path d="M526.186 472.012L556.495 496.556L479.403 591.756C470.098 579.304 464.464 572.727 453.5 561.773L526.186 472.012Z" fill="#DBBF9F"/>
<path d="M467.131 606.911C458.348 592.759 452.602 586.239 440.913 577.316C442.821 572.54 444.359 570.708 447.836 568.767C458.895 578.647 464.6 585.2 474.054 598.362C471.346 603.479 469.827 604.982 467.131 606.911Z" fill="#210000"/>
<path d="M461.467 613.905L455.926 609.304C449.82 597.512 445.268 592.029 434.62 585.087C436.599 581.297 437.908 579.489 440.913 577.316C452.602 586.239 458.348 592.759 467.131 606.911C465.938 610.469 464.647 611.954 461.467 613.905Z" fill="#9F2525"/>
<path d="M431.46 588.989L434.62 585.087C445.268 592.029 449.82 597.512 455.926 609.304L431.46 588.989Z" fill="#210000"/>
<path d="M474.054 598.362C464.6 585.2 458.895 578.647 447.836 568.767C448.947 565.142 450.03 563.488 453.5 561.773C464.464 572.727 470.098 579.304 479.403 591.756C477.537 594.854 476.336 596.064 474.344 598.07L474.054 598.362Z" fill="#9F2525"/>
<path d="M519.213 449.638L534.367 461.909L541.945 468.045L549.522 474.181L557.099 480.317L564.676 486.453L579.83 498.725C578.918 501.478 577.905 502.447 575.74 503.776L515.122 454.689C516.41 452.466 516.989 451.104 519.213 449.638Z" fill="#9F2525"/>
<path d="M526.186 472.012L511.032 459.741C512.026 457.628 512.631 456.454 515.122 454.689L575.74 503.776C575.087 506.334 574.488 507.624 571.649 508.828L556.495 496.556L526.186 472.012Z" fill="#3D3D33"/>
<path d="M862.769 126.284C731.093 310.01 698.562 341.994 564.676 486.453L557.099 480.317L750.039 239.591C805.472 167.604 840.014 106.854 890.877 21.6561C891.258 38.9699 874.412 111.906 862.769 126.284Z" fill="#E6EAEB"/>
<path d="M534.367 461.909L890.877 21.6561C840.014 106.854 805.472 167.604 750.039 239.591L557.099 480.317L549.522 474.181L541.945 468.045L534.367 461.909Z" fill="black"/>
<path d="M493.245 512.551C485.367 513.94 484.729 516.083 482.151 521.615C475.749 522.744 470.688 533.511 470.766 534.792C467.068 539.506 462.639 537.122 465.377 547.42C476.932 561.121 496.787 571.553 497.727 569.64C509.052 567.643 525.305 538.884 523.48 537.174L507.914 525.196L493.245 512.551Z" fill="#3E1400"/>
<path fill-rule="evenodd" clip-rule="evenodd" d="M212.375 627.15C199.868 675.45 116.45 700.685 109.225 702.092C102 703.5 68 675.5 76.1573 666.786C84.3146 658.072 98.7256 630.973 89.3173 590.477L74.3288 569.847C120.994 606.697 151.129 619.382 212.375 627.15Z" fill="#773A03"/>
<path d="M245.501 754.999L240.5 708.5L202.551 693.695L219.001 773.999L233.001 773.999L268.501 773.999C274.24 757.46 245.501 754.999 245.501 754.999Z" fill="black"/>
<path d="M320.494 167.5C321.669 169.836 322.831 172.332 324 175C323.172 172.848 344.168 173.412 370.5 173.5C361.71 141.764 354.959 128.177 332.5 128C326.259 130.812 324.151 143.7 320.494 167.5Z" fill="#773A03"/>
<path d="M553 232C542 220.5 537.711 216.378 507 205C493.638 208.241 487.303 211.902 477 220C494.016 227.771 500.778 231.434 512 237.757C524.815 237.736 541.234 238.45 542.5 237.5C544.5 236 546.759 231.668 553 232Z" fill="#AAA494"/>
<path d="M524 271.5C488.689 270.012 493.316 241.651 497 239C498.352 238.027 504.57 237.768 512 237.757C500.778 231.434 494.016 227.771 477 220C473.249 224.329 470.052 228.416 467.349 232.312C466.935 232.909 466.532 233.501 466.14 234.09C460.875 242.006 457.672 249.139 456.003 255.923C455.854 256.528 455.717 257.13 455.592 257.729C454.219 264.328 454.275 270.628 455.263 277.039C455.359 277.663 455.464 278.289 455.577 278.915C456.48 283.912 457.915 289 459.646 294.371C459.808 294.872 459.972 295.375 460.138 295.881C461.836 301.043 463.784 306.477 465.78 312.35C465.853 312.566 465.926 312.783 466 313C470.315 318.803 472.401 321.978 473.5 327C481.156 326.245 484.262 327.898 490 330.5C507.129 322.798 515.12 317.402 523 303.5L524 271.5Z" fill="#AAA494"/>
<path d="M559.379 256.261C555.17 264.634 552.915 267.028 549 269C548.493 286.152 548.849 296.867 546 310C550.333 309.14 552.899 307.425 557.795 301.5C557.96 300.207 558.117 298.872 558.266 297.5C558.331 296.899 558.395 296.292 558.457 295.678C558.745 292.82 558.996 289.827 559.201 286.76C558.746 286.667 558.278 286.58 557.795 286.5V284.5C558.32 284.626 558.828 284.754 559.32 284.883C559.602 280.184 559.772 275.342 559.798 270.572C559.215 270.542 558.617 270.519 558 270.5V268.5C558.617 268.525 559.216 268.555 559.8 268.59C559.787 264.434 559.66 260.355 559.395 256.5L559.379 256.261Z" fill="#AAA494"/>
<path fill-rule="evenodd" clip-rule="evenodd" d="M559.379 256.261C555 254.5 555 246 557.416 242C557.254 241.309 557.082 240.642 556.902 240C555.906 236.465 554.621 233.695 553 232C546.759 231.668 544.5 236 542.5 237.5C541.234 238.45 524.815 237.736 512 237.757C504.57 237.768 498.352 238.027 497 239C493.316 241.651 488.689 270.012 524 271.5L523 303.5C515.12 317.402 507.129 322.798 490 330.5L493 330.459C504.116 332.249 510.796 332.841 527 330C539.816 334.277 545.913 331.965 554.5 318C555.695 314.773 556.862 308.831 557.795 301.5C552.899 307.425 550.333 309.14 546 310C548.849 296.867 548.493 286.152 549 269C552.915 267.028 555.17 264.634 559.379 256.261ZM500.5 246C511.449 242.222 529.5 253 520 262C510.5 271 489.551 249.778 500.5 246Z" fill="#3E1400"/>
<path d="M557.416 242C555 246 555 254.5 559.379 256.261C559.325 255.498 559.565 255.244 559.5 254.5C559.123 250.158 558.259 245.657 557.468 242.222C557.451 242.148 557.433 242.074 557.416 242Z" fill="black"/>
<path d="M500.5 246C511.449 242.222 529.5 253 520 262C510.5 271 489.551 249.778 500.5 246Z" fill="black"/>
<path d="M493 330.459L490 330.5C484.262 327.898 481.156 326.245 473.5 327C472.401 321.978 470.315 318.803 466 313L464.912 313.923L449.5 327C443.288 324.829 440.321 323.252 436 319.5C428.82 324.056 424.192 325.424 415.5 327L419 322.5C399.318 325.551 388.675 329.138 370 337L367.5 322.5C359.126 330.291 347.777 334.957 328.143 343.03L327 343.5C350.548 347.468 367.076 354.59 380.859 365.5C388.362 371.439 395.052 378.5 401.619 386.786L426.956 384.198L425.3 375C418.792 364.721 414.811 361.556 407 361.5C408.021 357.332 408.972 355.35 413 354V350C405.429 348.216 401.5 350.5 399.5 346H436L436.105 345.998C464.222 345.503 480.011 345.225 482 347.5C484.449 341.153 486.663 337.457 493 330.459Z" fill="#773A03"/>
<path d="M425 363L436 346H399.5C401.5 350.5 405.429 348.216 413 350V354C408.972 355.35 408.021 357.332 407 361.5C414.811 361.556 418.792 364.721 425.3 375L425 363Z" fill="black"/>
<path d="M482 347.5C508.649 347.81 523.191 347.665 527 330C510.796 332.841 504.116 332.249 493 330.459C486.663 337.457 484.449 341.153 482 347.5Z" fill="black"/>
<path d="M280.5 136.524C277.558 135.934 274.4 135.431 271 135C264.493 144.01 261.264 153.598 260.678 163C266 146 286.64 151.735 292 167.5C287.303 171.983 284.403 173.957 278 175C286.771 188.892 290.543 202.095 313 196.5L312.786 195.551C306.846 169.156 303.45 154.067 280.5 136.524Z" fill="black"/>
<path d="M313 196.5C290.543 202.095 286.771 188.892 278 175C284.403 173.957 287.303 171.983 292 167.5C286.64 151.735 266 146 260.678 163C259.624 179.915 267.126 196.23 279.5 207.5L268 232.378C277.691 223.509 285.174 219 303.5 212C287.78 208.774 281.052 205.505 273.5 196.5C275.142 192.452 277.031 190.849 282.5 189.5C291.282 202.033 297.454 205.151 313 196.5Z" fill="#773A03"/>
<path d="M189.138 354C181.548 364.914 175.037 370.252 162.5 379.461L354.518 411.129H394C403.956 403.356 414.353 394.839 425.898 385.092C426.249 384.795 426.602 384.497 426.956 384.198L401.619 386.786L398.5 386.305L368.369 381.656L189.138 354Z" fill="#37191B"/>
<path d="M571 305.5C568.815 305.458 560.483 298.671 558.457 295.678C558.395 296.292 558.331 296.899 558.266 297.5C564.084 303.715 566.748 305.739 570.5 306.5L571 305.5Z" fill="black"/>
<path d="M556.902 240C557.082 240.642 557.254 241.309 557.416 242C557.433 242.074 557.451 242.148 557.468 242.222C564.388 239.344 567.816 237.368 573.5 233.5L572.5 232C566.898 235.386 563.502 237.126 556.902 240Z" fill="black"/>
<path d="M559.5 254.5C559.565 255.244 559.325 255.498 559.379 256.261L559.395 256.5C564.913 255.816 577.482 251.079 581 249L578.298 248C575.909 249.809 564.085 254.45 559.5 254.5Z" fill="black"/>
<path d="M576 293.5L577 292.5C570.336 288.934 566.456 286.753 559.32 284.883C558.828 284.754 558.32 284.626 557.795 284.5V286.5C558.278 286.58 558.746 286.667 559.201 286.76C565.628 288.071 569.44 290.596 576 293.5Z" fill="#040404"/>
<path d="M582 276.5L582.5 274.5C573.638 270.763 568.388 269.109 559.8 268.59C559.216 268.555 558.617 268.525 558 268.5V270.5C558.617 270.519 559.215 270.542 559.798 270.572C568.353 271.004 573.469 272.634 582 276.5Z" fill="#040404"/>
<path fill-rule="evenodd" clip-rule="evenodd" d="M381.5 212C370.769 207.104 364.847 206.7 358.5 211.436C357.199 212.406 355.881 213.592 354.5 215C352.261 224.127 353.05 228.818 366.5 241.5C370.197 241.5 372.825 241.52 375.014 241.536C378.45 241.561 380.802 241.579 384.5 241.5C387.678 237.83 390.157 235.36 397 229.5C394.892 222.48 392.144 218.623 381.5 212Z" fill="#895424"/>
<path fill-rule="evenodd" clip-rule="evenodd" d="M358.5 211.436C357.199 212.406 355.881 213.592 354.5 215C352.261 224.127 353.05 228.818 366.5 241.5C370.197 241.5 372.825 241.52 375.014 241.536C378.45 241.561 380.802 241.579 384.5 241.5C387.678 237.83 390.157 235.36 397 229.5C385.648 219.321 379.251 213.641 358.5 211.436Z" fill="black"/>
<path d="M397 229.5C394.892 222.48 392.144 218.623 381.5 212C370.769 207.104 364.847 206.7 358.5 211.436C379.251 213.641 385.648 219.321 397 229.5Z" fill="#773A03"/>
<path d="M456.5 316C458.587 315.534 461.953 314.165 465.78 312.35C475.701 307.644 488.718 299.936 490.579 297.178C490.641 297.792 490.704 298.399 490.77 299C486.707 303.34 473.68 310.025 464.912 313.923C461.125 315.607 458.132 316.77 457 317L456.5 316Z" fill="black"/>
<path d="M490 243.05C489.819 243.692 489.648 244.359 489.486 245.05C489.468 245.123 489.451 245.197 489.434 245.271C484.99 243.423 474.549 238.442 466.14 234.09C461.455 231.664 457.4 229.434 455.366 228.05L456.366 226.55C458.413 227.787 462.572 229.938 467.349 232.312C475.648 236.434 485.811 241.225 490 243.05Z" fill="black"/>
<path d="M489.536 256C489.471 256.744 489.71 256.998 489.657 257.761L489.64 258C486.195 258.642 469.517 258.607 455.592 257.729C445.653 257.103 437.117 256.047 435.798 254.5L436 253C436.977 254.333 445.782 255.325 456.003 255.923C470.079 256.746 486.839 256.819 489.536 256Z" fill="black"/>
<path d="M446.5 300L445.5 299C447.869 297.732 453.304 296.07 459.646 294.371C471.142 291.291 485.617 288.088 490.216 286.883C490.708 286.754 491.215 286.626 491.74 286.5V288.5C491.258 288.58 490.79 288.667 490.335 288.76C486.147 289.614 471.588 292.895 460.138 295.881C454.018 297.477 448.785 298.988 446.5 300Z" fill="#040404"/>
<path d="M431.5 286L431 284C434.837 282.382 444.66 279.654 455.263 277.039C469.146 273.615 484.366 270.384 489.235 270.09C489.819 270.055 490.419 270.025 491.036 270V272C490.419 272.019 489.82 272.042 489.238 272.072C484.404 272.316 469.321 275.497 455.577 278.915C444.997 281.546 435.211 284.318 431.5 286Z" fill="#040404"/>
<path fill-rule="evenodd" clip-rule="evenodd" d="M324 175C322.831 172.332 321.669 169.836 320.494 167.5C311.257 149.142 301.199 140.674 280.5 136.524C303.45 154.067 306.846 169.156 312.786 195.551L313 196.5C297.454 205.151 291.282 202.033 282.5 189.5C277.031 190.849 275.142 192.452 273.5 196.5C281.052 205.505 287.78 208.774 303.5 212C285.174 219 277.691 223.509 268 232.378L230.5 313.5L189.138 354L368.369 381.656L398.5 386.305L401.619 386.786C395.052 378.5 388.362 371.439 380.859 365.5C367.076 354.59 350.548 347.468 327 343.5L328.143 343.03C347.777 334.957 359.126 330.291 367.5 322.5L370 337C388.675 329.138 399.318 325.551 419 322.5L415.5 327C424.192 325.424 428.82 324.056 436 319.5C440.321 323.252 443.288 324.829 449.5 327L464.912 313.923C461.125 315.607 458.132 316.77 457 317L456.5 316C458.587 315.534 461.953 314.165 465.78 312.35C463.784 306.477 461.836 301.043 460.138 295.881C454.018 297.477 448.785 298.988 446.5 300L445.5 299C447.869 297.732 453.304 296.07 459.646 294.371C457.915 289 456.48 283.912 455.577 278.915C444.997 281.546 435.211 284.318 431.5 286L431 284C434.837 282.382 444.66 279.654 455.263 277.039C454.275 270.628 454.219 264.328 455.592 257.729C445.653 257.103 437.117 256.047 435.798 254.5L436 253C436.977 254.333 445.782 255.325 456.003 255.923C457.672 249.139 460.875 242.006 466.14 234.09C461.455 231.664 457.4 229.434 455.366 228.05L456.366 226.55C458.413 227.787 462.572 229.938 467.349 232.312C470.052 228.416 473.249 224.329 477 220C487.303 211.902 493.638 208.241 507 205C461.94 189.778 435.53 181.652 370.5 173.5C344.168 173.412 323.172 172.848 324 175ZM381.5 212C392.144 218.623 394.892 222.48 397 229.5C390.157 235.36 387.678 237.83 384.5 241.5C380.802 241.579 378.45 241.561 375.014 241.536C372.825 241.52 370.197 241.5 366.5 241.5C353.05 228.818 352.261 224.127 354.5 215C355.881 213.592 357.199 212.406 358.5 211.436C364.847 206.7 370.769 207.104 381.5 212Z" fill="#895424"/>
<path d="M273.269 522.698C337.627 483.258 374.442 465.151 427.769 416.698L425.898 385.092C414.353 394.839 403.956 403.356 394 411.129C368.689 430.888 346.221 445.834 314.946 463.923C303.269 474.698 203.5 514 191.36 512.463C143.835 520.198 114.934 518.024 65.7938 509.404C63.6039 515.063 62.5364 519.573 63.5 521.5C61.3869 531.533 59.6403 539.051 57.5007 546.277C115.252 554.236 147.506 555.785 204.5 546.277C214 546.277 273.269 522.698 273.269 522.698Z" fill="#37191B"/>
<path d="M136.5 398.5H144C120.795 420.577 109.512 435.935 91 466.117C87.9232 466.934 72.1422 492.999 65.7938 509.404C114.934 518.024 143.835 520.198 191.36 512.463C203.5 514 303.269 474.698 314.946 463.923C346.221 445.834 368.689 430.888 394 411.129H354.518L162.5 379.461C154.466 385.794 146.659 391.524 136.5 398.5Z" fill="#895424"/>
<path d="M429.5 441.5L427.769 416.698C374.442 465.151 337.627 483.258 273.269 522.698C273.269 522.698 214 546.277 204.5 546.277C147.506 555.785 115.252 554.236 57.5007 546.277C55.6342 552.581 53.4687 558.663 50.5 566V624C55.7492 637.574 55.6731 645.162 57.5 656.5L91.5 684.5L115 687.5H123.5L167.5 696.5C200.145 696.604 217.975 694.988 247.5 684C304.741 667.907 332.716 650.984 375 606C390.526 586.988 398.224 574.72 408 546.5C411.673 540.658 414.514 533.533 420.229 500.5C422.689 486.285 425.68 467.273 429.5 441.5Z" fill="#895424"/>
<path d="M368.5 180C347.415 185.191 349.056 183.699 347.5 186.5L396 195.5C390.568 192.316 387.677 190.575 393 190.5C404.119 190.737 410.357 191.523 421.5 195.5C413.841 195.028 411.374 195.79 408.5 198C444.015 213.549 450.956 215.902 457 217C463.044 218.098 491.203 210.5 487.5 205C483.797 199.5 420.163 181.91 368.5 177.5V180Z" fill="#773A03"/>
<path d="M90.0196 513C84.8785 526.509 85.143 533.677 88.0196 544.832C89.4359 544.057 90.7292 543.37 91.9611 542.755C89.5242 531.853 89.5699 525.318 94.0196 513.555C92.6983 513.377 91.3653 513.192 90.0196 513Z" fill="black"/>
<path d="M71.0196 552.029C65.5954 555.781 83.2605 595.085 89.9883 594.409C94.9161 593.913 97.0726 592.467 99.9883 590.909C101.054 590.34 101.978 590.139 103.52 589.42L103.529 589.415C105 588.729 106.614 588.163 108.02 587.529C105.828 585.68 98.8985 574.619 97.2863 572.029C96.7994 571.247 96.3311 570.416 95.8768 569.529C94.7858 567.398 93.775 564.938 92.7791 562.029C92.5057 561.23 92.2335 560.398 91.9611 559.529C91.0785 556.714 90.1936 553.517 89.2605 549.853C85.3822 549.45 81.4102 549.002 77.3203 548.51L76.9181 548.462C75.6835 548.924 75.3549 548.99 75.0673 549.136C74.6309 549.359 74.2892 549.767 71.0196 552.029Z" fill="#E4C9B1"/>
<path d="M76.9181 548.462L77.3203 548.51C81.4102 549.002 85.3822 549.45 89.2605 549.853C88.8571 548.269 88.4447 546.598 88.0196 544.832C86.8677 545.204 85.6952 545.572 84.5315 545.937L84.5305 545.937C81.8205 546.788 79.1588 547.623 76.9181 548.462Z" fill="#E4C9B1"/>
<path d="M106.52 515.06C105.195 514.922 103.862 514.775 102.52 514.62C99.7709 526.886 99.736 532.212 102.52 538.847C103.606 538.584 104.762 538.337 106.02 538.098L105.988 537.904C104.472 531.403 103.874 527.811 106.52 515.06Z" fill="black"/>
<path d="M106.367 557.446L97.538 560.424L103.018 561.303L106.367 557.446Z" fill="#E4C9B1"/>
<path d="M97.538 560.424L92.7791 562.029L96.4954 562.529L101.383 563.186L103.018 561.303L97.538 560.424Z" fill="black"/>
<path d="M110.569 556.029C110.295 555.239 110.028 554.408 109.768 553.529L106.367 557.446L103.018 561.303L101.383 563.186L98.0473 567.029L95.8768 569.529L100.866 567.716L104.301 563.579L105.818 561.753L108.52 558.498L110.569 556.029Z" fill="black"/>
<path d="M95.8768 569.529C96.3311 570.416 96.7994 571.247 97.2863 572.029L100.866 570.62L111.52 566.428L115.077 565.029L110.106 564.36L100.866 567.716L95.8768 569.529Z" fill="black"/>
<path d="M100.866 567.716L110.106 564.36L107.204 563.97L104.301 563.579L100.866 567.716Z" fill="#E4C9B1"/>
<path d="M115.077 565.029C114.624 564.39 114.189 563.726 113.771 563.029L110.334 562.477L105.818 561.753L104.301 563.579L107.204 563.97L110.106 564.36L115.077 565.029Z" fill="black"/>
<path d="M91.9611 559.529C92.2335 560.398 92.5057 561.23 92.7791 562.029L97.538 560.424L106.367 557.446L109.768 553.529L106.52 554.623L95.5196 558.33L91.9611 559.529Z" fill="black"/>
<path d="M142.52 524.718L106.52 538.004C107.369 543.496 108.25 547.91 109.217 551.562C124.449 552.548 138.79 552.661 154.046 551.733C153.694 551.211 153.352 550.683 153.02 550.143C152.995 550.102 152.97 550.062 152.945 550.021C152.919 549.979 152.894 549.937 152.868 549.895C152.315 548.981 151.788 548.033 151.284 547.029C150.736 545.938 150.214 544.781 149.711 543.529C149.516 543.044 149.324 542.544 149.135 542.029C149.086 541.896 149.037 541.763 148.989 541.628L148.954 541.529C148.724 540.888 148.499 540.222 148.276 539.529C147.924 538.435 147.579 537.272 147.239 536.029C146.32 532.676 145.432 528.737 144.52 523.98L142.52 524.718Z" fill="#E4C9B1"/>
<path d="M125.52 580.529L160.76 564.938L162.26 564.351C160.785 562.564 155.234 553.491 154.046 551.733C138.79 552.661 124.449 552.548 109.217 551.562C109.398 552.243 109.581 552.898 109.768 553.529C110.028 554.408 110.295 555.239 110.569 556.029C111.532 558.8 112.586 561.053 113.771 563.029C114.189 563.726 114.624 564.39 115.077 565.029C116.716 567.342 123.32 578.341 125.52 580.529Z" fill="#E4C9B1"/>
<path d="M160.52 518.075C160.294 517.245 160.262 516.75 160.52 515.761C159.297 515.863 158.084 515.957 156.878 516.043C156.612 517.315 156.688 517.949 157.18 518.898C158.215 518.623 159.316 518.354 160.52 518.075Z" fill="black"/>
<path d="M169.888 545.529C169.589 545.106 169.3 544.681 169.02 544.254L168.954 544.154L168.908 544.083C168.872 544.028 168.836 543.972 168.801 543.917L165.655 543.538L161.42 543.029L160.122 544.561L165.63 545.107L169.888 545.529Z" fill="black"/>
<path d="M160.122 544.561L156.878 548.39L165.63 545.107L160.122 544.561Z" fill="#E4C9B1"/>
<path d="M153.02 550.143C153.352 550.683 153.694 551.211 154.046 551.733L156.245 550.872L167.52 546.456L169.888 545.529L165.63 545.107L156.878 548.39L152.868 549.895L152.945 550.021L153.02 550.143Z" fill="black"/>
<path d="M149.135 542.029C149.324 542.544 149.516 543.044 149.711 543.529L153.814 542.114L162.037 539.277L164.842 536.029L161.857 537.062L152.02 540.467L148.954 541.529L148.989 541.628C149.037 541.763 149.086 541.896 149.135 542.029Z" fill="black"/>
<path d="M165.655 538.029C165.442 537.539 165.235 537.04 165.035 536.529C165.001 536.444 164.968 536.358 164.935 536.272C164.904 536.191 164.872 536.11 164.842 536.029L162.037 539.277L159.044 542.743L157.683 544.319L154.48 548.029L152.868 549.895L156.878 548.39L160.122 544.561L161.42 543.029L163.901 540.099L165.655 538.029Z" fill="black"/>
<path d="M159.044 542.743L162.037 539.277L153.814 542.114L156.429 542.428L159.044 542.743Z" fill="#E4C9B1"/>
<path d="M149.711 543.529L152.868 543.821L157.683 544.319L159.044 542.743L156.429 542.428L153.814 542.114L149.711 543.529Z" fill="black"/>
<path d="M144.52 523.98C145.432 528.737 146.32 532.676 147.239 536.029C147.579 537.272 147.924 538.435 148.276 539.529C148.499 540.222 148.724 540.888 148.954 541.529L152.02 540.467C150.061 534.334 149.018 530.728 147.767 522.343C146.753 522.827 145.683 523.367 144.52 523.98Z" fill="black"/>
<path fill-rule="evenodd" clip-rule="evenodd" d="M152.02 540.467C150.061 534.334 149.018 530.728 147.767 522.343C151.038 520.784 153.739 519.811 157.18 518.898C158.621 526.867 159.684 530.755 161.857 537.062L152.02 540.467Z" fill="#E4C9B1"/>
<path d="M163.079 530.529C162.128 527.017 161.31 522.959 160.52 518.075C159.316 518.354 158.215 518.623 157.18 518.898C158.621 526.867 159.684 530.755 161.857 537.062L164.842 536.029C164.596 535.381 164.359 534.716 164.13 534.029C163.76 532.921 163.411 531.758 163.079 530.529Z" fill="black"/>
<path d="M91.9611 542.755C90.7292 543.37 89.4359 544.057 88.0196 544.832C88.4447 546.598 88.8571 548.269 89.2605 549.853C90.6233 549.995 91.9746 550.131 93.3154 550.261C92.8222 548.096 92.3973 545.776 91.9611 542.755Z" fill="black"/>
<path d="M89.2605 549.853C90.1936 553.517 91.0785 556.714 91.9611 559.529L95.5196 558.33C94.5954 555.231 93.9064 552.857 93.3154 550.261C91.9746 550.131 90.6233 549.995 89.2605 549.853Z" fill="black"/>
<path fill-rule="evenodd" clip-rule="evenodd" d="M93.3154 550.261C97.4626 550.664 101.509 551.013 105.487 551.304C104.267 547.273 103.468 544.073 102.52 538.847C98.5343 539.81 95.5018 540.986 91.9611 542.755C92.3973 545.776 92.8222 548.096 93.3154 550.261Z" fill="#E4C9B1"/>
<path d="M106.52 538.004C106.351 538.036 106.184 538.067 106.02 538.098C104.762 538.337 103.606 538.584 102.52 538.847C103.468 544.073 104.267 547.273 105.487 551.304L105.663 551.317C106.501 551.378 107.335 551.437 108.166 551.493C108.517 551.516 108.867 551.539 109.217 551.562C108.25 547.91 107.369 543.496 106.52 538.004Z" fill="black"/>
<path fill-rule="evenodd" clip-rule="evenodd" d="M95.5196 558.33C94.5954 555.231 93.9064 552.857 93.3154 550.261C97.4626 550.664 101.509 551.013 105.487 551.304C105.8 552.34 106.141 553.43 106.52 554.623L95.5196 558.33Z" fill="#E4C9B1"/>
<path d="M109.217 551.562C108.867 551.539 108.517 551.516 108.166 551.493C107.335 551.437 106.501 551.378 105.663 551.317L105.487 551.304C105.8 552.34 106.141 553.43 106.52 554.623L109.768 553.529C109.581 552.898 109.398 552.243 109.217 551.562Z" fill="black"/>
<path d="M97.2863 572.029C98.8985 574.619 105.828 585.68 108.02 587.529C108.52 587.529 110.52 587.029 111.336 586.406C108.986 584.006 102.78 573.664 100.866 570.62L97.2863 572.029Z" fill="black"/>
<path fill-rule="evenodd" clip-rule="evenodd" d="M111.336 586.406C108.986 584.006 102.78 573.664 100.866 570.62L111.52 566.428C113.484 569.746 119.674 580.112 121.988 582.34C118.273 584.132 115.219 585.239 111.336 586.406Z" fill="#E4C9B1"/>
<path d="M125.52 580.529C123.32 578.341 116.716 567.342 115.077 565.029L111.52 566.428C113.484 569.746 119.674 580.112 121.988 582.34C123.02 582.029 124.02 581.529 125.52 580.529Z" fill="black"/>
<path d="M173.454 550.05C172.132 548.52 170.951 547.034 169.888 545.529L167.52 546.456L170.289 550.39C171.337 550.282 172.392 550.168 173.454 550.05Z" fill="black"/>
<path d="M178.02 557.001C177.922 556.889 176.405 554.407 175.412 552.931L175.411 552.929C174.467 551.526 173.545 550.155 173.454 550.05C172.392 550.168 171.337 550.282 170.289 550.39L175.52 558.529C176.315 558.093 177.142 557.527 178.02 557.001Z" fill="black"/>
<path fill-rule="evenodd" clip-rule="evenodd" d="M164.52 563.529C168.879 562.431 171.881 560.523 175.52 558.529L170.289 550.39C165.673 550.868 161.183 551.256 156.777 551.557L164.52 563.529Z" fill="#E4C9B1"/>
<path d="M154.046 551.733C155.234 553.491 160.785 562.564 162.26 564.351C163.161 564.351 164.02 564.029 164.52 563.529L156.777 551.557L156.529 551.574C155.699 551.63 154.871 551.683 154.046 551.733Z" fill="black"/>
<path fill-rule="evenodd" clip-rule="evenodd" d="M167.52 546.456L170.289 550.39C165.673 550.868 161.183 551.256 156.777 551.557L156.245 550.872L167.52 546.456Z" fill="#E4C9B1"/>
<path d="M156.245 550.872L154.046 551.733C154.871 551.683 155.699 551.63 156.529 551.574L156.777 551.557L156.245 550.872Z" fill="#2E302A"/>
<path fill-rule="evenodd" clip-rule="evenodd" d="M110.334 562.477L108.52 558.498L105.818 561.753L110.334 562.477Z" fill="#E4C9B1"/>
<path d="M113.771 563.029C112.586 561.053 111.532 558.8 110.569 556.029L108.52 558.498L110.334 562.477L113.771 563.029Z" fill="black"/>
<path fill-rule="evenodd" clip-rule="evenodd" d="M98.0473 567.029L101.383 563.186L96.4954 562.529C96.838 564.469 97.2304 565.416 98.0473 567.029Z" fill="#E4C9B1"/>
<path d="M92.7791 562.029C93.775 564.938 94.7858 567.398 95.8768 569.529L98.0473 567.029C97.2304 565.416 96.838 564.469 96.4954 562.529L92.7791 562.029Z" fill="black"/>
<path fill-rule="evenodd" clip-rule="evenodd" d="M152.868 543.821C153.387 545.779 153.619 546.182 154.666 547.997L154.48 548.029L157.683 544.319L152.868 543.821Z" fill="#E4C9B1"/>
<path fill-rule="evenodd" clip-rule="evenodd" d="M165.655 543.538C164.78 542.304 164.359 541.576 163.901 540.099L161.42 543.029L165.655 543.538Z" fill="#E4C9B1"/>
<path d="M144.52 523.98C145.683 523.367 146.753 522.827 147.767 522.343C147.194 520.661 147.146 519.436 147.767 516.547C146.657 516.59 145.55 516.626 144.447 516.655C143.619 519.983 143.765 521.52 144.52 523.98Z" fill="black"/>
<path d="M149.711 543.529C150.214 544.781 150.736 545.938 151.284 547.029C151.788 548.033 152.315 548.981 152.868 549.895L154.48 548.029L154.666 547.997C153.619 546.182 153.387 545.779 152.868 543.821L149.711 543.529Z" fill="black"/>
<path d="M167.103 541.029C166.588 540.063 166.107 539.068 165.655 538.029L163.901 540.099C164.359 541.576 164.78 542.304 165.655 543.538L168.801 543.917C168.195 542.975 167.631 542.018 167.103 541.029Z" fill="black"/>
<path d="M187.52 552.529L186.648 548.396C185.982 548.489 185.319 548.579 184.659 548.669C185.432 549.653 186.719 551.588 187.52 552.529Z" fill="#4E4945"/>
<path d="M185.864 545.226C183.609 538.119 178.042 528.52 169.02 514.938C171.137 527.453 177.062 538.897 184.425 548.368L186.602 547.997C186.417 547.117 186.171 546.195 185.864 545.226Z" fill="#4E4945"/>
<path fill-rule="evenodd" clip-rule="evenodd" d="M186.602 547.997C186.868 549.269 187.507 551.423 187.52 552.529L186.648 548.396L186.602 547.997ZM184.425 548.368C177.062 538.897 171.137 527.453 169.02 514.938L160.52 518.075C161.31 522.959 162.128 527.017 163.079 530.529C163.411 531.758 163.76 532.921 164.13 534.029C164.359 534.716 164.596 535.381 164.842 536.029C164.872 536.11 164.904 536.191 164.935 536.272C164.968 536.358 165.001 536.444 165.035 536.529C165.235 537.04 165.442 537.539 165.655 538.029C166.107 539.068 166.588 540.063 167.103 541.029C167.631 542.018 168.195 542.975 168.801 543.917C168.836 543.972 168.872 544.028 168.908 544.083L168.954 544.154L169.02 544.254C169.3 544.681 169.589 545.106 169.888 545.529C170.951 547.034 172.132 548.52 173.454 550.05C173.545 550.155 174.467 551.526 175.411 552.929L175.412 552.931C176.405 554.407 177.922 556.889 178.02 557.001L187.52 552.529C186.719 551.588 185.432 549.653 184.659 548.669C184.581 548.569 184.503 548.468 184.425 548.368Z" fill="#E4C9B1"/>
<path d="M184.659 548.669C185.319 548.579 185.982 548.489 186.648 548.396L186.602 547.997L184.425 548.368C184.503 548.468 184.581 548.569 184.659 548.669Z" fill="#4E4945"/>
<path d="M243.209 713.001C279.489 694.002 276.5 631 276.5 631C276.5 631 258.5 585.5 244.492 572.291C238.743 566.871 221.269 547.524 208.213 541.713C250.716 582.771 244.192 595.352 237.07 619.343L228.519 606.858C223.097 627.476 220.557 639.668 218.089 664.02L211.397 656.588L211.772 669.707L188.058 656.073L192.3 683.202C181.57 670.697 176.373 663.495 169.251 650.131L164.98 664.069L158.623 657.009C153.034 666.307 150.661 672.347 148.298 685.145C139.354 677.941 75.4842 667.576 62.5002 661C91.5 706 182.642 698.656 192.301 699.501C196.358 710.204 206.93 732 243.209 713.001Z" fill="#773A03"/>
<path d="M62.5002 661C75.4842 667.576 139.354 677.941 148.298 685.145C150.661 672.347 153.034 666.307 158.623 657.009L164.98 664.069L169.251 650.131C176.373 663.495 181.57 670.697 192.3 683.202L188.058 656.073L211.772 669.707L211.397 656.588L218.089 664.02C220.557 639.668 223.097 627.476 228.519 606.858L237.07 619.343C244.192 595.352 250.716 582.771 208.213 541.713L62.5002 661Z" fill="#895424"/>
<path d="M166.008 592.118C164.57 598.16 162.482 600.912 159.091 605.99L159.986 606.436C163.925 601.325 166.327 598.61 166.902 592.564L166.008 592.118Z" fill="black"/>
<path d="M179.424 592.103C177.985 601.752 175.074 605.177 169.944 611.211C169.906 611.255 169.869 611.299 169.831 611.344L171.621 612.236C177.03 605.552 180.581 602.061 181.214 592.995L179.424 592.103Z" fill="black"/>
<path d="M154.169 603.536C155.639 605.237 156.667 605.855 159.091 605.99C162.482 600.912 164.57 598.16 166.008 592.118L166.902 592.564C166.327 598.61 163.925 601.325 159.986 606.436C159.56 611.34 160.399 613.335 169.831 611.344L169.944 611.211C175.074 605.177 177.985 601.752 179.424 592.103L181.214 592.995C180.581 602.061 177.03 605.552 171.621 612.236C173.845 617.557 176.41 618.508 183.7 616.024C193.755 612.702 198.161 607.372 199.453 588.121C196.637 579.738 194.871 575.381 190.802 569.282C185.299 573.519 181.327 575.453 172.029 577.801C175.157 575.431 176.52 573.913 176.044 569.746C171.362 569.764 169.16 571.184 165.822 573.338L165.819 573.34C165.436 573.586 165.039 573.842 164.621 574.107C163.606 583.057 160.324 591.952 154.169 603.536Z" fill="#3E1400"/>
<path d="M227.421 522.73L263.399 503.236C268.916 500.939 273.74 499.116 278.108 497.466L278.111 497.464C280.586 496.529 282.913 495.65 285.137 494.771C300.088 488.862 309.204 472.997 315 456.89C298.619 484.594 288.431 494.034 267.762 495.731C269.384 492.63 270.335 490.225 271.431 487.127C245.968 506.756 238.519 511.545 231.66 514.228C231.282 510.173 231.842 507.808 237.237 503.042L232.762 500.811C238.385 493.615 240.817 487.816 244.81 476.648C235.212 482.348 229.257 483.829 218.21 485.175L227.811 472.642C206.274 482.791 193.252 487.7 169.7 496.187L166.12 494.402C169.618 482.164 172.191 474.932 180.615 459.726C172.89 466.282 167.733 472.127 162.377 479.685C164.887 460.767 172.262 446.908 216.778 405.125C178.84 435.934 165.059 450.969 156.825 477.994C155.301 482.998 153.966 488.414 152.704 494.417C152.614 501.554 152.611 507.365 153.497 514.118C154.577 522.359 156.979 532.004 162.155 547.178C163.433 552.692 164.309 557.6 164.714 562.216C165.076 566.339 165.061 570.228 164.621 574.107C165.039 573.842 165.436 573.586 165.819 573.34L165.822 573.338C169.16 571.184 171.362 569.764 176.044 569.746C176.52 573.913 175.157 575.431 172.029 577.801C181.327 575.453 185.299 573.519 190.802 569.282C194.871 575.381 196.637 579.738 199.453 588.121C199.589 586.096 199.69 583.917 199.76 581.57C204.469 560.106 208.947 547.312 220.154 531.958C222.311 529.003 224.716 525.954 227.421 522.73Z" fill="#773A03"/>
<path d="M231.66 514.228C238.519 511.545 245.968 506.756 271.431 487.127C270.335 490.225 269.384 492.63 267.762 495.731C288.431 494.034 298.619 484.594 315 456.89L216.778 405.125C172.262 446.908 164.887 460.767 162.377 479.685C167.733 472.127 172.89 466.282 180.615 459.726C172.191 474.932 169.618 482.164 166.12 494.402L169.7 496.187C193.252 487.7 206.274 482.791 227.811 472.642L218.21 485.175C229.257 483.829 235.212 482.348 244.81 476.648C240.817 487.816 238.385 493.615 232.762 500.811L237.237 503.042C231.842 507.808 231.282 510.173 231.66 514.228Z" fill="#895424"/>
</svg>
