<svg width="1117" height="889" viewBox="0 0 1117 889" fill="none" xmlns="http://www.w3.org/2000/svg">
<path d="M84.6812 258.805L121.492 239.643L121.814 245.676L89.651 261.855L84.6812 258.805Z" fill="#FCFAEC"/>
<path d="M89.651 261.855L121.814 245.676L147.94 298.027L118.917 314.827C107.863 291.551 100.999 279.622 89.651 261.855Z" fill="#397B05"/>
<path d="M118.917 314.827L147.94 298.027L152.891 299.959L135.169 310.312L117.235 321.339L118.917 314.827Z" fill="#FCFAEC"/>
<path d="M117.235 321.339L135.169 310.312L152.891 299.959C164.72 338.637 171.158 346.123 178.84 355.221L142.916 373.922C135.444 352.25 130.538 340.419 117.235 321.339Z" fill="#64AA06"/>
<path d="M142.916 373.922L178.84 355.221L180.28 361.236L145.687 379.244L142.916 373.922Z" fill="#FCFAEC"/>
<path d="M145.687 379.244L180.28 361.236C188.544 385.287 194.385 398.174 206.515 420.295L179.461 434.379L155.048 394.526L149.352 385.228L145.687 379.244Z" fill="#397B05"/>
<path d="M179.461 434.379L206.515 420.295L209.747 426.504L184.024 439.895L179.461 434.379Z" fill="#FCFAEC"/>
<path d="M184.024 439.895L209.747 426.504C221.06 448.236 224.505 453.771 236.687 473.923L208.284 487.581C208.284 487.581 194.146 457.174 184.024 439.895Z" fill="#64AA06"/>
<path d="M208.284 487.581L236.687 473.923L238.376 481.499L211.322 495.582L208.284 487.581Z" fill="#FCFAEC"/>
<path d="M211.322 495.582L238.376 481.499C248.801 503.693 250.776 508.558 263.012 532.064L241.08 537.588L231.178 544.126C219.543 516.361 226.669 531.561 211.322 495.582Z" fill="#397B05"/>
<path d="M231.178 544.126L241.08 537.588L263.012 532.064L263.456 538.341L236.153 550.863L231.178 544.126Z" fill="#FCFAEC"/>
<path d="M272.911 610.645L291.131 603.415L291.453 609.448L275.219 615.08L272.911 610.645Z" fill="#FCFAEC"/>
<path d="M236.153 550.863L263.456 538.341C270.012 556.348 282.09 583.882 291.131 603.415L272.911 610.645C261.44 592.941 249.167 567.199 236.153 550.863Z" fill="#64AA06"/>
<path d="M53.9364 364.422C72.9444 361.014 86.6815 357.015 75.5796 374.989C77.4334 371.708 76.9115 369.722 73.3062 368.754C70.5568 365.994 64.3762 364.972 53.9364 364.422Z" fill="#64AA06"/>
<path d="M74.5715 376.577C72.991 370.592 64.7384 370.114 51.4041 368.721C62.5343 367.843 69.5731 367.752 73.3062 368.754C75.0755 370.53 75.4237 373.025 74.5715 376.577Z" fill="#64AA06"/>
<path d="M74.5715 376.577C62.1692 387.801 56.1389 383.202 53.0529 403.278C64.7401 389.269 70.7626 390.955 74.5715 376.577Z" fill="#64AA06"/>
<path d="M84.5857 381.963C95.3852 385.575 100.467 394.322 107.691 408.825C99.5671 404.863 92.8376 401.947 87.4779 398.169C85.7467 392.641 81.4745 387.247 74.7718 380.169L84.5857 381.963Z" fill="#64AA06"/>
<path d="M87.5982 336.767C105.83 347.658 111.312 353.206 107.754 361.533C105.899 361.154 104.058 360.946 102.224 360.926C95.4688 358.663 92.2591 350.502 87.5982 336.767Z" fill="#64AA06"/>
<path d="M86.3377 413.619C73.0489 396.927 72.56 390.448 74.7718 380.169C81.4745 387.247 85.7467 392.641 87.4779 398.169C88.9451 402.854 88.5874 407.635 86.3377 413.619Z" fill="#64AA06"/>
<path d="M74.7718 380.169L74.5715 376.577C84.2286 365.35 93.1427 360.829 102.224 360.926C103.841 361.468 105.662 361.671 107.754 361.533C121.641 365.388 131.06 371.288 149.352 385.228L155.048 394.526C116.917 363.433 96.0873 351.925 74.7718 380.169Z" fill="#64AA06"/>
<path fill-rule="evenodd" clip-rule="evenodd" d="M387.201 694.923C408.274 740.148 390.773 768.109 355.278 818.362L307.304 812.153C317.432 784.496 301.939 770.163 268.921 744.9L244.233 738.516C303.68 737.267 335.002 727.887 387.201 694.923Z" fill="#773A03"/>
<path d="M379.465 856.637L355.278 818.362L307.304 812.153L355.944 871.5L408.444 871.5L408.444 869C400.193 857.042 391.444 856.637 379.465 856.637Z" fill="black"/>
<path d="M471.465 544.727C467.346 528.967 464.643 514.585 459.416 483.271C451.829 508.196 446.06 526.557 441.526 540.252C440.327 549.08 441.4 552.627 450.479 553.218C447.847 560.362 471.271 569.975 495.314 574.58C495.647 573.34 497.735 571.908 497.735 571.908L499.588 569.657C491.697 565.366 485.411 561.696 478.661 553.891C473.695 551.767 469.84 551.018 461.529 550.319C464.512 548.18 465.948 546.937 471.884 545.3C471.745 545.111 471.605 544.92 471.465 544.727Z" fill="#C29171"/>
<path d="M471.884 545.3C465.948 546.937 464.512 548.18 461.529 550.319C469.84 551.018 473.695 551.767 478.661 553.891C476.58 551.484 474.361 548.67 471.884 545.3Z" fill="black"/>
<path d="M422.632 583.939L426.764 590.118L489.567 599.504C490.238 588.87 492.873 583.672 495.314 574.58C471.271 569.975 447.847 560.362 450.479 553.218C441.4 552.627 440.327 549.08 441.526 540.252C430.991 572.078 427.128 578.704 422.632 583.939Z" fill="#773A03"/>
<path d="M550.53 527.74L576.878 556.493L486.561 639.253C479.199 625.563 474.599 618.225 465.374 605.77L550.53 527.74Z" fill="#DBBF9F"/>
<path d="M472.184 652.427C465.589 637.133 460.87 629.835 450.629 619.282C453.222 614.84 455.014 613.256 458.739 611.851C468.216 623.256 472.89 630.581 480.294 644.996C476.86 649.656 475.136 650.918 472.184 652.427Z" fill="#210000"/>
<path d="M465.549 658.508L460.749 653.138C456.453 640.573 452.761 634.477 443.256 626.038C445.773 622.582 447.335 620.987 450.629 619.282C460.87 629.835 465.589 637.133 472.184 652.427C470.478 655.771 468.982 657.048 465.549 658.508Z" fill="#9F2525"/>
<path d="M439.554 629.43L443.256 626.038C452.761 634.477 456.453 640.573 460.749 653.138L439.554 629.43Z" fill="#210000"/>
<path d="M480.294 644.996C472.89 630.581 468.216 623.256 458.739 611.851C460.373 608.43 461.689 606.954 465.374 605.77C474.599 618.225 479.199 625.563 486.561 639.253C484.258 642.041 482.891 643.06 480.625 644.75L480.294 644.996Z" fill="#9F2525"/>
<path d="M546.94 504.58L560.114 518.957L566.701 526.145L573.288 533.334L579.875 540.522L586.462 547.711L599.636 562.088C598.327 564.676 597.182 565.485 594.844 566.479L542.148 508.971C543.75 506.963 544.524 505.701 546.94 504.58Z" fill="#9F2525"/>
<path d="M550.53 527.74L537.356 513.363C538.652 511.42 539.423 510.349 542.148 508.971L594.844 566.479C593.82 568.912 593.038 570.099 590.052 570.87L576.878 556.493L550.53 527.74Z" fill="#3D3D33"/>
<path d="M934.518 235.559C777.131 397.804 740.23 424.628 586.462 547.711L579.875 540.522L806.278 330.959C871.743 267.956 914.885 212.979 977.782 136.235C975.599 153.415 948.157 223.06 934.518 235.559Z" fill="#E6EAEB"/>
<path d="M560.114 518.957L977.782 136.235C914.885 212.979 871.743 267.956 806.278 330.959L579.875 540.522L573.288 533.334L566.701 526.145L560.114 518.957Z" fill="black"/>
<path d="M511.959 562.963C503.962 563.173 503.014 565.198 499.646 570.288C493.149 570.458 486.551 580.359 486.439 581.638C482.085 585.753 478.057 582.741 479.243 593.33C488.645 608.589 506.741 621.842 507.953 620.088C519.449 619.787 539.774 593.746 538.222 591.786L524.597 577.638L511.959 562.963Z" fill="#3E1400"/>
<path d="M313.686 227.274C315.175 229.424 316.673 231.734 318.202 234.213C317.083 232.197 337.953 229.834 364.041 226.256C350.919 196.053 342.343 183.537 320.078 186.487C314.289 190.141 313.996 203.196 313.686 227.274Z" fill="#773A03"/>
<path d="M552.906 258.787C540.413 248.93 535.592 245.445 503.596 238.452C490.815 243.521 485.052 248.028 475.976 257.481C493.908 262.809 501.114 265.495 513.107 270.194C525.794 268.39 542.152 266.812 543.274 265.695C545.046 263.932 546.68 259.327 552.906 258.787Z" fill="#AAA494"/>
<path d="M529.686 301.939C494.512 305.38 495.147 276.651 498.426 273.513C499.629 272.362 505.751 271.24 513.107 270.194C501.114 265.495 493.908 262.809 475.976 257.481C472.863 262.29 470.267 266.783 468.132 271.016C467.805 271.665 467.489 272.308 467.183 272.945C463.07 281.518 460.892 289.027 460.182 295.977C460.119 296.596 460.068 297.212 460.028 297.823C459.585 304.548 460.518 310.779 462.388 316.991C462.57 317.595 462.761 318.2 462.961 318.805C464.551 323.627 466.679 328.466 469.142 333.544C469.371 334.017 469.604 334.493 469.839 334.97C472.239 339.846 474.924 344.956 477.717 350.494C477.82 350.698 477.923 350.902 478.026 351.107C483.107 356.254 485.615 359.107 487.401 363.927C494.878 362.114 498.184 363.319 504.228 365.097C520.118 355.086 527.281 348.63 533.149 333.767L529.686 301.939Z" fill="#AAA494"/>
<path d="M562.6 281.925C559.597 290.802 557.697 293.487 554.095 295.984C555.98 313.04 557.823 323.601 556.83 337.003C561.001 335.548 563.304 333.493 567.327 326.944C567.31 325.641 567.28 324.296 567.237 322.917C567.218 322.313 567.196 321.703 567.172 321.086C567.06 318.217 566.892 315.218 566.668 312.151C566.205 312.123 565.729 312.102 565.24 312.09L564.961 310.109C565.499 310.161 566.019 310.217 566.524 310.276C566.149 305.583 565.644 300.765 565.006 296.038C564.425 296.09 563.829 296.15 563.216 296.217L562.938 294.236C563.552 294.175 564.15 294.122 564.733 294.075C564.141 289.961 563.447 285.94 562.649 282.159L562.6 281.925Z" fill="#AAA494"/>
<path fill-rule="evenodd" clip-rule="evenodd" d="M562.6 281.925C558.018 280.79 556.835 272.373 558.671 268.076C558.414 267.414 558.152 266.777 557.883 266.167C556.405 262.805 554.748 260.24 552.906 258.787C546.68 259.327 545.046 263.932 543.274 265.695C542.152 266.812 525.794 268.39 513.107 270.194C505.751 271.24 499.629 272.362 498.426 273.513C495.147 276.651 494.512 305.38 529.686 301.939L533.149 333.767C527.281 348.63 520.118 355.086 504.228 365.097L507.193 364.639C518.45 364.864 525.147 364.521 540.798 359.452C554.085 361.904 559.801 358.766 566.361 343.742C567.095 340.38 567.424 334.333 567.327 326.944C563.304 333.493 561.001 335.548 556.83 337.003C557.823 323.601 555.98 313.04 554.095 295.984C557.697 293.487 559.597 290.802 562.6 281.925ZM502.866 279.958C513.182 274.693 532.558 282.854 524.403 293.088C516.248 303.323 492.549 285.223 502.866 279.958Z" fill="#3E1400"/>
<path d="M558.671 268.076C556.835 272.373 558.018 280.79 562.6 281.925C562.44 281.177 562.642 280.892 562.475 280.164C561.497 275.917 560.015 271.58 558.753 268.288C558.726 268.217 558.699 268.146 558.671 268.076Z" fill="black"/>
<path d="M502.866 279.958C513.182 274.693 532.558 282.854 524.403 293.088C516.248 303.323 492.549 285.223 502.866 279.958Z" fill="black"/>
<path d="M507.193 364.639L504.228 365.097C498.184 363.319 494.878 362.114 487.401 363.927C485.615 359.107 483.107 356.254 478.026 351.107L477.077 352.173L463.635 367.267C457.181 365.982 454.024 364.834 449.223 361.719C442.746 367.23 438.354 369.229 429.966 371.999L432.806 367.056C413.739 372.817 403.699 377.85 386.3 388.234L381.807 374.223C374.598 383.104 364.009 389.304 345.69 400.031L344.624 400.655C368.494 401.307 385.853 406.06 401.021 414.946C409.277 419.782 416.885 425.844 424.54 433.135L449.271 427.046L446.351 418.168C438.475 408.895 434.093 406.315 426.35 407.346C426.781 403.077 427.447 400.982 431.248 399.084L430.691 395.123C422.945 394.41 419.373 397.219 416.766 393.041L452.911 387.961L453.015 387.945C480.789 383.541 496.385 381.069 498.672 383.045C500.213 376.419 501.892 372.451 507.193 364.639Z" fill="#773A03"/>
<path d="M444.384 406.327L452.911 387.961L416.766 393.041C419.373 397.219 422.945 394.41 430.691 395.123L431.248 399.084C427.447 400.982 426.781 403.077 426.35 407.346C434.093 406.315 438.475 408.895 446.351 418.168L444.384 406.327Z" fill="black"/>
<path d="M498.672 383.045C525.105 379.643 539.485 377.475 540.798 359.452C525.147 364.521 518.45 364.864 507.193 364.639C501.892 372.451 500.213 376.419 498.672 383.045Z" fill="black"/>
<path d="M269.771 202.165C266.775 201.991 263.578 201.932 260.151 201.978C254.962 211.806 253.098 221.75 253.826 231.142C256.731 213.567 277.968 216.374 285.47 231.239C281.442 236.332 278.846 238.691 272.65 240.615C283.268 253.151 288.842 265.701 310.301 257.035L309.958 256.124C300.402 230.813 294.939 216.343 269.771 202.165Z" fill="black"/>
<path d="M310.301 257.035C288.842 265.701 283.268 253.151 272.65 240.615C278.846 238.691 281.442 236.332 285.47 231.239C277.968 216.374 256.731 213.567 253.826 231.142C255.136 248.04 264.837 263.151 278.658 272.59L270.733 298.826C279.095 288.695 285.877 283.188 303.051 273.706C287.035 272.699 279.917 270.399 271.186 262.532C272.248 258.295 273.896 256.445 279.124 254.347C289.565 265.537 296.111 267.765 310.301 257.035Z" fill="#773A03"/>
<path d="M209.565 430.24C203.567 442.104 197.863 448.296 186.729 459.161L381.286 463.796L420.384 458.302C429.161 449.219 438.271 439.338 448.347 428.079C448.654 427.736 448.962 427.392 449.271 427.046L424.54 433.135L421.385 433.093L390.901 432.682L209.565 430.24Z" fill="#37191B"/>
<path d="M580.961 329.067C578.791 329.33 569.595 323.768 567.172 321.086C567.196 321.703 567.218 322.313 567.237 322.917C573.863 328.262 576.784 329.895 580.605 330.127L580.961 329.067Z" fill="black"/>
<path d="M557.883 266.167C558.152 266.777 558.414 267.414 558.671 268.076C558.699 268.146 558.726 268.217 558.753 268.288C565.205 264.475 568.326 262.042 573.416 257.42L572.217 256.074C567.141 260.206 564.02 262.402 557.883 266.167Z" fill="black"/>
<path d="M562.475 280.164C562.642 280.892 562.44 281.177 562.6 281.925L562.649 282.159C568.018 280.714 579.805 274.273 583 271.725L580.186 271.111C578.071 273.235 567.008 279.476 562.475 280.164Z" fill="black"/>
<path d="M584.242 316.488L585.093 315.359C577.998 312.754 573.851 311.135 566.524 310.276C566.019 310.217 565.499 310.161 564.961 310.109L565.24 312.09C565.729 312.102 566.205 312.123 566.668 312.151C573.215 312.555 577.341 314.525 584.242 316.488Z" fill="#040404"/>
<path d="M587.818 298.818L588.034 296.768C578.739 294.301 573.309 293.393 564.733 294.075C564.15 294.122 563.552 294.175 562.938 294.236L563.216 296.217C563.829 296.15 564.425 296.09 565.006 296.038C573.538 295.275 578.831 296.177 587.818 298.818Z" fill="#040404"/>
<path fill-rule="evenodd" clip-rule="evenodd" d="M380.292 262.85C368.984 259.495 363.063 259.919 357.437 265.492C356.284 266.634 355.144 267.993 353.972 269.579C353.025 278.928 354.459 283.465 369.544 294.151C373.204 293.636 375.81 293.29 377.979 293.001C381.386 292.549 383.717 292.239 387.368 291.646C390.005 287.569 392.116 284.778 398.077 278.023C395.012 271.365 391.754 267.927 380.292 262.85Z" fill="#895424"/>
<path fill-rule="evenodd" clip-rule="evenodd" d="M357.437 265.492C356.284 266.634 355.144 267.993 353.972 269.579C353.025 278.928 354.459 283.465 369.544 294.151C373.204 293.636 375.81 293.29 377.979 293.001C381.386 292.549 383.717 292.239 387.368 291.646C390.005 287.569 392.116 284.778 398.077 278.023C385.418 269.522 378.293 264.788 357.437 265.492Z" fill="black"/>
<path d="M398.077 278.023C395.012 271.365 391.754 267.927 380.292 262.85C368.984 259.495 363.063 259.919 357.437 265.492C378.293 264.788 385.418 269.522 398.077 278.023Z" fill="#773A03"/>
<path d="M469.036 355.4C471.038 354.648 474.181 352.824 477.717 350.494C486.887 344.453 498.705 335.009 500.164 332.018C500.311 332.617 500.458 333.21 500.606 333.796C497.187 338.659 485.217 347.092 477.077 352.173C473.561 354.367 470.759 355.936 469.67 356.321L469.036 355.4Z" fill="black"/>
<path d="M492.057 278.497C491.968 279.158 491.891 279.843 491.826 280.55C491.819 280.625 491.813 280.701 491.806 280.776C487.148 279.565 476.116 276.085 467.183 272.945C462.205 271.196 457.88 269.551 455.673 268.463L456.454 266.839C458.653 267.779 463.071 269.331 468.132 271.016C476.924 273.944 487.655 277.274 492.057 278.497Z" fill="black"/>
<path d="M493.4 291.386C493.439 292.132 493.712 292.351 493.765 293.114L493.782 293.352C490.459 294.467 473.939 296.754 460.028 297.823C450.098 298.586 441.497 298.728 439.977 297.38L439.968 295.866C441.121 297.05 449.978 296.807 460.182 295.977C474.236 294.833 490.844 292.573 493.4 291.386Z" fill="black"/>
<path d="M456.907 340.948L455.777 340.097C457.947 338.511 463.098 336.109 469.142 333.544C480.096 328.894 493.985 323.707 498.371 321.874C498.841 321.678 499.326 321.481 499.828 321.283L500.106 323.263C499.639 323.41 499.188 323.561 498.75 323.716C494.722 325.145 480.762 330.42 469.839 334.97C464 337.403 459.029 339.628 456.907 340.948Z" fill="#040404"/>
<path d="M440.104 329.171L439.331 327.261C442.905 325.124 452.253 321.056 462.388 316.991C475.66 311.668 490.283 306.35 495.063 305.381C495.637 305.265 496.226 305.152 496.834 305.041L497.112 307.022C496.504 307.126 495.914 307.233 495.342 307.343C490.588 308.258 476.096 313.507 462.961 318.805C452.85 322.883 443.545 326.99 440.104 329.171Z" fill="#040404"/>
<path fill-rule="evenodd" clip-rule="evenodd" d="M318.202 234.213C316.673 231.734 315.175 229.424 313.686 227.274C301.984 210.38 290.846 203.394 269.771 202.165C294.939 216.343 300.402 230.813 309.958 256.124L310.301 257.035C296.111 267.765 289.565 265.537 279.124 254.347C273.896 256.445 272.248 258.295 271.186 262.532C279.917 270.399 287.035 272.699 303.051 273.706C285.877 283.188 279.095 288.695 270.733 298.826L244.888 384.378L209.565 430.24L390.901 432.682L421.385 433.093L424.54 433.135C416.885 425.844 409.277 419.782 401.021 414.946C385.853 406.06 368.494 401.307 344.624 400.655L345.69 400.031C364.009 389.304 374.598 383.104 381.807 374.223L386.3 388.234C403.699 377.85 413.739 372.817 432.806 367.056L429.966 371.999C438.354 369.229 442.746 367.23 449.223 361.719C454.024 364.834 457.181 365.982 463.635 367.267L477.077 352.173C473.561 354.367 470.759 355.936 469.67 356.321L469.036 355.4C471.038 354.648 474.181 352.824 477.717 350.494C474.924 344.956 472.239 339.846 469.839 334.97C464 337.403 459.029 339.628 456.907 340.948L455.777 340.097C457.947 338.511 463.098 336.109 469.142 333.544C466.679 328.466 464.551 323.627 462.961 318.805C452.85 322.883 443.545 326.99 440.104 329.171L439.331 327.261C442.905 325.124 452.253 321.056 462.388 316.991C460.518 310.779 459.585 304.548 460.028 297.823C450.098 298.586 441.497 298.728 439.977 297.38L439.968 295.866C441.121 297.05 449.978 296.807 460.182 295.977C460.892 289.027 463.07 281.518 467.183 272.945C462.205 271.196 457.88 269.551 455.673 268.463L456.454 266.839C458.653 267.779 463.071 269.331 468.132 271.016C470.267 266.783 472.863 262.29 475.976 257.481C485.052 248.028 490.815 243.521 503.596 238.452C456.857 229.649 429.572 225.278 364.041 226.256C337.953 229.834 317.083 232.197 318.202 234.213ZM380.292 262.85C391.754 267.927 395.012 271.365 398.077 278.023C392.116 284.778 390.005 287.569 387.368 291.646C383.717 292.239 381.386 292.549 377.979 293.001C375.81 293.29 373.204 293.636 369.544 294.151C354.459 283.465 353.025 278.928 353.972 269.579C355.144 267.993 356.284 266.634 357.437 265.492C363.063 259.919 368.984 259.495 380.292 262.85Z" fill="#895424"/>
<path d="M316.355 585.587C374.597 537.574 408.534 514.52 454.599 459.117L448.347 428.079C438.271 439.338 429.161 449.219 420.384 458.302C398.069 481.391 377.899 499.319 349.446 521.585C339.383 533.879 246.055 586.684 233.819 586.852C187.832 601.125 158.91 602.995 109.049 601.298C107.668 607.207 107.238 611.821 108.461 613.595C107.765 623.825 107.081 631.513 105.968 638.966C164.265 638.811 196.421 635.856 251.537 618.508C260.944 617.186 316.355 585.587 316.355 585.587Z" fill="#37191B"/>
<path d="M163.632 481.633L171.059 480.589C151.152 505.681 142.117 522.46 127.985 554.924C125.052 556.161 113.052 584.169 109.049 601.298C158.91 602.995 187.832 601.125 233.819 586.852C246.055 586.684 339.383 533.879 349.446 521.585C377.899 499.319 398.069 481.391 420.384 458.302L381.286 463.796L186.729 459.161C179.655 466.55 172.721 473.311 163.632 481.633Z" fill="#895424"/>
<path d="M459.765 483.437L454.599 459.117C408.534 514.52 374.597 537.574 316.355 585.587C316.355 585.587 260.944 617.186 251.537 618.508C196.421 635.856 164.265 638.811 105.968 638.966C104.997 645.469 103.699 651.793 101.78 659.472L108 717C108 731.594 121.308 748.117 121.308 748.117L158.874 771.112L182.562 770.812L235.804 772.418C268.145 767.978 285.577 763.897 313.286 748.906C367.73 725.003 393.078 704.351 428.689 653.921C441.418 632.933 447.334 619.713 453.087 590.407C455.911 584.11 457.733 576.66 458.796 543.153C459.253 528.734 459.569 509.49 459.765 483.437Z" fill="#895424"/>
<path d="M362.965 232.971C342.808 241.046 344.225 239.34 343.074 242.33L392.354 244.493C386.532 242.096 383.427 240.775 388.688 239.959C399.732 238.647 406.018 238.557 417.606 240.944C409.956 241.542 407.619 242.641 405.081 245.229C442.414 255.684 449.615 257.047 455.753 257.294C461.891 257.541 488.719 246.097 484.286 241.166C479.853 236.235 414.391 227.673 362.617 230.495L362.965 232.971Z" fill="#773A03"/>
<path d="M133.539 601.487C130.328 615.58 131.588 622.642 135.989 633.288C137.284 632.323 138.469 631.463 139.603 630.682C135.673 620.225 134.808 613.748 137.578 601.481C136.244 601.488 134.899 601.49 133.539 601.487Z" fill="black"/>
<path d="M120.156 642.781C115.307 647.251 138.27 683.714 144.838 682.108C149.649 680.932 151.583 679.199 154.254 677.251C155.229 676.539 156.117 676.212 157.544 675.284L157.552 675.279C158.913 674.394 160.433 673.609 161.737 672.786C159.309 671.259 150.907 661.271 148.951 658.93C148.36 658.223 147.78 657.466 147.207 656.651C145.83 654.692 144.487 652.397 143.095 649.655C142.714 648.902 142.328 648.116 141.937 647.293C140.672 644.628 139.351 641.586 137.917 638.087C134.02 638.228 130.024 638.337 125.906 638.419L125.501 638.427C124.342 639.057 124.026 639.168 123.762 639.353C123.361 639.634 123.079 640.086 120.156 642.781Z" fill="#E4C9B1"/>
<path d="M125.501 638.427L125.906 638.419C130.024 638.337 134.02 638.228 137.917 638.087C137.297 636.575 136.656 634.977 135.989 633.288C134.9 633.817 133.79 634.344 132.689 634.868L132.688 634.868C130.122 636.087 127.603 637.284 125.501 638.427Z" fill="#E4C9B1"/>
<path d="M150.165 601.231C148.835 601.278 147.495 601.319 146.143 601.352C145.128 613.881 145.835 619.16 149.515 625.343C150.554 624.931 151.665 624.526 152.877 624.114L152.819 623.926C150.412 617.7 149.32 614.226 150.165 601.231Z" fill="black"/>
<path d="M155.913 643.226L147.585 647.403L153.134 647.511L155.913 643.226Z" fill="#E4C9B1"/>
<path d="M147.585 647.403L143.095 649.655L146.845 649.633L151.777 649.604L153.134 647.511L147.585 647.403Z" fill="black"/>
<path d="M159.878 641.237C159.496 640.494 159.116 639.708 158.736 638.873L155.913 643.226L153.134 647.511L151.777 649.604L149.008 653.873L147.207 656.651L151.896 654.161L154.721 649.586L155.969 647.567L158.191 643.968L159.878 641.237Z" fill="black"/>
<path d="M147.207 656.651C147.78 657.466 148.36 658.223 148.951 658.93L152.3 657.037L162.266 651.404L165.594 649.522L160.578 649.552L151.896 654.161L147.207 656.651Z" fill="black"/>
<path d="M151.896 654.161L160.578 649.552L157.65 649.569L154.721 649.586L151.896 654.161Z" fill="#E4C9B1"/>
<path d="M165.594 649.522C165.056 648.952 164.533 648.356 164.022 647.724L160.542 647.656L155.969 647.567L154.721 649.586L157.65 649.569L160.578 649.552L165.594 649.522Z" fill="black"/>
<path d="M141.937 647.293C142.328 648.116 142.714 648.902 143.095 649.655L147.585 647.403L155.913 643.226L158.736 638.873L155.672 640.409L145.294 645.61L141.937 647.293Z" fill="black"/>
<path d="M187.159 605.785L153.359 623.952C154.964 629.272 156.451 633.52 157.917 637.002C173.138 635.859 187.355 633.975 202.334 630.933C201.912 630.465 201.5 629.989 201.095 629.501C201.065 629.464 201.035 629.427 201.005 629.391C200.974 629.353 200.942 629.314 200.911 629.276C200.236 628.448 199.583 627.583 198.943 626.659C198.249 625.655 197.571 624.582 196.899 623.411C196.638 622.958 196.379 622.49 196.119 622.006C196.053 621.882 195.986 621.756 195.919 621.63L195.87 621.536C195.554 620.933 195.238 620.306 194.921 619.65C194.42 618.616 193.917 617.512 193.407 616.329C192.03 613.136 190.602 609.359 189.037 604.776L187.159 605.785Z" fill="#E4C9B1"/>
<path d="M178.092 663.418L210.82 643.074L212.224 642.284C210.514 640.72 203.754 632.508 202.334 630.933C187.355 633.975 173.138 635.859 157.917 637.002C158.19 637.652 158.463 638.275 158.736 638.873C159.116 639.708 159.496 640.494 159.878 641.237C161.216 643.848 162.573 645.932 164.022 647.724C164.533 648.356 165.056 648.952 165.594 649.522C167.539 651.585 175.61 661.558 178.092 663.418Z" fill="#E4C9B1"/>
<path d="M204.06 596.701C203.721 595.91 203.62 595.425 203.738 594.41C202.541 594.681 201.353 594.943 200.171 595.196C200.084 596.492 200.248 597.11 200.867 597.98C201.853 597.564 202.906 597.144 204.06 596.701Z" fill="black"/>
<path d="M217.158 622.584C216.803 622.207 216.457 621.827 216.12 621.442L216.042 621.353L215.986 621.288C215.942 621.239 215.899 621.189 215.856 621.139L212.689 621.202L208.424 621.287L207.352 622.984L212.882 622.759L217.158 622.584Z" fill="black"/>
<path d="M207.352 622.984L204.673 627.228L212.882 622.759L207.352 622.984Z" fill="#E4C9B1"/>
<path d="M201.095 629.501C201.5 629.989 201.912 630.465 202.334 630.933L204.391 629.774L214.941 623.832L217.158 622.584L212.882 622.759L204.673 627.228L200.911 629.276L201.005 629.391L201.095 629.501Z" fill="black"/>
<path d="M196.119 622.006C196.379 622.49 196.638 622.958 196.899 623.411L200.764 621.439L208.513 617.486L210.838 613.879L208.027 615.317L198.759 620.059L195.87 621.536L195.919 621.63C195.986 621.756 196.053 621.882 196.119 622.006Z" fill="black"/>
<path d="M211.922 615.746C211.643 615.291 211.369 614.825 211.099 614.347C211.054 614.267 211.009 614.187 210.964 614.107C210.922 614.031 210.88 613.955 210.838 613.879L208.513 617.486L206.031 621.334L204.903 623.085L202.247 627.204L200.911 629.276L204.673 627.228L207.352 622.984L208.424 621.287L210.473 618.04L211.922 615.746Z" fill="black"/>
<path d="M206.031 621.334L208.513 617.486L200.764 621.439L203.398 621.387L206.031 621.334Z" fill="#E4C9B1"/>
<path d="M196.899 623.411L200.066 623.262L204.903 623.085L206.031 621.334L203.398 621.387L200.764 621.439L196.899 623.411Z" fill="black"/>
<path d="M189.037 604.776C190.602 609.359 192.03 613.136 193.407 616.329C193.917 617.512 194.42 618.616 194.921 619.65C195.238 620.306 195.554 620.933 195.87 621.536L198.759 620.059C195.965 614.257 194.431 610.832 192.026 602.703C191.088 603.323 190.104 604.007 189.037 604.776Z" fill="black"/>
<path fill-rule="evenodd" clip-rule="evenodd" d="M198.759 620.059C195.965 614.257 194.431 610.832 192.026 602.703C195.047 600.703 197.587 599.364 200.867 597.98C203.403 605.672 204.997 609.374 208.027 615.317L198.759 620.059Z" fill="#E4C9B1"/>
<path d="M208.327 608.678C206.897 605.332 205.522 601.428 204.06 596.701C202.906 597.144 201.853 597.564 200.867 597.98C203.403 605.672 204.997 609.374 208.027 615.317L210.838 613.879C210.504 613.272 210.177 612.646 209.855 611.997C209.335 610.952 208.827 609.849 208.327 608.678Z" fill="black"/>
<path d="M139.603 630.682C138.469 631.463 137.284 632.323 135.989 633.288C136.656 634.977 137.297 636.575 137.917 638.087C139.286 638.038 140.643 637.985 141.989 637.927C141.199 635.851 140.456 633.614 139.603 630.682Z" fill="black"/>
<path d="M137.917 638.087C139.351 641.586 140.672 644.628 141.937 647.293L145.294 645.61C143.948 642.671 142.935 640.415 141.989 637.927C140.643 637.985 139.286 638.038 137.917 638.087Z" fill="black"/>
<path fill-rule="evenodd" clip-rule="evenodd" d="M141.989 637.927C146.152 637.749 150.208 637.531 154.187 637.266C152.418 633.444 151.182 630.386 149.515 625.343C145.702 626.852 142.863 628.438 139.603 630.682C140.456 633.614 141.199 635.851 141.989 637.927Z" fill="#E4C9B1"/>
<path d="M153.359 623.952C153.196 624.006 153.036 624.06 152.877 624.114C151.665 624.526 150.554 624.931 149.515 625.343C151.182 630.386 152.418 633.444 154.187 637.266L154.364 637.254C155.201 637.198 156.036 637.14 156.867 637.08C157.217 637.054 157.567 637.028 157.917 637.002C156.451 633.52 154.964 629.272 153.359 623.952Z" fill="black"/>
<path fill-rule="evenodd" clip-rule="evenodd" d="M145.294 645.61C143.948 642.671 142.935 640.415 141.989 637.927C146.152 637.749 150.208 637.531 154.187 637.266C154.641 638.248 155.131 639.28 155.672 640.409L145.294 645.61Z" fill="#E4C9B1"/>
<path d="M157.917 637.002C157.567 637.028 157.217 637.054 156.867 637.08C156.036 637.14 155.201 637.198 154.364 637.254L154.187 637.266C154.641 638.248 155.131 639.28 155.672 640.409L158.736 638.873C158.463 638.275 158.19 637.652 157.917 637.002Z" fill="black"/>
<path d="M148.951 658.93C150.907 661.271 159.309 671.259 161.737 672.786C162.232 672.716 164.143 671.943 164.864 671.212C162.203 669.163 154.618 659.785 152.3 657.037L148.951 658.93Z" fill="black"/>
<path fill-rule="evenodd" clip-rule="evenodd" d="M164.864 671.212C162.203 669.163 154.618 659.785 152.3 657.037L162.266 651.404C164.673 654.415 172.246 663.819 174.847 665.703C171.418 667.995 168.547 669.516 164.864 671.212Z" fill="#E4C9B1"/>
<path d="M178.092 663.418C175.61 661.558 167.539 651.585 165.594 649.522L162.266 651.404C164.673 654.415 172.246 663.819 174.847 665.703C175.825 665.252 176.746 664.617 178.092 663.418Z" fill="black"/>
<path d="M221.319 626.565C219.796 625.234 218.42 623.927 217.158 622.584L214.941 623.832L218.231 627.342C219.254 627.089 220.283 626.83 221.319 626.565Z" fill="black"/>
<path d="M226.807 632.812C226.694 632.716 224.847 630.468 223.658 629.145L223.657 629.143C222.527 627.885 221.423 626.656 221.319 626.565C220.283 626.83 219.254 627.089 218.231 627.342L224.544 634.674C225.271 634.131 226.011 633.456 226.807 632.812Z" fill="black"/>
<path fill-rule="evenodd" clip-rule="evenodd" d="M214.347 641.156C218.511 639.462 221.218 637.155 224.544 634.674L218.231 627.342C213.726 628.458 209.334 629.467 205.014 630.378L214.347 641.156Z" fill="#E4C9B1"/>
<path d="M202.334 630.933C203.754 632.508 210.514 640.72 212.224 642.284C213.116 642.159 213.921 641.721 214.347 641.156L205.014 630.378L204.77 630.429C203.956 630.601 203.144 630.768 202.334 630.933Z" fill="black"/>
<path fill-rule="evenodd" clip-rule="evenodd" d="M214.941 623.832L218.231 627.342C213.726 628.458 209.334 629.467 205.014 630.378L204.391 629.774L214.941 623.832Z" fill="#E4C9B1"/>
<path d="M204.391 629.774L202.334 630.933C203.144 630.768 203.956 630.601 204.77 630.429L205.014 630.378L204.391 629.774Z" fill="#2E302A"/>
<path fill-rule="evenodd" clip-rule="evenodd" d="M160.542 647.656L158.191 643.968L155.969 647.567L160.542 647.656Z" fill="#E4C9B1"/>
<path d="M164.022 647.724C162.573 645.932 161.216 643.848 159.878 641.237L158.191 643.968L160.542 647.656L164.022 647.724Z" fill="black"/>
<path fill-rule="evenodd" clip-rule="evenodd" d="M149.008 653.873L151.777 649.604L146.845 649.633C147.455 651.507 147.975 652.39 149.008 653.873Z" fill="#E4C9B1"/>
<path d="M143.095 649.655C144.487 652.397 145.83 654.692 147.207 656.651L149.008 653.873C147.975 652.39 147.455 651.507 146.845 649.633L143.095 649.655Z" fill="black"/>
<path fill-rule="evenodd" clip-rule="evenodd" d="M200.066 623.262C200.852 625.128 201.138 625.495 202.427 627.146L202.247 627.204L204.903 623.085L200.066 623.262Z" fill="#E4C9B1"/>
<path fill-rule="evenodd" clip-rule="evenodd" d="M212.689 621.202C211.651 620.101 211.133 619.439 210.473 618.04L208.424 621.287L212.689 621.202Z" fill="#E4C9B1"/>
<path d="M189.037 604.776C190.104 604.007 191.088 603.323 192.026 602.703C191.224 601.117 191.005 599.91 191.219 596.962C190.125 597.16 189.034 597.35 187.946 597.532C187.589 600.943 187.947 602.444 189.037 604.776Z" fill="black"/>
<path d="M196.899 623.411C197.571 624.582 198.249 625.655 198.943 626.659C199.583 627.583 200.236 628.448 200.911 629.276L202.247 627.204L202.427 627.146C201.138 625.495 200.852 625.128 200.066 623.262L196.899 623.411Z" fill="black"/>
<path d="M213.774 618.515C213.129 617.631 212.514 616.712 211.922 615.746L210.473 618.04C211.133 619.439 211.651 620.101 212.689 621.202L215.856 621.139C215.126 620.291 214.434 619.421 213.774 618.515Z" fill="black"/>
<path d="M235.592 627.062L234.154 623.091C233.507 623.275 232.863 623.457 232.222 623.637C233.124 624.505 234.668 626.242 235.592 627.062Z" fill="#4E4945"/>
<path d="M232.936 620.061C229.714 613.337 222.865 604.606 212.04 592.412C215.879 604.51 223.339 615.019 231.948 623.372L234.052 622.702C233.747 621.856 233.375 620.977 232.936 620.061Z" fill="#4E4945"/>
<path fill-rule="evenodd" clip-rule="evenodd" d="M234.052 622.702C234.493 623.924 235.426 625.969 235.592 627.062L234.154 623.091L234.052 622.702ZM231.948 623.372C223.339 615.019 215.879 604.51 212.04 592.412L204.06 596.701C205.522 601.428 206.897 605.332 208.327 608.678C208.827 609.849 209.335 610.952 209.855 611.997C210.177 612.646 210.504 613.272 210.838 613.879C210.88 613.955 210.922 614.031 210.964 614.107C211.009 614.187 211.054 614.267 211.099 614.347C211.369 614.825 211.643 615.291 211.922 615.746C212.514 616.712 213.129 617.631 213.774 618.515C214.434 619.421 215.126 620.291 215.856 621.139C215.899 621.189 215.942 621.239 215.986 621.288L216.042 621.353L216.12 621.442C216.457 621.827 216.803 622.207 217.158 622.584C218.42 623.927 219.796 625.234 221.319 626.565C221.423 626.656 222.527 627.885 223.657 629.143L223.658 629.145C224.847 630.468 226.694 632.716 226.807 632.812L235.592 627.062C234.668 626.242 233.124 624.505 232.222 623.637C232.131 623.549 232.039 623.461 231.948 623.372Z" fill="#E4C9B1"/>
<path d="M232.222 623.637C232.863 623.457 233.507 623.275 234.154 623.091L234.052 622.702L231.948 623.372C232.039 623.461 232.131 623.549 232.222 623.637Z" fill="#4E4945"/>
<path d="M202 845L191.5 800L151 792L175 869.5L237 869.5L237 866C229 855 226.309 855.726 202 845Z" fill="black"/>
<path d="M181.5 805C198.5 806.874 200 792.5 225.5 775.5C245.81 751.973 258.5 734 262.5 716C264.214 708.287 261.815 682.055 256 669C260.113 727.953 246.846 732.936 225.5 746L227.5 731C209.675 742.694 199.629 750.055 181.5 766.5V756.5L173 766.5L164.5 740.5L149.5 763.5C149.894 747.026 150.85 738.197 154.5 723.5L142 731V721.5C131.624 724.67 125.819 727.571 115.5 735.5C113.673 724.162 113.749 716.574 108.5 703C102.042 743.752 154.848 778.891 149.5 788C153.937 809.745 164.5 803.126 181.5 805Z" fill="#773A03"/>
<path d="M306.027 675.703C308.265 681.497 308.103 684.947 308.185 691.052L309.175 690.913C309.526 684.47 309.968 680.873 307.018 675.564L306.027 675.703Z" fill="black"/>
<path d="M317.076 668.092C321.355 676.859 320.895 681.33 320.086 689.208C320.08 689.266 320.074 689.324 320.068 689.382L322.048 689.104C322.72 680.532 323.669 675.643 319.056 667.813L317.076 668.092Z" fill="black"/>
<path d="M302.738 691.818C304.913 692.388 306.11 692.314 308.185 691.052C308.103 684.947 308.265 681.497 306.027 675.703L307.018 675.564C309.968 680.873 309.526 684.47 309.175 690.913C311.601 695.197 313.422 696.365 320.068 689.382L320.086 689.208C320.895 681.33 321.355 676.859 317.076 668.092L319.056 667.813C323.669 675.643 322.72 680.532 322.048 689.104C326.895 692.229 329.548 691.559 334.148 685.384C340.554 676.95 341.166 670.063 331.327 653.466C324.258 648.152 320.335 645.561 313.527 642.84C311.391 649.449 309.214 653.292 302.88 660.493C304.116 656.769 304.38 654.746 301.627 651.581C297.779 654.248 296.769 656.665 295.237 660.331L295.235 660.334C295.06 660.754 294.878 661.19 294.684 661.645C298.916 669.596 301.249 678.785 302.738 691.818Z" fill="#3E1400"/>
<path d="M317.338 583.734L335.947 547.29C339.192 542.272 342.136 538.037 344.8 534.203L344.802 534.2C346.312 532.028 347.732 529.985 349.067 528.001C358.042 514.663 356.569 496.425 352.222 479.868C354.414 511.978 351.364 525.528 335.291 538.634C334.872 535.159 334.293 532.639 333.442 529.465C323.575 560.064 320.148 568.23 316.016 574.327C313.407 571.198 312.529 568.932 314.276 561.948L309.325 562.644C309.883 553.53 308.602 547.372 305.567 535.907C300.886 546.041 296.817 550.635 288.476 558.001L289.289 542.234C277.289 562.796 269.337 574.218 254.734 594.552L250.773 595.109C246.724 583.042 244.748 575.625 243.078 558.322C240.425 568.1 239.486 575.838 239.352 585.101C230.706 568.088 228.934 552.489 241.954 492.841C228.139 539.72 225.298 559.916 233.819 586.851C235.397 591.839 237.365 597.058 239.725 602.721C243.693 608.654 246.982 613.443 251.537 618.507C257.095 624.687 264.537 631.275 277.398 640.849C281.575 644.669 285.077 648.218 288.024 651.792C290.658 654.986 292.849 658.199 294.684 661.645C294.878 661.19 295.06 660.754 295.235 660.334L295.237 660.331C296.769 656.665 297.779 654.248 301.627 651.581C304.38 654.746 304.116 656.769 302.88 660.493C309.214 653.292 311.391 649.449 313.527 642.84C320.335 645.561 324.258 648.152 331.327 653.466C330.292 651.72 329.141 649.867 327.87 647.893C319.593 627.536 316.036 614.457 316.576 595.454C316.68 591.798 316.935 587.923 317.338 583.734Z" fill="#773A03"/>
<path d="M316.016 574.327C320.148 568.23 323.575 560.064 333.442 529.465C334.293 532.639 334.872 535.159 335.291 538.634C351.364 525.528 354.414 511.978 352.222 479.868L241.954 492.841C228.934 552.489 230.706 568.088 239.352 585.101C239.486 575.838 240.425 568.1 243.078 558.322C244.748 575.625 246.724 583.042 250.773 595.109L254.734 594.552C269.337 574.218 277.289 562.796 289.289 542.234L288.476 558.001C296.817 550.635 300.886 546.041 305.567 535.907C308.602 547.372 309.883 553.53 309.325 562.644L314.276 561.948C312.529 568.932 313.407 571.198 316.016 574.327Z" fill="#895424"/>
</svg>
