<svg width="1464" height="1239" viewBox="0 0 1464 1239" fill="none" xmlns="http://www.w3.org/2000/svg">
<path d="M548.51 1045.57L552.229 1058.37L578.983 1073.75L605.073 1087.08L579.804 1087.3L517.485 1087.8L502.439 1087.93L506.62 1062.9L503.988 1041.42L548.51 1045.57Z" fill="#456746"/>
<path d="M340.968 1048.96L340.968 1069.74L367.695 1087.33L335.924 1087.33L276.486 1055.12L307.439 1010.65L327.101 1024.45L346.809 1026.2L340.968 1048.96Z" fill="#456746"/>
<path d="M329.437 847.041L352.813 859.998C347.789 869.07 343.41 877.957 339.607 887.098L309.723 907.006L303.674 932.935L257.411 926.299L181.809 878.742L138.789 834.346L142.082 811.513C162.101 819.063 170.237 822.515 180.076 827.436C177.062 833.387 181.286 835.764 171.214 842.956C173.56 843.037 173.64 839.469 189.433 847.041C192.049 851.828 190.247 857.4 191.253 862.506C195.286 862.334 195.756 863.941 199.797 859.43C213.264 862.271 220.555 864.73 233.09 870.693C234.898 880.169 234.327 885.153 233.635 894.112L244.057 897.834C252.117 883.294 268.553 891.487 278.574 914.399L277.887 889.36L290.772 892.392L306.615 854.426L332.595 865.744L329.437 847.041Z" fill="#2D2727"/>
<path d="M136.829 789.08C137.618 795.945 139.082 801.336 142.082 811.513L138.789 834.346L181.809 878.742L257.411 926.299L303.674 932.935L309.723 907.006L339.607 887.098C331.865 905.71 326.511 925.374 322.961 949.791L336.079 957.063C321.7 965.228 306.487 973.391 275.314 963.45L151.59 893.841C146.748 886.341 142.31 879.777 138.198 873.575C142.273 872.199 134.319 868.183 136.829 862.506C133.506 860.09 133.463 852.707 127.715 843.933C121.771 844.564 123.137 843.945 122.339 846.377C115.373 834.447 113.744 830.703 108.118 812.722L103.342 810.074L94.4797 789.08C83.7272 779.815 53.4264 725.165 53.4264 725.165C59.4138 730.392 111.861 766.713 120.115 779.815L136.829 789.08Z" fill="#343F31"/>
<path d="M626.892 952.607L485.054 885.905L377.24 909.33C433.979 955.689 506.136 983.229 500.211 1054.4L555.892 1050C588.735 1022.82 614.639 987.139 614.639 987.139C614.639 987.139 624.362 974.312 626.892 952.607Z" fill="black"/>
<path d="M786.353 468.389C789.829 486.041 790.019 495.467 787.552 511.527C782.501 512.765 780.513 512.221 777.973 509.578C771.485 498.698 770.742 497.35 767.965 492.579C770.527 490.258 771.769 486.167 774.046 479.851L786.353 468.389Z" fill="#2A2722"/>
<path d="M709.617 455.77C699.52 470.66 695.662 479.262 691.658 495.01C695.823 498.123 697.866 498.399 701.237 496.959C711.46 489.478 712.671 488.528 717.091 485.221C715.64 482.083 716.095 477.832 716.467 471.129L709.617 455.77Z" fill="#2A2722"/>
<path d="M708.769 508.965C716.16 506.726 718.448 504.408 719.826 498.746C724.076 503.867 726.05 506.911 728.081 512.894L729.071 514.592C712.286 512.608 709.325 511.343 708.769 508.965Z" fill="#A4A971"/>
<path d="M774.426 509.854C774.24 517.311 776.22 520.275 782.526 523.971C779.648 526.196 778.899 527.914 762.784 522.947C763.312 521.981 763.816 521.092 764.314 520.266C766.985 515.833 769.471 513.183 774.426 509.854Z" fill="#A4A971"/>
<path fill-rule="evenodd" clip-rule="evenodd" d="M639.448 428.027C644.619 429.578 641.663 453.915 634.479 452.453C626.954 451.617 610.318 447.657 603.924 445.738C597.53 443.819 601.161 420.744 608.894 421.312C616.626 421.88 634.278 426.476 639.448 428.027ZM627.085 427.507C630.148 437.667 623.187 446.665 623.187 446.665C623.187 446.665 620.692 437.73 627.085 427.507Z" fill="#A4A971"/>
<path fill-rule="evenodd" clip-rule="evenodd" d="M558.507 411.559C563.678 413.11 560.722 437.447 553.538 435.986C546.013 435.149 531.196 432.058 524.801 430.139C518.407 428.22 522.038 405.145 529.771 405.713C537.503 406.281 553.336 410.009 558.507 411.559ZM548.06 411.429C551.123 421.589 544.162 430.587 544.162 430.587C544.162 430.587 541.667 421.652 548.06 411.429Z" fill="#A4A971"/>
<path d="M627.085 427.507C630.148 437.667 623.187 446.665 623.187 446.665C623.187 446.665 620.692 437.73 627.085 427.507Z" fill="#D22B2B"/>
<path d="M548.06 411.429C551.123 421.589 544.162 430.587 544.162 430.587C544.162 430.587 541.667 421.652 548.06 411.429Z" fill="#D22B2B"/>
<path d="M782.526 523.971L797.852 527.089L796.098 535.71L792.267 534.931C792.218 534.905 792.168 534.895 792.118 534.901L603.564 496.539L591.777 495.637L593.239 488.453C600.553 490.935 604.4 492.109 608.086 491.474C618.821 495.258 620.82 495.393 621.496 494.202C631.674 497.414 638.841 500.908 644.485 498.879C658.179 503.601 663.772 505.03 666.517 503.362C677.178 506.659 681.04 506.842 683.385 503.801L708.769 508.965C709.325 511.343 712.286 512.608 729.071 514.592L728.081 512.894L764.314 520.266C763.816 521.092 763.312 521.981 762.784 522.947C778.899 527.914 779.648 526.196 782.526 523.971Z" fill="#2A2722"/>
<path fill-rule="evenodd" clip-rule="evenodd" d="M789.001 450.474L798.579 452.422C799.6 467.735 800.337 475.356 801.719 488.474C803.488 504.259 800.929 512.346 797.852 527.089L782.526 523.971C776.22 520.275 774.24 517.311 774.426 509.854C769.471 513.183 766.985 515.833 764.314 520.266L728.081 512.894C726.05 506.911 724.076 503.867 719.826 498.746C718.448 504.408 716.16 506.726 708.769 508.965L683.385 503.801C681.04 506.842 677.178 506.659 666.517 503.362L657.101 480.997L644.485 498.879L633.138 481.109L621.496 494.202L616.926 484.793L608.086 491.474L603.533 477.081L593.239 488.453L591.777 495.637L603.564 496.539L792.118 534.901C790.365 535.088 787.532 553.759 783.302 578.994C779.025 580.549 776.668 581.907 772.546 585.284L650.416 560.437L554.148 540.851C528.123 551.138 516.805 555.226 514.712 553.277C507.302 552.299 503.391 551.516 496.512 549.574L493.07 546.879C484.71 533.606 481.903 528.213 478.111 519.894L478.239 538.874C478.788 539.515 479.323 540.151 479.846 540.782L477.237 609.993C456.858 588.281 445.241 577.559 424.726 559.201L424.304 558.824C439.759 525.338 450.656 495.245 469.738 443.376L503.662 445.789C503.662 445.789 507.137 438.515 510.23 430.666C513.323 422.816 515.865 407.871 519.81 403.188C523.756 398.504 529.414 397.66 529.414 397.66L567.729 405.455L570.075 420.896L590.19 424.988L598.382 411.692L649.628 422.118C653.882 424.337 654.695 427.184 656.017 432.395C655.315 449.736 655.266 458.749 656.266 472.846L685.002 478.693C691.09 461.003 696.855 451.375 708.538 434.103L719.075 436.247L729.278 452.288L774.299 461.448L789.001 450.474ZM691.658 495.01C695.662 479.262 699.52 470.66 709.617 455.77L716.467 471.129C716.095 477.832 715.64 482.083 717.091 485.221C712.671 488.528 711.46 489.478 701.237 496.959C697.866 498.399 695.823 498.123 691.658 495.01ZM787.552 511.527C790.019 495.467 789.829 486.041 786.353 468.389L774.046 479.851C771.769 486.167 770.527 490.258 767.965 492.579C770.742 497.35 771.485 498.698 777.973 509.578C780.513 512.221 782.501 512.765 787.552 511.527ZM634.479 452.453C641.663 453.915 644.619 429.578 639.448 428.027C634.278 426.476 616.626 421.88 608.894 421.312C601.161 420.744 597.53 443.819 603.924 445.738C610.318 447.657 626.954 451.617 634.479 452.453ZM553.538 435.986C560.722 437.447 563.678 413.11 558.507 411.559C553.336 410.009 537.503 406.281 529.771 405.713C522.038 405.145 518.407 428.22 524.801 430.139C531.196 432.058 546.013 435.149 553.538 435.986Z" fill="#426640"/>
<path d="M657.101 480.997L666.517 503.362C663.772 505.03 658.179 503.601 644.485 498.879L657.101 480.997Z" fill="#A4A971"/>
<path d="M633.138 481.109L644.485 498.879C638.841 500.908 631.674 497.414 621.496 494.202L633.138 481.109Z" fill="#A4A971"/>
<path d="M616.926 484.793L621.496 494.202C620.82 495.393 618.821 495.258 608.086 491.474L616.926 484.793Z" fill="#A4A971"/>
<path d="M603.533 477.081L608.086 491.474C604.4 492.109 600.553 490.935 593.239 488.453L603.533 477.081Z" fill="#A4A971"/>
<path d="M448.907 452.604C455.755 448.5 460.487 446.548 469.738 443.376C450.656 495.245 439.759 525.338 424.304 558.824L411.518 560.379L395.153 562.369C396.501 555.423 396.651 551.175 394.74 542.335C402.89 538.632 408.714 536.561 421.61 532.839C416.888 524.063 414.444 519.02 412.008 508.939C419.921 503.984 425.057 500.967 438.993 493.98L431.939 482.071C438.057 478.201 442.207 475.991 450.952 471.973C449.916 464.458 449.681 460.259 448.907 452.604Z" fill="#2D2727"/>
<path d="M650.416 560.437L622.789 595.715C617.023 597.981 611.579 598.34 604.378 597.954C605.587 609.173 581.423 632.197 585.291 630.481C567.312 639.368 558.586 642.503 544.79 645.683C533.867 641.382 524.881 639.423 504.754 636.54L485.754 618.21C493.539 608.236 498.3 598.692 505.699 582.865C496.058 564.331 490.442 553.557 479.846 540.782C479.323 540.151 478.788 539.515 478.239 538.874L478.111 519.894C481.903 528.213 484.71 533.606 493.07 546.879L496.512 549.574C503.391 551.516 507.302 552.299 514.712 553.277C516.805 555.226 528.123 551.138 554.148 540.851L650.416 560.437Z" fill="#2D2727"/>
<path d="M505.699 582.865C498.3 598.692 493.539 608.236 485.754 618.21L477.237 609.993L479.846 540.782C490.442 553.557 496.058 564.331 505.699 582.865Z" fill="#714133"/>
<path d="M585.291 630.481C581.423 632.197 605.587 609.173 604.378 597.954C611.579 598.34 617.023 597.981 622.789 595.715C629.495 598.769 632.72 600.606 638.098 603.817C575.997 635.756 589.158 628.764 585.291 630.481Z" fill="#714133"/>
<path d="M426.118 916.608L468.122 892.292C481.231 916.717 474.058 956.269 474.058 956.269C475.183 962.997 390.096 1040.45 344.368 1042.12L310.554 1031.81L286.538 1024.2C286.538 1024.2 334.684 962.082 315.328 954.415C299.633 948.198 299.339 929.866 299.171 910.873C299.002 891.881 309.718 896.257 310.563 872.161L426.118 916.608Z" fill="#2C1D1D"/>
<path d="M585.846 629.76C589.698 628.01 576.196 635.607 638.017 603.127L640.817 603.103C640.648 604.114 640.377 605.219 640.011 606.431C637.411 615.047 629.99 629.081 619.617 653.253C607.928 658.848 596.246 669.516 573.242 692.037C570.274 687.417 568.993 684.313 564.298 668.889L560.94 668.236L561.406 665.837C550.185 654.921 548.476 651.105 545.479 645.315C559.247 642.015 567.945 638.804 585.846 629.76Z" fill="#A8B877"/>
<path d="M486.205 618.358L505.365 636.522C498.552 642.667 490.228 645.879 483.167 650.825C482.165 651.527 481.188 652.264 480.245 653.049C470.868 661.664 467.734 664.864 462.441 670.269L462.44 670.27L461.841 670.881C458.316 669.729 456.39 668.693 453.285 666.231C448.067 655.438 445.504 649.712 441.929 640.124C431.737 620.25 426.87 612.239 419.391 602.384L410.473 566.295L411.468 561.177L424.239 559.511L424.665 559.885C445.339 578.062 457.049 588.683 477.617 610.216L486.205 618.358Z" fill="#A9B779"/>
<path d="M561.406 665.837L560.94 668.236L520.682 703.728L526.854 728.329L502.467 756.451L495.75 755.145L486.073 720.402L503.676 696.44L487.964 651.757L483.167 650.825C490.228 645.879 498.552 642.667 505.365 636.522C525.516 639.23 534.519 641.11 545.479 645.315C548.476 651.105 550.185 654.921 561.406 665.837Z" fill="black"/>
<path d="M573.242 692.037C596.246 669.516 607.928 658.848 619.617 653.253C556.263 736.514 526.545 760.53 492.114 791.781C484.82 776.27 481.067 768.468 467.856 737.275C458.328 713.502 452.436 697.369 441.984 668.753L441.891 668.497C432.735 644.798 427.911 629.707 419.391 602.384C426.87 612.239 431.737 620.25 441.929 640.124C445.504 649.712 448.067 655.438 453.285 666.231C456.39 668.693 458.316 669.729 461.841 670.881L462.44 670.27L462.441 670.269C467.734 664.864 470.868 661.664 480.245 653.049C481.188 652.264 482.165 651.527 483.167 650.825L487.964 651.757L503.676 696.44L486.073 720.402L495.75 755.145L502.467 756.451L526.854 728.329L520.682 703.728L560.94 668.236L564.298 668.889C568.993 684.313 570.274 687.417 573.242 692.037Z" fill="#74543F"/>
<path d="M483.348 836.88C503.107 840.722 496.85 869.876 477.659 866.146C458.468 862.415 463.589 833.037 483.348 836.88Z" fill="black"/>
<path d="M471.597 897.331C490.309 900.968 485.766 929.461 466.095 925.638C446.424 921.814 452.886 893.694 471.597 897.331Z" fill="black"/>
<path fill-rule="evenodd" clip-rule="evenodd" d="M492.114 791.781C526.545 760.53 556.263 736.514 619.617 653.253C629.99 629.081 637.411 615.047 640.011 606.431C668.297 628.204 653.92 615.243 679.372 637.379L676.507 757.153C667.853 773.531 668.706 785.182 667.508 790.25C671.805 775.575 666.31 795.319 667.508 790.25C642.787 818.718 622.678 913.587 626.06 958.225L493.259 985.687L462.738 942.91L415.536 970.579L301.946 899.207L302.838 894.618L304.411 894.21L305.157 890.371L307.396 878.857L309.175 861.278L309.32 859.948C313.108 825.277 315.286 805.347 319.769 756.289C318.355 730.57 318.205 716.087 319.698 690.054C322.522 663.325 323.694 648.654 324.705 623.313C326.159 607.673 327.708 597.102 327.035 589.133C350.192 579.658 364.793 570.119 395.12 563.311L411.468 561.177L410.473 566.295L419.391 602.384C427.911 629.707 432.735 644.798 441.891 668.497L441.984 668.753C452.436 697.369 458.328 713.502 467.856 737.275C481.067 768.468 484.82 776.27 492.114 791.781ZM483.348 836.88C503.107 840.722 496.85 869.876 477.659 866.146C458.468 862.415 463.589 833.037 483.348 836.88ZM471.597 897.331C490.309 900.968 485.766 929.461 466.095 925.638C446.424 921.814 452.886 893.694 471.597 897.331Z" fill="#252222"/>
<path d="M331.355 587.815C330.774 595.791 332.276 612.668 328.393 627.888C323.43 652.759 327.98 660.28 321.01 686.237C292.282 696.839 281.078 690.876 251.246 691.045L250.12 686.994L211.081 672.785C210.49 671.437 210.011 671.14 215.89 649.57L220.443 647.066C224.928 638.575 225.965 630.743 229.258 629.99C255.188 617.178 269.688 609.655 295.079 592.052C308.159 587.202 313.035 584.088 331.355 587.815Z" fill="#AFBE7B"/>
<path d="M284.253 787.363C283.921 785.841 273.557 791.701 270.952 790.934C262.362 786.951 257.223 789.132 250.747 786.246C251.216 759.963 251.13 730.432 230.353 710.512L245.641 694.231L251.246 691.045C281.078 690.876 292.282 696.839 321.01 686.237C321.01 686.237 294.191 745.435 283.248 749.529L282.337 720.591C279.836 720.04 278.598 720.511 276.574 722.134C280.543 735.906 282.971 747.758 284.197 764.876C283.545 772.434 286.985 779.331 284.253 787.363Z" fill="#7A3A2E"/>
<path d="M276.574 722.134C278.598 720.511 279.836 720.04 282.337 720.591L283.248 749.529C283.178 754.44 284.522 761.111 284.197 764.876C282.971 747.758 280.543 735.906 276.574 722.134Z" fill="black"/>
<path d="M207.271 678.185C209.936 675.932 211.832 675.543 211.081 672.785L250.12 686.994L251.246 691.045L245.641 694.231L230.353 710.512C251.13 730.432 251.216 759.963 250.747 786.246C234.902 779.187 232.726 788.316 217.361 782.367C205.829 788.138 199.333 800.807 185.112 799.985C186.361 785.599 177.237 733.116 174.984 705.443C184.806 695.879 191.395 690.095 207.271 678.185Z" fill="#456746"/>
<path d="M260.979 872.457C262.797 871.44 264.265 871.273 268.309 872.329C274.228 881.353 279.102 885.927 287.522 893.828L288.203 894.468C277.646 897.635 271.736 899.192 261.414 897.38C259.119 888.306 257.867 883.208 260.979 872.457Z" fill="black"/>
<path fill-rule="evenodd" clip-rule="evenodd" d="M211.381 887.499C208.283 882.355 203.103 867.57 184.923 799.972C198.494 795.642 205.753 792.844 214.451 783.325C230.927 783.372 243.099 783.592 260.421 784.505C267.501 784.878 275.442 785.367 284.889 786.006L286.807 811.88C284.513 809.272 278.676 808.424 260.83 807.934C256.17 812.893 251.534 817.202 222.779 840.372C222.519 842.904 226.058 845.856 268.198 865.976C277.911 859.627 282.865 855.276 290.328 845.548C302.857 854.015 305.527 855.29 310.088 857.424C312.129 850.424 313.976 846.32 318.56 838.701L319.404 839.175L350.648 856.716L321.524 868.467L321.592 872.377L320.138 873.104L310.446 877.948L309.543 910.227L234.775 911.532C224.261 904.45 219.601 900.634 211.492 893.852L211.381 887.499ZM268.309 872.329C264.265 871.273 262.797 871.44 260.979 872.457C257.867 883.208 259.119 888.306 261.414 897.38C271.736 899.192 277.646 897.635 288.203 894.468L287.522 893.828C279.102 885.927 274.228 881.353 268.309 872.329Z" fill="#343F31"/>
<path d="M286.807 811.88C302.443 823.073 302.029 827.669 318.56 838.701C313.976 846.32 312.129 850.424 310.088 857.424C305.527 855.29 302.857 854.015 290.328 845.548C282.865 855.276 277.911 859.627 268.198 865.976C226.058 845.856 222.519 842.904 222.779 840.372C251.534 817.202 256.17 812.893 260.83 807.934C278.676 808.424 284.513 809.272 286.807 811.88Z" fill="#456746"/>
<path d="M838.917 181.481C721.928 175.598 585.693 184.685 426.957 201.722C685.199 214.051 851.755 244.444 958.543 302.787L838.917 181.481Z" fill="#D62C0C"/>
<path fill-rule="evenodd" clip-rule="evenodd" d="M1433.54 784.461C1438.43 780.359 1443.4 776.127 1448.46 771.765C1352.95 339.374 1175.65 198.415 838.917 181.481L958.543 302.787C1021.96 337.433 1064.29 381.935 1092.24 438.362L1433.54 784.461Z" fill="#D62C0C"/>
<path d="M1073.97 696.303C1097.23 759.745 1104.37 793.686 1111.51 852.66C1232.76 910.032 1305.89 891.532 1433.54 784.461L1092.24 438.362C1120.78 495.999 1134.31 566.078 1139.95 650.806C1122.99 588.087 1108.03 562.956 1069.87 538.955C1110.42 626.265 1115.9 676.789 1124.72 758.14L1124.73 758.16C1125.32 763.676 1125.94 769.333 1126.58 775.154C1108.73 739.176 1096.95 722.383 1073.97 696.303Z" fill="#456746"/>
<path d="M1178.31 682.756C1179.26 678.91 1180.29 674.859 1181.42 670.578C1195.29 657.359 1205.18 645.406 1218.47 629.145C1056.94 649.043 1008.41 678.788 967.514 752.075C992.363 745.686 1003.04 743.161 1018.02 739.983C1055.77 681.007 1142.65 719.892 1125.83 778.526C1124.62 780.402 1123.74 781.882 1123.13 783.116C1124.32 786.837 1125.39 790.289 1126.35 793.548C1130.76 808.477 1132.88 819.37 1134.61 833.672C1134.93 836.294 1135.23 839.031 1135.54 841.928C1189.79 926.56 1088.12 955.087 1059.41 930.71L1005.92 937.072C1044.49 965.171 1067.27 979.861 1133.22 982.953C1209.88 967.653 1252 957.216 1303.56 936.152C1269.15 919.521 1259.62 917.449 1230 903.08C1195.62 859.22 1192.65 848.915 1184.28 827.843L1184.31 826.007L1184.7 800.678C1183.59 793.798 1181.54 788.114 1177.71 780.289C1176.17 777.164 1174.36 773.699 1172.2 769.68C1168.54 743.596 1167.61 726.348 1178.31 682.756Z" fill="black"/>
<path d="M1233.18 611.23C1086.38 629.992 1004.06 642.891 953.649 761.113L967.514 752.075C1008.41 678.788 1056.94 649.043 1218.47 629.145C1222.91 623.721 1227.72 617.818 1233.18 611.23Z" fill="#E6EAEB"/>
<path d="M1183.81 675.162C1214.05 646.257 1221.03 633.636 1233.18 611.23C1227.72 617.818 1222.91 623.721 1218.47 629.145C1205.18 645.406 1195.29 657.359 1181.42 670.578C1180.29 674.859 1179.26 678.91 1178.31 682.756C1181.08 680.097 1182.21 678.405 1183.81 675.162Z" fill="#544E2E"/>
<path d="M967.514 752.075L953.649 761.113C958.917 761.46 962.653 761.276 969.821 760.704C987.744 753.677 999.036 750.46 1018.56 744.899L1019.68 744.578L1018.02 739.983C1003.04 743.161 992.363 745.686 967.514 752.075Z" fill="#544E2E"/>
<path d="M1018.02 739.983L1019.68 744.578C1055.04 689.398 1128.14 716.518 1120.63 778.322L1121.75 793.761C1121.94 788.802 1120.9 787.554 1123.13 783.116C1123.74 781.882 1124.62 780.402 1125.83 778.526C1142.65 719.892 1055.77 681.007 1018.02 739.983Z" fill="#544E2E"/>
<path fill-rule="evenodd" clip-rule="evenodd" d="M1005.92 937.072L992.55 940.757C997.267 944.298 1001.55 947.682 1005.64 950.911C1032.28 971.953 1050.63 986.45 1126.48 995.198C1182.39 988.405 1219.34 981.004 1317.67 947.008C1320.18 943.063 1317.74 940.707 1303.56 936.152C1252 957.216 1209.88 967.653 1133.22 982.953C1067.27 979.861 1044.49 965.171 1005.92 937.072Z" fill="#E6EAEB"/>
<path d="M1059.41 930.71C1088.12 955.087 1189.79 926.56 1135.54 841.928C1135.23 839.031 1134.93 836.294 1134.61 833.672L1128.77 834.527L1129.81 844.911C1183.06 894.745 1107.44 961.417 1058.88 924.796C1012.06 930.566 997.917 934.098 992.55 940.757L1005.92 937.072L1059.41 930.71Z" fill="#544E2E"/>
<path d="M1177.71 780.289C1181.54 788.114 1183.59 793.798 1184.7 800.678L1184.31 826.007C1196.02 821.912 1202.28 820.626 1212.62 820.735C1219.44 797.325 1214.93 787.443 1201.42 771.948L1177.71 780.289Z" fill="#DBBF9F"/>
<path d="M1128.77 834.527L1134.61 833.672C1132.88 819.37 1130.76 808.477 1126.35 793.548L1121.75 793.761L917.707 842.449L904.529 849.309C901.382 860.05 901.65 870.33 909.655 880.139L926.836 879.57L1128.77 834.527Z" fill="#DBBF9F"/>
<path d="M909.655 880.139C901.65 870.33 901.382 860.05 904.529 849.309L902.74 845.872C889.504 848.746 882.621 849.809 870.902 851.158C870.88 853.408 869.663 853.938 864.76 855.447C864.913 855.86 865.064 856.267 865.212 856.669C869.796 869.097 872.046 876.717 874.297 889.442C874.394 889.989 874.49 890.545 874.587 891.112C887.943 887.299 895.003 885.74 906.265 884.817C909.969 884.363 910.976 883.492 909.655 880.139Z" fill="#1C120D"/>
<path d="M822.392 901.358C816.941 899.497 813.802 898.185 800.593 871.373C790.303 873.546 779.483 875.786 768.064 878.13C781.943 904.602 786.103 909.184 790.465 908.687L822.392 901.358Z" fill="#4F3128"/>
<path d="M790.465 908.687C786.103 909.184 781.943 904.602 768.064 878.13C755.836 880.64 750.79 881.602 737.101 884.399C749.005 912.161 751.924 915.793 757.344 916.291L790.465 908.687Z" fill="#160903"/>
<path d="M757.344 916.291C751.924 915.793 749.005 912.161 737.101 884.399C734.927 884.844 724.863 886.96 722.65 887.413C715.434 895.287 716.001 902.641 728.235 922.973L757.344 916.291Z" fill="#75594D"/>
<path d="M693.047 893.497C686.296 904.484 686.302 911.938 699.126 929.656L728.235 922.973C716.001 902.641 715.434 895.287 722.65 887.413C713.156 889.355 703.298 891.378 693.047 893.497Z" fill="#140900"/>
<path d="M853.615 894.19C847.84 891.978 844.087 888.724 832.649 864.407C822.54 866.683 811.885 868.988 800.593 871.373C813.802 898.185 816.941 899.497 822.392 901.358L853.615 894.19Z" fill="#170A04"/>
<path d="M874.297 889.442C872.046 876.717 869.796 869.097 865.212 856.669C854.974 859.26 844.165 861.814 832.649 864.407C844.087 888.724 847.84 891.978 853.615 894.19L874.297 889.442Z" fill="#75594D"/>
<path d="M699.126 929.656C686.302 911.938 686.296 904.484 693.047 893.497C684.77 896.999 679.862 897.224 674.088 891.35C665.376 889.824 661.323 890.807 656.119 896.699C647.589 895.232 645.963 898.668 642.368 903.858C642.453 922.316 645.278 930.092 651.669 942.709C653.773 948.475 657.242 948.292 666.134 943.917C672.729 944.564 676.376 944.49 682.224 938.454C686.365 931.455 689.894 929.315 699.126 929.656Z" fill="#BCB3AA"/>
<path d="M669.858 732.651L679.031 637.191L770.829 672.845C774.009 684.285 765.948 682.952 771.766 682.568C772.659 688.302 773.947 692.915 778.43 704.746L736.753 725.295L733.682 726.809L670.963 710.168L669.858 732.651Z" fill="#AEBA78"/>
<path d="M736.753 725.295L778.43 704.746C781.449 712.083 781.129 717.121 780.171 721.219C786.567 724.077 792.022 730.653 800.977 740.311C807.963 756.606 812.005 763.835 819.312 775.484C820.847 783.775 820.954 787.829 821.358 793.298L810.785 789.98L781.179 800.655L763.211 796.349L745.437 803.024C748.313 780.298 750.993 768.219 758.602 748.477C750.441 738.338 748.138 731.229 736.753 725.295Z" fill="#456746"/>
<path d="M714.618 875.597C721.71 868.694 723.389 855.642 729.535 845.415L746.15 831.062L807.939 838.863C801.343 852.406 796.682 859.987 778.636 877.59L751.243 878.551L732.842 893.698L713.009 876.789L714.618 875.597Z" fill="#456746"/>
<path d="M669.858 732.651L670.963 710.168L733.682 726.809L736.753 725.295C748.138 731.229 750.441 738.338 758.602 748.477C750.993 768.219 748.313 780.298 745.437 803.024C733.185 808.329 726.843 812.573 719.941 819.726C718.605 821.11 717.249 822.603 715.825 824.234L715.814 824.19C712.745 811.746 711.021 804.756 711.439 795.156C715.122 784.531 716.579 776.895 716.674 756.445L711.316 758.83L711.439 795.156L675.857 778.986C670.96 764.501 677.784 783.825 675.857 778.986C673.931 774.147 672.163 751.031 669.858 732.651Z" fill="#7A3A2E"/>
<path d="M711.316 758.83L716.674 756.445C716.579 776.895 715.122 784.531 711.439 795.156L711.316 758.83Z" fill="black"/>
<path fill-rule="evenodd" clip-rule="evenodd" d="M821.358 793.298L810.785 789.98L781.179 800.655L763.211 796.349L745.437 803.024C733.185 808.329 726.843 812.573 719.941 819.726L729.535 845.415L746.15 831.062L807.939 838.863C801.343 852.406 796.682 859.987 778.636 877.59L751.243 878.551L732.842 893.698L713.009 876.789L708.181 880.365L707.376 880.961L686.899 908.269L719.701 908.644L722.683 915.342C727.637 914.863 729.858 914.337 732.855 912.953C739.151 924.355 743.575 930.542 751.483 941.575L822.476 909.966C824.465 907.317 826.338 904.001 828.417 899.77L797.711 906.013C759.599 912.049 756.601 886.873 787.569 878.428L788.874 878.072L833.452 864.083C833.182 862.336 832.928 860.651 832.685 859.031C831.235 849.38 830.13 842.022 827.689 837.56C827.191 824.587 825.137 813.567 821.618 794.695L821.358 793.298Z" fill="#2B2D28"/>
</svg>
