<svg width="1059" height="811" viewBox="0 0 1059 811" fill="none" xmlns="http://www.w3.org/2000/svg">
<path d="M73.6655 762.211L106.35 730.879L74.4722 696.144L52.1122 743.558C42.7702 770.661 62.4998 799 62.4998 799L90.4998 799C90.4998 791 78.6172 784.523 78.6172 784.523C78.6172 784.523 76.4105 783.5 74.9998 783.5L73.8713 765.496C73.7398 764.391 73.6655 763.294 73.6655 762.211Z" fill="black"/>
<path d="M89.3291 174.853L128.449 161L127.928 167.019L93.8261 178.565L89.3291 174.853Z" fill="#FCFAEC"/>
<path d="M93.8261 178.565L127.928 167.019L146.513 222.497L115.435 235.094C107.728 210.507 102.591 197.738 93.8261 178.565Z" fill="#397B05"/>
<path d="M115.435 235.094L146.513 222.497L151.148 225.1L132.157 232.885L112.862 241.309L115.435 235.094Z" fill="#FCFAEC"/>
<path d="M112.862 241.309L132.157 232.885L151.148 225.1C157.479 265.048 162.812 273.357 169.153 283.435L130.976 296.954C126.593 274.453 123.381 262.055 112.862 241.309Z" fill="#64AA06"/>
<path d="M130.976 296.954L169.153 283.435L169.742 289.592L132.979 302.61L130.976 296.954Z" fill="#FCFAEC"/>
<path d="M132.979 302.61L169.742 289.592C174.578 314.559 178.569 328.133 187.502 351.727L158.752 361.909L140.122 319.046L135.776 309.046L132.979 302.61Z" fill="#397B05"/>
<path d="M158.752 361.909L187.502 351.727L189.839 358.326L162.502 368.006L158.752 361.909Z" fill="#FCFAEC"/>
<path d="M162.502 368.006L189.839 358.326C198.017 381.421 200.658 387.381 209.916 409.032L179.889 418.605C179.889 418.605 170.121 386.525 162.502 368.006Z" fill="#64AA06"/>
<path d="M179.889 418.605L209.916 409.032L210.535 416.77L181.784 426.951L179.889 418.605Z" fill="#FCFAEC"/>
<path d="M181.784 426.951L210.535 416.77C217.77 440.198 219.049 445.291 227.894 470.271L205.407 472.689L194.692 477.785C187.034 448.671 191.975 464.715 181.784 426.951Z" fill="#397B05"/>
<path d="M194.692 477.785L205.407 472.689L227.894 470.271L227.46 476.549L198.68 485.149L194.692 477.785Z" fill="#FCFAEC"/>
<path d="M226.76 549.465L245.809 544.841L245.288 550.86L228.429 554.178L226.76 549.465Z" fill="#FCFAEC"/>
<path d="M198.68 485.149L227.46 476.549C231.446 495.293 239.575 524.24 245.809 544.841L226.76 549.465C217.865 530.337 209.294 503.138 198.68 485.149Z" fill="#64AA06"/>
<path d="M44.1845 275.163C63.4818 274.433 77.6418 272.385 64.1464 288.64C66.4387 285.649 66.1984 283.609 62.7628 282.149C60.4243 279.033 54.4461 277.16 44.1845 275.163Z" fill="#64AA06"/>
<path d="M62.9271 290.072C62.1949 283.925 54.0892 282.303 41.0785 279.068C52.2226 279.748 59.2055 280.637 62.7628 282.149C64.2678 284.154 64.2653 286.673 62.9271 290.072Z" fill="#64AA06"/>
<path d="M62.9271 290.072C49.0833 299.461 43.7518 294.067 37.9019 313.518C51.425 301.272 57.1542 303.78 62.9271 290.072Z" fill="#64AA06"/>
<path d="M72.0943 296.799C82.286 301.879 86.1007 311.248 91.2365 326.616C83.7428 321.561 77.4846 317.737 72.7029 313.25C71.7578 307.535 68.2779 301.599 62.6255 293.657L72.0943 296.799Z" fill="#64AA06"/>
<path d="M81.3675 252.462C97.9065 265.784 102.562 272.041 97.8803 279.792C96.0961 279.158 94.3022 278.696 92.4889 278.422C86.1142 275.241 84.0715 266.712 81.3675 252.462Z" fill="#64AA06"/>
<path d="M69.4235 328.391C58.5872 310.012 59.0047 303.528 62.6255 293.657C68.2779 301.599 71.7578 307.535 72.7029 313.25C73.5038 318.093 72.4842 322.778 69.4235 328.391Z" fill="#64AA06"/>
<path d="M62.6255 293.657L62.9271 290.072C74.0527 280.298 83.5093 277.062 92.4889 278.422C94.0149 279.183 95.7892 279.638 97.8803 279.792C111.096 285.543 119.602 292.695 135.776 309.046L140.122 319.046C106.69 282.949 87.6644 268.654 62.6255 293.657Z" fill="#64AA06"/>
<path d="M443.158 511.211C438.629 495.565 435.55 481.258 429.505 450.092C422.573 475.207 417.287 493.713 413.113 507.522C412.145 516.379 413.311 519.896 422.402 520.249C419.959 527.46 443.626 536.456 467.781 540.43C468.081 539.182 470.132 537.696 470.132 537.696L471.925 535.397C463.925 531.314 457.544 527.81 450.593 520.184C445.573 518.191 441.7 517.544 433.372 517.062C436.299 514.846 437.702 513.566 443.593 511.774C443.449 511.588 443.304 511.4 443.158 511.211Z" fill="#C29171"/>
<path d="M443.593 511.774C437.702 513.566 436.299 514.846 433.372 517.062C441.7 517.544 445.573 518.191 450.593 520.184C448.449 517.833 446.157 515.077 443.593 511.774Z" fill="black"/>
<path d="M395.369 551.689L399.662 557.757L462.688 565.496C463.081 554.848 465.579 549.583 467.781 540.43C443.626 536.456 419.959 527.46 422.402 520.249C413.311 519.896 412.145 516.379 413.113 507.522C403.414 539.613 399.727 546.338 395.369 551.689Z" fill="#773A03"/>
<path d="M521.752 492.16L548.844 520.214L460.724 605.31C453.007 591.817 448.216 584.602 438.668 572.393L521.752 492.16Z" fill="#DBBF9F"/>
<path d="M446.697 618.856C439.704 603.739 434.795 596.567 424.281 586.286C426.757 581.778 428.507 580.148 432.194 578.645C441.967 589.799 446.83 596.999 454.61 611.214C451.298 615.963 449.608 617.27 446.697 618.856Z" fill="#210000"/>
<path d="M440.223 625.108L435.284 619.865C430.66 607.417 426.811 601.42 417.088 593.233C419.514 589.712 421.033 588.077 424.281 586.286C434.795 596.567 439.704 603.739 446.697 618.856C445.079 622.242 443.616 623.558 440.223 625.108Z" fill="#9F2525"/>
<path d="M413.476 596.72L417.088 593.233C426.811 601.42 430.66 607.417 435.284 619.865L413.476 596.72Z" fill="#210000"/>
<path d="M454.61 611.214C446.83 596.999 441.967 589.799 432.194 578.645C433.738 575.183 435.015 573.672 438.668 572.393C448.216 584.602 453.007 591.817 460.724 605.31C458.495 608.157 457.155 609.212 454.934 610.96L454.61 611.214Z" fill="#9F2525"/>
<path d="M517.557 469.102L531.103 483.129L537.876 490.143L544.649 497.156L551.422 504.17L558.195 511.184L571.741 525.211C570.5 527.833 569.376 528.671 567.065 529.726L512.882 473.617C514.431 471.567 515.171 470.286 517.557 469.102Z" fill="#9F2525"/>
<path d="M521.752 492.16L508.206 478.133C509.451 476.157 510.193 475.065 512.882 473.617L567.065 529.726C566.105 532.185 565.354 533.392 562.389 534.241L548.844 520.214L521.752 492.16Z" fill="#3D3D33"/>
<path d="M897.96 190.027C744.874 356.337 708.688 384.118 558.195 511.184L551.422 504.17L772.261 288.752C836.054 224.057 877.742 167.97 938.609 89.6052C936.877 106.836 911.268 177.176 897.96 190.027Z" fill="#E6EAEB"/>
<path d="M531.103 483.129L938.609 89.6052C877.742 167.97 836.054 224.057 772.261 288.752L551.422 504.17L544.649 497.156L537.876 490.143L531.103 483.129Z" fill="black"/>
<path d="M484.116 528.381C476.127 528.799 475.233 530.849 471.999 536.025C465.508 536.365 459.172 546.436 459.093 547.717C454.849 551.945 450.743 549.039 452.206 559.593C462.004 574.601 480.441 587.375 481.607 585.59C493.091 584.988 512.727 558.424 511.125 556.506L497.134 542.719L484.116 528.381Z" fill="#3E1400"/>
<path fill-rule="evenodd" clip-rule="evenodd" d="M208.947 657.15C196.44 705.45 111.594 730.185 105.797 732.092C100 734 67.5 706 72.7291 696.786C77.9581 687.572 95.2973 660.973 85.8891 620.477L70.9006 599.847C117.566 636.697 147.7 649.382 208.947 657.15Z" fill="#773A03"/>
<path d="M293.5 770.5L267 741L219 747L281 799H295.5C314.355 798.834 327.5 783.5 323 772.5C318.5 761.5 293.254 770.226 293.5 770.5Z" fill="black"/>
<path d="M320.494 175.5C321.669 177.836 322.831 180.332 324 183C323.172 180.848 344.168 181.412 370.5 181.5C361.71 149.764 354.959 136.177 332.5 136C326.259 138.812 324.151 151.7 320.494 175.5Z" fill="#773A03"/>
<path d="M553 240C542 228.5 537.711 224.378 507 213C493.638 216.241 487.303 219.902 477 228C494.016 235.771 500.778 239.434 512 245.757C524.815 245.736 541.234 246.45 542.5 245.5C544.5 244 546.759 239.668 553 240Z" fill="#AAA494"/>
<path d="M524 279.5C488.689 278.012 493.316 249.651 497 247C498.352 246.027 504.57 245.768 512 245.757C500.778 239.434 494.016 235.771 477 228C473.249 232.329 470.052 236.416 467.349 240.312C466.935 240.909 466.532 241.501 466.14 242.09C460.875 250.006 457.672 257.139 456.003 263.923C455.854 264.528 455.717 265.13 455.592 265.729C454.219 272.328 454.275 278.628 455.263 285.039C455.359 285.663 455.464 286.289 455.577 286.915C456.48 291.912 457.915 297 459.646 302.371C459.808 302.872 459.972 303.375 460.138 303.881C461.836 309.043 463.784 314.477 465.78 320.35C465.853 320.566 465.926 320.783 466 321C470.315 326.803 472.401 329.978 473.5 335C481.156 334.245 484.262 335.898 490 338.5C507.129 330.798 515.12 325.402 523 311.5L524 279.5Z" fill="#AAA494"/>
<path d="M559.379 264.261C555.17 272.634 552.915 275.028 549 277C548.493 294.152 548.849 304.867 546 318C550.333 317.14 552.899 315.425 557.795 309.5C557.96 308.207 558.117 306.872 558.266 305.5C558.331 304.899 558.395 304.292 558.457 303.678C558.745 300.82 558.996 297.827 559.201 294.76C558.746 294.667 558.278 294.58 557.795 294.5V292.5C558.32 292.626 558.828 292.754 559.32 292.883C559.602 288.184 559.772 283.342 559.798 278.572C559.215 278.542 558.617 278.519 558 278.5V276.5C558.617 276.525 559.216 276.555 559.8 276.59C559.787 272.434 559.66 268.355 559.395 264.5L559.379 264.261Z" fill="#AAA494"/>
<path fill-rule="evenodd" clip-rule="evenodd" d="M559.379 264.261C555 262.5 555 254 557.416 250C557.254 249.309 557.082 248.642 556.902 248C555.906 244.465 554.621 241.695 553 240C546.759 239.668 544.5 244 542.5 245.5C541.234 246.45 524.815 245.736 512 245.757C504.57 245.768 498.352 246.027 497 247C493.316 249.651 488.689 278.012 524 279.5L523 311.5C515.12 325.402 507.129 330.798 490 338.5L493 338.459C504.116 340.249 510.796 340.841 527 338C539.816 342.277 545.913 339.965 554.5 326C555.695 322.773 556.862 316.831 557.795 309.5C552.899 315.425 550.333 317.14 546 318C548.849 304.867 548.493 294.152 549 277C552.915 275.028 555.17 272.634 559.379 264.261ZM500.5 254C511.449 250.222 529.5 261 520 270C510.5 279 489.551 257.778 500.5 254Z" fill="#3E1400"/>
<path d="M557.416 250C555 254 555 262.5 559.379 264.261C559.325 263.498 559.565 263.244 559.5 262.5C559.123 258.158 558.259 253.657 557.468 250.222C557.451 250.148 557.433 250.074 557.416 250Z" fill="black"/>
<path d="M500.5 254C511.449 250.222 529.5 261 520 270C510.5 279 489.551 257.778 500.5 254Z" fill="black"/>
<path d="M493 338.459L490 338.5C484.262 335.898 481.156 334.245 473.5 335C472.401 329.978 470.315 326.803 466 321L464.912 321.923L449.5 335C443.288 332.829 440.321 331.252 436 327.5C428.82 332.056 424.192 333.424 415.5 335L419 330.5C399.318 333.551 388.675 337.138 370 345L367.5 330.5C359.126 338.291 347.777 342.957 328.143 351.03L327 351.5C350.548 355.468 367.076 362.59 380.859 373.5C388.362 379.439 395.052 386.5 401.619 394.786L426.956 392.198L425.3 383C418.792 372.721 414.811 369.556 407 369.5C408.021 365.332 408.972 363.35 413 362V358C405.429 356.216 401.5 358.5 399.5 354H436L436.105 353.998C464.222 353.503 480.011 353.225 482 355.5C484.449 349.153 486.663 345.457 493 338.459Z" fill="#773A03"/>
<path d="M425 371L436 354H399.5C401.5 358.5 405.429 356.216 413 358V362C408.972 363.35 408.021 365.332 407 369.5C414.811 369.556 418.792 372.721 425.3 383L425 371Z" fill="black"/>
<path d="M482 355.5C508.649 355.81 523.191 355.665 527 338C510.796 340.841 504.116 340.249 493 338.459C486.663 345.457 484.449 349.153 482 355.5Z" fill="black"/>
<path d="M280.5 144.524C277.558 143.934 274.4 143.431 271 143C264.493 152.01 261.264 161.598 260.678 171C266 154 286.64 159.735 292 175.5C287.303 179.983 284.403 181.957 278 183C286.771 196.892 290.543 210.095 313 204.5L312.786 203.551C306.846 177.156 303.45 162.067 280.5 144.524Z" fill="black"/>
<path d="M313 204.5C290.543 210.095 286.771 196.892 278 183C284.403 181.957 287.303 179.983 292 175.5C286.64 159.735 266 154 260.678 171C259.624 187.915 267.126 204.23 279.5 215.5L268 240.378C277.691 231.509 285.174 227 303.5 220C287.78 216.774 281.052 213.505 273.5 204.5C275.142 200.452 277.031 198.849 282.5 197.5C291.282 210.033 297.454 213.151 313 204.5Z" fill="#773A03"/>
<path d="M189.138 362C181.548 372.914 175.037 378.252 162.5 387.461L354.518 419.129H394C403.956 411.356 414.353 402.839 425.898 393.092C426.249 392.795 426.602 392.497 426.956 392.198L401.619 394.786L398.5 394.305L368.369 389.656L189.138 362Z" fill="#37191B"/>
<path d="M571 313.5C568.815 313.458 560.483 306.671 558.457 303.678C558.395 304.292 558.331 304.899 558.266 305.5C564.084 311.715 566.748 313.739 570.5 314.5L571 313.5Z" fill="black"/>
<path d="M556.902 248C557.082 248.642 557.254 249.309 557.416 250C557.433 250.074 557.451 250.148 557.468 250.222C564.388 247.344 567.816 245.368 573.5 241.5L572.5 240C566.898 243.386 563.502 245.126 556.902 248Z" fill="black"/>
<path d="M559.5 262.5C559.565 263.244 559.325 263.498 559.379 264.261L559.395 264.5C564.913 263.816 577.482 259.079 581 257L578.298 256C575.909 257.809 564.085 262.45 559.5 262.5Z" fill="black"/>
<path d="M576 301.5L577 300.5C570.336 296.934 566.456 294.753 559.32 292.883C558.828 292.754 558.32 292.626 557.795 292.5V294.5C558.278 294.58 558.746 294.667 559.201 294.76C565.628 296.071 569.44 298.596 576 301.5Z" fill="#040404"/>
<path d="M582 284.5L582.5 282.5C573.638 278.763 568.388 277.109 559.8 276.59C559.216 276.555 558.617 276.525 558 276.5V278.5C558.617 278.519 559.215 278.542 559.798 278.572C568.353 279.004 573.469 280.634 582 284.5Z" fill="#040404"/>
<path fill-rule="evenodd" clip-rule="evenodd" d="M381.5 220C370.769 215.104 364.847 214.7 358.5 219.436C357.199 220.406 355.881 221.592 354.5 223C352.261 232.127 353.05 236.818 366.5 249.5C370.197 249.5 372.825 249.52 375.014 249.536C378.45 249.561 380.802 249.579 384.5 249.5C387.678 245.83 390.157 243.36 397 237.5C394.892 230.48 392.144 226.623 381.5 220Z" fill="#895424"/>
<path fill-rule="evenodd" clip-rule="evenodd" d="M358.5 219.436C357.199 220.406 355.881 221.592 354.5 223C352.261 232.127 353.05 236.818 366.5 249.5C370.197 249.5 372.825 249.52 375.014 249.536C378.45 249.561 380.802 249.579 384.5 249.5C387.678 245.83 390.157 243.36 397 237.5C385.648 227.321 379.251 221.641 358.5 219.436Z" fill="black"/>
<path d="M397 237.5C394.892 230.48 392.144 226.623 381.5 220C370.769 215.104 364.847 214.7 358.5 219.436C379.251 221.641 385.648 227.321 397 237.5Z" fill="#773A03"/>
<path d="M456.5 324C458.587 323.534 461.953 322.165 465.78 320.35C475.701 315.644 488.718 307.936 490.579 305.178C490.641 305.792 490.704 306.399 490.77 307C486.707 311.34 473.68 318.025 464.912 321.923C461.125 323.607 458.132 324.77 457 325L456.5 324Z" fill="black"/>
<path d="M490 251.05C489.819 251.692 489.648 252.359 489.486 253.05C489.468 253.123 489.451 253.197 489.434 253.271C484.99 251.423 474.549 246.442 466.14 242.09C461.455 239.664 457.4 237.434 455.366 236.05L456.366 234.55C458.413 235.787 462.572 237.938 467.349 240.312C475.648 244.434 485.811 249.225 490 251.05Z" fill="black"/>
<path d="M489.536 264C489.471 264.744 489.71 264.998 489.657 265.761L489.64 266C486.195 266.642 469.517 266.607 455.592 265.729C445.653 265.103 437.117 264.047 435.798 262.5L436 261C436.977 262.333 445.782 263.325 456.003 263.923C470.079 264.746 486.839 264.819 489.536 264Z" fill="black"/>
<path d="M446.5 308L445.5 307C447.869 305.732 453.304 304.07 459.646 302.371C471.142 299.291 485.617 296.088 490.216 294.883C490.708 294.754 491.215 294.626 491.74 294.5V296.5C491.258 296.58 490.79 296.667 490.335 296.76C486.147 297.614 471.588 300.895 460.138 303.881C454.018 305.477 448.785 306.988 446.5 308Z" fill="#040404"/>
<path d="M431.5 294L431 292C434.837 290.382 444.66 287.654 455.263 285.039C469.146 281.615 484.366 278.384 489.235 278.09C489.819 278.055 490.419 278.025 491.036 278V280C490.419 280.019 489.82 280.042 489.238 280.072C484.404 280.316 469.321 283.497 455.577 286.915C444.997 289.546 435.211 292.318 431.5 294Z" fill="#040404"/>
<path fill-rule="evenodd" clip-rule="evenodd" d="M324 183C322.831 180.332 321.669 177.836 320.494 175.5C311.257 157.142 301.199 148.674 280.5 144.524C303.45 162.067 306.846 177.156 312.786 203.551L313 204.5C297.454 213.151 291.282 210.033 282.5 197.5C277.031 198.849 275.142 200.452 273.5 204.5C281.052 213.505 287.78 216.774 303.5 220C285.174 227 277.691 231.509 268 240.378L230.5 321.5L189.138 362L368.369 389.656L398.5 394.305L401.619 394.786C395.052 386.5 388.362 379.439 380.859 373.5C367.076 362.59 350.548 355.468 327 351.5L328.143 351.03C347.777 342.957 359.126 338.291 367.5 330.5L370 345C388.675 337.138 399.318 333.551 419 330.5L415.5 335C424.192 333.424 428.82 332.056 436 327.5C440.321 331.252 443.288 332.829 449.5 335L464.912 321.923C461.125 323.607 458.132 324.77 457 325L456.5 324C458.587 323.534 461.953 322.165 465.78 320.35C463.784 314.477 461.836 309.043 460.138 303.881C454.018 305.477 448.785 306.988 446.5 308L445.5 307C447.869 305.732 453.304 304.07 459.646 302.371C457.915 297 456.48 291.912 455.577 286.915C444.997 289.546 435.211 292.318 431.5 294L431 292C434.837 290.382 444.66 287.654 455.263 285.039C454.275 278.628 454.219 272.328 455.592 265.729C445.653 265.103 437.117 264.047 435.798 262.5L436 261C436.977 262.333 445.782 263.325 456.003 263.923C457.672 257.139 460.875 250.006 466.14 242.09C461.455 239.664 457.4 237.434 455.366 236.05L456.366 234.55C458.413 235.787 462.572 237.938 467.349 240.312C470.052 236.416 473.249 232.329 477 228C487.303 219.902 493.638 216.241 507 213C461.94 197.778 435.53 189.652 370.5 181.5C344.168 181.412 323.172 180.848 324 183ZM381.5 220C392.144 226.623 394.892 230.48 397 237.5C390.157 243.36 387.678 245.83 384.5 249.5C380.802 249.579 378.45 249.561 375.014 249.536C372.825 249.52 370.197 249.5 366.5 249.5C353.05 236.818 352.261 232.127 354.5 223C355.881 221.592 357.199 220.406 358.5 219.436C364.847 214.7 370.769 215.104 381.5 220Z" fill="#895424"/>
<path d="M273.269 530.698C337.627 491.258 374.442 473.151 427.769 424.698L425.898 393.092C414.353 402.839 403.956 411.356 394 419.129C368.689 438.888 346.221 453.834 314.946 471.923C303.269 482.698 203.5 522 191.36 520.463C143.835 528.198 114.934 526.024 65.7938 517.404C63.6039 523.063 62.5364 527.573 63.5 529.5C61.3869 539.533 59.6403 547.051 57.5007 554.277C115.252 562.236 147.506 563.785 204.5 554.277C214 554.277 273.269 530.698 273.269 530.698Z" fill="#37191B"/>
<path d="M136.5 406.5H144C120.795 428.577 109.512 443.935 91 474.117C87.9232 474.934 72.1422 500.999 65.7938 517.404C114.934 526.024 143.835 528.198 191.36 520.463C203.5 522 303.269 482.698 314.946 471.923C346.221 453.834 368.689 438.888 394 419.129H354.518L162.5 387.461C154.466 393.794 146.659 399.524 136.5 406.5Z" fill="#895424"/>
<path d="M429.5 449.5L427.769 424.698C374.442 473.151 337.627 491.258 273.269 530.698C273.269 530.698 214 554.277 204.5 554.277C147.506 563.785 115.252 562.236 57.5007 554.277C55.6342 560.581 53.4687 566.663 50.5 574V632C55.7492 645.574 55.6731 653.162 57.5 664.5L91.5 692.5L115 695.5H123.5L167.5 704.5C200.145 704.604 217.975 702.988 247.5 692C304.741 675.907 332.716 658.984 375 614C390.526 594.988 398.224 582.72 408 554.5C411.673 548.658 414.514 541.533 420.229 508.5C422.689 494.285 425.68 475.273 429.5 449.5Z" fill="#895424"/>
<path d="M368.5 188C347.415 193.191 349.056 191.699 347.5 194.5L396 203.5C390.568 200.316 387.677 198.575 393 198.5C404.119 198.737 410.357 199.523 421.5 203.5C413.841 203.028 411.374 203.79 408.5 206C444.015 221.549 450.956 223.902 457 225C463.044 226.098 491.203 218.5 487.5 213C483.797 207.5 420.163 189.91 368.5 185.5V188Z" fill="#773A03"/>
<path d="M90.0196 521C84.8785 534.509 85.143 541.677 88.0196 552.832C89.4359 552.057 90.7292 551.37 91.9611 550.755C89.5242 539.853 89.5699 533.318 94.0196 521.555C92.6983 521.377 91.3653 521.192 90.0196 521Z" fill="black"/>
<path d="M71.0196 560.029C65.5954 563.781 83.2605 603.085 89.9883 602.409C94.9161 601.913 97.0726 600.467 99.9883 598.909C101.054 598.34 101.978 598.139 103.52 597.42L103.529 597.415C105 596.729 106.614 596.163 108.02 595.529C105.828 593.68 98.8985 582.619 97.2863 580.029C96.7994 579.247 96.3311 578.416 95.8768 577.529C94.7858 575.398 93.775 572.938 92.7791 570.029C92.5057 569.23 92.2335 568.398 91.9611 567.529C91.0785 564.714 90.1936 561.517 89.2605 557.853C85.3822 557.45 81.4102 557.002 77.3203 556.51L76.9181 556.462C75.6835 556.924 75.3549 556.99 75.0673 557.136C74.6309 557.359 74.2892 557.767 71.0196 560.029Z" fill="#E4C9B1"/>
<path d="M76.9181 556.462L77.3203 556.51C81.4102 557.002 85.3822 557.45 89.2605 557.853C88.8571 556.269 88.4447 554.598 88.0196 552.832C86.8677 553.204 85.6952 553.572 84.5315 553.937L84.5305 553.937C81.8205 554.788 79.1588 555.623 76.9181 556.462Z" fill="#E4C9B1"/>
<path d="M106.52 523.06C105.195 522.922 103.862 522.775 102.52 522.62C99.7709 534.886 99.736 540.212 102.52 546.847C103.606 546.584 104.762 546.337 106.02 546.098L105.988 545.904C104.472 539.403 103.874 535.811 106.52 523.06Z" fill="black"/>
<path d="M106.367 565.446L97.538 568.424L103.018 569.303L106.367 565.446Z" fill="#E4C9B1"/>
<path d="M97.538 568.424L92.7791 570.029L96.4954 570.529L101.383 571.186L103.018 569.303L97.538 568.424Z" fill="black"/>
<path d="M110.569 564.029C110.295 563.239 110.028 562.408 109.768 561.529L106.367 565.446L103.018 569.303L101.383 571.186L98.0473 575.029L95.8768 577.529L100.866 575.716L104.301 571.579L105.818 569.753L108.52 566.498L110.569 564.029Z" fill="black"/>
<path d="M95.8768 577.529C96.3311 578.416 96.7994 579.247 97.2863 580.029L100.866 578.62L111.52 574.428L115.077 573.029L110.106 572.36L100.866 575.716L95.8768 577.529Z" fill="black"/>
<path d="M100.866 575.716L110.106 572.36L107.204 571.97L104.301 571.579L100.866 575.716Z" fill="#E4C9B1"/>
<path d="M115.077 573.029C114.624 572.39 114.189 571.726 113.771 571.029L110.334 570.477L105.818 569.753L104.301 571.579L107.204 571.97L110.106 572.36L115.077 573.029Z" fill="black"/>
<path d="M91.9611 567.529C92.2335 568.398 92.5057 569.23 92.7791 570.029L97.538 568.424L106.367 565.446L109.768 561.529L106.52 562.623L95.5196 566.33L91.9611 567.529Z" fill="black"/>
<path d="M142.52 532.718L106.52 546.004C107.369 551.496 108.25 555.91 109.217 559.562C124.449 560.548 138.79 560.661 154.046 559.733C153.694 559.211 153.352 558.683 153.02 558.143C152.995 558.102 152.97 558.062 152.945 558.021C152.919 557.979 152.894 557.937 152.868 557.895C152.315 556.981 151.788 556.033 151.284 555.029C150.736 553.938 150.214 552.781 149.711 551.529C149.516 551.044 149.324 550.544 149.135 550.029C149.086 549.896 149.037 549.763 148.989 549.628L148.954 549.529C148.724 548.888 148.499 548.222 148.276 547.529C147.924 546.435 147.579 545.272 147.239 544.029C146.32 540.676 145.432 536.737 144.52 531.98L142.52 532.718Z" fill="#E4C9B1"/>
<path d="M125.52 588.529L160.76 572.938L162.26 572.351C160.785 570.564 155.234 561.491 154.046 559.733C138.79 560.661 124.449 560.548 109.217 559.562C109.398 560.243 109.581 560.898 109.768 561.529C110.028 562.408 110.295 563.239 110.569 564.029C111.532 566.8 112.586 569.053 113.771 571.029C114.189 571.726 114.624 572.39 115.077 573.029C116.716 575.342 123.32 586.341 125.52 588.529Z" fill="#E4C9B1"/>
<path d="M160.52 526.075C160.294 525.245 160.262 524.75 160.52 523.761C159.297 523.863 158.084 523.957 156.878 524.043C156.612 525.315 156.688 525.949 157.18 526.898C158.215 526.623 159.316 526.354 160.52 526.075Z" fill="black"/>
<path d="M169.888 553.529C169.589 553.106 169.3 552.681 169.02 552.254L168.954 552.154L168.908 552.083C168.872 552.028 168.836 551.972 168.801 551.917L165.655 551.538L161.42 551.029L160.122 552.561L165.63 553.107L169.888 553.529Z" fill="black"/>
<path d="M160.122 552.561L156.878 556.39L165.63 553.107L160.122 552.561Z" fill="#E4C9B1"/>
<path d="M153.02 558.143C153.352 558.683 153.694 559.211 154.046 559.733L156.245 558.872L167.52 554.456L169.888 553.529L165.63 553.107L156.878 556.39L152.868 557.895L152.945 558.021L153.02 558.143Z" fill="black"/>
<path d="M149.135 550.029C149.324 550.544 149.516 551.044 149.711 551.529L153.814 550.114L162.037 547.277L164.842 544.029L161.857 545.062L152.02 548.467L148.954 549.529L148.989 549.628C149.037 549.763 149.086 549.896 149.135 550.029Z" fill="black"/>
<path d="M165.655 546.029C165.442 545.539 165.235 545.04 165.035 544.529C165.001 544.444 164.968 544.358 164.935 544.272C164.904 544.191 164.872 544.11 164.842 544.029L162.037 547.277L159.044 550.743L157.683 552.319L154.48 556.029L152.868 557.895L156.878 556.39L160.122 552.561L161.42 551.029L163.901 548.099L165.655 546.029Z" fill="black"/>
<path d="M159.044 550.743L162.037 547.277L153.814 550.114L156.429 550.428L159.044 550.743Z" fill="#E4C9B1"/>
<path d="M149.711 551.529L152.868 551.821L157.683 552.319L159.044 550.743L156.429 550.428L153.814 550.114L149.711 551.529Z" fill="black"/>
<path d="M144.52 531.98C145.432 536.737 146.32 540.676 147.239 544.029C147.579 545.272 147.924 546.435 148.276 547.529C148.499 548.222 148.724 548.888 148.954 549.529L152.02 548.467C150.061 542.334 149.018 538.728 147.767 530.343C146.753 530.827 145.683 531.367 144.52 531.98Z" fill="black"/>
<path fill-rule="evenodd" clip-rule="evenodd" d="M152.02 548.467C150.061 542.334 149.018 538.728 147.767 530.343C151.038 528.784 153.739 527.811 157.18 526.898C158.621 534.867 159.684 538.755 161.857 545.062L152.02 548.467Z" fill="#E4C9B1"/>
<path d="M163.079 538.529C162.128 535.017 161.31 530.959 160.52 526.075C159.316 526.354 158.215 526.623 157.18 526.898C158.621 534.867 159.684 538.755 161.857 545.062L164.842 544.029C164.596 543.381 164.359 542.716 164.13 542.029C163.76 540.921 163.411 539.758 163.079 538.529Z" fill="black"/>
<path d="M91.9611 550.755C90.7292 551.37 89.4359 552.057 88.0196 552.832C88.4447 554.598 88.8571 556.269 89.2605 557.853C90.6233 557.995 91.9746 558.131 93.3154 558.261C92.8222 556.096 92.3973 553.776 91.9611 550.755Z" fill="black"/>
<path d="M89.2605 557.853C90.1936 561.517 91.0785 564.714 91.9611 567.529L95.5196 566.33C94.5954 563.231 93.9064 560.857 93.3154 558.261C91.9746 558.131 90.6233 557.995 89.2605 557.853Z" fill="black"/>
<path fill-rule="evenodd" clip-rule="evenodd" d="M93.3154 558.261C97.4626 558.664 101.509 559.013 105.487 559.304C104.267 555.273 103.468 552.073 102.52 546.847C98.5343 547.81 95.5018 548.986 91.9611 550.755C92.3973 553.776 92.8222 556.096 93.3154 558.261Z" fill="#E4C9B1"/>
<path d="M106.52 546.004C106.351 546.036 106.184 546.067 106.02 546.098C104.762 546.337 103.606 546.584 102.52 546.847C103.468 552.073 104.267 555.273 105.487 559.304L105.663 559.317C106.501 559.378 107.335 559.437 108.166 559.493C108.517 559.516 108.867 559.539 109.217 559.562C108.25 555.91 107.369 551.496 106.52 546.004Z" fill="black"/>
<path fill-rule="evenodd" clip-rule="evenodd" d="M95.5196 566.33C94.5954 563.231 93.9064 560.857 93.3154 558.261C97.4626 558.664 101.509 559.013 105.487 559.304C105.8 560.34 106.141 561.43 106.52 562.623L95.5196 566.33Z" fill="#E4C9B1"/>
<path d="M109.217 559.562C108.867 559.539 108.517 559.516 108.166 559.493C107.335 559.437 106.501 559.378 105.663 559.317L105.487 559.304C105.8 560.34 106.141 561.43 106.52 562.623L109.768 561.529C109.581 560.898 109.398 560.243 109.217 559.562Z" fill="black"/>
<path d="M97.2863 580.029C98.8985 582.619 105.828 593.68 108.02 595.529C108.52 595.529 110.52 595.029 111.336 594.406C108.986 592.006 102.78 581.664 100.866 578.62L97.2863 580.029Z" fill="black"/>
<path fill-rule="evenodd" clip-rule="evenodd" d="M111.336 594.406C108.986 592.006 102.78 581.664 100.866 578.62L111.52 574.428C113.484 577.746 119.674 588.112 121.988 590.34C118.273 592.132 115.219 593.239 111.336 594.406Z" fill="#E4C9B1"/>
<path d="M125.52 588.529C123.32 586.341 116.716 575.342 115.077 573.029L111.52 574.428C113.484 577.746 119.674 588.112 121.988 590.34C123.02 590.029 124.02 589.529 125.52 588.529Z" fill="black"/>
<path d="M173.454 558.05C172.132 556.52 170.951 555.034 169.888 553.529L167.52 554.456L170.289 558.39C171.337 558.282 172.392 558.168 173.454 558.05Z" fill="black"/>
<path d="M178.02 565.001C177.922 564.889 176.405 562.407 175.412 560.931L175.411 560.929C174.467 559.526 173.545 558.155 173.454 558.05C172.392 558.168 171.337 558.282 170.289 558.39L175.52 566.529C176.315 566.093 177.142 565.527 178.02 565.001Z" fill="black"/>
<path fill-rule="evenodd" clip-rule="evenodd" d="M164.52 571.529C168.879 570.431 171.881 568.523 175.52 566.529L170.289 558.39C165.673 558.868 161.183 559.256 156.777 559.557L164.52 571.529Z" fill="#E4C9B1"/>
<path d="M154.046 559.733C155.234 561.491 160.785 570.564 162.26 572.351C163.161 572.351 164.02 572.029 164.52 571.529L156.777 559.557L156.529 559.574C155.699 559.63 154.871 559.683 154.046 559.733Z" fill="black"/>
<path fill-rule="evenodd" clip-rule="evenodd" d="M167.52 554.456L170.289 558.39C165.673 558.868 161.183 559.256 156.777 559.557L156.245 558.872L167.52 554.456Z" fill="#E4C9B1"/>
<path d="M156.245 558.872L154.046 559.733C154.871 559.683 155.699 559.63 156.529 559.574L156.777 559.557L156.245 558.872Z" fill="#2E302A"/>
<path fill-rule="evenodd" clip-rule="evenodd" d="M110.334 570.477L108.52 566.498L105.818 569.753L110.334 570.477Z" fill="#E4C9B1"/>
<path d="M113.771 571.029C112.586 569.053 111.532 566.8 110.569 564.029L108.52 566.498L110.334 570.477L113.771 571.029Z" fill="black"/>
<path fill-rule="evenodd" clip-rule="evenodd" d="M98.0473 575.029L101.383 571.186L96.4954 570.529C96.838 572.469 97.2304 573.416 98.0473 575.029Z" fill="#E4C9B1"/>
<path d="M92.7791 570.029C93.775 572.938 94.7858 575.398 95.8768 577.529L98.0473 575.029C97.2304 573.416 96.838 572.469 96.4954 570.529L92.7791 570.029Z" fill="black"/>
<path fill-rule="evenodd" clip-rule="evenodd" d="M152.868 551.821C153.387 553.779 153.619 554.182 154.666 555.997L154.48 556.029L157.683 552.319L152.868 551.821Z" fill="#E4C9B1"/>
<path fill-rule="evenodd" clip-rule="evenodd" d="M165.655 551.538C164.78 550.304 164.359 549.576 163.901 548.099L161.42 551.029L165.655 551.538Z" fill="#E4C9B1"/>
<path d="M144.52 531.98C145.683 531.367 146.753 530.827 147.767 530.343C147.194 528.661 147.146 527.436 147.767 524.547C146.657 524.59 145.55 524.626 144.447 524.655C143.619 527.983 143.765 529.52 144.52 531.98Z" fill="black"/>
<path d="M149.711 551.529C150.214 552.781 150.736 553.938 151.284 555.029C151.788 556.033 152.315 556.981 152.868 557.895L154.48 556.029L154.666 555.997C153.619 554.182 153.387 553.779 152.868 551.821L149.711 551.529Z" fill="black"/>
<path d="M167.103 549.029C166.588 548.063 166.107 547.068 165.655 546.029L163.901 548.099C164.359 549.576 164.78 550.304 165.655 551.538L168.801 551.917C168.195 550.975 167.631 550.018 167.103 549.029Z" fill="black"/>
<path d="M187.52 560.529L186.648 556.396C185.982 556.489 185.319 556.579 184.659 556.669C185.432 557.653 186.719 559.588 187.52 560.529Z" fill="#4E4945"/>
<path d="M185.864 553.226C183.609 546.119 178.042 536.52 169.02 522.938C171.137 535.453 177.062 546.897 184.425 556.368L186.602 555.997C186.417 555.117 186.171 554.195 185.864 553.226Z" fill="#4E4945"/>
<path fill-rule="evenodd" clip-rule="evenodd" d="M186.602 555.997C186.868 557.269 187.507 559.423 187.52 560.529L186.648 556.396L186.602 555.997ZM184.425 556.368C177.062 546.897 171.137 535.453 169.02 522.938L160.52 526.075C161.31 530.959 162.128 535.017 163.079 538.529C163.411 539.758 163.76 540.921 164.13 542.029C164.359 542.716 164.596 543.381 164.842 544.029C164.872 544.11 164.904 544.191 164.935 544.272C164.968 544.358 165.001 544.444 165.035 544.529C165.235 545.04 165.442 545.539 165.655 546.029C166.107 547.068 166.588 548.063 167.103 549.029C167.631 550.018 168.195 550.975 168.801 551.917C168.836 551.972 168.872 552.028 168.908 552.083L168.954 552.154L169.02 552.254C169.3 552.681 169.589 553.106 169.888 553.529C170.951 555.034 172.132 556.52 173.454 558.05C173.545 558.155 174.467 559.526 175.411 560.929L175.412 560.931C176.405 562.407 177.922 564.889 178.02 565.001L187.52 560.529C186.719 559.588 185.432 557.653 184.659 556.669C184.581 556.569 184.503 556.468 184.425 556.368Z" fill="#E4C9B1"/>
<path d="M184.659 556.669C185.319 556.579 185.982 556.489 186.648 556.396L186.602 555.997L184.425 556.368C184.503 556.468 184.581 556.569 184.659 556.669Z" fill="#4E4945"/>
<path d="M256.808 750C288.307 732 249.233 695.962 256.808 666.265C256.159 635.192 253.563 613.343 244.491 597.29C240.604 590.411 221.269 572.523 208.212 566.712C250.716 607.77 244.191 620.351 237.069 644.343L228.518 631.857C223.096 652.475 220.557 664.667 218.088 689.019L211.396 681.587L211.771 694.706L188.057 681.072L192.3 708.201C181.569 695.696 176.372 688.495 169.25 675.13L164.979 689.068L158.623 682.008C153.033 691.306 146.863 686.203 144.5 699C135.556 691.797 81.484 681.705 68.5 675.13C101.5 708.201 159.592 716.655 169.25 717.5C187.098 730.691 225.309 768 256.808 750Z" fill="#773A03"/>
<path d="M68.5 675.13C81.484 681.705 135.556 691.797 144.5 699C146.863 686.203 153.033 691.306 158.623 682.008L164.979 689.068L169.25 675.13C176.372 688.495 181.569 695.696 192.3 708.201L188.057 681.072L211.771 694.706L211.396 681.587L218.088 689.019C220.557 664.667 223.096 652.475 228.518 631.857L237.069 644.343C244.191 620.351 250.716 607.77 208.212 566.712L68.5 675.13Z" fill="#895424"/>
<path d="M188.609 608.023C187.703 614.168 185.864 617.09 182.928 622.445L183.859 622.811C187.337 617.376 189.493 614.463 189.54 608.39L188.609 608.023Z" fill="black"/>
<path d="M201.973 606.839C201.38 616.576 198.779 620.242 194.195 626.7C194.161 626.747 194.127 626.795 194.093 626.843L195.954 627.576C200.76 620.446 203.994 616.657 203.834 607.572L201.973 606.839Z" fill="black"/>
<path d="M177.811 620.429C179.423 621.996 180.502 622.521 182.928 622.445C185.864 617.09 187.703 614.168 188.609 608.023L189.54 608.39C189.493 614.463 187.337 617.376 183.859 622.811C183.861 627.734 184.871 629.648 194.093 626.843L194.195 626.7C198.779 620.242 201.38 616.576 201.973 606.839L203.834 607.572C203.994 616.657 200.76 620.446 195.954 627.576C198.634 632.682 201.272 633.405 208.317 630.296C218.045 626.11 221.969 620.417 221.579 601.127C218.043 593.02 215.904 588.833 211.319 583.113C206.206 587.814 202.418 590.087 193.359 593.235C196.269 590.602 197.495 588.971 196.658 584.861C191.995 585.287 189.925 586.894 186.787 589.33L186.784 589.332C186.425 589.611 186.051 589.901 185.658 590.202C185.427 599.206 182.933 608.352 177.811 620.429Z" fill="#3E1400"/>
<path d="M243.741 533.547L277.884 510.991C283.179 508.221 287.826 505.985 292.033 503.96L292.037 503.959C294.42 502.812 296.662 501.733 298.801 500.664C313.18 493.474 320.879 476.874 325.249 460.324C311.345 489.35 302.018 499.642 281.575 503.134C282.922 499.904 283.659 497.425 284.481 494.243C260.825 516.016 253.822 521.436 247.223 524.708C246.493 520.701 246.845 518.296 251.804 513.078L247.152 511.245C252.126 503.587 254.043 497.597 257.047 486.124C247.983 492.639 242.179 494.633 231.292 496.937L239.764 483.615C219.194 495.602 206.649 501.627 183.926 512.135L180.205 510.669C182.623 498.173 184.555 490.744 191.623 474.862C184.498 482.065 179.87 488.338 175.193 496.334C176.045 477.269 182.184 462.821 222.888 417.317C187.78 451.315 175.362 467.493 169.515 495.133C168.433 500.252 167.575 505.763 166.841 511.853C167.373 518.971 167.877 524.76 169.348 531.41C171.142 539.525 174.375 548.924 180.855 563.589C182.608 568.972 183.909 573.785 184.714 578.347C185.434 582.423 185.759 586.299 185.658 590.202C186.051 589.901 186.425 589.611 186.784 589.332L186.787 589.33C189.925 586.894 191.995 585.287 196.658 584.861C197.495 588.971 196.269 590.602 193.359 593.235C202.418 590.087 206.206 587.814 211.319 583.113C215.904 588.833 218.043 593.02 221.579 601.127C221.538 599.097 221.449 596.918 221.314 594.574C224.134 572.781 227.48 559.645 237.307 543.372C239.197 540.241 241.328 536.994 243.741 533.547Z" fill="#773A03"/>
<path d="M247.223 524.708C253.822 521.436 260.825 516.016 284.481 494.243C283.659 497.425 282.922 499.904 281.575 503.134C302.018 499.642 311.345 489.35 325.249 460.324L222.888 417.317C182.184 462.821 176.045 477.269 175.193 496.334C179.87 488.338 184.498 482.065 191.623 474.862C184.555 490.744 182.623 498.173 180.205 510.669L183.926 512.135C206.649 501.627 219.194 495.602 239.764 483.615L231.292 496.937C242.179 494.633 247.983 492.639 257.047 486.124C254.043 497.597 252.126 503.587 247.152 511.245L251.804 513.078C246.845 518.296 246.493 520.701 247.223 524.708Z" fill="#895424"/>
</svg>
