<svg width="1230" height="867" viewBox="0 0 1230 867" fill="none" xmlns="http://www.w3.org/2000/svg">
<path d="M1089.61 451.614C1091.65 448.115 1093.84 444.442 1096.2 440.572C1113.65 431.637 1126.82 422.785 1144.58 410.696C980.349 383.279 924.109 398.357 862.701 458.359C888.931 459.313 900.142 459.939 915.755 461.173C969.92 414.294 1043.83 477.677 1010.31 530.305C1008.57 531.791 1007.28 532.99 1006.32 534.021C1006.41 538.019 1006.46 541.715 1006.45 545.191C1006.43 561.113 1005.35 572.414 1002.89 586.946C1002.44 589.611 1001.95 592.384 1001.4 595.314C1030.03 694.09 922.019 692.534 900.94 660.281L846.626 650.98C876.285 689.745 894.368 710.775 958.152 732.969C1037.8 740.236 1082.14 742.236 1138.83 736.555C1109.91 710.244 1101.17 705.443 1076.29 682.742C1055.32 629.734 1055.39 618.761 1053.3 595.659L1053.87 593.867L1061.61 569.137C1062.53 562.067 1062.17 555.895 1060.68 547.105C1060.08 543.596 1059.31 539.669 1058.36 535.101C1062.35 508.452 1066.45 491.262 1089.61 451.614Z" fill="black"/>
<path d="M1164.21 397.396C1014.76 373.147 930.275 361.882 846.475 463.196L862.701 458.359C924.109 398.357 980.349 383.279 1144.58 410.696C1150.5 406.664 1156.94 402.272 1164.21 397.396Z" fill="#E6EAEB"/>
<path d="M1097.21 445.761C1135.27 426.197 1145.78 415.844 1164.21 397.396C1156.94 402.272 1150.5 406.664 1144.58 410.696C1126.82 422.785 1113.65 431.637 1096.2 440.572C1093.84 444.442 1091.65 448.115 1089.61 451.614C1093.09 449.808 1094.69 448.477 1097.21 445.761Z" fill="#544E2E"/>
<path d="M862.701 458.359L846.475 463.196C851.542 465.067 855.259 465.972 862.457 467.494C882.078 465.808 894.09 465.934 914.854 466.152L916.052 466.164L915.755 461.173C900.142 459.939 888.931 459.313 862.701 458.359Z" fill="#544E2E"/>
<path d="M915.755 461.173L916.052 466.164C966.766 422.312 1030.59 470.153 1005.26 528.593L1001.88 544.062C1003.5 539.252 1002.85 537.728 1006.32 534.021C1007.28 532.99 1008.57 531.791 1010.31 530.305C1043.83 477.677 969.92 414.294 915.755 461.173Z" fill="#544E2E"/>
<path fill-rule="evenodd" clip-rule="evenodd" d="M846.626 650.98L832.436 650.709C836.034 655.552 839.253 660.116 842.325 664.472C862.34 692.851 876.13 712.404 947.989 743.022C1004.81 752.605 1043.2 756.081 1149.53 751.305C1153.13 748.164 1151.42 745.143 1138.83 736.555C1082.14 742.236 1037.8 740.236 958.152 732.969C894.368 710.775 876.285 689.745 846.626 650.98Z" fill="#E6EAEB"/>
<path d="M900.94 660.281C922.019 692.534 1030.03 694.09 1001.4 595.314C1001.95 592.384 1002.44 589.611 1002.89 586.946L996.918 586.088L994.917 596.575C1032.67 660.928 939.127 704.355 902.139 654.326C854.532 646.381 839.636 645.736 832.436 650.709L846.626 650.98L900.94 660.281Z" fill="#544E2E"/>
<path d="M1060.68 547.105C1062.17 555.895 1062.53 562.067 1061.61 569.137L1053.87 593.867C1066.55 593.255 1073.06 593.812 1083.17 596.923C1096.66 575.942 1095.11 564.939 1086.36 545.815L1060.68 547.105Z" fill="#DBBF9F"/>
<path d="M996.918 586.088L1002.89 586.946C1005.35 572.414 1006.43 561.113 1006.45 545.191L1001.88 544.062L787.588 532.535L772.669 535.435C766.461 545.056 763.737 555.218 768.739 567.164L785.757 571.598L996.918 586.088Z" fill="#DBBF9F"/>
<path d="M768.739 567.164C763.737 555.218 766.461 545.056 772.669 535.435L771.912 531.543C758.094 530.517 751.034 529.559 739.147 527.478C738.472 529.679 737.124 529.845 731.876 529.901C731.907 530.35 731.936 530.793 731.965 531.23C732.85 544.752 732.843 552.88 731.353 566.017C731.289 566.581 731.223 567.155 731.153 567.739C745.362 567.879 752.739 568.401 764.054 570.768C767.82 571.399 769.06 570.837 768.739 567.164Z" fill="#1C120D"/>
<path d="M676.979 562.624C672.173 559.214 669.475 557.015 664.309 526.878C653.584 526.02 642.32 525.073 630.438 524.055C636.36 554.053 639.11 559.756 643.533 560.536L676.979 562.624Z" fill="#4F3128"/>
<path d="M643.533 560.536C639.11 559.756 636.36 554.053 630.438 524.055C617.715 522.964 612.486 522.442 598.246 521.208C601.856 551.897 603.664 556.308 608.836 558.371L643.533 560.536Z" fill="#160903"/>
<path d="M608.836 558.371C603.664 556.308 601.856 551.897 598.246 521.208C595.984 521.012 585.498 520.164 583.195 519.965C573.829 525.592 572.249 532.97 578.342 556.468L608.836 558.371Z" fill="#75594D"/>
<path d="M552.391 517.331C542.577 526.147 540.417 533.46 547.848 554.565L578.342 556.468C572.249 532.97 573.829 525.592 583.195 519.965C573.319 519.111 563.061 518.231 552.391 517.331Z" fill="#140900"/>
<path d="M709.688 564.665C704.666 560.817 701.93 556.534 697.776 529.359C687.198 528.654 676.078 527.819 664.309 526.878C669.475 557.015 672.173 559.214 676.979 562.624L709.688 564.665Z" fill="#170A04"/>
<path d="M731.353 566.017C732.843 552.88 732.85 544.752 731.965 531.23C721.169 530.797 709.825 530.162 697.776 529.359C701.93 556.534 704.666 560.817 709.688 564.665L731.353 566.017Z" fill="#75594D"/>
<path d="M547.848 554.565C540.417 533.46 542.577 526.147 552.391 517.331C543.254 518.362 538.375 517.156 534.418 509.717C526.316 505.689 522.055 505.476 515.238 509.743C507.297 505.825 504.705 508.723 499.67 512.769C494.39 530.899 494.902 539.348 497.505 553.58C497.893 559.847 501.349 560.676 511.343 558.968C517.624 561.519 521.222 562.506 528.712 558.285C534.808 552.622 538.891 551.549 547.848 554.565Z" fill="#BCB3AA"/>
<path d="M340.906 696.87L351.5 722.5L377 735L342 735L292.509 698.56L274.5 684.321L315.823 647.14L331.058 667.426L350.188 674.042L340.906 696.87Z" fill="#456746"/>
<path d="M606.5 684.5L615.832 694.435L647.365 696.036L676.874 695.521L654.404 708.001L597.832 737.399L578.332 737.399L559.796 701.822L606.5 684.5Z" fill="#456746"/>
<path d="M613 540L469 529.5L358.5 552.5C416.128 600.43 514.5 630 557.5 711.5L613 684C588.5 655 606 591 606 591C606 591 610.218 562.181 613 540Z" fill="black"/>
<path d="M270.599 454.74L297.393 460.191C295.281 470.588 293.742 480.605 292.844 490.693L269.812 519.311L271.886 546.47L224.708 554.227L136.316 531.083L80.6861 501.003L76.8746 477.712C98.7294 478.919 107.729 479.785 118.842 481.56C117.732 488.292 116.493 492.402 108.878 502.517C111.192 501.874 113.584 501.74 131.322 504.269C135.346 508.134 136.972 510.647 139.524 515.319C143.405 513.91 145.37 512.353 147.925 506.708C161.938 505.337 169.809 505.493 183.874 507.455C188.552 516.144 189.529 521.183 191.609 530.137L202.922 530.562C206.313 513.897 224.87 516.834 241.695 536.105L233.322 511.887L246.827 510.882L250.604 468.966L279.434 472.017L270.599 454.74Z" fill="#2D2727"/>
<path d="M64.8488 457.441C67.7303 463.896 70.8167 468.706 76.8746 477.712L80.6861 501.003L136.316 531.083L224.708 554.227L271.886 546.47L269.812 519.311L292.844 490.693C291.016 511.234 291.842 532.066 295.889 556.982L310.925 560.041C299.407 572.431 287.076 585.075 253.604 584.966L111.478 555.112C104.446 549.284 98.0967 544.244 92.177 539.458C95.7301 536.862 97.2032 534.74 97.9063 528.428C93.9213 527.094 91.0755 525.574 82.7689 518.782C77.1639 521.226 75.4054 522.633 75.3747 525.252C64.9087 515.755 55.1295 505.152 44.1089 489.339L38.6354 488.226L47.6828 471.773L29.438 468.061L29.392 467.959C24.2276 456.494 21.3157 450.029 19.978 435.178C27.4278 438.436 33.607 443.299 45.6917 453.543L64.8488 457.441Z" fill="#343F31"/>
<path d="M413.813 573.5L456.998 549C470.191 574.103 462.5 614.5 462.5 614.5C463.952 649.512 370.5 671 350.5 694L298 655.5C298 655.5 340.232 622.516 320.5 614.5C304.5 608 288.501 568.43 288.498 549C288.495 529.57 287.419 532.142 288.498 507.5L413.813 573.5Z" fill="#2C1D1D"/>
<path d="M607.905 326.966L669.119 269.632L712.12 337.726C708.273 349.248 710.01 352.014 715.164 355.017C712.642 360.391 711.095 365.04 708.128 377.639L661.027 371.226L657.556 370.753L609.789 336.437L607.905 326.966Z" fill="#AEBA78"/>
<path d="M661.027 371.226L708.128 377.639C706.492 385.589 703.339 389.679 700.182 392.606C703.972 398.689 704.836 407.387 706.906 420.7C703.509 438.517 702.802 446.96 702.335 461.019C698.894 468.93 696.666 472.43 693.88 477.298L686.811 468.436L669.345 463.833L656.57 449.903L623.926 442.117C639.366 424.487 648.548 415.776 666.295 403.386C665.174 390.118 667.288 382.771 661.027 371.226Z" fill="#456746"/>
<path d="M556.272 486.036C566.235 484.239 575.126 474.129 586.189 468.972L608.492 466.304L656.433 508.266C643.091 515.979 634.801 519.743 609.426 524.348L585.645 509.493L561.373 511.813L554.225 486.126L556.272 486.036Z" fill="#456746"/>
<path d="M607.905 326.966L609.789 336.437L657.556 370.753L661.027 371.226C667.288 382.771 665.174 390.118 666.295 403.386C648.548 415.776 639.366 424.487 623.926 442.117C610.5 439.607 602.693 439.578 592.747 441.696C590.823 442.106 588.819 442.596 586.678 443.164L586.694 443.121C591.21 430.812 593.747 423.897 599.593 415.994C608.795 409.091 614.399 403.447 626.178 386.157L620.269 385.116L599.593 415.994L578.666 381.926C582.799 366.839 589.818 360.782 590.953 355.576C592.087 350.37 599.346 343.873 607.905 326.966Z" fill="#7A3A2E"/>
<path d="M620.269 385.116L626.178 386.157C614.399 403.447 608.795 409.091 599.593 415.994L620.269 385.116Z" fill="black"/>
<path fill-rule="evenodd" clip-rule="evenodd" d="M693.88 477.298L686.811 468.436L669.345 463.833L656.57 449.903L623.926 442.117C610.5 439.607 602.693 439.578 592.747 441.696L586.189 468.972L608.492 466.304L656.433 508.266C643.091 515.979 634.801 519.743 609.426 524.348L585.645 509.493L561.373 511.813L554.225 486.126L548.085 486.397L547.061 486.443L514.073 497.888L541.678 516.972L540.376 524.358C544.851 526.785 547.036 527.61 550.369 528.151C549.187 541.423 549.399 549.201 549.795 563.082L628.087 576.887C634.338 574.722 641.667 570.149 653.163 562.975C654.165 562.35 655.199 561.704 656.267 561.039L609.344 559.366L586.722 552.331C598.329 536.168 604.941 528.177 616.524 524.358L671.557 527C672.847 523.742 673.701 520.911 673.929 518.459C680.928 507.172 685.489 496.651 693.301 478.632L693.88 477.298Z" fill="#2B2D28"/>
<path d="M539.127 242.991C542.897 240.864 529.814 249.81 589.921 211.197L592.773 210.923C592.69 211.968 592.513 213.119 592.248 214.387C590.366 223.399 584.055 238.363 575.639 263.922C564.225 270.666 553.271 282.579 531.835 307.583C528.399 303.139 526.816 300.09 520.657 284.789L517.176 284.423L517.437 281.937C505.028 271.813 502.946 268.076 499.376 262.442C513.112 257.852 521.69 253.804 539.127 242.991Z" fill="#A8B877"/>
<path d="M436.565 240.255L457.711 257.058C451.316 263.928 443.118 267.943 436.363 273.613C435.405 274.418 434.475 275.256 433.584 276.14C424.796 285.756 421.888 289.297 416.975 295.277L416.974 295.278L416.419 295.955C412.723 295.095 410.668 294.211 407.284 291.978C401.004 281.444 397.882 275.837 393.383 266.385C381.224 247.04 375.55 239.309 367.049 229.932L354.743 193.949L355.301 188.645L368.168 185.808L368.635 186.151C391.325 202.833 404.206 212.612 427.086 232.723L436.565 240.255Z" fill="#A9B779"/>
<path d="M517.437 281.937L517.176 284.423L479.312 324.183L487.796 348.704L465.45 379.538L458.489 378.806L445.529 344.262L461.332 318.272L441.336 274.136L436.363 273.613C443.118 267.943 451.316 263.928 457.711 257.058C478.488 258.021 487.831 259.134 499.376 262.442C502.946 268.076 505.028 271.813 517.437 281.937Z" fill="black"/>
<path d="M531.835 307.583C553.271 282.579 564.225 270.666 575.639 263.922C518.497 354.424 490.352 381.548 458.05 416.466C449.233 401.309 444.712 393.693 428.468 363.082C416.639 339.703 409.195 323.787 395.992 295.556L395.874 295.304C384.43 271.968 378.169 257.019 367.049 229.932C375.55 239.309 381.224 247.04 393.383 266.385C397.882 275.837 401.004 281.444 407.284 291.978C410.668 294.211 412.723 295.095 416.419 295.955L416.974 295.278L416.975 295.277C421.888 289.297 424.796 285.756 433.584 276.14C434.475 275.256 435.405 274.418 436.363 273.613L441.336 274.136L461.332 318.272L445.529 344.262L458.489 378.806L465.45 379.538L487.796 348.704L479.312 324.183L517.176 284.423L520.657 284.789C526.816 300.09 528.399 303.139 531.835 307.583Z" fill="#74543F"/>
<path d="M453.137 463.209C473.617 465.363 469.839 495.632 449.949 493.542C430.058 491.451 432.657 461.055 453.137 463.209Z" fill="black"/>
<path d="M446.552 525.864C465.945 527.902 463.856 557.345 443.468 555.202C423.08 553.059 427.158 523.826 446.552 525.864Z" fill="black"/>
<path fill-rule="evenodd" clip-rule="evenodd" d="M458.05 416.466C490.352 381.548 518.497 354.424 575.639 263.922C584.055 238.363 590.366 223.399 592.248 214.387C623.016 234.054 639.562 245.241 667.474 265.53L660.765 372.415C653.406 389.877 648.845 396.98 648.077 402.252C647.308 407.524 635.581 424.995 632.511 440.333C622.159 486.507 619.52 503.842 614.438 535.745L613.421 535.861L611.748 551.774L610.18 566.691L609.396 574.15L476.505 613.978L441.586 573.104L395.949 605.511L273.824 542.902L274.324 538.146L275.891 537.589L276.309 533.611L277.563 521.677L277.809 503.603L277.839 502.235C278.608 466.563 279.05 446.058 279.245 395.662C275.511 369.578 274.067 354.831 273.267 328.168C273.762 300.676 273.648 285.62 272.419 259.704C272.507 243.636 273.143 232.724 271.746 224.663C294.501 212.943 308.53 201.919 338.831 192.276L355.301 188.645L354.743 193.949L367.049 229.932C378.169 257.019 384.43 271.968 395.874 295.304L395.992 295.556C409.195 323.787 416.639 339.703 428.468 363.082C444.712 393.693 449.233 401.309 458.05 416.466ZM453.137 463.209C473.617 465.363 469.839 495.632 449.949 493.542C430.058 491.451 432.657 461.055 453.137 463.209ZM446.552 525.864C465.945 527.902 463.856 557.345 443.468 555.202C423.08 553.059 427.158 523.826 446.552 525.864Z" fill="#252222"/>
<path d="M730.771 61.1151C735.887 78.7945 736.921 88.3835 735.839 104.971C730.802 106.683 728.728 106.306 725.904 103.839C718.322 93.3288 717.444 92.0217 714.188 87.4069C716.593 84.8127 717.494 80.5328 719.251 73.8931L730.771 61.1151Z" fill="#2A2722"/>
<path d="M651.443 55.0962C642.481 71.1717 639.316 80.2822 636.639 96.6877C641.162 99.4891 643.268 99.5882 646.575 97.8197C656.327 89.2848 657.476 88.2087 661.686 84.4444C659.927 81.3759 660.012 77.003 659.794 70.1382L651.443 55.0962Z" fill="#2A2722"/>
<path d="M655.322 109.384C662.655 106.443 664.78 103.877 665.679 97.9835C670.466 102.824 672.75 105.75 675.353 111.667L676.514 113.309C659.231 112.783 656.1 111.758 655.322 109.384Z" fill="#A4A971"/>
<path d="M722.313 104.436C722.789 112.052 725.071 114.896 731.827 118.101C729.092 120.625 728.482 122.442 711.616 118.818C712.068 117.786 712.503 116.835 712.936 115.949C715.263 111.192 717.561 108.271 722.313 104.436Z" fill="#A4A971"/>
<path fill-rule="evenodd" clip-rule="evenodd" d="M577.46 33.0795C582.868 34.1989 582.025 59.2646 574.573 58.4156C566.83 58.2344 549.523 55.682 542.835 54.2963C536.148 52.9106 537.791 29.0709 545.722 28.9602C553.653 28.8495 572.052 31.9601 577.46 33.0795ZM564.814 33.6516C568.841 43.7329 562.549 53.523 562.549 53.523C562.549 53.523 559.21 44.6405 564.814 33.6516Z" fill="#A4A971"/>
<path fill-rule="evenodd" clip-rule="evenodd" d="M493.503 23.5138C498.911 24.6332 498.068 49.6989 490.616 48.8499C482.873 48.6687 467.497 46.8395 460.809 45.4538C454.121 44.0681 455.765 20.2284 463.696 20.1177C471.626 20.007 488.095 22.3944 493.503 23.5138ZM482.844 24.3123C486.871 34.3936 480.58 44.1838 480.58 44.1838C480.58 44.1838 477.24 35.3012 482.844 24.3123Z" fill="#A4A971"/>
<path d="M564.814 33.6516C568.841 43.7329 562.549 53.523 562.549 53.523C562.549 53.523 559.21 44.6405 564.814 33.6516Z" fill="#D22B2B"/>
<path d="M482.844 24.3123C486.871 34.3936 480.58 44.1838 480.58 44.1838C480.58 44.1838 477.24 35.3012 482.844 24.3123Z" fill="#D22B2B"/>
<path d="M731.827 118.101L747.724 119.912L746.706 128.854L742.731 128.402C742.679 128.38 742.628 128.374 742.577 128.384L546.998 106.1L534.905 106.232L535.754 98.7806C543.429 100.658 547.455 101.512 551.154 100.535C562.432 103.435 564.481 103.394 565.064 102.12C575.723 104.486 583.339 107.408 588.91 104.837C603.286 108.428 609.113 109.386 611.762 107.441C622.922 109.85 626.873 109.693 628.992 106.384L655.322 109.384C656.1 111.758 659.231 112.783 676.514 113.309L675.353 111.667L712.936 115.949C712.503 116.835 712.068 117.786 711.616 118.818C728.482 122.442 729.092 120.625 731.827 118.101Z" fill="#2A2722"/>
<path fill-rule="evenodd" clip-rule="evenodd" d="M731.872 42.6208L741.808 43.7528C744.213 59.2673 745.644 66.9685 748.222 80.2133C751.432 96.143 749.545 104.613 747.724 119.912L731.827 118.101C725.071 114.896 722.789 112.052 722.313 104.436C717.561 108.271 715.263 111.192 712.936 115.949L675.353 111.667C672.75 105.75 670.466 102.824 665.679 97.9835C664.78 103.877 662.655 106.443 655.322 109.384L628.992 106.384C626.873 109.693 622.922 109.85 611.762 107.441L600.173 85.4876L588.91 104.837L575.761 87.7386L565.064 102.12L559.568 92.9389L551.154 100.535L545.231 86.273L535.754 98.7806L534.905 106.232L546.998 106.1L742.577 128.384C740.807 128.731 739.584 148.012 737.524 174.106C733.303 176.073 731.022 177.666 727.123 181.476L600.442 167.042L500.588 155.665C474.983 168.47 463.813 173.645 461.505 171.845C453.867 171.51 449.811 171.06 442.628 169.694L438.88 167.254C429.177 154.474 425.835 149.228 421.228 141.088L423.052 160.419C423.668 161.024 424.27 161.624 424.86 162.22L428.371 232.987C405.666 212.677 392.872 202.786 370.328 185.907L369.864 185.559C382.629 150.055 391.052 118.416 405.873 63.8531L440.661 63.2876C440.661 63.2876 443.553 55.5654 446.006 47.2899C448.458 39.0143 449.716 23.5573 453.32 18.4323C456.923 13.3073 462.614 11.9427 462.614 11.9427L502.357 16.4709L506.124 31.9971L526.989 34.3743L534.151 20.0934L587.307 26.1497C591.84 28.0318 592.923 30.8613 594.734 36.0541C595.565 53.7882 596.319 62.9779 598.595 77.256L628.402 80.6521C633.028 62.081 638.046 51.755 648.412 33.1117L659.341 34.357L671.17 49.7952L717.868 55.1158L731.872 42.6208ZM636.639 96.6877C639.316 80.2822 642.481 71.1717 651.443 55.0962L659.794 70.1382C660.012 77.003 659.927 81.3759 661.686 84.4444C657.476 88.2087 656.327 89.2848 646.575 97.8197C643.268 99.5882 641.162 99.4891 636.639 96.6877ZM735.839 104.971C736.921 88.3835 735.887 78.7945 730.771 61.1151L719.251 73.8931C717.494 80.5328 716.593 84.8127 714.188 87.4069C717.444 92.0217 718.322 93.3288 725.904 103.839C728.728 106.306 730.802 106.683 735.839 104.971ZM574.573 58.4156C582.025 59.2646 582.868 34.1989 577.46 33.0795C572.052 31.9601 553.653 28.8495 545.722 28.9602C537.791 29.0709 536.148 52.9106 542.835 54.2963C549.523 55.682 566.83 58.2344 574.573 58.4156ZM490.616 48.8499C498.068 49.6989 498.911 24.6332 493.503 23.5138C488.095 22.3944 471.626 20.007 463.696 20.1177C455.765 20.2284 454.121 44.0681 460.809 45.4538C467.497 46.8395 482.873 48.6687 490.616 48.8499Z" fill="#426640"/>
<path d="M600.173 85.4876L611.762 107.441C609.113 109.386 603.286 108.428 588.91 104.837L600.173 85.4876Z" fill="#A4A971"/>
<path d="M575.761 87.7386L588.91 104.837C583.339 107.408 575.723 104.486 565.064 102.12L575.761 87.7386Z" fill="#A4A971"/>
<path d="M559.568 92.9389L565.064 102.12C564.481 103.394 562.432 103.435 551.154 100.535L559.568 92.9389Z" fill="#A4A971"/>
<path d="M545.231 86.273L551.154 100.535C547.455 101.512 543.429 100.658 535.754 98.7806L545.231 86.273Z" fill="#A4A971"/>
<path d="M385.467 75.1155C392.079 70.3218 396.728 67.9106 405.873 63.8531C391.052 118.416 382.629 150.055 369.864 185.559L356.973 188.284L340.472 191.772C341.227 184.572 341 180.23 338.265 171.391C346.24 166.891 351.991 164.261 364.802 159.317C359.207 150.795 356.267 145.873 352.886 135.817C360.507 130.061 365.473 126.529 379.052 118.166L370.802 106.658C376.691 102.169 380.724 99.5463 389.277 94.6726C387.552 87.1053 386.938 82.8472 385.467 75.1155Z" fill="#2D2727"/>
<path d="M600.442 167.042L575.433 205.458C569.758 208.282 564.243 209.133 556.869 209.382C559.101 220.707 536.529 246.326 540.318 244.232C522.787 254.892 514.174 258.865 500.398 263.336C488.882 259.927 479.55 258.732 458.782 257.588L437.784 240.602C444.828 229.743 448.83 219.592 454.959 202.803C443.481 184.774 436.797 174.295 424.86 162.22C424.27 161.624 423.668 161.024 423.052 160.419L421.228 141.088C425.835 149.228 429.177 154.474 438.88 167.254L442.628 169.694C449.811 171.06 453.867 171.51 461.505 171.845C463.813 173.645 474.983 168.47 500.588 155.665L600.442 167.042Z" fill="#2D2727"/>
<path d="M454.959 202.803C448.83 219.592 444.828 229.743 437.784 240.602L428.371 232.987L424.86 162.22C436.797 174.295 443.481 184.774 454.959 202.803Z" fill="#714133"/>
<path d="M540.318 244.232C536.529 246.326 559.101 220.707 556.869 209.382C564.243 209.133 569.758 208.282 575.433 205.458C582.54 207.973 585.989 209.557 591.757 212.35C531.316 250.437 544.106 242.138 540.318 244.232Z" fill="#714133"/>
<path d="M394.526 515.898C395.727 514.137 396.994 513.313 401.178 512.435C410.717 517.994 417.267 519.957 428.582 523.348L429.498 523.622C421.278 531.341 416.578 535.464 406.3 538.516C400.058 531.257 396.584 527.16 394.526 515.898Z" fill="black"/>
<path d="M269.337 231.015L273.328 228.937C278.942 234.888 284.916 244.901 293.712 258.348C309.041 279.281 317.446 291.773 332.207 314.971C320.348 343.966 311.738 358.772 291.247 381.388L287.413 379.438L249.715 399.063C248.29 398.577 247.734 398.733 235.529 379.391L236.786 374.226C233.482 364.975 228.292 358.78 230 355.775C238.258 327.363 242.605 311.227 246.876 279.911C252.258 266.693 257.388 258.771 269.337 231.015Z" fill="#AFBE7B"/>
<path d="M381.638 425.088C380.261 424.286 379.333 424.401 376.954 425.835C368.013 429.562 360.521 432.739 353.868 435.63C334.368 417.11 322.666 408.301 293.283 410.204L291.569 387.421L291.247 381.388C311.738 358.772 320.348 343.966 332.207 314.971C332.207 314.971 363.744 386.191 359.268 397.275L336.813 377.961C334.669 379.468 334.168 380.726 333.994 383.375C347.124 389.899 354.789 395.632 368.547 406.537C373.797 412.252 377.468 417.476 381.638 425.088Z" fill="#7A3A2E"/>
<path d="M333.994 383.375C334.168 380.726 334.669 379.468 336.813 377.961L359.268 397.275C362.924 400.721 365.932 403.69 368.547 406.537C354.789 395.632 347.124 389.899 333.994 383.375Z" fill="black"/>
<path d="M252.948 405.272C253.09 401.704 252.314 400.403 249.715 399.063L287.413 379.438L291.247 381.388L291.569 387.421L293.283 410.204C322.666 408.301 334.368 417.11 353.868 435.63C337.593 442.701 326.348 448.055 311.242 455.533C307.625 468.219 302.256 474.094 291.807 484.252C281.82 473.367 273.621 465.889 251.192 448.462C250.767 434.445 250.957 425.477 252.948 405.272Z" fill="#456746"/>
<path fill-rule="evenodd" clip-rule="evenodd" d="M355.984 552.309C350.799 549.013 339.308 537.842 291.807 484.252C302.256 474.094 307.625 468.219 311.242 455.533C326.348 448.055 337.593 442.701 353.868 435.63C360.521 432.739 368.013 429.562 376.954 425.835L390.521 448.648C387.23 447.308 381.499 449.195 364.937 456.893C362.934 463.56 360.656 469.622 344.907 503.96C345.825 506.397 350.413 507.484 398.177 506.669C404.171 496.422 406.721 490.177 409.112 477.865C424.448 479.898 427.475 479.846 432.624 479.718C431.298 472.377 431.115 467.777 431.834 458.709L432.824 458.757L469.435 460.555L448.135 484.608L449.982 488.156L448.983 489.485L442.321 498.345L456.228 528.309L388.372 563.633C375.514 561.948 369.505 560.582 358.985 558.074L355.984 552.309ZM401.178 512.435C396.994 513.313 395.727 514.137 394.526 515.898C396.584 527.16 400.058 531.257 406.3 538.516C416.578 535.464 421.278 531.341 429.498 523.622L428.582 523.348C417.267 519.957 410.717 517.994 401.178 512.435Z" fill="#343F31"/>
<path d="M390.521 448.648C409.945 451.758 411.665 456.155 431.834 458.709C431.115 467.777 431.298 472.377 432.624 479.718C427.475 479.846 424.448 479.898 409.112 477.865C406.721 490.177 404.171 496.422 398.177 506.669C350.413 507.484 345.825 506.397 344.907 503.96C360.656 469.622 362.934 463.56 364.937 456.893C381.499 449.195 387.23 447.308 390.521 448.648Z" fill="#456746"/>
</svg>
