<svg width="1329" height="863" viewBox="0 0 1329 863" fill="none" xmlns="http://www.w3.org/2000/svg">
<path d="M505.5 703L535.5 717L560.502 728.551L513.226 729.114L461.329 729.369L438.725 729.114L453.689 674.144L476.957 684.142L500.225 687.5L505.5 703Z" fill="#456746"/>
<path d="M332.94 669.591L329.082 672.772L332.656 704.957L333.211 734.326L317.37 714.085L265.975 645.739L290.463 618.063L332.94 669.591Z" fill="#456746"/>
<path fill-rule="evenodd" clip-rule="evenodd" d="M606 577L461.279 614L422.279 577L310 604.5L281 614.5L338.5 679.5C341.06 646.405 587.035 665.276 594.5 638L606 577Z" fill="black"/>
<path d="M230.724 520.617L287.999 503.5C293.545 512.544 276.252 522.919 282.475 530.909L251.185 570.377L271.224 588.825L242.011 626.674L161.581 670.031L100.381 685.971L81.7093 671.537C98.5164 657.515 105.688 652.01 115.026 645.729C118.807 651.41 120.703 655.26 122.032 667.851C123.286 665.804 124.944 664.074 139.641 653.826C145.221 653.908 148.123 654.637 153.176 656.314C155.054 652.636 155.429 650.157 153.448 644.287C162.761 633.727 168.624 628.474 180.248 620.316C189.596 623.48 193.746 626.499 201.374 631.629L209.939 624.225C201.053 609.724 216.627 599.216 242.075 601.836L219.435 589.834L228.626 579.889L219.435 552.5L242.6 535.069L230.724 520.617Z" fill="#2D2727"/>
<path d="M59.0893 664.913C65.5989 667.668 71.1369 669.081 81.7093 671.537L100.381 685.971L161.581 670.031L242.011 626.674L271.224 588.825L251.185 570.377L282.475 530.909C295.146 547.179 275.996 564.681 295.948 580.143L309.031 572.126C309.058 589.043 308.663 606.7 284.108 629.448L159.803 704.544C150.686 705.077 142.605 705.722 135.012 706.259C135.84 701.937 135.47 699.38 131.679 694.285C127.855 696.026 124.737 696.855 114.03 697.553C111.597 703.163 111.271 705.392 113.034 707.328C98.9036 707.521 84.52 706.435 65.6759 702.386L60.9133 705.305L56.3094 687.102L40.4344 696.83L40.331 696.786C28.735 691.924 22.1967 689.182 11.0897 679.232C18.76 676.534 26.5957 675.877 42.4206 675.127L59.0893 664.913Z" fill="#343F31"/>
<path d="M1135.47 261.209C1135.63 257.161 1135.84 252.888 1136.11 248.366C1147.32 232.285 1154.79 218.285 1164.8 199.273C1006.92 252.167 964.342 291.883 938.291 373.692C961.899 362.219 972.091 357.509 986.456 351.269C1012.27 284.448 1107.29 305.711 1102.4 367.918C1101.56 370.047 1100.99 371.709 1100.62 373.072C1102.58 376.558 1104.36 379.8 1105.98 382.871C1113.44 396.939 1117.79 407.427 1122.44 421.41C1123.3 423.974 1124.16 426.656 1125.05 429.498C1196.7 503.274 1100.6 552.607 1066.85 534.025L1014.53 551.312C1058.91 571.616 1084.75 581.695 1151.49 571.346C1225.22 540.371 1265.32 521.318 1312.71 489.687C1274.82 480.033 1264.85 479.899 1232.22 471.535C1188.82 434.577 1183.73 424.854 1171.04 405.437L1170.7 403.591L1165.93 378.119C1163.42 371.447 1160.2 366.168 1154.76 359.106C1152.58 356.286 1150.06 353.183 1147.08 349.593C1138.09 324.191 1133.64 307.09 1135.47 261.209Z" fill="black"/>
<path d="M1175.89 178.315C1032.55 227.065 952.662 256.783 926.235 385.58L938.291 373.692C964.342 291.883 1006.92 252.167 1164.8 199.273C1168.14 192.932 1171.75 186.034 1175.89 178.315Z" fill="#E6EAEB"/>
<path d="M1139.43 252.475C1163.86 217.329 1168.28 203.254 1175.89 178.315C1171.75 186.034 1168.14 192.932 1164.8 199.273C1154.79 218.285 1147.32 232.285 1136.11 248.366C1135.84 252.888 1135.63 257.161 1135.47 261.209C1137.7 257.979 1138.49 256.052 1139.43 252.475Z" fill="#544E2E"/>
<path d="M938.291 373.692L926.235 385.58C931.587 384.853 935.294 383.907 942.364 381.872C958.897 371.172 969.562 365.644 987.998 356.087L989.061 355.536L986.456 351.269C972.091 357.509 961.899 362.219 938.291 373.692Z" fill="#544E2E"/>
<path d="M986.456 351.269L989.061 355.536C1013.25 293.008 1092.07 305.285 1097.14 368.775L1101.41 384.024C1100.59 379.014 1099.29 377.975 1100.62 373.072C1100.99 371.709 1101.56 370.047 1102.4 367.918C1107.29 305.711 1012.27 284.448 986.456 351.269Z" fill="#544E2E"/>
<path fill-rule="evenodd" clip-rule="evenodd" d="M1014.53 551.312L1001.87 557.734C1007.32 560.322 1012.31 562.84 1017.06 565.244C1048.06 580.905 1069.41 591.695 1147.24 584.993C1201.9 566.78 1237.43 551.825 1329.08 497.689C1330.78 493.223 1327.85 491.36 1312.71 489.687C1265.32 521.318 1225.22 540.371 1151.49 571.346C1084.75 581.695 1058.91 571.616 1014.53 551.312Z" fill="#E6EAEB"/>
<path d="M1066.85 534.025C1100.6 552.607 1196.7 503.274 1125.05 429.498C1124.16 426.656 1123.3 423.974 1122.44 421.41L1116.76 423.458L1119.92 433.657C1183.47 472.754 1121.26 555.013 1065.11 528.204C1019.35 543.54 1005.89 549.964 1001.87 557.734L1014.53 551.312L1066.85 534.025Z" fill="#544E2E"/>
<path d="M1154.76 359.106C1160.2 366.168 1163.42 371.447 1165.93 378.119L1170.7 403.591C1181.61 397.097 1187.62 394.531 1198 392.532C1200.07 367.672 1193.53 358.685 1176.83 345.907L1154.76 359.106Z" fill="#DBBF9F"/>
<path d="M1116.76 423.458L1122.44 421.41C1117.79 407.427 1113.44 396.939 1105.98 382.871L1101.41 384.024L906.794 474.448L894.982 484.013C894.018 495.422 896.383 505.673 906.409 513.873L923.516 509.798L1116.76 423.458Z" fill="#DBBF9F"/>
<path d="M906.409 513.873C896.383 505.673 894.018 495.422 894.982 484.013L892.487 480.931C879.805 486.513 873.121 488.982 861.648 492.725C862.086 494.984 860.974 495.764 856.367 498.277C856.604 498.659 856.838 499.036 857.069 499.409C864.199 510.933 868.008 518.113 872.86 530.411C873.069 530.94 873.279 531.477 873.492 532.025C886.104 525.479 892.862 522.476 903.964 519.254C907.585 518.044 908.416 516.965 906.409 513.873Z" fill="#1C120D"/>
<path d="M823.257 552.942C817.413 552.189 813.999 551.513 795.289 527.329C785.416 531.607 775.027 536.059 764.057 540.738C783.37 564.445 788.475 568.189 792.747 566.801L823.257 552.942Z" fill="#4F3128"/>
<path d="M792.747 566.801C788.475 568.189 783.37 564.445 764.057 540.738C752.311 545.748 747.45 547.742 734.297 553.337C751.892 578.74 755.559 581.785 761.094 581.179L792.747 566.801Z" fill="#160903"/>
<path d="M761.094 581.179C755.559 581.785 751.892 578.74 734.297 553.337C732.208 554.226 722.551 558.401 720.424 559.306C714.796 568.672 716.865 575.927 733.276 593.815L761.094 581.179Z" fill="#75594D"/>
<path d="M691.989 571.442C687.463 583.833 688.989 591.305 705.458 606.451L733.276 593.815C716.865 575.927 714.796 568.672 720.424 559.306C711.303 563.189 701.833 567.228 691.989 571.442Z" fill="#140900"/>
<path d="M853.096 539.389C846.856 538.349 842.429 535.852 826.004 513.808C816.333 518.151 806.122 522.635 795.289 527.329C813.999 551.513 817.413 552.189 823.257 552.942L853.096 539.389Z" fill="#170A04"/>
<path d="M872.86 530.411C868.008 518.113 864.199 510.933 857.069 499.409C847.334 504.095 837.019 508.86 826.004 513.808C842.429 535.852 846.856 538.349 853.096 539.389L872.86 530.411Z" fill="#75594D"/>
<path d="M705.458 606.451C688.989 591.305 687.463 583.833 691.989 571.442C684.406 576.642 679.531 577.868 672.546 573.157C663.501 573.404 659.638 575.217 655.623 582.185C646.772 582.453 645.844 586.229 643.298 592.165C647.148 610.652 651.565 617.871 660.546 629.215C663.831 634.567 667.272 633.676 675.294 627.476C682.037 626.78 685.677 625.962 690.309 618.718C693.033 610.857 696.134 607.992 705.458 606.451Z" fill="#BCB3AA"/>
<path d="M401.813 598.5L444.999 574L469.259 639L514.5 689.5L487.5 696.5L439.5 705C434.702 679.319 350.232 653.516 330.5 645.5C314.5 639 276.502 593.43 276.499 574C276.496 554.57 275.419 557.142 276.499 532.5L401.813 598.5Z" fill="#2C1D1D"/>
<path d="M658.251 372.333L689.499 294.5L757.249 338.042C758.632 350.109 761.375 351.883 767.315 352.426C767.3 358.362 767.863 363.23 770.5 375.902L725.1 389.995L721.755 391.034L663.961 380.12L658.251 372.333Z" fill="#AEBA78"/>
<path d="M725.1 389.995L770.5 375.902C772.376 383.798 771.247 388.838 769.623 392.825C775.628 396.736 780.087 404.254 787.59 415.446C792.041 433.028 794.968 440.979 800.487 453.918C800.711 462.542 800.171 466.656 799.703 472.246L789.552 467.201L771.777 470.411L754.312 463.185L721.436 469.924C727.978 447.421 732.619 435.645 743.467 416.915C736.843 405.365 735.654 397.813 725.1 389.995Z" fill="#456746"/>
<path d="M678.681 538.32C686.951 532.48 690.736 519.561 698.584 510.211L717.669 498.368L778.853 516.138C770.02 528.766 764.098 535.681 743.047 550.579L715.215 547.166L694.198 559.526L676.864 539.267L678.681 538.32Z" fill="#456746"/>
<path d="M658.251 372.333L663.961 380.12L721.755 391.034L725.1 389.995C735.654 397.813 736.843 405.365 743.467 416.915C732.619 435.645 727.978 447.421 721.436 469.924C708.207 473.323 701.119 476.596 693 482.719C691.43 483.904 689.82 485.195 688.12 486.615L688.116 486.569C687.007 473.505 686.384 466.166 688.342 456.533C693.764 446.387 696.459 438.904 699.827 418.256L694.031 419.809L688.342 456.533L654.978 434.5C652.348 419.08 656.15 410.624 654.978 405.427C653.806 400.229 657.638 391.273 658.251 372.333Z" fill="#7A3A2E"/>
<path d="M694.031 419.809L699.827 418.256C696.459 438.904 693.764 446.387 688.342 456.533L694.031 419.809Z" fill="black"/>
<path fill-rule="evenodd" clip-rule="evenodd" d="M799.703 472.246L789.552 467.201L771.777 470.411L754.312 463.185L721.436 469.924C708.207 473.323 701.119 476.596 693 482.719L698.584 510.211L717.669 498.368L778.853 516.138C770.02 528.766 764.098 535.681 743.047 550.579L715.215 547.166L694.198 559.526L676.864 539.267L671.414 542.108L670.505 542.581L645.444 566.896L678.529 572.525L680.47 579.769C685.551 580.078 687.88 579.902 691.13 578.984C695.667 591.512 699.147 598.471 705.371 610.885L782.163 590.308C786.913 585.705 791.623 578.462 799.01 567.103C799.654 566.112 800.318 565.091 801.005 564.037C800.986 563.69 800.967 563.344 800.95 563L757.772 582.35C733.5 592 717.561 565.645 749 548.5L800.353 525C800.115 522.255 799.706 519.908 799.017 517.982C800.59 504.794 800.278 493.331 799.743 473.699L799.703 472.246Z" fill="#2B2D28"/>
<path d="M563.894 259.871C567.85 258.115 553.97 265.766 617.501 233.092L620.366 233.092C620.183 234.125 619.897 235.253 619.512 236.49C616.774 245.28 609.058 259.57 598.231 284.205C586.223 289.824 574.178 300.632 550.445 323.466C547.45 318.713 546.167 315.527 541.502 299.706L538.072 299.009L538.571 296.559C527.189 285.292 525.475 281.372 522.461 275.423C536.574 272.17 545.501 268.962 563.894 259.871Z" fill="#A8B877"/>
<path d="M462.066 247.318L481.504 266.069C474.48 272.295 465.935 275.506 458.668 280.503C457.636 281.212 456.631 281.957 455.659 282.752C445.99 291.481 442.756 294.727 437.292 300.209L437.291 300.21L436.674 300.83C433.078 299.619 431.116 298.543 427.962 295.996C422.721 284.908 420.15 279.028 416.579 269.188C406.33 248.767 401.423 240.528 393.86 230.379L385.059 193.382L386.122 188.156L399.202 186.565L399.634 186.951C420.621 205.731 432.505 216.7 453.353 238.912L462.066 247.318Z" fill="#A9B779"/>
<path d="M538.571 296.559L538.072 299.009L496.572 334.957L502.666 360.178L477.469 388.727L470.609 387.332L461.02 351.705L479.241 327.349L463.567 281.5L458.668 280.503C465.935 275.506 474.48 272.295 481.504 266.069C502.094 269.019 511.286 271.023 522.461 275.423C525.475 281.372 527.189 285.292 538.571 296.559Z" fill="black"/>
<path d="M550.445 323.466C574.178 300.632 586.223 289.824 598.231 284.205C532.678 368.813 502.063 393.115 466.563 424.777C459.239 408.844 455.469 400.829 442.234 368.803C432.7 344.398 426.816 327.842 416.38 298.475L416.286 298.212C407.131 273.887 402.332 258.407 393.86 230.379C401.423 240.528 406.33 248.767 416.579 269.188C420.15 279.028 422.721 284.908 427.962 295.996C431.116 298.543 433.078 299.619 436.674 300.83L437.291 300.21L437.292 300.209C442.756 294.727 445.99 291.481 455.659 282.752C456.631 281.957 457.636 281.212 458.668 280.503L463.567 281.5L479.241 327.349L461.02 351.705L470.609 387.332L477.469 388.727L502.666 360.178L496.572 334.957L538.072 299.009L541.502 299.706C546.167 315.527 547.45 318.713 550.445 323.466Z" fill="#74543F"/>
<path d="M457.192 470.833C477.371 474.941 470.71 504.708 451.112 500.721C431.513 496.734 437.013 466.726 457.192 470.833Z" fill="black"/>
<path d="M444.632 532.568C463.741 536.456 458.839 565.563 438.751 561.476C418.662 557.389 425.524 528.681 444.632 532.568Z" fill="black"/>
<path fill-rule="evenodd" clip-rule="evenodd" d="M466.563 424.777C502.063 393.115 532.678 368.813 598.231 284.205C609.058 259.57 616.774 245.28 619.512 236.49C648.253 259.016 663.65 271.737 689.489 294.608L672.567 400.357C663.568 417.034 658.347 423.666 657.077 428.841C655.807 434.015 642.459 450.282 637.933 465.255C623.204 510.224 618.914 527.226 610.799 558.495L609.775 558.513L606.585 574.192L603.594 588.891L602.099 596.241L466.003 623.147L435.162 579.115L386.629 606.999L271.067 532.973L272.021 528.287L273.633 527.883L274.431 523.963L276.823 512.204L278.8 494.237L278.961 492.878C283.145 457.444 285.551 437.076 290.575 386.931C289.359 360.609 289.334 345.791 291.094 319.174C294.221 291.857 295.551 276.859 296.811 250.944C298.439 234.958 300.118 224.158 299.501 216C323.274 206.514 338.295 196.886 369.38 190.192L386.122 188.156L385.059 193.382L393.86 230.379C402.332 258.407 407.131 273.887 416.286 298.212L416.38 298.475C426.816 327.842 432.7 344.398 442.234 368.803C455.469 400.829 459.239 408.844 466.563 424.777ZM457.192 470.833C477.371 474.941 470.71 504.708 451.112 500.721C431.513 496.734 437.013 466.726 457.192 470.833ZM444.632 532.568C463.741 536.456 458.839 565.563 438.751 561.476C418.662 557.389 425.524 528.681 444.632 532.568Z" fill="#252222"/>
<path d="M770.446 96.5825C773.844 114.671 773.954 124.315 771.287 140.722C766.109 141.944 764.081 141.369 761.506 138.643C754.966 127.455 754.218 126.069 751.42 121.164C754.061 118.812 755.368 114.638 757.754 108.197L770.446 96.5825Z" fill="#2A2722"/>
<path d="M692.06 82.988C681.598 98.1305 677.575 106.896 673.338 122.969C677.571 126.191 679.658 126.492 683.119 125.048C693.644 117.487 694.892 116.526 699.443 113.183C697.986 109.96 698.49 105.615 698.93 98.7612L692.06 82.988Z" fill="#2A2722"/>
<path d="M690.718 137.398C698.299 135.173 700.66 132.822 702.12 127.042C706.421 132.319 708.414 135.451 710.438 141.59L711.436 143.335C694.283 141.156 691.265 139.835 690.718 137.398Z" fill="#A4A971"/>
<path d="M757.874 138.893C757.618 146.52 759.617 149.569 766.035 153.407C763.071 155.657 762.289 157.408 745.848 152.183C746.397 151.2 746.921 150.295 747.437 149.454C750.209 144.943 752.776 142.255 757.874 138.893Z" fill="#A4A971"/>
<path fill-rule="evenodd" clip-rule="evenodd" d="M620.527 53.9817C625.803 55.6143 622.561 80.4838 615.225 78.9245C607.535 78.002 590.553 73.8026 584.029 71.7822C577.505 69.7619 581.425 46.1895 589.33 46.8395C597.235 47.4894 615.251 52.3491 620.527 53.9817ZM607.884 53.3391C610.927 63.76 603.726 72.9021 603.726 72.9021C603.726 72.9021 601.253 63.7404 607.884 53.3391Z" fill="#A4A971"/>
<path fill-rule="evenodd" clip-rule="evenodd" d="M537.874 36.4132C543.149 38.0458 539.908 62.9153 532.572 61.3559C524.882 60.4335 509.752 57.1389 503.227 55.1186C496.703 53.0982 500.624 29.5258 508.529 30.1758C516.434 30.8258 532.598 34.7806 537.874 36.4132ZM527.187 36.1864C530.23 46.6073 523.029 55.7493 523.029 55.7493C523.029 55.7493 520.556 46.5876 527.187 36.1864Z" fill="#A4A971"/>
<path d="M607.884 53.3391C610.927 63.76 603.726 72.9021 603.726 72.9021C603.726 72.9021 601.253 63.7404 607.884 53.3391Z" fill="#D22B2B"/>
<path d="M527.187 36.1864C530.23 46.6073 523.029 55.7493 523.029 55.7493C523.029 55.7493 520.556 46.5876 527.187 36.1864Z" fill="#D22B2B"/>
<path d="M766.035 153.407L781.685 156.734L779.814 165.537L775.902 164.705C775.852 164.679 775.801 164.668 775.749 164.673L583.207 123.747L571.157 122.719L572.716 115.383C580.176 117.987 584.102 119.223 587.878 118.606C598.825 122.573 600.869 122.728 601.572 121.516C611.954 124.893 619.255 128.532 625.047 126.506C639.013 131.459 644.721 132.971 647.545 131.288C658.422 134.756 662.37 134.978 664.797 131.888L690.718 137.398C691.265 139.835 694.283 141.156 711.436 143.335L710.438 141.59L747.437 149.454C746.921 150.295 746.397 151.2 745.848 152.183C762.289 157.408 763.071 155.657 766.035 153.407Z" fill="#2A2722"/>
<path fill-rule="evenodd" clip-rule="evenodd" d="M773.314 78.2789L783.096 80.358C784.003 96.0316 784.689 103.834 785.985 117.265C787.654 133.429 784.965 141.679 781.685 156.734L766.035 153.407C759.617 149.569 757.618 146.52 757.874 138.893C752.776 142.255 750.209 144.943 747.437 149.454L710.438 141.59C708.414 135.451 706.421 132.319 702.12 127.042C700.66 132.822 698.299 135.173 690.718 137.398L664.797 131.888C662.37 134.978 658.422 134.756 647.545 131.288L638.113 108.326L625.047 126.506L613.598 108.226L601.572 121.516L596.981 111.851L587.878 118.606L583.348 103.841L572.716 115.383L571.157 122.719L583.207 123.747L775.749 164.673C773.955 164.849 770.889 183.924 766.338 209.7C761.948 211.254 759.525 212.621 755.278 216.039L630.564 189.531L532.26 168.636C505.546 178.927 493.931 183.008 491.807 180.995C484.235 179.929 480.242 179.092 473.222 177.044L469.725 174.257C461.292 160.605 458.468 155.062 454.663 146.519L454.625 165.935C455.181 166.597 455.723 167.252 456.252 167.901L452.965 238.68C432.311 216.287 420.524 205.215 399.701 186.252L399.273 185.862C415.382 151.745 426.798 121.058 446.781 68.1678L481.463 70.9391C481.463 70.9391 485.082 63.5298 488.317 55.5274C491.551 47.525 494.285 32.2597 498.363 27.5037C502.441 22.7476 508.236 21.9348 508.236 21.9348L547.362 30.2513L549.623 46.067L570.164 50.4332L578.663 36.9045L630.994 48.0277C635.325 50.3356 636.132 53.2558 637.437 58.5983C636.565 76.3304 636.434 85.55 637.331 99.9806L666.675 106.218C673.06 88.1757 679.044 78.3782 691.15 60.8143L701.909 63.1013L712.204 79.6022L758.177 89.3741L773.314 78.2789ZM673.338 122.969C677.575 106.896 681.598 98.1305 692.06 82.988L698.93 98.7612C698.49 105.615 697.986 109.96 699.443 113.183C694.892 116.526 693.644 117.487 683.119 125.048C679.658 126.492 677.571 126.191 673.338 122.969ZM771.287 140.722C773.954 124.315 773.844 114.671 770.446 96.5825L757.754 108.197C755.368 114.638 754.061 118.812 751.42 121.164C754.218 126.069 754.966 127.455 761.506 138.643C764.081 141.369 766.109 141.944 771.287 140.722ZM615.225 78.9245C622.561 80.4838 625.803 55.6143 620.527 53.9817C615.251 52.3491 597.235 47.4894 589.33 46.8395C581.425 46.1895 577.505 69.7619 584.029 71.7822C590.553 73.8026 607.535 78.002 615.225 78.9245ZM532.572 61.3559C539.908 62.9153 543.149 38.0458 537.874 36.4132C532.598 34.7806 516.434 30.8258 508.529 30.1758C500.624 29.5258 496.703 53.0982 503.227 55.1186C509.752 57.1389 524.882 60.4335 532.572 61.3559Z" fill="#426640"/>
<path d="M638.113 108.326L647.545 131.288C644.721 132.971 639.013 131.459 625.047 126.506L638.113 108.326Z" fill="#A4A971"/>
<path d="M613.598 108.226L625.047 126.506C619.255 128.532 611.954 124.893 601.572 121.516L613.598 108.226Z" fill="#A4A971"/>
<path d="M596.981 111.851L601.572 121.516C600.869 122.728 598.825 122.573 587.878 118.606L596.981 111.851Z" fill="#A4A971"/>
<path d="M583.348 103.841L587.878 118.606C584.102 119.223 580.176 117.987 572.716 115.383L583.348 103.841Z" fill="#A4A971"/>
<path d="M425.389 77.4225C432.431 73.2847 437.289 71.3301 446.781 68.1678C426.798 121.058 415.382 151.745 399.273 185.862L386.179 187.339L369.42 189.229C370.862 182.135 371.052 177.791 369.177 168.731C377.547 165.016 383.523 162.949 396.749 159.256C391.996 150.237 389.542 145.056 387.14 134.722C395.278 129.723 400.56 126.683 414.878 119.66L407.768 107.414C414.061 103.51 418.326 101.286 427.308 97.2548C426.316 89.557 426.112 85.2596 425.389 77.4225Z" fill="#2D2727"/>
<path d="M630.564 189.531L601.988 225.373C596.069 227.64 590.497 227.958 583.134 227.499C584.27 238.986 559.346 262.324 563.318 260.602C544.847 269.533 535.893 272.663 521.752 275.792C510.615 271.296 501.441 269.211 480.877 266.082L461.604 247.161C469.657 237.028 474.613 227.307 482.323 211.183C472.626 192.136 466.978 181.065 456.252 167.901C455.723 167.252 455.181 166.597 454.625 165.935L454.663 146.519C458.468 155.062 461.292 160.605 469.725 174.257L473.222 177.044C480.242 179.092 484.235 179.929 491.807 180.995C493.931 183.008 505.546 178.927 532.26 168.636L630.564 189.531Z" fill="#2D2727"/>
<path d="M482.323 211.183C474.613 227.307 469.657 237.028 461.604 247.161L452.965 238.68L456.252 167.901C466.978 181.065 472.626 192.136 482.323 211.183Z" fill="#714133"/>
<path d="M563.318 260.602C559.346 262.324 584.27 238.986 583.134 227.499C590.497 227.958 596.069 227.64 601.988 225.373C608.821 228.557 612.103 230.465 617.577 233.798C553.763 265.916 567.29 258.881 563.318 260.602Z" fill="#714133"/>
<path d="M186.362 480.301C188.49 480.182 189.915 480.686 193.159 483.471C194.555 494.423 196.985 500.814 201.183 511.855L201.523 512.749C190.396 510.927 184.263 509.707 175.585 503.412C177.544 494.04 178.679 488.79 186.362 480.301Z" fill="black"/>
<path d="M336.164 207.556L340.242 209.458C338.938 217.535 334.632 228.37 329.318 243.534C322.043 268.438 317.248 282.711 307.83 308.544C277.608 316.786 260.619 318.969 230.203 316.48L229.416 312.252L190.898 294.291C190.415 292.864 189.954 292.518 197.869 271.06L202.731 268.914C208.059 260.661 209.815 252.771 213.238 252.298C240.806 241.553 256.254 235.179 283.699 219.503C297.462 215.726 306.87 214.974 336.164 207.556Z" fill="#AFBE7B"/>
<path d="M250.56 414.795C250.358 413.214 249.702 412.548 247.116 411.534C238.717 406.71 231.635 402.699 225.292 399.181C228.113 372.437 227.979 357.79 208.581 335.638L225.613 320.409L230.203 316.48C260.619 318.969 277.608 316.786 307.83 308.544C299.905 334.015 296.47 348.429 291.508 374.307C274.026 378.983 270.526 376.92 259.008 380.116L260.661 350.544C258.16 349.76 256.857 350.129 254.65 351.603C257.467 365.992 257.585 375.562 257.308 393.116C255.97 400.761 254.061 406.853 250.56 414.795Z" fill="#7A3A2E"/>
<path d="M254.65 351.603C256.857 350.129 258.16 349.76 260.661 350.544L259.008 380.116C258.499 385.115 257.975 389.308 257.308 393.116C257.585 375.562 257.467 365.992 254.65 351.603Z" fill="black"/>
<path d="M187.94 300.635C190.857 298.576 191.417 297.168 190.898 294.291L229.416 312.252L230.203 316.48L225.613 320.409L208.581 335.638C227.979 357.79 228.113 372.437 225.292 399.181C209.773 390.574 198.681 384.912 183.552 377.48C171.286 382.333 163.357 381.65 148.937 379.545C151.493 364.994 152.434 353.938 152.606 325.535C163.468 316.664 170.698 311.356 187.94 300.635Z" fill="#456746"/>
<path fill-rule="evenodd" clip-rule="evenodd" d="M134.012 471.889C133.471 465.77 135.338 449.853 148.937 379.545C163.357 381.65 171.286 382.333 183.552 377.48C198.681 384.912 209.773 390.574 225.292 399.181C231.635 402.699 238.717 406.71 247.116 411.534L237.276 436.185C236.336 432.758 231.35 429.36 215.161 420.907C208.652 423.377 202.456 425.26 165.626 433.669C164.252 435.881 166.182 440.182 195.906 477.58C207.684 476.098 214.191 474.318 225.415 468.721C233.138 482.125 235.022 484.495 238.258 488.502C243.274 482.981 246.813 480.036 254.445 475.086L255.008 475.9L275.87 506.041L243.82 503.785L242.13 507.41L240.467 507.426L229.383 507.534L214.077 536.809L144.745 504.478C138.253 493.252 135.679 487.653 131.265 477.78L134.012 471.889ZM193.159 483.471C189.915 480.686 188.49 480.182 186.362 480.301C178.679 488.79 177.544 494.04 175.585 503.412C184.263 509.707 190.396 510.927 201.523 512.749L201.183 511.855C196.985 500.814 194.555 494.423 193.159 483.471Z" fill="#343F31"/>
<path d="M237.276 436.185C246.634 453.488 244.192 457.529 254.445 475.086C246.813 480.036 243.274 482.981 238.258 488.502C235.022 484.495 233.138 482.125 225.415 468.721C214.191 474.318 207.684 476.098 195.906 477.58C166.182 440.182 164.252 435.881 165.626 433.669C202.456 425.26 208.652 423.377 215.161 420.907C231.35 429.36 236.336 432.758 237.276 436.185Z" fill="#456746"/>
</svg>
