<svg width="1295" height="871" viewBox="0 0 1295 871" fill="none" xmlns="http://www.w3.org/2000/svg">
<path d="M1081.4 325.608C1082.4 321.682 1083.49 317.547 1084.69 313.178C1099 299.779 1109.22 287.64 1122.96 271.123C957.538 290.037 907.632 320.032 865.141 394.637C890.618 388.323 901.567 385.835 916.916 382.718C956.061 322.725 1044.58 363.279 1026.86 423.109C1025.6 425.017 1024.7 426.524 1024.05 427.781C1025.24 431.598 1026.31 435.138 1027.26 438.481C1031.63 453.792 1033.7 464.954 1035.35 479.6C1035.65 482.285 1035.94 485.088 1036.22 488.054C1090.96 575.114 986.71 603.39 957.557 578.196L902.783 584.227C941.979 613.315 965.158 628.546 1032.59 632.298C1111.15 617.331 1154.33 607.03 1207.26 585.943C1172.21 568.623 1162.48 566.418 1132.31 551.454C1097.54 506.279 1094.58 495.711 1086.21 474.081L1086.25 472.203L1086.88 446.296C1085.81 439.247 1083.76 433.414 1079.91 425.375C1078.37 422.166 1076.54 418.605 1074.38 414.474C1070.87 387.758 1070.06 370.105 1081.4 325.608Z" fill="black"/>
<path d="M1138.17 252.928C987.825 270.811 903.505 283.271 850.878 403.759L865.141 394.637C907.632 320.032 957.538 290.037 1122.96 271.123C1127.55 265.615 1132.52 259.619 1138.17 252.928Z" fill="#E6EAEB"/>
<path d="M1087.09 317.888C1118.29 288.589 1125.54 275.74 1138.17 252.928C1132.52 259.619 1127.55 265.615 1122.96 271.123C1109.22 287.64 1099 299.779 1084.69 313.178C1083.49 317.547 1082.4 321.682 1081.4 325.608C1084.25 322.912 1085.42 321.191 1087.09 317.888Z" fill="#544E2E"/>
<path d="M865.141 394.637L850.878 403.759C856.263 404.161 860.086 404.006 867.425 403.485C885.821 396.456 897.402 393.266 917.422 387.752L918.577 387.434L916.916 382.718C901.567 385.835 890.618 388.323 865.141 394.637Z" fill="#544E2E"/>
<path d="M916.916 382.718L918.577 387.434C955.239 331.301 1029.78 359.697 1021.54 422.854L1022.55 438.657C1022.78 433.586 1021.74 432.301 1024.05 427.781C1024.7 426.524 1025.6 425.017 1026.86 423.109C1044.58 363.279 956.061 322.725 916.916 382.718Z" fill="#544E2E"/>
<path fill-rule="evenodd" clip-rule="evenodd" d="M902.783 584.227L889.068 587.877C893.862 591.541 898.214 595.041 902.367 598.381C929.43 620.144 948.074 635.138 1025.59 644.764C1082.85 638.314 1120.71 631.073 1221.61 597.174C1224.21 593.16 1221.73 590.728 1207.26 585.943C1154.33 607.03 1111.15 617.331 1032.59 632.298C965.158 628.546 941.979 613.315 902.783 584.227Z" fill="#E6EAEB"/>
<path d="M957.557 578.196C986.71 603.39 1090.96 575.114 1036.22 488.054C1035.94 485.088 1035.65 482.285 1035.35 479.6L1029.37 480.423L1030.33 491.054C1084.36 542.509 1006.41 610.037 957.068 572.141C909.115 577.626 894.618 581.112 889.068 587.877L902.783 584.227L957.557 578.196Z" fill="#544E2E"/>
<path d="M1079.91 425.375C1083.76 433.414 1085.81 439.247 1086.88 446.296L1086.25 472.203C1098.27 468.119 1104.69 466.859 1115.26 467.063C1122.45 443.176 1117.93 433.027 1104.24 417.055L1079.91 425.375Z" fill="#DBBF9F"/>
<path d="M1029.37 480.423L1035.35 479.6C1033.7 464.954 1031.63 453.792 1027.26 438.481L1022.55 438.657L813.384 486.643L799.842 493.543C796.527 504.502 796.709 515.021 804.81 525.126L822.391 524.697L1029.37 480.423Z" fill="#DBBF9F"/>
<path d="M804.81 525.126C796.709 515.021 796.527 504.502 799.842 493.543L798.042 490.01C784.477 492.833 777.425 493.858 765.425 495.134C765.383 497.435 764.134 497.967 759.104 499.467C759.257 499.89 759.408 500.308 759.556 500.72C764.134 513.475 766.367 521.29 768.557 534.328C768.651 534.888 768.745 535.458 768.839 536.038C782.536 532.257 789.771 530.725 801.3 529.881C805.094 529.451 806.131 528.568 804.81 525.126Z" fill="#1C120D"/>
<path d="M715.353 546.054C709.794 544.102 706.595 542.731 693.321 515.185C682.775 517.317 671.687 519.511 659.984 521.807C673.946 549.011 678.161 553.736 682.628 553.266L715.353 546.054Z" fill="#4F3128"/>
<path d="M682.628 553.266C678.161 553.736 673.946 549.011 659.984 521.807C647.453 524.266 642.283 525.205 628.255 527.944C640.184 556.45 643.138 560.191 648.678 560.749L682.628 553.266Z" fill="#160903"/>
<path d="M648.678 560.749C643.138 560.191 640.184 556.45 628.255 527.944C626.027 528.379 615.713 530.455 613.444 530.898C605.992 538.889 606.506 546.416 618.84 567.325L648.678 560.749Z" fill="#75594D"/>
<path d="M583.107 536.857C576.103 548.036 576.043 555.662 589.003 573.901L618.84 567.325C606.506 546.416 605.992 538.889 613.444 530.898C603.715 532.8 593.612 534.781 583.107 536.857Z" fill="#140900"/>
<path d="M747.358 539C741.47 536.686 737.659 533.323 726.176 508.345C715.814 510.583 704.894 512.846 693.321 515.185C706.595 542.731 709.794 544.102 715.353 546.054L747.358 539Z" fill="#170A04"/>
<path d="M768.557 534.328C766.367 521.29 764.134 513.475 759.556 500.72C749.059 503.279 737.979 505.796 726.176 508.345C737.659 533.323 741.47 536.686 747.358 539L768.557 534.328Z" fill="#75594D"/>
<path d="M589.003 573.901C576.043 555.662 576.103 548.036 583.107 536.857C574.609 540.366 569.586 540.552 563.732 534.492C554.833 532.853 550.678 533.823 545.302 539.804C536.589 538.226 534.896 541.727 531.171 547.004C531.094 565.887 533.914 573.867 540.339 586.83C542.44 592.748 545.991 592.592 555.126 588.196C561.867 588.917 565.598 588.873 571.634 582.751C575.933 575.628 579.562 573.47 589.003 573.901Z" fill="#BCB3AA"/>
<path d="M457 709.823L487 723.823L512.002 735.374L464.726 735.937L412.829 736.192L390.225 735.937L405.189 680.967L428.457 690.964L451.725 694.323L457 709.823Z" fill="#456746"/>
<path d="M372.586 677.034L368.466 679.866L369.221 712.241L367.214 741.547L353.198 720.002L307.955 647.436L334.762 622L372.586 677.034Z" fill="#456746"/>
<path fill-rule="evenodd" clip-rule="evenodd" d="M584 558L448 579L418.5 550L288 585.5L344 628L387 685C389.56 651.905 565.035 646.276 572.5 619L584 558Z" fill="black"/>
<path d="M237.279 511.699L263.284 503.249C266.565 513.338 270.159 522.814 274.345 532.037L268.39 568.286L283.57 590.902L246.327 620.885L157.999 644.269L94.7684 645.481L79.9822 627.087C99.5983 617.376 107.857 613.698 118.403 609.77C120.753 616.177 121.698 620.364 120.051 632.917C121.749 631.218 123.765 629.923 140.448 623.39C145.854 624.773 148.506 626.159 153.028 628.968C155.713 625.831 156.656 623.508 156.1 617.337C167.621 609.243 174.548 605.504 187.756 600.285C196.106 605.544 199.437 609.449 205.657 616.218L215.713 611.017C210.458 594.842 228.055 588.261 252.189 596.749L232.976 579.793L244.235 572.268L226.882 533.926L253.476 522.385L237.279 511.699Z" fill="#2D2727"/>
<path d="M59.5335 615.366C65.2199 619.565 70.275 622.232 79.9822 627.087L94.7684 645.481L157.999 644.269L246.327 620.885L283.57 590.902L268.39 568.286L274.345 532.037C282.868 550.815 293.846 568.54 309.637 588.232L324.23 583.491C320.307 599.946 315.8 617.023 286.614 633.41L148.213 677.413C139.223 675.803 131.215 674.544 123.706 673.293C125.52 669.284 125.757 666.711 123.261 660.872C119.136 661.673 115.91 661.751 105.336 659.93C101.661 664.817 100.824 666.908 102.086 669.202C88.3011 666.091 74.5684 661.677 57.19 653.342L51.8778 655.068L51.6505 636.293L33.9431 642.046L33.8527 641.98C23.7123 634.544 17.9947 630.352 9.51724 618.084C17.6054 617.252 25.3782 618.441 40.9407 621.407L59.5335 615.366Z" fill="#343F31"/>
<path d="M391.812 558L434.998 582L459.258 647L464.5 698L391.812 702.5C387.014 676.819 340.231 661.516 320.499 653.5C304.499 647 266.501 601.43 266.498 582C266.495 562.57 265.418 565.142 266.498 540.5L391.812 558Z" fill="#2C1D1D"/>
<path d="M585.335 336.971L629.624 265.748L688.784 320.392C688.05 332.517 690.444 334.74 696.199 336.306C695.154 342.15 694.863 347.041 695.259 359.979L648.102 365.974L644.627 366.416L589.606 345.632L585.335 336.971Z" fill="#AEBA78"/>
<path d="M648.102 365.974L695.259 359.979C695.736 368.081 693.748 372.848 691.457 376.492C696.691 381.387 699.777 389.564 705.222 401.889C706.553 419.978 708.055 428.316 711.243 442.017C709.967 450.548 708.72 454.506 707.289 459.93L698.168 453.199L680.105 453.273L664.16 443.125L630.613 444.052C640.964 423.027 647.579 412.236 661.515 395.675C656.997 383.149 657.138 375.505 648.102 365.974Z" fill="#456746"/>
<path d="M576.631 503.985C585.79 499.67 591.761 487.604 601.113 479.759L621.965 471.41L679.134 499.534C668.242 510.437 661.209 516.218 637.891 527.234L611.075 519.04L588.231 527.564L574.678 504.602L576.631 503.985Z" fill="#456746"/>
<path d="M585.335 336.971L589.606 345.632L644.627 366.416L648.102 365.974C657.138 375.505 656.997 383.149 661.515 395.675C647.579 412.236 640.964 423.027 630.613 444.052C616.995 445.102 609.447 447.095 600.388 451.715C598.636 452.609 596.826 453.602 594.906 454.705L594.91 454.658C596.086 441.6 596.747 434.264 600.348 425.118C607.45 416.068 611.402 409.166 618.305 389.417L612.328 389.94L600.348 425.118L571.317 397.626C571.404 381.984 576.617 374.316 576.365 368.994C576.114 363.672 581.443 355.517 585.335 336.971Z" fill="#7A3A2E"/>
<path d="M612.328 389.94L618.305 389.417C611.402 409.166 607.45 416.068 600.348 425.118L612.328 389.94Z" fill="black"/>
<path fill-rule="evenodd" clip-rule="evenodd" d="M707.289 459.93L698.168 453.199L680.105 453.273L664.16 443.125L630.613 444.052C616.995 445.102 609.447 447.095 600.388 451.715L601.113 479.759L621.965 471.41L679.134 499.534C668.242 510.437 661.209 516.218 637.891 527.234L611.075 519.04L588.231 527.564L574.678 504.602L568.817 506.453L567.84 506.762L538.938 526.355L570.542 537.644L571.195 545.115C576.146 546.302 578.47 546.533 581.83 546.192C584.123 559.318 586.341 566.776 590.316 580.082L669.513 573.153C674.991 569.444 680.887 563.13 690.134 553.225C690.809 552.503 691.501 551.761 692.213 551L646.875 561.08C618 567.5 616.622 535.214 646.875 527.234L698.557 514C698.989 510.395 699.097 507.345 698.671 504.852C702.51 492.138 704.193 480.794 707.076 461.367L707.289 459.93Z" fill="#2B2D28"/>
<path d="M513.127 242.991C516.897 240.864 503.814 249.81 563.921 211.197L566.773 210.923C566.69 211.968 566.513 213.119 566.248 214.387C564.366 223.399 558.055 238.363 549.639 263.922C538.225 270.666 527.271 282.579 505.835 307.583C502.399 303.139 500.816 300.09 494.657 284.789L491.176 284.423L491.437 281.937C479.028 271.813 476.946 268.076 473.376 262.442C487.112 257.852 495.69 253.804 513.127 242.991Z" fill="#A8B877"/>
<path d="M410.565 240.255L431.711 257.058C425.316 263.928 417.118 267.943 410.363 273.613C409.405 274.418 408.475 275.256 407.584 276.14C398.796 285.756 395.888 289.297 390.975 295.277L390.974 295.278L390.419 295.955C386.723 295.095 384.668 294.211 381.284 291.978C375.004 281.444 371.882 275.837 367.383 266.385C355.224 247.04 349.55 239.309 341.049 229.932L328.743 193.949L329.301 188.645L342.168 185.808L342.635 186.151C365.325 202.833 378.206 212.612 401.086 232.723L410.565 240.255Z" fill="#A9B779"/>
<path d="M491.437 281.937L491.176 284.423L453.312 324.183L461.796 348.704L439.45 379.538L432.489 378.806L419.529 344.262L435.332 318.272L415.336 274.136L410.363 273.613C417.118 267.943 425.316 263.928 431.711 257.058C452.488 258.021 461.831 259.134 473.376 262.442C476.946 268.076 479.028 271.813 491.437 281.937Z" fill="black"/>
<path d="M505.835 307.583C527.271 282.579 538.225 270.666 549.639 263.922C492.497 354.424 464.352 381.548 432.05 416.466C423.233 401.309 418.712 393.693 402.468 363.082C390.639 339.703 383.195 323.787 369.992 295.556L369.874 295.304C358.43 271.968 352.169 257.019 341.049 229.932C349.55 239.309 355.224 247.04 367.383 266.385C371.882 275.837 375.004 281.444 381.284 291.978C384.668 294.211 386.723 295.095 390.419 295.955L390.974 295.278L390.975 295.277C395.888 289.297 398.796 285.756 407.584 276.14C408.475 275.256 409.405 274.418 410.363 273.613L415.336 274.136L435.332 318.272L419.529 344.262L432.489 378.806L439.45 379.538L461.796 348.704L453.312 324.183L491.176 284.423L494.657 284.789C500.816 300.09 502.399 303.139 505.835 307.583Z" fill="#74543F"/>
<path d="M427.137 463.209C447.617 465.363 443.839 495.632 423.949 493.542C404.058 491.451 406.657 461.055 427.137 463.209Z" fill="black"/>
<path d="M420.552 525.864C439.945 527.902 437.856 557.345 417.468 555.202C397.08 553.059 401.158 523.826 420.552 525.864Z" fill="black"/>
<path fill-rule="evenodd" clip-rule="evenodd" d="M432.05 416.466C464.352 381.548 492.497 354.424 549.639 263.922C558.055 238.363 564.366 223.399 566.248 214.387C597.016 234.054 613.562 245.241 641.474 265.53L634.765 372.415C627.406 389.877 622.845 396.98 622.077 402.252C621.308 407.524 609.581 424.995 606.511 440.333C596.159 486.507 593.52 503.842 588.438 535.745L587.421 535.861L585.748 551.774L584.18 566.691L583.396 574.15L450.505 613.978L415.586 573.104L369.949 605.511L247.824 542.902L248.324 538.146L249.891 537.589L250.309 533.611L251.563 521.677L251.809 503.603L251.839 502.235C252.608 466.563 253.05 446.058 253.245 395.662C249.511 369.578 248.067 354.831 247.267 328.168C247.762 300.676 247.648 285.62 246.419 259.704C246.507 243.636 247.143 232.724 245.746 224.663C268.501 212.943 282.53 201.919 312.831 192.276L329.301 188.645L328.743 193.949L341.049 229.932C352.169 257.019 358.43 271.968 369.874 295.304L369.992 295.556C383.195 323.787 390.639 339.703 402.468 363.082C418.712 393.693 423.233 401.309 432.05 416.466ZM427.137 463.209C447.617 465.363 443.839 495.632 423.949 493.542C404.058 491.451 406.657 461.055 427.137 463.209ZM420.552 525.864C439.945 527.902 437.856 557.345 417.468 555.202C397.08 553.059 401.158 523.826 420.552 525.864Z" fill="#252222"/>
<path d="M704.771 61.1151C709.887 78.7945 710.921 88.3835 709.839 104.971C704.802 106.683 702.728 106.306 699.904 103.839C692.322 93.3288 691.444 92.0217 688.188 87.4069C690.593 84.8127 691.494 80.5328 693.251 73.8931L704.771 61.1151Z" fill="#2A2722"/>
<path d="M625.443 55.0962C616.481 71.1717 613.316 80.2822 610.639 96.6877C615.162 99.4891 617.268 99.5882 620.575 97.8197C630.327 89.2848 631.476 88.2087 635.686 84.4444C633.927 81.3759 634.012 77.003 633.794 70.1382L625.443 55.0962Z" fill="#2A2722"/>
<path d="M629.322 109.384C636.655 106.443 638.78 103.877 639.679 97.9835C644.466 102.824 646.75 105.75 649.353 111.667L650.514 113.309C633.231 112.783 630.1 111.758 629.322 109.384Z" fill="#A4A971"/>
<path d="M696.313 104.436C696.789 112.052 699.071 114.896 705.827 118.101C703.092 120.625 702.482 122.442 685.616 118.818C686.068 117.786 686.503 116.835 686.936 115.949C689.263 111.192 691.561 108.271 696.313 104.436Z" fill="#A4A971"/>
<path fill-rule="evenodd" clip-rule="evenodd" d="M551.46 33.0795C556.868 34.1989 556.025 59.2646 548.573 58.4156C540.83 58.2344 523.523 55.682 516.835 54.2963C510.148 52.9106 511.791 29.0709 519.722 28.9602C527.653 28.8495 546.052 31.9601 551.46 33.0795ZM538.814 33.6516C542.841 43.7329 536.549 53.523 536.549 53.523C536.549 53.523 533.21 44.6405 538.814 33.6516Z" fill="#A4A971"/>
<path fill-rule="evenodd" clip-rule="evenodd" d="M467.503 23.5138C472.911 24.6332 472.068 49.6989 464.616 48.8499C456.873 48.6687 441.497 46.8395 434.809 45.4538C428.121 44.0681 429.765 20.2284 437.696 20.1177C445.626 20.007 462.095 22.3944 467.503 23.5138ZM456.844 24.3123C460.871 34.3936 454.58 44.1838 454.58 44.1838C454.58 44.1838 451.24 35.3012 456.844 24.3123Z" fill="#A4A971"/>
<path d="M538.814 33.6516C542.841 43.7329 536.549 53.523 536.549 53.523C536.549 53.523 533.21 44.6405 538.814 33.6516Z" fill="#D22B2B"/>
<path d="M456.844 24.3123C460.871 34.3936 454.58 44.1838 454.58 44.1838C454.58 44.1838 451.24 35.3012 456.844 24.3123Z" fill="#D22B2B"/>
<path d="M705.827 118.101L721.724 119.912L720.706 128.854L716.731 128.402C716.679 128.38 716.628 128.374 716.577 128.384L520.998 106.1L508.905 106.232L509.754 98.7806C517.429 100.658 521.455 101.512 525.154 100.535C536.432 103.435 538.481 103.394 539.064 102.12C549.723 104.486 557.339 107.408 562.91 104.837C577.286 108.428 583.113 109.386 585.762 107.441C596.922 109.85 600.873 109.693 602.992 106.384L629.322 109.384C630.1 111.758 633.231 112.783 650.514 113.309L649.353 111.667L686.936 115.949C686.503 116.835 686.068 117.786 685.616 118.818C702.482 122.442 703.092 120.625 705.827 118.101Z" fill="#2A2722"/>
<path fill-rule="evenodd" clip-rule="evenodd" d="M705.872 42.6208L715.808 43.7528C718.213 59.2673 719.644 66.9685 722.222 80.2133C725.432 96.143 723.545 104.613 721.724 119.912L705.827 118.101C699.071 114.896 696.789 112.052 696.313 104.436C691.561 108.271 689.263 111.192 686.936 115.949L649.353 111.667C646.75 105.75 644.466 102.824 639.679 97.9835C638.78 103.877 636.655 106.443 629.322 109.384L602.992 106.384C600.873 109.693 596.922 109.85 585.762 107.441L574.173 85.4876L562.91 104.837L549.761 87.7386L539.064 102.12L533.568 92.9389L525.154 100.535L519.231 86.273L509.754 98.7806L508.905 106.232L520.998 106.1L716.577 128.384C714.807 128.731 713.584 148.012 711.524 174.106C707.303 176.073 705.022 177.666 701.123 181.476L574.442 167.042L474.588 155.665C448.983 168.47 437.813 173.645 435.505 171.845C427.867 171.51 423.811 171.06 416.628 169.694L412.88 167.254C403.177 154.474 399.835 149.228 395.228 141.088L397.052 160.419C397.668 161.024 398.27 161.624 398.86 162.22L402.371 232.987C379.666 212.677 366.872 202.786 344.328 185.907L343.864 185.559C356.629 150.055 365.052 118.416 379.873 63.8531L414.661 63.2876C414.661 63.2876 417.553 55.5654 420.006 47.2899C422.458 39.0143 423.716 23.5573 427.32 18.4323C430.923 13.3073 436.614 11.9427 436.614 11.9427L476.357 16.4709L480.124 31.9971L500.989 34.3743L508.151 20.0934L561.307 26.1497C565.84 28.0318 566.923 30.8613 568.734 36.0541C569.565 53.7882 570.319 62.9779 572.595 77.256L602.402 80.6521C607.028 62.081 612.046 51.755 622.412 33.1117L633.341 34.357L645.17 49.7952L691.868 55.1158L705.872 42.6208ZM610.639 96.6877C613.316 80.2822 616.481 71.1717 625.443 55.0962L633.794 70.1382C634.012 77.003 633.927 81.3759 635.686 84.4444C631.476 88.2087 630.327 89.2848 620.575 97.8197C617.268 99.5882 615.162 99.4891 610.639 96.6877ZM709.839 104.971C710.921 88.3835 709.887 78.7945 704.771 61.1151L693.251 73.8931C691.494 80.5328 690.593 84.8127 688.188 87.4069C691.444 92.0217 692.322 93.3288 699.904 103.839C702.728 106.306 704.802 106.683 709.839 104.971ZM548.573 58.4156C556.025 59.2646 556.868 34.1989 551.46 33.0795C546.052 31.9601 527.653 28.8495 519.722 28.9602C511.791 29.0709 510.148 52.9106 516.835 54.2963C523.523 55.682 540.83 58.2344 548.573 58.4156ZM464.616 48.8499C472.068 49.6989 472.911 24.6332 467.503 23.5138C462.095 22.3944 445.626 20.007 437.696 20.1177C429.765 20.2284 428.121 44.0681 434.809 45.4538C441.497 46.8395 456.873 48.6687 464.616 48.8499Z" fill="#426640"/>
<path d="M574.173 85.4876L585.762 107.441C583.113 109.386 577.286 108.428 562.91 104.837L574.173 85.4876Z" fill="#A4A971"/>
<path d="M549.761 87.7386L562.91 104.837C557.339 107.408 549.723 104.486 539.064 102.12L549.761 87.7386Z" fill="#A4A971"/>
<path d="M533.568 92.9389L539.064 102.12C538.481 103.394 536.432 103.435 525.154 100.535L533.568 92.9389Z" fill="#A4A971"/>
<path d="M519.231 86.273L525.154 100.535C521.455 101.512 517.429 100.658 509.754 98.7806L519.231 86.273Z" fill="#A4A971"/>
<path d="M359.467 75.1155C366.079 70.3218 370.728 67.9106 379.873 63.8531C365.052 118.416 356.629 150.055 343.864 185.559L330.973 188.284L314.472 191.772C315.227 184.572 315 180.23 312.265 171.391C320.24 166.891 325.991 164.261 338.802 159.317C333.207 150.795 330.267 145.873 326.886 135.817C334.507 130.061 339.473 126.529 353.052 118.166L344.802 106.658C350.691 102.169 354.724 99.5463 363.277 94.6726C361.552 87.1053 360.938 82.8472 359.467 75.1155Z" fill="#2D2727"/>
<path d="M574.442 167.042L549.433 205.458C543.758 208.282 538.243 209.133 530.869 209.382C533.101 220.707 510.529 246.326 514.318 244.232C496.787 254.892 488.174 258.865 474.398 263.336C462.882 259.927 453.55 258.732 432.782 257.588L411.784 240.602C418.828 229.743 422.83 219.592 428.959 202.803C417.481 184.774 410.797 174.295 398.86 162.22C398.27 161.624 397.668 161.024 397.052 160.419L395.228 141.088C399.835 149.228 403.177 154.474 412.88 167.254L416.628 169.694C423.811 171.06 427.867 171.51 435.505 171.845C437.813 173.645 448.983 168.47 474.588 155.665L574.442 167.042Z" fill="#2D2727"/>
<path d="M428.959 202.803C422.83 219.592 418.828 229.743 411.784 240.602L402.371 232.987L398.86 162.22C410.797 174.295 417.481 184.774 428.959 202.803Z" fill="#714133"/>
<path d="M514.318 244.232C510.529 246.326 533.101 220.707 530.869 209.382C538.243 209.133 543.758 208.282 549.433 205.458C556.54 207.973 559.989 209.557 565.757 212.35C505.316 250.437 518.106 242.138 514.318 244.232Z" fill="#714133"/>
<path d="M195.603 529.834C197.576 529.028 199.087 529.041 203.062 530.618C207.947 540.519 212.326 545.771 219.889 554.843L220.502 555.577C209.388 557.477 203.192 558.321 192.937 555.194C191.739 545.695 191.103 540.362 195.603 529.834Z" fill="black"/>
<path d="M248.446 223.178L252.922 223.648C254.318 231.709 253.774 243.356 253.686 259.424C254.916 285.34 255.029 300.396 254.535 327.888C228.643 345.521 213.29 353.115 183.72 360.665L181.6 356.923L139.333 352.48C138.412 351.289 137.863 351.112 138.361 328.246L142.26 324.634C144.61 315.096 143.702 307.065 146.784 305.502C169.352 286.367 181.883 275.311 202.73 251.554C214.513 243.503 223.163 239.728 248.446 223.178Z" fill="#AFBE7B"/>
<path d="M234.977 446.996C234.271 445.567 233.434 445.15 230.659 445.034C221.146 443.206 213.144 441.72 206.002 440.459C199.963 414.253 195.067 400.448 169.513 385.818L180.659 365.874L183.72 360.665C213.29 353.115 228.643 345.521 254.535 327.888C255.334 354.551 256.779 369.298 260.512 395.382C245.505 405.495 241.524 404.684 231.674 411.456L223.609 382.957C220.99 383.029 219.877 383.803 218.27 385.915C225.618 398.603 228.846 407.613 234.299 424.301C235.523 431.964 235.701 438.346 234.977 446.996Z" fill="#7A3A2E"/>
<path d="M218.27 385.915C219.877 383.803 220.99 383.029 223.609 382.957L231.674 411.456C232.821 416.348 233.69 420.483 234.299 424.301C228.846 407.613 225.618 398.603 218.27 385.915Z" fill="black"/>
<path d="M138.601 359.442C140.689 356.546 140.76 355.032 139.333 352.48L181.6 356.923L183.72 360.665L180.659 365.874L169.513 385.818C195.067 400.448 199.963 414.253 206.002 440.459C188.527 437.373 176.195 435.631 159.471 433.529C149.453 442.111 141.734 444.047 127.414 446.751C125.093 432.161 122.384 421.401 113.299 394.489C120.681 382.565 125.789 375.193 138.601 359.442Z" fill="#456746"/>
<path fill-rule="evenodd" clip-rule="evenodd" d="M143.366 538.923C140.862 533.314 137.446 517.656 127.414 446.751C141.734 444.047 149.453 442.111 159.471 433.529C176.195 435.631 188.527 437.373 206.002 440.459C213.144 441.72 221.146 443.206 230.659 445.034L229.38 471.545C227.376 468.611 221.556 467.021 203.496 464.3C198.146 468.753 192.901 472.551 160.815 492.493C160.236 495.031 163.461 498.47 203.741 524.153C214.395 518.917 219.968 515.117 228.758 506.17C240.424 516.329 242.977 517.957 247.342 520.692C250.287 513.839 252.674 509.902 258.278 502.737L259.077 503.323L288.614 525.03L257.577 533.331L257.158 537.309L255.592 537.866L245.147 541.577L240.205 574.239L164.124 566.243C154.332 557.741 150.075 553.286 142.687 545.388L143.366 538.923ZM203.062 530.618C199.087 529.041 197.576 529.028 195.603 529.834C191.103 540.362 191.739 545.695 192.937 555.194C203.192 558.321 209.388 557.477 220.502 555.577L219.889 554.843C212.326 545.771 207.947 540.519 203.062 530.618Z" fill="#343F31"/>
<path d="M229.38 471.545C243.862 484.859 242.869 489.475 258.278 502.737C252.674 509.902 250.287 513.839 247.342 520.692C242.977 517.957 240.424 516.329 228.758 506.17C219.968 515.117 214.395 518.917 203.741 524.153C163.461 498.47 160.236 495.031 160.815 492.493C192.901 472.551 198.146 468.753 203.496 464.3C221.556 467.021 227.376 468.611 229.38 471.545Z" fill="#456746"/>
</svg>
