<svg width="1764" height="1323" viewBox="0 0 1764 1323" fill="none" xmlns="http://www.w3.org/2000/svg">
<path d="M708.177 800.448C734.486 787.556 742.903 778.57 753.964 761.44L757.642 753.947L748.728 724.194L726.689 746.894L720.298 727.721L703.549 730.145L661.449 712.046C666.227 722.817 669.72 733.058 672.694 746.894C679.416 741.841 681.653 738.157 683.053 730.145C689.73 751.652 689.63 764.173 689.463 785.186C689.463 785.199 689.463 785.213 689.463 785.226C689.463 785.246 689.463 785.266 689.462 785.286C689.462 785.313 689.462 785.341 689.462 785.368C689.461 785.408 689.461 785.448 689.461 785.488C689.455 786.204 689.449 786.93 689.444 787.666C690.232 787.287 690.996 786.924 691.738 786.57C691.764 786.558 691.789 786.546 691.815 786.533C691.816 786.533 691.817 786.532 691.818 786.532C700.908 782.203 706.677 779.456 713.686 770.696C710.784 781.182 709.737 787.945 708.177 800.448Z" fill="#D2CFC9"/>
<path d="M749.281 466.782C754.678 459.95 759.747 455.102 760.409 449.812C759.882 441.438 757.682 436.992 751.152 439.674C744.622 442.357 742.778 452.981 749.281 466.782Z" fill="black"/>
<path d="M530.759 529.152C532.119 529.413 535.684 528.896 539.546 528.336C541.317 528.079 543.151 527.813 544.864 527.609L560.952 525.405L562.501 526.948H572.418C578.75 554.838 582.404 568.545 589.388 584.028L592.033 554.276C601.735 568.618 607.088 576.675 618.92 590.64C623.43 588.726 625.266 587.039 627.295 582.926C629.21 597.281 631.443 605.55 638.314 620.833C638.74 610.664 637.86 603.869 633.686 589.097C648.79 607.46 657.765 617.148 676.661 630.971C676.187 618.455 675.623 611.424 672.694 598.794C688.818 615.793 696.617 625.741 710.381 643.533L713.686 624.139L742.778 662.266C752.573 651.274 757.934 645.2 762.612 637.582C766.054 637.553 767.984 637.123 771.428 635.599C777.592 628.841 780.394 622.829 784.872 610.254C786.15 595.36 787.157 587.308 793.907 578.078C794.702 584.595 795.028 589.093 795.23 599.896C803.254 588.528 809.14 585.891 809.555 554.055L825.637 559.565C825.644 551.136 824.899 545.324 823.219 534.441L817.703 529.152C736.809 529.283 690.316 528.293 618.473 536.865L617.704 535.647L617.704 535.646C604.25 514.324 596.473 501.999 583.432 473.394C581.398 473.947 579.428 474.477 577.517 474.992C577.511 474.994 577.504 474.995 577.497 474.997C559.894 479.738 547.367 483.111 537.371 489.923C543.52 492.969 550.875 494.001 559.73 495.242C563.27 495.739 567.051 496.269 571.09 496.975C553.919 504.074 528.775 528.771 530.759 529.152Z" fill="#D2CFC9"/>
<path d="M835.334 567.058C836.953 554.13 834.992 547.912 831.367 536.865L823.219 534.441C824.899 545.324 825.644 551.136 825.637 559.565L809.555 554.055C809.14 585.891 803.254 588.528 795.23 599.896C795.028 589.093 794.702 584.595 793.907 578.078C787.157 587.308 786.15 595.36 784.872 610.254C780.394 622.829 777.592 628.841 771.428 635.599C767.984 637.123 766.054 637.553 762.612 637.582C757.934 645.2 752.573 651.274 742.778 662.266L713.686 624.139L710.381 643.533C696.617 625.741 688.818 615.793 672.694 598.794C675.623 611.424 676.187 618.455 676.661 630.971C657.765 617.148 648.79 607.46 633.686 589.097C637.86 603.869 638.74 610.664 638.314 620.833C631.443 605.55 629.21 597.281 627.295 582.926C625.266 587.039 623.43 588.726 618.92 590.64C607.088 576.675 601.735 568.618 592.033 554.276L589.388 584.028C582.404 568.545 578.75 554.838 572.418 526.948H562.501L560.952 525.405L544.864 527.609C543.404 530.92 542.917 537.111 542.102 547.455C542.094 547.566 542.085 547.677 542.076 547.788C542.051 548.11 542.025 548.436 541.999 548.766C549.883 546.513 554.052 544.91 560.952 541.273L568.225 586.232L571.148 588.635C571.149 588.636 571.149 588.636 571.15 588.637C605.744 617.079 626.023 633.751 659.686 662.706C659.69 662.632 659.694 662.558 659.698 662.484C659.704 662.382 659.709 662.281 659.715 662.181C659.725 661.99 659.735 661.801 659.745 661.614C659.759 661.358 659.773 661.106 659.786 660.857C659.789 660.8 659.792 660.744 659.795 660.688C659.795 660.68 659.796 660.673 659.796 660.666C660.103 654.93 660.305 651.155 661.449 645.737C691.189 662.078 707.924 670.861 738.143 683.864C766.811 650.375 783.214 632.263 813.736 602.541C813.799 600.69 813.836 598.946 813.87 597.286C813.871 597.283 813.871 597.28 813.871 597.277C814.077 587.433 814.221 580.541 819.466 571.907C821.383 572.631 822.695 574.177 825.637 579.841C828.201 571.427 829.434 568.772 831.367 567.058H835.334Z" fill="#C5B5A5"/>
<path d="M683.053 430.038C656.378 440.952 645.312 440.889 637.212 431.961C633.839 428.823 630.252 425.929 627.295 422.998C627.307 423.038 627.319 423.079 627.331 423.119C632.773 441.431 628.045 443.594 619.361 447.168C622.16 448.024 624.809 448.727 627.331 449.28C650.018 454.257 662.477 447.098 682.922 430.146C682.965 430.11 683.009 430.074 683.053 430.038Z" fill="#A4395B"/>
<path d="M613.851 372.897C608.758 382.242 606.558 387.504 603.493 396.919L613.851 396.32L630.16 395.377C639.399 397.967 652.024 399.534 664.565 401.091L664.566 401.091C673.767 402.233 681.264 403.37 689.003 404.901C692.816 405.655 696.621 406.284 699.582 407.278C696.009 406.387 692.271 405.748 689.003 404.901C661.305 397.716 644.894 391.332 613.851 372.897Z" fill="#FEBD87"/>
<path d="M850.767 464.404C846.421 467.001 841.147 468.56 832.696 470.308C828.856 480.552 832.71 485.366 838.245 492.279C838.246 492.281 838.247 492.282 838.249 492.283C838.253 492.289 838.258 492.295 838.263 492.301C838.788 492.956 839.327 493.631 839.877 494.331C844.486 493.778 847.018 491.669 850.767 464.404Z" fill="black"/>
<path d="M782.007 433.944C793.86 433.739 796.993 432.181 801.621 414.55C797.874 411.245 793.651 406.476 786.414 406.396C777.972 408.67 775.145 410.74 772.53 415.432C770.045 429.112 776.113 430.461 782.007 433.944Z" fill="#AC3131"/>
<path fill-rule="evenodd" clip-rule="evenodd" d="M689.003 404.901C692.816 405.655 696.621 406.284 699.582 407.278C696.009 406.387 692.271 405.748 689.003 404.901ZM693.755 424.917C696.285 415.305 696.539 409.28 679.796 406.112C675.801 405.057 672.281 404.702 669.389 404.901C665.515 405.166 661.394 412.217 660.132 414.11C658.292 416.87 668.547 430.624 682.922 430.146C684.879 430.081 686.913 429.752 689.003 429.096L691.802 426.635L693.755 424.917Z" fill="#AC3131"/>
<path d="M630.16 395.377L613.851 396.32C615.637 406.191 616.806 412.601 627.331 423.119C627.319 423.079 627.307 423.038 627.295 422.998C630.252 425.929 633.839 428.823 637.212 431.961C645.312 440.889 656.378 440.952 683.053 430.038L689.003 429.096C686.913 429.752 684.879 430.081 682.922 430.146C668.547 430.624 658.292 416.87 660.132 414.11C661.394 412.217 665.515 405.166 669.389 404.901C672.281 404.702 675.801 405.057 679.796 406.112C696.539 409.28 696.285 415.305 693.755 424.917L719.857 412.346L699.582 407.278C696.009 406.387 692.271 405.748 689.003 404.901C681.264 403.37 673.767 402.233 664.566 401.091L664.565 401.091C652.024 399.534 639.399 397.967 630.16 395.377Z" fill="black"/>
<path d="M716.986 442.099C712.995 451.291 721.315 456.917 732.365 466.782C734.13 455.147 735.589 448.513 725.587 439.674C722.158 437.371 720.289 438.635 716.986 442.099Z" fill="black"/>
<path d="M730.436 473.394H739.692H747.626H755.56C747.31 467.506 744.479 459.388 741.896 438.352H735.946C735.524 450.749 734.662 458.1 732.365 466.782C731.81 468.878 731.172 471.052 730.436 473.394Z" fill="#B74A5F"/>
<path d="M618.473 536.865C673.205 517.615 717.661 515.663 817.483 525.405C801.945 516.662 792.262 511.922 747.626 507.995C745.756 493.851 744.386 485.816 747.626 473.394H739.692C741.501 488.524 740.701 496.161 739.692 509.978H677.102L649.113 477.581L622.446 485.074L560.952 396.919L596.661 352.406L581.234 343.437C565.647 359.86 553.139 374.905 534.506 398.903C572.19 458.38 576.154 463.675 582.991 472.805L583.432 473.394C596.473 501.999 604.25 514.324 617.704 535.646L617.704 535.647L618.473 536.865Z" fill="#B74A5F"/>
<path d="M817.483 525.405C717.661 515.663 673.205 517.615 618.473 536.865C690.316 528.293 736.809 529.283 817.703 529.152L817.483 525.405Z" fill="black"/>
<path d="M716.986 362.319C686.247 351.346 671.296 347.355 657.157 343.581C642.529 339.677 628.771 336.004 599.299 325.073C592.624 331.669 586.737 337.639 581.234 343.437L596.661 352.406L637.212 375.983C668.579 389.092 687.139 386.252 728.452 398.903C750.478 386.865 764.49 379.982 796.111 367.167C806.51 391.053 812.79 401.203 823.737 421.162C826.742 410.822 829.589 398.647 832.248 383.035L785.747 342.043C755.102 349.732 739.223 354.124 716.986 362.319Z" fill="#FEBD87"/>
<path d="M872.954 396.258L854.882 413.008L841.07 431.079C840.72 442.355 839.632 447.024 837.846 454.684C837.748 455.108 837.647 455.54 837.544 455.983C852.261 456.274 855.462 457.257 856.718 459.73C854.781 461.628 852.884 463.139 850.767 464.404C847.018 491.669 844.486 493.778 839.877 494.331C840.27 494.831 840.669 495.344 841.07 495.873C835.381 495.954 832.508 495.019 827.847 491.906C824.986 503.642 823.148 509.021 819.693 517.692V526.066L879.412 477.581C879.763 460.917 878.252 417.078 872.954 396.258Z" fill="#B74A5F"/>
<path fill-rule="evenodd" clip-rule="evenodd" d="M817.483 517.692L801.394 481.328C785.908 454.073 778.828 443.121 768.122 428.638C759.328 425.203 747.927 420.388 729.114 413.008L719.857 412.346L693.755 424.917L691.802 426.635C690.719 427.717 689.544 428.926 689.003 429.096C686.913 429.752 684.879 430.081 682.922 430.146C662.477 447.098 650.018 454.257 627.331 449.28L649.113 477.581L677.102 509.978H739.692C740.701 496.161 741.501 488.524 739.692 473.394H730.436C731.172 471.052 731.81 468.878 732.365 466.782C721.315 456.917 712.995 451.291 716.986 442.099C720.289 438.635 722.158 437.371 725.587 439.674C735.589 448.513 734.13 455.147 732.365 466.782C734.662 458.1 735.524 450.749 735.946 438.352H741.896C744.479 459.388 747.31 467.506 755.56 473.394H747.626C744.386 485.816 745.756 493.851 747.626 507.995C792.262 511.922 801.945 516.662 817.483 525.405V517.692ZM760.409 449.812C759.747 455.102 754.678 459.95 749.281 466.782C742.778 452.981 744.622 442.357 751.152 439.674C757.682 436.992 759.882 441.438 760.409 449.812Z" fill="#FEBD87"/>
<path d="M798.536 385.459C773.329 396.646 756.878 402.397 729.114 413.008C752.428 406.777 765.498 403.354 788.839 401.207H804.486C802.71 393.665 801.307 390.485 798.536 385.459Z" fill="#FEBD87"/>
<path d="M782.007 433.944C776.113 430.461 770.045 429.112 772.53 415.432C775.145 410.74 777.972 408.67 786.414 406.396C793.651 406.476 797.874 411.245 801.621 414.55C800.15 408.98 797.717 403.24 788.839 401.207C765.498 403.354 752.428 406.777 729.114 413.008C747.927 420.388 759.328 425.203 768.122 428.638C772.72 430.434 778.148 432.734 782.007 433.944Z" fill="black"/>
<path d="M448.555 440.556L432.472 437.691L441.729 445.845C448.892 461.458 453.471 469.701 463.101 483.311L448.555 487.939L450.544 494.771C459.384 491.483 464.293 489.797 472.039 489.923L470.936 468.766L448.555 440.556Z" fill="black"/>
<path d="M448.555 392.071L408.886 368.049C380.78 400.596 372.569 417.057 382.66 440.556L405.144 486.176C413.407 493.193 418.016 497.138 426.081 504.248L473.464 517.251L472.039 489.923C464.293 489.797 459.384 491.483 450.544 494.771L448.555 487.939L428.726 468.766L415.943 437.691L409.106 427.553L448.555 392.071Z" fill="#D15F6F"/>
<path d="M467.293 398.903C459.541 399.409 455.335 398.632 448.555 392.071L409.106 427.553L415.943 437.691L428.726 468.766L448.555 487.939L463.101 483.311C453.471 469.701 448.892 461.458 441.729 445.845L432.472 437.691L448.555 440.556L470.936 468.766L467.293 398.903Z" fill="#B74A5F"/>
<path d="M476.324 897.419C396.108 890.587 279.875 917.559 309.712 778.63C339.548 639.702 150.156 621.714 139.132 629.208C128.108 636.701 124.811 651.026 139.132 659.621C153.453 668.216 304.868 652.789 281.282 778.63C258.046 902.598 338.049 936.152 458.483 918.796L476.324 897.419Z" fill="#211F27"/>
<path d="M576.385 924.967L589.383 897.419L542.775 893.06L516.66 890.587L509.608 916.593L576.385 924.967Z" fill="#6B304C"/>
<path d="M733.301 886.139L589.383 897.419L576.385 924.967L733.301 914.609V886.139Z" fill="#6B304C"/>
<path d="M738.143 816.096L588.434 818.994L597.542 883.755L763.714 872.735L753.964 851.138L738.143 816.096Z" fill="#6B304C"/>
<path d="M763.714 872.735L597.542 883.755L589.383 897.419L733.301 886.139L763.714 883.755V872.735Z" fill="black"/>
<path d="M522.831 641.108V734.773L548.764 780.915L552.511 774.744L526.137 734.773L522.831 641.108Z" fill="black"/>
<path d="M728.452 398.903C687.139 386.252 668.579 389.092 637.212 375.983L596.661 352.406L560.952 396.919L622.446 485.074L649.113 477.581L627.331 449.28C624.809 448.727 622.16 448.024 619.361 447.168C628.045 443.594 632.773 441.431 627.331 423.119C616.806 412.601 615.637 406.191 613.851 396.32L603.493 396.919C606.558 387.504 608.758 382.242 613.851 372.897C644.894 391.332 661.305 397.716 689.003 404.901C692.816 405.655 696.621 406.284 699.582 407.278L719.857 412.346L729.114 413.008C756.878 402.397 773.329 396.646 798.536 385.459C801.307 390.485 802.71 393.665 804.486 401.207H788.839C797.717 403.24 800.15 408.98 801.621 414.55C796.993 432.181 793.86 433.739 782.007 433.944C778.148 432.734 772.72 430.434 768.122 428.638C778.828 443.121 785.908 454.073 801.394 481.328C804.683 471.923 807.895 464.026 811.008 456.374L811.008 456.372L811.009 456.371C815.482 445.374 819.748 434.885 823.737 421.162C812.79 401.203 806.51 391.053 796.111 367.167C764.49 379.982 750.478 386.865 728.452 398.903Z" fill="#6C5C5C"/>
<path d="M597.542 883.755L588.434 818.994L508.874 816.929L515.239 877.143L597.542 883.755Z" fill="#6B304C"/>
<path d="M589.383 897.419L597.542 883.755L515.239 877.143L516.66 890.587L542.775 893.06L589.383 897.419Z" fill="black"/>
<path d="M486.682 883.755L476.324 897.419L458.483 918.796C527.185 949.159 577.738 963.53 642.429 954.303C674.74 949.694 710.577 939.199 753.964 921.87L772.524 905.794L774.734 848.052L753.964 851.138L763.714 872.735V883.755L733.301 886.139V914.609L576.385 924.967L509.608 916.593L516.66 890.587L515.239 877.143L508.874 816.929L476.765 816.096L471.367 843.625L470.153 849.815C471.83 854.815 473.319 858.984 475.019 862.97C475.558 864.205 476.122 865.459 476.703 866.71C479.155 871.865 482.183 877.061 486.682 883.755Z" fill="#3F2F3D"/>
<path d="M458.483 918.796C476.765 995.05 475.019 1038.76 459.469 1102.19L558.241 1107.67C599.356 1071.03 619.88 1044.1 630.789 1014.22C637.355 996.239 640.438 977.186 642.429 954.303C577.738 963.53 527.185 949.159 458.483 918.796Z" fill="#211F27"/>
<path fill-rule="evenodd" clip-rule="evenodd" d="M522.831 734.773V641.108L526.137 734.773L552.511 774.744L548.764 780.915L522.831 734.773ZM757.642 753.947L748.728 724.194L726.689 746.894L720.298 727.721L703.549 730.145L661.449 712.046C666.227 722.817 669.72 733.058 672.694 746.894C679.416 741.841 681.653 738.157 683.053 730.145C689.73 751.652 689.63 764.173 689.463 785.186L689.463 785.226L689.462 785.286L689.462 785.368L689.461 785.488C689.455 786.204 689.449 786.93 689.444 787.666C690.232 787.287 690.996 786.924 691.738 786.57L691.815 786.533L691.818 786.532C700.908 782.203 706.677 779.456 713.686 770.696C710.784 781.182 709.737 787.945 708.177 800.448C734.486 787.556 742.903 778.57 753.964 761.44L757.642 753.947Z" fill="#C5B5A5"/>
<path d="M691.868 699.291L648.893 686.508C653.928 696.311 658.019 704.315 661.449 712.046L703.549 730.145L720.298 727.721L726.689 746.894L748.728 724.194L757.642 753.947L774.734 719.126C768.474 719.861 764.948 719.716 758.645 716.922C767.487 702.116 774.854 693.039 790.161 676.15C768.316 685.197 757.434 691.66 742.778 708.106L703.549 683.864L691.868 699.291Z" fill="#D2CFC9"/>
<path fill-rule="evenodd" clip-rule="evenodd" d="M835.334 567.058H831.367C829.434 568.772 828.201 571.427 825.637 579.841C822.695 574.177 821.383 572.631 819.466 571.907C814.221 580.541 814.077 587.433 813.871 597.277L813.87 597.286C813.836 598.946 813.799 600.69 813.736 602.541C783.214 632.263 766.811 650.375 738.143 683.864C707.924 670.861 691.189 662.078 661.449 645.737C660.305 651.155 660.103 654.93 659.796 660.666L659.795 660.688L659.786 660.857L659.745 661.614L659.715 662.181L659.698 662.484L659.686 662.706C626.023 633.751 605.744 617.079 571.15 588.637L571.148 588.635L568.225 586.232L560.952 541.273C554.052 544.91 549.883 546.513 541.999 548.766L542.076 547.788L542.102 547.455C542.917 537.111 543.404 530.92 544.864 527.609C543.151 527.813 541.317 528.079 539.546 528.336C535.684 528.896 532.119 529.413 530.759 529.152C528.775 528.771 553.919 504.074 571.09 496.975C567.051 496.269 563.27 495.739 559.73 495.242C550.875 494.001 543.52 492.969 537.371 489.923C547.367 483.111 559.894 479.738 577.497 474.997L577.517 474.992C579.428 474.477 581.398 473.947 583.432 473.394L582.991 472.805C576.154 463.675 572.19 458.38 534.506 398.903C553.139 374.905 565.647 359.86 581.234 343.437C586.737 337.639 592.624 331.669 599.299 325.073C628.771 336.004 642.529 339.677 657.157 343.581C671.296 347.355 686.247 351.346 716.986 362.319C739.223 354.124 755.102 349.732 785.747 342.043L832.248 383.035C829.589 398.647 826.742 410.822 823.737 421.162C819.748 434.885 815.482 445.374 811.009 456.371L811.008 456.372L811.008 456.374C807.895 464.026 804.683 471.923 801.394 481.328L817.483 517.692V525.405L817.703 529.152L823.219 534.441L831.367 536.865C832.903 535.26 834.398 533.702 835.855 532.184L835.855 532.183L835.856 532.183L835.857 532.182C856.252 510.921 868.979 497.653 879.412 477.581L819.693 526.066V517.692C823.148 509.021 824.986 503.642 827.847 491.906C832.508 495.019 835.381 495.954 841.07 495.873C840.669 495.344 840.27 494.831 839.877 494.331C839.327 493.631 838.788 492.956 838.263 492.301L838.249 492.283L838.245 492.279C832.71 485.366 828.856 480.552 832.696 470.308C841.147 468.56 846.421 467.001 850.767 464.404C852.884 463.139 854.781 461.628 856.718 459.73C855.462 457.257 852.261 456.274 837.544 455.983C837.647 455.54 837.748 455.108 837.846 454.684C839.632 447.024 840.72 442.355 841.07 431.079L854.882 413.008C853.635 409.617 852.629 407.008 851.817 404.901C850.295 400.952 849.452 398.766 848.968 396.503C848.367 393.696 848.317 390.77 848.206 384.216C848.181 382.764 848.154 381.134 848.116 379.288L845.731 376.916C766.245 297.863 715.864 247.756 596.875 209.811C525.248 262.42 494.722 304.958 448.555 392.071C455.335 398.632 459.541 399.409 467.293 398.903L470.936 468.766L472.039 489.923L473.464 517.251L426.081 504.248C418.016 497.138 413.407 493.193 405.144 486.176L382.66 440.556C380.761 443.15 380.429 445.4 382.66 452.457C391.27 469.053 397.331 482.002 409.106 507.995L475.443 533.78L476.765 555.598C468.816 558.472 465.05 561.251 463.101 574.331C459.908 598.948 463.646 641.51 467.666 687.286C472.622 743.712 478.007 805.022 471.367 843.625L476.765 816.096L508.874 816.929L588.434 818.994L738.143 816.096L753.964 851.138L774.734 848.052L772.524 905.794L753.964 921.87C710.577 939.199 674.74 949.694 642.429 954.303C640.438 977.186 637.355 996.239 630.789 1014.22L650.589 1034.46L677.36 1061.83L699.73 1092.68L701.493 1111.19L786.783 1107.67C826.975 1015.56 811.68 972.183 780.684 901.165V849.815L774.734 781.275L804.706 695.764L831.367 586.452L835.334 567.058ZM522.831 641.108L509.608 669.318L506.671 647.5L501.161 699.291L495.431 656.536L486.682 727.721L515.239 785.186L522.831 764.966L548.764 780.915L552.511 774.744L526.137 734.773L522.831 641.108ZM648.893 686.508L691.868 699.291L703.549 683.864L742.778 708.106C757.434 691.66 768.316 685.197 790.161 676.15C774.854 693.039 767.487 702.116 758.645 716.922C764.948 719.716 768.474 719.861 774.734 719.126L757.642 753.947L753.964 761.44C742.903 778.57 734.486 787.556 708.177 800.448C709.737 787.945 710.784 781.182 713.686 770.696C706.677 779.456 700.908 782.203 691.818 786.532L691.815 786.533L691.738 786.57C690.996 786.924 690.232 787.287 689.444 787.666C689.449 786.93 689.455 786.204 689.461 785.488L689.462 785.368L689.462 785.286L689.463 785.226L689.463 785.186C689.63 764.173 689.73 751.652 683.053 730.145C681.653 738.157 679.416 741.841 672.694 746.894C669.72 733.058 666.227 722.817 661.449 712.046C658.019 704.315 653.928 696.311 648.893 686.508Z" fill="#211F27"/>
<path d="M522.831 734.773V641.108L509.608 669.318L506.671 647.5L501.161 699.291L495.431 656.536L486.682 727.721L515.239 785.186L522.831 764.966L548.764 780.915L522.831 734.773Z" fill="#C5B5A5"/>
<path d="M848.116 379.288L845.731 376.916M848.116 379.288C847.318 378.495 846.523 377.704 845.731 376.916M848.116 379.288C848.154 381.134 848.181 382.764 848.206 384.216C848.317 390.77 848.367 393.696 848.968 396.503C849.452 398.766 850.295 400.952 851.817 404.901C852.629 407.008 853.635 409.617 854.882 413.008M854.882 413.008L872.954 396.258C878.252 417.078 879.763 460.917 879.412 477.581M854.882 413.008L841.07 431.079C840.72 442.355 839.632 447.024 837.846 454.684C837.748 455.108 837.647 455.54 837.544 455.983C852.261 456.274 855.462 457.257 856.718 459.73C854.781 461.628 852.884 463.139 850.767 464.404M879.412 477.581L819.693 526.066V517.692C823.148 509.021 824.986 503.642 827.847 491.906C832.508 495.019 835.381 495.954 841.07 495.873C840.669 495.344 840.27 494.831 839.877 494.331M879.412 477.581C868.979 497.653 856.252 510.921 835.857 532.182L835.856 532.183L835.855 532.183L835.855 532.184C834.398 533.702 832.903 535.26 831.367 536.865M831.367 536.865C834.992 547.912 836.953 554.13 835.334 567.058M831.367 536.865L823.219 534.441M835.334 567.058H831.367C829.434 568.772 828.201 571.427 825.637 579.841C822.695 574.177 821.383 572.631 819.466 571.907C814.221 580.541 814.077 587.433 813.871 597.277M835.334 567.058L831.367 586.452L804.706 695.764L774.734 781.275L780.684 849.815V901.165C811.68 972.183 826.975 1015.56 786.783 1107.67L701.493 1111.19L699.73 1092.68L677.36 1061.83L650.589 1034.46L630.789 1014.22M659.686 662.706C626.023 633.751 605.744 617.079 571.15 588.637M659.686 662.706L659.698 662.484M659.686 662.706C659.69 662.632 659.694 662.558 659.698 662.484M568.225 586.232L560.952 541.273C554.052 544.91 549.883 546.513 541.999 548.766M568.225 586.232L571.148 588.635M568.225 586.232C569.211 587.042 570.185 587.843 571.148 588.635M541.999 548.766L542.076 547.788M541.999 548.766C542.025 548.436 542.051 548.11 542.076 547.788M544.864 527.609L560.952 525.405L562.501 526.948H572.418C578.75 554.838 582.404 568.545 589.388 584.028L592.033 554.276C601.735 568.618 607.088 576.675 618.92 590.64C623.43 588.726 625.266 587.039 627.295 582.926C629.21 597.281 631.443 605.55 638.314 620.833C638.74 610.664 637.86 603.869 633.686 589.097C648.79 607.46 657.765 617.148 676.661 630.971C676.187 618.455 675.623 611.424 672.694 598.794C688.818 615.793 696.617 625.741 710.381 643.533L713.686 624.139L742.778 662.266C752.573 651.274 757.934 645.2 762.612 637.582C766.054 637.553 767.984 637.123 771.428 635.599C777.592 628.841 780.394 622.829 784.872 610.254C786.15 595.36 787.157 587.308 793.907 578.078C794.702 584.595 795.028 589.093 795.23 599.896C803.254 588.528 809.14 585.891 809.555 554.055L825.637 559.565C825.644 551.136 824.899 545.324 823.219 534.441M544.864 527.609C543.151 527.813 541.317 528.079 539.546 528.336C535.684 528.896 532.119 529.413 530.759 529.152C528.775 528.771 553.919 504.074 571.09 496.975C567.051 496.269 563.27 495.739 559.73 495.242C550.875 494.001 543.52 492.969 537.371 489.923C547.367 483.111 559.894 479.738 577.497 474.997M544.864 527.609C543.404 530.92 542.917 537.111 542.102 547.455M583.432 473.394L582.991 472.805M583.432 473.394C583.283 473.195 583.136 472.999 582.991 472.805M583.432 473.394C596.473 501.999 604.25 514.324 617.704 535.646L617.704 535.647M583.432 473.394C581.398 473.947 579.428 474.477 577.517 474.992M801.394 481.328L817.483 517.692V525.405M801.394 481.328C785.908 454.073 778.828 443.121 768.122 428.638M801.394 481.328C804.683 471.923 807.895 464.026 811.008 456.374L811.008 456.372L811.009 456.371C815.482 445.374 819.748 434.885 823.737 421.162M817.483 525.405C717.661 515.663 673.205 517.615 618.473 536.865M817.483 525.405L817.703 529.152M817.483 525.405C801.945 516.662 792.262 511.922 747.626 507.995C745.756 493.851 744.386 485.816 747.626 473.394M618.473 536.865C690.316 528.293 736.809 529.283 817.703 529.152M618.473 536.865L617.704 535.647M618.473 536.865C618.215 536.456 617.959 536.05 617.704 535.647M817.703 529.152L823.219 534.441M448.555 392.071C494.722 304.958 525.248 262.42 596.875 209.811C715.864 247.756 766.245 297.863 845.731 376.916M448.555 392.071L408.886 368.049C380.78 400.596 372.569 417.057 382.66 440.556M448.555 392.071C455.335 398.632 459.541 399.409 467.293 398.903L470.936 468.766M448.555 392.071L409.106 427.553L415.943 437.691L428.726 468.766L448.555 487.939M382.66 440.556C380.761 443.15 380.429 445.4 382.66 452.457C391.27 469.053 397.331 482.002 409.106 507.995L475.443 533.78L476.765 555.598C468.816 558.472 465.05 561.251 463.101 574.331C459.908 598.948 463.646 641.51 467.666 687.286C472.622 743.712 478.007 805.022 471.367 843.625M382.66 440.556L405.144 486.176C413.407 493.193 418.016 497.138 426.081 504.248L473.464 517.251L472.039 489.923M470.153 849.815C471.83 854.815 473.319 858.984 475.019 862.97M470.153 849.815C470.836 852.666 472.693 857.643 475.019 862.97M470.153 849.815L471.367 843.625M470.153 849.815C470.596 847.824 471 845.759 471.367 843.625M486.682 883.755L476.324 897.419M486.682 883.755C482.183 877.061 479.155 871.865 476.703 866.71M486.682 883.755C483.934 881.004 480.047 873.912 476.703 866.71M476.324 897.419C396.108 890.587 279.875 917.559 309.712 778.63C339.548 639.702 150.156 621.714 139.132 629.208C128.108 636.701 124.811 651.026 139.132 659.621C153.453 668.216 304.868 652.789 281.282 778.63C258.046 902.598 338.049 936.152 458.483 918.796M476.324 897.419L458.483 918.796M458.483 918.796C476.765 995.05 475.019 1038.76 459.469 1102.19L558.241 1107.67C599.356 1071.03 619.88 1044.1 630.789 1014.22M458.483 918.796C527.185 949.159 577.738 963.53 642.429 954.303M522.831 641.108V734.773L548.764 780.915M522.831 641.108L526.137 734.773L552.511 774.744L548.764 780.915M522.831 641.108L509.608 669.318L506.671 647.5L501.161 699.291L495.431 656.536L486.682 727.721L515.239 785.186L522.831 764.966L548.764 780.915M588.434 818.994L738.143 816.096L753.964 851.138M588.434 818.994L597.542 883.755M588.434 818.994L508.874 816.929M763.714 872.735L597.542 883.755M763.714 872.735V883.755L733.301 886.139M763.714 872.735L753.964 851.138M597.542 883.755L589.383 897.419M597.542 883.755L515.239 877.143M589.383 897.419L733.301 886.139M589.383 897.419L576.385 924.967M589.383 897.419L542.775 893.06L516.66 890.587M753.964 851.138L774.734 848.052L772.524 905.794L753.964 921.87C710.577 939.199 674.74 949.694 642.429 954.303M733.301 886.139V914.609L576.385 924.967M576.385 924.967L509.608 916.593L516.66 890.587M516.66 890.587L515.239 877.143M661.449 712.046C666.227 722.817 669.72 733.058 672.694 746.894C679.416 741.841 681.653 738.157 683.053 730.145C689.73 751.652 689.63 764.173 689.463 785.186M661.449 712.046C658.019 704.315 653.928 696.311 648.893 686.508L691.868 699.291L703.549 683.864L742.778 708.106C757.434 691.66 768.316 685.197 790.161 676.15C774.854 693.039 767.487 702.116 758.645 716.922C764.948 719.716 768.474 719.861 774.734 719.126L757.642 753.947M661.449 712.046L703.549 730.145L720.298 727.721L726.689 746.894L748.728 724.194L757.642 753.947M757.642 753.947L753.964 761.44C742.903 778.57 734.486 787.556 708.177 800.448C709.737 787.946 710.784 781.182 713.686 770.696C706.677 779.456 700.908 782.203 691.818 786.532M581.234 343.437C565.647 359.86 553.139 374.905 534.506 398.903C572.19 458.38 576.154 463.675 582.991 472.805M581.234 343.437C586.737 337.639 592.624 331.669 599.299 325.073C628.771 336.004 642.529 339.677 657.157 343.581C671.296 347.355 686.247 351.346 716.986 362.319C739.223 354.124 755.102 349.732 785.747 342.043L832.248 383.035C829.589 398.647 826.742 410.822 823.737 421.162M581.234 343.437L596.661 352.406M823.737 421.162C812.79 401.203 806.51 391.053 796.111 367.167C764.49 379.982 750.478 386.865 728.452 398.903C687.139 386.252 668.579 389.092 637.212 375.983L596.661 352.406M596.661 352.406L560.952 396.919L622.446 485.074L649.113 477.581M649.113 477.581L677.102 509.978H739.692C740.701 496.161 741.501 488.524 739.692 473.394M649.113 477.581L627.331 449.28M739.692 473.394H730.436C731.172 471.052 731.81 468.878 732.365 466.782M739.692 473.394H747.626M747.626 473.394H755.56C747.31 467.506 744.479 459.388 741.896 438.352H735.946C735.524 450.749 734.662 458.1 732.365 466.782M732.365 466.782C721.315 456.917 712.995 451.291 716.986 442.099C720.289 438.635 722.158 437.371 725.587 439.674C735.589 448.513 734.13 455.147 732.365 466.782ZM699.582 407.278L719.857 412.346M699.582 407.278C696.621 406.284 692.816 405.655 689.003 404.901M699.582 407.278C696.009 406.387 692.271 405.748 689.003 404.901M613.851 396.32L630.16 395.377C639.399 397.967 652.024 399.534 664.565 401.091L664.566 401.091C673.767 402.233 681.264 403.37 689.003 404.901M613.851 396.32L603.493 396.919C606.558 387.504 608.758 382.242 613.851 372.897C644.894 391.332 661.305 397.716 689.003 404.901M613.851 396.32C615.637 406.191 616.806 412.601 627.331 423.119M637.212 431.961C645.312 440.889 656.378 440.952 683.053 430.038M637.212 431.961C633.839 428.823 630.252 425.929 627.295 422.998C627.307 423.038 627.319 423.079 627.331 423.119M637.212 431.961C633.22 428.673 629.979 425.766 627.331 423.119M719.857 412.346L729.114 413.008M719.857 412.346L693.756 424.917M683.053 430.038L689.003 429.096M683.053 430.038C683.009 430.074 682.965 430.11 682.922 430.146M729.114 413.008C747.927 420.388 759.328 425.203 768.122 428.638M729.114 413.008C756.878 402.397 773.329 396.646 798.536 385.459C801.307 390.485 802.71 393.665 804.486 401.207H788.839M729.114 413.008C752.428 406.777 765.498 403.354 788.839 401.207M801.621 414.55C796.993 432.181 793.86 433.739 782.007 433.944M801.621 414.55C797.874 411.245 793.651 406.476 786.414 406.396C777.972 408.67 775.145 410.74 772.53 415.432C770.045 429.112 776.113 430.461 782.007 433.944M801.621 414.55C800.15 408.98 797.717 403.24 788.839 401.207M782.007 433.944C778.148 432.734 772.72 430.434 768.122 428.638M571.148 588.635L571.15 588.637M571.148 588.635C571.149 588.636 571.149 588.636 571.15 588.637M850.767 464.404C846.421 467.001 841.147 468.56 832.696 470.308C828.856 480.552 832.71 485.366 838.245 492.279M850.767 464.404C847.018 491.67 844.486 493.778 839.877 494.331M839.877 494.331C839.327 493.631 838.788 492.956 838.263 492.301M693.756 424.917C696.285 415.305 696.539 409.28 679.796 406.112C675.801 405.057 672.281 404.702 669.389 404.901C665.515 405.166 661.394 412.217 660.132 414.11C658.292 416.87 668.547 430.624 682.922 430.146M693.756 424.917L691.802 426.635M693.756 424.917C693.349 425.108 692.601 425.837 691.802 426.635M689.003 429.096C689.544 428.926 690.719 427.717 691.802 426.635M689.003 429.096C686.913 429.752 684.879 430.081 682.922 430.146M689.003 429.096L691.802 426.635M627.331 423.119C632.774 441.431 628.045 443.594 619.361 447.168C622.16 448.024 624.809 448.727 627.331 449.28M627.331 449.28C650.018 454.257 662.477 447.098 682.922 430.146M470.936 468.766L448.555 440.556L432.472 437.691L441.729 445.845C448.892 461.458 453.471 469.701 463.101 483.311L448.555 487.939M470.936 468.766L472.039 489.923M472.039 489.923C464.293 489.797 459.384 491.483 450.544 494.771L448.555 487.939M838.245 492.279L838.249 492.283M838.245 492.279C838.246 492.281 838.248 492.282 838.249 492.283M577.497 474.997L577.517 474.992M577.497 474.997C577.504 474.995 577.511 474.994 577.517 474.992M542.102 547.455L542.076 547.788M542.102 547.455C542.094 547.566 542.085 547.677 542.076 547.788M659.796 660.666C660.103 654.93 660.305 651.155 661.449 645.737C691.189 662.078 707.924 670.861 738.143 683.864C766.811 650.375 783.213 632.263 813.736 602.541C813.799 600.69 813.836 598.946 813.87 597.286M659.796 660.666L659.795 660.688M659.796 660.666C659.796 660.673 659.795 660.68 659.795 660.688M813.871 597.277L813.87 597.286M813.871 597.277C813.871 597.28 813.871 597.283 813.87 597.286M689.463 785.186L689.463 785.226M689.463 785.186C689.463 785.199 689.463 785.213 689.463 785.226M691.818 786.532L691.815 786.533M691.818 786.532C691.817 786.532 691.816 786.533 691.815 786.533M659.795 660.688L659.786 660.857M659.795 660.688C659.792 660.744 659.789 660.8 659.786 660.857M838.249 492.283L838.263 492.301M838.249 492.283C838.253 492.289 838.258 492.295 838.263 492.301M691.815 786.533L691.738 786.57M691.815 786.533C691.789 786.546 691.764 786.558 691.738 786.57M689.463 785.226L689.462 785.286M689.463 785.226C689.463 785.246 689.463 785.266 689.462 785.286M659.745 661.614L659.786 660.857M659.745 661.614L659.715 662.181M659.745 661.614C659.735 661.801 659.725 661.99 659.715 662.181M659.745 661.614C659.759 661.358 659.773 661.106 659.786 660.857M689.462 785.286L689.462 785.368M689.462 785.286C689.462 785.313 689.462 785.341 689.462 785.368M691.738 786.57C690.996 786.924 690.232 787.287 689.444 787.666C689.449 786.93 689.455 786.204 689.461 785.488M475.019 862.97C475.558 864.205 476.122 865.459 476.703 866.71M475.019 862.97C475.555 864.228 476.112 865.468 476.703 866.71M508.874 816.929L476.765 816.096L471.367 843.625M508.874 816.929L515.239 877.143M659.715 662.181L659.698 662.484M659.715 662.181C659.709 662.281 659.704 662.382 659.698 662.484M689.462 785.368L689.461 785.488M689.462 785.368C689.461 785.408 689.461 785.448 689.461 785.488M642.429 954.303C640.438 977.186 637.355 996.239 630.789 1014.22M749.281 466.782C754.678 459.95 759.747 455.102 760.409 449.812C759.882 441.438 757.682 436.992 751.152 439.674C744.622 442.357 742.778 452.981 749.281 466.782Z" stroke="black" stroke-width="0.440775"/>
<path d="M805.294 694.05L843.197 696.654L850.474 697.153L1001 707.494L1090.03 589.586L976.315 563.312L953.174 610.964L850.474 608.54L831.955 584.738L805.294 694.05Z" fill="#211F27"/>
<path d="M805.294 694.05L796.699 718.906C809.275 701.995 819.524 695.639 843.197 696.654L805.294 694.05Z" fill="#211F27"/>
<path d="M805.294 694.05L831.955 584.738L850.474 608.54L953.174 610.964L976.315 563.312L1090.03 589.586L1001 707.494L850.474 697.153M805.294 694.05L796.699 718.906C809.275 701.995 819.524 695.639 843.197 696.654M805.294 694.05L843.197 696.654M850.474 697.153C847.913 696.92 845.492 696.752 843.197 696.654M850.474 697.153L843.197 696.654" stroke="black" stroke-width="0.440775"/>
<path d="M545.24 1102.71L539.016 1131.13C570.144 1140.4 582.044 1151.86 601.659 1178.88L466.341 1178.88L467.187 1154.65L472.292 1099.4L545.24 1102.71Z" fill="black"/>
<path d="M545.24 1102.71L539.016 1131.13C570.144 1140.4 582.044 1151.86 601.659 1178.88L466.341 1178.88L467.187 1154.65L472.292 1099.4L545.24 1102.71Z" stroke="black" stroke-width="0.440775"/>
<path d="M707.885 1107.34L705.461 1178.97L856.206 1179.41C843.864 1158.91 811.467 1129.16 778.85 1122.55L782.376 1104.25L707.885 1107.34Z" fill="black"/>
<path d="M707.885 1107.34L705.461 1178.97L856.206 1179.41C843.864 1158.91 811.467 1129.16 778.85 1122.55L782.376 1104.25L707.885 1107.34Z" stroke="black" stroke-width="0.440775"/>
<path d="M981.036 268.166L1003.43 245.785L988.422 231.691L963.996 244.43L963.678 270.551L976.274 274.069L996.411 367.502L1063.92 455.074C1089.41 480.149 1103.13 494.34 1142.53 516.205C1210.97 530.303 1247.2 537.54 1256.57 533.175L1146.51 504.728C1106.68 483.99 1093.46 471.414 1066.77 449.306L1002.75 364.877L981.036 268.166Z" fill="#3E3030"/>
<path d="M1290.96 550.817C1286.86 538.965 1293.43 514.815 1300.83 512.438C1298.61 508.61 1298.52 506.081 1300.21 500.905C1293.86 501.06 1288.25 501.266 1283.35 501.335C1264.01 503.256 1257.75 501.653 1250.02 496.796L1246.76 503.168L1263.03 509.752C1258.8 517.301 1257.65 522.672 1256.57 533.175C1258.19 539.165 1258.21 541.78 1258.08 546.309C1270.45 547.286 1277.62 548.291 1290.96 550.817Z" fill="#3E3030"/>
<path d="M1003.43 245.785L981.036 268.166L1002.75 364.877L1066.77 449.306C1093.46 471.414 1106.68 483.99 1146.51 504.728L1256.57 533.175C1257.65 522.672 1258.8 517.301 1263.03 509.752L1246.76 503.168L1250.02 496.796C1148.54 442.802 1089.57 418.192 1023.52 267.386L1010.47 257.502L1002.29 278.361C1019.68 322.653 1032.24 348.974 1058.91 398.178C1007 329.104 978.989 290.743 1007.55 248.34L1003.43 245.785Z" fill="#E7A220"/>
<path d="M1100.71 368.853C1065.09 324.037 1049.52 300.974 1039.3 268.055L1007.55 248.34C978.989 290.743 1007 329.104 1058.91 398.178C1032.24 348.974 1019.68 322.653 1002.29 278.361L1010.47 257.502L1023.52 267.386C1089.57 418.192 1148.54 442.802 1250.02 496.796C1257.75 501.653 1264.01 503.256 1283.35 501.335C1274.38 501.462 1267.76 501.13 1263.24 499.182L1195.56 443.351L1155.82 414.383L1100.71 368.853Z" fill="#F4C63F"/>
<path d="M1003.43 245.785L981.036 268.166L1002.75 364.877L1066.77 449.306C1093.46 471.414 1106.68 483.99 1146.51 504.728L1256.57 533.175M1003.43 245.785L988.422 231.691L963.996 244.43L963.678 270.551L976.274 274.069L996.411 367.502L1063.92 455.074C1089.41 480.149 1103.13 494.34 1142.53 516.205C1210.97 530.303 1247.2 537.54 1256.57 533.175M1003.43 245.785L1007.55 248.34M1256.57 533.175C1258.19 539.165 1258.21 541.78 1258.08 546.309C1270.45 547.286 1277.62 548.291 1290.96 550.817C1286.86 538.965 1293.43 514.815 1300.83 512.438C1298.61 508.61 1298.52 506.081 1300.21 500.905C1293.86 501.06 1288.25 501.266 1283.35 501.335M1256.57 533.175C1257.65 522.672 1258.8 517.301 1263.03 509.752L1246.76 503.168L1250.02 496.796M1007.55 248.34L1039.3 268.055C1049.52 300.974 1065.09 324.037 1100.71 368.853L1155.82 414.383L1195.56 443.351L1263.24 499.182C1267.76 501.13 1274.38 501.462 1283.35 501.335M1007.55 248.34C978.989 290.743 1007 329.104 1058.91 398.178C1032.24 348.974 1019.68 322.653 1002.29 278.361L1010.47 257.502L1023.52 267.386C1089.57 418.192 1148.54 442.802 1250.02 496.796M1250.02 496.796C1257.75 501.653 1264.01 503.256 1283.35 501.335" stroke="black" stroke-width="0.403548"/>
<path d="M1089.94 595.363L1102.06 597.126L1114.18 508.089L1105.81 505.785L1018.06 481.643L998.037 476.133L964.979 566.492L976.218 569.089L1089.94 595.363Z" fill="#461B46"/>
<path d="M1161.88 372.236L1133.01 357.47L1105.81 441.878L1133.8 448.27L1161.88 372.236Z" fill="#461B49"/>
<path d="M1193.62 396.258L1166.51 378.722L1140.4 440.776L1134.68 459.163H1159.21L1175.6 429.191L1193.62 396.258Z" fill="#461B49"/>
<path d="M1079.36 459.163L1065.74 423.586L1064.59 420.596L1070.54 378.722L1067.83 380.719L1061.66 420.596L1079.36 459.163Z" fill="black"/>
<path fill-rule="evenodd" clip-rule="evenodd" d="M1105.81 429.191V441.878L1133.01 357.47L1105.81 429.191ZM1133.8 448.27L1140.4 440.776L1166.51 378.722L1161.88 372.236L1133.8 448.27Z" fill="black"/>
<path d="M1086.84 434.403L1089.06 425.697L1071.68 422.074L1086.84 434.403Z" fill="#461B49"/>
<path d="M1159.21 459.163H1134.68L1140.4 440.776L1133.8 448.27L1105.81 441.878V429.191L1089.06 425.697L1086.84 434.403L1071.68 422.074L1064.59 420.596L1065.74 423.586H1070.42L1089.17 438.341L1090.92 428.865L1104.58 432.622L1103.04 445.72L1131.25 451.45L1132.79 460.171L1158.41 461.052L1159.21 459.163Z" fill="black"/>
<path d="M1159.21 459.163L1158.41 461.052H1161L1177.75 430.418L1175.6 429.191L1159.21 459.163Z" fill="black"/>
<path fill-rule="evenodd" clip-rule="evenodd" d="M1018.06 481.643L1033.96 439.99L1026.47 411.119L1028.77 409.427L1067.83 380.719L1061.66 420.596L1079.36 459.163L1116.04 499.737L1105.81 505.785L1018.06 481.643ZM1089.06 425.697L1105.81 429.191L1128.6 355.453L1120.01 351.52L1079.36 335.967L1078.47 340.28L1070.54 378.722L1064.59 420.596L1071.68 422.074L1089.06 425.697Z" fill="#461B49"/>
<path d="M1105.81 429.191L1133.01 357.47L1128.6 355.453L1105.81 429.191Z" fill="black"/>
<path d="M1067.83 380.719L1070.54 378.722L1078.47 340.28L1077.03 338.076L1068.66 377.305L1027.67 407.939L1028.77 409.427L1067.83 380.719Z" fill="black"/>
<path d="M561.357 831.186C542.974 796.932 532.142 777.317 521.907 736.316C519.752 696.263 522.722 679.907 525.654 646.839L475.847 556.26C466.031 560.84 463.266 566.082 461.742 578.739C439.741 647.326 410.612 747.997 411.714 761.44C412.816 774.884 450.253 826.413 471.659 858.677L561.357 831.186Z" fill="#211F27"/>
<path d="M587.142 867.226L573.919 827.336L561.357 831.186L471.659 858.677L461.742 861.717L475.847 900.284L485.764 897.339L575.462 870.696L587.142 867.226Z" fill="#401945"/>
<path d="M485.764 897.339C494.538 924.383 500.064 939.587 515.076 967.062L541.081 960.45L525.654 916.373L528.519 915.271L544.167 959.128L569.732 950.973L552.762 907.557L555.406 906.235L572.597 949.871L600.365 941.276C595.156 924.202 592.169 914.69 584.057 900.284C588.655 905.353 596.809 913.067 608.489 918.136L615.321 904.912C609.591 893.452 595.791 875.491 575.462 870.696L485.764 897.339Z" fill="#401945"/>
<path d="M525.654 916.373L541.081 960.45L544.167 959.128L528.519 915.271L525.654 916.373Z" fill="black"/>
<path d="M552.762 907.557L569.732 950.973L572.597 949.871L555.406 906.235L552.762 907.557Z" fill="black"/>
<path d="M561.357 831.186L573.919 827.336L587.142 867.226L575.462 870.696M561.357 831.186C542.974 796.932 532.142 777.317 521.907 736.316C519.752 696.263 522.722 679.907 525.654 646.839L475.847 556.26C466.031 560.84 463.266 566.082 461.742 578.739C439.741 647.326 410.612 747.997 411.714 761.44C412.816 774.884 450.253 826.413 471.659 858.677M561.357 831.186L471.659 858.677M471.659 858.677L461.742 861.717L475.847 900.284L485.764 897.339M485.764 897.339C494.538 924.383 500.064 939.587 515.076 967.062L541.081 960.45M485.764 897.339L575.462 870.696M541.081 960.45L525.654 916.373L528.519 915.271L544.167 959.128M541.081 960.45L544.167 959.128M544.167 959.128L569.732 950.973M569.732 950.973L552.762 907.557L555.406 906.235L572.597 949.871M569.732 950.973L572.597 949.871M572.597 949.871L600.365 941.276C595.156 924.202 592.169 914.69 584.057 900.284C588.655 905.353 596.809 913.067 608.489 918.136L615.321 904.912C609.591 893.452 595.791 875.491 575.462 870.696" stroke="black" stroke-width="0.440775"/>
<path d="M760.121 772.778L775.09 770.546L773.329 760.863L760.323 758.813L752.774 768.759L756.613 773.692L737.786 815.317L738.825 868.156C741.493 885.041 742.729 894.393 751.649 913.995C773.938 938.87 785.803 951.953 790.643 952.939L756.442 910.717C747.037 891.427 745.53 882.834 741.561 866.751L740.968 816.11L760.121 772.778Z" fill="#3E3030"/>
<path d="M798.841 969.495C800.635 963.776 810.025 956.364 813.546 957.556C813.78 955.453 814.464 954.455 816.584 952.946C814.1 951.201 811.888 949.686 809.985 948.319C802.007 943.558 800.06 941.164 798.469 937.099L795.406 938.621L799.785 945.776C796.014 947.475 794.045 949.211 790.643 952.939C789.564 955.702 788.827 956.712 787.489 958.415C791.966 962.308 794.433 964.732 798.841 969.495Z" fill="#3E3030"/>
<path d="M775.09 770.546L760.121 772.778L740.968 816.11L741.561 866.751C745.53 882.834 747.037 891.427 756.442 910.717L790.643 952.939C794.045 949.211 796.014 947.475 799.785 945.776L795.406 938.621L798.469 937.099C774.828 887.5 759.168 861.279 776.666 784.556L774.462 777.049L765.39 782.739C759.477 804.699 756.82 818.384 753.079 844.873C752.77 803.572 752.916 780.87 775.945 772.698L775.09 770.546Z" fill="#E7A220"/>
<path d="M777.476 845.489C776.531 818.142 777.108 804.856 782.54 789.301L775.945 772.698C752.916 780.87 752.77 803.572 753.079 844.873C756.82 818.384 759.477 804.699 765.39 782.739L774.462 777.049L776.666 784.556C759.168 861.279 774.828 887.5 798.469 937.099C800.06 941.164 802.007 943.558 809.985 948.319C806.501 945.817 804.053 943.808 802.87 941.774L792.739 901.08L785.708 878.653L777.476 845.489Z" fill="#F4C63F"/>
<path d="M775.09 770.546L760.121 772.778L740.968 816.11L741.561 866.751C745.53 882.834 747.037 891.427 756.442 910.717L790.643 952.939M775.09 770.546L773.329 760.863L760.323 758.813L752.774 768.759L756.613 773.692L737.786 815.317L738.825 868.156C741.493 885.041 742.729 894.393 751.649 913.995C773.938 938.87 785.803 951.953 790.643 952.939M775.09 770.546L775.945 772.698M790.643 952.939C789.564 955.702 788.827 956.712 787.489 958.415C791.966 962.308 794.433 964.732 798.841 969.495C800.635 963.776 810.025 956.364 813.546 957.556C813.78 955.453 814.464 954.455 816.584 952.946C814.1 951.201 811.888 949.686 809.985 948.319M790.643 952.939C794.045 949.211 796.014 947.475 799.785 945.776L795.406 938.621L798.469 937.099M775.945 772.698L782.54 789.301C777.108 804.856 776.531 818.142 777.476 845.489L785.708 878.653L792.739 901.08L802.87 941.774C804.053 943.808 806.501 945.817 809.985 948.319M775.945 772.698C752.916 780.87 752.77 803.572 753.079 844.873C756.82 818.384 759.477 804.699 765.39 782.739L774.462 777.049L776.666 784.556C759.168 861.279 774.828 887.5 798.469 937.099M798.469 937.099C800.06 941.164 802.007 943.558 809.985 948.319" stroke="black" stroke-width="0.192887"/>
<path d="M721.844 778.731L736.812 776.499L735.052 766.816L722.045 764.766L714.496 774.712L718.336 779.645L699.509 821.27L700.548 874.11C703.216 890.994 704.452 900.347 713.372 919.948C735.661 944.824 747.526 957.906 752.366 958.893L718.165 916.67C708.76 897.38 707.253 888.787 703.284 872.704L702.69 822.063L721.844 778.731Z" fill="#3E3030"/>
<path d="M760.563 975.448C762.358 969.729 771.748 962.317 775.269 963.51C775.502 961.406 776.187 960.409 778.307 958.9C775.823 957.154 773.611 955.639 771.708 954.272C763.73 949.511 761.783 947.117 760.192 943.052L757.129 944.574L761.507 951.729C757.737 953.428 755.768 955.165 752.366 958.893C751.286 961.655 750.549 962.665 749.212 964.368C753.689 968.262 756.156 970.685 760.563 975.448Z" fill="#3E3030"/>
<path d="M736.812 776.499L721.844 778.731L702.69 822.063L703.284 872.704C707.253 888.787 708.76 897.38 718.165 916.67L752.366 958.893C755.768 955.165 757.737 953.428 761.507 951.729L757.129 944.574L760.192 943.052C736.55 893.453 720.89 867.232 738.389 790.509L736.185 783.002L727.113 788.692C721.2 810.653 718.543 824.337 714.802 850.826C714.493 809.526 714.638 786.824 737.667 778.651L736.812 776.499Z" fill="#E7A220"/>
<path d="M739.199 851.443C738.254 824.095 738.831 810.809 744.263 795.254L737.667 778.651C714.638 786.824 714.493 809.526 714.802 850.826C718.543 824.337 721.2 810.653 727.113 788.692L736.185 783.002L738.389 790.509C720.89 867.232 736.55 893.453 760.192 943.052C761.783 947.117 763.73 949.511 771.708 954.272C768.224 951.77 765.776 949.761 764.592 947.727L754.462 907.033L747.43 884.606L739.199 851.443Z" fill="#F4C63F"/>
<path d="M736.812 776.499L721.844 778.731L702.69 822.063L703.284 872.704C707.253 888.787 708.76 897.38 718.165 916.67L752.366 958.893M736.812 776.499L735.052 766.816L722.045 764.766L714.496 774.712L718.336 779.645L699.509 821.27L700.548 874.11C703.216 890.994 704.452 900.347 713.372 919.948C735.661 944.824 747.526 957.906 752.366 958.893M736.812 776.499L737.667 778.651M752.366 958.893C751.286 961.655 750.549 962.665 749.212 964.368C753.689 968.262 756.156 970.685 760.563 975.448C762.358 969.729 771.748 962.317 775.269 963.51C775.502 961.406 776.187 960.409 778.307 958.9C775.823 957.154 773.611 955.639 771.708 954.272M752.366 958.893C755.768 955.165 757.737 953.428 761.507 951.729L757.129 944.574L760.192 943.052M737.667 778.651L744.263 795.254C738.831 810.809 738.254 824.095 739.199 851.443L747.43 884.606L754.462 907.033L764.592 947.727C765.776 949.761 768.224 951.77 771.708 954.272M737.667 778.651C714.638 786.824 714.493 809.526 714.802 850.826C718.543 824.337 721.2 810.653 727.113 788.692L736.185 783.002L738.389 790.509C720.89 867.232 736.55 893.453 760.192 943.052M760.192 943.052C761.783 947.117 763.73 949.511 771.708 954.272" stroke="black" stroke-width="0.192887"/>
<path d="M683.057 784.02L698.025 781.788L696.265 772.106L683.258 770.055L675.709 780.001L679.548 784.934L660.722 826.559L661.761 879.399C664.429 896.283 665.665 905.636 674.585 925.237C696.873 950.113 708.738 963.195 713.579 964.182L679.378 921.959C669.973 902.669 668.466 894.076 664.497 877.993L663.903 827.352L683.057 784.02Z" fill="#3E3030"/>
<path d="M721.776 980.737C723.571 975.018 732.961 967.606 736.482 968.799C736.715 966.695 737.399 965.698 739.519 964.189C737.036 962.443 734.824 960.928 732.921 959.561C724.943 954.8 722.996 952.406 721.405 948.341L718.342 949.863L722.72 957.018C718.95 958.717 716.98 960.454 713.579 964.182C712.499 966.944 711.762 967.954 710.424 969.657C714.902 973.551 717.369 975.974 721.776 980.737Z" fill="#3E3030"/>
<path d="M698.025 781.788L683.057 784.02L663.903 827.352L664.497 877.993C668.466 894.076 669.973 902.669 679.378 921.959L713.579 964.182C716.98 960.454 718.95 958.717 722.72 957.018L718.342 949.863L721.405 948.341C697.763 898.742 682.103 872.521 699.601 795.799L697.398 788.291L688.326 793.981C682.413 815.942 679.756 829.626 676.015 856.116C675.706 814.815 675.851 792.113 698.88 783.941L698.025 781.788Z" fill="#E7A220"/>
<path d="M700.412 856.732C699.467 829.384 700.044 816.098 705.476 800.543L698.88 783.941C675.851 792.113 675.706 814.815 676.015 856.116C679.756 829.626 682.413 815.942 688.326 793.981L697.398 788.291L699.601 795.799C682.103 872.521 697.763 898.742 721.405 948.341C722.996 952.406 724.943 954.8 732.921 959.561C729.437 957.059 726.989 955.05 725.805 953.016L715.675 912.322L708.643 889.895L700.412 856.732Z" fill="#F4C63F"/>
<path d="M698.025 781.788L683.057 784.02L663.903 827.352L664.497 877.993C668.466 894.076 669.973 902.669 679.378 921.959L713.579 964.182M698.025 781.788L696.265 772.106L683.258 770.055L675.709 780.001L679.548 784.934L660.722 826.559L661.761 879.399C664.429 896.283 665.665 905.636 674.585 925.237C696.873 950.113 708.738 963.195 713.579 964.182M698.025 781.788L698.88 783.941M713.579 964.182C712.499 966.944 711.762 967.954 710.424 969.657C714.902 973.551 717.369 975.974 721.776 980.737C723.571 975.018 732.961 967.606 736.482 968.799C736.715 966.695 737.399 965.698 739.519 964.189C737.036 962.443 734.824 960.928 732.921 959.561M713.579 964.182C716.98 960.454 718.95 958.717 722.72 957.018L718.342 949.863L721.405 948.341M698.88 783.941L705.476 800.543C700.044 816.098 699.467 829.384 700.412 856.732L708.643 889.895L715.675 912.322L725.805 953.016C726.989 955.05 729.437 957.059 732.921 959.561M698.88 783.941C675.851 792.113 675.706 814.815 676.015 856.116C679.756 829.626 682.413 815.942 688.326 793.981L697.398 788.291L699.601 795.799C682.103 872.521 697.763 898.742 721.405 948.341M721.405 948.341C722.996 952.406 724.943 954.8 732.921 959.561" stroke="black" stroke-width="0.192887"/>
</svg>
