<svg width="1059" height="846" viewBox="0 0 1059 846" fill="none" xmlns="http://www.w3.org/2000/svg">
<path d="M154.095 766.503L191.166 738.003L159.289 703.268L137.095 750.503C127.753 777.607 130.095 795.003 138.095 799.003C146.095 803.003 150.256 792.795 154.095 766.503Z" fill="black"/>
<path d="M89.3296 176.853L128.449 163L127.929 169.019L93.8265 180.565L89.3296 176.853Z" fill="#FCFAEC"/>
<path d="M93.8265 180.565L127.929 169.019L146.514 224.497L115.436 237.094C107.729 212.507 102.591 199.738 93.8265 180.565Z" fill="#397B05"/>
<path d="M115.436 237.094L146.514 224.497L151.148 227.1L132.158 234.885L112.863 243.309L115.436 237.094Z" fill="#FCFAEC"/>
<path d="M112.863 243.309L132.158 234.885L151.148 227.1C157.479 267.048 162.812 275.357 169.154 285.435L130.977 298.954C126.594 276.453 123.381 264.055 112.863 243.309Z" fill="#64AA06"/>
<path d="M130.977 298.954L169.154 285.435L169.743 291.592L132.98 304.61L130.977 298.954Z" fill="#FCFAEC"/>
<path d="M132.98 304.61L169.743 291.592C174.578 316.559 178.569 330.133 187.503 353.727L158.752 363.909L140.123 321.046L135.777 311.046L132.98 304.61Z" fill="#397B05"/>
<path d="M158.752 363.909L187.503 353.727L189.839 360.326L162.503 370.006L158.752 363.909Z" fill="#FCFAEC"/>
<path d="M162.503 370.006L189.839 360.326C198.017 383.421 200.659 389.381 209.917 411.032L179.89 420.605C179.89 420.605 170.121 388.525 162.503 370.006Z" fill="#64AA06"/>
<path d="M179.89 420.605L209.917 411.032L210.535 418.77L181.785 428.951L179.89 420.605Z" fill="#FCFAEC"/>
<path d="M181.785 428.951L210.535 418.77C217.771 442.198 219.049 447.291 227.895 472.271L205.407 474.689L194.692 479.785C187.034 450.671 191.975 466.715 181.785 428.951Z" fill="#397B05"/>
<path d="M194.692 479.785L205.407 474.689L227.895 472.271L227.461 478.549L198.681 487.149L194.692 479.785Z" fill="#FCFAEC"/>
<path d="M226.76 551.465L245.81 546.841L245.289 552.86L228.429 556.178L226.76 551.465Z" fill="#FCFAEC"/>
<path d="M198.681 487.149L227.461 478.549C231.446 497.293 239.575 526.24 245.81 546.841L226.76 551.465C217.865 532.337 209.294 505.138 198.681 487.149Z" fill="#64AA06"/>
<path d="M44.1849 277.163C63.4823 276.433 77.6423 274.385 64.1468 290.64C66.4392 287.649 66.1989 285.609 62.7633 284.149C60.4248 281.033 54.4466 279.16 44.1849 277.163Z" fill="#64AA06"/>
<path d="M62.9276 292.072C62.1954 285.925 54.0897 284.303 41.079 281.068C52.2231 281.748 59.206 282.637 62.7633 284.149C64.2682 286.154 64.2658 288.673 62.9276 292.072Z" fill="#64AA06"/>
<path d="M62.9276 292.072C49.0838 301.461 43.7523 296.067 37.9024 315.518C51.4255 303.272 57.1547 305.78 62.9276 292.072Z" fill="#64AA06"/>
<path d="M72.0948 298.799C82.2865 303.879 86.1012 313.248 91.237 328.616C83.7433 323.561 77.4851 319.737 72.7034 315.25C71.7583 309.535 68.2784 303.599 62.626 295.657L72.0948 298.799Z" fill="#64AA06"/>
<path d="M81.368 254.462C97.907 267.784 102.563 274.041 97.8808 281.792C96.0966 281.158 94.3027 280.696 92.4894 280.422C86.1146 277.241 84.0719 268.712 81.368 254.462Z" fill="#64AA06"/>
<path d="M69.424 330.391C58.5877 312.012 59.0052 305.528 62.626 295.657C68.2784 303.599 71.7583 309.535 72.7034 315.25C73.5043 320.093 72.4847 324.778 69.424 330.391Z" fill="#64AA06"/>
<path d="M62.626 295.657L62.9276 292.072C74.0532 282.298 83.5098 279.062 92.4894 280.422C94.0154 281.183 95.7897 281.638 97.8808 281.792C111.096 287.543 119.602 294.695 135.777 311.046L140.123 321.046C106.69 284.949 87.6649 270.654 62.626 295.657Z" fill="#64AA06"/>
<path d="M443.158 511.211C438.629 495.565 435.55 481.258 429.505 450.092C422.573 475.207 417.286 493.713 413.113 507.522C412.145 516.379 413.311 519.896 422.402 520.249C419.958 527.46 443.625 536.456 467.781 540.43C468.081 539.182 470.131 537.696 470.131 537.696L471.925 535.397C463.924 531.314 457.543 527.81 450.592 520.184C445.572 518.191 441.699 517.544 433.372 517.062C436.299 514.846 437.701 513.566 443.593 511.774C443.449 511.588 443.304 511.4 443.158 511.211Z" fill="#C29171"/>
<path d="M443.593 511.774C437.701 513.566 436.299 514.846 433.372 517.062C441.699 517.544 445.572 518.191 450.592 520.184C448.449 517.833 446.156 515.077 443.593 511.774Z" fill="black"/>
<path d="M395.369 551.689L399.661 557.757L462.688 565.496C463.081 554.848 465.579 549.583 467.781 540.43C443.625 536.456 419.958 527.46 422.402 520.249C413.311 519.896 412.145 516.379 413.113 507.522C403.414 539.613 399.726 546.338 395.369 551.689Z" fill="#773A03"/>
<path d="M521.752 492.16L548.844 520.214L460.725 605.31C453.007 591.817 448.216 584.602 438.668 572.393L521.752 492.16Z" fill="#DBBF9F"/>
<path d="M446.698 618.856C439.704 603.739 434.796 596.567 424.282 586.286C426.758 581.778 428.507 580.148 432.194 578.645C441.967 589.799 446.831 596.999 454.61 611.214C451.299 615.963 449.609 617.27 446.698 618.856Z" fill="#210000"/>
<path d="M440.224 625.108L435.284 619.865C430.661 607.417 426.811 601.42 417.088 593.233C419.514 589.712 421.034 588.077 424.282 586.286C434.796 596.567 439.704 603.739 446.698 618.856C445.08 622.242 443.617 623.558 440.224 625.108Z" fill="#9F2525"/>
<path d="M413.477 596.72L417.088 593.233C426.811 601.42 430.661 607.417 435.284 619.865L413.477 596.72Z" fill="#210000"/>
<path d="M454.61 611.214C446.831 596.999 441.967 589.799 432.194 578.645C433.739 575.183 435.016 573.672 438.668 572.393C448.216 584.602 453.007 591.817 460.725 605.31C458.495 608.157 457.155 609.212 454.934 610.96L454.61 611.214Z" fill="#9F2525"/>
<path d="M517.558 469.102L531.104 483.129L537.877 490.143L544.65 497.156L551.422 504.17L558.195 511.184L571.741 525.211C570.5 527.833 569.376 528.671 567.066 529.726L512.882 473.617C514.431 471.567 515.172 470.286 517.558 469.102Z" fill="#9F2525"/>
<path d="M521.752 492.16L508.206 478.133C509.451 476.157 510.194 475.065 512.882 473.617L567.066 529.726C566.106 532.185 565.354 533.392 562.39 534.241L548.844 520.214L521.752 492.16Z" fill="#3D3D33"/>
<path d="M897.96 190.027C744.874 356.337 708.689 384.118 558.195 511.184L551.422 504.17L772.261 288.752C836.055 224.057 877.743 167.97 938.61 89.6052C936.877 106.836 911.268 177.176 897.96 190.027Z" fill="#E6EAEB"/>
<path d="M531.104 483.129L938.61 89.6052C877.743 167.97 836.055 224.057 772.261 288.752L551.422 504.17L544.65 497.156L537.877 490.143L531.104 483.129Z" fill="black"/>
<path d="M484.116 528.381C476.127 528.799 475.233 530.849 472 536.025C465.509 536.365 459.173 546.436 459.094 547.717C454.849 551.945 450.744 549.039 452.206 559.593C462.005 574.601 480.441 587.375 481.607 585.59C493.091 584.988 512.728 558.424 511.125 556.506L497.134 542.719L484.116 528.381Z" fill="#3E1400"/>
<path fill-rule="evenodd" clip-rule="evenodd" d="M290.571 667.15C297 717.5 207 737.5 187.421 742.092C167.842 746.685 150.124 713.5 154.353 706.786C158.582 700.072 176.921 670.973 167.513 630.477L152.525 609.847C199.19 646.697 229.324 659.382 290.571 667.15Z" fill="#773A03"/>
<path d="M320.494 177.5C321.669 179.836 322.831 182.332 324 185C323.172 182.848 344.168 183.412 370.5 183.5C361.71 151.764 354.959 138.177 332.5 138C326.259 140.812 324.151 153.7 320.494 177.5Z" fill="#773A03"/>
<path d="M553 242C542 230.5 537.711 226.378 507 215C493.638 218.241 487.303 221.902 477 230C494.016 237.771 500.778 241.434 512 247.757C524.815 247.736 541.234 248.45 542.5 247.5C544.5 246 546.759 241.668 553 242Z" fill="#AAA494"/>
<path d="M524 281.5C488.689 280.012 493.316 251.651 497 249C498.352 248.027 504.57 247.768 512 247.757C500.778 241.434 494.016 237.771 477 230C473.249 234.329 470.052 238.416 467.349 242.312C466.935 242.909 466.532 243.501 466.14 244.09C460.875 252.006 457.672 259.139 456.003 265.923C455.854 266.528 455.717 267.13 455.592 267.729C454.219 274.328 454.275 280.628 455.263 287.039C455.359 287.663 455.464 288.289 455.577 288.915C456.48 293.912 457.915 299 459.646 304.371C459.808 304.872 459.972 305.375 460.138 305.881C461.836 311.043 463.784 316.477 465.78 322.35C465.853 322.566 465.926 322.783 466 323C470.315 328.803 472.401 331.978 473.5 337C481.156 336.245 484.262 337.898 490 340.5C507.129 332.798 515.12 327.402 523 313.5L524 281.5Z" fill="#AAA494"/>
<path d="M559.379 266.261C555.17 274.634 552.915 277.028 549 279C548.493 296.152 548.849 306.867 546 320C550.333 319.14 552.899 317.425 557.795 311.5C557.96 310.207 558.117 308.872 558.266 307.5C558.331 306.899 558.395 306.292 558.457 305.678C558.745 302.82 558.996 299.827 559.201 296.76C558.746 296.667 558.278 296.58 557.795 296.5V294.5C558.32 294.626 558.828 294.754 559.32 294.883C559.602 290.184 559.772 285.342 559.798 280.572C559.215 280.542 558.617 280.519 558 280.5V278.5C558.617 278.525 559.216 278.555 559.8 278.59C559.787 274.434 559.66 270.355 559.395 266.5L559.379 266.261Z" fill="#AAA494"/>
<path fill-rule="evenodd" clip-rule="evenodd" d="M559.379 266.261C555 264.5 555 256 557.416 252C557.254 251.309 557.082 250.642 556.902 250C555.906 246.465 554.621 243.695 553 242C546.759 241.668 544.5 246 542.5 247.5C541.234 248.45 524.815 247.736 512 247.757C504.57 247.768 498.352 248.027 497 249C493.316 251.651 488.689 280.012 524 281.5L523 313.5C515.12 327.402 507.129 332.798 490 340.5L493 340.459C504.116 342.249 510.796 342.841 527 340C539.816 344.277 545.913 341.965 554.5 328C555.695 324.773 556.862 318.831 557.795 311.5C552.899 317.425 550.333 319.14 546 320C548.849 306.867 548.493 296.152 549 279C552.915 277.028 555.17 274.634 559.379 266.261ZM500.5 256C511.449 252.222 529.5 263 520 272C510.5 281 489.551 259.778 500.5 256Z" fill="#3E1400"/>
<path d="M557.416 252C555 256 555 264.5 559.379 266.261C559.325 265.498 559.565 265.244 559.5 264.5C559.123 260.158 558.259 255.657 557.468 252.222C557.451 252.148 557.433 252.074 557.416 252Z" fill="black"/>
<path d="M500.5 256C511.449 252.222 529.5 263 520 272C510.5 281 489.551 259.778 500.5 256Z" fill="black"/>
<path d="M493 340.459L490 340.5C484.262 337.898 481.156 336.245 473.5 337C472.401 331.978 470.315 328.803 466 323L464.912 323.923L449.5 337C443.288 334.829 440.321 333.252 436 329.5C428.82 334.056 424.192 335.424 415.5 337L419 332.5C399.318 335.551 388.675 339.138 370 347L367.5 332.5C359.126 340.291 347.777 344.957 328.143 353.03L327 353.5C350.548 357.468 367.076 364.59 380.859 375.5C388.362 381.439 395.052 388.5 401.619 396.786L426.956 394.198L425.3 385C418.792 374.721 414.811 371.556 407 371.5C408.021 367.332 408.972 365.35 413 364V360C405.429 358.216 401.5 360.5 399.5 356H436L436.105 355.998C464.222 355.503 480.011 355.225 482 357.5C484.449 351.153 486.663 347.457 493 340.459Z" fill="#773A03"/>
<path d="M425 373L436 356H399.5C401.5 360.5 405.429 358.216 413 360V364C408.972 365.35 408.021 367.332 407 371.5C414.811 371.556 418.792 374.721 425.3 385L425 373Z" fill="black"/>
<path d="M482 357.5C508.649 357.81 523.191 357.665 527 340C510.796 342.841 504.116 342.249 493 340.459C486.663 347.457 484.449 351.153 482 357.5Z" fill="black"/>
<path d="M280.5 146.524C277.558 145.934 274.4 145.431 271 145C264.493 154.01 261.264 163.598 260.678 173C266 156 286.64 161.735 292 177.5C287.303 181.983 284.403 183.957 278 185C286.771 198.892 290.543 212.095 313 206.5L312.786 205.551C306.846 179.156 303.45 164.067 280.5 146.524Z" fill="black"/>
<path d="M313 206.5C290.543 212.095 286.771 198.892 278 185C284.403 183.957 287.303 181.983 292 177.5C286.64 161.735 266 156 260.678 173C259.624 189.915 267.126 206.23 279.5 217.5L268 242.378C277.691 233.509 285.174 229 303.5 222C287.78 218.774 281.052 215.505 273.5 206.5C275.142 202.452 277.031 200.849 282.5 199.5C291.282 212.033 297.454 215.151 313 206.5Z" fill="#773A03"/>
<path d="M189.138 364C181.548 374.914 175.037 380.252 162.5 389.461L354.518 421.129H394C403.956 413.356 414.353 404.839 425.898 395.092C426.249 394.795 426.602 394.497 426.956 394.198L401.619 396.786L398.5 396.305L368.369 391.656L189.138 364Z" fill="#37191B"/>
<path d="M571 315.5C568.815 315.458 560.483 308.671 558.457 305.678C558.395 306.292 558.331 306.899 558.266 307.5C564.084 313.715 566.748 315.739 570.5 316.5L571 315.5Z" fill="black"/>
<path d="M556.902 250C557.082 250.642 557.254 251.309 557.416 252C557.433 252.074 557.451 252.148 557.468 252.222C564.388 249.344 567.816 247.368 573.5 243.5L572.5 242C566.898 245.386 563.502 247.126 556.902 250Z" fill="black"/>
<path d="M559.5 264.5C559.565 265.244 559.325 265.498 559.379 266.261L559.395 266.5C564.913 265.816 577.482 261.079 581 259L578.298 258C575.909 259.809 564.085 264.45 559.5 264.5Z" fill="black"/>
<path d="M576 303.5L577 302.5C570.336 298.934 566.456 296.753 559.32 294.883C558.828 294.754 558.32 294.626 557.795 294.5V296.5C558.278 296.58 558.746 296.667 559.201 296.76C565.628 298.071 569.44 300.596 576 303.5Z" fill="#040404"/>
<path d="M582 286.5L582.5 284.5C573.638 280.763 568.388 279.109 559.8 278.59C559.216 278.555 558.617 278.525 558 278.5V280.5C558.617 280.519 559.215 280.542 559.798 280.572C568.353 281.004 573.469 282.634 582 286.5Z" fill="#040404"/>
<path fill-rule="evenodd" clip-rule="evenodd" d="M381.5 222C370.769 217.104 364.847 216.7 358.5 221.436C357.199 222.406 355.881 223.592 354.5 225C352.261 234.127 353.05 238.818 366.5 251.5C370.197 251.5 372.825 251.52 375.014 251.536C378.45 251.561 380.802 251.579 384.5 251.5C387.678 247.83 390.157 245.36 397 239.5C394.892 232.48 392.144 228.623 381.5 222Z" fill="#895424"/>
<path fill-rule="evenodd" clip-rule="evenodd" d="M358.5 221.436C357.199 222.406 355.881 223.592 354.5 225C352.261 234.127 353.05 238.818 366.5 251.5C370.197 251.5 372.825 251.52 375.014 251.536C378.45 251.561 380.802 251.579 384.5 251.5C387.678 247.83 390.157 245.36 397 239.5C385.648 229.321 379.251 223.641 358.5 221.436Z" fill="black"/>
<path d="M397 239.5C394.892 232.48 392.144 228.623 381.5 222C370.769 217.104 364.847 216.7 358.5 221.436C379.251 223.641 385.648 229.321 397 239.5Z" fill="#773A03"/>
<path d="M456.5 326C458.587 325.534 461.953 324.165 465.78 322.35C475.701 317.644 488.718 309.936 490.579 307.178C490.641 307.792 490.704 308.399 490.77 309C486.707 313.34 473.68 320.025 464.912 323.923C461.125 325.607 458.132 326.77 457 327L456.5 326Z" fill="black"/>
<path d="M490 253.05C489.819 253.692 489.648 254.359 489.486 255.05C489.468 255.123 489.451 255.197 489.434 255.271C484.99 253.423 474.549 248.442 466.14 244.09C461.455 241.664 457.4 239.434 455.366 238.05L456.366 236.55C458.413 237.787 462.572 239.938 467.349 242.312C475.648 246.434 485.811 251.225 490 253.05Z" fill="black"/>
<path d="M489.536 266C489.471 266.744 489.71 266.998 489.657 267.761L489.64 268C486.195 268.642 469.517 268.607 455.592 267.729C445.653 267.103 437.117 266.047 435.798 264.5L436 263C436.977 264.333 445.782 265.325 456.003 265.923C470.079 266.746 486.839 266.819 489.536 266Z" fill="black"/>
<path d="M446.5 310L445.5 309C447.869 307.732 453.304 306.07 459.646 304.371C471.142 301.291 485.617 298.088 490.216 296.883C490.708 296.754 491.215 296.626 491.74 296.5V298.5C491.258 298.58 490.79 298.667 490.335 298.76C486.147 299.614 471.588 302.895 460.138 305.881C454.018 307.477 448.785 308.988 446.5 310Z" fill="#040404"/>
<path d="M431.5 296L431 294C434.837 292.382 444.66 289.654 455.263 287.039C469.146 283.615 484.366 280.384 489.235 280.09C489.819 280.055 490.419 280.025 491.036 280V282C490.419 282.019 489.82 282.042 489.238 282.072C484.404 282.316 469.321 285.497 455.577 288.915C444.997 291.546 435.211 294.318 431.5 296Z" fill="#040404"/>
<path fill-rule="evenodd" clip-rule="evenodd" d="M324 185C322.831 182.332 321.669 179.836 320.494 177.5C311.257 159.142 301.199 150.674 280.5 146.524C303.45 164.067 306.846 179.156 312.786 205.551L313 206.5C297.454 215.151 291.282 212.033 282.5 199.5C277.031 200.849 275.142 202.452 273.5 206.5C281.052 215.505 287.78 218.774 303.5 222C285.174 229 277.691 233.509 268 242.378L230.5 323.5L189.138 364L368.369 391.656L398.5 396.305L401.619 396.786C395.052 388.5 388.362 381.439 380.859 375.5C367.076 364.59 350.548 357.468 327 353.5L328.143 353.03C347.777 344.957 359.126 340.291 367.5 332.5L370 347C388.675 339.138 399.318 335.551 419 332.5L415.5 337C424.192 335.424 428.82 334.056 436 329.5C440.321 333.252 443.288 334.829 449.5 337L464.912 323.923C461.125 325.607 458.132 326.77 457 327L456.5 326C458.587 325.534 461.953 324.165 465.78 322.35C463.784 316.477 461.836 311.043 460.138 305.881C454.018 307.477 448.785 308.988 446.5 310L445.5 309C447.869 307.732 453.304 306.07 459.646 304.371C457.915 299 456.48 293.912 455.577 288.915C444.997 291.546 435.211 294.318 431.5 296L431 294C434.837 292.382 444.66 289.654 455.263 287.039C454.275 280.628 454.219 274.328 455.592 267.729C445.653 267.103 437.117 266.047 435.798 264.5L436 263C436.977 264.333 445.782 265.325 456.003 265.923C457.672 259.139 460.875 252.006 466.14 244.09C461.455 241.664 457.4 239.434 455.366 238.05L456.366 236.55C458.413 237.787 462.572 239.938 467.349 242.312C470.052 238.416 473.249 234.329 477 230C487.303 221.902 493.638 218.241 507 215C461.94 199.778 435.53 191.652 370.5 183.5C344.168 183.412 323.172 182.848 324 185ZM381.5 222C392.144 228.623 394.892 232.48 397 239.5C390.157 245.36 387.678 247.83 384.5 251.5C380.802 251.579 378.45 251.561 375.014 251.536C372.825 251.52 370.197 251.5 366.5 251.5C353.05 238.818 352.261 234.127 354.5 225C355.881 223.592 357.199 222.406 358.5 221.436C364.847 216.7 370.769 217.104 381.5 222Z" fill="#895424"/>
<path d="M273.269 532.698C337.627 493.258 374.442 475.151 427.769 426.698L425.898 395.092C414.353 404.839 403.956 413.356 394 421.129C368.689 440.888 346.221 455.834 314.946 473.923C303.269 484.698 203.5 524 191.36 522.463C143.835 530.198 114.934 528.024 65.7938 519.404C63.6039 525.063 62.5364 529.573 63.5 531.5C61.3869 541.533 59.6403 549.051 57.5007 556.277C115.252 564.236 147.506 565.785 204.5 556.277C214 556.277 273.269 532.698 273.269 532.698Z" fill="#37191B"/>
<path d="M136.5 408.5H144C120.795 430.577 109.512 445.935 91 476.117C87.9232 476.934 72.1422 502.999 65.7938 519.404C114.934 528.024 143.835 530.198 191.36 522.463C203.5 524 303.269 484.698 314.946 473.923C346.221 455.834 368.689 440.888 394 421.129H354.518L162.5 389.461C154.466 395.794 146.659 401.524 136.5 408.5Z" fill="#895424"/>
<path d="M429.5 451.5L427.769 426.698C374.442 475.151 337.627 493.258 273.269 532.698C273.269 532.698 214 556.277 204.5 556.277C147.506 565.785 115.252 564.236 57.5007 556.277C55.6342 562.581 53.4687 568.663 50.5 576V634C55.7492 647.574 55.6731 655.162 57.5 666.5L91.5 694.5L115 697.5H123.5L167.5 706.5C200.145 706.604 217.975 704.988 247.5 694C304.741 677.907 332.716 660.984 375 616C390.526 596.988 398.224 584.72 408 556.5C411.673 550.658 414.514 543.533 420.229 510.5C422.689 496.285 425.68 477.273 429.5 451.5Z" fill="#895424"/>
<path d="M368.5 190C347.415 195.191 349.056 193.699 347.5 196.5L396 205.5C390.568 202.316 387.677 200.575 393 200.5C404.119 200.737 410.357 201.523 421.5 205.5C413.841 205.028 411.374 205.79 408.5 208C444.015 223.549 450.956 225.902 457 227C463.044 228.098 491.203 220.5 487.5 215C483.797 209.5 420.163 191.91 368.5 187.5V190Z" fill="#773A03"/>
<path d="M90.0196 523C84.8785 536.509 85.143 543.677 88.0196 554.832C89.4359 554.057 90.7292 553.37 91.9611 552.755C89.5242 541.853 89.5699 535.318 94.0196 523.555C92.6983 523.377 91.3653 523.192 90.0196 523Z" fill="black"/>
<path d="M71.0196 562.029C65.5954 565.781 83.2605 605.085 89.9883 604.409C94.9161 603.913 97.0726 602.467 99.9883 600.909C101.054 600.34 101.978 600.139 103.52 599.42L103.529 599.415C105 598.729 106.614 598.163 108.02 597.529C105.828 595.68 98.8985 584.619 97.2863 582.029C96.7994 581.247 96.3311 580.416 95.8768 579.529C94.7858 577.398 93.775 574.938 92.7791 572.029C92.5057 571.23 92.2335 570.398 91.9611 569.529C91.0785 566.714 90.1936 563.517 89.2605 559.853C85.3822 559.45 81.4102 559.002 77.3203 558.51L76.9181 558.462C75.6835 558.924 75.3549 558.99 75.0673 559.136C74.6309 559.359 74.2892 559.767 71.0196 562.029Z" fill="#E4C9B1"/>
<path d="M76.9181 558.462L77.3203 558.51C81.4102 559.002 85.3822 559.45 89.2605 559.853C88.8571 558.269 88.4447 556.598 88.0196 554.832C86.8677 555.204 85.6952 555.572 84.5315 555.937L84.5305 555.937C81.8205 556.788 79.1588 557.623 76.9181 558.462Z" fill="#E4C9B1"/>
<path d="M106.52 525.06C105.195 524.922 103.862 524.775 102.52 524.62C99.7709 536.886 99.736 542.212 102.52 548.847C103.606 548.584 104.762 548.337 106.02 548.098L105.988 547.904C104.472 541.403 103.874 537.811 106.52 525.06Z" fill="black"/>
<path d="M106.367 567.446L97.538 570.424L103.018 571.303L106.367 567.446Z" fill="#E4C9B1"/>
<path d="M97.538 570.424L92.7791 572.029L96.4954 572.529L101.383 573.186L103.018 571.303L97.538 570.424Z" fill="black"/>
<path d="M110.569 566.029C110.295 565.239 110.028 564.408 109.768 563.529L106.367 567.446L103.018 571.303L101.383 573.186L98.0473 577.029L95.8768 579.529L100.866 577.716L104.301 573.579L105.818 571.753L108.52 568.498L110.569 566.029Z" fill="black"/>
<path d="M95.8768 579.529C96.3311 580.416 96.7994 581.247 97.2863 582.029L100.866 580.62L111.52 576.428L115.077 575.029L110.106 574.36L100.866 577.716L95.8768 579.529Z" fill="black"/>
<path d="M100.866 577.716L110.106 574.36L107.204 573.97L104.301 573.579L100.866 577.716Z" fill="#E4C9B1"/>
<path d="M115.077 575.029C114.624 574.39 114.189 573.726 113.771 573.029L110.334 572.477L105.818 571.753L104.301 573.579L107.204 573.97L110.106 574.36L115.077 575.029Z" fill="black"/>
<path d="M91.9611 569.529C92.2335 570.398 92.5057 571.23 92.7791 572.029L97.538 570.424L106.367 567.446L109.768 563.529L106.52 564.623L95.5196 568.33L91.9611 569.529Z" fill="black"/>
<path d="M142.52 534.718L106.52 548.004C107.369 553.496 108.25 557.91 109.217 561.562C124.449 562.548 138.79 562.661 154.046 561.733C153.694 561.211 153.352 560.683 153.02 560.143C152.995 560.102 152.97 560.062 152.945 560.021C152.919 559.979 152.894 559.937 152.868 559.895C152.315 558.981 151.788 558.033 151.284 557.029C150.736 555.938 150.214 554.781 149.711 553.529C149.516 553.044 149.324 552.544 149.135 552.029C149.086 551.896 149.037 551.763 148.989 551.628L148.954 551.529C148.724 550.888 148.499 550.222 148.276 549.529C147.924 548.435 147.579 547.272 147.239 546.029C146.32 542.676 145.432 538.737 144.52 533.98L142.52 534.718Z" fill="#E4C9B1"/>
<path d="M125.52 590.529L160.76 574.938L162.26 574.351C160.785 572.564 155.234 563.491 154.046 561.733C138.79 562.661 124.449 562.548 109.217 561.562C109.398 562.243 109.581 562.898 109.768 563.529C110.028 564.408 110.295 565.239 110.569 566.029C111.532 568.8 112.586 571.053 113.771 573.029C114.189 573.726 114.624 574.39 115.077 575.029C116.716 577.342 123.32 588.341 125.52 590.529Z" fill="#E4C9B1"/>
<path d="M160.52 528.075C160.294 527.245 160.262 526.75 160.52 525.761C159.297 525.863 158.084 525.957 156.878 526.043C156.612 527.315 156.688 527.949 157.18 528.898C158.215 528.623 159.316 528.354 160.52 528.075Z" fill="black"/>
<path d="M169.888 555.529C169.589 555.106 169.3 554.681 169.02 554.254L168.954 554.154L168.908 554.083C168.872 554.028 168.836 553.972 168.801 553.917L165.655 553.538L161.42 553.029L160.122 554.561L165.63 555.107L169.888 555.529Z" fill="black"/>
<path d="M160.122 554.561L156.878 558.39L165.63 555.107L160.122 554.561Z" fill="#E4C9B1"/>
<path d="M153.02 560.143C153.352 560.683 153.694 561.211 154.046 561.733L156.245 560.872L167.52 556.456L169.888 555.529L165.63 555.107L156.878 558.39L152.868 559.895L152.945 560.021L153.02 560.143Z" fill="black"/>
<path d="M149.135 552.029C149.324 552.544 149.516 553.044 149.711 553.529L153.814 552.114L162.037 549.277L164.842 546.029L161.857 547.062L152.02 550.467L148.954 551.529L148.989 551.628C149.037 551.763 149.086 551.896 149.135 552.029Z" fill="black"/>
<path d="M165.655 548.029C165.442 547.539 165.235 547.04 165.035 546.529C165.001 546.444 164.968 546.358 164.935 546.272C164.904 546.191 164.872 546.11 164.842 546.029L162.037 549.277L159.044 552.743L157.683 554.319L154.48 558.029L152.868 559.895L156.878 558.39L160.122 554.561L161.42 553.029L163.901 550.099L165.655 548.029Z" fill="black"/>
<path d="M159.044 552.743L162.037 549.277L153.814 552.114L156.429 552.428L159.044 552.743Z" fill="#E4C9B1"/>
<path d="M149.711 553.529L152.868 553.821L157.683 554.319L159.044 552.743L156.429 552.428L153.814 552.114L149.711 553.529Z" fill="black"/>
<path d="M144.52 533.98C145.432 538.737 146.32 542.676 147.239 546.029C147.579 547.272 147.924 548.435 148.276 549.529C148.499 550.222 148.724 550.888 148.954 551.529L152.02 550.467C150.061 544.334 149.018 540.728 147.767 532.343C146.753 532.827 145.683 533.367 144.52 533.98Z" fill="black"/>
<path fill-rule="evenodd" clip-rule="evenodd" d="M152.02 550.467C150.061 544.334 149.018 540.728 147.767 532.343C151.038 530.784 153.739 529.811 157.18 528.898C158.621 536.867 159.684 540.755 161.857 547.062L152.02 550.467Z" fill="#E4C9B1"/>
<path d="M163.079 540.529C162.128 537.017 161.31 532.959 160.52 528.075C159.316 528.354 158.215 528.623 157.18 528.898C158.621 536.867 159.684 540.755 161.857 547.062L164.842 546.029C164.596 545.381 164.359 544.716 164.13 544.029C163.76 542.921 163.411 541.758 163.079 540.529Z" fill="black"/>
<path d="M91.9611 552.755C90.7292 553.37 89.4359 554.057 88.0196 554.832C88.4447 556.598 88.8571 558.269 89.2605 559.853C90.6233 559.995 91.9746 560.131 93.3154 560.261C92.8222 558.096 92.3973 555.776 91.9611 552.755Z" fill="black"/>
<path d="M89.2605 559.853C90.1936 563.517 91.0785 566.714 91.9611 569.529L95.5196 568.33C94.5954 565.231 93.9064 562.857 93.3154 560.261C91.9746 560.131 90.6233 559.995 89.2605 559.853Z" fill="black"/>
<path fill-rule="evenodd" clip-rule="evenodd" d="M93.3154 560.261C97.4626 560.664 101.509 561.013 105.487 561.304C104.267 557.273 103.468 554.073 102.52 548.847C98.5343 549.81 95.5018 550.986 91.9611 552.755C92.3973 555.776 92.8222 558.096 93.3154 560.261Z" fill="#E4C9B1"/>
<path d="M106.52 548.004C106.351 548.036 106.184 548.067 106.02 548.098C104.762 548.337 103.606 548.584 102.52 548.847C103.468 554.073 104.267 557.273 105.487 561.304L105.663 561.317C106.501 561.378 107.335 561.437 108.166 561.493C108.517 561.516 108.867 561.539 109.217 561.562C108.25 557.91 107.369 553.496 106.52 548.004Z" fill="black"/>
<path fill-rule="evenodd" clip-rule="evenodd" d="M95.5196 568.33C94.5954 565.231 93.9064 562.857 93.3154 560.261C97.4626 560.664 101.509 561.013 105.487 561.304C105.8 562.34 106.141 563.43 106.52 564.623L95.5196 568.33Z" fill="#E4C9B1"/>
<path d="M109.217 561.562C108.867 561.539 108.517 561.516 108.166 561.493C107.335 561.437 106.501 561.378 105.663 561.317L105.487 561.304C105.8 562.34 106.141 563.43 106.52 564.623L109.768 563.529C109.581 562.898 109.398 562.243 109.217 561.562Z" fill="black"/>
<path d="M97.2863 582.029C98.8985 584.619 105.828 595.68 108.02 597.529C108.52 597.529 110.52 597.029 111.336 596.406C108.986 594.006 102.78 583.664 100.866 580.62L97.2863 582.029Z" fill="black"/>
<path fill-rule="evenodd" clip-rule="evenodd" d="M111.336 596.406C108.986 594.006 102.78 583.664 100.866 580.62L111.52 576.428C113.484 579.746 119.674 590.112 121.988 592.34C118.273 594.132 115.219 595.239 111.336 596.406Z" fill="#E4C9B1"/>
<path d="M125.52 590.529C123.32 588.341 116.716 577.342 115.077 575.029L111.52 576.428C113.484 579.746 119.674 590.112 121.988 592.34C123.02 592.029 124.02 591.529 125.52 590.529Z" fill="black"/>
<path d="M173.454 560.05C172.132 558.52 170.951 557.034 169.888 555.529L167.52 556.456L170.289 560.39C171.337 560.282 172.392 560.168 173.454 560.05Z" fill="black"/>
<path d="M178.02 567.001C177.922 566.889 176.405 564.407 175.412 562.931L175.411 562.929C174.467 561.526 173.545 560.155 173.454 560.05C172.392 560.168 171.337 560.282 170.289 560.39L175.52 568.529C176.315 568.093 177.142 567.527 178.02 567.001Z" fill="black"/>
<path fill-rule="evenodd" clip-rule="evenodd" d="M164.52 573.529C168.879 572.431 171.881 570.523 175.52 568.529L170.289 560.39C165.673 560.868 161.183 561.256 156.777 561.557L164.52 573.529Z" fill="#E4C9B1"/>
<path d="M154.046 561.733C155.234 563.491 160.785 572.564 162.26 574.351C163.161 574.351 164.02 574.029 164.52 573.529L156.777 561.557L156.529 561.574C155.699 561.63 154.871 561.683 154.046 561.733Z" fill="black"/>
<path fill-rule="evenodd" clip-rule="evenodd" d="M167.52 556.456L170.289 560.39C165.673 560.868 161.183 561.256 156.777 561.557L156.245 560.872L167.52 556.456Z" fill="#E4C9B1"/>
<path d="M156.245 560.872L154.046 561.733C154.871 561.683 155.699 561.63 156.529 561.574L156.777 561.557L156.245 560.872Z" fill="#2E302A"/>
<path fill-rule="evenodd" clip-rule="evenodd" d="M110.334 572.477L108.52 568.498L105.818 571.753L110.334 572.477Z" fill="#E4C9B1"/>
<path d="M113.771 573.029C112.586 571.053 111.532 568.8 110.569 566.029L108.52 568.498L110.334 572.477L113.771 573.029Z" fill="black"/>
<path fill-rule="evenodd" clip-rule="evenodd" d="M98.0473 577.029L101.383 573.186L96.4954 572.529C96.838 574.469 97.2304 575.416 98.0473 577.029Z" fill="#E4C9B1"/>
<path d="M92.7791 572.029C93.775 574.938 94.7858 577.398 95.8768 579.529L98.0473 577.029C97.2304 575.416 96.838 574.469 96.4954 572.529L92.7791 572.029Z" fill="black"/>
<path fill-rule="evenodd" clip-rule="evenodd" d="M152.868 553.821C153.387 555.779 153.619 556.182 154.666 557.997L154.48 558.029L157.683 554.319L152.868 553.821Z" fill="#E4C9B1"/>
<path fill-rule="evenodd" clip-rule="evenodd" d="M165.655 553.538C164.78 552.304 164.359 551.576 163.901 550.099L161.42 553.029L165.655 553.538Z" fill="#E4C9B1"/>
<path d="M144.52 533.98C145.683 533.367 146.753 532.827 147.767 532.343C147.194 530.661 147.146 529.436 147.767 526.547C146.657 526.59 145.55 526.626 144.447 526.655C143.619 529.983 143.765 531.52 144.52 533.98Z" fill="black"/>
<path d="M149.711 553.529C150.214 554.781 150.736 555.938 151.284 557.029C151.788 558.033 152.315 558.981 152.868 559.895L154.48 558.029L154.666 557.997C153.619 556.182 153.387 555.779 152.868 553.821L149.711 553.529Z" fill="black"/>
<path d="M167.103 551.029C166.588 550.063 166.107 549.068 165.655 548.029L163.901 550.099C164.359 551.576 164.78 552.304 165.655 553.538L168.801 553.917C168.195 552.975 167.631 552.018 167.103 551.029Z" fill="black"/>
<path d="M187.52 562.529L186.648 558.396C185.982 558.489 185.319 558.579 184.659 558.669C185.432 559.653 186.719 561.588 187.52 562.529Z" fill="#4E4945"/>
<path d="M185.864 555.226C183.609 548.119 178.042 538.52 169.02 524.938C171.137 537.453 177.062 548.897 184.425 558.368L186.602 557.997C186.417 557.117 186.171 556.195 185.864 555.226Z" fill="#4E4945"/>
<path fill-rule="evenodd" clip-rule="evenodd" d="M186.602 557.997C186.868 559.269 187.507 561.423 187.52 562.529L186.648 558.396L186.602 557.997ZM184.425 558.368C177.062 548.897 171.137 537.453 169.02 524.938L160.52 528.075C161.31 532.959 162.128 537.017 163.079 540.529C163.411 541.758 163.76 542.921 164.13 544.029C164.359 544.716 164.596 545.381 164.842 546.029C164.872 546.11 164.904 546.191 164.935 546.272C164.968 546.358 165.001 546.444 165.035 546.529C165.235 547.04 165.442 547.539 165.655 548.029C166.107 549.068 166.588 550.063 167.103 551.029C167.631 552.018 168.195 552.975 168.801 553.917C168.836 553.972 168.872 554.028 168.908 554.083L168.954 554.154L169.02 554.254C169.3 554.681 169.589 555.106 169.888 555.529C170.951 557.034 172.132 558.52 173.454 560.05C173.545 560.155 174.467 561.526 175.411 562.929L175.412 562.931C176.405 564.407 177.922 566.889 178.02 567.001L187.52 562.529C186.719 561.588 185.432 559.653 184.659 558.669C184.581 558.569 184.503 558.468 184.425 558.368Z" fill="#E4C9B1"/>
<path d="M184.659 558.669C185.319 558.579 185.982 558.489 186.648 558.396L186.602 557.997L184.425 558.368C184.503 558.468 184.581 558.569 184.659 558.669Z" fill="#4E4945"/>
<path d="M201 784.499L208.746 753.078L174.765 718.65L170.5 801.999L184.5 801.999L220.5 801.999C222.5 787.499 201 784.499 201 784.499Z" fill="black"/>
<path d="M203.447 756C243.245 746.342 261.685 679.095 261.685 679.095C261.685 679.095 255.227 630.592 244.831 614.387C240.564 607.736 228.29 584.737 217.027 575.94C248.335 626.061 238.96 636.69 226.246 658.246L220.97 644.062C210.721 662.756 205.307 673.971 197.02 697.003L192.326 688.173L189.515 700.993L169.804 682.027L167.358 709.377C159.972 694.647 156.671 686.402 152.994 671.712L145.478 684.202L141.018 675.814C133.345 683.484 129.581 688.771 124.192 700.616C117.256 691.463 68.0076 675.021 57 665.5C73.9997 713 155.5 706.501 161.999 706.501C163.346 717.869 163.648 765.658 203.447 756Z" fill="#773A03"/>
<path d="M57 665.5C68.0076 675.021 117.256 691.463 124.192 700.616C129.581 688.771 133.345 683.484 141.018 675.814L145.478 684.202L152.994 671.712C156.671 686.402 159.972 694.647 167.358 709.377L169.804 682.027L189.515 700.993L192.326 688.173L197.02 697.003C205.307 673.971 210.721 662.756 220.97 644.062L226.246 658.246C238.96 636.69 248.335 626.061 217.027 575.94L57 665.5Z" fill="#895424"/>
<path d="M184.695 615.3C183.95 621.466 182.188 624.436 179.393 629.865L180.333 630.207C183.667 624.683 185.747 621.714 185.634 615.642L184.695 615.3Z" fill="black"/>
<path d="M198.023 613.766C197.685 623.515 195.181 627.248 190.767 633.824C190.735 633.872 190.702 633.92 190.67 633.969L192.549 634.653C197.166 627.4 200.3 623.528 199.902 614.45L198.023 613.766Z" fill="black"/>
<path d="M174.225 627.984C175.877 629.508 176.969 630.005 179.393 629.865C182.188 624.436 183.95 621.466 184.695 615.3L185.634 615.642C185.747 621.714 183.667 624.683 180.333 630.207C180.464 635.128 181.523 637.015 190.67 633.969L190.767 633.824C195.181 627.248 197.685 623.515 198.023 613.766L199.902 614.45C200.3 623.528 197.166 627.4 192.549 634.653C195.362 639.687 198.018 640.342 204.979 637.049C214.594 632.61 218.368 626.816 217.472 607.542C213.726 599.532 211.478 595.402 206.745 589.803C201.756 594.636 198.029 597.008 189.056 600.392C191.896 597.684 193.079 596.022 192.134 591.935C187.484 592.483 185.457 594.143 182.384 596.661L182.381 596.663C182.029 596.951 181.663 597.251 181.278 597.561C181.282 606.569 179.029 615.777 174.225 627.984Z" fill="#3E1400"/>
<path d="M237.858 539.406L271.398 515.963C276.619 513.056 281.206 510.699 285.359 508.565L285.362 508.563C287.715 507.355 289.928 506.217 292.038 505.092C306.225 497.529 313.486 480.733 317.421 464.075C304.282 493.454 295.227 503.987 274.883 508.013C276.145 504.748 276.816 502.252 277.555 499.049C254.478 521.434 247.618 527.036 241.107 530.478C240.273 526.492 240.561 524.078 245.382 518.732L240.684 517.022C245.455 509.237 247.216 503.199 249.919 491.65C241.028 498.401 235.278 500.546 224.455 503.134L232.576 489.595C212.326 502.116 199.943 508.468 177.503 519.567L173.745 518.199C175.835 505.643 177.572 498.167 184.221 482.105C177.287 489.493 172.826 495.885 168.359 504C168.712 484.919 174.471 470.315 213.97 423.761C179.764 458.667 167.773 475.165 162.652 502.948C161.704 508.093 160.991 513.625 160.416 519.732C161.135 526.834 161.79 532.607 163.434 539.217C165.44 547.282 168.918 556.594 175.78 571.084C177.674 576.418 179.1 581.196 180.024 585.735C180.851 589.791 181.276 593.658 181.278 597.561C181.663 597.251 182.029 596.951 182.381 596.663L182.384 596.661C185.457 594.143 187.484 592.483 192.134 591.935C193.079 596.022 191.896 597.684 189.056 600.392C198.029 597.008 201.756 594.636 206.745 589.803C211.478 595.402 213.726 599.532 217.472 607.542C217.378 605.515 217.232 603.338 217.036 600.999C219.285 579.139 222.285 565.921 231.683 549.396C233.491 546.217 235.536 542.915 237.858 539.406Z" fill="#773A03"/>
<path d="M241.107 530.478C247.618 527.036 254.478 521.434 277.555 499.049C276.816 502.252 276.145 504.748 274.883 508.013C295.227 503.987 304.282 493.454 317.421 464.075L213.97 423.761C174.471 470.315 168.712 484.919 168.359 504C172.826 495.885 177.287 489.493 184.221 482.105C177.572 498.167 175.835 505.643 173.745 518.199L177.503 519.567C199.943 508.468 212.326 502.116 232.576 489.595L224.455 503.134C235.278 500.546 241.028 498.401 249.919 491.65C247.216 503.199 245.455 509.237 240.684 517.022L245.382 518.732C240.561 524.078 240.273 526.492 241.107 530.478Z" fill="#895424"/>
</svg>
