<svg width="1232" height="866" viewBox="0 0 1232 866" fill="none" xmlns="http://www.w3.org/2000/svg">
<path d="M1091.61 450.614C1093.65 447.115 1095.84 443.442 1098.2 439.572C1115.65 430.637 1128.82 421.785 1146.58 409.696C982.349 382.279 926.109 397.357 864.701 457.359C890.931 458.313 902.142 458.939 917.755 460.173C971.92 413.294 1045.83 476.677 1012.31 529.305C1010.57 530.791 1009.28 531.99 1008.32 533.021C1008.41 537.019 1008.46 540.715 1008.45 544.191C1008.43 560.113 1007.35 571.414 1004.89 585.946C1004.44 588.611 1003.95 591.384 1003.4 594.314C1032.03 693.09 924.019 691.534 902.94 659.281L848.626 649.98C878.285 688.745 896.368 709.775 960.152 731.969C1039.8 739.236 1084.14 741.236 1140.83 735.555C1111.91 709.244 1103.17 704.443 1078.29 681.742C1057.32 628.734 1057.39 617.761 1055.3 594.659L1055.87 592.867L1063.61 568.137C1064.53 561.067 1064.17 554.895 1062.68 546.105C1062.08 542.596 1061.31 538.669 1060.36 534.101C1064.35 507.452 1068.45 490.262 1091.61 450.614Z" fill="black"/>
<path d="M1166.21 396.396C1016.76 372.147 932.275 360.882 848.475 462.196L864.701 457.359C926.109 397.357 982.349 382.279 1146.58 409.696C1152.5 405.664 1158.94 401.272 1166.21 396.396Z" fill="#E6EAEB"/>
<path d="M1099.21 444.761C1137.27 425.197 1147.78 414.844 1166.21 396.396C1158.94 401.272 1152.5 405.664 1146.58 409.696C1128.82 421.785 1115.65 430.637 1098.2 439.572C1095.84 443.442 1093.65 447.115 1091.61 450.614C1095.09 448.808 1096.69 447.477 1099.21 444.761Z" fill="#544E2E"/>
<path d="M864.701 457.359L848.475 462.196C853.542 464.067 857.259 464.972 864.457 466.494C884.078 464.808 896.09 464.934 916.854 465.152L918.052 465.164L917.755 460.173C902.142 458.939 890.931 458.313 864.701 457.359Z" fill="#544E2E"/>
<path d="M917.755 460.173L918.052 465.164C968.766 421.312 1032.59 469.153 1007.26 527.593L1003.88 543.062C1005.5 538.252 1004.85 536.728 1008.32 533.021C1009.28 531.99 1010.57 530.791 1012.31 529.305C1045.83 476.677 971.92 413.294 917.755 460.173Z" fill="#544E2E"/>
<path fill-rule="evenodd" clip-rule="evenodd" d="M848.626 649.98L834.436 649.709C838.034 654.552 841.253 659.116 844.325 663.472C864.34 691.851 878.13 711.404 949.989 742.022C1006.81 751.605 1045.2 755.081 1151.53 750.305C1155.13 747.164 1153.42 744.143 1140.83 735.555C1084.14 741.236 1039.8 739.236 960.152 731.969C896.368 709.775 878.285 688.745 848.626 649.98Z" fill="#E6EAEB"/>
<path d="M902.94 659.281C924.019 691.534 1032.03 693.09 1003.4 594.314C1003.95 591.384 1004.44 588.611 1004.89 585.946L998.918 585.088L996.917 595.575C1034.67 659.928 941.127 703.355 904.139 653.326C856.532 645.381 841.636 644.736 834.436 649.709L848.626 649.98L902.94 659.281Z" fill="#544E2E"/>
<path d="M1062.68 546.105C1064.17 554.895 1064.53 561.067 1063.61 568.137L1055.87 592.867C1068.55 592.255 1075.06 592.812 1085.17 595.923C1098.66 574.942 1097.11 563.939 1088.36 544.815L1062.68 546.105Z" fill="#DBBF9F"/>
<path d="M998.918 585.088L1004.89 585.946C1007.35 571.414 1008.43 560.113 1008.45 544.191L1003.88 543.062L789.588 531.535L774.669 534.435C768.461 544.056 765.737 554.218 770.739 566.164L787.757 570.598L998.918 585.088Z" fill="#DBBF9F"/>
<path d="M770.739 566.164C765.737 554.218 768.461 544.056 774.669 534.435L773.912 530.543C760.094 529.517 753.034 528.559 741.147 526.478C740.472 528.679 739.124 528.845 733.876 528.901C733.907 529.35 733.936 529.793 733.965 530.23C734.85 543.752 734.843 551.88 733.353 565.017C733.289 565.581 733.223 566.155 733.153 566.739C747.362 566.879 754.739 567.401 766.054 569.768C769.82 570.399 771.06 569.837 770.739 566.164Z" fill="#1C120D"/>
<path d="M678.979 561.624C674.173 558.214 671.475 556.015 666.309 525.878C655.584 525.02 644.32 524.073 632.438 523.055C638.36 553.053 641.11 558.756 645.533 559.536L678.979 561.624Z" fill="#4F3128"/>
<path d="M645.533 559.536C641.11 558.756 638.36 553.053 632.438 523.055C619.715 521.964 614.486 521.442 600.246 520.208C603.856 550.897 605.664 555.308 610.836 557.371L645.533 559.536Z" fill="#160903"/>
<path d="M610.836 557.371C605.664 555.308 603.856 550.897 600.246 520.208C597.984 520.012 587.498 519.164 585.195 518.965C575.829 524.592 574.249 531.97 580.342 555.468L610.836 557.371Z" fill="#75594D"/>
<path d="M554.391 516.331C544.577 525.147 542.417 532.46 549.848 553.565L580.342 555.468C574.249 531.97 575.829 524.592 585.195 518.965C575.319 518.111 565.061 517.231 554.391 516.331Z" fill="#140900"/>
<path d="M711.688 563.665C706.666 559.817 703.93 555.534 699.776 528.359C689.198 527.654 678.078 526.819 666.309 525.878C671.475 556.015 674.173 558.214 678.979 561.624L711.688 563.665Z" fill="#170A04"/>
<path d="M733.353 565.017C734.843 551.88 734.85 543.752 733.965 530.23C723.169 529.797 711.825 529.162 699.776 528.359C703.93 555.534 706.666 559.817 711.688 563.665L733.353 565.017Z" fill="#75594D"/>
<path d="M549.848 553.565C542.417 532.46 544.577 525.147 554.391 516.331C545.254 517.362 540.375 516.156 536.418 508.717C528.316 504.689 524.055 504.476 517.238 508.743C509.297 504.825 506.705 507.723 501.67 511.769C496.39 529.899 496.902 538.348 499.505 552.58C499.893 558.847 503.349 559.676 513.343 557.968C519.624 560.519 523.222 561.506 530.712 557.285C536.808 551.622 540.891 550.549 549.848 553.565Z" fill="#BCB3AA"/>
<path d="M514.988 692.9L518.678 706.022L545.909 722.002L572.48 735.865L546.628 735.865L482.873 735.82L467.48 735.82L471.98 710.253L469.48 688.253L514.988 692.9Z" fill="#456746"/>
<path d="M452.531 685.386L461.871 709.777L473.772 733.977L450.436 717.33L387 671L431.5 642L444.832 657.626L463.961 664.242L452.531 685.386Z" fill="#456746"/>
<path d="M270.599 454.74L297.393 460.191C295.281 470.588 293.742 480.605 292.844 490.693L269.812 519.311L271.886 546.47L224.708 554.227L136.316 531.083L80.6861 501.003L76.8746 477.712C98.7294 478.919 107.729 479.785 118.842 481.56C117.732 488.292 116.493 492.402 108.878 502.517C111.192 501.874 113.584 501.74 131.322 504.269C135.346 508.134 136.972 510.647 139.524 515.319C143.405 513.91 145.37 512.353 147.925 506.708C161.938 505.337 169.809 505.493 183.874 507.455C188.552 516.144 189.529 521.183 191.609 530.137L202.922 530.562C206.313 513.897 224.87 516.834 241.695 536.105L233.322 511.887L246.827 510.882L250.604 468.966L279.434 472.017L270.599 454.74Z" fill="#2D2727"/>
<path d="M64.8488 457.441C67.7303 463.896 70.8167 468.706 76.8746 477.712L80.6861 501.003L136.316 531.083L224.708 554.227L271.886 546.47L269.812 519.311L292.844 490.693C291.016 511.234 291.842 532.066 295.889 556.982L310.925 560.041C299.407 572.431 287.076 585.075 253.604 584.966L111.478 555.112C104.446 549.284 98.0967 544.244 92.177 539.458C95.7301 536.862 97.2032 534.74 97.9063 528.428C93.9213 527.094 91.0755 525.574 82.7689 518.782C77.1639 521.226 75.4054 522.633 75.3747 525.252C64.9087 515.755 55.1295 505.152 44.1089 489.339L38.6354 488.226L47.6828 471.773L29.438 468.061L29.392 467.959C24.2276 456.494 21.3157 450.029 19.978 435.178C27.4278 438.436 33.607 443.299 45.6917 453.543L64.8488 457.441Z" fill="#343F31"/>
<path d="M609.5 570.5L474 530L366.5 552.376C424.128 600.306 432 613.5 468 697.876L522 694.5C524 660 588.5 618.5 588.5 618.5C588.5 618.5 606.718 592.681 609.5 570.5Z" fill="black"/>
<path d="M607.905 324.966L669.119 267.632L712.12 335.726C708.273 347.248 710.01 350.014 715.164 353.017C712.642 358.391 711.095 363.04 708.128 375.639L661.027 369.226L657.556 368.753L609.789 334.437L607.905 324.966Z" fill="#AEBA78"/>
<path d="M661.027 369.226L708.128 375.639C706.492 383.589 703.339 387.679 700.182 390.606C703.972 396.689 704.836 405.387 706.906 418.7C703.509 436.517 702.802 444.96 702.335 459.019C698.894 466.93 696.666 470.43 693.88 475.298L686.811 466.436L669.345 461.833L656.57 447.903L623.926 440.117C639.366 422.487 648.548 413.776 666.295 401.386C665.174 388.118 667.288 380.771 661.027 369.226Z" fill="#456746"/>
<path d="M556.272 484.036C566.235 482.239 575.126 472.129 586.189 466.972L608.492 464.304L656.433 506.266C643.091 513.979 634.801 517.743 609.426 522.348L585.645 507.493L561.373 509.813L554.225 484.126L556.272 484.036Z" fill="#456746"/>
<path d="M607.905 324.966L609.789 334.437L657.556 368.753L661.027 369.226C667.288 380.771 665.174 388.118 666.295 401.386C648.548 413.776 639.366 422.487 623.926 440.117C610.5 437.607 602.693 437.578 592.747 439.696C590.823 440.106 588.819 440.596 586.678 441.164L586.694 441.121C591.21 428.812 593.747 421.897 599.593 413.994C608.795 407.091 614.399 401.447 626.178 384.157L620.269 383.116L599.593 413.994L578.666 379.926C582.799 364.839 589.818 358.782 590.953 353.576C592.087 348.37 599.346 341.873 607.905 324.966Z" fill="#7A3A2E"/>
<path d="M620.269 383.116L626.178 384.157C614.399 401.447 608.795 407.091 599.593 413.994L620.269 383.116Z" fill="black"/>
<path fill-rule="evenodd" clip-rule="evenodd" d="M693.88 475.298L686.811 466.436L669.345 461.833L656.57 447.903L623.926 440.117C610.5 437.607 602.693 437.578 592.747 439.696L586.189 466.972L608.492 464.304L656.433 506.266C643.091 513.979 634.801 517.743 609.426 522.348L585.645 507.493L561.373 509.813L554.225 484.126L548.085 484.397L547.061 484.443L514.073 495.888L541.678 514.972L540.376 522.358C544.851 524.785 547.036 525.61 550.369 526.151C549.187 539.423 549.399 547.201 549.795 561.082L628.087 574.887C634.338 572.722 641.667 568.149 653.163 560.975C653.675 560.655 654.196 560.33 654.725 560L609.344 557.366L586.722 550.331C598.329 534.168 605.417 525.319 617 521.5L671.153 526C672.669 522.318 673.678 519.159 673.929 516.459C680.928 505.172 685.489 494.651 693.301 476.632L693.88 475.298Z" fill="#2B2D28"/>
<path d="M417.311 564.5L445.998 540C459.521 545.138 490.842 586.281 480.501 572C470.161 557.719 522.47 654.96 458.5 680.5L411.5 650.5C411.5 650.5 413.581 616 371 616C356.002 616 271.5 582.5 276.999 542C282.498 501.5 298.418 542.642 299.498 518L417.311 564.5Z" fill="#2C1D1D"/>
<path d="M730.771 61.1151C735.887 78.7945 736.921 88.3835 735.839 104.971C730.802 106.683 728.728 106.306 725.904 103.839C718.322 93.3288 717.444 92.0217 714.188 87.4069C716.593 84.8127 717.494 80.5328 719.251 73.8931L730.771 61.1151Z" fill="#2A2722"/>
<path d="M651.443 55.0962C642.481 71.1717 639.316 80.2822 636.639 96.6877C641.162 99.4891 643.268 99.5882 646.575 97.8197C656.327 89.2848 657.476 88.2087 661.686 84.4444C659.927 81.3759 660.012 77.003 659.794 70.1382L651.443 55.0962Z" fill="#2A2722"/>
<path d="M655.322 109.384C662.655 106.443 664.78 103.877 665.679 97.9835C670.466 102.824 672.75 105.75 675.353 111.667L676.514 113.309C659.231 112.783 656.1 111.758 655.322 109.384Z" fill="#A4A971"/>
<path d="M722.313 104.436C722.789 112.052 725.071 114.896 731.827 118.101C729.092 120.625 728.482 122.442 711.616 118.818C712.068 117.786 712.503 116.835 712.936 115.949C715.263 111.192 717.561 108.271 722.313 104.436Z" fill="#A4A971"/>
<path fill-rule="evenodd" clip-rule="evenodd" d="M577.46 33.0795C582.868 34.1989 582.025 59.2646 574.573 58.4156C566.83 58.2344 549.523 55.682 542.835 54.2963C536.148 52.9106 537.791 29.0709 545.722 28.9602C553.653 28.8495 572.052 31.9601 577.46 33.0795ZM564.814 33.6516C568.841 43.7329 562.549 53.523 562.549 53.523C562.549 53.523 559.21 44.6405 564.814 33.6516Z" fill="#A4A971"/>
<path fill-rule="evenodd" clip-rule="evenodd" d="M493.503 23.5138C498.911 24.6332 498.068 49.6989 490.616 48.8499C482.873 48.6687 467.497 46.8395 460.809 45.4538C454.121 44.0681 455.765 20.2284 463.696 20.1177C471.626 20.007 488.095 22.3944 493.503 23.5138ZM482.844 24.3123C486.871 34.3936 480.58 44.1838 480.58 44.1838C480.58 44.1838 477.24 35.3012 482.844 24.3123Z" fill="#A4A971"/>
<path d="M564.814 33.6516C568.841 43.7329 562.549 53.523 562.549 53.523C562.549 53.523 559.21 44.6405 564.814 33.6516Z" fill="#D22B2B"/>
<path d="M482.844 24.3123C486.871 34.3936 480.58 44.1838 480.58 44.1838C480.58 44.1838 477.24 35.3012 482.844 24.3123Z" fill="#D22B2B"/>
<path d="M731.827 118.101L747.724 119.912L746.706 128.854L742.731 128.402C742.679 128.38 742.628 128.374 742.577 128.384L546.998 106.1L534.905 106.232L535.754 98.7806C543.429 100.658 547.455 101.512 551.154 100.535C562.432 103.435 564.481 103.394 565.064 102.12C575.723 104.486 583.339 107.408 588.91 104.837C603.286 108.428 609.113 109.386 611.762 107.441C622.922 109.85 626.873 109.693 628.992 106.384L655.322 109.384C656.1 111.758 659.231 112.783 676.514 113.309L675.353 111.667L712.936 115.949C712.503 116.835 712.068 117.786 711.616 118.818C728.482 122.442 729.092 120.625 731.827 118.101Z" fill="#2A2722"/>
<path fill-rule="evenodd" clip-rule="evenodd" d="M731.872 42.6208L741.808 43.7528C744.213 59.2673 745.644 66.9685 748.222 80.2133C751.432 96.143 749.545 104.613 747.724 119.912L731.827 118.101C725.071 114.896 722.789 112.052 722.313 104.436C717.561 108.271 715.263 111.192 712.936 115.949L675.353 111.667C672.75 105.75 670.466 102.824 665.679 97.9835C664.78 103.877 662.655 106.443 655.322 109.384L628.992 106.384C626.873 109.693 622.922 109.85 611.762 107.441L600.173 85.4876L588.91 104.837L575.761 87.7386L565.064 102.12L559.568 92.9389L551.154 100.535L545.231 86.273L535.754 98.7806L534.905 106.232L546.998 106.1L742.577 128.384C740.807 128.731 739.584 148.012 737.524 174.106C733.303 176.073 731.022 177.666 727.123 181.476L600.442 167.042L500.588 155.665C474.983 168.47 463.813 173.645 461.505 171.845C453.867 171.51 449.811 171.06 442.628 169.694L438.88 167.254C429.177 154.474 425.835 149.228 421.228 141.088L423.052 160.419C423.668 161.024 424.27 161.624 424.86 162.22L428.371 232.987C405.666 212.677 392.872 202.786 370.328 185.907L369.864 185.559C382.629 150.055 391.052 118.416 405.873 63.8531L440.661 63.2876C440.661 63.2876 443.553 55.5654 446.006 47.2899C448.458 39.0143 449.716 23.5573 453.32 18.4323C456.923 13.3073 462.614 11.9427 462.614 11.9427L502.357 16.4709L506.124 31.9971L526.989 34.3743L534.151 20.0934L587.307 26.1497C591.84 28.0318 592.923 30.8613 594.734 36.0541C595.565 53.7882 596.319 62.9779 598.595 77.256L628.402 80.6521C633.028 62.081 638.046 51.755 648.412 33.1117L659.341 34.357L671.17 49.7952L717.868 55.1158L731.872 42.6208ZM636.639 96.6877C639.316 80.2822 642.481 71.1717 651.443 55.0962L659.794 70.1382C660.012 77.003 659.927 81.3759 661.686 84.4444C657.476 88.2087 656.327 89.2848 646.575 97.8197C643.268 99.5882 641.162 99.4891 636.639 96.6877ZM735.839 104.971C736.921 88.3835 735.887 78.7945 730.771 61.1151L719.251 73.8931C717.494 80.5328 716.593 84.8127 714.188 87.4069C717.444 92.0217 718.322 93.3288 725.904 103.839C728.728 106.306 730.802 106.683 735.839 104.971ZM574.573 58.4156C582.025 59.2646 582.868 34.1989 577.46 33.0795C572.052 31.9601 553.653 28.8495 545.722 28.9602C537.791 29.0709 536.148 52.9106 542.835 54.2963C549.523 55.682 566.83 58.2344 574.573 58.4156ZM490.616 48.8499C498.068 49.6989 498.911 24.6332 493.503 23.5138C488.095 22.3944 471.626 20.007 463.696 20.1177C455.765 20.2284 454.121 44.0681 460.809 45.4538C467.497 46.8395 482.873 48.6687 490.616 48.8499Z" fill="#426640"/>
<path d="M600.173 85.4876L611.762 107.441C609.113 109.386 603.286 108.428 588.91 104.837L600.173 85.4876Z" fill="#A4A971"/>
<path d="M575.761 87.7386L588.91 104.837C583.339 107.408 575.723 104.486 565.064 102.12L575.761 87.7386Z" fill="#A4A971"/>
<path d="M559.568 92.9389L565.064 102.12C564.481 103.394 562.432 103.435 551.154 100.535L559.568 92.9389Z" fill="#A4A971"/>
<path d="M545.231 86.273L551.154 100.535C547.455 101.512 543.429 100.658 535.754 98.7806L545.231 86.273Z" fill="#A4A971"/>
<path d="M385.467 75.1155C392.079 70.3218 396.728 67.9106 405.873 63.8531C391.052 118.416 382.629 150.055 369.864 185.559L356.973 188.284L340.472 191.772C341.227 184.572 341 180.23 338.265 171.391C346.24 166.891 351.991 164.261 364.802 159.317C359.207 150.795 356.267 145.873 352.886 135.817C360.507 130.061 365.473 126.529 379.052 118.166L370.802 106.658C376.691 102.169 380.724 99.5463 389.277 94.6726C387.552 87.1053 386.938 82.8472 385.467 75.1155Z" fill="#2D2727"/>
<path d="M600.442 167.042L575.433 205.458C569.758 208.282 564.243 209.133 556.869 209.382C559.101 220.707 536.529 246.326 540.318 244.232C522.787 254.892 514.174 258.865 500.398 263.336C488.882 259.927 479.55 258.732 458.782 257.588L437.784 240.602C444.828 229.743 448.83 219.592 454.959 202.803C443.481 184.774 436.797 174.295 424.86 162.22C424.27 161.624 423.668 161.024 423.052 160.419L421.228 141.088C425.835 149.228 429.177 154.474 438.88 167.254L442.628 169.694C449.811 171.06 453.867 171.51 461.505 171.845C463.813 173.645 474.983 168.47 500.588 155.665L600.442 167.042Z" fill="#2D2727"/>
<path d="M454.959 202.803C448.83 219.592 444.828 229.743 437.784 240.602L428.371 232.987L424.86 162.22C436.797 174.295 443.481 184.774 454.959 202.803Z" fill="#714133"/>
<path d="M540.318 244.232C536.529 246.326 559.101 220.707 556.869 209.382C564.243 209.133 569.758 208.282 575.433 205.458C582.54 207.973 585.989 209.557 591.757 212.35C531.316 250.437 544.106 242.138 540.318 244.232Z" fill="#714133"/>
<path d="M539.127 242.991C542.897 240.864 529.814 249.81 589.921 211.197L592.773 210.923C592.69 211.968 592.513 213.119 592.248 214.387C590.366 223.399 584.055 238.363 575.639 263.922C564.225 270.666 553.271 282.579 531.835 307.583C528.399 303.139 526.816 300.09 520.657 284.789L517.176 284.423L517.437 281.937C505.028 271.813 502.946 268.076 499.376 262.442C513.112 257.852 521.69 253.804 539.127 242.991Z" fill="#A8B877"/>
<path d="M436.565 240.255L457.711 257.058C451.316 263.928 443.118 267.943 436.363 273.613C435.405 274.418 434.475 275.256 433.584 276.14C424.796 285.756 421.888 289.297 416.975 295.277L416.974 295.278L416.419 295.955C412.723 295.095 410.668 294.211 407.284 291.978C401.004 281.444 397.882 275.837 393.383 266.385C381.224 247.04 375.55 239.309 367.049 229.932L354.743 193.949L355.301 188.645L368.168 185.808L368.635 186.151C391.325 202.833 404.206 212.612 427.086 232.723L436.565 240.255Z" fill="#A9B779"/>
<path d="M517.437 281.937L517.176 284.423L479.312 324.183L487.796 348.704L465.45 379.538L458.489 378.806L445.529 344.262L461.332 318.272L441.336 274.136L436.363 273.613C443.118 267.943 451.316 263.928 457.711 257.058C478.488 258.021 487.831 259.134 499.376 262.442C502.946 268.076 505.028 271.813 517.437 281.937Z" fill="black"/>
<path d="M531.835 307.583C553.271 282.579 564.225 270.666 575.639 263.922C518.497 354.424 490.352 381.548 458.05 416.466C449.233 401.309 444.712 393.693 428.468 363.082C416.639 339.703 409.195 323.787 395.992 295.556L395.874 295.304C384.43 271.968 378.169 257.019 367.049 229.932C375.55 239.309 381.224 247.04 393.383 266.385C397.882 275.837 401.004 281.444 407.284 291.978C410.668 294.211 412.723 295.095 416.419 295.955L416.974 295.278L416.975 295.277C421.888 289.297 424.796 285.756 433.584 276.14C434.475 275.256 435.405 274.418 436.363 273.613L441.336 274.136L461.332 318.272L445.529 344.262L458.489 378.806L465.45 379.538L487.796 348.704L479.312 324.183L517.176 284.423L520.657 284.789C526.816 300.09 528.399 303.139 531.835 307.583Z" fill="#74543F"/>
<path d="M453.137 463.209C473.617 465.363 469.839 495.632 449.949 493.542C430.058 491.451 432.657 461.055 453.137 463.209Z" fill="black"/>
<path d="M446.552 525.864C465.945 527.902 463.856 557.345 443.468 555.202C423.08 553.059 427.158 523.826 446.552 525.864Z" fill="black"/>
<path fill-rule="evenodd" clip-rule="evenodd" d="M458.05 416.466C490.352 381.548 518.497 354.424 575.639 263.922C584.055 238.363 590.366 223.399 592.248 214.387C623.016 234.054 639.562 245.241 667.474 265.53L660.765 372.415C653.406 389.877 648.845 396.98 648.077 402.252C647.308 407.524 635.581 424.995 632.511 440.333C622.159 486.507 619.52 503.842 614.438 535.745L613.421 535.861L611.748 551.774L610.18 566.691L609.396 574.15L476.505 613.978L441.586 573.104L395.949 605.511L273.824 542.902L274.324 538.146L275.891 537.589L276.309 533.611L277.563 521.677L277.809 503.603L277.839 502.235C278.608 466.563 279.05 446.058 279.245 395.662C275.511 369.578 274.067 354.831 273.267 328.168C273.762 300.676 273.648 285.62 272.419 259.704C272.507 243.636 273.143 232.724 271.746 224.663C294.501 212.943 308.53 201.919 338.831 192.276L355.301 188.645L354.743 193.949L367.049 229.932C378.169 257.019 384.43 271.968 395.874 295.304L395.992 295.556C409.195 323.787 416.639 339.703 428.468 363.082C444.712 393.693 449.233 401.309 458.05 416.466ZM453.137 463.209C473.617 465.363 469.839 495.632 449.949 493.542C430.058 491.451 432.657 461.055 453.137 463.209ZM446.552 525.864C465.945 527.902 463.856 557.345 443.468 555.202C423.08 553.059 427.158 523.826 446.552 525.864Z" fill="#252222"/>
<path d="M346.562 526.647C348.024 525.095 349.405 524.48 353.675 524.267C362.226 531.25 368.389 534.214 379.034 539.332L379.895 539.747C370.57 546.084 365.282 549.421 354.654 550.829C349.624 542.682 346.834 538.093 346.562 526.647Z" fill="black"/>
<path d="M267.48 225.687L271.747 224.259C276.361 231.016 280.696 241.839 287.279 256.497C299.145 279.57 305.492 293.223 316.443 318.445C300.194 345.227 289.373 358.504 265.597 377.637L262.116 375.111L221.812 388.597C220.48 387.894 219.907 387.961 210.877 366.947L212.927 362.043C211.111 352.389 206.954 345.458 209.111 342.758C221.712 315.987 228.53 300.73 237.647 270.467C245.031 258.254 251.337 251.233 267.48 225.687Z" fill="#AFBE7B"/>
<path d="M348.04 434.939C346.805 433.931 345.87 433.899 343.296 434.944C333.882 437.226 325.985 439.192 318.962 441.006C302.599 419.665 292.42 409.133 263.1 406.417L264.971 383.646L265.597 377.637C289.373 358.504 300.194 345.227 316.443 318.445C316.443 318.445 336.45 393.722 330.296 403.969L311.138 381.38C308.785 382.532 308.094 383.697 307.507 386.286C319.455 394.784 326.129 401.645 338.011 414.568C342.303 421.034 345.111 426.768 348.04 434.939Z" fill="#7A3A2E"/>
<path d="M307.507 386.286C308.094 383.697 308.785 382.532 311.138 381.38L330.296 403.969C333.368 407.945 335.874 411.347 338.011 414.568C326.129 401.645 319.455 394.784 307.507 386.286Z" fill="black"/>
<path d="M224.033 395.235C224.732 391.733 224.169 390.327 221.812 388.597L262.116 375.111L265.597 377.637L264.971 383.646L263.1 406.417C292.42 409.133 302.599 419.665 318.962 441.006C301.781 445.445 289.837 448.974 273.748 453.997C268.19 465.96 261.969 470.923 250.059 479.322C241.898 467.008 234.97 458.34 215.543 437.619C217.316 423.707 218.907 414.88 224.033 395.235Z" fill="#456746"/>
<path fill-rule="evenodd" clip-rule="evenodd" d="M302.799 556.58C298.194 552.513 288.592 539.682 250.059 479.322C261.969 470.923 268.19 465.96 273.748 453.997C289.837 448.974 301.781 445.445 318.962 441.006C325.985 439.192 333.882 437.226 343.296 434.944L353.127 459.599C350.086 457.76 344.131 458.727 326.569 463.74C323.547 470.011 320.349 475.642 299.422 507.094C299.948 509.644 304.309 511.436 351.612 518.103C359.136 508.92 362.631 503.15 366.919 491.364C381.748 495.771 384.746 496.193 389.852 496.872C389.69 489.414 390.229 484.842 392.358 475.998L393.328 476.201L429.207 483.704L404.407 504.129L405.676 507.922L404.481 509.078L396.515 516.787L405.564 548.557L333.017 572.831C320.581 569.156 314.859 566.867 304.861 562.744L302.799 556.58ZM353.675 524.267C349.405 524.48 348.024 525.095 346.562 526.647C346.834 538.093 349.624 542.682 354.654 550.829C365.282 549.421 370.57 546.084 379.895 539.747L379.034 539.332C368.389 534.214 362.226 531.25 353.675 524.267Z" fill="#343F31"/>
<path d="M353.127 459.599C371.825 465.709 372.836 470.32 392.358 475.998C390.229 484.842 389.69 489.414 389.852 496.872C384.746 496.193 381.748 495.771 366.919 491.364C362.631 503.15 359.136 508.92 351.612 518.103C304.309 511.436 299.948 509.644 299.422 507.094C320.349 475.642 323.547 470.011 326.569 463.74C344.131 458.727 350.086 457.76 353.127 459.599Z" fill="#456746"/>
</svg>
