<svg width="1232" height="1275" viewBox="0 0 1232 1275" fill="none" xmlns="http://www.w3.org/2000/svg">
<path d="M526.223 257.563C522.308 258.162 518.169 258.757 513.782 259.35C496.26 251.591 481.432 247.028 461.323 240.974C541.524 382.6 587.575 416.048 670.933 425.787C655.521 405.274 649.101 396.372 640.434 383.753C571.501 371.444 574.181 276.302 634.785 269.395C636.984 269.804 638.685 270.041 640.062 270.141C643.041 267.61 645.82 265.301 648.464 263.166C660.572 253.387 669.825 247.26 682.374 240.185C684.675 238.887 687.087 237.558 689.647 236.169C747.076 153.66 812.337 236.668 800.802 272.522L827.149 319.505C838.352 273.126 843.204 246.452 820.826 184.345C777.353 119.373 751.592 84.454 712.401 44.8814C710.204 83.036 711.936 92.6323 709.996 125.498C682.628 174.038 674.247 180.732 657.982 196.529L656.276 197.205L632.724 206.533C626.789 210.187 622.324 214.259 616.563 220.799C614.263 223.409 611.756 226.413 608.867 229.94C586.169 243.303 570.59 250.766 526.223 257.563Z" fill="black"/>
<path d="M439.144 234.244C512.657 362.691 556.074 433.803 684.589 435.137L670.933 425.787C587.575 416.048 541.524 382.6 461.323 240.974C454.616 238.954 447.322 236.769 439.144 234.244Z" fill="#E6EAEB"/>
<path d="M517.103 255.391C478.823 238.509 464.493 236.894 439.144 234.244C447.322 236.769 454.616 238.954 461.323 240.974C481.432 247.028 496.26 251.591 513.782 259.35C518.169 258.757 522.308 258.162 526.223 257.563C522.708 256.026 520.712 255.629 517.103 255.391Z" fill="#544E2E"/>
<path d="M670.933 425.787L684.589 435.137C682.893 430.138 681.294 426.757 678.023 420.352C664.672 406.484 657.378 397.282 644.77 381.374L644.043 380.457L640.434 383.753C649.101 396.372 655.521 405.274 670.933 425.787Z" fill="#544E2E"/>
<path d="M640.434 383.753L644.043 380.457C579.532 368.907 576.612 290.99 636.588 274.281L650.423 267.339C645.77 269.064 645.013 270.498 640.062 270.141C638.685 270.041 636.984 269.804 634.785 269.395C574.181 276.302 571.501 371.444 640.434 383.753Z" fill="#544E2E"/>
<path fill-rule="evenodd" clip-rule="evenodd" d="M827.149 319.505L835.672 330.451C837.138 324.738 838.625 319.485 840.044 314.472C849.291 281.809 855.661 259.306 834.715 185.881C807.042 136.824 786.066 105.52 717.027 27.6829C712.423 26.8766 711.182 30.0363 712.401 44.8814C751.592 84.454 777.353 119.373 820.826 184.345C843.204 246.452 838.352 273.126 827.149 319.505Z" fill="#E6EAEB"/>
<path d="M800.802 272.522C812.337 236.668 747.076 153.66 689.647 236.169C687.087 237.558 684.675 238.887 682.374 240.185L685.399 245.252L694.596 240.321C720.259 172.053 810.793 216.4 795.541 275.275C818.792 316.328 827.466 328.041 835.672 330.451L827.149 319.505L800.802 272.522Z" fill="#544E2E"/>
<path d="M616.563 220.799C622.324 214.259 626.789 210.187 632.724 206.533L656.276 197.205C648.009 187.947 644.425 182.656 640.57 173.065C616.332 175.722 608.927 183.668 599.781 202.08L616.563 220.799Z" fill="#DBBF9F"/>
<path d="M685.399 245.252L682.374 240.185C669.825 247.26 660.572 253.387 648.464 263.166L650.423 267.339L773.488 437.217L784.869 446.767C795.997 445.564 805.392 441.383 811.391 430.233L804.29 414.578L685.399 245.252Z" fill="#DBBF9F"/>
<path d="M811.391 430.233C805.392 441.383 795.997 445.564 784.869 446.767L782.378 449.736C790.099 460.864 793.715 466.817 799.446 477.127C801.533 476.286 802.489 477.208 805.759 481.16C806.082 480.861 806.4 480.566 806.714 480.275C816.442 471.284 822.622 466.289 833.517 459.34C833.985 459.041 834.462 458.739 834.948 458.433C826.315 447.552 822.172 441.627 817.01 431.576C815.173 428.327 813.983 427.73 811.391 430.233Z" fill="#1C120D"/>
<path d="M864.389 502.734C864.755 508.482 864.744 511.884 845.028 534.348C850.974 543.023 857.184 552.162 863.719 561.815C882.865 538.863 885.506 533.265 883.378 529.425L864.389 502.734Z" fill="#4F3128"/>
<path d="M883.378 529.425C885.506 533.265 882.865 538.863 863.719 561.815C870.718 572.152 873.538 576.445 881.36 588.022C902.454 566.401 904.692 562.313 903.077 557.116L883.378 529.425Z" fill="#160903"/>
<path d="M903.077 557.116C904.692 562.313 902.454 566.401 881.36 588.022C882.603 589.86 888.409 598.348 889.675 600.22C899.711 603.873 906.288 600.536 920.391 581.452L903.077 557.116Z" fill="#75594D"/>
<path d="M906.624 625.241C919.358 627.274 926.243 624.416 937.704 605.787L920.391 581.452C906.288 600.536 899.711 603.873 889.675 600.22C895.102 608.248 900.744 616.582 906.624 625.241Z" fill="#140900"/>
<path d="M845.818 476.63C845.984 482.812 844.414 487.525 826.325 507.398C832.296 515.867 838.503 524.828 845.028 534.348C864.744 511.884 864.755 508.482 864.389 502.734L845.818 476.63Z" fill="#170A04"/>
<path d="M833.517 459.34C822.622 466.289 816.442 471.284 806.714 480.275C813.026 488.742 819.523 497.751 826.325 507.398C844.414 487.525 845.984 482.812 845.818 476.63L833.517 459.34Z" fill="#75594D"/>
<path d="M937.704 605.787C926.243 624.416 919.358 627.274 906.624 625.241C913.027 631.548 915.113 635.997 911.896 643.578C913.82 652.211 916.279 655.58 923.715 658.133C925.623 666.575 929.42 666.762 935.59 668.098C952.611 660.956 958.714 655.37 967.924 644.637C972.447 640.487 970.95 637.351 963.505 630.81C961.579 624.47 960.116 621.129 952.301 618.036C944.249 616.888 940.922 614.447 937.704 605.787Z" fill="#BCB3AA"/>
<path d="M736.494 736.421L664.374 642.41L673.005 637.821C682.357 630.505 684.21 638.464 681.629 633.235C686.584 630.216 690.353 627.26 699.569 618.591L734.502 649.231L737.076 651.489L743.775 712.622L736.494 736.421Z" fill="#AEBA78"/>
<path d="M734.502 649.231L699.569 618.591C705.191 612.994 709.968 611.361 714.121 610.678C714.314 603.676 718.302 596.119 723.798 584.15C736.179 571.46 741.311 564.959 749.276 553.751C756.349 549.159 760.054 547.509 764.952 545.043L765.932 556.081L787.125 579.349L790.023 597.596L802.991 611.463C780.894 617.503 768.709 619.65 747.559 620.174C741.315 631.594 735.627 636.442 734.502 649.231Z" fill="#456746"/>
<path d="M881.834 612.164C872.743 608.253 860.041 611.697 848.241 609.932L828.622 600.074L812.183 540.004C827.22 540.915 836.008 542.32 859.176 552.256L870.547 577.196L891.583 588.4L883.551 613.194L881.834 612.164Z" fill="#456746"/>
<path d="M736.494 736.421L743.775 712.622L737.076 651.489L734.502 649.231C735.627 636.442 741.315 631.594 747.559 620.174C768.709 619.65 780.894 617.503 802.991 611.463C812.581 620.752 818.929 624.988 828.179 628.627C829.969 629.331 831.867 630.013 833.919 630.704L833.882 630.731C823.56 638.328 817.761 642.596 808.733 645.884C797.507 646.547 789.894 648.123 770.965 655.862L775.219 659.899L808.733 645.884L807.41 684.945C795.901 695.013 786.912 696.163 783.178 699.794C779.445 703.425 752.592 727.258 736.494 736.421Z" fill="#7A3A2E"/>
<path d="M775.219 659.899L770.965 655.862C789.894 648.123 797.507 646.547 808.733 645.884L775.219 659.899Z" fill="black"/>
<path fill-rule="evenodd" clip-rule="evenodd" d="M764.952 545.043L765.932 556.081L787.125 579.349L790.023 597.596L802.991 611.463C812.581 620.752 818.929 624.988 828.179 628.627L848.241 609.932L828.622 600.074L812.183 540.004C827.22 540.915 836.008 542.32 859.176 552.256L870.547 577.196L891.583 588.4L883.551 613.194L888.702 616.286L889.561 616.801L922.626 625.27L910.42 594.821L915.467 589.503C913.129 585.11 911.793 583.259 909.367 581.019C917.492 570.839 921.515 564.384 928.681 552.856L872.311 499.363C869.103 498.539 865.322 498.078 860.618 497.776L878.136 523.756C898.297 556.657 876.185 569.061 856.532 543.682L855.703 542.613L825.721 506.781C824.21 507.7 822.75 508.579 821.346 509.424C812.985 514.456 806.609 518.293 803.421 522.256C791.627 527.68 782.232 533.795 766.142 544.268L764.952 545.043Z" fill="#2B2D28"/>
<path d="M720.478 1049.49L728.349 1060.24L758.752 1065.55L787.825 1069.15L764.155 1078L705.766 1099.78L691.672 1105.05L687.04 1080.1L677.219 1060.81L720.478 1049.49Z" fill="#456746"/>
<path d="M518.588 1118.19L536.405 1131.03L561.272 1146.03L533.413 1146.03L460.101 1146.03L473.978 1093.66L497.175 1099.9L516.293 1094.81L518.588 1118.19Z" fill="#456746"/>
<path d="M399.991 948.557L425.481 940.52C428.603 950.409 432.035 959.703 436.048 968.753L429.918 1004.13L444.562 1026.37L407.903 1055.36L321.366 1077.46L259.549 1078.11L245.253 1060C264.51 1050.68 272.614 1047.15 282.956 1043.4C285.198 1049.69 286.087 1053.79 284.37 1066.04C286.043 1064.4 288.025 1063.15 304.388 1056.91C309.661 1058.3 312.241 1059.68 316.637 1062.47C319.288 1059.42 320.23 1057.16 319.739 1051.12C331.07 1043.31 337.873 1039.71 350.827 1034.73C358.945 1039.94 362.167 1043.78 368.189 1050.45L378.063 1045.45C373.064 1029.6 390.321 1023.32 413.839 1031.82L395.203 1015.08L406.272 1007.82L389.638 970.195L415.732 959.141L399.991 948.557Z" fill="#2D2727"/>
<path d="M225.365 1048.37C230.888 1052.53 235.806 1055.18 245.253 1060L259.549 1078.11L321.366 1077.46L407.903 1055.36L444.562 1026.37L429.918 1004.13L436.048 968.753C444.219 987.181 454.798 1004.6 470.065 1023.98L484.37 1019.47C480.395 1035.52 475.844 1052.18 447.176 1067.95L311.517 1109.78C302.744 1108.13 294.927 1106.83 287.598 1105.54C289.405 1101.64 289.659 1099.13 287.269 1093.4C283.23 1094.14 280.076 1094.19 269.756 1092.32C266.122 1097.07 265.286 1099.11 266.5 1101.36C253.052 1098.2 239.666 1093.77 222.751 1085.47L217.543 1087.11L217.481 1068.76L200.124 1074.23L200.036 1074.17C190.187 1066.81 184.634 1062.67 176.453 1050.6C184.366 1049.86 191.953 1051.09 207.14 1054.12L225.365 1048.37Z" fill="#343F31"/>
<path d="M754.395 928.326L600.496 913.569L507.196 972.455C576.368 996.613 610.7 1003.59 675.163 1070.77L725.983 1047.6C749.506 1023.14 757.326 940.546 757.326 940.546C757.326 940.546 758.794 931.748 754.395 928.326Z" fill="black"/>
<path d="M740.824 418.183C750.127 433.581 753.529 442.374 756.704 458.309C752.382 461.2 750.328 461.369 747.037 459.754C737.219 451.749 736.059 450.737 731.818 447.203C733.432 444.145 733.2 439.876 733.179 433.163L740.824 418.183Z" fill="#2A2722"/>
<path d="M664.399 432.57C660.005 450.015 659.321 459.418 660.944 475.586C665.923 477.087 667.937 476.647 670.612 474.141C677.66 463.615 678.473 462.308 681.496 457.689C679.059 455.237 678.033 451.086 676.09 444.66L664.399 432.57Z" fill="#2A2722"/>
<path d="M681.797 482.847C687.976 478.215 689.333 475.254 688.692 469.462C694.436 472.821 697.333 475.006 701.287 479.934L702.799 481.191C686.347 485.068 683.132 484.891 681.797 482.847Z" fill="#A4A971"/>
<path d="M743.798 461.226C746.173 468.297 749.048 470.405 756.238 471.722C754.294 474.797 754.178 476.667 737.336 477.512C737.502 476.423 737.672 475.416 737.857 474.469C738.85 469.39 740.281 466.049 743.798 461.226Z" fill="#A4A971"/>
<path fill-rule="evenodd" clip-rule="evenodd" d="M588.974 430.499C594.363 430.188 599.909 454.068 592.658 455.152C585.302 456.94 568.315 458.908 561.649 459.292C554.984 459.676 550.505 436.75 557.965 434.639C565.425 432.528 583.585 430.81 588.974 430.499ZM577.178 434.239C583.532 442.739 580.068 453.574 580.068 453.574C580.068 453.574 574.668 446.032 577.178 434.239Z" fill="#A4A971"/>
<path fill-rule="evenodd" clip-rule="evenodd" d="M507.282 442.708C512.671 442.397 518.217 466.277 510.966 467.361C503.61 469.149 488.628 471.312 481.963 471.695C475.298 472.079 470.819 449.154 478.279 447.043C485.739 444.932 501.892 443.019 507.282 442.708ZM497.42 446.159C503.773 454.659 500.31 465.494 500.31 465.494C500.31 465.494 494.909 457.952 497.42 446.159Z" fill="#A4A971"/>
<path d="M577.178 434.239C583.532 442.739 580.068 453.574 580.068 453.574C580.068 453.574 574.668 446.032 577.178 434.239Z" fill="#D22B2B"/>
<path d="M497.42 446.159C503.773 454.659 500.31 465.494 500.31 465.494C500.31 465.494 494.909 457.952 497.42 446.159Z" fill="#D22B2B"/>
<path d="M756.238 471.722L771.706 469.41L773.007 478.111L769.14 478.689C769.085 478.681 769.035 478.689 768.989 478.711L578.686 507.152L567.301 510.336L566.218 503.086C573.94 502.916 577.957 502.704 581.203 500.846C592.585 500.731 594.509 500.174 594.737 498.823C605.4 498.361 613.33 499.193 617.94 495.356C632.423 495.11 638.167 494.539 640.176 492.032C651.322 491.484 655.013 490.336 656.177 486.676L681.797 482.847C683.132 484.891 686.347 485.068 702.799 481.191L701.287 479.934L737.857 474.469C737.672 475.416 737.502 476.423 737.336 477.512C754.178 476.667 754.294 474.797 756.238 471.722Z" fill="#2A2722"/>
<path fill-rule="evenodd" clip-rule="evenodd" d="M737.184 400.442L746.852 398.997C753.048 413.038 756.348 419.947 762.132 431.801C769.193 446.029 769.555 454.503 771.706 469.41L756.238 471.722C749.048 470.405 746.173 468.297 743.798 461.226C740.281 466.049 738.85 469.39 737.857 474.469L701.287 479.934C697.333 475.006 694.436 472.821 688.692 469.462C689.333 475.254 687.976 478.215 681.797 482.847L656.177 486.676C655.013 490.336 651.322 491.484 640.176 492.032L623.679 474.236L617.94 495.356L601.199 482.538L594.737 498.823L587.225 491.545L581.203 500.846L572.001 488.878L566.218 503.086L567.301 510.336L578.686 507.152L768.989 478.711C767.406 479.487 771.129 498.001 775.786 523.16C772.298 526.085 770.548 528.167 767.83 532.75L644.567 551.172L547.406 565.693C526.469 584.261 517.232 591.974 514.598 590.858C507.3 592.473 503.357 593.075 496.229 593.603L492.073 592.247C479.678 582.635 475.195 578.527 468.786 572.007L475.399 589.797C476.134 590.213 476.854 590.627 477.561 591.041L498.781 656.971C472.205 643.539 457.622 637.436 432.065 627.202L431.539 626.992C434.61 590.239 434.557 558.234 434.748 502.967L467.451 493.631C467.451 493.631 468.229 485.608 468.451 477.174C468.673 468.74 465.95 453.827 468.055 448.076C470.161 442.326 475.189 439.598 475.189 439.598L513.86 433.818L521.345 447.525L541.647 444.491L544.797 429.195L596.519 421.465C601.275 422.095 603.013 424.493 606.037 428.937C611.309 445.472 614.345 453.958 620.106 466.864L649.109 462.529C648.779 443.824 650.904 432.804 655.975 412.579L666.61 410.99L681.684 422.574L727.122 415.783L737.184 400.442ZM660.944 475.586C659.321 459.418 660.005 450.015 664.399 432.57L676.09 444.66C678.033 451.086 679.059 455.237 681.496 457.689C678.473 462.308 677.66 463.615 670.612 474.141C667.937 476.647 665.923 477.087 660.944 475.586ZM756.704 458.309C753.529 442.374 750.127 433.581 740.824 418.183L733.179 433.163C733.2 439.876 733.432 444.145 731.818 447.203C736.059 450.737 737.219 451.749 747.037 459.754C750.328 461.369 752.382 461.2 756.704 458.309ZM592.658 455.152C599.909 454.068 594.363 430.188 588.974 430.499C583.585 430.81 565.425 432.528 557.965 434.639C550.505 436.75 554.984 459.676 561.649 459.292C568.315 458.908 585.302 456.94 592.658 455.152ZM510.966 467.361C518.217 466.277 512.671 442.397 507.282 442.708C501.892 443.019 485.739 444.932 478.279 447.043C470.819 449.154 475.298 472.079 481.963 471.695C488.628 471.312 503.61 469.149 510.966 467.361Z" fill="#426640"/>
<path d="M623.679 474.236L640.176 492.032C638.167 494.539 632.423 495.11 617.94 495.356L623.679 474.236Z" fill="#A4A971"/>
<path d="M601.199 482.538L617.94 495.356C613.33 499.193 605.4 498.361 594.737 498.823L601.199 482.538Z" fill="#A4A971"/>
<path d="M587.225 491.545L594.737 498.823C594.509 500.174 592.585 500.731 581.203 500.846L587.225 491.545Z" fill="#A4A971"/>
<path d="M572.001 488.878L581.203 500.846C577.957 502.704 573.94 502.916 566.218 503.086L572.001 488.878Z" fill="#A4A971"/>
<path d="M418.33 518.763C423.36 512.564 427.14 509.111 434.748 502.967C434.557 558.234 434.61 590.239 431.539 626.992L420.057 632.826L405.359 640.294C404.25 633.304 402.938 629.262 398.119 621.608C404.511 615.342 409.275 611.404 420.121 603.495C412.681 596.864 408.661 592.96 402.924 584.321C408.664 576.958 412.459 572.366 423.164 561.034L412.463 552.256C416.888 546.527 420.032 543.031 426.875 536.265C423.332 529.556 421.674 525.691 418.33 518.763Z" fill="#2D2727"/>
<path d="M644.567 551.172L630.672 593.772C626.029 597.874 621.036 600.073 614.137 602.173C619.11 612.302 604.279 642.202 607.326 639.266C593.471 653.767 586.343 659.697 574.467 667.404C562.731 667.099 553.618 668.331 533.718 672.505L509.595 661.779C513.499 649.744 514.709 639.147 516.249 621.744C500.85 607.625 491.888 599.422 477.561 591.041C476.854 590.627 476.134 590.213 475.399 589.797L468.786 572.007C475.195 578.527 479.678 582.635 492.073 592.247L496.229 593.603C503.357 593.075 507.3 592.473 514.598 590.858C517.232 591.974 526.469 584.261 547.406 565.693L644.567 551.172Z" fill="#2D2727"/>
<path d="M516.249 621.744C514.709 639.147 513.499 649.744 509.595 661.779L498.781 656.971L477.561 591.041C491.888 599.422 500.85 607.625 516.249 621.744Z" fill="#714133"/>
<path d="M607.326 639.266C604.279 642.202 619.11 612.302 614.137 602.173C621.036 600.073 626.029 597.874 630.672 593.772C638.018 594.348 641.676 594.971 647.829 596.149C600.396 647.402 610.373 636.331 607.326 639.266Z" fill="#714133"/>
<path d="M555.614 962.58L586.768 925.364C607.441 943.832 614.228 983.453 614.228 983.453C617.585 989.39 564.121 1091.27 521.722 1108.48L486.422 1110.36L461.251 1111.43C461.251 1111.43 485.248 1036.58 464.436 1036C447.562 1035.52 441.015 1018.4 434.361 1000.61C427.706 982.82 439.273 983.267 431.826 960.335L555.614 962.58Z" fill="#2C1D1D"/>
<path d="M607.602 638.399C610.623 635.436 600.534 647.193 647.518 595.528L650.141 594.548C650.327 595.556 650.451 596.687 650.522 597.951C651.025 606.937 648.852 622.662 647.372 648.924C638.301 658.179 630.972 672.199 617.059 701.231C612.689 697.904 610.424 695.426 600.737 682.537L597.358 683.073L596.976 680.659C582.698 674.239 579.786 671.237 574.99 666.821C586.798 659.012 593.874 653.019 607.602 638.399Z" fill="#A8B877"/>
<path d="M510.071 661.763L534.287 672.278C529.987 680.383 523.263 686.248 518.32 693.311C517.618 694.314 516.952 695.34 516.335 696.4C510.47 707.703 508.62 711.782 505.494 718.671L505.494 718.673L505.14 719.452C501.434 719.575 499.269 719.26 495.51 718.008C486.915 709.651 482.548 705.146 475.909 697.36C459.534 682.17 452.221 676.307 441.822 669.604L421.099 638.742L420.284 633.593L431.715 627.658L432.243 627.864C457.888 637.875 472.523 643.85 499.216 657.05L510.071 661.763Z" fill="#A9B779"/>
<path d="M596.976 680.659L597.358 683.073L571.666 730.193L585.88 751.2L572.582 785.966L565.824 787.036L544.848 757.699L553.193 729.16L523.147 692.547L518.32 693.311C523.263 686.248 529.987 680.383 534.287 672.278C554.149 667.931 563.252 666.619 574.99 666.821C579.786 671.237 582.698 674.239 596.976 680.659Z" fill="black"/>
<path d="M617.059 701.231C630.972 672.199 638.301 658.179 647.372 648.924C616.315 748.833 596.603 781.564 574.937 822.706C562.778 810.626 556.582 804.578 533.5 779.785C516.416 760.703 505.362 747.559 485.753 724.243L485.577 724.035C468.868 704.896 459.174 692.365 441.822 669.604C452.221 676.307 459.534 682.17 475.909 697.36C482.548 705.146 486.915 709.651 495.51 718.008C499.269 719.26 501.434 719.575 505.14 719.452L505.494 718.673L505.494 718.671C508.62 711.782 510.47 707.703 516.335 696.4C516.952 695.34 517.618 694.314 518.32 693.311L523.147 692.547L553.193 729.16L544.848 757.699L565.824 787.036L572.582 785.966L585.88 751.2L571.666 730.193L597.358 683.073L600.737 682.537C610.424 695.426 612.689 697.904 617.059 701.231Z" fill="#74543F"/>
<path d="M582.125 868.083C602.007 864.936 606.098 894.472 586.788 897.53C567.479 900.589 562.242 871.231 582.125 868.083Z" fill="black"/>
<path d="M591.758 928.908C610.585 925.926 616.061 954.255 596.269 957.39C576.477 960.524 572.932 931.89 591.758 928.908Z" fill="black"/>
<path fill-rule="evenodd" clip-rule="evenodd" d="M574.937 822.706C596.603 781.564 616.315 748.833 647.372 648.924C648.852 622.662 651.025 606.937 650.522 597.951C684.549 608.737 666.606 601.475 698.093 613.57L736.367 727.101C733.836 745.451 738.622 756.107 739.23 761.28C738.249 746.021 739.838 766.452 739.23 761.28C725.737 796.486 739.287 892.511 757.733 933.301L642.333 1004.53L599.022 974.768L564.13 1016.91L432.98 988.695L432.249 984.078L433.587 983.156L432.975 979.294L431.14 967.708L426.8 950.581L426.482 949.282C418.183 915.406 413.413 895.933 400.847 848.3C390.722 824.616 385.627 811.058 378.127 786.084C371.638 760.002 367.722 745.814 360.005 721.655C356.022 706.462 353.862 695.998 350.504 688.74C369.024 671.916 379.481 657.959 405.652 641.188L420.284 633.593L421.099 638.742L441.822 669.604C459.174 692.365 468.868 704.896 485.577 724.035L485.753 724.243C505.362 747.559 516.416 760.703 533.5 779.785C556.582 804.578 562.778 810.626 574.937 822.706ZM582.125 868.083C602.007 864.936 606.098 894.472 586.788 897.53C567.479 900.589 562.242 871.231 582.125 868.083ZM591.758 928.908C610.585 925.926 616.061 954.255 596.269 957.39C576.477 960.524 572.932 931.89 591.758 928.908Z" fill="#252222"/>
<path d="M356.985 683.629C361.437 690.273 373.011 702.647 379.321 717.031C390.723 739.685 398.939 742.81 409.428 767.556C393.317 793.597 380.817 795.797 357.413 814.295L354.031 811.797L314.521 824.635C313.225 823.937 312.664 823.997 304.017 803.38L306.063 798.604C304.37 789.152 300.365 782.342 302.497 779.72C315.042 753.66 321.837 738.805 331.007 709.302C338.328 697.427 340.254 691.971 356.985 683.629Z" fill="#AFBE7B"/>
<path d="M442.722 869.875C441.524 868.879 436.964 879.878 434.439 880.877C425.218 883.028 422.511 887.91 415.631 889.623C399.819 868.623 381.57 845.405 352.934 842.499L354.957 820.258L357.413 814.295C380.817 795.797 393.317 793.597 409.428 767.556C409.428 767.556 424.74 830.716 418.636 840.68L400.103 818.437C397.793 819.543 397.108 820.676 396.512 823.201C408.119 831.61 417.328 839.455 428.833 852.188C432.973 858.546 439.929 861.863 442.722 869.875Z" fill="#7A3A2E"/>
<path d="M396.512 823.201C397.108 820.676 397.793 819.543 400.103 818.437L418.636 840.68C421.605 844.592 426.771 849.022 428.833 852.188C417.328 839.455 408.119 831.61 396.512 823.201Z" fill="black"/>
<path d="M314.843 831.236C315.556 827.819 316.81 826.346 314.521 824.635L354.031 811.797L357.413 814.295L354.957 820.258L352.934 842.499C381.57 845.405 399.819 868.623 415.631 889.623C398.799 893.815 402.704 902.348 386.934 907.121C381.4 918.767 384.081 932.75 372.369 940.858C364.496 928.752 324.994 893.013 306.182 872.593C308.034 859.01 309.664 850.395 314.843 831.236Z" fill="#456746"/>
<path d="M476.768 951.26C477.576 949.339 478.629 948.303 482.466 946.646C492.686 950.113 499.343 950.716 510.842 951.759L511.773 951.844C505.404 960.839 501.705 965.704 492.455 970.631C485.061 964.894 480.935 961.647 476.768 951.26Z" fill="black"/>
<path fill-rule="evenodd" clip-rule="evenodd" d="M446.945 993.648C441.337 991.502 428.153 983.041 372.209 940.965C380.238 929.198 384.236 922.524 385.229 909.668C398.241 899.561 407.968 892.241 422.18 882.296C427.989 878.231 434.547 873.727 442.385 868.415L459.827 887.623C456.413 886.98 451.291 889.905 436.927 900.507C436.308 907.283 435.307 913.533 426.913 949.495C428.268 951.65 432.874 951.797 478.467 941.708C482.212 930.725 483.437 924.246 483.329 911.986C498.415 910.945 501.304 910.305 506.212 909.179C503.511 902.406 502.439 898.035 501.361 889.209L502.318 889.062L537.738 883.649L522.022 910.841L524.483 913.879L523.785 915.347L519.13 925.132L538.291 951.124L480.177 998.184C467.532 999.076 461.51 998.939 450.944 998.586L446.945 993.648ZM482.466 946.646C478.629 948.303 477.576 949.339 476.768 951.26C480.935 961.647 485.061 964.894 492.455 970.631C501.705 965.704 505.404 960.839 511.773 951.844L510.842 951.759C499.343 950.716 492.686 950.113 482.466 946.646Z" fill="#343F31"/>
<path d="M459.827 887.623C479.038 886.816 481.543 890.693 501.361 889.209C502.439 898.035 503.511 902.406 506.212 909.179C501.304 910.305 498.415 910.945 483.329 911.986C483.437 924.246 482.212 930.725 478.467 941.708C432.874 951.797 428.268 951.65 426.913 949.495C435.307 913.533 436.308 907.283 436.927 900.507C451.291 889.905 456.413 886.98 459.827 887.623Z" fill="#456746"/>
</svg>
